<svg width="24" height="24" viewBox="0 0 24 24" fill="none" xmlns="http://www.w3.org/2000/svg"><path d="M6.847 2.044 C 4.399 2.375,2.253 4.182,1.389 6.640 C 0.766 8.411,0.904 10.335,1.778 12.061 C 2.271 13.033,2.938 13.828,4.936 15.821 C 6.850 17.731,10.303 20.916,10.881 21.304 C 11.357 21.624,11.843 21.731,12.347 21.626 C 12.929 21.504,13.039 21.424,14.659 19.962 C 18.466 16.526,20.785 14.201,21.705 12.900 C 23.136 10.877,23.394 8.298,22.390 6.064 C 21.515 4.116,19.678 2.594,17.675 2.157 C 15.825 1.753,13.802 2.258,12.246 3.511 L 11.993 3.715 11.766 3.530 C 11.106 2.991,10.206 2.513,9.400 2.273 C 8.653 2.051,7.536 1.951,6.847 2.044 M8.239 4.062 C 9.281 4.231,10.090 4.667,11.019 5.560 C 11.436 5.961,11.587 6.082,11.740 6.134 C 12.158 6.276,12.310 6.211,12.880 5.646 C 13.476 5.055,13.865 4.767,14.458 4.478 C 15.936 3.758,17.527 3.886,18.860 4.831 C 20.077 5.694,20.824 6.968,20.964 8.417 C 21.092 9.733,20.705 10.970,19.820 12.080 C 18.838 13.310,16.406 15.700,13.199 18.585 C 12.000 19.664,12.015 19.652,11.945 19.613 C 11.914 19.595,11.378 19.119,10.754 18.557 C 6.942 15.117,4.610 12.784,3.857 11.656 C 2.967 10.323,2.768 8.725,3.305 7.220 C 3.724 6.047,4.684 4.975,5.825 4.405 C 6.555 4.041,7.384 3.923,8.239 4.062 M10.708 7.549 C 10.307 7.683,10.221 7.803,9.510 9.221 L 8.863 10.513 8.481 10.527 C 8.031 10.542,7.839 10.622,7.671 10.864 C 7.532 11.063,7.474 11.413,7.526 11.739 C 7.628 12.373,8.003 12.549,9.180 12.512 C 10.044 12.485,10.157 12.411,10.572 11.610 L 10.822 11.125 11.454 13.020 C 11.801 14.062,12.124 14.974,12.173 15.046 C 12.398 15.379,12.938 15.612,13.275 15.521 C 13.631 15.426,13.740 15.271,14.458 13.841 L 15.116 12.532 15.440 12.507 C 15.878 12.473,16.072 12.408,16.242 12.238 C 16.411 12.069,16.494 11.815,16.491 11.479 C 16.486 11.033,16.340 10.763,16.024 10.616 C 15.831 10.526,15.779 10.521,15.020 10.521 C 13.907 10.522,13.866 10.544,13.428 11.390 L 13.178 11.875 12.527 9.920 C 12.073 8.558,11.841 7.918,11.761 7.808 C 11.542 7.506,11.137 7.406,10.708 7.549 " stroke="none" fill-rule="evenodd" fill="black"></path></svg>