<svg width="24" height="24" viewBox="0 0 24 24" fill="none" xmlns="http://www.w3.org/2000/svg"><path d="M8.914 2.002 C 8.640 2.047,8.357 2.204,8.215 2.390 C 8.114 2.522,7.813 3.384,6.681 6.777 L 5.273 11.000 3.543 11.000 C 1.700 11.000,1.587 11.010,1.322 11.199 C 1.100 11.357,1.020 11.568,1.020 12.000 C 1.020 12.331,1.033 12.403,1.120 12.558 C 1.230 12.755,1.414 12.898,1.635 12.959 C 1.724 12.984,2.631 13.000,3.985 13.000 C 6.442 13.000,6.410 13.003,6.690 12.730 C 6.884 12.541,6.878 12.559,8.025 9.110 C 8.550 7.532,8.989 6.240,9.000 6.240 C 9.011 6.240,10.160 9.661,11.554 13.843 C 14.302 22.086,14.152 21.679,14.520 21.868 C 15.094 22.161,15.604 22.030,15.857 21.524 C 15.907 21.423,16.574 19.463,17.338 17.170 L 18.727 13.000 20.473 13.000 C 21.520 13.000,22.278 12.983,22.365 12.959 C 22.586 12.898,22.770 12.755,22.880 12.558 C 22.967 12.402,22.980 12.332,22.979 12.000 C 22.978 11.567,22.898 11.355,22.678 11.199 C 22.407 11.006,22.331 11.000,20.021 11.000 C 17.547 11.000,17.562 10.998,17.290 11.293 C 17.203 11.389,17.095 11.564,17.051 11.683 C 17.007 11.802,16.532 13.218,15.996 14.830 C 15.459 16.442,15.011 17.760,15.000 17.760 C 14.989 17.760,13.848 14.363,12.464 10.210 C 11.081 6.058,9.908 2.577,9.857 2.476 C 9.663 2.089,9.349 1.931,8.914 2.002 " stroke="none" fill-rule="evenodd" fill="black"></path></svg>