<svg width="24" height="24" viewBox="0 0 24 24" fill="none" xmlns="http://www.w3.org/2000/svg"><path d="M2.626 2.045 C 2.420 2.154,2.146 2.433,2.038 2.644 C 1.855 3.002,1.945 3.326,2.345 3.759 L 2.572 4.003 1.851 4.732 C 1.079 5.513,0.951 5.693,0.951 6.000 C 0.951 6.477,1.523 7.049,2.000 7.049 C 2.308 7.049,2.487 6.921,3.271 6.146 L 4.002 5.423 4.718 6.138 L 5.435 6.854 5.231 7.077 C 5.118 7.200,4.906 7.462,4.759 7.660 C 3.235 9.718,2.662 12.387,3.203 14.908 C 3.458 16.095,4.094 17.477,4.827 18.437 L 4.962 18.614 4.046 19.537 C 3.070 20.520,2.951 20.680,2.951 21.000 C 2.951 21.477,3.523 22.049,4.000 22.049 C 4.320 22.049,4.480 21.930,5.463 20.954 L 6.386 20.038 6.563 20.173 C 7.244 20.693,8.272 21.237,9.100 21.516 C 11.378 22.284,13.785 22.131,15.940 21.082 C 16.709 20.708,17.671 20.057,18.038 19.663 L 18.135 19.558 19.298 20.714 C 20.057 21.469,20.522 21.902,20.637 21.960 C 20.989 22.137,21.354 22.048,21.701 21.701 C 22.047 21.355,22.136 20.990,21.961 20.637 C 21.839 20.392,3.616 2.165,3.372 2.044 C 3.152 1.934,2.834 1.935,2.626 2.045 M18.626 2.045 C 18.420 2.154,18.146 2.433,18.038 2.644 C 17.924 2.867,17.924 3.132,18.039 3.363 C 18.163 3.610,21.390 6.837,21.637 6.961 C 21.990 7.137,22.355 7.048,22.701 6.701 C 23.048 6.355,23.137 5.990,22.961 5.637 C 22.841 5.397,19.611 2.163,19.372 2.044 C 19.152 1.934,18.835 1.935,18.626 2.045 M11.140 4.042 C 9.864 4.174,9.497 4.403,9.502 5.060 C 9.507 5.615,9.744 6.009,10.138 6.119 C 10.306 6.166,10.400 6.164,10.875 6.098 C 11.512 6.010,12.444 6.000,12.980 6.076 C 16.054 6.512,18.485 8.943,18.924 12.020 C 18.999 12.547,18.989 13.526,18.903 14.116 C 18.841 14.533,18.838 14.646,18.879 14.830 C 18.971 15.244,19.384 15.500,19.960 15.500 C 20.463 15.499,20.730 15.225,20.856 14.580 C 21.008 13.806,21.039 12.836,20.940 11.988 C 20.582 8.928,18.723 6.286,15.980 4.941 C 15.093 4.506,14.255 4.242,13.320 4.101 C 12.805 4.024,11.627 3.992,11.140 4.042 M16.629 18.233 C 16.498 18.374,15.978 18.765,15.669 18.954 C 12.889 20.656,9.342 20.236,7.054 17.935 C 6.143 17.018,5.503 15.885,5.205 14.660 C 4.959 13.647,4.959 12.353,5.205 11.340 C 5.460 10.294,6.077 9.104,6.715 8.429 L 6.858 8.278 11.788 13.208 L 16.718 18.137 16.629 18.233 " stroke="none" fill-rule="evenodd" fill="black"></path></svg>