<svg width="24" height="24" viewBox="0 0 24 24" fill="none" xmlns="http://www.w3.org/2000/svg"><path d="M4.620 2.046 C 4.387 2.166,1.154 5.409,1.039 5.637 C 0.863 5.990,0.952 6.355,1.299 6.701 C 1.645 7.048,2.010 7.137,2.363 6.961 C 2.610 6.837,5.837 3.610,5.961 3.363 C 6.137 3.010,6.048 2.645,5.701 2.299 C 5.361 1.959,4.967 1.867,4.620 2.046 M18.626 2.045 C 18.420 2.154,18.146 2.433,18.038 2.644 C 17.924 2.867,17.924 3.132,18.039 3.363 C 18.163 3.610,21.390 6.837,21.637 6.961 C 21.990 7.137,22.355 7.048,22.701 6.701 C 23.048 6.355,23.137 5.990,22.961 5.637 C 22.841 5.397,19.611 2.163,19.372 2.044 C 19.152 1.934,18.835 1.935,18.626 2.045 M11.320 4.025 C 9.086 4.230,7.126 5.141,5.600 6.684 C 4.887 7.405,4.397 8.095,3.940 9.020 C 2.695 11.540,2.687 14.419,3.918 16.940 C 4.175 17.467,4.520 18.035,4.827 18.437 L 4.962 18.614 4.046 19.537 C 3.070 20.520,2.951 20.680,2.951 21.000 C 2.951 21.477,3.523 22.049,4.000 22.049 C 4.320 22.049,4.480 21.930,5.463 20.954 L 6.386 20.038 6.563 20.173 C 8.072 21.325,10.081 22.000,12.000 22.000 C 13.919 22.000,15.928 21.325,17.437 20.173 L 17.614 20.038 18.537 20.954 C 19.520 21.930,19.680 22.049,20.000 22.049 C 20.477 22.049,21.049 21.477,21.049 21.000 C 21.049 20.680,20.930 20.520,19.954 19.537 L 19.038 18.614 19.173 18.437 C 19.903 17.481,20.507 16.177,20.779 14.972 C 21.691 10.930,19.698 6.765,15.980 4.941 C 15.093 4.506,14.255 4.242,13.320 4.101 C 12.908 4.039,11.676 3.992,11.320 4.025 M13.120 6.102 C 16.104 6.559,18.493 8.995,18.924 12.020 C 18.990 12.483,18.990 13.517,18.924 13.980 C 18.478 17.105,16.018 19.526,12.868 19.938 C 9.114 20.430,5.614 17.753,5.076 13.980 C 4.967 13.217,5.022 12.092,5.205 11.340 C 5.701 9.305,7.128 7.561,9.020 6.681 C 9.878 6.282,10.475 6.126,11.540 6.023 C 11.820 5.996,12.727 6.041,13.120 6.102 M11.614 8.057 C 11.377 8.131,11.212 8.261,11.109 8.453 L 11.020 8.620 11.020 10.960 L 11.020 13.300 11.127 13.480 C 11.281 13.739,13.416 15.848,13.637 15.960 C 13.989 16.137,14.354 16.048,14.701 15.701 C 15.048 15.354,15.137 14.989,14.960 14.637 C 14.903 14.525,14.527 14.114,13.937 13.520 L 13.004 12.580 12.992 10.600 C 12.980 8.640,12.979 8.618,12.891 8.453 C 12.842 8.362,12.746 8.247,12.678 8.199 C 12.414 8.010,11.957 7.950,11.614 8.057 " stroke="none" fill-rule="evenodd" fill="black"></path></svg>