<svg width="24" height="24" viewBox="0 0 24 24" fill="none" xmlns="http://www.w3.org/2000/svg"><path d="M11.680 1.519 C 11.404 1.572,11.178 1.663,10.942 1.821 C 10.672 2.000,10.492 2.198,10.221 2.614 C 9.946 3.036,1.280 18.003,1.078 18.405 C 0.773 19.009,0.686 19.440,0.777 19.878 C 0.865 20.299,1.005 20.570,1.286 20.863 C 1.573 21.162,1.872 21.326,2.320 21.430 C 2.601 21.496,3.223 21.500,12.000 21.500 C 20.714 21.500,21.401 21.495,21.673 21.431 C 22.107 21.330,22.375 21.191,22.656 20.921 C 23.055 20.538,23.252 20.082,23.253 19.540 C 23.253 19.185,23.141 18.827,22.863 18.300 C 22.572 17.746,14.042 3.017,13.779 2.614 C 13.508 2.198,13.328 2.000,13.057 1.820 C 12.664 1.559,12.110 1.438,11.680 1.519 M12.136 3.750 C 12.391 4.167,21.015 19.073,21.107 19.254 C 21.161 19.361,21.194 19.460,21.179 19.474 C 21.145 19.508,2.855 19.508,2.821 19.474 C 2.806 19.460,2.839 19.361,2.893 19.254 C 2.985 19.073,11.609 4.167,11.864 3.750 C 11.927 3.646,11.989 3.560,12.000 3.560 C 12.011 3.560,12.073 3.646,12.136 3.750 M11.649 8.037 C 11.439 8.091,11.208 8.267,11.111 8.450 L 11.020 8.620 11.009 10.911 C 11.001 12.392,11.012 13.256,11.039 13.355 C 11.100 13.583,11.242 13.768,11.442 13.880 C 11.598 13.967,11.668 13.980,12.000 13.979 C 12.505 13.977,12.715 13.874,12.894 13.540 C 12.979 13.382,12.980 13.357,12.980 11.000 L 12.980 8.620 12.880 8.442 C 12.726 8.167,12.484 8.037,12.094 8.018 C 11.921 8.010,11.721 8.018,11.649 8.037 M11.649 16.037 C 11.263 16.136,11.039 16.438,11.009 16.900 C 10.978 17.381,11.119 17.699,11.442 17.880 C 11.597 17.967,11.669 17.980,12.000 17.980 C 12.312 17.980,12.408 17.964,12.540 17.894 C 12.866 17.718,13.000 17.459,13.000 17.000 C 13.000 16.356,12.712 16.047,12.083 16.017 C 11.916 16.009,11.721 16.018,11.649 16.037 " stroke="none" fill-rule="evenodd" fill="black"></path></svg>