<svg width="24" height="24" viewBox="0 0 24 24" fill="none" xmlns="http://www.w3.org/2000/svg"><path d="M11.614 1.057 C 11.377 1.131,11.212 1.261,11.109 1.453 C 11.020 1.619,11.020 1.631,11.009 3.858 L 10.997 6.096 9.749 4.850 C 8.451 3.555,8.310 3.442,8.000 3.442 C 7.801 3.442,7.553 3.566,7.322 3.782 C 6.977 4.104,6.871 4.469,7.018 4.823 C 7.065 4.935,7.662 5.563,9.092 7.005 C 10.196 8.119,11.159 9.103,11.231 9.192 C 11.373 9.366,11.778 9.560,12.000 9.560 C 12.222 9.560,12.627 9.366,12.769 9.192 C 12.841 9.103,13.804 8.119,14.908 7.005 C 16.338 5.563,16.935 4.935,16.982 4.823 C 17.129 4.469,17.023 4.104,16.678 3.782 C 16.447 3.566,16.199 3.442,16.000 3.442 C 15.690 3.442,15.549 3.555,14.252 4.850 L 13.003 6.095 12.992 3.858 C 12.980 1.631,12.980 1.619,12.891 1.453 C 12.842 1.362,12.746 1.247,12.678 1.199 C 12.414 1.010,11.957 0.950,11.614 1.057 M2.614 11.057 C 2.377 11.131,2.212 11.261,2.109 11.453 C 2.035 11.592,2.020 11.684,2.020 12.000 C 2.020 12.331,2.033 12.403,2.120 12.558 C 2.230 12.755,2.414 12.898,2.635 12.959 C 2.835 13.015,21.165 13.015,21.365 12.959 C 21.586 12.898,21.770 12.755,21.880 12.558 C 21.967 12.402,21.980 12.332,21.979 12.000 C 21.978 11.567,21.898 11.355,21.678 11.199 C 21.385 10.990,21.877 11.000,11.984 11.003 C 4.546 11.005,2.748 11.015,2.614 11.057 M11.611 14.546 C 11.439 14.616,11.322 14.697,11.231 14.808 C 11.159 14.897,10.196 15.881,9.092 16.995 C 7.662 18.437,7.065 19.065,7.018 19.177 C 6.937 19.373,6.935 19.623,7.014 19.812 C 7.163 20.168,7.680 20.560,8.000 20.559 C 8.312 20.558,8.450 20.446,9.750 19.149 L 11.000 17.900 11.000 20.060 C 11.000 21.384,11.016 22.276,11.041 22.365 C 11.148 22.750,11.437 22.962,11.896 22.991 C 12.381 23.022,12.699 22.882,12.880 22.558 L 12.980 22.380 13.000 20.150 L 13.020 17.919 14.240 19.144 C 15.517 20.425,15.683 20.559,16.000 20.559 C 16.321 20.559,16.837 20.168,16.986 19.812 C 17.065 19.623,17.063 19.373,16.982 19.177 C 16.935 19.065,16.338 18.437,14.908 16.995 C 13.804 15.881,12.841 14.897,12.769 14.808 C 12.675 14.694,12.563 14.618,12.378 14.544 C 12.058 14.416,11.928 14.416,11.611 14.546 " stroke="none" fill-rule="evenodd" fill="black"></path></svg>