<svg width="24" height="24" viewBox="0 0 24 24" fill="none" xmlns="http://www.w3.org/2000/svg"><path d="M2.614 5.057 C 2.377 5.131,2.212 5.261,2.109 5.453 C 2.035 5.592,2.020 5.684,2.020 6.000 C 2.020 6.331,2.033 6.403,2.120 6.558 C 2.230 6.755,2.414 6.898,2.635 6.959 C 2.835 7.015,21.165 7.015,21.365 6.959 C 21.586 6.898,21.770 6.755,21.880 6.558 C 21.967 6.402,21.980 6.332,21.979 6.000 C 21.978 5.567,21.898 5.355,21.678 5.199 C 21.385 4.990,21.877 5.000,11.984 5.003 C 4.546 5.005,2.748 5.015,2.614 5.057 M2.614 9.057 C 2.377 9.131,2.212 9.261,2.109 9.453 C 2.035 9.592,2.020 9.684,2.020 10.000 C 2.020 10.331,2.033 10.403,2.120 10.558 C 2.230 10.755,2.414 10.898,2.635 10.959 C 2.835 11.015,21.165 11.015,21.365 10.959 C 21.586 10.898,21.770 10.755,21.880 10.558 C 21.967 10.402,21.980 10.332,21.979 10.000 C 21.978 9.567,21.898 9.355,21.678 9.199 C 21.385 8.990,21.877 9.000,11.984 9.003 C 4.546 9.005,2.748 9.015,2.614 9.057 M2.614 13.057 C 2.377 13.131,2.212 13.261,2.109 13.453 C 2.035 13.592,2.020 13.684,2.020 14.000 C 2.020 14.331,2.033 14.403,2.120 14.558 C 2.230 14.755,2.414 14.898,2.635 14.959 C 2.835 15.015,21.165 15.015,21.365 14.959 C 21.586 14.898,21.770 14.755,21.880 14.558 C 21.967 14.402,21.980 14.332,21.979 14.000 C 21.978 13.567,21.898 13.355,21.678 13.199 C 21.385 12.990,21.877 13.000,11.984 13.003 C 4.546 13.005,2.748 13.015,2.614 13.057 M2.614 17.057 C 2.377 17.131,2.212 17.261,2.109 17.453 C 2.035 17.592,2.020 17.684,2.020 18.000 C 2.020 18.331,2.033 18.403,2.120 18.558 C 2.230 18.755,2.414 18.898,2.635 18.959 C 2.835 19.015,21.165 19.015,21.365 18.959 C 21.586 18.898,21.770 18.755,21.880 18.558 C 21.967 18.402,21.980 18.332,21.979 18.000 C 21.978 17.567,21.898 17.355,21.678 17.199 C 21.385 16.990,21.877 17.000,11.984 17.003 C 4.546 17.005,2.748 17.015,2.614 17.057 " stroke="none" fill-rule="evenodd" fill="black"></path></svg>