<svg width="24" height="24" viewBox="0 0 24 24" fill="none" xmlns="http://www.w3.org/2000/svg"><path d="M2.614 5.057 C 2.377 5.131,2.212 5.261,2.109 5.453 C 2.035 5.592,2.020 5.684,2.020 6.000 C 2.020 6.331,2.033 6.403,2.120 6.558 C 2.230 6.755,2.414 6.898,2.635 6.959 C 2.835 7.015,21.165 7.015,21.365 6.959 C 21.586 6.898,21.770 6.755,21.880 6.558 C 21.967 6.402,21.980 6.332,21.979 6.000 C 21.978 5.567,21.898 5.355,21.678 5.199 C 21.385 4.990,21.877 5.000,11.984 5.003 C 4.546 5.005,2.748 5.015,2.614 5.057 M5.614 9.057 C 5.377 9.131,5.212 9.261,5.109 9.453 C 5.035 9.592,5.020 9.684,5.020 10.000 C 5.020 10.331,5.033 10.403,5.120 10.558 C 5.230 10.755,5.414 10.898,5.635 10.959 C 5.834 11.015,18.166 11.015,18.365 10.959 C 18.586 10.898,18.770 10.755,18.880 10.558 C 18.967 10.402,18.980 10.332,18.979 10.000 C 18.978 9.567,18.898 9.355,18.678 9.199 C 18.388 8.992,18.642 9.000,11.984 9.003 C 7.009 9.005,5.747 9.016,5.614 9.057 M2.614 13.057 C 2.377 13.131,2.212 13.261,2.109 13.453 C 2.035 13.592,2.020 13.684,2.020 14.000 C 2.020 14.331,2.033 14.403,2.120 14.558 C 2.230 14.755,2.414 14.898,2.635 14.959 C 2.835 15.015,21.165 15.015,21.365 14.959 C 21.586 14.898,21.770 14.755,21.880 14.558 C 21.967 14.402,21.980 14.332,21.979 14.000 C 21.978 13.567,21.898 13.355,21.678 13.199 C 21.385 12.990,21.877 13.000,11.984 13.003 C 4.546 13.005,2.748 13.015,2.614 13.057 M5.614 17.057 C 5.377 17.131,5.212 17.261,5.109 17.453 C 5.035 17.592,5.020 17.684,5.020 18.000 C 5.020 18.331,5.033 18.403,5.120 18.558 C 5.230 18.755,5.414 18.898,5.635 18.959 C 5.834 19.015,18.166 19.015,18.365 18.959 C 18.586 18.898,18.770 18.755,18.880 18.558 C 18.967 18.402,18.980 18.332,18.979 18.000 C 18.978 17.567,18.898 17.355,18.678 17.199 C 18.388 16.992,18.642 17.000,11.984 17.003 C 7.009 17.005,5.747 17.016,5.614 17.057 " stroke="none" fill-rule="evenodd" fill="black"></path></svg>