<svg width="24" height="24" viewBox="0 0 24 24" fill="none" xmlns="http://www.w3.org/2000/svg"><path d="M2.614 2.057 C 2.377 2.131,2.212 2.261,2.109 2.453 L 2.020 2.620 2.010 11.914 C 2.003 18.056,2.013 21.260,2.040 21.358 C 2.144 21.747,2.435 21.962,2.896 21.991 C 3.381 22.022,3.699 21.882,3.880 21.558 L 3.980 21.380 3.980 12.000 L 3.980 2.620 3.891 2.453 C 3.842 2.362,3.746 2.247,3.678 2.199 C 3.414 2.010,2.957 1.950,2.614 2.057 M13.620 4.046 C 13.521 4.097,12.129 5.456,9.960 7.618 C 8.035 9.538,6.399 11.150,6.324 11.201 C 6.149 11.321,5.951 11.744,5.951 12.000 C 5.951 12.239,6.150 12.682,6.304 12.784 C 6.367 12.826,8.003 14.438,9.939 16.366 C 12.423 18.840,13.512 19.898,13.637 19.961 C 13.990 20.137,14.354 20.048,14.701 19.701 C 15.048 19.354,15.137 18.990,14.961 18.637 C 14.898 18.513,14.058 17.644,12.147 15.730 L 9.421 13.000 15.321 13.000 C 19.149 13.000,21.271 12.985,21.365 12.959 C 21.586 12.898,21.770 12.755,21.880 12.558 C 21.967 12.402,21.980 12.332,21.979 12.000 C 21.978 11.567,21.898 11.355,21.678 11.199 C 21.389 10.993,21.616 11.000,15.304 11.000 L 9.421 11.000 12.147 8.270 C 14.058 6.356,14.898 5.487,14.961 5.363 C 15.137 5.010,15.048 4.646,14.701 4.299 C 14.361 3.959,13.967 3.867,13.620 4.046 " stroke="none" fill-rule="evenodd" fill="black"></path></svg>