<svg width="24" height="24" viewBox="0 0 24 24" fill="none" xmlns="http://www.w3.org/2000/svg"><path d="M11.614 2.057 C 11.377 2.131,11.212 2.261,11.109 2.453 L 11.020 2.620 11.009 8.599 L 10.999 14.578 8.269 11.853 C 6.442 10.028,5.484 9.100,5.372 9.044 C 5.020 8.868,4.639 8.959,4.299 9.299 C 3.952 9.646,3.863 10.010,4.039 10.363 C 4.102 10.488,5.160 11.577,7.634 14.061 C 9.562 15.997,11.174 17.633,11.216 17.696 C 11.318 17.850,11.761 18.049,12.000 18.049 C 12.239 18.049,12.682 17.850,12.784 17.696 C 12.826 17.633,14.438 15.997,16.366 14.061 C 18.840 11.577,19.898 10.488,19.961 10.363 C 20.137 10.010,20.048 9.646,19.701 9.299 C 19.361 8.959,18.980 8.868,18.628 9.044 C 18.516 9.100,17.558 10.028,15.731 11.853 L 13.001 14.577 12.991 8.599 L 12.980 2.620 12.891 2.453 C 12.842 2.362,12.746 2.247,12.678 2.199 C 12.414 2.010,11.957 1.950,11.614 2.057 M2.614 20.057 C 2.377 20.131,2.212 20.261,2.109 20.453 C 2.035 20.592,2.020 20.684,2.020 21.000 C 2.020 21.331,2.033 21.403,2.120 21.558 C 2.230 21.755,2.414 21.898,2.635 21.959 C 2.835 22.015,21.165 22.015,21.365 21.959 C 21.586 21.898,21.770 21.755,21.880 21.558 C 21.967 21.402,21.980 21.332,21.979 21.000 C 21.978 20.567,21.898 20.355,21.678 20.199 C 21.385 19.990,21.877 20.000,11.984 20.003 C 4.546 20.005,2.748 20.015,2.614 20.057 " stroke="none" fill-rule="evenodd" fill="black"></path></svg>