<svg width="24" height="24" viewBox="0 0 24 24" fill="none" xmlns="http://www.w3.org/2000/svg"><path d="M3.614 5.057 C 3.377 5.131,3.212 5.261,3.109 5.453 C 3.035 5.592,3.020 5.684,3.020 6.000 C 3.020 6.331,3.033 6.403,3.120 6.558 C 3.230 6.755,3.414 6.898,3.635 6.959 C 3.835 7.015,21.165 7.015,21.365 6.959 C 21.586 6.898,21.770 6.755,21.880 6.558 C 21.967 6.402,21.980 6.332,21.979 6.000 C 21.978 5.567,21.898 5.355,21.678 5.199 C 21.385 4.990,21.838 5.000,12.484 5.003 C 5.456 5.005,3.748 5.015,3.614 5.057 M7.614 9.057 C 7.377 9.131,7.212 9.261,7.109 9.453 C 7.035 9.592,7.020 9.684,7.020 10.000 C 7.020 10.331,7.033 10.403,7.120 10.558 C 7.230 10.755,7.414 10.898,7.635 10.959 C 7.835 11.015,21.165 11.015,21.365 10.959 C 21.586 10.898,21.770 10.755,21.880 10.558 C 21.967 10.402,21.980 10.332,21.979 10.000 C 21.978 9.567,21.898 9.355,21.678 9.199 C 21.388 8.992,21.681 9.000,14.484 9.003 C 9.098 9.005,7.747 9.016,7.614 9.057 M3.614 13.057 C 3.377 13.131,3.212 13.261,3.109 13.453 C 3.035 13.592,3.020 13.684,3.020 14.000 C 3.020 14.331,3.033 14.403,3.120 14.558 C 3.230 14.755,3.414 14.898,3.635 14.959 C 3.835 15.015,21.165 15.015,21.365 14.959 C 21.586 14.898,21.770 14.755,21.880 14.558 C 21.967 14.402,21.980 14.332,21.979 14.000 C 21.978 13.567,21.898 13.355,21.678 13.199 C 21.385 12.990,21.838 13.000,12.484 13.003 C 5.456 13.005,3.748 13.015,3.614 13.057 M7.614 17.057 C 7.377 17.131,7.212 17.261,7.109 17.453 C 7.035 17.592,7.020 17.684,7.020 18.000 C 7.020 18.331,7.033 18.403,7.120 18.558 C 7.230 18.755,7.414 18.898,7.635 18.959 C 7.835 19.015,21.165 19.015,21.365 18.959 C 21.586 18.898,21.770 18.755,21.880 18.558 C 21.967 18.402,21.980 18.332,21.979 18.000 C 21.978 17.567,21.898 17.355,21.678 17.199 C 21.388 16.992,21.681 17.000,14.484 17.003 C 9.098 17.005,7.747 17.016,7.614 17.057 " stroke="none" fill-rule="evenodd" fill="black"></path></svg>