<svg width="24" height="24" viewBox="0 0 24 24" fill="none" xmlns="http://www.w3.org/2000/svg"><path d="M2.614 2.057 C 2.377 2.131,2.212 2.261,2.109 2.453 C 2.035 2.592,2.020 2.684,2.020 3.000 C 2.020 3.331,2.033 3.403,2.120 3.558 C 2.230 3.755,2.414 3.898,2.635 3.959 C 2.835 4.015,21.165 4.015,21.365 3.959 C 21.586 3.898,21.770 3.755,21.880 3.558 C 21.967 3.402,21.980 3.332,21.979 3.000 C 21.978 2.567,21.898 2.355,21.678 2.199 C 21.385 1.990,21.877 2.000,11.984 2.003 C 4.546 2.005,2.748 2.015,2.614 2.057 M11.530 6.085 C 11.392 6.152,11.248 6.254,11.210 6.312 C 11.171 6.370,9.562 8.003,7.634 9.939 C 5.160 12.423,4.102 13.512,4.039 13.637 C 3.863 13.990,3.952 14.354,4.299 14.701 C 4.646 15.048,5.010 15.137,5.363 14.961 C 5.487 14.898,6.356 14.058,8.270 12.147 L 11.000 9.421 11.000 15.321 C 11.000 19.149,11.015 21.271,11.041 21.365 C 11.148 21.750,11.437 21.962,11.896 21.991 C 12.381 22.022,12.699 21.882,12.880 21.558 L 12.980 21.380 12.991 15.401 L 13.001 9.423 15.731 12.147 C 17.645 14.058,18.513 14.898,18.637 14.961 C 18.990 15.137,19.354 15.048,19.701 14.701 C 20.048 14.354,20.137 13.990,19.961 13.637 C 19.898 13.512,18.840 12.423,16.366 9.939 C 14.438 8.003,12.829 6.370,12.790 6.312 C 12.752 6.254,12.604 6.151,12.460 6.083 C 12.113 5.919,11.873 5.920,11.530 6.085 " stroke="none" fill-rule="evenodd" fill="black"></path></svg>