<svg width="24" height="24" viewBox="0 0 24 24" fill="none" xmlns="http://www.w3.org/2000/svg"><path d="M20.614 2.057 C 20.377 2.131,20.212 2.261,20.109 2.453 L 20.020 2.620 20.010 11.914 C 20.003 18.056,20.013 21.260,20.040 21.358 C 20.144 21.747,20.435 21.962,20.896 21.991 C 21.381 22.022,21.699 21.882,21.880 21.558 L 21.980 21.380 21.980 12.000 L 21.980 2.620 21.891 2.453 C 21.842 2.362,21.746 2.247,21.678 2.199 C 21.414 2.010,20.957 1.950,20.614 2.057 M9.626 4.045 C 9.420 4.154,9.146 4.433,9.038 4.644 C 8.924 4.867,8.924 5.132,9.039 5.363 C 9.102 5.487,9.942 6.356,11.853 8.270 L 14.579 11.000 8.696 11.000 C 2.384 11.000,2.611 10.993,2.322 11.199 C 2.100 11.357,2.020 11.568,2.020 12.000 C 2.020 12.331,2.033 12.403,2.120 12.558 C 2.230 12.755,2.414 12.898,2.635 12.959 C 2.729 12.985,4.851 13.000,8.679 13.000 L 14.579 13.000 11.853 15.730 C 9.942 17.644,9.102 18.513,9.039 18.637 C 8.863 18.990,8.952 19.354,9.299 19.701 C 9.646 20.048,10.010 20.137,10.363 19.961 C 10.488 19.898,11.577 18.840,14.061 16.366 C 15.997 14.438,17.633 12.826,17.696 12.784 C 17.850 12.682,18.049 12.239,18.049 12.000 C 18.049 11.744,17.851 11.321,17.676 11.201 C 17.601 11.150,15.965 9.538,14.040 7.618 C 11.675 5.259,10.485 4.101,10.372 4.044 C 10.152 3.934,9.835 3.935,9.626 4.045 " stroke="none" fill-rule="evenodd" fill="black"></path></svg>