<svg width="24" height="24" viewBox="0 0 24 24" fill="none" xmlns="http://www.w3.org/2000/svg"><path d="M11.358 1.061 C 9.731 1.315,8.417 2.584,8.083 4.227 C 7.700 6.105,8.756 8.031,10.540 8.711 C 10.716 8.778,10.892 8.843,10.930 8.855 C 10.996 8.876,11.000 9.200,11.000 14.912 L 11.000 20.947 10.750 20.914 C 9.235 20.713,7.577 19.993,6.347 19.001 C 4.683 17.659,3.512 15.672,3.140 13.559 C 3.107 13.373,3.080 13.171,3.080 13.110 L 3.080 13.000 4.150 13.000 C 4.743 13.000,5.284 12.982,5.365 12.959 C 5.586 12.898,5.770 12.755,5.880 12.558 C 5.967 12.402,5.980 12.332,5.979 12.000 C 5.978 11.552,5.893 11.342,5.649 11.182 C 5.378 11.005,5.249 10.995,3.377 11.008 L 1.614 11.020 1.417 11.142 C 1.291 11.219,1.184 11.328,1.120 11.442 C 1.023 11.614,1.020 11.643,1.025 12.320 C 1.041 14.507,1.827 16.757,3.230 18.637 C 3.684 19.246,4.754 20.316,5.363 20.770 C 6.866 21.892,8.548 22.596,10.420 22.888 C 11.229 23.014,12.771 23.014,13.580 22.888 C 15.452 22.596,17.134 21.892,18.637 20.770 C 19.246 20.316,20.316 19.246,20.770 18.637 C 22.173 16.757,22.960 14.503,22.975 12.320 C 22.980 11.643,22.977 11.614,22.880 11.442 C 22.816 11.328,22.709 11.219,22.583 11.142 L 22.386 11.020 20.623 11.008 C 18.751 10.995,18.622 11.005,18.351 11.182 C 18.105 11.343,18.020 11.553,18.020 12.000 C 18.020 12.331,18.033 12.403,18.120 12.558 C 18.230 12.755,18.414 12.898,18.635 12.959 C 18.716 12.982,19.257 13.000,19.850 13.000 L 20.920 13.000 20.920 13.110 C 20.920 13.443,20.674 14.482,20.454 15.080 C 19.784 16.900,18.551 18.452,16.920 19.531 C 15.890 20.213,14.453 20.754,13.250 20.914 L 13.000 20.947 13.000 14.912 C 13.000 9.200,13.004 8.876,13.070 8.855 C 14.342 8.450,15.237 7.646,15.704 6.488 C 16.090 5.530,16.090 4.469,15.705 3.516 C 15.172 2.197,14.001 1.269,12.605 1.058 C 12.144 0.989,11.816 0.990,11.358 1.061 M12.523 3.073 C 13.262 3.266,13.850 3.924,13.967 4.690 C 14.029 5.098,13.967 5.522,13.793 5.880 C 13.638 6.198,13.227 6.625,12.930 6.775 C 12.492 6.997,11.962 7.059,11.508 6.940 C 10.823 6.762,10.249 6.194,10.073 5.523 C 9.683 4.028,11.028 2.683,12.523 3.073 " stroke="none" fill-rule="evenodd" fill="black"></path></svg>