<svg width="24" height="24" viewBox="0 0 24 24" fill="none" xmlns="http://www.w3.org/2000/svg"><path d="M5.920 2.041 C 4.939 2.106,4.360 2.287,3.700 2.733 C 3.031 3.185,2.467 3.940,2.245 4.680 C 2.003 5.487,1.992 5.763,2.010 10.940 C 2.024 15.376,2.027 15.510,2.107 15.861 C 2.386 17.078,3.127 18.030,4.217 18.571 C 4.895 18.908,5.244 18.963,6.900 18.995 C 8.400 19.024,8.421 19.027,8.690 19.296 C 8.758 19.364,9.267 20.023,9.820 20.760 C 10.373 21.497,10.920 22.185,11.035 22.288 C 11.587 22.784,12.413 22.784,12.965 22.288 C 13.080 22.185,13.627 21.497,14.180 20.760 C 14.733 20.023,15.242 19.364,15.310 19.296 C 15.579 19.027,15.600 19.024,17.100 18.995 C 18.507 18.968,18.834 18.934,19.329 18.764 C 20.537 18.348,21.526 17.286,21.837 16.072 C 21.987 15.486,22.000 15.038,22.000 10.583 C 22.000 5.746,21.988 5.452,21.755 4.680 C 21.424 3.581,20.465 2.622,19.320 2.246 C 18.644 2.024,18.800 2.029,12.340 2.019 C 9.062 2.014,6.173 2.024,5.920 2.041 M18.492 4.091 C 18.894 4.188,19.109 4.309,19.400 4.600 C 19.696 4.896,19.814 5.109,19.912 5.528 C 19.974 5.794,19.980 6.231,19.980 10.520 C 19.980 14.051,19.968 15.277,19.931 15.449 C 19.786 16.135,19.241 16.721,18.580 16.902 C 18.392 16.954,18.034 16.975,16.920 17.001 C 15.433 17.035,15.281 17.052,14.820 17.245 C 14.494 17.382,14.102 17.665,13.827 17.961 C 13.686 18.114,13.221 18.706,12.795 19.278 C 12.369 19.849,12.011 20.317,12.000 20.317 C 11.989 20.317,11.631 19.849,11.205 19.278 C 10.779 18.706,10.314 18.114,10.173 17.961 C 9.898 17.665,9.506 17.382,9.180 17.245 C 8.719 17.052,8.567 17.035,7.080 17.001 C 5.517 16.965,5.357 16.943,4.966 16.708 C 4.693 16.545,4.357 16.184,4.224 15.912 C 4.017 15.488,4.020 15.560,4.020 10.520 C 4.020 6.231,4.026 5.794,4.088 5.528 C 4.175 5.155,4.294 4.918,4.520 4.667 C 4.883 4.262,5.282 4.091,5.980 4.039 C 6.200 4.023,9.044 4.013,12.300 4.018 C 17.643 4.024,18.247 4.032,18.492 4.091 M11.519 6.059 C 10.861 6.184,10.331 6.471,9.817 6.980 C 9.506 7.288,9.424 7.398,9.250 7.747 C 8.920 8.408,8.890 8.776,9.143 9.107 C 9.290 9.300,9.701 9.486,10.032 9.510 C 10.495 9.543,10.698 9.390,10.969 8.800 C 11.209 8.277,11.587 8.022,12.120 8.022 C 12.475 8.022,12.735 8.122,12.973 8.352 C 13.296 8.663,13.446 9.187,13.300 9.493 C 13.150 9.811,12.539 10.261,11.934 10.499 C 11.377 10.719,11.211 10.861,11.121 11.195 C 11.057 11.435,11.157 11.886,11.333 12.149 C 11.580 12.519,11.953 12.605,12.504 12.420 C 13.213 12.182,13.969 11.712,14.500 11.180 C 14.895 10.785,15.070 10.520,15.232 10.073 C 15.329 9.808,15.339 9.727,15.339 9.220 C 15.339 8.785,15.322 8.602,15.262 8.400 C 15.080 7.783,14.841 7.390,14.360 6.916 C 14.064 6.624,13.947 6.541,13.595 6.369 C 13.367 6.258,13.063 6.137,12.920 6.102 C 12.550 6.009,11.886 5.989,11.519 6.059 M11.607 13.624 C 11.453 13.701,11.371 13.776,11.289 13.914 C 11.190 14.083,11.180 14.136,11.180 14.500 C 11.180 14.864,11.190 14.917,11.290 15.087 C 11.450 15.360,11.731 15.490,12.153 15.488 C 12.513 15.487,12.717 15.417,12.911 15.229 C 13.256 14.895,13.241 14.071,12.883 13.747 C 12.691 13.574,12.511 13.521,12.118 13.520 C 11.872 13.520,11.777 13.540,11.607 13.624 " stroke="none" fill-rule="evenodd" fill="black"></path></svg>