<svg width="24" height="24" viewBox="0 0 24 24" fill="none" xmlns="http://www.w3.org/2000/svg"><path d="M5.920 2.041 C 4.939 2.106,4.360 2.287,3.700 2.733 C 3.031 3.185,2.467 3.940,2.245 4.680 C 2.003 5.487,1.992 5.763,2.010 10.940 C 2.024 15.376,2.027 15.510,2.107 15.861 C 2.386 17.078,3.127 18.030,4.217 18.571 C 4.895 18.908,5.244 18.963,6.900 18.995 C 8.400 19.024,8.421 19.027,8.690 19.296 C 8.758 19.364,9.267 20.023,9.820 20.760 C 10.373 21.497,10.920 22.185,11.035 22.288 C 11.587 22.784,12.413 22.784,12.965 22.288 C 13.080 22.185,13.627 21.497,14.180 20.760 C 14.733 20.023,15.242 19.364,15.310 19.296 C 15.579 19.027,15.600 19.024,17.100 18.995 C 18.507 18.968,18.834 18.934,19.329 18.764 C 20.537 18.348,21.526 17.286,21.837 16.072 C 21.987 15.486,22.000 15.038,22.000 10.583 C 22.000 5.746,21.988 5.452,21.755 4.680 C 21.424 3.581,20.465 2.622,19.320 2.246 C 18.644 2.024,18.800 2.029,12.340 2.019 C 9.062 2.014,6.173 2.024,5.920 2.041 M18.492 4.091 C 18.894 4.188,19.109 4.309,19.400 4.600 C 19.696 4.896,19.814 5.109,19.912 5.528 C 19.974 5.794,19.980 6.231,19.980 10.520 C 19.980 14.051,19.968 15.277,19.931 15.449 C 19.786 16.135,19.241 16.721,18.580 16.902 C 18.392 16.954,18.034 16.975,16.920 17.001 C 15.433 17.035,15.281 17.052,14.820 17.245 C 14.494 17.382,14.102 17.665,13.827 17.961 C 13.686 18.114,13.221 18.706,12.795 19.278 C 12.369 19.849,12.011 20.317,12.000 20.317 C 11.989 20.317,11.631 19.849,11.205 19.278 C 10.779 18.706,10.314 18.114,10.173 17.961 C 9.898 17.665,9.506 17.382,9.180 17.245 C 8.719 17.052,8.567 17.035,7.080 17.001 C 5.517 16.965,5.357 16.943,4.966 16.708 C 4.693 16.545,4.357 16.184,4.224 15.912 C 4.017 15.488,4.020 15.560,4.020 10.520 C 4.020 6.231,4.026 5.794,4.088 5.528 C 4.175 5.155,4.294 4.918,4.520 4.667 C 4.883 4.262,5.282 4.091,5.980 4.039 C 6.200 4.023,9.044 4.013,12.300 4.018 C 17.643 4.024,18.247 4.032,18.492 4.091 M9.171 7.019 C 8.968 7.108,8.637 7.440,8.535 7.660 C 8.305 8.150,8.392 8.301,9.596 9.500 C 10.126 10.028,10.560 10.478,10.560 10.500 C 10.560 10.522,10.126 10.972,9.596 11.500 C 8.587 12.504,8.441 12.694,8.441 13.000 C 8.441 13.213,8.605 13.519,8.835 13.732 C 9.075 13.956,9.267 14.047,9.500 14.047 C 9.823 14.047,9.933 13.963,10.990 12.909 L 12.000 11.902 13.010 12.909 C 14.067 13.963,14.177 14.047,14.500 14.047 C 14.733 14.047,14.925 13.956,15.165 13.732 C 15.395 13.519,15.559 13.213,15.559 13.000 C 15.559 12.694,15.413 12.504,14.404 11.500 C 13.874 10.972,13.440 10.522,13.440 10.500 C 13.440 10.478,13.874 10.028,14.404 9.500 C 15.413 8.496,15.559 8.306,15.559 8.000 C 15.559 7.683,15.169 7.163,14.820 7.018 C 14.640 6.942,14.355 6.944,14.169 7.022 C 14.072 7.062,13.668 7.435,13.010 8.091 L 12.000 9.098 10.990 8.091 C 10.332 7.435,9.928 7.062,9.831 7.022 C 9.648 6.946,9.343 6.944,9.171 7.019 " stroke="none" fill-rule="evenodd" fill="black"></path></svg>