<svg width="24" height="24" viewBox="0 0 24 24" fill="none" xmlns="http://www.w3.org/2000/svg"><path d="M3.580 2.042 C 2.935 2.128,2.389 2.398,1.905 2.870 C 1.508 3.259,1.269 3.664,1.097 4.240 C 1.030 4.467,1.020 4.628,1.020 5.500 C 1.020 6.575,1.040 6.712,1.269 7.234 C 1.543 7.859,2.142 8.456,2.776 8.736 L 3.000 8.836 3.000 13.288 C 3.000 18.263,3.012 18.545,3.245 19.320 C 3.577 20.422,4.578 21.423,5.680 21.755 C 6.460 21.990,6.716 22.000,12.000 22.000 C 17.284 22.000,17.540 21.990,18.320 21.755 C 19.422 21.423,20.423 20.422,20.755 19.320 C 20.988 18.545,21.000 18.263,21.000 13.288 L 21.000 8.836 21.224 8.736 C 21.858 8.456,22.457 7.859,22.731 7.234 C 22.960 6.712,22.980 6.575,22.980 5.500 C 22.980 4.628,22.970 4.467,22.903 4.240 C 22.731 3.664,22.492 3.259,22.095 2.870 C 21.723 2.507,21.331 2.275,20.804 2.108 L 20.540 2.024 12.180 2.017 C 7.582 2.013,3.712 2.024,3.580 2.042 M20.316 4.063 C 20.610 4.150,20.854 4.398,20.941 4.699 C 20.993 4.877,21.004 5.062,20.993 5.593 C 20.981 6.219,20.973 6.276,20.878 6.461 C 20.763 6.684,20.512 6.896,20.289 6.958 C 20.082 7.016,3.918 7.016,3.711 6.958 C 3.488 6.896,3.237 6.684,3.122 6.461 C 3.027 6.276,3.019 6.219,3.007 5.593 C 2.990 4.764,3.036 4.562,3.299 4.299 C 3.617 3.981,2.894 4.006,11.983 4.003 C 19.244 4.000,20.128 4.007,20.316 4.063 M18.989 13.610 C 18.972 18.615,18.978 18.488,18.752 18.952 C 18.626 19.211,18.190 19.638,17.918 19.768 C 17.471 19.983,17.547 19.980,12.000 19.980 C 6.462 19.980,6.533 19.983,6.082 19.771 C 5.812 19.643,5.377 19.217,5.248 18.952 C 5.022 18.488,5.028 18.615,5.011 13.610 L 4.995 9.000 12.000 9.000 L 19.005 9.000 18.989 13.610 M9.614 12.057 C 9.377 12.131,9.212 12.261,9.109 12.453 C 9.035 12.592,9.020 12.684,9.020 13.000 C 9.020 13.331,9.033 13.403,9.120 13.558 C 9.230 13.755,9.414 13.898,9.635 13.959 C 9.831 14.014,14.169 14.014,14.365 13.959 C 14.586 13.898,14.770 13.755,14.880 13.558 C 14.967 13.402,14.980 13.332,14.979 13.000 C 14.978 12.567,14.898 12.355,14.678 12.199 C 14.406 12.005,14.336 12.000,11.984 12.003 C 10.293 12.005,9.741 12.017,9.614 12.057 " stroke="none" fill-rule="evenodd" fill="black"></path></svg>