<svg width="24" height="24" viewBox="0 0 24 24" fill="none" xmlns="http://www.w3.org/2000/svg"><path d="M11.100 1.041 C 7.615 1.326,4.422 3.289,2.625 6.254 C 2.202 6.951,2.186 7.270,2.553 7.636 C 2.911 7.994,3.417 8.135,3.743 7.968 C 3.951 7.862,4.002 7.800,4.453 7.115 C 5.388 5.696,6.564 4.654,8.057 3.920 C 9.352 3.284,10.492 3.025,12.000 3.024 C 13.490 3.022,14.620 3.279,15.940 3.920 C 17.753 4.799,19.201 6.247,20.080 8.060 C 20.720 9.379,20.977 10.507,20.977 12.000 C 20.977 13.493,20.720 14.621,20.080 15.940 C 18.711 18.765,15.992 20.645,12.820 20.963 C 12.235 21.022,11.222 20.993,10.640 20.900 C 8.958 20.634,7.382 19.899,6.081 18.774 C 5.487 18.259,4.938 17.621,4.423 16.844 C 3.973 16.164,3.928 16.113,3.710 16.022 C 3.467 15.920,3.245 15.943,2.927 16.102 C 2.430 16.350,2.225 16.691,2.319 17.109 C 2.408 17.508,3.186 18.662,3.871 19.408 C 7.159 22.997,12.351 24.012,16.740 21.923 C 17.881 21.380,18.805 20.719,19.762 19.762 C 20.719 18.805,21.380 17.881,21.923 16.740 C 23.698 13.010,23.261 8.707,20.767 5.360 C 20.317 4.755,19.247 3.686,18.640 3.235 C 17.045 2.049,15.360 1.358,13.423 1.096 C 12.872 1.022,11.684 0.994,11.100 1.041 M11.626 7.045 C 11.257 7.239,10.951 7.673,10.951 8.000 C 10.951 8.333,11.056 8.467,12.353 9.770 L 13.577 11.000 7.695 11.000 C 1.384 11.000,1.611 10.993,1.322 11.199 C 1.100 11.357,1.020 11.568,1.020 12.000 C 1.020 12.331,1.033 12.403,1.120 12.558 C 1.230 12.755,1.414 12.898,1.635 12.959 C 1.729 12.985,3.850 13.000,7.679 13.000 L 13.577 13.000 12.353 14.230 C 11.548 15.039,11.099 15.521,11.040 15.637 C 10.863 15.989,10.952 16.354,11.299 16.701 C 11.646 17.048,12.011 17.137,12.363 16.960 C 12.484 16.899,13.182 16.234,14.561 14.866 C 15.673 13.763,16.634 12.826,16.696 12.784 C 16.850 12.682,17.049 12.239,17.049 12.000 C 17.049 11.745,16.851 11.321,16.676 11.201 C 16.601 11.150,15.640 10.213,14.540 9.118 C 13.232 7.817,12.482 7.099,12.372 7.044 C 12.152 6.934,11.835 6.935,11.626 7.045 " stroke="none" fill-rule="evenodd" fill="black"></path></svg>