<svg width="24" height="24" viewBox="0 0 24 24" fill="none" xmlns="http://www.w3.org/2000/svg"><path d="M11.620 4.046 C 11.521 4.097,10.129 5.456,7.960 7.618 C 6.035 9.538,4.399 11.150,4.324 11.201 C 4.149 11.321,3.951 11.744,3.951 12.000 C 3.951 12.239,4.150 12.682,4.304 12.784 C 4.367 12.826,6.003 14.438,7.939 16.366 C 10.423 18.840,11.512 19.898,11.637 19.961 C 11.990 20.137,12.354 20.048,12.701 19.701 C 13.048 19.354,13.137 18.990,12.961 18.637 C 12.898 18.513,12.058 17.644,10.147 15.730 L 7.421 13.000 13.321 13.000 C 17.149 13.000,19.271 12.985,19.365 12.959 C 19.586 12.898,19.770 12.755,19.880 12.558 C 19.967 12.402,19.980 12.332,19.979 12.000 C 19.978 11.567,19.898 11.355,19.678 11.199 C 19.389 10.993,19.616 11.000,13.304 11.000 L 7.421 11.000 10.147 8.270 C 12.058 6.356,12.898 5.487,12.961 5.363 C 13.137 5.010,13.048 4.646,12.701 4.299 C 12.361 3.959,11.967 3.867,11.620 4.046 " stroke="none" fill-rule="evenodd" fill="black"></path></svg>