<svg width="24" height="24" viewBox="0 0 24 24" fill="none" xmlns="http://www.w3.org/2000/svg"><path d="M6.541 6.083 C 6.423 6.139,6.294 6.211,6.256 6.243 C 6.152 6.329,5.960 6.780,5.964 6.929 C 5.966 7.001,5.980 9.382,5.994 12.220 L 6.020 17.380 6.120 17.558 C 6.287 17.856,6.572 18.000,7.000 18.000 C 7.428 18.000,7.713 17.856,7.880 17.558 L 7.980 17.380 7.991 13.401 L 8.002 9.423 12.231 13.647 C 15.249 16.662,16.511 17.897,16.637 17.961 C 16.990 18.137,17.355 18.048,17.701 17.701 C 18.048 17.355,18.137 16.990,17.961 16.637 C 17.897 16.511,16.662 15.248,13.646 12.230 L 9.421 8.000 13.320 8.000 C 15.809 8.000,17.272 7.985,17.365 7.959 C 17.586 7.898,17.770 7.755,17.880 7.558 C 17.967 7.402,17.980 7.332,17.979 7.000 C 17.978 6.685,17.963 6.591,17.888 6.450 C 17.784 6.252,17.575 6.102,17.320 6.042 C 17.199 6.014,15.437 5.996,11.948 5.990 L 6.757 5.980 6.541 6.083 " stroke="none" fill-rule="evenodd" fill="black"></path></svg>