<svg width="24" height="24" viewBox="0 0 24 24" fill="none" xmlns="http://www.w3.org/2000/svg"><path d="M12.620 2.046 C 12.525 2.095,11.652 2.932,10.460 4.118 C 9.360 5.213,8.399 6.150,8.324 6.201 C 8.149 6.321,7.951 6.745,7.951 7.000 C 7.951 7.239,8.150 7.682,8.304 7.784 C 8.366 7.826,9.327 8.763,10.439 9.866 C 11.818 11.234,12.516 11.899,12.637 11.960 C 12.989 12.137,13.354 12.048,13.701 11.701 C 14.048 11.354,14.137 10.989,13.960 10.637 C 13.901 10.521,13.452 10.039,12.647 9.230 L 11.423 8.000 15.821 8.000 C 18.645 8.000,20.272 7.985,20.365 7.959 C 20.586 7.898,20.770 7.755,20.880 7.558 C 20.967 7.402,20.980 7.332,20.979 7.000 C 20.978 6.567,20.898 6.355,20.678 6.199 C 20.393 5.996,20.500 6.000,15.805 6.000 L 11.423 6.000 12.647 4.770 C 13.452 3.961,13.901 3.479,13.960 3.363 C 14.137 3.011,14.048 2.646,13.701 2.299 C 13.361 1.959,12.967 1.867,12.620 2.046 M7.620 12.046 C 7.525 12.095,6.652 12.932,5.460 14.118 C 4.360 15.213,3.399 16.150,3.324 16.201 C 3.149 16.321,2.951 16.745,2.951 17.000 C 2.951 17.239,3.150 17.682,3.304 17.784 C 3.366 17.826,4.327 18.763,5.439 19.866 C 6.818 21.234,7.516 21.899,7.637 21.960 C 7.989 22.137,8.354 22.048,8.701 21.701 C 9.048 21.354,9.137 20.989,8.960 20.637 C 8.901 20.521,8.452 20.039,7.647 19.230 L 6.423 18.000 13.321 18.000 C 17.819 18.000,20.270 17.986,20.365 17.959 C 20.586 17.898,20.770 17.755,20.880 17.558 C 20.967 17.402,20.980 17.332,20.979 17.000 C 20.978 16.567,20.898 16.355,20.678 16.199 C 20.388 15.992,20.694 16.000,13.305 16.000 L 6.423 16.000 7.647 14.770 C 8.452 13.961,8.901 13.479,8.960 13.363 C 9.137 13.011,9.048 12.646,8.701 12.299 C 8.361 11.959,7.967 11.867,7.620 12.046 " stroke="none" fill-rule="evenodd" fill="black"></path></svg>