<svg width="24" height="24" viewBox="0 0 24 24" fill="none" xmlns="http://www.w3.org/2000/svg"><path d="M11.280 1.023 C 11.203 1.032,10.951 1.059,10.720 1.083 C 9.527 1.210,8.337 1.558,7.180 2.120 C 6.045 2.671,5.193 3.285,4.238 4.239 C 3.277 5.198,2.643 6.080,2.097 7.220 C 0.301 10.968,0.728 15.286,3.226 18.633 C 3.701 19.269,4.753 20.316,5.400 20.797 C 9.364 23.745,14.666 23.734,18.637 20.770 C 19.246 20.316,20.316 19.246,20.770 18.637 C 23.744 14.652,23.744 9.348,20.770 5.363 C 20.316 4.755,19.247 3.686,18.640 3.235 C 17.045 2.049,15.365 1.360,13.423 1.096 C 13.000 1.038,11.574 0.990,11.280 1.023 M13.320 3.101 C 15.883 3.488,18.124 4.931,19.560 7.120 C 19.863 7.583,20.303 8.479,20.492 9.020 C 20.838 10.013,20.977 10.865,20.977 12.000 C 20.977 13.493,20.720 14.621,20.080 15.940 C 19.375 17.394,18.311 18.607,16.927 19.532 C 16.138 20.060,14.876 20.588,13.908 20.797 C 11.266 21.366,8.479 20.708,6.370 19.019 C 4.857 17.807,3.722 16.029,3.267 14.160 C 3.081 13.397,3.023 12.888,3.023 12.000 C 3.023 10.507,3.280 9.379,3.920 8.060 C 4.971 5.891,6.877 4.221,9.160 3.466 C 9.865 3.233,10.432 3.118,11.340 3.024 C 11.662 2.991,12.911 3.039,13.320 3.101 M11.530 7.085 C 11.392 7.152,11.248 7.254,11.210 7.312 C 11.171 7.370,10.237 8.327,9.134 9.439 C 7.766 10.818,7.101 11.516,7.040 11.637 C 6.863 11.989,6.952 12.354,7.299 12.701 C 7.646 13.048,8.011 13.137,8.363 12.960 C 8.479 12.901,8.961 12.452,9.770 11.647 L 11.000 10.423 11.000 13.321 C 11.000 15.140,11.015 16.274,11.041 16.365 C 11.148 16.750,11.437 16.962,11.896 16.991 C 12.381 17.022,12.699 16.882,12.880 16.558 L 12.980 16.380 12.991 13.403 L 13.002 10.425 14.231 11.648 C 15.039 12.452,15.521 12.901,15.637 12.960 C 15.989 13.137,16.354 13.048,16.701 12.701 C 17.048 12.354,17.137 11.989,16.960 11.637 C 16.899 11.516,16.234 10.818,14.866 9.439 C 13.763 8.327,12.829 7.370,12.790 7.312 C 12.752 7.254,12.604 7.151,12.460 7.083 C 12.113 6.919,11.873 6.920,11.530 7.085 " stroke="none" fill-rule="evenodd" fill="black"></path></svg>