<svg width="24" height="24" viewBox="0 0 24 24" fill="none" xmlns="http://www.w3.org/2000/svg"><path d="M9.202 2.044 C 8.745 2.133,8.350 2.445,8.144 2.880 L 8.020 3.140 8.009 8.070 L 7.998 13.000 6.446 13.000 C 4.660 13.000,4.603 13.008,4.306 13.296 C 3.954 13.638,3.862 14.007,4.039 14.363 C 4.164 14.614,11.386 21.836,11.637 21.961 C 11.868 22.076,12.132 22.076,12.363 21.961 C 12.585 21.849,19.710 14.752,19.873 14.480 C 19.967 14.322,19.980 14.259,19.978 13.960 C 19.976 13.570,19.889 13.349,19.678 13.199 C 19.416 13.012,19.290 13.000,17.595 13.000 L 16.002 13.000 15.991 8.070 L 15.980 3.140 15.856 2.880 C 15.643 2.433,15.251 2.132,14.765 2.041 C 14.499 1.990,9.459 1.993,9.202 2.044 M14.000 9.110 C 14.000 12.410,14.015 14.271,14.041 14.365 C 14.102 14.586,14.245 14.770,14.442 14.880 C 14.615 14.977,14.648 14.981,15.590 15.000 L 16.561 15.020 14.280 17.300 L 12.000 19.580 9.710 17.290 L 7.420 15.000 8.320 15.000 C 8.815 15.000,9.285 14.981,9.365 14.959 C 9.586 14.898,9.770 14.755,9.880 14.558 L 9.980 14.380 9.991 9.190 L 10.001 4.000 12.001 4.000 L 14.000 4.000 14.000 9.110 " stroke="none" fill-rule="evenodd" fill="black"></path></svg>