<svg width="24" height="24" viewBox="0 0 24 24" fill="none" xmlns="http://www.w3.org/2000/svg"><path d="M5.920 2.041 C 5.151 2.092,4.672 2.205,4.180 2.451 C 3.089 2.996,2.357 3.961,2.124 5.160 C 2.013 5.729,2.000 6.455,2.000 12.000 C 2.000 18.358,2.006 18.526,2.245 19.320 C 2.577 20.422,3.578 21.423,4.680 21.755 C 5.474 21.994,5.642 22.000,12.000 22.000 C 18.358 22.000,18.526 21.994,19.320 21.755 C 20.422 21.423,21.423 20.422,21.755 19.320 C 21.994 18.526,22.000 18.358,22.000 12.000 C 22.000 5.642,21.994 5.474,21.755 4.680 C 21.424 3.581,20.465 2.622,19.320 2.246 C 18.644 2.024,18.800 2.029,12.340 2.019 C 9.062 2.014,6.173 2.024,5.920 2.041 M18.492 4.091 C 18.894 4.188,19.109 4.309,19.400 4.600 C 19.696 4.895,19.814 5.109,19.912 5.528 C 19.975 5.797,19.980 6.313,19.980 12.000 C 19.980 17.687,19.975 18.203,19.912 18.472 C 19.814 18.891,19.696 19.104,19.400 19.401 C 19.101 19.701,18.820 19.851,18.418 19.928 C 18.010 20.005,5.990 20.005,5.582 19.927 C 5.170 19.850,4.898 19.704,4.600 19.403 C 4.303 19.104,4.186 18.890,4.088 18.472 C 4.025 18.203,4.020 17.687,4.020 12.000 C 4.020 6.313,4.025 5.797,4.088 5.528 C 4.175 5.155,4.294 4.918,4.520 4.667 C 4.883 4.262,5.282 4.091,5.980 4.039 C 6.200 4.023,9.044 4.013,12.300 4.018 C 17.643 4.024,18.247 4.032,18.492 4.091 M8.541 8.083 C 8.423 8.139,8.294 8.211,8.256 8.243 C 8.152 8.328,7.960 8.779,7.963 8.929 C 7.965 9.001,7.978 10.482,7.993 12.220 L 8.020 15.380 8.120 15.558 C 8.301 15.882,8.619 16.022,9.104 15.991 C 9.563 15.962,9.852 15.750,9.959 15.365 C 9.984 15.277,10.000 14.470,10.000 13.321 L 10.000 11.422 12.230 13.647 C 13.776 15.189,14.514 15.899,14.637 15.960 C 14.990 16.137,15.354 16.048,15.701 15.701 C 16.048 15.354,16.137 14.990,15.960 14.637 C 15.899 14.514,15.189 13.776,13.647 12.230 L 11.422 10.000 13.321 10.000 C 14.470 10.000,15.277 9.984,15.365 9.959 C 15.586 9.898,15.770 9.755,15.880 9.558 C 15.967 9.403,15.980 9.331,15.980 9.000 C 15.980 8.682,15.965 8.592,15.889 8.450 C 15.783 8.252,15.574 8.102,15.320 8.043 C 15.204 8.016,13.998 7.997,11.948 7.990 L 8.757 7.980 8.541 8.083 " stroke="none" fill-rule="evenodd" fill="black"></path></svg>