<svg width="24" height="24" viewBox="0 0 24 24" fill="none" xmlns="http://www.w3.org/2000/svg"><path d="M10.860 1.061 C 8.945 1.271,7.077 1.982,5.580 3.071 C 4.449 3.894,3.396 5.016,2.662 6.180 C 2.374 6.638,1.888 7.624,1.701 8.133 C 1.001 10.035,0.826 11.994,1.180 13.962 C 1.362 14.978,1.667 15.896,2.141 16.860 C 2.707 18.013,3.277 18.802,4.238 19.762 C 5.198 20.723,5.987 21.293,7.140 21.859 C 9.890 23.211,12.967 23.366,15.867 22.299 C 16.376 22.112,17.362 21.626,17.820 21.338 C 18.770 20.739,19.860 19.773,20.545 18.922 C 21.782 17.386,22.564 15.608,22.885 13.601 C 22.989 12.948,23.029 11.652,22.963 11.034 C 22.864 10.103,22.668 9.171,22.500 8.841 C 22.436 8.713,22.339 8.601,22.232 8.530 C 22.085 8.433,22.028 8.420,21.742 8.420 C 21.456 8.420,21.387 8.436,21.147 8.553 C 20.652 8.798,20.560 9.086,20.735 9.845 C 21.233 11.997,21.006 14.054,20.061 15.980 C 19.182 17.770,17.776 19.176,15.980 20.062 C 14.416 20.834,12.685 21.139,10.992 20.941 C 7.911 20.580,5.261 18.707,3.920 15.940 C 3.487 15.047,3.246 14.271,3.094 13.280 C 2.997 12.646,2.997 11.354,3.094 10.720 C 3.491 8.125,4.890 5.929,7.080 4.462 C 7.549 4.147,8.524 3.676,9.100 3.486 C 10.155 3.137,10.875 3.022,12.000 3.022 C 12.876 3.022,13.354 3.075,14.146 3.262 C 14.781 3.412,15.017 3.383,15.280 3.120 C 15.576 2.824,15.689 2.183,15.507 1.836 C 15.375 1.583,15.110 1.437,14.552 1.307 C 13.288 1.014,12.049 0.931,10.860 1.061 M18.620 4.046 C 18.520 4.097,16.879 5.707,14.230 8.354 L 10.000 12.579 10.000 10.680 C 10.000 9.530,9.984 8.723,9.959 8.635 C 9.859 8.274,9.561 8.051,9.126 8.011 C 8.671 7.970,8.276 8.140,8.111 8.450 L 8.020 8.620 7.993 11.780 C 7.978 13.518,7.965 14.999,7.963 15.071 C 7.960 15.223,8.153 15.669,8.265 15.768 C 8.390 15.879,8.792 16.041,8.931 16.037 C 9.002 16.035,10.482 16.021,12.220 16.007 L 15.380 15.980 15.558 15.880 C 15.881 15.699,16.022 15.381,15.991 14.900 C 15.970 14.573,15.861 14.329,15.678 14.199 C 15.411 14.008,15.311 14.000,13.304 14.000 L 11.421 14.000 15.646 9.770 C 18.662 6.752,19.897 5.489,19.961 5.363 C 20.137 5.010,20.048 4.645,19.701 4.299 C 19.361 3.959,18.968 3.867,18.620 4.046 " stroke="none" fill-rule="evenodd" fill="black"></path></svg>