<svg width="24" height="24" viewBox="0 0 24 24" fill="none" xmlns="http://www.w3.org/2000/svg"><path d="M6.626 6.045 C 6.420 6.154,6.146 6.433,6.038 6.644 C 5.924 6.867,5.924 7.132,6.039 7.363 C 6.103 7.489,7.338 8.752,10.354 11.770 L 14.579 16.000 10.696 16.000 C 6.539 16.000,6.605 15.997,6.322 16.199 C 6.139 16.329,6.030 16.573,6.009 16.900 C 5.978 17.381,6.119 17.699,6.442 17.880 L 6.620 17.980 11.780 18.006 C 14.618 18.020,16.999 18.034,17.071 18.036 C 17.223 18.040,17.668 17.848,17.768 17.735 C 17.879 17.609,18.041 17.208,18.036 17.069 C 18.034 16.998,18.021 14.618,18.006 11.780 L 17.980 6.620 17.889 6.450 C 17.724 6.140,17.329 5.970,16.874 6.011 C 16.439 6.051,16.141 6.274,16.041 6.635 C 16.015 6.728,16.000 8.191,16.000 10.680 L 16.000 14.579 11.770 10.354 C 8.885 7.471,7.486 6.101,7.372 6.044 C 7.152 5.934,6.835 5.935,6.626 6.045 " stroke="none" fill-rule="evenodd" fill="black"></path></svg>