<svg width="24" height="24" viewBox="0 0 24 24" fill="none" xmlns="http://www.w3.org/2000/svg"><path d="M6.614 3.057 C 6.377 3.131,6.212 3.261,6.109 3.453 L 6.020 3.620 6.010 10.598 L 5.999 17.576 4.770 16.353 C 4.001 15.588,3.477 15.098,3.372 15.045 C 3.020 14.868,2.639 14.958,2.299 15.299 C 1.952 15.646,1.863 16.011,2.040 16.363 C 2.101 16.484,2.766 17.182,4.134 18.561 C 5.237 19.673,6.174 20.634,6.216 20.696 C 6.318 20.850,6.761 21.049,7.000 21.049 C 7.239 21.049,7.682 20.850,7.784 20.696 C 7.826 20.634,8.763 19.673,9.866 18.561 C 11.234 17.182,11.899 16.484,11.960 16.363 C 12.137 16.011,12.048 15.646,11.701 15.299 C 11.361 14.958,10.980 14.868,10.628 15.045 C 10.523 15.098,9.999 15.588,9.231 16.353 L 8.001 17.576 7.991 10.598 L 7.980 3.620 7.891 3.453 C 7.842 3.362,7.746 3.247,7.678 3.199 C 7.414 3.010,6.957 2.950,6.614 3.057 M16.614 3.057 C 16.377 3.131,16.212 3.261,16.109 3.453 L 16.020 3.620 16.009 8.098 L 15.999 12.576 14.769 11.353 C 14.001 10.588,13.477 10.098,13.372 10.045 C 13.020 9.868,12.639 9.958,12.299 10.299 C 11.952 10.646,11.863 11.011,12.040 11.363 C 12.101 11.484,12.766 12.182,14.134 13.561 C 15.237 14.673,16.174 15.634,16.216 15.696 C 16.318 15.850,16.761 16.049,17.000 16.049 C 17.239 16.049,17.682 15.850,17.784 15.696 C 17.826 15.634,18.763 14.673,19.866 13.561 C 21.234 12.182,21.899 11.484,21.960 11.363 C 22.137 11.011,22.048 10.646,21.701 10.299 C 21.361 9.958,20.980 9.868,20.628 10.045 C 20.523 10.098,19.999 10.588,19.231 11.352 L 18.002 12.575 17.991 8.098 L 17.980 3.620 17.891 3.453 C 17.842 3.362,17.746 3.247,17.678 3.199 C 17.414 3.010,16.957 2.950,16.614 3.057 " stroke="none" fill-rule="evenodd" fill="black"></path></svg>