<svg width="24" height="24" viewBox="0 0 24 24" fill="none" xmlns="http://www.w3.org/2000/svg"><path d="M13.660 4.027 C 13.436 4.147,13.239 4.327,13.129 4.514 L 13.020 4.700 13.008 6.350 L 12.997 8.000 8.224 8.000 C 5.166 8.000,3.373 8.015,3.235 8.041 C 2.744 8.133,2.357 8.431,2.144 8.880 L 2.020 9.140 2.020 12.000 L 2.020 14.860 2.144 15.120 C 2.301 15.450,2.550 15.699,2.880 15.856 L 3.140 15.980 8.070 15.991 L 13.000 16.002 13.000 17.611 C 13.000 18.565,13.017 19.279,13.041 19.365 C 13.102 19.586,13.245 19.770,13.442 19.880 C 13.593 19.965,13.672 19.980,13.960 19.980 C 14.257 19.980,14.323 19.967,14.480 19.873 C 14.752 19.710,21.849 12.585,21.961 12.363 C 22.076 12.132,22.076 11.868,21.961 11.637 C 21.839 11.394,14.614 4.165,14.372 4.044 C 14.168 3.942,13.833 3.935,13.660 4.027 M17.300 14.280 L 15.020 16.561 15.000 15.590 C 14.981 14.686,14.973 14.609,14.891 14.453 C 14.842 14.362,14.746 14.247,14.678 14.199 C 14.391 13.994,14.555 14.000,9.094 14.000 L 4.000 14.000 4.000 12.000 L 4.000 10.000 9.110 10.000 C 12.410 10.000,14.271 9.985,14.365 9.959 C 14.586 9.898,14.770 9.755,14.880 9.558 C 14.978 9.384,14.980 9.359,14.993 8.403 L 15.006 7.426 17.293 9.713 L 19.580 12.000 17.300 14.280 " stroke="none" fill-rule="evenodd" fill="black"></path></svg>