<svg width="24" height="24" viewBox="0 0 24 24" fill="none" xmlns="http://www.w3.org/2000/svg"><path d="M5.920 2.041 C 5.151 2.092,4.672 2.205,4.180 2.451 C 3.089 2.996,2.357 3.961,2.124 5.160 C 2.013 5.729,2.000 6.455,2.000 12.000 C 2.000 18.358,2.006 18.526,2.245 19.320 C 2.577 20.422,3.578 21.423,4.680 21.755 C 5.474 21.994,5.642 22.000,12.000 22.000 C 18.358 22.000,18.526 21.994,19.320 21.755 C 20.422 21.423,21.423 20.422,21.755 19.320 C 21.994 18.526,22.000 18.358,22.000 12.000 C 22.000 5.642,21.994 5.474,21.755 4.680 C 21.424 3.581,20.465 2.622,19.320 2.246 C 18.644 2.024,18.800 2.029,12.340 2.019 C 9.062 2.014,6.173 2.024,5.920 2.041 M18.492 4.091 C 18.894 4.188,19.109 4.309,19.400 4.600 C 19.696 4.895,19.814 5.109,19.912 5.528 C 19.975 5.797,19.980 6.313,19.980 12.000 C 19.980 17.687,19.975 18.203,19.912 18.472 C 19.814 18.891,19.696 19.104,19.400 19.401 C 19.101 19.701,18.820 19.851,18.418 19.928 C 18.010 20.005,5.990 20.005,5.582 19.927 C 5.170 19.850,4.898 19.704,4.600 19.403 C 4.303 19.104,4.186 18.890,4.088 18.472 C 4.025 18.203,4.020 17.687,4.020 12.000 C 4.020 6.313,4.025 5.797,4.088 5.528 C 4.175 5.155,4.294 4.918,4.520 4.667 C 4.883 4.262,5.282 4.091,5.980 4.039 C 6.200 4.023,9.044 4.013,12.300 4.018 C 17.643 4.024,18.247 4.032,18.492 4.091 M11.614 7.057 C 11.377 7.131,11.212 7.261,11.109 7.453 L 11.020 7.620 11.009 10.598 L 10.998 13.575 9.769 12.352 C 9.000 11.588,8.477 11.098,8.372 11.045 C 8.020 10.868,7.639 10.958,7.299 11.299 C 6.952 11.646,6.863 12.011,7.040 12.363 C 7.101 12.484,7.766 13.182,9.134 14.561 C 10.237 15.673,11.174 16.634,11.216 16.696 C 11.318 16.850,11.761 17.049,12.000 17.049 C 12.239 17.049,12.682 16.850,12.784 16.696 C 12.826 16.634,13.763 15.673,14.866 14.561 C 16.234 13.182,16.899 12.484,16.960 12.363 C 17.137 12.011,17.048 11.646,16.701 11.299 C 16.361 10.958,15.980 10.868,15.628 11.045 C 15.523 11.098,15.000 11.587,14.231 12.352 L 13.002 13.575 12.991 10.597 L 12.980 7.620 12.891 7.453 C 12.842 7.362,12.746 7.247,12.678 7.199 C 12.414 7.010,11.957 6.950,11.614 7.057 " stroke="none" fill-rule="evenodd" fill="black"></path></svg>