<svg width="24" height="24" viewBox="0 0 24 24" fill="none" xmlns="http://www.w3.org/2000/svg"><path d="M9.620 5.046 C 9.522 5.097,8.303 6.281,6.460 8.118 C 4.810 9.763,3.399 11.150,3.324 11.201 C 3.149 11.321,2.951 11.744,2.951 12.000 C 2.951 12.239,3.150 12.682,3.304 12.784 C 3.367 12.826,4.777 14.213,6.439 15.866 C 8.555 17.971,9.513 18.898,9.637 18.960 C 9.990 19.137,10.354 19.048,10.701 18.701 C 11.048 18.354,11.137 17.990,10.960 17.637 C 10.899 17.514,10.189 16.776,8.647 15.230 L 6.422 13.000 13.321 13.000 C 17.819 13.000,20.270 12.986,20.365 12.959 C 20.586 12.898,20.770 12.755,20.880 12.558 C 20.967 12.402,20.980 12.332,20.979 12.000 C 20.978 11.567,20.898 11.355,20.678 11.199 C 20.388 10.992,20.694 11.000,13.304 11.000 L 6.422 11.000 8.647 8.770 C 10.189 7.224,10.899 6.486,10.960 6.363 C 11.137 6.010,11.048 5.646,10.701 5.299 C 10.361 4.959,9.967 4.867,9.620 5.046 " stroke="none" fill-rule="evenodd" fill="black"></path></svg>