<svg width="24" height="24" viewBox="0 0 24 24" fill="none" xmlns="http://www.w3.org/2000/svg"><path d="M11.052 1.041 C 8.453 1.293,6.178 2.337,4.349 4.116 C 2.571 5.846,1.490 7.964,1.100 10.480 C 1.010 11.059,0.976 12.396,1.037 12.966 C 1.136 13.897,1.332 14.829,1.500 15.159 C 1.696 15.547,2.113 15.689,2.619 15.542 C 3.292 15.346,3.463 14.981,3.266 14.156 C 3.076 13.361,3.022 12.881,3.022 12.000 C 3.022 10.875,3.137 10.155,3.486 9.100 C 3.676 8.524,4.147 7.549,4.462 7.080 C 5.389 5.696,6.612 4.622,8.060 3.920 C 9.379 3.280,10.507 3.023,12.000 3.023 C 13.493 3.023,14.621 3.280,15.940 3.920 C 17.756 4.800,19.189 6.234,20.079 8.060 C 20.719 9.372,20.977 10.504,20.977 12.000 C 20.977 13.496,20.719 14.628,20.079 15.940 C 18.845 18.472,16.549 20.252,13.789 20.817 C 13.054 20.967,12.478 21.014,11.703 20.988 C 10.994 20.964,10.611 20.913,9.852 20.741 C 9.606 20.686,9.354 20.640,9.292 20.640 C 8.908 20.641,8.612 20.883,8.482 21.302 C 8.317 21.836,8.411 22.227,8.756 22.446 C 8.975 22.585,9.163 22.644,9.815 22.778 C 13.006 23.436,16.351 22.615,18.922 20.545 C 19.773 19.860,20.739 18.770,21.338 17.820 C 21.626 17.362,22.112 16.376,22.299 15.867 C 23.231 13.335,23.231 10.665,22.299 8.133 C 22.112 7.624,21.626 6.638,21.338 6.180 C 20.598 5.006,19.481 3.827,18.336 3.011 C 16.973 2.040,15.296 1.373,13.580 1.120 C 12.938 1.025,11.634 0.984,11.052 1.041 M11.719 7.999 L 8.658 8.020 8.459 8.122 C 8.119 8.297,7.978 8.606,8.009 9.104 C 8.038 9.563,8.250 9.852,8.635 9.959 C 8.723 9.984,9.530 10.000,10.680 10.000 L 12.579 10.000 8.354 14.230 C 5.338 17.248,4.103 18.511,4.039 18.637 C 3.863 18.990,3.952 19.355,4.299 19.701 C 4.645 20.048,5.010 20.137,5.363 19.961 C 5.489 19.897,6.752 18.662,9.770 15.646 L 14.000 11.421 14.000 13.320 C 14.000 14.470,14.016 15.277,14.041 15.365 C 14.148 15.750,14.437 15.962,14.896 15.991 C 15.381 16.022,15.699 15.882,15.880 15.558 L 15.980 15.380 16.007 12.220 C 16.022 10.482,16.035 9.001,16.037 8.929 C 16.041 8.744,15.835 8.310,15.696 8.212 C 15.467 8.052,15.198 7.960,14.985 7.969 C 14.872 7.974,13.402 7.988,11.719 7.999 " stroke="none" fill-rule="evenodd" fill="black"></path></svg>