<svg width="24" height="24" viewBox="0 0 24 24" fill="none" xmlns="http://www.w3.org/2000/svg"><path d="M11.614 4.057 C 11.377 4.131,11.212 4.261,11.109 4.453 L 11.020 4.620 11.009 10.599 L 10.999 16.578 8.269 13.853 C 6.442 12.028,5.484 11.100,5.372 11.044 C 5.020 10.868,4.639 10.959,4.299 11.299 C 3.952 11.646,3.863 12.010,4.039 12.363 C 4.102 12.488,5.160 13.577,7.634 16.061 C 9.562 17.997,11.174 19.633,11.216 19.696 C 11.318 19.850,11.761 20.049,12.000 20.049 C 12.239 20.049,12.682 19.850,12.784 19.696 C 12.826 19.633,14.438 17.997,16.366 16.061 C 18.840 13.577,19.898 12.488,19.961 12.363 C 20.137 12.010,20.048 11.646,19.701 11.299 C 19.361 10.959,18.980 10.868,18.628 11.044 C 18.516 11.100,17.558 12.028,15.731 13.853 L 13.001 16.577 12.991 10.599 L 12.980 4.620 12.891 4.453 C 12.842 4.362,12.746 4.247,12.678 4.199 C 12.414 4.010,11.957 3.950,11.614 4.057 " stroke="none" fill-rule="evenodd" fill="black"></path></svg>