<svg width="24" height="24" viewBox="0 0 24 24" fill="none" xmlns="http://www.w3.org/2000/svg"><path d="M5.920 2.041 C 5.151 2.092,4.672 2.205,4.180 2.451 C 3.089 2.996,2.357 3.961,2.124 5.160 C 2.013 5.729,2.000 6.455,2.000 12.000 C 2.000 18.358,2.006 18.526,2.245 19.320 C 2.577 20.422,3.578 21.423,4.680 21.755 C 5.474 21.994,5.642 22.000,12.000 22.000 C 18.358 22.000,18.526 21.994,19.320 21.755 C 20.422 21.423,21.423 20.422,21.755 19.320 C 21.994 18.526,22.000 18.358,22.000 12.000 C 22.000 5.642,21.994 5.474,21.755 4.680 C 21.424 3.581,20.465 2.622,19.320 2.246 C 18.644 2.024,18.800 2.029,12.340 2.019 C 9.062 2.014,6.173 2.024,5.920 2.041 M18.492 4.091 C 18.894 4.188,19.109 4.309,19.400 4.600 C 19.696 4.895,19.814 5.109,19.912 5.528 C 19.975 5.797,19.980 6.313,19.980 12.000 C 19.980 17.687,19.975 18.203,19.912 18.472 C 19.814 18.891,19.696 19.104,19.400 19.401 C 19.101 19.701,18.820 19.851,18.418 19.928 C 18.010 20.005,5.990 20.005,5.582 19.927 C 5.170 19.850,4.898 19.704,4.600 19.403 C 4.303 19.104,4.186 18.890,4.088 18.472 C 4.025 18.203,4.020 17.687,4.020 12.000 C 4.020 6.313,4.025 5.797,4.088 5.528 C 4.175 5.155,4.294 4.918,4.520 4.667 C 4.883 4.262,5.282 4.091,5.980 4.039 C 6.200 4.023,9.044 4.013,12.300 4.018 C 17.643 4.024,18.247 4.032,18.492 4.091 M8.626 8.045 C 8.420 8.154,8.146 8.433,8.038 8.644 C 7.924 8.868,7.924 9.132,8.040 9.363 C 8.101 9.486,8.811 10.224,10.353 11.770 L 12.578 14.000 10.696 14.000 C 8.689 14.000,8.589 14.008,8.322 14.199 C 8.101 14.356,8.022 14.567,8.022 15.000 C 8.022 15.504,8.125 15.715,8.460 15.894 C 8.618 15.979,8.651 15.980,11.780 16.007 C 13.518 16.021,14.999 16.035,15.071 16.037 C 15.223 16.040,15.669 15.848,15.768 15.735 C 15.879 15.610,16.041 15.208,16.037 15.069 C 16.035 14.998,16.021 13.518,16.007 11.780 L 15.980 8.620 15.891 8.453 C 15.689 8.076,15.138 7.902,14.629 8.055 C 14.378 8.131,14.215 8.256,14.109 8.453 C 14.021 8.618,14.020 8.640,14.008 10.597 L 13.996 12.575 11.768 10.352 C 10.294 8.881,9.483 8.100,9.372 8.044 C 9.152 7.934,8.835 7.935,8.626 8.045 " stroke="none" fill-rule="evenodd" fill="black"></path></svg>