<svg width="24" height="24" viewBox="0 0 24 24" fill="none" xmlns="http://www.w3.org/2000/svg"><path d="M5.920 2.041 C 5.151 2.092,4.672 2.205,4.180 2.451 C 3.089 2.996,2.357 3.961,2.124 5.160 C 2.013 5.729,2.000 6.455,2.000 12.000 C 2.000 18.358,2.006 18.526,2.245 19.320 C 2.577 20.422,3.578 21.423,4.680 21.755 C 5.474 21.994,5.642 22.000,12.000 22.000 C 18.358 22.000,18.526 21.994,19.320 21.755 C 20.422 21.423,21.423 20.422,21.755 19.320 C 21.994 18.526,22.000 18.358,22.000 12.000 C 22.000 5.642,21.994 5.474,21.755 4.680 C 21.424 3.581,20.465 2.622,19.320 2.246 C 18.644 2.024,18.800 2.029,12.340 2.019 C 9.062 2.014,6.173 2.024,5.920 2.041 M18.492 4.091 C 18.894 4.188,19.109 4.309,19.400 4.600 C 19.696 4.895,19.814 5.109,19.912 5.528 C 19.975 5.797,19.980 6.313,19.980 12.000 C 19.980 17.687,19.975 18.203,19.912 18.472 C 19.814 18.891,19.696 19.104,19.400 19.401 C 19.101 19.701,18.820 19.851,18.418 19.928 C 18.010 20.005,5.990 20.005,5.582 19.927 C 5.170 19.850,4.898 19.704,4.600 19.403 C 4.303 19.104,4.186 18.890,4.088 18.472 C 4.025 18.203,4.020 17.687,4.020 12.000 C 4.020 6.313,4.025 5.797,4.088 5.528 C 4.175 5.155,4.294 4.918,4.520 4.667 C 4.883 4.262,5.282 4.091,5.980 4.039 C 6.200 4.023,9.044 4.013,12.300 4.018 C 17.643 4.024,18.247 4.032,18.492 4.091 M11.720 7.999 C 9.364 8.015,8.633 8.032,8.545 8.071 C 8.148 8.247,8.023 8.469,8.021 9.000 C 8.020 9.332,8.033 9.402,8.120 9.558 C 8.230 9.755,8.414 9.898,8.635 9.959 C 8.723 9.984,9.530 10.000,10.679 10.000 L 12.578 10.000 10.353 12.230 C 8.811 13.776,8.101 14.514,8.040 14.637 C 7.863 14.990,7.952 15.354,8.299 15.701 C 8.646 16.048,9.010 16.137,9.363 15.960 C 9.486 15.899,10.223 15.190,11.768 13.648 L 13.996 11.425 14.008 13.403 L 14.020 15.380 14.120 15.558 C 14.287 15.856,14.572 16.000,15.000 16.000 C 15.428 16.000,15.713 15.856,15.880 15.558 L 15.980 15.380 16.007 12.220 C 16.021 10.482,16.035 9.001,16.037 8.929 C 16.041 8.744,15.835 8.310,15.696 8.212 C 15.467 8.052,15.198 7.960,14.985 7.969 C 14.872 7.974,13.403 7.988,11.720 7.999 " stroke="none" fill-rule="evenodd" fill="black"></path></svg>