<svg width="24" height="24" viewBox="0 0 24 24" fill="none" xmlns="http://www.w3.org/2000/svg"><path d="M16.620 6.046 C 16.520 6.097,14.880 7.707,12.231 10.353 L 8.002 14.577 7.991 10.599 L 7.980 6.620 7.891 6.453 C 7.785 6.256,7.622 6.131,7.371 6.055 C 6.862 5.902,6.311 6.076,6.109 6.453 L 6.020 6.620 5.994 11.780 C 5.980 14.618,5.966 16.999,5.964 17.071 C 5.960 17.223,6.152 17.668,6.265 17.768 C 6.391 17.879,6.792 18.041,6.931 18.036 C 7.002 18.034,9.382 18.020,12.220 18.006 C 17.157 17.981,17.386 17.977,17.520 17.905 C 17.876 17.715,17.978 17.514,17.978 17.000 C 17.978 16.567,17.899 16.356,17.678 16.199 C 17.395 15.997,17.461 16.000,13.304 16.000 L 9.421 16.000 13.646 11.770 C 16.662 8.752,17.897 7.489,17.961 7.363 C 18.137 7.010,18.048 6.645,17.701 6.299 C 17.361 5.959,16.968 5.867,16.620 6.046 " stroke="none" fill-rule="evenodd" fill="black"></path></svg>