<svg width="24" height="24" viewBox="0 0 24 24" fill="none" xmlns="http://www.w3.org/2000/svg"><path d="M11.280 1.023 C 11.203 1.032,10.951 1.059,10.720 1.083 C 9.527 1.210,8.337 1.558,7.180 2.120 C 6.045 2.671,5.193 3.285,4.238 4.239 C 3.277 5.198,2.643 6.080,2.097 7.220 C 0.301 10.968,0.728 15.286,3.226 18.633 C 3.701 19.269,4.753 20.316,5.400 20.797 C 9.364 23.745,14.666 23.734,18.637 20.770 C 19.246 20.316,20.316 19.246,20.770 18.637 C 23.744 14.652,23.744 9.348,20.770 5.363 C 20.316 4.755,19.247 3.686,18.640 3.235 C 17.045 2.049,15.365 1.360,13.423 1.096 C 13.000 1.038,11.574 0.990,11.280 1.023 M13.320 3.101 C 15.883 3.488,18.124 4.931,19.560 7.120 C 19.863 7.583,20.303 8.479,20.492 9.020 C 20.838 10.013,20.977 10.865,20.977 12.000 C 20.977 13.493,20.720 14.621,20.080 15.940 C 19.375 17.394,18.311 18.607,16.927 19.532 C 16.138 20.060,14.876 20.588,13.908 20.797 C 11.266 21.366,8.479 20.708,6.370 19.019 C 4.857 17.807,3.722 16.029,3.267 14.160 C 3.081 13.397,3.023 12.888,3.023 12.000 C 3.023 10.507,3.280 9.379,3.920 8.060 C 4.971 5.891,6.877 4.221,9.160 3.466 C 9.865 3.233,10.432 3.118,11.340 3.024 C 11.662 2.991,12.911 3.039,13.320 3.101 M8.541 8.083 C 8.423 8.139,8.294 8.211,8.256 8.243 C 8.152 8.328,7.960 8.779,7.963 8.929 C 7.965 9.001,7.978 10.482,7.993 12.220 L 8.020 15.380 8.120 15.558 C 8.301 15.882,8.619 16.022,9.104 15.991 C 9.563 15.962,9.852 15.750,9.959 15.365 C 9.984 15.277,10.000 14.470,10.000 13.321 L 10.000 11.422 12.230 13.647 C 13.776 15.189,14.514 15.899,14.637 15.960 C 14.990 16.137,15.354 16.048,15.701 15.701 C 16.048 15.354,16.137 14.990,15.960 14.637 C 15.899 14.514,15.189 13.776,13.647 12.230 L 11.422 10.000 13.321 10.000 C 14.470 10.000,15.277 9.984,15.365 9.959 C 15.586 9.898,15.770 9.755,15.880 9.558 C 15.967 9.403,15.980 9.331,15.980 9.000 C 15.980 8.682,15.965 8.592,15.889 8.450 C 15.783 8.252,15.574 8.102,15.320 8.043 C 15.204 8.016,13.998 7.997,11.948 7.990 L 8.757 7.980 8.541 8.083 " stroke="none" fill-rule="evenodd" fill="black"></path></svg>