<svg width="24" height="24" viewBox="0 0 24 24" fill="none" xmlns="http://www.w3.org/2000/svg"><path d="M5.626 5.045 C 5.420 5.154,5.146 5.433,5.038 5.644 C 4.924 5.867,4.924 6.132,5.039 6.363 C 5.103 6.490,6.603 8.016,10.354 11.770 L 15.579 17.000 12.696 17.000 C 9.615 17.000,9.600 17.001,9.322 17.199 C 9.139 17.329,9.030 17.573,9.009 17.900 C 8.978 18.381,9.119 18.699,9.442 18.880 L 9.620 18.980 13.780 19.006 C 16.068 19.021,17.999 19.034,18.071 19.036 C 18.223 19.040,18.668 18.848,18.768 18.735 C 18.879 18.610,19.041 18.208,19.037 18.069 C 19.035 17.998,19.021 16.068,19.006 13.780 L 18.980 9.620 18.889 9.450 C 18.724 9.140,18.329 8.970,17.874 9.011 C 17.439 9.051,17.141 9.274,17.041 9.635 C 17.015 9.726,17.000 10.861,17.000 12.680 L 17.000 15.579 11.770 10.354 C 8.180 6.767,6.487 5.101,6.372 5.044 C 6.152 4.934,5.834 4.935,5.626 5.045 " stroke="none" fill-rule="evenodd" fill="black"></path></svg>