<svg width="24" height="24" viewBox="0 0 24 24" fill="none" xmlns="http://www.w3.org/2000/svg"><path d="M9.620 4.046 C 9.382 4.168,2.155 11.406,2.039 11.637 C 1.924 11.868,1.924 12.132,2.039 12.363 C 2.148 12.580,9.247 19.710,9.512 19.867 C 9.627 19.936,9.764 19.976,9.932 19.989 C 10.375 20.024,10.702 19.876,10.880 19.558 L 10.980 19.380 10.992 17.691 L 11.004 16.002 15.932 15.991 L 20.860 15.980 21.120 15.856 C 21.263 15.788,21.459 15.653,21.556 15.556 C 21.653 15.459,21.788 15.263,21.856 15.120 L 21.980 14.860 21.980 12.000 L 21.980 9.140 21.856 8.880 C 21.643 8.433,21.251 8.132,20.765 8.041 C 20.627 8.015,18.834 8.000,15.776 8.000 L 11.003 8.000 10.992 6.350 L 10.980 4.700 10.871 4.514 C 10.758 4.323,10.558 4.141,10.332 4.025 C 10.154 3.934,9.818 3.944,9.620 4.046 M9.120 9.558 C 9.230 9.755,9.414 9.898,9.635 9.959 C 9.729 9.985,11.590 10.000,14.890 10.000 L 20.000 10.000 20.000 12.000 L 20.000 14.000 14.906 14.000 C 9.445 14.000,9.609 13.994,9.322 14.199 C 9.254 14.247,9.158 14.362,9.109 14.453 C 9.026 14.609,9.019 14.684,9.000 15.590 L 8.980 16.561 6.700 14.280 L 4.420 12.000 6.700 9.720 L 8.980 7.439 9.000 8.410 C 9.019 9.352,9.023 9.385,9.120 9.558 " stroke="none" fill-rule="evenodd" fill="black"></path></svg>