<svg width="24" height="24" viewBox="0 0 24 24" fill="none" xmlns="http://www.w3.org/2000/svg"><path d="M11.626 4.045 C 11.420 4.154,11.146 4.433,11.038 4.644 C 10.924 4.867,10.924 5.132,11.039 5.363 C 11.102 5.487,11.942 6.356,13.853 8.270 L 16.579 11.000 10.696 11.000 C 4.384 11.000,4.611 10.993,4.322 11.199 C 4.100 11.357,4.020 11.568,4.020 12.000 C 4.020 12.331,4.033 12.403,4.120 12.558 C 4.230 12.755,4.414 12.898,4.635 12.959 C 4.729 12.985,6.851 13.000,10.679 13.000 L 16.579 13.000 13.853 15.730 C 11.942 17.644,11.102 18.513,11.039 18.637 C 10.863 18.990,10.952 19.354,11.299 19.701 C 11.646 20.048,12.010 20.137,12.363 19.961 C 12.488 19.898,13.577 18.840,16.061 16.366 C 17.997 14.438,19.633 12.826,19.696 12.784 C 19.850 12.682,20.049 12.239,20.049 12.000 C 20.049 11.744,19.851 11.321,19.676 11.201 C 19.601 11.150,17.965 9.538,16.040 7.618 C 13.675 5.259,12.485 4.101,12.372 4.044 C 12.152 3.934,11.835 3.935,11.626 4.045 " stroke="none" fill-rule="evenodd" fill="black"></path></svg>