<svg width="24" height="24" viewBox="0 0 24 24" fill="none" xmlns="http://www.w3.org/2000/svg"><path d="M11.400 1.902 C 10.560 2.082,9.987 2.534,9.296 3.561 C 8.761 4.355,7.361 6.656,7.275 6.884 C 7.178 7.139,7.180 7.319,7.283 7.538 C 7.388 7.760,7.708 8.014,8.026 8.125 C 8.235 8.199,8.284 8.203,8.480 8.160 C 8.805 8.088,8.963 7.897,9.717 6.659 C 10.817 4.852,11.087 4.442,11.360 4.157 C 11.590 3.917,11.642 3.882,11.810 3.858 C 11.914 3.843,12.085 3.843,12.190 3.858 C 12.358 3.882,12.410 3.917,12.640 4.157 C 12.783 4.306,13.047 4.661,13.227 4.946 C 13.917 6.041,14.766 7.447,14.748 7.465 C 14.738 7.475,14.326 7.375,13.833 7.242 C 12.666 6.927,12.394 6.924,12.112 7.225 C 11.884 7.468,11.749 7.978,11.817 8.338 C 11.853 8.532,12.074 8.770,12.311 8.872 C 12.502 8.955,16.572 10.061,16.848 10.106 C 17.276 10.175,17.603 9.979,17.807 9.531 C 17.869 9.394,17.920 9.256,17.920 9.224 C 17.920 9.192,18.165 8.251,18.464 7.134 C 18.844 5.716,19.009 5.034,19.011 4.878 C 19.014 4.491,18.821 4.251,18.364 4.078 C 18.082 3.971,17.666 3.972,17.487 4.081 C 17.176 4.271,17.127 4.382,16.782 5.678 C 16.663 6.123,16.560 6.493,16.553 6.500 C 16.546 6.507,16.243 6.024,15.880 5.427 C 14.348 2.909,13.894 2.363,13.057 2.031 C 12.598 1.849,11.900 1.795,11.400 1.902 M3.820 10.075 C 2.610 10.400,1.548 10.704,1.460 10.750 C 1.126 10.924,0.986 11.141,0.989 11.483 C 0.994 11.933,1.225 12.387,1.530 12.545 C 1.752 12.660,2.046 12.624,3.022 12.362 C 3.527 12.227,3.963 12.109,3.991 12.099 C 4.058 12.076,4.085 12.029,3.234 13.427 C 1.809 15.765,1.586 16.261,1.584 17.080 C 1.583 17.783,1.865 18.481,2.368 19.020 C 2.843 19.529,3.295 19.762,4.090 19.906 C 4.538 19.988,8.506 20.034,8.831 19.961 C 9.263 19.864,9.486 19.537,9.486 19.000 C 9.486 18.491,9.304 18.196,8.909 18.064 C 8.745 18.009,8.457 18.000,6.909 17.999 C 5.173 17.998,4.489 17.969,4.163 17.881 C 3.981 17.832,3.742 17.609,3.656 17.408 C 3.457 16.942,3.529 16.793,5.575 13.431 C 5.665 13.283,5.751 13.175,5.766 13.191 C 5.781 13.207,5.902 13.630,6.036 14.131 C 6.290 15.085,6.330 15.193,6.490 15.366 C 6.650 15.538,6.828 15.609,7.097 15.608 C 7.564 15.605,8.058 15.329,8.163 15.012 C 8.250 14.746,8.178 14.377,7.681 12.540 C 7.413 11.550,7.186 10.644,7.176 10.526 C 7.157 10.287,6.961 9.893,6.772 9.711 C 6.622 9.567,6.399 9.480,6.191 9.482 C 6.097 9.483,5.030 9.750,3.820 10.075 M18.920 11.477 C 18.538 11.551,18.087 11.933,18.007 12.248 C 17.931 12.547,18.005 12.735,18.550 13.633 C 20.180 16.315,20.418 16.756,20.411 17.074 C 20.409 17.176,20.379 17.326,20.344 17.408 C 20.258 17.609,20.019 17.832,19.837 17.881 C 19.505 17.970,18.812 17.998,16.900 17.999 L 14.901 18.000 15.649 17.250 C 16.595 16.301,16.684 16.127,16.465 15.660 C 16.360 15.435,16.028 15.104,15.820 15.018 C 15.641 14.942,15.355 14.944,15.169 15.022 C 15.068 15.064,14.476 15.625,13.326 16.772 C 11.549 18.542,11.441 18.670,11.441 19.000 C 11.441 19.330,11.549 19.458,13.326 21.228 C 14.529 22.427,15.065 22.935,15.177 22.982 C 15.373 23.063,15.623 23.065,15.812 22.986 C 16.168 22.837,16.560 22.320,16.559 22.000 C 16.558 21.711,16.425 21.528,15.653 20.754 L 14.909 20.008 17.244 19.988 C 19.766 19.967,19.901 19.957,20.571 19.735 C 21.614 19.391,22.412 18.242,22.416 17.080 C 22.418 16.213,22.202 15.770,20.097 12.327 C 19.641 11.581,19.374 11.388,18.920 11.477 " stroke="none" fill-rule="evenodd" fill="black"></path></svg>