<svg width="24" height="24" viewBox="0 0 24 24" fill="none" xmlns="http://www.w3.org/2000/svg"><path d="M11.280 1.023 C 11.203 1.032,10.951 1.059,10.720 1.083 C 9.527 1.210,8.337 1.558,7.180 2.120 C 6.045 2.671,5.193 3.285,4.238 4.239 C 3.277 5.198,2.643 6.080,2.097 7.220 C 0.301 10.968,0.728 15.286,3.226 18.633 C 3.701 19.269,4.753 20.316,5.400 20.797 C 9.364 23.745,14.666 23.734,18.637 20.770 C 19.246 20.316,20.316 19.246,20.770 18.637 C 23.744 14.652,23.744 9.348,20.770 5.363 C 20.316 4.755,19.247 3.686,18.640 3.235 C 17.045 2.049,15.365 1.360,13.423 1.096 C 13.000 1.038,11.574 0.990,11.280 1.023 M13.320 3.101 C 15.883 3.488,18.124 4.931,19.560 7.120 C 19.863 7.583,20.303 8.479,20.492 9.020 C 20.838 10.013,20.977 10.865,20.977 12.000 C 20.977 13.493,20.720 14.621,20.080 15.940 C 19.375 17.394,18.311 18.607,16.927 19.532 C 16.138 20.060,14.876 20.588,13.908 20.797 C 11.266 21.366,8.479 20.708,6.370 19.019 C 4.857 17.807,3.722 16.029,3.267 14.160 C 3.081 13.397,3.023 12.888,3.023 12.000 C 3.023 10.507,3.280 9.379,3.920 8.060 C 4.971 5.891,6.877 4.221,9.160 3.466 C 9.865 3.233,10.432 3.118,11.340 3.024 C 11.662 2.991,12.911 3.039,13.320 3.101 M11.620 7.046 C 11.525 7.095,10.652 7.932,9.460 9.118 C 8.360 10.213,7.399 11.150,7.324 11.201 C 7.149 11.321,6.951 11.745,6.951 12.000 C 6.951 12.239,7.150 12.682,7.304 12.784 C 7.366 12.826,8.327 13.763,9.439 14.866 C 10.818 16.234,11.516 16.899,11.637 16.960 C 11.989 17.137,12.354 17.048,12.701 16.701 C 13.048 16.354,13.137 15.989,12.960 15.637 C 12.901 15.521,12.452 15.039,11.647 14.230 L 10.423 13.000 13.321 13.000 C 15.140 13.000,16.274 12.985,16.365 12.959 C 16.586 12.898,16.770 12.755,16.880 12.558 C 16.967 12.402,16.980 12.332,16.979 12.000 C 16.978 11.567,16.898 11.355,16.678 11.199 C 16.400 11.001,16.385 11.000,13.305 11.000 L 10.423 11.000 11.647 9.770 C 12.452 8.961,12.901 8.479,12.960 8.363 C 13.137 8.011,13.048 7.646,12.701 7.299 C 12.361 6.959,11.967 6.867,11.620 7.046 " stroke="none" fill-rule="evenodd" fill="black"></path></svg>