<svg width="24" height="24" viewBox="0 0 24 24" fill="none" xmlns="http://www.w3.org/2000/svg"><path d="M11.620 2.046 C 11.412 2.153,4.275 9.272,4.127 9.520 C 4.033 9.677,4.020 9.743,4.020 10.040 C 4.020 10.328,4.035 10.407,4.120 10.558 C 4.230 10.755,4.414 10.898,4.635 10.959 C 4.721 10.983,5.435 11.000,6.389 11.000 L 7.998 11.000 8.009 15.930 L 8.020 20.860 8.144 21.120 C 8.301 21.450,8.550 21.699,8.880 21.856 L 9.140 21.980 12.000 21.980 L 14.860 21.980 15.120 21.856 C 15.450 21.699,15.699 21.450,15.856 21.120 L 15.980 20.860 15.991 15.932 L 16.002 11.003 17.651 10.992 L 19.300 10.980 19.486 10.871 C 19.964 10.589,20.170 10.056,19.961 9.637 C 19.839 9.394,12.614 2.165,12.372 2.044 C 12.151 1.934,11.836 1.935,11.620 2.046 M14.297 6.717 L 16.574 8.995 15.616 9.007 C 14.678 9.020,14.653 9.022,14.459 9.122 C 14.245 9.233,14.105 9.404,14.041 9.635 C 14.015 9.729,14.000 11.590,14.000 14.890 L 14.000 20.000 12.001 20.000 L 10.001 20.000 9.991 14.810 L 9.980 9.620 9.891 9.453 C 9.842 9.362,9.746 9.247,9.678 9.199 C 9.439 9.028,9.243 9.000,8.304 9.000 L 7.420 9.000 9.700 6.720 C 10.954 5.466,11.989 4.440,12.000 4.440 C 12.011 4.440,13.045 5.465,14.297 6.717 " stroke="none" fill-rule="evenodd" fill="black"></path></svg>