<svg width="24" height="24" viewBox="0 0 24 24" fill="none" xmlns="http://www.w3.org/2000/svg"><path d="M11.280 1.023 C 11.203 1.032,10.951 1.059,10.720 1.083 C 9.216 1.243,7.644 1.781,6.303 2.595 C 4.894 3.450,3.555 4.769,2.661 6.180 C 2.377 6.629,1.893 7.614,1.701 8.133 C 0.837 10.475,0.770 12.973,1.508 15.300 C 2.264 17.686,3.830 19.772,5.900 21.151 C 6.532 21.572,6.807 21.700,7.074 21.696 C 7.198 21.694,7.356 21.664,7.424 21.628 C 7.724 21.473,8.040 20.934,8.040 20.578 C 8.040 20.234,7.895 20.060,7.271 19.655 C 6.358 19.062,5.807 18.593,5.214 17.904 C 4.280 16.819,3.550 15.406,3.247 14.100 C 3.080 13.376,3.025 12.857,3.024 12.000 C 3.022 10.510,3.279 9.380,3.920 8.060 C 4.799 6.247,6.247 4.799,8.060 3.920 C 9.379 3.280,10.507 3.023,12.000 3.023 C 13.493 3.023,14.621 3.280,15.940 3.920 C 17.753 4.799,19.201 6.247,20.080 8.060 C 20.721 9.380,20.978 10.510,20.976 12.000 C 20.975 13.527,20.695 14.729,20.037 16.030 C 19.292 17.505,18.273 18.635,16.828 19.588 C 16.094 20.071,15.960 20.224,15.960 20.578 C 15.960 20.934,16.276 21.473,16.576 21.628 C 16.644 21.664,16.802 21.694,16.926 21.696 C 17.193 21.700,17.468 21.572,18.100 21.151 C 21.130 19.132,22.998 15.667,22.999 12.060 C 23.001 9.609,22.246 7.345,20.767 5.360 C 20.317 4.755,19.247 3.686,18.640 3.235 C 17.045 2.049,15.365 1.360,13.423 1.096 C 13.000 1.038,11.574 0.990,11.280 1.023 M11.530 7.083 C 11.393 7.150,11.249 7.252,11.210 7.311 C 11.172 7.369,10.237 8.327,9.134 9.439 C 7.766 10.818,7.101 11.516,7.040 11.637 C 6.863 11.989,6.952 12.354,7.299 12.701 C 7.646 13.048,8.011 13.137,8.363 12.960 C 8.479 12.901,8.961 12.452,9.769 11.647 L 10.999 10.424 11.009 16.402 L 11.020 22.380 11.106 22.540 C 11.285 22.875,11.496 22.978,12.000 22.978 C 12.504 22.978,12.715 22.875,12.894 22.540 L 12.980 22.380 12.991 16.402 L 13.001 10.424 14.231 11.647 C 15.039 12.452,15.521 12.901,15.637 12.960 C 15.989 13.137,16.354 13.048,16.701 12.701 C 17.048 12.354,17.137 11.989,16.960 11.637 C 16.899 11.516,16.234 10.818,14.866 9.439 C 13.763 8.327,12.828 7.369,12.789 7.310 C 12.751 7.252,12.604 7.149,12.464 7.082 C 12.120 6.918,11.871 6.918,11.530 7.083 " stroke="none" fill-rule="evenodd" fill="black"></path></svg>