<svg width="24" height="24" viewBox="0 0 24 24" fill="none" xmlns="http://www.w3.org/2000/svg"><path d="M17.620 5.046 C 17.519 5.098,15.530 7.057,12.231 10.352 L 7.002 15.577 6.991 12.598 L 6.980 9.620 6.891 9.453 C 6.689 9.076,6.138 8.902,5.629 9.055 C 5.378 9.131,5.215 9.256,5.109 9.453 L 5.020 9.620 4.994 13.780 C 4.979 16.068,4.966 17.999,4.964 18.071 C 4.960 18.223,5.152 18.668,5.265 18.768 C 5.390 18.879,5.792 19.041,5.931 19.036 C 6.002 19.034,7.932 19.021,10.220 19.006 C 14.179 18.981,14.387 18.976,14.520 18.905 C 14.876 18.715,14.978 18.514,14.978 18.000 C 14.978 17.567,14.899 17.356,14.678 17.199 C 14.400 17.001,14.385 17.000,11.304 17.000 L 8.421 17.000 13.646 11.770 C 17.397 8.016,18.897 6.490,18.961 6.363 C 19.137 6.010,19.047 5.645,18.701 5.299 C 18.361 4.959,17.968 4.867,17.620 5.046 " stroke="none" fill-rule="evenodd" fill="black"></path></svg>