<svg width="24" height="24" viewBox="0 0 24 24" fill="none" xmlns="http://www.w3.org/2000/svg"><path d="M5.920 2.041 C 5.151 2.092,4.672 2.205,4.180 2.451 C 3.089 2.996,2.357 3.961,2.124 5.160 C 2.013 5.729,2.000 6.455,2.000 12.000 C 2.000 18.358,2.006 18.526,2.245 19.320 C 2.577 20.422,3.578 21.423,4.680 21.755 C 5.474 21.994,5.642 22.000,12.000 22.000 C 18.358 22.000,18.526 21.994,19.320 21.755 C 20.422 21.423,21.423 20.422,21.755 19.320 C 21.994 18.526,22.000 18.358,22.000 12.000 C 22.000 5.642,21.994 5.474,21.755 4.680 C 21.424 3.581,20.465 2.622,19.320 2.246 C 18.644 2.024,18.800 2.029,12.340 2.019 C 9.062 2.014,6.173 2.024,5.920 2.041 M18.492 4.091 C 18.894 4.188,19.109 4.309,19.400 4.600 C 19.696 4.895,19.814 5.109,19.912 5.528 C 19.975 5.797,19.980 6.313,19.980 12.000 C 19.980 17.687,19.975 18.203,19.912 18.472 C 19.814 18.891,19.696 19.104,19.400 19.401 C 19.101 19.701,18.820 19.851,18.418 19.928 C 18.010 20.005,5.990 20.005,5.582 19.927 C 5.170 19.850,4.898 19.704,4.600 19.403 C 4.303 19.104,4.186 18.890,4.088 18.472 C 4.025 18.203,4.020 17.687,4.020 12.000 C 4.020 6.313,4.025 5.797,4.088 5.528 C 4.175 5.155,4.294 4.918,4.520 4.667 C 4.883 4.262,5.282 4.091,5.980 4.039 C 6.200 4.023,9.044 4.013,12.300 4.018 C 17.643 4.024,18.247 4.032,18.492 4.091 M11.620 7.046 C 11.525 7.095,10.652 7.932,9.460 9.118 C 8.360 10.213,7.399 11.150,7.324 11.201 C 7.149 11.321,6.951 11.745,6.951 12.000 C 6.951 12.239,7.150 12.682,7.304 12.784 C 7.366 12.826,8.327 13.763,9.439 14.866 C 10.818 16.234,11.516 16.899,11.637 16.960 C 11.989 17.137,12.354 17.048,12.701 16.701 C 13.048 16.354,13.137 15.989,12.960 15.637 C 12.901 15.521,12.452 15.039,11.647 14.230 L 10.423 13.000 13.321 13.000 C 15.140 13.000,16.274 12.985,16.365 12.959 C 16.586 12.898,16.770 12.755,16.880 12.558 C 16.967 12.402,16.980 12.332,16.979 12.000 C 16.978 11.567,16.898 11.355,16.678 11.199 C 16.400 11.001,16.385 11.000,13.305 11.000 L 10.423 11.000 11.647 9.770 C 12.452 8.961,12.901 8.479,12.960 8.363 C 13.137 8.011,13.048 7.646,12.701 7.299 C 12.361 6.959,11.967 6.867,11.620 7.046 " stroke="none" fill-rule="evenodd" fill="black"></path></svg>