<svg width="24" height="24" viewBox="0 0 24 24" fill="none" xmlns="http://www.w3.org/2000/svg"><path d="M13.719 4.999 L 9.658 5.020 9.459 5.122 C 9.119 5.297,8.978 5.606,9.009 6.104 C 9.038 6.563,9.250 6.852,9.635 6.959 C 9.726 6.985,10.861 7.000,12.680 7.000 L 15.579 7.000 10.354 12.230 C 6.603 15.984,5.103 17.510,5.039 17.637 C 4.863 17.990,4.953 18.355,5.299 18.701 C 5.645 19.047,6.010 19.137,6.363 18.961 C 6.490 18.897,8.016 17.397,11.770 13.646 L 17.000 8.421 17.000 11.320 C 17.000 13.139,17.015 14.274,17.041 14.365 C 17.148 14.750,17.437 14.962,17.896 14.991 C 18.381 15.022,18.699 14.882,18.880 14.558 L 18.980 14.380 19.006 10.220 C 19.021 7.932,19.034 6.001,19.036 5.929 C 19.041 5.744,18.835 5.310,18.696 5.212 C 18.467 5.051,18.198 4.960,17.985 4.969 C 17.872 4.975,15.953 4.988,13.719 4.999 " stroke="none" fill-rule="evenodd" fill="black"></path></svg>