<svg width="24" height="24" viewBox="0 0 24 24" fill="none" xmlns="http://www.w3.org/2000/svg"><path d="M11.614 1.057 C 11.377 1.131,11.212 1.261,11.109 1.453 L 11.020 1.620 11.009 7.598 L 10.999 13.576 9.769 12.353 C 9.001 11.588,8.477 11.098,8.372 11.045 C 8.020 10.868,7.639 10.958,7.299 11.299 C 6.952 11.646,6.863 12.011,7.040 12.363 C 7.101 12.484,7.766 13.182,9.134 14.561 C 10.237 15.673,11.174 16.634,11.216 16.696 C 11.318 16.850,11.761 17.049,12.000 17.049 C 12.239 17.049,12.682 16.850,12.784 16.696 C 12.826 16.634,13.763 15.673,14.866 14.561 C 16.234 13.182,16.899 12.484,16.960 12.363 C 17.137 12.011,17.048 11.646,16.701 11.299 C 16.361 10.958,15.980 10.868,15.628 11.045 C 15.523 11.098,14.999 11.588,14.231 12.353 L 13.001 13.576 12.991 7.598 L 12.980 1.620 12.891 1.453 C 12.842 1.362,12.746 1.247,12.678 1.199 C 12.414 1.010,11.957 0.950,11.614 1.057 M6.831 2.335 C 6.518 2.421,5.577 3.035,4.925 3.578 C 4.470 3.957,3.795 4.648,3.419 5.120 C 0.265 9.076,0.187 14.561,3.226 18.633 C 3.701 19.269,4.753 20.316,5.400 20.797 C 9.364 23.745,14.666 23.734,18.637 20.770 C 19.246 20.316,20.316 19.246,20.770 18.637 C 23.600 14.845,23.750 9.815,21.149 5.900 C 20.574 5.034,19.730 4.103,18.952 3.477 C 18.492 3.108,17.605 2.513,17.333 2.393 C 16.957 2.226,16.550 2.311,16.299 2.608 C 16.112 2.829,15.960 3.195,15.960 3.422 C 15.960 3.775,16.093 3.927,16.831 4.415 C 18.285 5.378,19.292 6.495,20.037 7.970 C 20.695 9.271,20.975 10.473,20.976 12.000 C 20.978 13.490,20.721 14.620,20.080 15.940 C 19.375 17.394,18.311 18.607,16.927 19.532 C 16.138 20.060,14.876 20.588,13.908 20.797 C 11.266 21.366,8.479 20.708,6.370 19.019 C 4.857 17.807,3.722 16.029,3.267 14.160 C 3.080 13.393,3.023 12.888,3.024 12.000 C 3.025 10.492,3.284 9.352,3.920 8.057 C 4.663 6.546,5.689 5.395,7.169 4.415 C 7.679 4.077,7.829 3.957,7.923 3.809 C 8.081 3.560,8.082 3.309,7.926 2.980 C 7.666 2.431,7.289 2.209,6.831 2.335 " stroke="none" fill-rule="evenodd" fill="black"></path></svg>