<svg width="24" height="24" viewBox="0 0 24 24" fill="none" xmlns="http://www.w3.org/2000/svg"><path d="M11.614 3.057 C 11.377 3.131,11.212 3.261,11.109 3.453 L 11.020 3.620 11.010 10.599 L 10.999 17.577 8.770 15.353 C 7.294 13.881,6.483 13.100,6.372 13.044 C 6.020 12.868,5.639 12.959,5.299 13.299 C 4.952 13.646,4.863 14.010,5.040 14.363 C 5.102 14.487,6.029 15.445,8.134 17.561 C 9.787 19.223,11.174 20.633,11.216 20.696 C 11.318 20.850,11.761 21.049,12.000 21.049 C 12.239 21.049,12.682 20.850,12.784 20.696 C 12.826 20.633,14.213 19.223,15.866 17.561 C 17.971 15.445,18.898 14.487,18.960 14.363 C 19.137 14.010,19.048 13.646,18.701 13.299 C 18.361 12.959,17.980 12.868,17.628 13.044 C 17.517 13.100,16.706 13.881,15.231 15.353 L 13.001 17.577 12.991 10.599 L 12.980 3.620 12.891 3.453 C 12.842 3.362,12.746 3.247,12.678 3.199 C 12.414 3.010,11.957 2.950,11.614 3.057 " stroke="none" fill-rule="evenodd" fill="black"></path></svg>