<svg width="24" height="24" viewBox="0 0 24 24" fill="none" xmlns="http://www.w3.org/2000/svg"><path d="M5.541 5.083 C 5.423 5.139,5.294 5.211,5.256 5.243 C 5.152 5.329,4.960 5.780,4.964 5.929 C 4.966 6.001,4.979 7.932,4.994 10.220 L 5.020 14.380 5.120 14.558 C 5.287 14.856,5.572 15.000,6.000 15.000 C 6.428 15.000,6.713 14.856,6.880 14.558 L 6.980 14.380 6.991 11.402 L 7.002 8.423 12.231 13.648 C 15.984 17.398,17.510 18.897,17.637 18.961 C 17.990 19.137,18.355 19.047,18.701 18.701 C 19.047 18.355,19.137 17.990,18.961 17.637 C 18.897 17.510,17.397 15.984,13.646 12.230 L 8.421 7.000 11.320 7.000 C 13.139 7.000,14.274 6.985,14.365 6.959 C 14.586 6.898,14.770 6.755,14.880 6.558 C 14.967 6.402,14.980 6.332,14.979 6.000 C 14.978 5.685,14.963 5.591,14.888 5.450 C 14.784 5.252,14.575 5.102,14.320 5.042 C 14.201 5.014,12.718 4.997,9.948 4.990 L 5.757 4.980 5.541 5.083 " stroke="none" fill-rule="evenodd" fill="black"></path></svg>