<svg width="24" height="24" viewBox="0 0 24 24" fill="none" xmlns="http://www.w3.org/2000/svg"><path d="M11.052 1.041 C 8.937 1.246,7.045 1.974,5.363 3.230 C 5.084 3.438,4.636 3.839,4.238 4.238 C 3.277 5.198,2.707 5.987,2.141 7.140 C 1.667 8.104,1.362 9.022,1.180 10.038 C 0.757 12.388,1.084 14.711,2.141 16.860 C 2.672 17.941,3.257 18.767,4.116 19.651 C 5.844 21.428,7.966 22.511,10.480 22.900 C 11.139 23.002,12.383 23.023,13.100 22.945 C 13.684 22.881,14.456 22.739,14.860 22.621 C 15.511 22.432,15.731 21.991,15.518 21.302 C 15.388 20.883,15.092 20.641,14.708 20.640 C 14.646 20.640,14.394 20.686,14.148 20.741 C 13.389 20.913,13.006 20.964,12.297 20.988 C 9.131 21.095,6.201 19.563,4.440 16.880 C 4.137 16.417,3.697 15.521,3.508 14.980 C 3.162 13.987,3.023 13.135,3.023 12.000 C 3.023 10.507,3.280 9.379,3.920 8.060 C 4.799 6.247,6.247 4.799,8.060 3.920 C 8.953 3.487,9.729 3.246,10.720 3.094 C 11.354 2.997,12.646 2.997,13.280 3.094 C 15.875 3.491,18.071 4.890,19.538 7.080 C 19.856 7.553,20.324 8.525,20.522 9.120 C 21.067 10.760,21.137 12.415,20.735 14.155 C 20.617 14.665,20.623 14.918,20.758 15.137 C 21.014 15.551,21.833 15.734,22.236 15.468 C 22.447 15.328,22.575 15.073,22.698 14.549 C 23.098 12.851,23.100 11.147,22.702 9.467 C 22.332 7.899,21.571 6.351,20.546 5.080 C 20.171 4.615,19.333 3.777,18.900 3.435 C 17.311 2.178,15.545 1.410,13.580 1.120 C 12.938 1.025,11.634 0.984,11.052 1.041 M8.541 8.083 C 8.423 8.139,8.294 8.211,8.256 8.243 C 8.152 8.328,7.960 8.779,7.963 8.929 C 7.965 9.001,7.978 10.482,7.993 12.220 L 8.020 15.380 8.120 15.558 C 8.301 15.882,8.619 16.022,9.104 15.991 C 9.563 15.962,9.852 15.750,9.959 15.365 C 9.984 15.277,10.000 14.470,10.000 13.320 L 10.000 11.421 14.230 15.646 C 17.248 18.662,18.511 19.897,18.637 19.961 C 18.990 20.137,19.355 20.048,19.701 19.701 C 20.048 19.355,20.137 18.990,19.961 18.637 C 19.897 18.511,18.662 17.248,15.646 14.230 L 11.421 10.000 13.320 10.000 C 14.470 10.000,15.277 9.984,15.365 9.959 C 15.586 9.898,15.770 9.755,15.880 9.558 C 15.967 9.403,15.980 9.331,15.980 9.000 C 15.980 8.682,15.965 8.592,15.889 8.450 C 15.783 8.252,15.574 8.102,15.320 8.043 C 15.204 8.016,13.998 7.997,11.948 7.990 L 8.757 7.980 8.541 8.083 " stroke="none" fill-rule="evenodd" fill="black"></path></svg>