<svg width="24" height="24" viewBox="0 0 24 24" fill="none" xmlns="http://www.w3.org/2000/svg"><path d="M10.626 2.045 C 10.257 2.239,9.951 2.673,9.951 3.000 C 9.951 3.333,10.056 3.467,11.353 4.770 L 12.577 6.000 8.195 6.000 C 3.500 6.000,3.607 5.996,3.322 6.199 C 3.100 6.357,3.020 6.568,3.020 7.000 C 3.020 7.331,3.033 7.403,3.120 7.558 C 3.230 7.755,3.414 7.898,3.635 7.959 C 3.728 7.985,5.355 8.000,8.179 8.000 L 12.577 8.000 11.353 9.230 C 10.548 10.039,10.099 10.521,10.040 10.637 C 9.863 10.989,9.952 11.354,10.299 11.701 C 10.646 12.048,11.011 12.137,11.363 11.960 C 11.484 11.899,12.182 11.234,13.561 9.866 C 14.673 8.763,15.634 7.826,15.696 7.784 C 15.850 7.682,16.049 7.239,16.049 7.000 C 16.049 6.745,15.851 6.321,15.676 6.201 C 15.601 6.150,14.640 5.213,13.540 4.118 C 12.232 2.817,11.482 2.099,11.372 2.044 C 11.152 1.934,10.835 1.935,10.626 2.045 M15.626 12.045 C 15.257 12.239,14.951 12.673,14.951 13.000 C 14.951 13.333,15.056 13.467,16.353 14.770 L 17.577 16.000 10.695 16.000 C 3.306 16.000,3.612 15.992,3.322 16.199 C 3.100 16.357,3.020 16.568,3.020 17.000 C 3.020 17.331,3.033 17.403,3.120 17.558 C 3.230 17.755,3.414 17.898,3.635 17.959 C 3.730 17.986,6.181 18.000,10.679 18.000 L 17.577 18.000 16.353 19.230 C 15.548 20.039,15.099 20.521,15.040 20.637 C 14.863 20.989,14.952 21.354,15.299 21.701 C 15.646 22.048,16.011 22.137,16.363 21.960 C 16.484 21.899,17.182 21.234,18.561 19.866 C 19.673 18.763,20.634 17.826,20.696 17.784 C 20.850 17.682,21.049 17.239,21.049 17.000 C 21.049 16.745,20.851 16.321,20.676 16.201 C 20.601 16.150,19.640 15.213,18.540 14.118 C 17.232 12.817,16.482 12.099,16.372 12.044 C 16.152 11.934,15.835 11.935,15.626 12.045 " stroke="none" fill-rule="evenodd" fill="black"></path></svg>