<svg width="24" height="24" viewBox="0 0 24 24" fill="none" xmlns="http://www.w3.org/2000/svg"><path d="M5.920 2.041 C 5.151 2.092,4.672 2.205,4.180 2.451 C 3.089 2.996,2.357 3.961,2.124 5.160 C 2.013 5.729,2.000 6.455,2.000 12.000 C 2.000 18.358,2.006 18.526,2.245 19.320 C 2.577 20.422,3.578 21.423,4.680 21.755 C 5.474 21.994,5.642 22.000,12.000 22.000 C 18.358 22.000,18.526 21.994,19.320 21.755 C 20.422 21.423,21.423 20.422,21.755 19.320 C 21.994 18.526,22.000 18.358,22.000 12.000 C 22.000 5.642,21.994 5.474,21.755 4.680 C 21.424 3.581,20.465 2.622,19.320 2.246 C 18.644 2.024,18.800 2.029,12.340 2.019 C 9.062 2.014,6.173 2.024,5.920 2.041 M18.492 4.091 C 18.894 4.188,19.109 4.309,19.400 4.600 C 19.696 4.895,19.814 5.109,19.912 5.528 C 19.975 5.797,19.980 6.313,19.980 12.000 C 19.980 17.687,19.975 18.203,19.912 18.472 C 19.814 18.891,19.696 19.104,19.400 19.401 C 19.101 19.701,18.820 19.851,18.418 19.928 C 18.010 20.005,5.990 20.005,5.582 19.927 C 5.170 19.850,4.898 19.704,4.600 19.403 C 4.303 19.104,4.186 18.890,4.088 18.472 C 4.025 18.203,4.020 17.687,4.020 12.000 C 4.020 6.313,4.025 5.797,4.088 5.528 C 4.175 5.155,4.294 4.918,4.520 4.667 C 4.883 4.262,5.282 4.091,5.980 4.039 C 6.200 4.023,9.044 4.013,12.300 4.018 C 17.643 4.024,18.247 4.032,18.492 4.091 M11.626 7.045 C 11.257 7.239,10.951 7.673,10.951 8.000 C 10.951 8.333,11.056 8.467,12.353 9.770 L 13.577 11.000 10.695 11.000 C 7.615 11.000,7.600 11.001,7.322 11.199 C 7.100 11.357,7.020 11.568,7.020 12.000 C 7.020 12.331,7.033 12.403,7.120 12.558 C 7.230 12.755,7.414 12.898,7.635 12.959 C 7.726 12.985,8.860 13.000,10.679 13.000 L 13.577 13.000 12.353 14.230 C 11.548 15.039,11.099 15.521,11.040 15.637 C 10.863 15.989,10.952 16.354,11.299 16.701 C 11.646 17.048,12.011 17.137,12.363 16.960 C 12.484 16.899,13.182 16.234,14.561 14.866 C 15.673 13.763,16.634 12.826,16.696 12.784 C 16.850 12.682,17.049 12.239,17.049 12.000 C 17.049 11.745,16.851 11.321,16.676 11.201 C 16.601 11.150,15.640 10.213,14.540 9.118 C 13.232 7.817,12.482 7.099,12.372 7.044 C 12.152 6.934,11.835 6.935,11.626 7.045 " stroke="none" fill-rule="evenodd" fill="black"></path></svg>