<svg width="24" height="24" viewBox="0 0 24 24" fill="none" xmlns="http://www.w3.org/2000/svg"><path d="M11.280 1.023 C 11.203 1.032,10.951 1.059,10.720 1.083 C 9.527 1.210,8.337 1.558,7.180 2.120 C 6.045 2.671,5.193 3.285,4.238 4.239 C 3.277 5.198,2.643 6.080,2.097 7.220 C 0.301 10.968,0.728 15.286,3.226 18.633 C 3.701 19.269,4.753 20.316,5.400 20.797 C 9.364 23.745,14.666 23.734,18.637 20.770 C 19.246 20.316,20.316 19.246,20.770 18.637 C 23.744 14.652,23.744 9.348,20.770 5.363 C 20.316 4.755,19.247 3.686,18.640 3.235 C 17.045 2.049,15.365 1.360,13.423 1.096 C 13.000 1.038,11.574 0.990,11.280 1.023 M13.320 3.101 C 15.883 3.488,18.124 4.931,19.560 7.120 C 19.863 7.583,20.303 8.479,20.492 9.020 C 20.838 10.013,20.977 10.865,20.977 12.000 C 20.977 13.493,20.720 14.621,20.080 15.940 C 19.375 17.394,18.311 18.607,16.927 19.532 C 16.138 20.060,14.876 20.588,13.908 20.797 C 11.266 21.366,8.479 20.708,6.370 19.019 C 4.857 17.807,3.722 16.029,3.267 14.160 C 3.081 13.397,3.023 12.888,3.023 12.000 C 3.023 10.507,3.280 9.379,3.920 8.060 C 4.971 5.891,6.877 4.221,9.160 3.466 C 9.865 3.233,10.432 3.118,11.340 3.024 C 11.662 2.991,12.911 3.039,13.320 3.101 M8.626 8.045 C 8.420 8.154,8.146 8.433,8.038 8.644 C 7.924 8.868,7.924 9.132,8.040 9.363 C 8.101 9.486,8.811 10.224,10.353 11.770 L 12.578 14.000 10.696 14.000 C 8.689 14.000,8.589 14.008,8.322 14.199 C 8.101 14.356,8.022 14.567,8.022 15.000 C 8.022 15.504,8.125 15.715,8.460 15.894 C 8.618 15.979,8.651 15.980,11.780 16.007 C 13.518 16.021,14.999 16.035,15.071 16.037 C 15.223 16.040,15.669 15.848,15.768 15.735 C 15.879 15.610,16.041 15.208,16.037 15.069 C 16.035 14.998,16.021 13.518,16.007 11.780 L 15.980 8.620 15.891 8.453 C 15.689 8.076,15.138 7.902,14.629 8.055 C 14.378 8.131,14.215 8.256,14.109 8.453 C 14.021 8.618,14.020 8.640,14.008 10.597 L 13.996 12.575 11.768 10.352 C 10.294 8.881,9.483 8.100,9.372 8.044 C 9.152 7.934,8.835 7.935,8.626 8.045 " stroke="none" fill-rule="evenodd" fill="black"></path></svg>