<svg width="24" height="24" viewBox="0 0 24 24" fill="none" xmlns="http://www.w3.org/2000/svg"><path d="M11.280 1.023 C 11.203 1.032,10.951 1.059,10.720 1.083 C 9.527 1.210,8.337 1.558,7.180 2.120 C 6.045 2.671,5.193 3.285,4.238 4.239 C 3.277 5.198,2.643 6.080,2.097 7.220 C 0.301 10.968,0.728 15.286,3.226 18.633 C 3.701 19.269,4.753 20.316,5.400 20.797 C 9.364 23.745,14.666 23.734,18.637 20.770 C 19.246 20.316,20.316 19.246,20.770 18.637 C 23.744 14.652,23.744 9.348,20.770 5.363 C 20.316 4.755,19.247 3.686,18.640 3.235 C 17.045 2.049,15.365 1.360,13.423 1.096 C 13.000 1.038,11.574 0.990,11.280 1.023 M13.320 3.101 C 15.883 3.488,18.124 4.931,19.560 7.120 C 19.863 7.583,20.303 8.479,20.492 9.020 C 20.838 10.013,20.977 10.865,20.977 12.000 C 20.977 13.493,20.720 14.621,20.080 15.940 C 19.375 17.394,18.311 18.607,16.927 19.532 C 16.138 20.060,14.876 20.588,13.908 20.797 C 11.266 21.366,8.479 20.708,6.370 19.019 C 4.857 17.807,3.722 16.029,3.267 14.160 C 3.081 13.397,3.023 12.888,3.023 12.000 C 3.023 10.507,3.280 9.379,3.920 8.060 C 4.971 5.891,6.877 4.221,9.160 3.466 C 9.865 3.233,10.432 3.118,11.340 3.024 C 11.662 2.991,12.911 3.039,13.320 3.101 M11.626 7.045 C 11.257 7.239,10.951 7.673,10.951 8.000 C 10.951 8.333,11.056 8.467,12.353 9.770 L 13.577 11.000 10.695 11.000 C 7.615 11.000,7.600 11.001,7.322 11.199 C 7.100 11.357,7.020 11.568,7.020 12.000 C 7.020 12.331,7.033 12.403,7.120 12.558 C 7.230 12.755,7.414 12.898,7.635 12.959 C 7.726 12.985,8.860 13.000,10.679 13.000 L 13.577 13.000 12.353 14.230 C 11.548 15.039,11.099 15.521,11.040 15.637 C 10.863 15.989,10.952 16.354,11.299 16.701 C 11.646 17.048,12.011 17.137,12.363 16.960 C 12.484 16.899,13.182 16.234,14.561 14.866 C 15.673 13.763,16.634 12.826,16.696 12.784 C 16.850 12.682,17.049 12.239,17.049 12.000 C 17.049 11.745,16.851 11.321,16.676 11.201 C 16.601 11.150,15.640 10.213,14.540 9.118 C 13.232 7.817,12.482 7.099,12.372 7.044 C 12.152 6.934,11.835 6.935,11.626 7.045 " stroke="none" fill-rule="evenodd" fill="black"></path></svg>