<svg width="24" height="24" viewBox="0 0 24 24" fill="none" xmlns="http://www.w3.org/2000/svg"><path d="M10.880 1.060 C 9.942 1.164,9.083 1.360,8.791 1.536 C 8.411 1.765,8.311 2.143,8.482 2.698 C 8.614 3.125,8.907 3.359,9.310 3.360 C 9.382 3.360,9.627 3.316,9.854 3.262 C 10.646 3.075,11.124 3.022,12.000 3.022 C 13.486 3.022,14.665 3.293,15.980 3.939 C 17.780 4.823,19.194 6.245,20.079 8.060 C 20.719 9.372,20.977 10.504,20.977 12.000 C 20.977 13.496,20.719 14.628,20.079 15.940 C 19.193 17.758,17.790 19.169,15.980 20.062 C 12.845 21.609,9.156 21.216,6.399 19.042 C 5.730 18.514,4.978 17.690,4.462 16.920 C 3.976 16.196,3.461 14.992,3.247 14.080 C 3.070 13.327,3.022 12.890,3.022 12.020 C 3.021 11.117,3.073 10.650,3.266 9.844 C 3.442 9.105,3.345 8.796,2.862 8.558 C 2.503 8.381,2.125 8.351,1.862 8.479 C 1.532 8.639,1.411 8.889,1.225 9.800 C 1.044 10.685,0.989 11.323,1.013 12.260 C 1.045 13.485,1.194 14.331,1.587 15.520 C 2.133 17.168,3.055 18.625,4.349 19.884 C 5.233 20.743,6.059 21.328,7.140 21.859 C 9.890 23.211,12.967 23.366,15.867 22.299 C 16.376 22.112,17.362 21.626,17.820 21.338 C 19.169 20.488,20.488 19.169,21.338 17.820 C 21.626 17.362,22.112 16.376,22.299 15.867 C 23.231 13.335,23.231 10.665,22.299 8.133 C 22.112 7.624,21.626 6.638,21.338 6.180 C 20.409 4.705,19.029 3.367,17.546 2.501 C 15.571 1.347,13.102 0.814,10.880 1.060 M4.626 4.045 C 4.420 4.154,4.146 4.433,4.038 4.644 C 3.924 4.867,3.924 5.132,4.039 5.363 C 4.103 5.489,5.338 6.752,8.354 9.770 L 12.579 14.000 10.696 14.000 C 8.689 14.000,8.589 14.008,8.322 14.199 C 8.139 14.329,8.030 14.573,8.009 14.900 C 7.978 15.381,8.119 15.699,8.442 15.880 L 8.620 15.980 11.780 16.007 C 13.518 16.021,14.999 16.035,15.071 16.037 C 15.223 16.040,15.669 15.848,15.768 15.735 C 15.878 15.610,16.041 15.208,16.037 15.069 C 16.035 14.998,16.022 13.518,16.007 11.780 L 15.980 8.620 15.889 8.450 C 15.724 8.140,15.329 7.970,14.874 8.011 C 14.439 8.051,14.141 8.274,14.041 8.635 C 14.016 8.723,14.000 9.530,14.000 10.680 L 14.000 12.579 9.770 8.354 C 6.885 5.471,5.486 4.101,5.372 4.044 C 5.152 3.934,4.835 3.935,4.626 4.045 " stroke="none" fill-rule="evenodd" fill="black"></path></svg>