<svg width="24" height="24" viewBox="0 0 24 24" fill="none" xmlns="http://www.w3.org/2000/svg"><path d="M6.530 3.085 C 6.392 3.152,6.248 3.254,6.210 3.312 C 6.171 3.370,5.237 4.327,4.134 5.439 C 2.766 6.818,2.101 7.516,2.040 7.637 C 1.863 7.989,1.952 8.354,2.299 8.701 C 2.646 9.048,3.011 9.137,3.363 8.960 C 3.479 8.901,3.961 8.452,4.770 7.647 L 6.000 6.423 6.000 13.321 C 6.000 17.819,6.014 20.270,6.041 20.365 C 6.148 20.750,6.437 20.962,6.896 20.991 C 7.381 21.022,7.699 20.882,7.880 20.558 L 7.980 20.380 7.991 13.402 L 8.001 6.424 9.231 7.647 C 10.039 8.452,10.521 8.901,10.637 8.960 C 10.989 9.137,11.354 9.048,11.701 8.701 C 12.048 8.354,12.137 7.989,11.960 7.637 C 11.899 7.516,11.234 6.818,9.866 5.439 C 8.763 4.327,7.829 3.370,7.790 3.312 C 7.752 3.254,7.604 3.151,7.460 3.083 C 7.113 2.919,6.873 2.920,6.530 3.085 M16.530 8.085 C 16.392 8.152,16.248 8.254,16.210 8.312 C 16.171 8.370,15.237 9.327,14.134 10.439 C 12.766 11.818,12.101 12.516,12.040 12.637 C 11.863 12.989,11.952 13.354,12.299 13.701 C 12.646 14.048,13.011 14.137,13.363 13.960 C 13.479 13.901,13.961 13.452,14.770 12.647 L 16.000 11.423 16.000 15.821 C 16.000 18.645,16.015 20.272,16.041 20.365 C 16.148 20.750,16.437 20.962,16.896 20.991 C 17.381 21.022,17.699 20.882,17.880 20.558 L 17.980 20.380 17.991 15.902 L 18.002 11.425 19.231 12.648 C 20.039 13.452,20.521 13.901,20.637 13.960 C 20.989 14.137,21.354 14.048,21.701 13.701 C 22.048 13.354,22.137 12.989,21.960 12.637 C 21.899 12.516,21.234 11.818,19.866 10.439 C 18.763 9.327,17.829 8.370,17.790 8.312 C 17.752 8.254,17.604 8.151,17.460 8.083 C 17.113 7.919,16.873 7.920,16.530 8.085 " stroke="none" fill-rule="evenodd" fill="black"></path></svg>