<svg width="24" height="24" viewBox="0 0 24 24" fill="none" xmlns="http://www.w3.org/2000/svg"><path d="M11.530 4.085 C 11.392 4.152,11.248 4.254,11.210 4.312 C 11.171 4.370,9.562 6.003,7.634 7.939 C 5.160 10.423,4.102 11.512,4.039 11.637 C 3.863 11.990,3.952 12.354,4.299 12.701 C 4.646 13.048,5.010 13.137,5.363 12.961 C 5.487 12.898,6.356 12.058,8.270 10.147 L 11.000 7.421 11.000 13.321 C 11.000 17.149,11.015 19.271,11.041 19.365 C 11.148 19.750,11.437 19.962,11.896 19.991 C 12.381 20.022,12.699 19.882,12.880 19.558 L 12.980 19.380 12.991 13.401 L 13.001 7.423 15.731 10.147 C 17.645 12.058,18.513 12.898,18.637 12.961 C 18.990 13.137,19.354 13.048,19.701 12.701 C 20.048 12.354,20.137 11.990,19.961 11.637 C 19.898 11.512,18.840 10.423,16.366 7.939 C 14.438 6.003,12.829 4.370,12.790 4.312 C 12.752 4.254,12.604 4.151,12.460 4.083 C 12.113 3.919,11.873 3.920,11.530 4.085 " stroke="none" fill-rule="evenodd" fill="black"></path></svg>