<svg width="24" height="24" viewBox="0 0 24 24" fill="none" xmlns="http://www.w3.org/2000/svg"><path d="M13.626 5.045 C 13.420 5.154,13.146 5.433,13.038 5.644 C 12.924 5.868,12.924 6.132,13.040 6.363 C 13.101 6.486,13.811 7.224,15.353 8.770 L 17.578 11.000 10.696 11.000 C 3.306 11.000,3.612 10.992,3.322 11.199 C 3.100 11.357,3.020 11.568,3.020 12.000 C 3.020 12.331,3.033 12.403,3.120 12.558 C 3.230 12.755,3.414 12.898,3.635 12.959 C 3.730 12.986,6.181 13.000,10.679 13.000 L 17.578 13.000 15.353 15.230 C 13.811 16.776,13.101 17.514,13.040 17.637 C 12.863 17.990,12.952 18.354,13.299 18.701 C 13.646 19.048,14.010 19.137,14.363 18.960 C 14.487 18.898,15.445 17.971,17.561 15.866 C 19.223 14.213,20.633 12.826,20.696 12.784 C 20.850 12.682,21.049 12.239,21.049 12.000 C 21.049 11.744,20.851 11.321,20.676 11.201 C 20.601 11.150,19.190 9.763,17.540 8.118 C 15.527 6.112,14.485 5.100,14.372 5.044 C 14.152 4.934,13.835 4.935,13.626 5.045 " stroke="none" fill-rule="evenodd" fill="black"></path></svg>