<svg width="24" height="24" viewBox="0 0 24 24" fill="none" xmlns="http://www.w3.org/2000/svg"><path d="M11.280 1.023 C 11.203 1.032,10.951 1.059,10.720 1.083 C 9.527 1.210,8.337 1.558,7.180 2.120 C 6.045 2.671,5.193 3.285,4.238 4.239 C 3.277 5.198,2.643 6.080,2.097 7.220 C 0.301 10.968,0.728 15.286,3.226 18.633 C 3.701 19.269,4.753 20.316,5.400 20.797 C 9.364 23.745,14.666 23.734,18.637 20.770 C 19.246 20.316,20.316 19.246,20.770 18.637 C 23.744 14.652,23.744 9.348,20.770 5.363 C 20.316 4.755,19.247 3.686,18.640 3.235 C 17.045 2.049,15.365 1.360,13.423 1.096 C 13.000 1.038,11.574 0.990,11.280 1.023 M13.320 3.101 C 15.883 3.488,18.124 4.931,19.560 7.120 C 19.863 7.583,20.303 8.479,20.492 9.020 C 20.838 10.013,20.977 10.865,20.977 12.000 C 20.977 13.493,20.720 14.621,20.080 15.940 C 19.375 17.394,18.311 18.607,16.927 19.532 C 16.138 20.060,14.876 20.588,13.908 20.797 C 11.266 21.366,8.479 20.708,6.370 19.019 C 4.857 17.807,3.722 16.029,3.267 14.160 C 3.081 13.397,3.023 12.888,3.023 12.000 C 3.023 10.507,3.280 9.379,3.920 8.060 C 4.971 5.891,6.877 4.221,9.160 3.466 C 9.865 3.233,10.432 3.118,11.340 3.024 C 11.662 2.991,12.911 3.039,13.320 3.101 M14.620 8.046 C 14.523 8.096,13.578 9.008,12.230 10.353 L 10.000 12.578 10.000 10.679 C 10.000 9.530,9.984 8.723,9.959 8.635 C 9.859 8.274,9.561 8.051,9.126 8.011 C 8.671 7.970,8.276 8.140,8.111 8.450 L 8.020 8.620 7.993 11.780 C 7.978 13.518,7.965 14.998,7.963 15.069 C 7.959 15.208,8.122 15.610,8.232 15.735 C 8.331 15.848,8.777 16.040,8.929 16.037 C 9.001 16.035,10.482 16.021,12.220 16.007 L 15.380 15.980 15.558 15.880 C 15.881 15.699,16.022 15.381,15.991 14.900 C 15.970 14.573,15.861 14.329,15.678 14.199 C 15.411 14.008,15.311 14.000,13.304 14.000 L 11.422 14.000 13.647 11.770 C 15.189 10.224,15.899 9.486,15.960 9.363 C 16.137 9.010,16.048 8.646,15.701 8.299 C 15.361 7.959,14.967 7.867,14.620 8.046 " stroke="none" fill-rule="evenodd" fill="black"></path></svg>