<svg width="24" height="24" viewBox="0 0 24 24" fill="none" xmlns="http://www.w3.org/2000/svg"><path d="M11.530 3.085 C 11.392 3.152,11.248 3.254,11.210 3.312 C 11.171 3.370,9.787 4.777,8.134 6.439 C 6.029 8.555,5.102 9.513,5.040 9.637 C 4.863 9.990,4.952 10.354,5.299 10.701 C 5.646 11.048,6.010 11.137,6.363 10.960 C 6.486 10.899,7.224 10.189,8.770 8.647 L 11.000 6.422 11.000 13.321 C 11.000 17.819,11.014 20.270,11.041 20.365 C 11.148 20.750,11.437 20.962,11.896 20.991 C 12.381 21.022,12.699 20.882,12.880 20.558 L 12.980 20.380 12.991 13.401 L 13.001 6.423 15.231 8.647 C 16.776 10.189,17.514 10.899,17.637 10.960 C 17.990 11.137,18.354 11.048,18.701 10.701 C 19.048 10.354,19.137 9.990,18.960 9.637 C 18.898 9.513,17.971 8.555,15.866 6.439 C 14.213 4.777,12.829 3.370,12.790 3.312 C 12.752 3.254,12.604 3.151,12.460 3.083 C 12.113 2.919,11.873 2.920,11.530 3.085 " stroke="none" fill-rule="evenodd" fill="black"></path></svg>