<svg width="24" height="24" viewBox="0 0 24 24" fill="none" xmlns="http://www.w3.org/2000/svg"><path d="M11.280 1.026 C 9.300 1.209,7.814 1.677,6.303 2.595 C 4.894 3.450,3.555 4.769,2.661 6.180 C 2.377 6.629,1.893 7.614,1.701 8.133 C 0.382 11.710,0.943 15.573,3.226 18.633 C 3.686 19.248,4.752 20.314,5.367 20.774 C 8.272 22.942,11.946 23.567,15.360 22.474 C 17.840 21.681,20.036 19.955,21.375 17.746 C 21.778 17.082,21.807 16.769,21.499 16.410 C 21.313 16.193,20.855 15.960,20.613 15.960 C 20.423 15.960,20.189 16.042,20.067 16.152 C 20.025 16.189,19.804 16.501,19.577 16.844 C 19.062 17.621,18.513 18.259,17.919 18.774 C 15.476 20.886,12.223 21.539,9.150 20.533 C 8.513 20.324,7.578 19.871,7.040 19.511 C 5.157 18.249,3.791 16.312,3.267 14.160 C 3.081 13.397,3.023 12.888,3.023 12.000 C 3.023 10.507,3.280 9.379,3.920 8.060 C 4.799 6.247,6.247 4.799,8.060 3.920 C 9.380 3.279,10.510 3.022,12.000 3.024 C 13.508 3.025,14.648 3.284,15.943 3.920 C 17.436 4.654,18.612 5.696,19.547 7.115 C 19.759 7.437,19.970 7.742,20.016 7.794 C 20.351 8.168,20.985 8.098,21.447 7.636 C 21.814 7.270,21.798 6.951,21.375 6.254 C 19.752 3.578,16.956 1.684,13.860 1.164 C 13.081 1.033,11.890 0.969,11.280 1.026 M11.620 7.046 C 11.525 7.095,10.652 7.932,9.460 9.118 C 8.360 10.213,7.399 11.150,7.324 11.201 C 7.149 11.321,6.951 11.745,6.951 12.000 C 6.951 12.239,7.150 12.682,7.304 12.784 C 7.366 12.826,8.327 13.763,9.439 14.866 C 10.818 16.234,11.516 16.899,11.637 16.960 C 11.989 17.137,12.354 17.048,12.701 16.701 C 13.048 16.354,13.137 15.989,12.960 15.637 C 12.901 15.521,12.452 15.039,11.647 14.231 L 10.424 13.001 16.402 12.991 L 22.380 12.980 22.540 12.894 C 22.875 12.715,22.978 12.504,22.978 12.000 C 22.978 11.567,22.899 11.356,22.678 11.199 C 22.389 10.993,22.616 11.000,16.305 11.000 L 10.423 11.000 11.647 9.770 C 12.452 8.961,12.901 8.479,12.960 8.363 C 13.137 8.011,13.048 7.646,12.701 7.299 C 12.361 6.959,11.967 6.867,11.620 7.046 " stroke="none" fill-rule="evenodd" fill="black"></path></svg>