<svg width="24" height="24" viewBox="0 0 24 24" fill="none" xmlns="http://www.w3.org/2000/svg"><path d="M11.614 3.057 C 11.377 3.131,11.212 3.261,11.109 3.453 L 11.020 3.620 11.009 6.598 L 10.998 9.576 8.769 7.352 C 7.294 5.881,6.483 5.100,6.372 5.044 C 6.020 4.868,5.639 4.959,5.299 5.299 C 4.952 5.646,4.863 6.010,5.040 6.363 C 5.101 6.486,5.811 7.224,7.353 8.770 L 9.578 11.000 6.696 11.000 C 3.615 11.000,3.600 11.001,3.322 11.199 C 3.100 11.357,3.020 11.568,3.020 12.000 C 3.020 12.331,3.033 12.403,3.120 12.558 C 3.230 12.755,3.414 12.898,3.635 12.959 C 3.726 12.985,4.860 13.000,6.679 13.000 L 9.578 13.000 7.353 15.230 C 5.811 16.776,5.101 17.514,5.040 17.637 C 4.863 17.990,4.952 18.354,5.299 18.701 C 5.646 19.048,6.010 19.137,6.363 18.960 C 6.486 18.899,7.224 18.189,8.770 16.647 L 11.000 14.422 11.000 17.321 C 11.000 19.140,11.015 20.274,11.041 20.365 C 11.148 20.750,11.437 20.962,11.896 20.991 C 12.381 21.022,12.699 20.882,12.880 20.558 L 12.980 20.380 12.991 17.402 L 13.002 14.424 15.231 16.648 C 16.777 18.190,17.514 18.899,17.637 18.960 C 17.990 19.137,18.354 19.048,18.701 18.701 C 19.048 18.354,19.137 17.990,18.960 17.637 C 18.899 17.514,18.189 16.776,16.647 15.230 L 14.422 13.000 17.321 13.000 C 19.140 13.000,20.274 12.985,20.365 12.959 C 20.586 12.898,20.770 12.755,20.880 12.558 C 20.967 12.402,20.980 12.332,20.979 12.000 C 20.978 11.567,20.898 11.355,20.678 11.199 C 20.400 11.001,20.385 11.000,17.304 11.000 L 14.422 11.000 16.647 8.770 C 18.189 7.224,18.899 6.486,18.960 6.363 C 19.137 6.010,19.048 5.646,18.701 5.299 C 18.361 4.959,17.980 4.868,17.628 5.044 C 17.517 5.100,16.706 5.881,15.231 7.352 L 13.002 9.576 12.991 6.598 L 12.980 3.620 12.891 3.453 C 12.842 3.362,12.746 3.247,12.678 3.199 C 12.414 3.010,11.957 2.950,11.614 3.057 " stroke="none" fill-rule="evenodd" fill="black"></path></svg>