<svg width="24" height="24" viewBox="0 0 24 24" fill="none" xmlns="http://www.w3.org/2000/svg"><path d="M11.614 1.057 C 11.377 1.131,11.212 1.261,11.109 1.453 L 11.020 1.620 11.009 5.599 L 10.998 9.577 8.229 6.811 C 6.104 4.687,5.418 4.025,5.280 3.963 C 4.906 3.794,4.540 3.899,4.187 4.277 C 3.962 4.517,3.880 4.693,3.881 4.929 C 3.883 5.299,3.882 5.298,6.811 8.230 L 9.579 11.000 5.696 11.000 C 1.539 11.000,1.605 10.997,1.322 11.199 C 1.100 11.357,1.020 11.568,1.020 12.000 C 1.020 12.331,1.033 12.403,1.120 12.558 C 1.230 12.755,1.414 12.898,1.635 12.959 C 1.728 12.985,3.191 13.000,5.679 13.000 L 9.579 13.000 6.811 15.770 C 4.687 17.896,4.025 18.582,3.963 18.720 C 3.792 19.099,3.887 19.444,4.261 19.797 C 4.513 20.036,4.688 20.120,4.929 20.119 C 5.299 20.117,5.298 20.118,8.230 17.189 L 11.000 14.421 11.000 18.321 C 11.000 20.809,11.015 22.272,11.041 22.365 C 11.148 22.750,11.437 22.962,11.896 22.991 C 12.381 23.022,12.699 22.882,12.880 22.558 L 12.980 22.380 12.991 18.402 L 13.002 14.423 15.771 17.190 C 18.702 20.118,18.701 20.117,19.071 20.119 C 19.312 20.120,19.487 20.036,19.739 19.797 C 20.113 19.444,20.208 19.099,20.037 18.720 C 19.975 18.582,19.313 17.896,17.189 15.770 L 14.421 13.000 18.321 13.000 C 20.809 13.000,22.272 12.985,22.365 12.959 C 22.586 12.898,22.770 12.755,22.880 12.558 C 22.967 12.402,22.980 12.332,22.979 12.000 C 22.978 11.567,22.898 11.355,22.678 11.199 C 22.395 10.997,22.461 11.000,18.304 11.000 L 14.421 11.000 17.189 8.230 C 20.118 5.298,20.117 5.299,20.119 4.929 C 20.120 4.693,20.038 4.517,19.813 4.277 C 19.460 3.899,19.094 3.794,18.720 3.963 C 18.582 4.025,17.896 4.687,15.771 6.810 L 13.002 9.577 12.991 5.598 L 12.980 1.620 12.891 1.453 C 12.842 1.362,12.746 1.247,12.678 1.199 C 12.414 1.010,11.957 0.950,11.614 1.057 " stroke="none" fill-rule="evenodd" fill="black"></path></svg>