<svg width="24" height="24" viewBox="0 0 24 24" fill="none" xmlns="http://www.w3.org/2000/svg"><path d="M11.280 1.024 C 11.203 1.033,10.960 1.059,10.740 1.083 C 7.431 1.437,4.350 3.411,2.595 6.303 C 1.851 7.528,1.342 8.939,1.114 10.406 C 0.994 11.175,0.984 12.724,1.093 13.460 C 1.403 15.539,2.176 17.330,3.452 18.920 C 3.897 19.474,4.790 20.338,5.364 20.769 C 7.929 22.695,11.121 23.411,14.253 22.762 C 15.704 22.461,17.125 21.845,18.320 20.998 C 18.955 20.548,19.120 20.337,19.120 19.972 C 19.120 19.727,18.984 19.444,18.754 19.207 C 18.481 18.927,18.226 18.838,17.929 18.918 C 17.838 18.942,17.488 19.146,17.151 19.371 C 16.441 19.844,15.999 20.083,15.365 20.338 C 13.875 20.937,12.202 21.137,10.665 20.899 C 8.766 20.606,6.997 19.713,5.662 18.375 C 4.262 16.971,3.393 15.233,3.093 13.240 C 2.998 12.610,2.998 11.386,3.094 10.760 C 3.536 7.847,5.214 5.444,7.761 4.073 C 8.637 3.602,9.542 3.298,10.620 3.114 C 11.312 2.997,12.588 2.987,13.280 3.095 C 15.463 3.436,17.349 4.466,18.781 6.100 C 19.919 7.399,20.647 8.991,20.903 10.739 C 20.985 11.301,21.025 12.981,20.965 13.340 C 20.896 13.748,20.714 14.092,20.403 14.404 C 20.002 14.807,19.547 15.000,19.000 15.000 C 18.317 15.000,17.695 14.654,17.312 14.063 C 17.011 13.597,17.025 13.756,17.001 10.520 L 16.980 7.620 16.880 7.442 C 16.816 7.328,16.709 7.219,16.583 7.142 C 16.399 7.028,16.361 7.020,16.000 7.020 C 15.639 7.020,15.601 7.028,15.417 7.142 C 15.185 7.285,15.047 7.507,15.013 7.793 L 14.990 7.992 14.725 7.821 C 13.995 7.351,13.346 7.125,12.470 7.036 C 11.742 6.962,10.898 7.070,10.248 7.320 C 9.067 7.774,8.072 8.675,7.526 9.785 C 7.158 10.533,7.020 11.136,7.020 12.000 C 7.020 12.670,7.078 13.044,7.268 13.600 C 7.846 15.291,9.253 16.525,11.040 16.907 C 11.511 17.008,12.489 17.008,12.960 16.907 C 13.935 16.698,14.795 16.244,15.481 15.575 L 15.741 15.321 15.921 15.546 C 16.769 16.615,18.282 17.179,19.656 16.940 C 21.364 16.642,22.645 15.353,22.944 13.630 C 23.038 13.090,23.002 11.164,22.884 10.400 C 22.323 6.770,20.103 3.741,16.820 2.123 C 15.749 1.595,14.663 1.268,13.419 1.099 C 12.992 1.040,11.561 0.990,11.280 1.024 M12.861 9.129 C 13.804 9.405,14.584 10.183,14.875 11.139 C 14.958 11.412,14.973 11.542,14.973 12.000 C 14.973 12.458,14.958 12.588,14.875 12.861 C 14.588 13.803,13.845 14.555,12.887 14.872 C 12.620 14.961,12.508 14.974,12.020 14.977 C 11.539 14.980,11.418 14.967,11.160 14.886 C 10.180 14.580,9.418 13.822,9.125 12.861 C 9.042 12.588,9.027 12.458,9.027 12.000 C 9.027 11.542,9.042 11.412,9.125 11.139 C 9.456 10.054,10.371 9.245,11.499 9.040 C 11.832 8.980,12.500 9.023,12.861 9.129 " stroke="none" fill-rule="evenodd" fill="black"></path></svg>