<svg width="24" height="24" viewBox="0 0 24 24" fill="none" xmlns="http://www.w3.org/2000/svg"><path d="M6.480 2.200 C 3.539 2.544,1.855 4.839,2.202 8.032 C 2.325 9.162,2.778 10.680,3.308 11.736 L 3.447 12.011 3.266 12.396 C 1.988 15.113,1.812 17.781,2.795 19.516 C 3.893 21.454,6.062 22.246,8.820 21.718 C 9.653 21.558,10.693 21.214,11.588 20.803 L 12.035 20.597 12.280 20.720 C 13.183 21.176,14.527 21.610,15.580 21.786 C 16.189 21.888,17.468 21.888,17.979 21.786 C 20.044 21.373,21.380 20.043,21.780 18.000 C 21.871 17.536,21.902 16.561,21.843 16.040 C 21.710 14.863,21.337 13.592,20.774 12.396 L 20.593 12.011 20.712 11.775 C 21.202 10.805,21.647 9.409,21.806 8.340 C 21.877 7.869,21.877 6.554,21.806 6.160 C 21.591 4.956,21.095 4.042,20.267 3.326 C 19.648 2.791,18.952 2.463,18.040 2.276 C 17.448 2.155,16.356 2.145,15.640 2.255 C 14.647 2.408,13.428 2.785,12.448 3.244 L 12.025 3.442 11.503 3.205 C 10.478 2.740,9.394 2.407,8.428 2.261 C 7.927 2.185,6.885 2.152,6.480 2.200 M7.968 4.220 C 8.482 4.287,9.065 4.424,9.554 4.590 L 9.889 4.704 9.334 5.119 C 8.342 5.863,7.290 6.809,6.489 7.680 C 5.988 8.224,5.841 8.470,5.841 8.760 C 5.841 9.276,6.563 9.876,7.048 9.764 C 7.294 9.707,7.436 9.591,8.040 8.956 C 9.204 7.731,10.537 6.626,11.709 5.913 L 12.016 5.726 12.198 5.831 C 13.486 6.572,15.204 8.032,16.406 9.406 C 17.300 10.428,18.362 11.943,18.454 12.327 C 18.468 12.386,18.523 12.485,18.575 12.547 C 18.860 12.887,19.436 14.293,19.658 15.193 C 19.820 15.849,19.859 16.157,19.858 16.800 C 19.858 17.571,19.790 17.919,19.534 18.440 C 19.201 19.121,18.653 19.553,17.858 19.763 C 16.989 19.992,15.671 19.869,14.470 19.446 L 14.159 19.336 14.689 18.938 C 15.538 18.299,16.206 17.715,17.040 16.880 C 17.962 15.958,18.128 15.738,18.151 15.409 C 18.171 15.112,18.091 14.924,17.839 14.679 C 17.494 14.343,17.118 14.236,16.776 14.379 C 16.689 14.415,16.298 14.779,15.748 15.334 C 14.460 16.634,13.440 17.464,12.249 18.182 L 12.023 18.318 11.842 18.212 C 10.525 17.447,8.837 16.011,7.633 14.634 C 6.723 13.591,5.720 12.158,5.563 11.673 C 5.537 11.592,5.488 11.503,5.454 11.475 C 5.304 11.351,4.817 10.252,4.562 9.463 C 3.921 7.482,4.064 5.854,4.959 4.959 C 5.618 4.300,6.652 4.046,7.968 4.220 M17.835 4.280 C 18.617 4.470,19.201 4.925,19.536 5.604 C 19.796 6.131,19.856 6.436,19.855 7.240 C 19.855 7.748,19.835 8.008,19.768 8.367 C 19.689 8.789,19.439 9.698,19.365 9.829 C 19.346 9.864,19.205 9.708,18.938 9.352 C 17.738 7.757,16.243 6.262,14.684 5.102 L 14.150 4.704 14.485 4.590 C 14.934 4.437,15.568 4.285,16.036 4.218 C 16.555 4.143,17.393 4.172,17.835 4.280 M11.477 10.073 C 10.806 10.249,10.238 10.823,10.060 11.508 C 9.941 11.962,10.003 12.492,10.225 12.930 C 10.361 13.199,10.801 13.639,11.070 13.775 C 11.659 14.073,12.341 14.073,12.930 13.775 C 13.196 13.640,13.638 13.200,13.771 12.937 C 14.161 12.168,14.043 11.275,13.471 10.659 C 13.074 10.232,12.563 10.005,12.000 10.005 C 11.857 10.005,11.622 10.036,11.477 10.073 M5.161 14.760 C 6.311 16.293,7.773 17.750,9.352 18.938 L 9.881 19.336 9.631 19.428 C 8.802 19.734,7.827 19.900,7.040 19.868 C 6.096 19.831,5.479 19.601,4.979 19.101 C 4.074 18.196,3.918 16.574,4.546 14.592 C 4.661 14.230,4.695 14.159,4.736 14.205 C 4.764 14.235,4.955 14.485,5.161 14.760 " stroke="none" fill-rule="evenodd" fill="black"></path></svg>