<svg width="24" height="24" viewBox="0 0 24 24" fill="none" xmlns="http://www.w3.org/2000/svg"><path d="M9.476 1.058 C 7.719 1.311,6.189 2.640,5.701 4.337 C 5.494 5.057,5.500 4.865,5.500 11.140 C 5.500 17.364,5.497 17.239,5.686 18.020 C 6.320 20.642,8.494 22.591,11.172 22.939 C 13.171 23.198,15.153 22.523,16.578 21.098 C 17.575 20.102,18.149 18.981,18.431 17.481 C 18.487 17.180,18.497 16.446,18.509 11.242 C 18.519 7.125,18.511 5.259,18.480 5.062 C 18.429 4.733,18.313 4.532,18.093 4.395 C 17.956 4.310,17.894 4.300,17.497 4.300 C 17.084 4.300,17.043 4.307,16.892 4.407 C 16.677 4.550,16.574 4.727,16.523 5.041 C 16.495 5.213,16.481 7.247,16.480 11.125 C 16.480 16.188,16.472 16.996,16.418 17.303 C 16.095 19.159,14.588 20.635,12.705 20.940 C 10.311 21.329,7.997 19.686,7.582 17.303 C 7.528 16.996,7.520 16.188,7.520 11.117 C 7.520 7.083,7.533 5.219,7.563 5.072 C 7.587 4.955,7.688 4.691,7.787 4.484 C 7.936 4.175,8.023 4.053,8.275 3.804 C 8.444 3.637,8.682 3.441,8.804 3.370 C 9.576 2.915,10.543 2.884,11.360 3.286 C 11.815 3.510,12.311 3.998,12.532 4.440 C 12.840 5.054,12.816 4.533,12.831 10.800 C 12.841 14.768,12.832 16.479,12.801 16.622 C 12.630 17.413,11.562 17.508,11.226 16.762 C 11.192 16.688,11.175 15.259,11.160 11.460 L 11.140 6.260 11.032 6.076 C 10.857 5.779,10.608 5.666,10.136 5.669 C 9.645 5.672,9.346 5.864,9.223 6.257 C 9.164 6.443,9.159 6.968,9.169 11.721 L 9.180 16.980 9.289 17.300 C 9.444 17.754,9.654 18.090,10.002 18.438 C 10.351 18.788,10.689 18.998,11.140 19.149 C 11.423 19.243,11.522 19.255,12.000 19.255 C 12.478 19.255,12.577 19.243,12.860 19.149 C 13.313 18.998,13.650 18.787,13.998 18.436 C 14.348 18.084,14.558 17.750,14.711 17.300 L 14.820 16.980 14.820 11.060 C 14.820 4.651,14.829 4.921,14.599 4.231 C 14.351 3.489,14.000 2.918,13.461 2.380 C 12.802 1.724,11.997 1.286,11.110 1.103 C 10.668 1.012,9.936 0.992,9.476 1.058 " stroke="none" fill-rule="evenodd" fill="black"></path></svg>