<svg width="24" height="24" viewBox="0 0 24 24" fill="none" xmlns="http://www.w3.org/2000/svg"><path d="M9.060 1.041 C 8.823 1.088,8.394 1.258,8.195 1.383 C 7.617 1.746,7.413 2.033,6.955 3.130 C 6.763 3.591,6.577 3.999,6.543 4.037 C 6.509 4.074,6.137 4.246,5.717 4.419 C 4.701 4.837,4.438 5.001,4.052 5.461 C 3.860 5.688,3.634 6.155,3.559 6.480 C 3.489 6.776,3.497 7.325,3.575 7.622 C 3.609 7.755,3.777 8.196,3.946 8.602 C 4.154 9.100,4.255 9.392,4.255 9.500 C 4.255 9.610,4.163 9.881,3.962 10.360 C 3.614 11.189,3.533 11.441,3.497 11.801 C 3.435 12.435,3.748 13.265,4.233 13.750 C 4.553 14.070,4.784 14.199,5.760 14.599 C 6.145 14.757,6.491 14.914,6.528 14.948 C 6.566 14.982,6.651 15.141,6.718 15.301 L 6.840 15.593 6.416 18.767 C 5.954 22.232,5.948 22.317,6.138 22.605 C 6.330 22.894,6.907 23.076,7.264 22.959 C 7.350 22.931,8.443 22.297,9.693 21.550 C 11.054 20.737,11.993 20.200,12.033 20.211 C 12.070 20.221,13.122 20.843,14.372 21.593 C 15.621 22.344,16.710 22.976,16.792 22.998 C 17.150 23.098,17.431 23.012,17.690 22.725 C 17.882 22.513,17.960 22.356,17.985 22.128 C 17.999 22.006,17.859 20.828,17.584 18.766 L 17.161 15.592 17.284 15.296 C 17.360 15.113,17.448 14.972,17.514 14.926 C 17.572 14.886,17.917 14.731,18.280 14.582 C 19.168 14.219,19.371 14.106,19.700 13.794 C 20.214 13.307,20.484 12.692,20.487 12.000 C 20.490 11.513,20.433 11.306,20.053 10.396 C 19.842 9.893,19.744 9.609,19.744 9.500 C 19.744 9.392,19.839 9.115,20.038 8.640 C 20.386 7.811,20.467 7.559,20.503 7.199 C 20.564 6.578,20.253 5.739,19.789 5.274 C 19.458 4.942,19.241 4.818,18.313 4.434 C 17.888 4.258,17.508 4.083,17.468 4.044 C 17.429 4.006,17.244 3.607,17.057 3.157 C 16.700 2.298,16.546 2.024,16.258 1.736 C 15.709 1.187,14.821 0.905,14.059 1.037 C 13.897 1.065,13.440 1.225,12.953 1.423 C 12.485 1.613,12.066 1.760,11.990 1.760 C 11.914 1.760,11.524 1.622,11.078 1.436 C 10.650 1.259,10.183 1.088,10.040 1.057 C 9.759 0.997,9.316 0.989,9.060 1.041 M10.401 3.320 C 11.315 3.700,11.555 3.769,11.980 3.772 C 12.396 3.775,12.618 3.719,13.320 3.431 C 14.318 3.022,14.422 2.988,14.574 3.016 C 14.830 3.064,14.889 3.151,15.239 4.000 C 15.837 5.448,16.034 5.651,17.400 6.220 C 18.327 6.606,18.346 6.616,18.419 6.759 C 18.530 6.973,18.494 7.138,18.157 7.956 C 17.799 8.828,17.721 9.098,17.721 9.480 C 17.721 9.887,17.809 10.201,18.157 11.044 C 18.494 11.863,18.530 12.027,18.419 12.242 C 18.348 12.380,18.245 12.436,17.500 12.740 C 16.207 13.270,15.883 13.534,15.506 14.367 C 15.413 14.572,15.308 14.785,15.273 14.840 C 15.238 14.895,15.161 15.095,15.102 15.284 C 15.043 15.473,14.959 15.686,14.916 15.756 C 14.835 15.890,14.632 16.000,14.465 16.000 C 14.412 16.000,14.044 15.866,13.647 15.702 C 12.582 15.261,12.577 15.260,12.000 15.260 C 11.423 15.260,11.418 15.261,10.353 15.702 C 9.956 15.866,9.588 16.000,9.535 16.000 C 9.368 16.000,9.165 15.890,9.084 15.756 C 9.041 15.686,8.957 15.473,8.897 15.284 C 8.837 15.095,8.761 14.899,8.728 14.848 C 8.695 14.798,8.591 14.585,8.497 14.375 C 8.295 13.928,8.063 13.612,7.765 13.377 C 7.511 13.177,7.255 13.049,6.499 12.739 C 5.752 12.434,5.652 12.380,5.581 12.242 C 5.470 12.027,5.506 11.863,5.843 11.044 C 6.427 9.629,6.427 9.371,5.843 7.956 C 5.506 7.137,5.470 6.973,5.581 6.758 C 5.652 6.620,5.752 6.566,6.499 6.261 C 7.280 5.941,7.517 5.820,7.792 5.597 C 8.144 5.312,8.375 4.936,8.735 4.059 C 8.907 3.642,9.074 3.258,9.107 3.207 C 9.175 3.100,9.371 3.004,9.525 3.002 C 9.583 3.001,9.977 3.144,10.401 3.320 M12.916 17.563 C 13.347 17.740,13.817 17.913,13.960 17.947 C 14.305 18.028,14.896 18.001,15.210 17.888 C 15.344 17.841,15.440 17.824,15.440 17.848 C 15.440 17.871,15.504 18.366,15.582 18.949 C 15.661 19.532,15.716 20.017,15.705 20.028 C 15.694 20.039,15.036 19.658,14.243 19.182 C 12.450 18.106,12.442 18.102,12.000 18.102 C 11.558 18.102,11.550 18.106,9.757 19.182 C 8.964 19.658,8.306 20.039,8.295 20.028 C 8.284 20.017,8.339 19.532,8.418 18.949 C 8.496 18.366,8.560 17.871,8.560 17.848 C 8.560 17.824,8.656 17.841,8.790 17.888 C 9.104 18.001,9.695 18.028,10.040 17.946 C 10.183 17.912,10.651 17.740,11.080 17.564 C 11.513 17.386,11.921 17.242,11.996 17.242 C 12.078 17.241,12.446 17.369,12.916 17.563 " stroke="none" fill-rule="evenodd" fill="black"></path></svg>