<svg width="24" height="24" viewBox="0 0 24 24" fill="none" xmlns="http://www.w3.org/2000/svg"><path d="M11.340 1.025 C 10.097 1.155,9.265 1.386,8.260 1.880 C 6.008 2.987,4.384 4.984,3.763 7.410 C 3.420 8.754,3.420 10.246,3.763 11.590 C 4.118 12.977,4.825 14.274,5.766 15.267 L 6.000 15.513 6.000 18.867 C 6.000 20.990,6.015 22.273,6.041 22.365 C 6.102 22.586,6.245 22.770,6.442 22.880 C 6.590 22.963,6.673 22.980,6.940 22.980 L 7.260 22.980 9.630 22.030 L 12.000 21.081 14.353 22.021 C 15.648 22.538,16.807 22.982,16.930 23.008 C 17.362 23.099,17.738 22.862,17.914 22.388 C 17.999 22.159,18.000 22.135,18.000 18.839 L 18.000 15.521 18.317 15.176 C 20.278 13.040,20.992 9.871,20.143 7.072 C 19.642 5.422,18.744 4.072,17.397 2.942 C 16.771 2.417,15.893 1.899,15.096 1.584 C 14.617 1.395,13.804 1.178,13.280 1.100 C 12.869 1.038,11.657 0.991,11.340 1.025 M13.073 3.099 C 15.462 3.519,17.351 5.125,18.153 7.420 C 18.591 8.672,18.591 10.328,18.153 11.580 C 17.932 12.213,17.583 12.875,17.204 13.380 C 16.948 13.721,16.515 14.200,16.462 14.200 C 16.412 14.200,16.193 14.391,16.137 14.484 C 16.087 14.565,15.675 14.873,15.380 15.048 C 14.556 15.539,13.761 15.816,12.828 15.938 C 11.358 16.130,9.930 15.828,8.620 15.048 C 8.325 14.873,7.913 14.565,7.863 14.484 C 7.807 14.391,7.588 14.200,7.538 14.200 C 7.486 14.200,7.053 13.722,6.796 13.380 C 6.413 12.870,6.073 12.226,5.847 11.580 C 5.409 10.329,5.409 8.671,5.847 7.420 C 6.721 4.923,8.886 3.245,11.520 3.024 C 11.830 2.998,12.751 3.042,13.073 3.099 M9.311 17.560 C 11.369 18.248,13.673 18.116,15.590 17.201 L 16.000 17.005 16.000 18.762 L 16.000 20.519 15.810 20.444 C 15.706 20.402,14.945 20.098,14.120 19.769 C 12.465 19.107,12.271 19.040,12.000 19.040 C 11.729 19.040,11.535 19.107,9.880 19.769 C 9.055 20.098,8.295 20.402,8.190 20.444 L 8.000 20.519 8.000 18.762 L 8.000 17.005 8.410 17.201 C 8.636 17.308,9.041 17.470,9.311 17.560 " stroke="none" fill-rule="evenodd" fill="black"></path></svg>