<svg width="24" height="24" viewBox="0 0 24 24" fill="none" xmlns="http://www.w3.org/2000/svg"><path d="M11.207 1.043 C 9.656 1.193,8.096 1.846,6.900 2.847 C 5.985 3.612,5.307 4.477,4.800 5.529 C 3.734 7.734,3.735 10.267,4.801 12.474 C 5.227 13.357,5.727 14.044,6.463 14.759 L 6.894 15.178 6.442 18.578 C 5.952 22.268,5.948 22.318,6.139 22.606 C 6.330 22.894,6.908 23.076,7.264 22.959 C 7.350 22.931,8.443 22.297,9.693 21.550 C 11.054 20.737,11.993 20.200,12.033 20.211 C 12.070 20.221,13.122 20.843,14.372 21.593 C 15.621 22.344,16.710 22.976,16.792 22.998 C 17.150 23.098,17.431 23.012,17.690 22.725 C 17.876 22.520,17.955 22.365,17.985 22.150 C 18.000 22.037,17.853 20.809,17.558 18.578 L 17.107 15.178 17.538 14.759 C 18.273 14.044,18.773 13.357,19.199 12.474 C 20.265 10.267,20.266 7.734,19.200 5.529 C 18.693 4.477,18.015 3.612,17.100 2.847 C 15.483 1.494,13.337 0.837,11.207 1.043 M12.564 3.039 C 14.921 3.269,16.913 4.837,17.671 7.060 C 18.240 8.727,18.041 10.570,17.128 12.100 C 16.773 12.694,16.046 13.495,15.621 13.761 C 15.498 13.837,15.322 13.960,15.230 14.034 C 14.840 14.346,13.933 14.719,13.160 14.885 C 12.554 15.015,11.446 15.015,10.840 14.885 C 10.067 14.719,9.160 14.346,8.770 14.034 C 8.678 13.960,8.502 13.837,8.379 13.761 C 7.945 13.489,7.232 12.704,6.872 12.100 C 5.959 10.568,5.760 8.727,6.329 7.060 C 6.618 6.212,7.080 5.470,7.731 4.805 C 9.008 3.503,10.757 2.864,12.564 3.039 M9.586 16.622 C 10.461 16.905,11.331 17.023,12.280 16.987 C 13.216 16.952,13.980 16.800,14.816 16.484 C 15.038 16.400,15.224 16.334,15.229 16.338 C 15.250 16.353,15.722 20.012,15.705 20.029 C 15.694 20.039,15.036 19.658,14.243 19.182 C 12.450 18.106,12.442 18.102,12.000 18.102 C 11.558 18.102,11.550 18.106,9.757 19.182 C 8.964 19.658,8.306 20.039,8.295 20.029 C 8.285 20.018,8.385 19.191,8.518 18.191 C 8.651 17.190,8.760 16.360,8.760 16.346 C 8.760 16.332,8.854 16.359,8.970 16.406 C 9.085 16.453,9.363 16.550,9.586 16.622 " stroke="none" fill-rule="evenodd" fill="black"></path></svg>