<svg width="24" height="24" viewBox="0 0 24 24" fill="none" xmlns="http://www.w3.org/2000/svg"><path d="M3.500 1.046 C 2.841 1.129,2.364 1.405,2.040 1.890 C 1.803 2.244,1.706 2.602,1.730 3.033 C 1.763 3.642,1.709 3.534,4.088 7.791 L 5.927 11.082 5.700 11.431 C 5.283 12.072,4.921 12.914,4.723 13.702 C 4.442 14.823,4.442 16.177,4.723 17.298 C 5.272 19.483,6.735 21.286,8.735 22.241 C 10.594 23.128,12.596 23.236,14.520 22.553 C 16.894 21.710,18.659 19.760,19.277 17.298 C 19.558 16.177,19.558 14.823,19.277 13.702 C 19.079 12.914,18.717 12.072,18.300 11.431 L 18.073 11.082 19.939 7.740 C 21.808 4.395,22.152 3.743,22.235 3.392 C 22.435 2.552,22.014 1.640,21.253 1.265 C 20.981 1.131,20.829 1.089,20.441 1.041 C 20.016 0.990,16.803 0.989,16.404 1.041 C 15.820 1.117,15.372 1.409,15.013 1.949 C 14.885 2.142,14.159 3.357,13.400 4.649 C 12.641 5.941,12.011 6.999,12.000 6.999 C 11.989 6.999,11.359 5.941,10.600 4.649 C 9.841 3.357,9.115 2.142,8.987 1.949 C 8.628 1.409,8.180 1.117,7.596 1.041 C 7.229 0.993,3.882 0.997,3.500 1.046 M8.829 5.590 L 10.355 8.180 10.168 8.232 C 9.183 8.502,8.344 8.896,7.576 9.447 C 7.471 9.522,7.385 9.559,7.366 9.537 C 7.329 9.495,4.079 3.670,3.887 3.302 C 3.794 3.125,3.775 3.055,3.811 3.032 C 3.838 3.015,4.635 3.001,5.581 3.001 L 7.303 3.000 8.829 5.590 M20.175 3.024 C 20.228 3.044,20.218 3.085,20.114 3.294 C 19.970 3.579,16.681 9.483,16.637 9.534 C 16.621 9.553,16.403 9.433,16.154 9.267 C 15.469 8.811,14.708 8.472,13.832 8.232 L 13.644 8.180 15.171 5.590 L 16.698 3.000 18.406 3.000 C 19.345 3.000,20.141 3.011,20.175 3.024 M12.740 10.057 C 13.880 10.195,15.072 10.792,15.886 11.633 C 16.695 12.470,17.153 13.313,17.387 14.401 C 17.491 14.882,17.491 16.118,17.387 16.599 C 17.144 17.726,16.612 18.677,15.775 19.481 C 13.677 21.497,10.323 21.497,8.225 19.481 C 7.385 18.675,6.856 17.728,6.613 16.600 C 6.509 16.118,6.509 14.882,6.613 14.400 C 6.787 13.592,7.126 12.841,7.597 12.220 C 8.382 11.184,9.443 10.482,10.705 10.163 C 11.238 10.028,12.122 9.982,12.740 10.057 M11.697 12.036 C 11.527 12.113,10.059 13.079,9.784 13.294 C 9.580 13.454,9.423 13.789,9.451 14.001 C 9.501 14.372,9.843 14.858,10.142 14.983 C 10.328 15.061,10.562 15.054,10.800 14.964 L 11.000 14.888 11.000 15.938 L 11.000 16.989 10.687 17.010 C 10.042 17.054,9.760 17.355,9.760 18.000 C 9.760 18.505,9.951 18.816,10.338 18.937 C 10.521 18.995,10.745 19.002,12.084 18.992 C 13.568 18.980,13.625 18.977,13.780 18.894 C 14.106 18.718,14.240 18.459,14.240 18.000 C 14.240 17.355,13.958 17.054,13.313 17.010 L 13.000 16.989 13.000 14.921 C 13.000 12.600,13.003 12.632,12.712 12.301 C 12.419 11.968,12.055 11.873,11.697 12.036 " stroke="none" fill-rule="evenodd" fill="black"></path></svg>