<svg width="24" height="24" viewBox="0 0 24 24" fill="none" xmlns="http://www.w3.org/2000/svg"><path d="M5.857 2.041 C 4.731 2.119,3.934 2.445,3.228 3.116 C 2.521 3.788,2.146 4.620,2.044 5.747 C 1.989 6.356,1.987 9.297,2.042 10.100 C 2.121 11.263,2.345 12.016,2.835 12.759 L 2.980 12.980 3.002 16.200 C 3.024 19.360,3.026 19.426,3.113 19.756 C 3.286 20.413,3.645 20.968,4.142 21.350 C 4.495 21.621,4.816 21.775,5.265 21.889 L 5.620 21.980 11.980 21.980 C 18.038 21.980,18.355 21.976,18.660 21.906 C 19.269 21.764,19.711 21.526,20.118 21.118 C 20.510 20.726,20.737 20.322,20.891 19.740 C 20.973 19.429,20.976 19.328,20.990 16.211 L 21.004 13.003 21.158 12.771 C 21.651 12.028,21.879 11.268,21.958 10.100 C 22.013 9.297,22.011 6.357,21.956 5.747 C 21.859 4.680,21.538 3.923,20.890 3.235 C 20.314 2.624,19.569 2.247,18.600 2.075 C 18.295 2.021,6.591 1.989,5.857 2.041 M18.480 4.077 C 18.838 4.159,19.120 4.319,19.401 4.599 C 19.698 4.897,19.855 5.186,19.922 5.564 C 19.988 5.935,20.017 8.779,19.964 9.720 C 19.940 10.149,19.892 10.635,19.857 10.800 C 19.650 11.773,18.792 12.637,17.815 12.855 C 17.208 12.991,16.483 13.006,11.580 12.989 C 6.490 12.971,6.455 12.970,5.900 12.781 C 5.068 12.497,4.326 11.661,4.143 10.800 C 4.108 10.635,4.060 10.149,4.036 9.720 C 3.981 8.750,4.011 5.883,4.080 5.540 C 4.207 4.905,4.691 4.350,5.301 4.141 C 5.410 4.104,5.689 4.059,5.920 4.041 C 6.151 4.024,9.022 4.014,12.300 4.019 C 16.893 4.025,18.310 4.039,18.480 4.077 M8.614 9.057 C 8.377 9.131,8.212 9.261,8.109 9.453 C 8.035 9.592,8.020 9.684,8.020 10.000 C 8.020 10.331,8.033 10.403,8.120 10.558 C 8.230 10.755,8.414 10.898,8.635 10.959 C 8.832 11.014,15.168 11.014,15.365 10.959 C 15.586 10.898,15.770 10.755,15.880 10.558 C 15.967 10.402,15.980 10.332,15.979 10.000 C 15.978 9.567,15.898 9.355,15.678 9.199 C 15.398 8.999,15.411 9.000,11.984 9.003 C 9.472 9.005,8.744 9.017,8.614 9.057 M5.600 14.760 C 6.415 14.980,6.428 14.980,12.000 14.980 C 16.049 14.980,17.229 14.969,17.560 14.927 C 17.910 14.882,18.500 14.748,18.913 14.618 L 19.006 14.589 18.990 16.905 C 18.978 18.609,18.961 19.261,18.924 19.374 C 18.860 19.570,18.579 19.853,18.376 19.925 C 18.143 20.007,5.857 20.007,5.624 19.925 C 5.421 19.853,5.140 19.570,5.076 19.374 C 5.039 19.261,5.022 18.609,5.010 16.905 L 4.994 14.589 5.087 14.618 C 5.138 14.634,5.369 14.698,5.600 14.760 " stroke="none" fill-rule="evenodd" fill="black"></path></svg>