<svg width="24" height="24" viewBox="0 0 24 24" fill="none" xmlns="http://www.w3.org/2000/svg"><path d="M16.040 3.041 C 14.585 3.152,13.523 3.387,10.940 4.165 C 8.538 4.890,8.094 4.978,6.880 4.978 C 5.914 4.978,5.545 4.941,4.340 4.721 C 3.302 4.531,2.941 4.497,2.600 4.559 C 1.864 4.693,1.296 5.222,1.091 5.964 C 1.024 6.204,1.020 6.621,1.020 12.520 L 1.020 18.820 1.115 19.080 C 1.242 19.426,1.442 19.722,1.698 19.940 C 2.715 20.809,6.179 21.247,8.940 20.855 C 10.032 20.700,10.887 20.489,13.000 19.853 C 15.424 19.122,15.949 19.018,17.180 19.024 C 18.096 19.029,18.486 19.071,19.760 19.302 C 20.682 19.470,21.138 19.508,21.437 19.444 C 22.156 19.290,22.709 18.761,22.909 18.036 C 22.976 17.796,22.980 17.379,22.980 11.480 L 22.980 5.180 22.885 4.920 C 22.684 4.373,22.328 3.989,21.787 3.740 C 21.163 3.451,20.177 3.223,19.020 3.100 C 18.330 3.026,16.660 2.993,16.040 3.041 M18.180 5.040 C 19.291 5.110,20.099 5.245,20.710 5.464 L 21.000 5.568 20.999 11.474 C 20.999 14.722,20.985 17.402,20.967 17.430 C 20.942 17.469,20.738 17.444,20.047 17.321 C 18.698 17.080,18.151 17.025,17.120 17.025 C 15.711 17.025,14.976 17.168,12.440 17.932 C 10.363 18.559,9.652 18.733,8.460 18.908 C 7.865 18.996,5.961 19.007,5.220 18.928 C 4.419 18.842,3.688 18.692,3.218 18.516 L 3.000 18.434 3.000 12.540 C 3.000 9.299,3.011 6.619,3.024 6.585 C 3.040 6.544,3.082 6.530,3.154 6.542 C 3.212 6.552,3.602 6.622,4.020 6.698 C 5.333 6.935,5.754 6.976,6.880 6.976 C 7.810 6.975,7.952 6.966,8.496 6.868 C 9.302 6.723,9.938 6.557,11.520 6.079 C 14.751 5.103,16.018 4.905,18.180 5.040 M17.614 8.057 C 17.377 8.131,17.212 8.261,17.109 8.453 C 17.020 8.619,17.020 8.629,17.009 10.911 C 17.001 12.392,17.012 13.256,17.039 13.355 C 17.144 13.747,17.433 13.961,17.896 13.991 C 18.381 14.022,18.699 13.882,18.880 13.558 L 18.980 13.380 18.980 11.000 L 18.980 8.620 18.891 8.453 C 18.842 8.362,18.746 8.247,18.678 8.199 C 18.414 8.010,17.957 7.950,17.614 8.057 M11.440 8.545 C 9.952 8.831,8.819 9.939,8.559 11.364 C 8.499 11.692,8.499 12.308,8.559 12.636 C 8.813 14.027,9.972 15.186,11.364 15.441 C 11.717 15.506,12.362 15.498,12.710 15.425 C 14.055 15.142,15.142 14.055,15.425 12.710 C 15.498 12.362,15.506 11.717,15.441 11.364 C 15.206 10.085,14.222 9.006,12.953 8.637 C 12.731 8.572,12.524 8.549,12.100 8.539 C 11.792 8.532,11.495 8.535,11.440 8.545 M5.614 10.057 C 5.377 10.131,5.212 10.261,5.109 10.453 C 5.020 10.619,5.020 10.629,5.009 12.911 C 5.001 14.392,5.012 15.256,5.039 15.355 C 5.144 15.747,5.433 15.961,5.896 15.991 C 6.381 16.022,6.699 15.882,6.880 15.558 L 6.980 15.380 6.980 13.000 L 6.980 10.620 6.891 10.453 C 6.842 10.362,6.746 10.247,6.678 10.199 C 6.414 10.010,5.957 9.950,5.614 10.057 M12.653 10.658 C 12.925 10.796,13.226 11.103,13.362 11.380 C 13.447 11.554,13.460 11.635,13.460 12.000 C 13.460 12.384,13.450 12.440,13.344 12.648 C 13.115 13.100,12.691 13.413,12.218 13.477 C 11.563 13.566,10.958 13.245,10.656 12.648 C 10.550 12.440,10.540 12.384,10.540 12.000 C 10.540 11.635,10.553 11.554,10.638 11.380 C 10.811 11.028,11.153 10.716,11.516 10.577 C 11.611 10.540,11.789 10.525,12.042 10.532 C 12.371 10.541,12.455 10.558,12.653 10.658 " stroke="none" fill-rule="evenodd" fill="black"></path></svg>