<svg width="24" height="24" viewBox="0 0 24 24" fill="none" xmlns="http://www.w3.org/2000/svg"><path d="M8.614 2.057 C 8.377 2.131,8.212 2.261,8.109 2.453 L 8.020 2.620 8.010 11.914 C 8.003 18.056,8.013 21.260,8.040 21.358 C 8.144 21.747,8.435 21.962,8.896 21.991 C 9.381 22.022,9.699 21.882,9.880 21.558 L 9.980 21.380 9.980 12.000 L 9.980 2.620 9.891 2.453 C 9.842 2.362,9.746 2.247,9.678 2.199 C 9.414 2.010,8.957 1.950,8.614 2.057 M20.614 2.057 C 20.377 2.131,20.212 2.261,20.109 2.453 L 20.020 2.620 20.010 11.914 C 20.003 18.056,20.013 21.260,20.040 21.358 C 20.144 21.747,20.435 21.962,20.896 21.991 C 21.381 22.022,21.699 21.882,21.880 21.558 L 21.980 21.380 21.980 12.000 L 21.980 2.620 21.891 2.453 C 21.842 2.362,21.746 2.247,21.678 2.199 C 21.414 2.010,20.957 1.950,20.614 2.057 M2.614 10.057 C 2.377 10.131,2.212 10.261,2.109 10.453 L 2.020 10.620 2.009 15.914 C 2.002 19.393,2.013 21.259,2.039 21.358 C 2.144 21.747,2.434 21.961,2.896 21.991 C 3.381 22.022,3.699 21.882,3.880 21.558 L 3.980 21.380 3.980 16.000 L 3.980 10.620 3.891 10.453 C 3.842 10.362,3.746 10.247,3.678 10.199 C 3.414 10.010,2.957 9.950,2.614 10.057 M14.614 10.057 C 14.377 10.131,14.212 10.261,14.109 10.453 L 14.020 10.620 14.009 15.914 C 14.002 19.393,14.013 21.259,14.039 21.358 C 14.144 21.747,14.434 21.961,14.896 21.991 C 15.381 22.022,15.699 21.882,15.880 21.558 L 15.980 21.380 15.980 16.000 L 15.980 10.620 15.891 10.453 C 15.842 10.362,15.746 10.247,15.678 10.199 C 15.414 10.010,14.957 9.950,14.614 10.057 " stroke="none" fill-rule="evenodd" fill="black"></path></svg>