<svg width="24" height="24" viewBox="0 0 24 24" fill="none" xmlns="http://www.w3.org/2000/svg"><path d="M11.534 2.041 C 10.623 2.205,9.805 2.973,9.575 3.880 C 9.509 4.142,9.486 4.829,9.538 4.992 C 9.561 5.066,9.299 5.275,7.402 6.699 L 5.239 8.321 5.088 8.244 C 4.772 8.083,4.478 8.023,4.000 8.023 C 3.281 8.023,2.830 8.196,2.319 8.669 C 1.755 9.192,1.513 9.741,1.513 10.500 C 1.513 11.258,1.749 11.796,2.317 12.331 C 3.068 13.040,4.169 13.198,5.120 12.735 C 5.351 12.622,5.499 12.509,5.761 12.244 C 6.132 11.868,6.308 11.571,6.424 11.117 C 6.492 10.851,6.513 10.276,6.463 10.052 L 6.435 9.925 8.595 8.304 L 10.756 6.683 10.975 6.783 C 11.814 7.167,12.933 7.012,13.591 6.420 L 13.790 6.241 15.645 6.937 L 17.500 7.632 17.527 7.866 C 17.588 8.399,17.857 8.898,18.319 9.333 C 19.068 10.040,20.170 10.198,21.120 9.735 C 21.351 9.622,21.499 9.509,21.761 9.244 C 22.279 8.720,22.490 8.215,22.490 7.500 C 22.490 6.782,22.278 6.276,21.761 5.759 C 21.207 5.206,20.770 5.023,20.000 5.022 C 19.322 5.021,18.855 5.189,18.393 5.597 L 18.206 5.762 16.353 5.067 L 14.500 4.373 14.469 4.124 C 14.402 3.589,14.137 3.095,13.696 2.682 C 13.220 2.237,12.769 2.047,12.120 2.020 C 11.911 2.011,11.647 2.021,11.534 2.041 M12.226 4.065 C 12.388 4.142,12.480 4.300,12.480 4.500 C 12.480 4.700,12.388 4.858,12.226 4.935 C 12.052 5.017,11.948 5.017,11.774 4.935 C 11.435 4.774,11.431 4.233,11.768 4.067 C 11.936 3.984,12.053 3.984,12.226 4.065 M20.226 7.065 C 20.388 7.142,20.480 7.300,20.480 7.500 C 20.480 7.579,20.454 7.695,20.422 7.757 C 20.360 7.876,20.146 8.000,20.000 8.000 C 19.952 8.000,19.850 7.971,19.774 7.935 C 19.435 7.774,19.431 7.233,19.768 7.067 C 19.936 6.984,20.053 6.984,20.226 7.065 M11.614 9.057 C 11.377 9.131,11.212 9.261,11.109 9.453 L 11.020 9.620 11.009 14.914 C 11.002 18.393,11.013 20.259,11.039 20.358 C 11.144 20.747,11.434 20.961,11.896 20.991 C 12.381 21.022,12.699 20.882,12.880 20.558 L 12.980 20.380 12.980 15.000 L 12.980 9.620 12.891 9.453 C 12.842 9.362,12.746 9.247,12.678 9.199 C 12.414 9.010,11.957 8.950,11.614 9.057 M4.226 10.065 C 4.568 10.228,4.568 10.772,4.226 10.935 C 4.052 11.017,3.948 11.017,3.774 10.935 C 3.435 10.774,3.431 10.233,3.768 10.067 C 3.936 9.984,4.053 9.984,4.226 10.065 M19.614 12.057 C 19.377 12.131,19.212 12.261,19.109 12.453 L 19.020 12.620 19.009 16.413 C 19.002 18.894,19.012 20.258,19.039 20.357 C 19.144 20.747,19.434 20.961,19.896 20.991 C 20.381 21.022,20.699 20.882,20.880 20.558 L 20.980 20.380 20.980 16.500 L 20.980 12.620 20.891 12.453 C 20.842 12.362,20.746 12.247,20.678 12.199 C 20.414 12.010,19.957 11.950,19.614 12.057 M3.614 15.057 C 3.377 15.131,3.212 15.261,3.109 15.453 C 3.020 15.619,3.020 15.629,3.009 17.911 C 3.001 19.392,3.012 20.256,3.039 20.355 C 3.144 20.747,3.433 20.961,3.896 20.991 C 4.381 21.022,4.699 20.882,4.880 20.558 L 4.980 20.380 4.980 18.000 L 4.980 15.620 4.891 15.453 C 4.842 15.362,4.746 15.247,4.678 15.199 C 4.414 15.010,3.957 14.950,3.614 15.057 " stroke="none" fill-rule="evenodd" fill="black"></path></svg>