<svg width="24" height="24" viewBox="0 0 24 24" fill="none" xmlns="http://www.w3.org/2000/svg"><path d="M2.614 2.057 C 2.377 2.131,2.212 2.261,2.109 2.453 L 2.020 2.620 2.010 11.914 C 2.003 18.056,2.013 21.260,2.040 21.358 C 2.144 21.747,2.435 21.962,2.896 21.991 C 3.381 22.022,3.699 21.882,3.880 21.558 L 3.980 21.380 3.980 12.000 L 3.980 2.620 3.891 2.453 C 3.842 2.362,3.746 2.247,3.678 2.199 C 3.414 2.010,2.957 1.950,2.614 2.057 M8.614 7.057 C 8.377 7.131,8.212 7.261,8.109 7.453 L 8.020 7.620 8.010 14.414 C 8.003 18.892,8.013 21.259,8.039 21.358 C 8.144 21.747,8.434 21.961,8.896 21.991 C 9.381 22.022,9.699 21.882,9.880 21.558 L 9.980 21.380 9.980 14.500 L 9.980 7.620 9.891 7.453 C 9.842 7.362,9.746 7.247,9.678 7.199 C 9.414 7.010,8.957 6.950,8.614 7.057 M14.614 12.057 C 14.377 12.131,14.212 12.261,14.109 12.453 L 14.020 12.620 14.009 16.913 C 14.002 19.727,14.013 21.258,14.039 21.357 C 14.144 21.747,14.434 21.961,14.896 21.991 C 15.381 22.022,15.699 21.882,15.880 21.558 L 15.980 21.380 15.980 17.000 L 15.980 12.620 15.891 12.453 C 15.842 12.362,15.746 12.247,15.678 12.199 C 15.414 12.010,14.957 11.950,14.614 12.057 M20.614 16.057 C 20.377 16.131,20.212 16.261,20.109 16.453 C 20.020 16.619,20.020 16.629,20.009 18.911 C 20.001 20.392,20.012 21.256,20.039 21.355 C 20.144 21.747,20.433 21.961,20.896 21.991 C 21.381 22.022,21.699 21.882,21.880 21.558 L 21.980 21.380 21.980 19.000 L 21.980 16.620 21.891 16.453 C 21.842 16.362,21.746 16.247,21.678 16.199 C 21.414 16.010,20.957 15.950,20.614 16.057 " stroke="none" fill-rule="evenodd" fill="black"></path></svg>