<svg width="24" height="24" viewBox="0 0 24 24" fill="none" xmlns="http://www.w3.org/2000/svg"><path d="M5.614 3.057 C 5.377 3.131,5.212 3.261,5.109 3.453 L 5.020 3.620 5.010 11.914 C 5.003 17.391,5.013 20.260,5.040 20.358 C 5.144 20.747,5.434 20.962,5.896 20.991 C 6.381 21.022,6.699 20.882,6.880 20.558 L 6.980 20.380 6.980 12.000 L 6.980 3.620 6.891 3.453 C 6.842 3.362,6.746 3.247,6.678 3.199 C 6.414 3.010,5.957 2.950,5.614 3.057 M11.614 9.057 C 11.377 9.131,11.212 9.261,11.109 9.453 L 11.020 9.620 11.009 14.914 C 11.002 18.393,11.013 20.259,11.039 20.358 C 11.144 20.747,11.434 20.961,11.896 20.991 C 12.381 21.022,12.699 20.882,12.880 20.558 L 12.980 20.380 12.980 15.000 L 12.980 9.620 12.891 9.453 C 12.842 9.362,12.746 9.247,12.678 9.199 C 12.414 9.010,11.957 8.950,11.614 9.057 M17.614 15.057 C 17.377 15.131,17.212 15.261,17.109 15.453 C 17.020 15.619,17.020 15.629,17.009 17.911 C 17.001 19.392,17.012 20.256,17.039 20.355 C 17.144 20.747,17.433 20.961,17.896 20.991 C 18.381 21.022,18.699 20.882,18.880 20.558 L 18.980 20.380 18.980 18.000 L 18.980 15.620 18.891 15.453 C 18.842 15.362,18.746 15.247,18.678 15.199 C 18.414 15.010,17.957 14.950,17.614 15.057 " stroke="none" fill-rule="evenodd" fill="black"></path></svg>