<svg width="24" height="24" viewBox="0 0 24 24" fill="none" xmlns="http://www.w3.org/2000/svg"><path d="M4.614 1.057 C 4.377 1.131,4.212 1.261,4.109 1.453 C 4.021 1.618,4.020 1.640,4.009 3.596 L 3.997 5.572 3.269 4.852 C 2.856 4.443,2.467 4.094,2.372 4.045 C 2.021 3.868,1.640 3.958,1.299 4.299 C 0.952 4.646,0.863 5.011,1.040 5.363 C 1.099 5.480,1.635 6.051,2.635 7.062 C 3.463 7.899,4.174 8.634,4.216 8.697 C 4.318 8.850,4.762 9.049,5.000 9.049 C 5.238 9.049,5.682 8.850,5.784 8.697 C 5.826 8.634,6.537 7.899,7.365 7.062 C 8.365 6.051,8.901 5.480,8.960 5.363 C 9.137 5.011,9.048 4.646,8.701 4.299 C 8.360 3.958,7.979 3.868,7.628 4.045 C 7.533 4.094,7.144 4.443,6.732 4.851 L 6.004 5.572 5.992 3.596 C 5.980 1.640,5.979 1.618,5.891 1.453 C 5.842 1.362,5.746 1.247,5.678 1.199 C 5.414 1.010,4.957 0.950,4.614 1.057 M11.614 2.056 C 11.221 2.183,11.039 2.437,11.009 2.900 C 10.978 3.381,11.119 3.699,11.442 3.880 L 11.620 3.980 14.920 4.004 C 18.477 4.031,18.510 4.033,18.952 4.248 C 19.194 4.366,19.634 4.806,19.752 5.048 C 19.802 5.151,19.874 5.367,19.912 5.528 C 19.975 5.797,19.980 6.313,19.980 12.000 C 19.980 17.687,19.975 18.203,19.912 18.472 C 19.874 18.633,19.802 18.849,19.752 18.952 C 19.626 19.211,19.190 19.638,18.918 19.768 C 18.466 19.985,18.627 19.980,12.000 19.980 C 5.383 19.980,5.538 19.985,5.082 19.771 C 4.812 19.643,4.377 19.217,4.248 18.952 C 4.033 18.511,4.031 18.477,4.005 14.920 L 3.980 11.620 3.889 11.450 C 3.724 11.140,3.329 10.970,2.874 11.011 C 2.439 11.051,2.141 11.274,2.041 11.635 C 1.987 11.829,1.987 17.594,2.041 18.180 C 2.109 18.928,2.225 19.387,2.464 19.858 C 2.915 20.749,3.772 21.482,4.680 21.755 C 5.474 21.994,5.642 22.000,12.000 22.000 C 18.358 22.000,18.526 21.994,19.320 21.755 C 20.422 21.423,21.423 20.422,21.755 19.320 C 21.994 18.526,22.000 18.358,22.000 12.000 C 22.000 5.642,21.994 5.474,21.755 4.680 C 21.424 3.581,20.464 2.621,19.320 2.246 C 18.689 2.039,18.500 2.029,15.020 2.015 C 12.388 2.004,11.749 2.012,11.614 2.056 M11.614 6.057 C 11.377 6.131,11.212 6.261,11.109 6.453 L 11.020 6.620 11.009 11.914 C 11.002 15.393,11.013 17.259,11.039 17.358 C 11.144 17.747,11.434 17.961,11.896 17.991 C 12.381 18.022,12.699 17.882,12.880 17.558 L 12.980 17.380 12.980 12.000 L 12.980 6.620 12.891 6.453 C 12.842 6.362,12.746 6.247,12.678 6.199 C 12.414 6.010,11.957 5.950,11.614 6.057 M15.614 10.057 C 15.377 10.131,15.212 10.261,15.109 10.453 L 15.020 10.620 15.009 13.912 C 15.002 16.060,15.012 17.257,15.039 17.356 C 15.144 17.747,15.434 17.961,15.896 17.991 C 16.381 18.022,16.699 17.882,16.880 17.558 L 16.980 17.380 16.980 14.000 L 16.980 10.620 16.891 10.453 C 16.842 10.362,16.746 10.247,16.678 10.199 C 16.414 10.010,15.957 9.950,15.614 10.057 M7.614 12.057 C 7.377 12.131,7.212 12.261,7.109 12.453 C 7.020 12.619,7.020 12.629,7.009 14.911 C 7.001 16.392,7.012 17.256,7.039 17.355 C 7.144 17.747,7.433 17.961,7.896 17.991 C 8.381 18.022,8.699 17.882,8.880 17.558 L 8.980 17.380 8.980 15.000 L 8.980 12.620 8.891 12.453 C 8.842 12.362,8.746 12.247,8.678 12.199 C 8.414 12.010,7.957 11.950,7.614 12.057 " stroke="none" fill-rule="evenodd" fill="black"></path></svg>