<svg width="24" height="24" viewBox="0 0 24 24" fill="none" xmlns="http://www.w3.org/2000/svg"><path d="M11.280 1.023 C 11.203 1.032,10.951 1.059,10.720 1.083 C 9.527 1.210,8.337 1.558,7.180 2.120 C 6.045 2.671,5.193 3.285,4.238 4.239 C 3.277 5.198,2.643 6.080,2.097 7.220 C 0.301 10.968,0.728 15.286,3.226 18.633 C 3.701 19.269,4.753 20.316,5.400 20.797 C 9.364 23.745,14.666 23.734,18.637 20.770 C 19.246 20.316,20.316 19.246,20.770 18.637 C 23.744 14.652,23.744 9.348,20.770 5.363 C 20.316 4.755,19.247 3.686,18.640 3.235 C 17.045 2.049,15.365 1.360,13.423 1.096 C 13.000 1.038,11.574 0.990,11.280 1.023 M13.320 3.101 C 15.883 3.488,18.124 4.931,19.560 7.120 C 19.863 7.583,20.303 8.479,20.492 9.020 C 20.838 10.013,20.977 10.865,20.977 12.000 C 20.977 13.493,20.720 14.621,20.080 15.940 C 19.375 17.394,18.311 18.607,16.927 19.532 C 16.138 20.060,14.876 20.588,13.908 20.797 C 11.266 21.366,8.479 20.708,6.370 19.019 C 4.857 17.807,3.722 16.029,3.267 14.160 C 3.081 13.397,3.023 12.888,3.023 12.000 C 3.023 10.507,3.280 9.379,3.920 8.060 C 4.971 5.891,6.877 4.221,9.160 3.466 C 9.865 3.233,10.432 3.118,11.340 3.024 C 11.662 2.991,12.911 3.039,13.320 3.101 M11.614 6.057 C 11.377 6.131,11.212 6.261,11.109 6.453 L 11.020 6.620 11.009 11.914 C 11.002 15.393,11.013 17.259,11.039 17.358 C 11.144 17.747,11.434 17.961,11.896 17.991 C 12.381 18.022,12.699 17.882,12.880 17.558 L 12.980 17.380 12.980 12.000 L 12.980 6.620 12.891 6.453 C 12.842 6.362,12.746 6.247,12.678 6.199 C 12.414 6.010,11.957 5.950,11.614 6.057 M15.614 10.057 C 15.377 10.131,15.212 10.261,15.109 10.453 L 15.020 10.620 15.009 13.912 C 15.002 16.060,15.012 17.257,15.039 17.356 C 15.144 17.747,15.434 17.961,15.896 17.991 C 16.381 18.022,16.699 17.882,16.880 17.558 L 16.980 17.380 16.980 14.000 L 16.980 10.620 16.891 10.453 C 16.842 10.362,16.746 10.247,16.678 10.199 C 16.414 10.010,15.957 9.950,15.614 10.057 M7.614 12.057 C 7.377 12.131,7.212 12.261,7.109 12.453 C 7.020 12.619,7.020 12.629,7.009 14.911 C 7.001 16.392,7.012 17.256,7.039 17.355 C 7.144 17.747,7.433 17.961,7.896 17.991 C 8.381 18.022,8.699 17.882,8.880 17.558 L 8.980 17.380 8.980 15.000 L 8.980 12.620 8.891 12.453 C 8.842 12.362,8.746 12.247,8.678 12.199 C 8.414 12.010,7.957 11.950,7.614 12.057 " stroke="none" fill-rule="evenodd" fill="black"></path></svg>