<svg width="24" height="24" viewBox="0 0 24 24" fill="none" xmlns="http://www.w3.org/2000/svg"><path d="M2.614 2.057 C 2.377 2.131,2.212 2.261,2.109 2.453 L 2.020 2.620 2.020 11.000 L 2.020 19.380 2.111 19.735 C 2.225 20.184,2.379 20.505,2.650 20.858 C 3.031 21.354,3.584 21.712,4.244 21.888 L 4.580 21.978 12.892 21.990 C 18.458 21.998,21.255 21.988,21.356 21.961 C 21.584 21.900,21.768 21.758,21.880 21.558 C 21.967 21.402,21.980 21.332,21.979 21.000 C 21.977 20.469,21.852 20.247,21.455 20.071 C 21.364 20.030,19.645 20.016,13.040 20.000 L 4.740 19.980 4.550 19.886 C 4.336 19.781,4.142 19.568,4.070 19.360 C 4.034 19.253,4.017 17.236,4.001 10.920 L 3.980 2.620 3.891 2.453 C 3.842 2.362,3.746 2.247,3.678 2.199 C 3.414 2.010,2.957 1.950,2.614 2.057 M20.042 4.572 C 19.850 4.633,19.615 4.882,19.552 5.088 C 19.510 5.226,19.500 6.488,19.500 11.500 C 19.500 16.512,19.510 17.774,19.552 17.912 C 19.621 18.140,19.866 18.382,20.088 18.442 C 20.520 18.559,21.007 18.473,21.240 18.240 C 21.516 17.964,21.500 18.369,21.500 11.480 C 21.500 4.829,21.508 5.110,21.308 4.825 C 21.173 4.632,20.873 4.520,20.500 4.524 C 20.324 4.527,20.118 4.548,20.042 4.572 M15.545 7.579 C 15.320 7.659,15.128 7.863,15.059 8.096 C 14.970 8.394,14.970 17.606,15.059 17.904 C 15.173 18.287,15.493 18.486,15.997 18.488 C 16.501 18.490,16.827 18.289,16.941 17.904 C 17.031 17.602,17.029 8.394,16.940 8.092 C 16.868 7.852,16.645 7.627,16.413 7.563 C 16.200 7.504,15.731 7.513,15.545 7.579 M11.042 10.572 C 10.850 10.633,10.615 10.882,10.552 11.088 C 10.511 11.223,10.500 11.953,10.500 14.500 C 10.500 17.047,10.511 17.777,10.552 17.912 C 10.621 18.140,10.866 18.382,11.088 18.442 C 11.520 18.559,12.007 18.473,12.240 18.240 C 12.506 17.974,12.500 18.062,12.500 14.480 C 12.500 11.053,12.503 11.102,12.308 10.825 C 12.173 10.632,11.873 10.520,11.500 10.524 C 11.324 10.527,11.118 10.548,11.042 10.572 M6.545 13.579 C 6.320 13.659,6.128 13.863,6.059 14.096 C 5.972 14.388,5.972 17.612,6.059 17.904 C 6.173 18.287,6.493 18.486,6.997 18.488 C 7.501 18.490,7.827 18.289,7.941 17.904 C 8.029 17.609,8.028 14.387,7.940 14.092 C 7.868 13.852,7.645 13.627,7.413 13.563 C 7.200 13.504,6.731 13.513,6.545 13.579 " stroke="none" fill-rule="evenodd" fill="black"></path></svg>