<svg width="24" height="24" viewBox="0 0 24 24" fill="none" xmlns="http://www.w3.org/2000/svg"><path d="M2.614 2.057 C 2.377 2.131,2.212 2.261,2.109 2.453 L 2.020 2.620 2.020 11.000 L 2.020 19.380 2.111 19.735 C 2.225 20.184,2.379 20.505,2.650 20.858 C 3.031 21.354,3.584 21.712,4.244 21.888 L 4.580 21.978 12.892 21.990 C 18.458 21.998,21.255 21.988,21.356 21.961 C 21.584 21.900,21.768 21.758,21.880 21.558 C 21.967 21.402,21.980 21.332,21.979 21.000 C 21.977 20.469,21.852 20.247,21.455 20.071 C 21.364 20.030,19.645 20.016,13.040 20.000 L 4.740 19.980 4.550 19.886 C 4.336 19.781,4.142 19.568,4.070 19.360 C 4.034 19.253,4.017 17.236,4.001 10.920 L 3.980 2.620 3.891 2.453 C 3.842 2.362,3.746 2.247,3.678 2.199 C 3.414 2.010,2.957 1.950,2.614 2.057 M11.042 4.572 C 10.850 4.633,10.615 4.882,10.552 5.088 C 10.510 5.226,10.500 6.488,10.500 11.500 C 10.500 16.512,10.510 17.774,10.552 17.912 C 10.621 18.140,10.866 18.382,11.088 18.442 C 11.520 18.559,12.007 18.473,12.240 18.240 C 12.516 17.964,12.500 18.369,12.500 11.480 C 12.500 4.829,12.508 5.110,12.308 4.825 C 12.173 4.632,11.873 4.520,11.500 4.524 C 11.324 4.527,11.118 4.548,11.042 4.572 M20.042 4.572 C 19.850 4.633,19.615 4.882,19.552 5.088 C 19.510 5.226,19.500 6.488,19.500 11.500 C 19.500 16.512,19.510 17.774,19.552 17.912 C 19.621 18.140,19.866 18.382,20.088 18.442 C 20.520 18.559,21.007 18.473,21.240 18.240 C 21.516 17.964,21.500 18.369,21.500 11.480 C 21.500 4.829,21.508 5.110,21.308 4.825 C 21.173 4.632,20.873 4.520,20.500 4.524 C 20.324 4.527,20.118 4.548,20.042 4.572 M6.545 9.579 C 6.320 9.659,6.128 9.863,6.059 10.096 C 5.971 10.393,5.971 17.607,6.059 17.904 C 6.173 18.287,6.493 18.486,6.997 18.488 C 7.501 18.490,7.827 18.289,7.941 17.904 C 8.030 17.603,8.029 10.393,7.940 10.092 C 7.868 9.852,7.645 9.627,7.413 9.563 C 7.200 9.504,6.731 9.513,6.545 9.579 M15.545 9.579 C 15.320 9.659,15.128 9.863,15.059 10.096 C 14.971 10.393,14.971 17.607,15.059 17.904 C 15.173 18.287,15.493 18.486,15.997 18.488 C 16.501 18.490,16.827 18.289,16.941 17.904 C 17.030 17.603,17.029 10.393,16.940 10.092 C 16.868 9.852,16.645 9.627,16.413 9.563 C 16.200 9.504,15.731 9.513,15.545 9.579 " stroke="none" fill-rule="evenodd" fill="black"></path></svg>