<svg width="24" height="24" viewBox="0 0 24 24" fill="none" xmlns="http://www.w3.org/2000/svg"><path d="M2.614 2.057 C 2.377 2.131,2.212 2.261,2.109 2.453 L 2.020 2.620 2.020 11.000 L 2.020 19.380 2.111 19.735 C 2.225 20.184,2.379 20.505,2.650 20.858 C 3.031 21.354,3.584 21.712,4.244 21.888 L 4.580 21.978 12.892 21.990 C 18.458 21.998,21.255 21.988,21.356 21.961 C 21.584 21.900,21.768 21.758,21.880 21.558 C 21.967 21.402,21.980 21.332,21.979 21.000 C 21.977 20.469,21.852 20.247,21.455 20.071 C 21.364 20.030,19.645 20.016,13.040 20.000 L 4.740 19.980 4.550 19.886 C 4.336 19.781,4.142 19.568,4.070 19.360 C 4.034 19.253,4.017 17.236,4.001 10.920 L 3.980 2.620 3.891 2.453 C 3.842 2.362,3.746 2.247,3.678 2.199 C 3.414 2.010,2.957 1.950,2.614 2.057 M6.545 4.579 C 6.320 4.659,6.128 4.863,6.059 5.096 C 5.970 5.395,5.970 17.605,6.059 17.904 C 6.173 18.287,6.493 18.486,6.997 18.488 C 7.501 18.490,7.827 18.289,7.941 17.904 C 8.031 17.601,8.030 5.394,7.940 5.092 C 7.868 4.852,7.645 4.627,7.413 4.563 C 7.200 4.504,6.731 4.513,6.545 4.579 M11.042 7.572 C 10.850 7.633,10.615 7.882,10.552 8.088 C 10.511 8.225,10.500 9.220,10.500 13.000 C 10.500 16.780,10.511 17.775,10.552 17.912 C 10.621 18.140,10.866 18.382,11.088 18.442 C 11.520 18.559,12.007 18.473,12.240 18.240 C 12.512 17.968,12.500 18.215,12.500 12.980 C 12.500 7.941,12.506 8.107,12.308 7.825 C 12.173 7.632,11.873 7.520,11.500 7.524 C 11.324 7.527,11.118 7.548,11.042 7.572 M15.545 10.579 C 15.320 10.659,15.128 10.863,15.059 11.096 C 14.971 11.392,14.971 17.608,15.059 17.904 C 15.173 18.287,15.493 18.486,15.997 18.488 C 16.501 18.490,16.827 18.289,16.941 17.904 C 17.030 17.604,17.029 11.392,16.940 11.092 C 16.868 10.852,16.645 10.627,16.413 10.563 C 16.200 10.504,15.731 10.513,15.545 10.579 M20.042 13.572 C 19.850 13.633,19.615 13.882,19.552 14.088 C 19.513 14.218,19.500 14.685,19.500 16.000 C 19.500 17.947,19.504 17.984,19.760 18.240 C 19.936 18.416,20.142 18.487,20.486 18.491 C 20.990 18.495,21.330 18.285,21.443 17.897 C 21.525 17.613,21.527 14.337,21.444 14.100 C 21.302 13.691,21.020 13.518,20.500 13.524 C 20.324 13.527,20.118 13.548,20.042 13.572 " stroke="none" fill-rule="evenodd" fill="black"></path></svg>