<svg width="24" height="24" viewBox="0 0 24 24" fill="none" xmlns="http://www.w3.org/2000/svg"><path d="M4.920 5.041 C 4.151 5.092,3.672 5.205,3.180 5.451 C 2.089 5.996,1.357 6.961,1.124 8.160 C 1.023 8.677,1.000 9.401,1.000 12.000 C 1.000 15.144,1.025 15.591,1.245 16.320 C 1.577 17.422,2.578 18.423,3.680 18.755 C 4.467 18.992,4.679 19.000,10.500 19.000 C 16.321 19.000,16.533 18.992,17.320 18.755 C 18.422 18.423,19.423 17.422,19.755 16.320 C 19.975 15.591,20.000 15.144,20.000 12.000 C 20.000 8.856,19.975 8.409,19.755 7.680 C 19.424 6.581,18.465 5.622,17.320 5.246 C 16.650 5.026,16.750 5.029,10.840 5.019 C 7.837 5.014,5.173 5.024,4.920 5.041 M16.492 7.091 C 16.894 7.188,17.109 7.309,17.400 7.600 C 17.696 7.896,17.814 8.110,17.911 8.528 C 17.972 8.790,17.979 9.150,17.979 12.000 C 17.979 15.456,17.977 15.489,17.752 15.952 C 17.626 16.211,17.190 16.638,16.918 16.768 C 16.468 16.984,16.587 16.980,10.500 16.980 C 4.422 16.980,4.536 16.984,4.082 16.771 C 3.812 16.643,3.377 16.217,3.248 15.952 C 3.023 15.489,3.021 15.456,3.021 12.000 C 3.021 9.150,3.028 8.790,3.089 8.528 C 3.175 8.155,3.294 7.918,3.520 7.667 C 3.883 7.262,4.281 7.091,4.980 7.039 C 5.200 7.023,7.819 7.013,10.800 7.018 C 15.672 7.025,16.248 7.032,16.492 7.091 M9.776 8.023 C 9.520 8.149,9.354 8.398,8.502 9.932 C 8.028 10.785,7.611 11.550,7.576 11.632 C 7.492 11.827,7.493 12.258,7.578 12.462 C 7.615 12.549,7.693 12.672,7.752 12.735 C 7.974 12.971,8.019 12.978,9.464 13.000 L 10.789 13.020 10.530 13.480 C 9.911 14.577,9.800 14.820,9.800 15.071 C 9.800 15.259,9.822 15.340,9.914 15.484 C 10.098 15.774,10.582 16.040,10.926 16.040 C 11.150 16.040,11.317 15.957,11.500 15.756 C 11.716 15.520,13.463 12.364,13.519 12.110 C 13.613 11.682,13.386 11.312,12.892 11.089 C 12.762 11.030,12.558 11.017,11.477 11.000 L 10.214 10.980 10.668 10.160 C 11.148 9.293,11.199 9.168,11.200 8.878 C 11.200 8.321,10.286 7.772,9.776 8.023 M21.614 10.057 C 21.377 10.131,21.212 10.261,21.109 10.453 C 21.023 10.614,21.020 10.665,21.008 11.908 C 21.000 12.720,21.011 13.254,21.038 13.352 C 21.144 13.747,21.432 13.961,21.896 13.991 C 22.381 14.022,22.699 13.882,22.880 13.558 L 22.980 13.380 22.980 12.000 C 22.980 10.650,22.978 10.616,22.891 10.453 C 22.842 10.362,22.746 10.247,22.678 10.199 C 22.414 10.010,21.957 9.950,21.614 10.057 " stroke="none" fill-rule="evenodd" fill="black"></path></svg>