<svg width="24" height="24" viewBox="0 0 24 24" fill="none" xmlns="http://www.w3.org/2000/svg"><path d="M11.136 5.015 C 11.067 5.046,10.945 5.138,10.863 5.219 C 10.697 5.386,6.663 11.416,6.570 11.638 C 6.490 11.826,6.495 12.262,6.578 12.462 C 6.614 12.549,6.701 12.679,6.771 12.751 C 7.007 12.995,7.058 13.000,9.447 13.000 C 10.631 13.000,11.600 13.009,11.600 13.020 C 11.600 13.031,10.930 14.044,10.112 15.270 C 9.294 16.497,8.583 17.599,8.533 17.720 C 8.417 18.000,8.418 18.130,8.537 18.386 C 8.604 18.531,8.696 18.640,8.849 18.755 C 9.341 19.127,9.782 19.136,10.136 18.781 C 10.341 18.576,14.354 12.552,14.467 12.280 C 14.583 12.001,14.582 11.870,14.465 11.618 C 14.371 11.415,14.188 11.240,13.920 11.095 C 13.788 11.025,13.648 11.019,11.590 11.009 C 10.386 11.002,9.400 10.989,9.400 10.978 C 9.400 10.968,10.070 9.956,10.888 8.730 C 11.706 7.503,12.417 6.401,12.467 6.280 C 12.583 6.001,12.582 5.870,12.465 5.618 C 12.251 5.157,11.536 4.834,11.136 5.015 M4.920 5.042 C 4.667 5.058,4.343 5.092,4.200 5.118 C 3.027 5.326,1.999 6.086,1.465 7.141 C 1.225 7.613,1.109 8.072,1.041 8.820 C 0.988 9.396,0.988 15.026,1.041 15.489 C 1.190 16.795,2.019 17.966,3.220 18.570 C 3.606 18.764,4.097 18.912,4.511 18.959 C 4.963 19.011,6.178 19.011,6.365 18.959 C 6.586 18.898,6.770 18.755,6.880 18.558 C 6.967 18.402,6.980 18.332,6.979 18.000 C 6.978 17.572,6.898 17.355,6.686 17.204 C 6.466 17.047,6.349 17.028,5.460 16.997 C 4.726 16.972,4.541 16.953,4.346 16.884 C 3.772 16.681,3.366 16.284,3.128 15.690 L 3.020 15.420 3.020 12.120 C 3.021 9.160,3.028 8.790,3.089 8.528 C 3.186 8.110,3.304 7.896,3.600 7.600 C 4.098 7.101,4.338 7.044,6.100 7.005 C 7.293 6.979,7.391 6.971,7.540 6.893 C 7.874 6.717,7.978 6.505,7.978 6.000 C 7.978 5.686,7.963 5.591,7.890 5.453 C 7.786 5.256,7.623 5.131,7.371 5.055 C 7.169 4.994,5.769 4.987,4.920 5.042 M14.614 5.057 C 14.223 5.180,14.039 5.436,14.009 5.900 C 13.978 6.381,14.119 6.701,14.442 6.879 C 14.611 6.972,14.668 6.979,15.527 7.008 C 16.355 7.036,16.457 7.047,16.700 7.138 C 17.260 7.350,17.638 7.727,17.872 8.310 L 17.980 8.580 17.980 11.880 C 17.979 15.467,17.978 15.488,17.752 15.952 C 17.627 16.210,17.190 16.638,16.920 16.767 C 16.566 16.937,16.302 16.967,14.939 16.994 C 13.666 17.020,13.656 17.021,13.459 17.122 C 13.119 17.297,12.978 17.606,13.009 18.104 C 13.038 18.563,13.250 18.852,13.635 18.959 C 13.973 19.053,16.231 18.995,16.840 18.876 C 18.021 18.647,19.001 17.913,19.536 16.858 C 19.775 16.387,19.891 15.928,19.959 15.180 C 20.012 14.604,20.012 8.974,19.959 8.511 C 19.860 7.648,19.452 6.814,18.819 6.181 C 18.157 5.519,17.332 5.128,16.411 5.041 C 15.810 4.984,14.819 4.993,14.614 5.057 M21.614 10.057 C 21.377 10.131,21.212 10.261,21.109 10.453 C 21.023 10.614,21.020 10.665,21.008 11.908 C 21.000 12.720,21.011 13.254,21.038 13.352 C 21.144 13.747,21.432 13.961,21.896 13.991 C 22.381 14.022,22.699 13.882,22.880 13.558 L 22.980 13.380 22.980 12.000 C 22.980 10.650,22.978 10.616,22.891 10.453 C 22.842 10.362,22.746 10.247,22.678 10.199 C 22.414 10.010,21.957 9.950,21.614 10.057 " stroke="none" fill-rule="evenodd" fill="black"></path></svg>