<svg width="24" height="24" viewBox="0 0 24 24" fill="none" xmlns="http://www.w3.org/2000/svg"><path d="M8.180 1.039 C 7.715 1.159,7.514 1.447,7.512 1.997 C 7.510 2.348,7.582 2.556,7.771 2.751 C 7.938 2.923,8.208 3.000,8.647 3.000 L 9.000 3.000 9.000 4.775 L 9.000 6.551 8.770 6.642 C 8.395 6.790,7.726 7.141,7.340 7.392 C 5.568 8.544,4.240 10.422,3.741 12.484 C 3.422 13.801,3.430 15.286,3.763 16.590 C 4.381 19.004,6.004 21.007,8.243 22.117 C 10.615 23.293,13.385 23.293,15.757 22.117 C 16.661 21.669,17.354 21.163,18.088 20.415 C 19.633 18.841,20.488 16.749,20.489 14.540 C 20.489 13.801,20.437 13.288,20.293 12.640 C 19.826 10.521,18.478 8.574,16.660 7.392 C 16.274 7.141,15.605 6.790,15.230 6.642 L 15.000 6.551 15.000 4.775 L 15.000 3.000 15.353 3.000 C 16.156 3.000,16.486 2.708,16.486 1.997 C 16.486 1.491,16.303 1.196,15.909 1.064 C 15.738 1.007,15.307 1.000,12.009 1.004 C 9.969 1.006,8.246 1.022,8.180 1.039 M13.008 5.130 L 13.020 7.260 13.132 7.500 C 13.336 7.937,13.614 8.152,14.348 8.443 C 15.928 9.068,17.132 10.193,17.878 11.740 C 18.273 12.558,18.438 13.274,18.468 14.300 C 18.495 15.203,18.403 15.865,18.153 16.580 C 17.411 18.704,15.716 20.260,13.540 20.815 C 13.184 20.906,12.404 21.000,12.008 21.000 C 9.477 20.997,7.134 19.495,6.110 17.218 C 5.642 16.177,5.498 15.451,5.532 14.300 C 5.561 13.317,5.719 12.596,6.076 11.825 C 6.799 10.260,8.047 9.080,9.652 8.443 C 10.345 8.168,10.642 7.949,10.832 7.574 C 10.987 7.269,11.000 7.063,11.000 4.998 L 11.000 3.000 11.998 3.000 L 12.996 3.000 13.008 5.130 " stroke="none" fill-rule="evenodd" fill="black"></path></svg>