<svg width="24" height="24" viewBox="0 0 24 24" fill="none" xmlns="http://www.w3.org/2000/svg"><path d="M11.420 1.024 C 10.923 1.077,10.365 1.184,9.960 1.307 C 9.199 1.537,8.180 2.066,7.845 2.404 C 7.477 2.776,7.516 3.285,7.949 3.764 C 8.309 4.163,8.699 4.180,9.259 3.822 C 10.607 2.960,12.205 2.772,13.688 3.301 C 15.239 3.855,16.447 5.197,16.855 6.820 C 16.942 7.165,17.000 7.764,17.000 8.309 C 17.000 9.787,17.221 11.530,17.584 12.920 C 17.740 13.518,17.850 13.742,18.068 13.909 C 18.202 14.011,18.243 14.020,18.557 14.019 C 18.826 14.018,18.944 13.998,19.104 13.926 C 19.406 13.792,19.591 13.583,19.647 13.316 C 19.690 13.110,19.682 13.053,19.527 12.438 C 19.178 11.057,19.070 10.196,19.000 8.240 C 18.953 6.930,18.877 6.465,18.573 5.620 C 17.717 3.240,15.583 1.476,13.100 1.097 C 12.725 1.040,11.698 0.995,11.420 1.024 M2.626 2.045 C 2.420 2.154,2.146 2.433,2.038 2.644 C 1.924 2.868,1.924 3.133,2.040 3.363 C 2.100 3.481,2.628 4.042,3.638 5.060 L 5.147 6.580 5.095 6.860 C 5.066 7.014,5.024 7.563,5.002 8.080 C 4.952 9.258,4.931 9.531,4.837 10.187 C 4.595 11.882,4.198 12.934,3.176 14.600 C 2.576 15.577,2.429 15.844,2.339 16.118 C 2.098 16.858,2.518 17.645,3.294 17.909 C 3.486 17.975,3.931 17.980,10.040 17.991 L 16.580 18.002 18.520 19.937 C 19.853 21.266,20.516 21.899,20.637 21.960 C 20.989 22.137,21.354 22.048,21.701 21.701 C 22.048 21.354,22.137 20.989,21.960 20.637 C 21.900 20.517,21.225 19.807,19.853 18.420 C 18.743 17.298,17.790 16.335,17.735 16.280 C 17.679 16.225,14.490 13.044,10.647 9.212 C 6.804 5.379,3.615 2.209,3.560 2.167 C 3.263 1.941,2.910 1.895,2.626 2.045 M12.077 15.990 C 10.711 15.996,8.489 15.996,7.139 15.990 L 4.683 15.980 5.104 15.280 C 5.591 14.471,5.897 13.855,6.143 13.187 C 6.600 11.948,6.852 10.703,6.964 9.127 L 7.014 8.434 10.787 12.207 L 14.560 15.980 12.077 15.990 M8.970 20.044 C 8.876 20.091,8.725 20.212,8.635 20.314 C 8.168 20.844,8.192 21.304,8.709 21.760 C 9.587 22.532,10.827 23.000,12.000 23.000 C 13.167 23.000,14.427 22.525,15.291 21.761 C 15.807 21.304,15.830 20.842,15.364 20.313 C 15.162 20.085,14.917 19.960,14.670 19.960 C 14.412 19.960,14.313 20.006,13.892 20.324 C 13.231 20.823,12.782 20.978,12.000 20.978 C 11.218 20.978,10.769 20.823,10.108 20.324 C 9.905 20.171,9.688 20.026,9.627 20.003 C 9.446 19.934,9.156 19.952,8.970 20.044 " stroke="none" fill-rule="evenodd" fill="black"></path></svg>