<svg width="24" height="24" viewBox="0 0 24 24" fill="none" xmlns="http://www.w3.org/2000/svg"><path d="M11.540 1.023 C 10.475 1.126,9.878 1.282,9.020 1.681 C 7.126 2.562,5.714 4.286,5.203 6.340 C 5.093 6.782,5.000 7.532,5.000 7.973 C 5.000 8.914,4.860 10.270,4.679 11.085 C 4.397 12.356,4.037 13.198,3.176 14.600 C 2.576 15.577,2.429 15.844,2.339 16.118 C 2.098 16.858,2.517 17.645,3.294 17.910 C 3.487 17.976,4.002 17.981,11.760 17.991 C 17.147 17.999,20.136 17.989,20.354 17.962 C 20.933 17.892,21.317 17.651,21.551 17.211 C 21.701 16.927,21.765 16.603,21.720 16.359 C 21.648 15.979,21.549 15.788,20.683 14.362 C 19.932 13.126,19.591 12.305,19.321 11.087 C 19.139 10.264,19.061 9.541,19.000 8.120 C 18.949 6.918,18.867 6.437,18.573 5.620 C 17.719 3.245,15.589 1.480,13.120 1.102 C 12.727 1.041,11.820 0.996,11.540 1.023 M12.552 3.042 C 14.626 3.269,16.341 4.775,16.855 6.820 C 16.940 7.157,17.000 7.761,17.000 8.270 C 17.000 9.159,17.151 10.544,17.342 11.409 C 17.671 12.899,18.086 13.933,18.896 15.280 L 19.317 15.980 15.658 15.990 C 13.646 15.996,10.354 15.996,8.342 15.990 L 4.683 15.980 5.104 15.280 C 5.920 13.923,6.364 12.805,6.678 11.320 C 6.856 10.478,6.999 9.134,6.999 8.288 C 7.000 7.761,7.060 7.160,7.145 6.820 C 7.602 5.002,9.026 3.585,10.840 3.141 C 11.374 3.011,11.954 2.977,12.552 3.042 M9.614 20.057 C 9.377 20.131,9.212 20.261,9.109 20.453 C 9.035 20.592,9.020 20.684,9.020 21.000 C 9.020 21.331,9.033 21.403,9.120 21.558 C 9.230 21.755,9.414 21.898,9.635 21.959 C 9.724 21.984,10.635 22.000,12.000 22.000 C 13.365 22.000,14.276 21.984,14.365 21.959 C 14.586 21.898,14.770 21.755,14.880 21.558 C 14.967 21.402,14.980 21.332,14.979 21.000 C 14.978 20.567,14.898 20.355,14.678 20.199 C 14.406 20.005,14.336 20.000,11.984 20.003 C 10.293 20.005,9.741 20.017,9.614 20.057 " stroke="none" fill-rule="evenodd" fill="black"></path></svg>