<svg width="24" height="24" viewBox="0 0 24 24" fill="none" xmlns="http://www.w3.org/2000/svg"><path d="M11.540 1.026 C 9.770 1.166,8.290 1.837,7.065 3.054 C 5.760 4.352,5.000 6.162,5.000 7.973 C 5.000 8.914,4.860 10.270,4.679 11.085 C 4.397 12.356,4.037 13.198,3.176 14.600 C 2.576 15.577,2.429 15.844,2.339 16.118 C 2.098 16.858,2.517 17.645,3.294 17.910 C 3.487 17.976,4.002 17.981,11.760 17.991 C 17.147 17.999,20.136 17.989,20.354 17.962 C 20.933 17.892,21.317 17.651,21.551 17.211 C 21.703 16.923,21.765 16.604,21.718 16.350 C 21.650 15.989,21.525 15.748,20.688 14.369 C 20.020 13.271,19.768 12.701,19.436 11.546 C 19.185 10.671,19.021 10.496,18.460 10.504 C 17.817 10.514,17.361 10.886,17.360 11.400 C 17.360 11.558,17.542 12.267,17.716 12.789 C 18.042 13.763,18.379 14.459,19.038 15.520 L 19.324 15.980 15.662 15.990 C 13.648 15.996,10.354 15.996,8.342 15.990 L 4.683 15.980 5.104 15.280 C 5.920 13.923,6.364 12.805,6.678 11.320 C 6.856 10.478,6.999 9.134,6.999 8.288 C 7.000 7.761,7.060 7.160,7.145 6.820 C 7.600 5.009,9.001 3.609,10.822 3.144 C 11.267 3.030,11.991 2.982,12.469 3.033 C 13.111 3.103,13.314 3.095,13.521 2.990 C 13.811 2.844,14.000 2.461,14.000 2.023 C 13.999 1.550,13.811 1.293,13.369 1.162 C 12.959 1.041,12.131 0.979,11.540 1.026 M17.614 1.057 C 17.377 1.131,17.212 1.261,17.109 1.453 C 17.024 1.613,17.020 1.668,17.008 2.810 L 16.996 4.000 15.904 4.000 C 14.744 4.000,14.570 4.022,14.322 4.199 C 14.100 4.357,14.020 4.568,14.020 5.000 C 14.020 5.331,14.033 5.403,14.120 5.558 C 14.230 5.755,14.414 5.898,14.635 5.959 C 14.716 5.982,15.270 6.000,15.890 6.000 L 17.000 6.000 17.000 7.110 C 17.000 7.730,17.018 8.284,17.041 8.365 C 17.148 8.750,17.437 8.962,17.896 8.991 C 18.381 9.022,18.699 8.882,18.880 8.558 C 18.979 8.381,18.980 8.374,18.993 7.190 L 19.005 6.000 20.113 6.000 C 20.731 6.000,21.284 5.982,21.365 5.959 C 21.586 5.898,21.770 5.755,21.880 5.558 C 21.967 5.402,21.980 5.332,21.979 5.000 C 21.978 4.567,21.898 4.355,21.678 4.199 C 21.430 4.022,21.256 4.000,20.096 4.000 L 19.005 4.000 18.993 2.810 C 18.981 1.669,18.976 1.613,18.891 1.453 C 18.842 1.362,18.746 1.247,18.678 1.199 C 18.414 1.010,17.957 0.950,17.614 1.057 M8.970 20.044 C 8.876 20.091,8.725 20.212,8.635 20.314 C 8.168 20.844,8.192 21.304,8.709 21.760 C 9.587 22.532,10.827 23.000,12.000 23.000 C 13.167 23.000,14.427 22.525,15.291 21.761 C 15.807 21.304,15.830 20.842,15.364 20.313 C 15.162 20.085,14.917 19.960,14.670 19.960 C 14.412 19.960,14.313 20.006,13.892 20.324 C 13.231 20.823,12.782 20.978,12.000 20.978 C 11.218 20.978,10.769 20.823,10.108 20.324 C 9.905 20.171,9.688 20.026,9.627 20.003 C 9.446 19.934,9.156 19.952,8.970 20.044 " stroke="none" fill-rule="evenodd" fill="black"></path></svg>