<svg width="24" height="24" viewBox="0 0 24 24" fill="none" xmlns="http://www.w3.org/2000/svg"><path d="M11.405 1.058 C 10.175 1.292,9.187 2.098,8.745 3.227 C 8.472 3.925,8.430 4.814,8.637 5.481 L 8.711 5.719 8.406 5.887 C 6.795 6.773,5.722 8.035,5.238 9.613 C 5.089 10.100,5.041 10.444,5.000 11.330 C 4.904 13.381,4.592 14.588,3.813 15.920 C 2.745 17.747,2.640 17.949,2.563 18.322 C 2.477 18.743,2.636 19.203,2.993 19.559 C 3.183 19.750,3.277 19.809,3.503 19.884 C 3.776 19.975,3.812 19.977,5.952 19.991 C 7.944 20.004,8.126 20.011,8.146 20.073 C 8.545 21.336,9.356 22.238,10.512 22.704 C 11.231 22.994,12.023 23.070,12.757 22.921 C 14.127 22.641,15.230 21.723,15.711 20.460 C 15.778 20.284,15.842 20.110,15.854 20.073 C 15.874 20.011,16.056 20.004,18.048 19.991 C 20.188 19.977,20.224 19.975,20.497 19.884 C 21.125 19.676,21.568 18.938,21.436 18.318 C 21.367 17.990,21.228 17.712,20.559 16.559 C 19.896 15.416,19.716 15.056,19.505 14.447 C 19.210 13.600,19.064 12.700,19.000 11.330 C 18.959 10.444,18.911 10.100,18.762 9.613 C 18.278 8.035,17.205 6.773,15.594 5.887 L 15.289 5.719 15.363 5.481 C 15.565 4.830,15.532 3.986,15.275 3.280 C 14.901 2.250,13.960 1.401,12.880 1.118 C 12.480 1.013,11.788 0.985,11.405 1.058 M12.367 3.055 C 12.820 3.161,13.228 3.528,13.397 3.981 C 13.493 4.238,13.506 4.732,13.423 4.960 C 13.364 5.120,13.444 5.113,12.570 5.039 C 12.127 5.002,11.873 5.002,11.430 5.039 C 10.556 5.113,10.636 5.120,10.577 4.960 C 10.494 4.732,10.507 4.238,10.603 3.981 C 10.871 3.265,11.611 2.877,12.367 3.055 M4.354 3.816 C 4.051 3.924,3.582 4.234,3.202 4.577 C 2.171 5.508,1.559 6.847,1.560 8.175 C 1.560 8.672,1.605 8.840,1.788 9.043 C 1.978 9.254,2.262 9.339,2.673 9.308 C 3.061 9.279,3.293 9.144,3.430 8.867 C 3.507 8.714,3.534 8.575,3.561 8.186 C 3.602 7.612,3.723 7.181,3.949 6.809 C 4.265 6.289,4.478 6.074,5.098 5.650 C 5.480 5.390,5.613 5.193,5.613 4.891 C 5.613 4.617,5.506 4.348,5.292 4.088 C 5.050 3.792,4.702 3.691,4.354 3.816 M19.017 3.833 C 18.687 3.988,18.387 4.489,18.387 4.885 C 18.387 5.193,18.518 5.388,18.902 5.650 C 19.522 6.074,19.735 6.289,20.051 6.809 C 20.275 7.178,20.398 7.612,20.439 8.179 C 20.476 8.686,20.530 8.873,20.691 9.047 C 20.844 9.212,21.025 9.285,21.337 9.309 C 21.737 9.339,22.024 9.252,22.212 9.043 C 22.395 8.840,22.440 8.672,22.440 8.175 C 22.441 6.469,21.427 4.772,19.910 3.941 C 19.570 3.754,19.264 3.717,19.017 3.833 M12.954 7.081 C 13.093 7.104,13.282 7.150,13.374 7.184 C 13.465 7.217,13.649 7.269,13.783 7.299 C 14.584 7.477,15.727 8.272,16.263 9.022 C 16.786 9.755,16.999 10.462,17.001 11.473 C 17.002 11.955,17.086 12.858,17.182 13.410 C 17.427 14.826,17.815 15.839,18.672 17.300 L 19.071 17.980 15.536 17.990 C 13.591 17.996,10.409 17.996,8.464 17.990 L 4.929 17.980 5.328 17.300 C 6.095 15.991,6.452 15.126,6.716 13.940 C 6.879 13.203,6.998 12.170,6.999 11.473 C 7.001 10.462,7.214 9.755,7.737 9.022 C 8.275 8.267,9.432 7.466,10.220 7.301 C 10.356 7.273,10.501 7.232,10.544 7.210 C 10.898 7.027,12.196 6.957,12.954 7.081 M13.652 20.124 C 13.546 20.306,13.143 20.667,12.917 20.781 C 12.809 20.836,12.618 20.908,12.492 20.940 C 12.043 21.057,11.508 20.997,11.083 20.781 C 10.857 20.667,10.454 20.306,10.348 20.124 L 10.275 20.000 12.000 20.000 L 13.725 20.000 13.652 20.124 " stroke="none" fill-rule="evenodd" fill="black"></path></svg>