<svg width="24" height="24" viewBox="0 0 24 24" fill="none" xmlns="http://www.w3.org/2000/svg"><path d="M11.540 1.023 C 10.475 1.126,9.878 1.282,9.020 1.681 C 7.126 2.562,5.714 4.286,5.203 6.340 C 5.093 6.782,5.000 7.532,5.000 7.973 C 5.000 8.913,4.861 10.267,4.679 11.085 C 4.410 12.302,4.065 13.131,3.311 14.372 C 2.386 15.894,2.274 16.125,2.270 16.522 C 2.263 17.140,2.675 17.698,3.294 17.910 C 3.487 17.976,4.002 17.981,11.760 17.991 C 17.147 17.999,20.136 17.989,20.354 17.962 C 20.933 17.892,21.317 17.651,21.551 17.211 C 21.701 16.927,21.766 16.603,21.719 16.360 C 21.644 15.965,21.568 15.818,20.688 14.369 C 19.934 13.130,19.593 12.309,19.321 11.085 C 19.140 10.270,19.000 8.914,19.000 7.973 C 19.000 7.230,18.845 6.374,18.573 5.620 C 17.718 3.244,15.589 1.480,13.120 1.102 C 12.727 1.041,11.820 0.996,11.540 1.023 M4.240 1.279 C 3.852 1.362,3.300 1.730,2.776 2.255 C 1.828 3.206,1.317 4.388,1.304 5.660 C 1.299 6.177,1.368 6.408,1.582 6.596 C 1.857 6.838,2.441 6.887,2.822 6.701 C 3.159 6.536,3.241 6.364,3.304 5.695 C 3.376 4.930,3.484 4.605,3.848 4.069 C 4.058 3.759,4.351 3.482,4.759 3.207 C 4.944 3.082,5.150 2.912,5.215 2.829 C 5.459 2.523,5.379 1.975,5.034 1.583 C 4.791 1.307,4.548 1.214,4.240 1.279 M19.420 1.278 C 19.240 1.320,19.148 1.380,18.988 1.556 C 18.795 1.770,18.681 2.003,18.653 2.239 C 18.601 2.673,18.719 2.862,19.278 3.240 C 20.167 3.841,20.592 4.562,20.682 5.620 C 20.731 6.207,20.783 6.383,20.960 6.560 C 21.303 6.903,22.097 6.903,22.440 6.560 C 22.639 6.361,22.697 6.159,22.694 5.680 C 22.685 4.190,21.921 2.699,20.701 1.790 C 20.150 1.379,19.720 1.207,19.420 1.278 M12.552 3.042 C 14.626 3.269,16.341 4.775,16.855 6.820 C 16.940 7.160,17.000 7.761,17.001 8.288 C 17.001 9.134,17.144 10.478,17.322 11.320 C 17.636 12.805,18.080 13.923,18.896 15.280 L 19.317 15.980 15.658 15.990 C 13.646 15.996,10.354 15.996,8.342 15.990 L 4.683 15.980 5.104 15.280 C 5.920 13.923,6.364 12.805,6.678 11.320 C 6.856 10.478,6.999 9.134,6.999 8.288 C 7.000 7.761,7.060 7.160,7.145 6.820 C 7.602 5.002,9.026 3.585,10.840 3.141 C 11.374 3.011,11.954 2.977,12.552 3.042 M8.970 20.044 C 8.624 20.216,8.306 20.682,8.304 21.022 C 8.302 21.384,8.551 21.693,9.196 22.130 C 10.895 23.281,13.105 23.281,14.804 22.130 C 15.795 21.459,15.945 20.973,15.364 20.313 C 15.162 20.085,14.917 19.960,14.670 19.960 C 14.412 19.960,14.313 20.006,13.892 20.324 C 13.231 20.823,12.782 20.978,12.000 20.978 C 11.218 20.978,10.769 20.823,10.108 20.324 C 9.905 20.171,9.688 20.026,9.627 20.003 C 9.446 19.934,9.156 19.952,8.970 20.044 " stroke="none" fill-rule="evenodd" fill="black"></path></svg>