<svg width="24" height="24" viewBox="0 0 24 24" fill="none" xmlns="http://www.w3.org/2000/svg"><path d="M11.540 1.023 C 10.475 1.126,9.878 1.282,9.020 1.681 C 7.126 2.562,5.714 4.286,5.203 6.340 C 5.093 6.782,5.000 7.532,5.000 7.973 C 5.000 8.913,4.861 10.267,4.679 11.085 C 4.410 12.302,4.065 13.131,3.311 14.372 C 2.386 15.894,2.274 16.125,2.270 16.522 C 2.263 17.151,2.688 17.716,3.315 17.910 C 3.526 17.976,4.072 17.980,12.000 17.980 C 19.928 17.980,20.474 17.976,20.685 17.910 C 21.506 17.656,21.927 16.822,21.628 16.040 C 21.511 15.733,21.405 15.544,20.800 14.560 C 19.970 13.210,19.597 12.334,19.321 11.085 C 19.139 10.267,19.000 8.913,19.000 7.973 C 19.000 7.230,18.845 6.374,18.573 5.620 C 17.718 3.244,15.589 1.480,13.120 1.102 C 12.727 1.041,11.820 0.996,11.540 1.023 M4.240 1.279 C 3.852 1.362,3.300 1.730,2.776 2.255 C 1.828 3.206,1.317 4.388,1.304 5.660 C 1.299 6.177,1.368 6.408,1.582 6.596 C 1.857 6.838,2.441 6.887,2.822 6.701 C 3.159 6.536,3.241 6.364,3.304 5.695 C 3.376 4.930,3.484 4.605,3.848 4.069 C 4.058 3.759,4.351 3.482,4.759 3.207 C 4.944 3.082,5.150 2.912,5.215 2.829 C 5.459 2.523,5.379 1.975,5.034 1.583 C 4.791 1.307,4.548 1.214,4.240 1.279 M19.420 1.278 C 19.240 1.320,19.148 1.380,18.988 1.556 C 18.795 1.770,18.681 2.003,18.653 2.239 C 18.601 2.673,18.719 2.862,19.278 3.240 C 20.167 3.841,20.592 4.562,20.682 5.620 C 20.731 6.207,20.783 6.383,20.960 6.560 C 21.303 6.903,22.097 6.903,22.440 6.560 C 22.639 6.361,22.697 6.159,22.694 5.680 C 22.685 4.190,21.921 2.699,20.701 1.790 C 20.150 1.379,19.720 1.207,19.420 1.278 M12.552 3.042 C 14.626 3.269,16.341 4.775,16.855 6.820 C 16.940 7.160,17.000 7.761,17.001 8.288 C 17.001 9.134,17.144 10.478,17.322 11.320 C 17.636 12.805,18.080 13.923,18.896 15.280 L 19.317 15.980 15.658 15.990 C 13.646 15.996,10.354 15.996,8.342 15.990 L 4.683 15.980 5.104 15.280 C 5.920 13.923,6.364 12.805,6.678 11.320 C 6.856 10.478,6.999 9.134,6.999 8.288 C 7.000 7.761,7.060 7.160,7.145 6.820 C 7.602 5.002,9.026 3.585,10.840 3.141 C 11.374 3.011,11.954 2.977,12.552 3.042 M9.614 20.057 C 9.377 20.132,9.212 20.261,9.110 20.453 C 9.038 20.591,9.022 20.687,9.021 21.000 C 9.020 21.332,9.033 21.402,9.120 21.558 C 9.230 21.755,9.414 21.898,9.635 21.959 C 9.724 21.984,10.635 22.000,12.000 22.000 C 13.365 22.000,14.276 21.984,14.365 21.959 C 14.586 21.898,14.770 21.755,14.880 21.558 C 14.967 21.403,14.980 21.331,14.980 21.000 C 14.980 20.684,14.965 20.592,14.891 20.453 C 14.785 20.256,14.622 20.131,14.371 20.055 C 14.112 19.977,9.864 19.979,9.614 20.057 " stroke="none" fill-rule="evenodd" fill="black"></path></svg>