<svg width="24" height="24" viewBox="0 0 24 24" fill="none" xmlns="http://www.w3.org/2000/svg"><path d="M8.614 1.055 C 8.375 1.133,8.211 1.262,8.109 1.453 L 8.020 1.620 8.000 5.735 L 7.980 9.850 5.751 7.993 C 4.525 6.971,3.443 6.096,3.347 6.048 C 3.142 5.945,2.862 5.933,2.659 6.018 C 2.472 6.096,2.134 6.441,2.039 6.650 C 1.920 6.912,1.934 7.223,2.074 7.444 C 2.155 7.572,2.919 8.232,4.794 9.795 C 6.227 10.989,7.400 11.982,7.400 12.000 C 7.400 12.018,6.227 13.011,4.794 14.205 C 2.919 15.768,2.155 16.428,2.074 16.556 C 1.861 16.891,1.935 17.304,2.275 17.687 C 2.578 18.028,2.966 18.132,3.327 17.968 C 3.422 17.925,4.508 17.048,5.740 16.020 L 7.980 14.150 8.000 18.225 L 8.020 22.300 8.128 22.485 C 8.414 22.970,8.895 23.164,9.327 22.968 C 9.499 22.889,15.556 17.874,15.774 17.628 C 16.064 17.303,16.125 16.870,15.926 16.556 C 15.845 16.428,15.081 15.768,13.206 14.205 C 11.773 13.011,10.600 12.018,10.600 12.000 C 10.600 11.982,11.765 10.994,13.190 9.806 C 14.615 8.618,15.819 7.586,15.868 7.513 C 16.076 7.197,16.102 6.852,15.937 6.571 C 15.859 6.438,15.093 5.778,12.713 3.794 C 10.996 2.363,9.529 1.156,9.453 1.111 C 9.278 1.007,8.847 0.979,8.614 1.055 M11.750 5.592 C 12.658 6.348,13.400 6.982,13.400 7.000 C 13.400 7.029,10.178 9.736,10.050 9.814 C 10.010 9.838,10.000 9.265,10.000 7.000 C 10.000 4.735,10.010 4.162,10.050 4.186 C 10.078 4.203,10.842 4.835,11.750 5.592 M14.614 11.055 C 14.220 11.184,14.039 11.437,14.009 11.900 C 13.978 12.381,14.119 12.699,14.442 12.880 C 14.597 12.967,14.669 12.980,15.000 12.980 C 15.312 12.980,15.408 12.964,15.540 12.894 C 15.866 12.718,16.000 12.459,16.000 12.000 C 16.000 11.357,15.713 11.048,15.083 11.016 C 14.893 11.006,14.718 11.021,14.614 11.055 M17.614 11.055 C 17.220 11.184,17.039 11.437,17.009 11.900 C 16.978 12.381,17.119 12.699,17.442 12.880 C 17.597 12.967,17.669 12.980,18.000 12.980 C 18.312 12.980,18.408 12.964,18.540 12.894 C 18.866 12.718,19.000 12.459,19.000 12.000 C 19.000 11.357,18.713 11.048,18.083 11.016 C 17.893 11.006,17.718 11.021,17.614 11.055 M20.614 11.055 C 20.220 11.184,20.039 11.437,20.009 11.900 C 19.978 12.381,20.119 12.699,20.442 12.880 C 20.597 12.967,20.669 12.980,21.000 12.980 C 21.312 12.980,21.408 12.964,21.540 12.894 C 21.866 12.718,22.000 12.459,22.000 12.000 C 22.000 11.357,21.713 11.048,21.083 11.016 C 20.893 11.006,20.718 11.021,20.614 11.055 M11.750 15.592 C 12.658 16.348,13.400 16.982,13.400 17.000 C 13.400 17.029,10.178 19.736,10.050 19.814 C 10.010 19.838,10.000 19.265,10.000 17.000 C 10.000 14.735,10.010 14.162,10.050 14.186 C 10.078 14.203,10.842 14.835,11.750 15.592 " stroke="none" fill-rule="evenodd" fill="black"></path></svg>