<svg width="24" height="24" viewBox="0 0 24 24" fill="none" xmlns="http://www.w3.org/2000/svg"><path d="M11.614 1.055 C 11.375 1.133,11.211 1.262,11.109 1.453 L 11.020 1.620 11.009 4.412 C 11.002 6.226,11.012 7.257,11.039 7.356 C 11.144 7.747,11.433 7.961,11.896 7.991 C 12.381 8.022,12.699 7.882,12.880 7.558 L 12.980 7.380 13.000 5.765 L 13.020 4.150 14.710 5.558 C 15.639 6.333,16.400 6.982,16.400 7.000 C 16.400 7.018,15.922 7.432,15.337 7.919 C 14.148 8.912,14.040 9.034,14.040 9.389 C 14.040 9.901,14.575 10.481,15.045 10.480 C 15.146 10.479,15.305 10.439,15.420 10.384 C 15.618 10.290,18.548 7.883,18.774 7.628 C 19.057 7.311,19.122 6.887,18.937 6.571 C 18.859 6.438,18.093 5.778,15.713 3.794 C 13.996 2.363,12.529 1.156,12.453 1.111 C 12.278 1.007,11.847 0.979,11.614 1.055 M2.626 2.045 C 2.420 2.154,2.146 2.433,2.038 2.644 C 1.924 2.867,1.924 3.132,2.039 3.363 C 2.102 3.489,3.331 4.745,6.322 7.740 L 10.516 11.940 7.852 14.158 C 5.930 15.759,5.156 16.427,5.074 16.556 C 4.861 16.891,4.935 17.304,5.275 17.687 C 5.578 18.028,5.966 18.132,6.327 17.968 C 6.422 17.925,7.508 17.048,8.740 16.020 L 10.980 14.150 11.000 18.265 L 11.020 22.380 11.120 22.558 C 11.298 22.876,11.625 23.024,12.069 22.989 C 12.215 22.978,12.374 22.936,12.455 22.888 C 12.531 22.844,13.671 21.908,14.990 20.808 L 17.388 18.809 18.924 20.340 C 19.960 21.372,20.518 21.900,20.637 21.960 C 20.989 22.137,21.354 22.048,21.701 21.701 C 22.047 21.355,22.136 20.990,21.961 20.637 C 21.839 20.392,3.616 2.165,3.372 2.044 C 3.152 1.934,2.834 1.935,2.626 2.045 M14.495 15.915 L 15.970 17.390 14.535 18.587 C 13.746 19.245,13.078 19.797,13.050 19.814 C 13.010 19.839,13.000 19.294,13.000 17.142 C 13.000 15.656,13.005 14.440,13.010 14.440 C 13.016 14.440,13.684 15.104,14.495 15.915 " stroke="none" fill-rule="evenodd" fill="black"></path></svg>