<svg width="24" height="24" viewBox="0 0 24 24" fill="none" xmlns="http://www.w3.org/2000/svg"><path d="M11.614 1.055 C 11.375 1.133,11.211 1.262,11.109 1.453 L 11.020 1.620 11.000 5.735 L 10.980 9.850 8.751 7.993 C 7.525 6.971,6.443 6.096,6.347 6.048 C 6.142 5.945,5.862 5.933,5.659 6.018 C 5.472 6.096,5.134 6.441,5.039 6.650 C 4.920 6.912,4.934 7.223,5.074 7.444 C 5.155 7.572,5.919 8.232,7.794 9.795 C 9.227 10.989,10.400 11.982,10.400 12.000 C 10.400 12.018,9.227 13.011,7.794 14.205 C 5.919 15.768,5.155 16.428,5.074 16.556 C 4.861 16.891,4.935 17.304,5.275 17.687 C 5.578 18.028,5.966 18.132,6.327 17.968 C 6.422 17.925,7.508 17.048,8.740 16.020 L 10.980 14.150 11.000 18.225 L 11.020 22.300 11.128 22.485 C 11.414 22.970,11.895 23.164,12.327 22.968 C 12.499 22.889,18.556 17.874,18.774 17.628 C 19.064 17.303,19.125 16.870,18.926 16.556 C 18.845 16.428,18.081 15.768,16.206 14.205 C 14.773 13.011,13.600 12.018,13.600 12.000 C 13.600 11.982,14.765 10.994,16.190 9.806 C 17.614 8.618,18.819 7.586,18.868 7.513 C 19.076 7.197,19.102 6.852,18.937 6.571 C 18.859 6.438,18.093 5.778,15.713 3.794 C 13.996 2.363,12.529 1.156,12.453 1.111 C 12.278 1.007,11.847 0.979,11.614 1.055 M14.750 5.592 C 15.658 6.348,16.400 6.982,16.400 7.000 C 16.400 7.029,13.178 9.736,13.050 9.814 C 13.010 9.838,13.000 9.265,13.000 7.000 C 13.000 4.735,13.010 4.162,13.050 4.186 C 13.078 4.203,13.843 4.835,14.750 5.592 M14.750 15.592 C 15.658 16.348,16.400 16.982,16.400 17.000 C 16.400 17.029,13.178 19.736,13.050 19.814 C 13.010 19.838,13.000 19.265,13.000 17.000 C 13.000 14.735,13.010 14.162,13.050 14.186 C 13.078 14.203,13.843 14.835,14.750 15.592 " stroke="none" fill-rule="evenodd" fill="black"></path></svg>