<svg width="24" height="24" viewBox="0 0 24 24" fill="none" xmlns="http://www.w3.org/2000/svg"><path d="M7.614 1.055 C 7.375 1.133,7.211 1.262,7.109 1.453 L 7.020 1.620 7.000 5.735 L 6.980 9.850 4.751 7.993 C 3.525 6.971,2.443 6.096,2.347 6.048 C 2.142 5.945,1.862 5.933,1.659 6.018 C 1.472 6.096,1.134 6.441,1.039 6.650 C 0.920 6.912,0.934 7.223,1.074 7.444 C 1.155 7.572,1.919 8.232,3.794 9.795 C 5.227 10.989,6.400 11.982,6.400 12.000 C 6.400 12.018,5.227 13.011,3.794 14.205 C 1.919 15.768,1.155 16.428,1.074 16.556 C 0.861 16.891,0.935 17.304,1.275 17.687 C 1.578 18.028,1.966 18.132,2.327 17.968 C 2.422 17.925,3.508 17.048,4.740 16.020 L 6.980 14.150 7.000 18.225 L 7.020 22.300 7.128 22.485 C 7.414 22.970,7.895 23.164,8.327 22.968 C 8.499 22.889,14.556 17.874,14.774 17.628 C 15.064 17.303,15.125 16.870,14.926 16.556 C 14.845 16.428,14.081 15.768,12.206 14.205 C 10.773 13.011,9.600 12.018,9.600 12.000 C 9.600 11.982,10.765 10.994,12.190 9.806 C 13.615 8.618,14.819 7.586,14.868 7.513 C 15.076 7.197,15.102 6.852,14.937 6.571 C 14.859 6.438,14.093 5.778,11.713 3.794 C 9.996 2.363,8.529 1.156,8.453 1.111 C 8.278 1.007,7.847 0.979,7.614 1.055 M10.750 5.592 C 11.658 6.348,12.400 6.982,12.400 7.000 C 12.400 7.029,9.178 9.736,9.050 9.814 C 9.010 9.838,9.000 9.265,9.000 7.000 C 9.000 4.735,9.010 4.162,9.050 4.186 C 9.078 4.203,9.842 4.835,10.750 5.592 M19.920 5.503 C 19.549 5.621,19.203 5.957,19.116 6.285 C 19.049 6.533,19.134 6.784,19.436 7.235 C 19.848 7.851,20.182 8.494,20.403 9.096 C 21.064 10.898,21.064 13.102,20.403 14.904 C 20.179 15.514,19.896 16.059,19.438 16.760 C 18.993 17.443,18.980 17.745,19.378 18.142 C 19.842 18.606,20.343 18.675,20.729 18.328 C 21.111 17.984,21.932 16.537,22.256 15.636 C 22.714 14.363,22.896 13.329,22.896 12.000 C 22.896 10.671,22.714 9.637,22.256 8.364 C 21.927 7.449,21.098 5.993,20.724 5.673 C 20.575 5.545,20.301 5.435,20.152 5.443 C 20.124 5.444,20.019 5.471,19.920 5.503 M16.840 7.837 C 16.521 7.934,16.159 8.215,16.042 8.456 C 15.877 8.796,15.933 9.038,16.320 9.660 C 16.690 10.256,16.901 10.899,16.952 11.593 C 17.029 12.634,16.822 13.532,16.320 14.340 C 16.031 14.805,15.963 14.964,15.961 15.177 C 15.959 15.564,16.211 15.881,16.697 16.104 C 17.135 16.304,17.493 16.164,17.859 15.648 C 18.122 15.278,18.512 14.501,18.655 14.060 C 19.275 12.159,19.002 10.064,17.925 8.453 C 17.564 7.915,17.223 7.721,16.840 7.837 M10.750 15.592 C 11.658 16.348,12.400 16.982,12.400 17.000 C 12.400 17.029,9.178 19.736,9.050 19.814 C 9.010 19.838,9.000 19.265,9.000 17.000 C 9.000 14.735,9.010 14.162,9.050 14.186 C 9.078 14.203,9.842 14.835,10.750 15.592 " stroke="none" fill-rule="evenodd" fill="black"></path></svg>