<svg width="24" height="24" viewBox="0 0 24 24" fill="none" xmlns="http://www.w3.org/2000/svg"><path d="M5.920 2.041 C 5.151 2.092,4.672 2.205,4.180 2.451 C 3.089 2.996,2.357 3.961,2.124 5.160 C 2.013 5.729,2.000 6.455,2.000 12.000 C 2.000 18.358,2.006 18.526,2.245 19.320 C 2.577 20.422,3.578 21.423,4.680 21.755 C 5.474 21.994,5.642 22.000,12.000 22.000 C 18.358 22.000,18.526 21.994,19.320 21.755 C 20.422 21.423,21.423 20.422,21.755 19.320 C 21.994 18.526,22.000 18.358,22.000 12.000 C 22.000 5.642,21.994 5.474,21.755 4.680 C 21.424 3.581,20.465 2.622,19.320 2.246 C 18.644 2.024,18.800 2.029,12.340 2.019 C 9.062 2.014,6.173 2.024,5.920 2.041 M18.492 4.091 C 18.894 4.188,19.109 4.309,19.400 4.600 C 19.696 4.895,19.814 5.109,19.912 5.528 C 19.975 5.797,19.980 6.313,19.980 12.000 C 19.980 17.687,19.975 18.203,19.912 18.472 C 19.814 18.891,19.696 19.104,19.400 19.401 C 19.101 19.701,18.820 19.851,18.418 19.928 C 18.010 20.005,5.990 20.005,5.582 19.927 C 5.170 19.850,4.898 19.704,4.600 19.403 C 4.303 19.104,4.186 18.890,4.088 18.472 C 4.025 18.203,4.020 17.687,4.020 12.000 C 4.020 6.313,4.025 5.797,4.088 5.528 C 4.175 5.155,4.294 4.918,4.520 4.667 C 4.883 4.262,5.282 4.091,5.980 4.039 C 6.200 4.023,9.044 4.013,12.300 4.018 C 17.643 4.024,18.247 4.032,18.492 4.091 M8.180 6.038 C 7.857 6.124,7.655 6.301,7.554 6.587 C 7.473 6.816,7.474 17.186,7.555 17.415 C 7.641 17.659,7.857 17.870,8.092 17.940 C 8.384 18.027,14.158 18.030,14.606 17.943 C 16.034 17.668,17.094 16.646,17.420 15.231 C 17.509 14.847,17.509 14.153,17.420 13.769 C 17.232 12.953,16.798 12.260,16.160 11.756 C 16.017 11.643,15.894 11.545,15.887 11.539 C 15.880 11.533,15.946 11.395,16.034 11.234 C 16.358 10.642,16.488 10.144,16.488 9.500 C 16.487 8.129,15.749 6.961,14.505 6.362 C 13.787 6.016,13.898 6.026,10.920 6.016 C 9.479 6.011,8.246 6.021,8.180 6.038 M13.344 8.053 C 13.810 8.151,14.223 8.517,14.401 8.990 C 14.523 9.317,14.502 9.807,14.352 10.129 C 14.235 10.380,13.931 10.711,13.716 10.822 C 13.394 10.989,13.255 10.999,11.350 11.000 L 9.520 11.000 9.520 9.500 L 9.520 8.000 11.310 8.001 C 12.607 8.001,13.167 8.016,13.344 8.053 M14.344 13.053 C 14.810 13.151,15.223 13.517,15.401 13.990 C 15.523 14.317,15.502 14.807,15.352 15.129 C 15.235 15.380,14.931 15.711,14.716 15.822 C 14.386 15.993,14.284 15.999,11.850 16.000 L 9.520 16.000 9.520 14.500 L 9.520 13.000 11.810 13.001 C 13.513 13.001,14.163 13.015,14.344 13.053 " stroke="none" fill-rule="evenodd" fill="black"></path></svg>