<svg width="24" height="24" viewBox="0 0 24 24" fill="none" xmlns="http://www.w3.org/2000/svg"><path d="M7.920 2.040 C 7.667 2.057,7.343 2.092,7.200 2.118 C 6.027 2.326,4.999 3.086,4.465 4.141 C 4.225 4.613,4.109 5.072,4.041 5.820 C 3.985 6.421,3.985 21.166,4.041 21.365 C 4.173 21.840,4.685 22.099,5.228 21.962 C 5.347 21.932,6.665 21.202,8.710 20.034 L 12.000 18.154 15.295 20.037 C 17.107 21.073,18.666 21.947,18.760 21.980 C 19.137 22.113,19.406 22.038,19.691 21.722 C 20.026 21.349,20.000 22.030,20.000 13.683 C 20.000 6.479,19.989 5.742,19.876 5.160 C 19.608 3.780,18.643 2.680,17.320 2.246 C 16.667 2.032,16.571 2.027,12.320 2.018 C 10.153 2.013,8.173 2.023,7.920 2.040 M16.492 4.092 C 16.892 4.187,17.109 4.308,17.400 4.600 C 17.691 4.890,17.812 5.106,17.909 5.508 C 17.969 5.754,17.977 6.420,17.989 12.534 L 18.003 19.289 17.872 19.209 C 17.313 18.870,12.463 16.122,12.329 16.068 C 12.112 15.982,11.888 15.982,11.671 16.068 C 11.537 16.122,6.687 18.870,6.128 19.209 L 5.997 19.289 6.011 12.534 C 6.023 6.420,6.031 5.754,6.091 5.508 C 6.177 5.151,6.299 4.913,6.520 4.667 C 6.883 4.262,7.281 4.091,7.980 4.039 C 8.200 4.023,10.144 4.013,12.300 4.018 C 15.757 4.026,16.252 4.035,16.492 4.092 M8.614 9.057 C 8.377 9.131,8.212 9.261,8.109 9.453 C 8.035 9.592,8.020 9.684,8.020 10.000 C 8.020 10.331,8.033 10.403,8.120 10.558 C 8.230 10.755,8.414 10.898,8.635 10.959 C 8.832 11.014,15.168 11.014,15.365 10.959 C 15.586 10.898,15.770 10.755,15.880 10.558 C 15.967 10.402,15.980 10.332,15.979 10.000 C 15.978 9.567,15.898 9.355,15.678 9.199 C 15.398 8.999,15.411 9.000,11.984 9.003 C 9.472 9.005,8.744 9.017,8.614 9.057 " stroke="none" fill-rule="evenodd" fill="black"></path></svg>