<svg width="24" height="24" viewBox="0 0 24 24" fill="none" xmlns="http://www.w3.org/2000/svg"><path d="M7.920 2.040 C 7.667 2.057,7.343 2.092,7.200 2.118 C 6.027 2.326,4.999 3.086,4.465 4.141 C 4.225 4.613,4.109 5.072,4.041 5.820 C 3.985 6.421,3.985 21.166,4.041 21.365 C 4.173 21.840,4.685 22.099,5.228 21.962 C 5.347 21.932,6.665 21.202,8.710 20.034 L 12.000 18.154 15.295 20.037 C 17.107 21.073,18.666 21.947,18.760 21.980 C 19.137 22.113,19.406 22.038,19.691 21.722 C 20.026 21.349,20.000 22.030,20.000 13.683 C 20.000 6.479,19.989 5.742,19.876 5.160 C 19.608 3.780,18.643 2.680,17.320 2.246 C 16.667 2.032,16.571 2.027,12.320 2.018 C 10.153 2.013,8.173 2.023,7.920 2.040 M16.492 4.092 C 16.892 4.187,17.109 4.308,17.400 4.600 C 17.691 4.890,17.812 5.106,17.909 5.508 C 17.969 5.754,17.977 6.420,17.989 12.534 L 18.003 19.289 17.872 19.209 C 17.313 18.870,12.463 16.122,12.329 16.068 C 12.112 15.982,11.888 15.982,11.671 16.068 C 11.537 16.122,6.687 18.870,6.128 19.209 L 5.997 19.289 6.011 12.534 C 6.023 6.420,6.031 5.754,6.091 5.508 C 6.177 5.151,6.299 4.913,6.520 4.667 C 6.883 4.262,7.281 4.091,7.980 4.039 C 8.200 4.023,10.144 4.013,12.300 4.018 C 15.757 4.026,16.252 4.035,16.492 4.092 M15.160 7.023 C 15.072 7.061,14.278 7.825,13.010 9.091 L 11.001 11.098 10.250 10.352 C 9.472 9.577,9.286 9.442,9.000 9.442 C 8.801 9.442,8.553 9.566,8.322 9.782 C 7.977 10.104,7.871 10.469,8.019 10.823 C 8.064 10.932,8.450 11.348,9.272 12.174 C 10.516 13.425,10.684 13.559,11.000 13.559 C 11.340 13.559,11.417 13.492,13.968 10.934 C 16.503 8.393,16.558 8.332,16.559 8.000 C 16.560 7.683,16.169 7.163,15.820 7.018 C 15.644 6.944,15.339 6.946,15.160 7.023 " stroke="none" fill-rule="evenodd" fill="black"></path></svg>