<svg width="24" height="24" viewBox="0 0 24 24" fill="none" xmlns="http://www.w3.org/2000/svg"><path d="M7.920 2.040 C 7.150 2.093,6.672 2.205,6.180 2.451 C 5.089 2.996,4.357 3.961,4.124 5.160 C 4.011 5.742,4.000 6.480,4.000 13.703 C 4.000 22.070,3.972 21.347,4.313 21.726 C 4.594 22.038,4.865 22.112,5.240 21.980 C 5.334 21.947,6.893 21.073,8.705 20.037 L 12.000 18.154 15.290 20.034 C 17.335 21.202,18.653 21.932,18.772 21.962 C 19.105 22.046,19.509 21.963,19.734 21.765 C 19.775 21.729,19.847 21.628,19.894 21.540 L 19.980 21.380 19.992 13.880 C 20.005 5.522,20.005 5.514,19.755 4.680 C 19.426 3.582,18.464 2.621,17.320 2.246 C 16.667 2.032,16.571 2.027,12.320 2.018 C 10.153 2.013,8.173 2.023,7.920 2.040 M16.492 4.092 C 16.892 4.187,17.109 4.308,17.400 4.600 C 17.691 4.890,17.812 5.106,17.909 5.508 C 17.969 5.754,17.977 6.420,17.989 12.534 L 18.003 19.289 17.872 19.209 C 17.313 18.870,12.463 16.122,12.329 16.068 C 12.112 15.982,11.888 15.982,11.671 16.068 C 11.537 16.122,6.687 18.870,6.128 19.209 L 5.997 19.289 6.011 12.534 C 6.023 6.420,6.031 5.754,6.091 5.508 C 6.177 5.151,6.299 4.913,6.520 4.667 C 6.883 4.262,7.281 4.091,7.980 4.039 C 8.200 4.023,10.144 4.013,12.300 4.018 C 15.757 4.026,16.252 4.035,16.492 4.092 " stroke="none" fill-rule="evenodd" fill="black"></path></svg>