<svg width="24" height="24" viewBox="0 0 24 24" fill="none" xmlns="http://www.w3.org/2000/svg"><path d="M7.920 2.040 C 7.667 2.057,7.343 2.092,7.200 2.118 C 6.027 2.326,4.999 3.086,4.465 4.141 C 4.225 4.613,4.109 5.072,4.041 5.820 C 3.985 6.421,3.985 21.166,4.041 21.365 C 4.173 21.840,4.685 22.099,5.228 21.962 C 5.347 21.932,6.665 21.202,8.710 20.034 L 12.000 18.154 15.295 20.037 C 17.107 21.073,18.666 21.947,18.760 21.980 C 19.137 22.113,19.406 22.038,19.691 21.722 C 20.026 21.349,20.000 22.030,20.000 13.683 C 20.000 6.479,19.989 5.742,19.876 5.160 C 19.608 3.780,18.643 2.680,17.320 2.246 C 16.667 2.032,16.571 2.027,12.320 2.018 C 10.153 2.013,8.173 2.023,7.920 2.040 M16.492 4.092 C 16.892 4.187,17.109 4.308,17.400 4.600 C 17.691 4.890,17.812 5.106,17.909 5.508 C 17.969 5.754,17.977 6.420,17.989 12.534 L 18.003 19.289 17.872 19.209 C 17.313 18.870,12.463 16.122,12.329 16.068 C 12.112 15.982,11.888 15.982,11.671 16.068 C 11.537 16.122,6.687 18.870,6.128 19.209 L 5.997 19.289 6.011 12.534 C 6.023 6.420,6.031 5.754,6.091 5.508 C 6.177 5.151,6.299 4.913,6.520 4.667 C 6.883 4.262,7.281 4.091,7.980 4.039 C 8.200 4.023,10.144 4.013,12.300 4.018 C 15.757 4.026,16.252 4.035,16.492 4.092 M9.260 6.487 C 8.822 6.651,8.439 7.129,8.441 7.509 C 8.443 7.820,8.560 7.973,9.590 9.009 L 10.576 10.000 9.590 10.991 C 8.554 12.033,8.442 12.180,8.442 12.500 C 8.442 12.727,8.564 12.968,8.798 13.202 C 9.150 13.554,9.484 13.641,9.837 13.474 C 9.964 13.413,10.321 13.088,11.010 12.406 L 11.999 11.424 13.010 12.426 C 14.118 13.524,14.212 13.592,14.584 13.550 C 14.995 13.503,15.511 12.978,15.550 12.565 C 15.584 12.212,15.493 12.087,14.405 10.990 L 13.424 10.000 14.405 9.010 C 15.491 7.915,15.584 7.787,15.551 7.438 C 15.502 6.934,14.836 6.367,14.397 6.455 C 14.114 6.511,13.947 6.646,12.990 7.595 L 12.000 8.576 11.010 7.595 C 10.388 6.979,9.961 6.587,9.862 6.541 C 9.664 6.450,9.417 6.428,9.260 6.487 " stroke="none" fill-rule="evenodd" fill="black"></path></svg>