<svg version="1.1" xmlns="http://www.w3.org/2000/svg" width="32" height="32" viewBox="0 0 32 32"><path d="M15.120 3.259 C 14.426 3.324,13.564 3.451,12.800 3.600 C 6.418 4.847,2.987 8.913,2.987 15.230 C 2.987 16.066,2.982 16.106,2.873 16.164 C 2.726 16.242,2.688 16.181,2.641 15.792 C 2.574 15.241,1.927 11.450,1.744 10.537 L 1.563 9.634 1.720 9.410 C 2.166 8.778,1.756 7.939,0.997 7.928 C 0.272 7.917,-0.196 8.609,0.100 9.253 C 0.216 9.504,0.336 9.621,0.589 9.726 L 0.773 9.804 0.954 11.235 C 1.053 12.022,1.270 13.680,1.436 14.918 C 1.734 17.146,1.736 17.172,1.641 17.358 C 1.175 18.266,1.315 19.904,2.002 21.596 C 2.562 22.974,3.528 23.880,4.550 23.987 L 4.806 24.014 5.121 24.642 C 5.908 26.211,7.424 27.736,9.015 28.558 L 9.484 28.800 15.970 28.800 L 22.456 28.800 22.830 28.611 C 24.502 27.770,26.098 26.156,26.889 24.507 C 27.120 24.025,27.108 24.035,27.579 23.974 C 28.014 23.918,28.561 23.611,28.986 23.185 C 29.617 22.552,30.082 21.634,30.404 20.384 C 30.722 19.151,30.727 18.275,30.419 17.507 L 30.277 17.151 30.366 16.482 C 30.414 16.114,30.623 14.517,30.829 12.933 C 31.035 11.349,31.214 10.001,31.228 9.938 C 31.242 9.872,31.338 9.780,31.450 9.724 C 31.934 9.484,32.126 8.934,31.893 8.453 C 31.723 8.102,31.434 7.922,31.040 7.922 C 30.253 7.922,29.822 8.761,30.278 9.407 L 30.434 9.628 30.258 10.508 C 30.068 11.458,29.334 15.793,29.333 15.971 C 29.331 16.166,29.260 16.226,29.110 16.158 L 28.976 16.097 28.944 14.942 C 28.883 12.757,28.520 11.134,27.730 9.508 C 26.742 7.474,25.149 5.921,22.960 4.855 C 21.441 4.115,19.893 3.667,17.893 3.388 C 16.572 3.205,15.993 3.178,15.120 3.259 M18.202 14.188 C 20.194 14.305,22.340 14.607,24.506 15.075 C 25.513 15.292,26.843 15.674,26.942 15.775 C 26.963 15.796,26.945 16.125,26.902 16.507 C 26.551 19.595,25.594 22.615,24.355 24.544 C 24.128 24.899,24.284 24.854,22.627 25.041 C 17.676 25.599,15.481 25.617,10.587 25.144 C 9.824 25.070,8.884 24.981,8.498 24.947 L 7.796 24.885 7.503 24.402 C 6.247 22.331,5.393 19.613,5.041 16.565 C 4.994 16.157,4.975 15.805,4.998 15.783 C 5.075 15.710,5.992 15.409,6.613 15.253 C 8.546 14.766,11.771 14.344,14.880 14.170 C 15.609 14.129,17.366 14.138,18.202 14.188 M10.187 19.120 L 10.187 20.267 10.960 20.267 L 11.733 20.267 11.733 19.120 L 11.733 17.973 10.960 17.973 L 10.187 17.973 10.187 19.120 M20.160 19.120 L 20.160 20.267 20.933 20.267 L 21.707 20.267 21.707 19.120 L 21.707 17.973 20.933 17.973 L 20.160 17.973 20.160 19.120 M13.280 21.440 L 13.280 21.813 13.653 21.813 L 14.027 21.813 14.027 22.187 L 14.027 22.560 14.427 22.560 L 14.827 22.560 14.827 22.960 L 14.827 23.360 15.973 23.360 L 17.120 23.360 17.120 22.960 L 17.120 22.560 17.493 22.560 L 17.867 22.560 17.867 22.187 L 17.867 21.813 18.267 21.813 L 18.667 21.813 18.667 21.440 L 18.667 21.067 18.267 21.067 L 17.867 21.067 17.867 21.440 L 17.867 21.813 15.973 21.813 L 14.080 21.813 14.080 21.440 L 14.080 21.067 13.680 21.067 L 13.280 21.067 13.280 21.440 " stroke="none" fill-rule="evenodd" fill="black"></path></svg>