<svg width="24" height="24" viewBox="0 0 24 24" fill="none" xmlns="http://www.w3.org/2000/svg"><path d="M4.781 3.065 C 3.761 3.249,2.770 4.066,2.384 5.043 C 2.149 5.635,2.150 5.627,2.131 8.140 L 2.113 10.460 1.622 10.960 C 1.084 11.509,0.951 11.715,0.951 12.000 C 0.951 12.285,1.084 12.491,1.622 13.040 L 2.113 13.540 2.131 15.860 C 2.150 18.371,2.149 18.365,2.382 18.954 C 2.665 19.669,3.293 20.332,4.012 20.677 C 4.432 20.879,4.726 20.955,5.201 20.986 C 6.050 21.042,6.413 20.746,6.413 20.000 C 6.413 19.622,6.356 19.448,6.173 19.263 C 6.012 19.100,5.834 19.037,5.428 18.999 C 4.861 18.946,4.516 18.729,4.272 18.272 L 4.180 18.100 4.160 15.500 C 4.137 12.504,4.177 12.786,3.706 12.291 L 3.430 12.000 3.706 11.709 C 4.177 11.214,4.137 11.496,4.160 8.500 L 4.180 5.900 4.299 5.686 C 4.530 5.268,4.873 5.061,5.425 5.004 C 5.975 4.947,6.197 4.822,6.350 4.480 C 6.436 4.289,6.436 3.710,6.349 3.517 C 6.142 3.056,5.637 2.910,4.781 3.065 M18.159 3.061 C 17.954 3.125,17.734 3.319,17.655 3.507 C 17.513 3.845,17.555 4.372,17.746 4.649 C 17.890 4.856,18.123 4.957,18.566 5.003 C 19.128 5.061,19.469 5.266,19.701 5.686 L 19.820 5.900 19.840 8.500 C 19.863 11.496,19.823 11.214,20.294 11.709 L 20.570 12.000 20.294 12.291 C 19.823 12.786,19.863 12.504,19.840 15.500 L 19.820 18.100 19.728 18.272 C 19.484 18.729,19.139 18.946,18.572 18.999 C 18.154 19.038,17.987 19.100,17.811 19.281 C 17.640 19.457,17.582 19.638,17.582 20.000 C 17.582 20.367,17.641 20.547,17.823 20.735 C 18.026 20.944,18.312 21.018,18.799 20.986 C 19.274 20.955,19.568 20.879,19.988 20.677 C 20.804 20.285,21.446 19.537,21.718 18.660 C 21.852 18.227,21.877 17.739,21.879 15.563 L 21.880 13.546 22.374 13.043 C 22.916 12.491,23.049 12.285,23.049 12.000 C 23.049 11.715,22.916 11.509,22.374 10.957 L 21.880 10.454 21.879 8.437 C 21.878 7.328,21.861 6.237,21.841 6.013 C 21.730 4.784,20.975 3.743,19.840 3.253 C 19.319 3.028,18.551 2.941,18.159 3.061 M14.597 6.039 C 14.518 6.081,14.391 6.185,14.313 6.271 C 14.138 6.464,8.134 16.463,8.033 16.729 C 7.888 17.111,7.953 17.394,8.250 17.667 C 8.495 17.892,8.728 18.005,9.000 18.029 C 9.256 18.053,9.414 17.992,9.633 17.786 C 9.784 17.644,15.889 7.498,15.981 7.236 C 16.113 6.864,16.037 6.593,15.724 6.311 C 15.367 5.990,14.902 5.878,14.597 6.039 " stroke="none" fill-rule="evenodd" fill="black"></path></svg>