<svg width="24" height="24" viewBox="0 0 24 24" fill="none" xmlns="http://www.w3.org/2000/svg"><path d="M9.252 2.041 C 8.624 2.105,8.186 2.260,7.745 2.575 C 7.285 2.904,6.926 3.363,6.733 3.872 C 6.523 4.427,6.515 4.542,6.492 7.367 L 6.471 9.993 5.045 10.008 C 3.687 10.023,3.608 10.028,3.365 10.114 C 2.862 10.292,2.434 10.659,2.222 11.093 C 2.000 11.546,2.001 11.514,2.001 15.921 L 2.000 19.982 1.756 20.028 C 1.450 20.086,1.227 20.232,1.111 20.450 C 1.035 20.592,1.020 20.682,1.020 21.000 C 1.020 21.331,1.033 21.403,1.120 21.558 C 1.230 21.755,1.414 21.898,1.635 21.959 C 1.835 22.015,22.165 22.015,22.365 21.959 C 22.586 21.898,22.770 21.755,22.880 21.558 C 22.967 21.402,22.980 21.332,22.979 21.000 C 22.978 20.685,22.963 20.591,22.888 20.450 C 22.773 20.232,22.551 20.086,22.244 20.028 L 22.000 19.982 21.999 15.921 C 21.999 12.493,21.989 11.817,21.940 11.581 C 21.792 10.884,21.325 10.358,20.635 10.114 C 20.392 10.028,20.313 10.023,18.954 10.008 L 17.529 9.993 17.509 7.407 C 17.496 5.792,17.472 4.717,17.444 4.546 C 17.236 3.272,16.386 2.367,15.140 2.091 C 14.906 2.039,14.429 2.027,12.220 2.018 C 10.768 2.013,9.432 2.023,9.252 2.041 M14.911 4.095 C 15.152 4.200,15.384 4.477,15.437 4.724 C 15.467 4.862,15.480 7.260,15.480 12.462 L 15.480 20.000 12.000 20.000 L 8.520 20.000 8.520 12.462 C 8.520 7.307,8.533 4.861,8.562 4.726 C 8.610 4.504,8.813 4.237,9.014 4.132 C 9.083 4.096,9.248 4.054,9.380 4.038 C 9.512 4.021,10.772 4.011,12.180 4.015 C 14.575 4.021,14.751 4.026,14.911 4.095 M10.614 6.057 C 10.377 6.131,10.212 6.261,10.109 6.453 C 10.035 6.592,10.020 6.684,10.020 7.000 C 10.020 7.331,10.033 7.403,10.120 7.558 C 10.230 7.755,10.414 7.898,10.635 7.959 C 10.826 8.012,13.174 8.012,13.365 7.959 C 13.586 7.898,13.770 7.755,13.880 7.558 C 13.967 7.402,13.980 7.332,13.979 7.000 C 13.978 6.687,13.962 6.591,13.890 6.453 C 13.786 6.256,13.623 6.131,13.371 6.055 C 13.117 5.979,10.859 5.981,10.614 6.057 M10.614 10.057 C 10.377 10.131,10.212 10.261,10.109 10.453 C 10.035 10.592,10.020 10.684,10.020 11.000 C 10.020 11.331,10.033 11.403,10.120 11.558 C 10.230 11.755,10.414 11.898,10.635 11.959 C 10.826 12.012,13.174 12.012,13.365 11.959 C 13.586 11.898,13.770 11.755,13.880 11.558 C 13.967 11.402,13.980 11.332,13.979 11.000 C 13.978 10.687,13.962 10.591,13.890 10.453 C 13.786 10.256,13.623 10.131,13.371 10.055 C 13.117 9.979,10.859 9.981,10.614 10.057 M6.480 16.000 L 6.480 20.000 5.240 20.000 L 4.000 20.000 4.000 16.000 L 4.000 12.000 5.240 12.000 L 6.480 12.000 6.480 16.000 M20.000 16.000 L 20.000 20.000 18.760 20.000 L 17.520 20.000 17.520 16.000 L 17.520 12.000 18.760 12.000 L 20.000 12.000 20.000 16.000 M10.614 14.057 C 10.377 14.131,10.212 14.261,10.109 14.453 C 10.035 14.592,10.020 14.684,10.020 15.000 C 10.020 15.331,10.033 15.403,10.120 15.558 C 10.230 15.755,10.414 15.898,10.635 15.959 C 10.826 16.012,13.174 16.012,13.365 15.959 C 13.586 15.898,13.770 15.755,13.880 15.558 C 13.967 15.402,13.980 15.332,13.979 15.000 C 13.978 14.687,13.962 14.591,13.890 14.453 C 13.786 14.256,13.623 14.131,13.371 14.055 C 13.117 13.979,10.859 13.981,10.614 14.057 " stroke="none" fill-rule="evenodd" fill="black"></path></svg>