<svg width="24" height="24" viewBox="0 0 24 24" fill="none" xmlns="http://www.w3.org/2000/svg"><path d="M4.749 2.045 C 3.967 2.120,3.402 2.371,2.890 2.870 C 2.508 3.243,2.266 3.674,2.108 4.260 L 2.022 4.580 2.010 12.281 L 1.998 19.982 1.755 20.028 C 1.450 20.086,1.227 20.232,1.111 20.450 C 1.035 20.592,1.020 20.682,1.020 21.000 C 1.020 21.331,1.033 21.403,1.120 21.558 C 1.230 21.755,1.414 21.898,1.635 21.959 C 1.835 22.015,22.165 22.015,22.365 21.959 C 22.586 21.898,22.770 21.755,22.880 21.558 C 22.967 21.402,22.980 21.332,22.979 21.000 C 22.978 20.685,22.963 20.591,22.888 20.450 C 22.773 20.232,22.551 20.086,22.246 20.028 L 22.004 19.982 21.990 16.281 C 21.976 12.657,21.974 12.573,21.891 12.260 C 21.780 11.842,21.680 11.614,21.473 11.310 C 21.090 10.744,20.483 10.306,19.859 10.145 C 19.405 10.028,18.744 10.000,16.373 10.000 L 14.005 10.000 13.990 7.290 C 13.975 4.688,13.971 4.567,13.890 4.260 C 13.780 3.843,13.680 3.615,13.473 3.310 C 13.184 2.882,12.811 2.560,12.329 2.321 C 12.019 2.168,11.706 2.091,11.180 2.042 C 10.655 1.992,5.269 1.995,4.749 2.045 M11.374 4.075 C 11.571 4.140,11.859 4.427,11.926 4.626 C 11.968 4.750,11.981 6.269,11.990 12.390 L 12.002 20.000 8.001 20.000 L 4.000 20.000 4.000 12.630 C 4.000 8.144,4.016 5.128,4.039 4.923 C 4.103 4.366,4.350 4.103,4.866 4.041 C 5.017 4.023,6.508 4.012,8.180 4.016 C 10.507 4.023,11.256 4.037,11.374 4.075 M6.180 6.039 C 5.715 6.159,5.514 6.447,5.512 6.997 C 5.510 7.348,5.582 7.556,5.771 7.751 C 6.001 7.989,6.101 8.000,8.000 8.000 C 9.899 8.000,9.999 7.989,10.229 7.751 C 10.418 7.556,10.486 7.355,10.486 6.997 C 10.486 6.491,10.303 6.196,9.909 6.064 C 9.744 6.009,9.475 6.001,8.009 6.004 C 7.069 6.006,6.246 6.022,6.180 6.039 M6.180 10.039 C 5.715 10.159,5.514 10.447,5.512 10.997 C 5.510 11.348,5.582 11.556,5.771 11.751 C 6.001 11.989,6.101 12.000,8.000 12.000 C 9.899 12.000,9.999 11.989,10.229 11.751 C 10.418 11.556,10.486 11.355,10.486 10.997 C 10.486 10.491,10.303 10.196,9.909 10.064 C 9.744 10.009,9.475 10.001,8.009 10.004 C 7.069 10.006,6.246 10.022,6.180 10.039 M19.374 12.076 C 19.572 12.140,19.859 12.428,19.925 12.626 C 19.964 12.745,19.979 13.602,19.990 16.390 L 20.004 20.000 17.002 20.000 L 14.000 20.000 14.000 15.997 L 14.000 11.995 16.610 12.010 C 18.562 12.022,19.259 12.038,19.374 12.076 M6.180 14.039 C 5.715 14.159,5.514 14.447,5.512 14.997 C 5.510 15.348,5.582 15.556,5.771 15.751 C 6.001 15.989,6.101 16.000,8.000 16.000 C 9.899 16.000,9.999 15.989,10.229 15.751 C 10.418 15.556,10.486 15.355,10.486 14.997 C 10.486 14.491,10.303 14.196,9.909 14.064 C 9.744 14.009,9.475 14.001,8.009 14.004 C 7.069 14.006,6.246 14.022,6.180 14.039 " stroke="none" fill-rule="evenodd" fill="black"></path></svg>