<svg width="24" height="24" viewBox="0 0 24 24" fill="none" xmlns="http://www.w3.org/2000/svg"><path d="M11.731 1.121 C 11.638 1.140,11.485 1.190,11.391 1.231 C 11.297 1.273,9.445 2.417,7.275 3.773 C 3.344 6.230,3.101 6.394,2.998 6.665 C 2.853 7.047,3.102 7.629,3.516 7.872 L 3.700 7.980 12.040 7.980 C 20.111 7.980,20.385 7.978,20.520 7.905 C 20.865 7.721,20.976 7.511,20.978 7.040 C 20.980 6.741,20.967 6.678,20.872 6.516 C 20.813 6.415,20.705 6.288,20.632 6.234 C 20.318 5.998,12.692 1.262,12.525 1.198 C 12.290 1.109,11.948 1.075,11.731 1.121 M14.273 4.600 L 16.480 5.980 14.240 5.990 C 13.008 5.996,10.992 5.996,9.760 5.990 L 7.520 5.980 9.730 4.593 C 10.946 3.830,11.968 3.209,12.003 3.213 C 12.038 3.217,13.059 3.841,14.273 4.600 M5.649 9.037 C 5.439 9.091,5.208 9.267,5.111 9.450 L 5.020 9.620 5.009 13.913 C 5.002 16.727,5.013 18.258,5.039 18.357 C 5.144 18.747,5.434 18.961,5.896 18.991 C 6.381 19.022,6.699 18.882,6.880 18.558 L 6.980 18.380 6.980 14.000 L 6.980 9.620 6.880 9.442 C 6.726 9.167,6.484 9.037,6.094 9.018 C 5.921 9.010,5.721 9.018,5.649 9.037 M9.649 9.037 C 9.439 9.091,9.208 9.267,9.111 9.450 L 9.020 9.620 9.009 13.913 C 9.002 16.727,9.013 18.258,9.039 18.357 C 9.144 18.747,9.434 18.961,9.896 18.991 C 10.381 19.022,10.699 18.882,10.880 18.558 L 10.980 18.380 10.980 14.000 L 10.980 9.620 10.880 9.442 C 10.726 9.167,10.484 9.037,10.094 9.018 C 9.921 9.010,9.721 9.018,9.649 9.037 M13.649 9.037 C 13.439 9.091,13.208 9.267,13.111 9.450 L 13.020 9.620 13.009 13.913 C 13.002 16.727,13.013 18.258,13.039 18.357 C 13.144 18.747,13.434 18.961,13.896 18.991 C 14.381 19.022,14.699 18.882,14.880 18.558 L 14.980 18.380 14.980 14.000 L 14.980 9.620 14.880 9.442 C 14.726 9.167,14.484 9.037,14.094 9.018 C 13.921 9.010,13.721 9.018,13.649 9.037 M17.649 9.037 C 17.439 9.091,17.208 9.267,17.111 9.450 L 17.020 9.620 17.009 13.913 C 17.002 16.727,17.013 18.258,17.039 18.357 C 17.144 18.747,17.434 18.961,17.896 18.991 C 18.381 19.022,18.699 18.882,18.880 18.558 L 18.980 18.380 18.980 14.000 L 18.980 9.620 18.880 9.442 C 18.726 9.167,18.484 9.037,18.094 9.018 C 17.921 9.010,17.721 9.018,17.649 9.037 M2.614 20.057 C 2.377 20.131,2.212 20.261,2.109 20.453 C 2.035 20.592,2.020 20.684,2.020 21.000 C 2.020 21.331,2.033 21.403,2.120 21.558 C 2.230 21.755,2.414 21.898,2.635 21.959 C 2.835 22.015,21.165 22.015,21.365 21.959 C 21.586 21.898,21.770 21.755,21.880 21.558 C 21.967 21.402,21.980 21.332,21.979 21.000 C 21.978 20.567,21.898 20.355,21.678 20.199 C 21.385 19.990,21.877 20.000,11.984 20.003 C 4.546 20.005,2.748 20.015,2.614 20.057 " stroke="none" fill-rule="evenodd" fill="black"></path></svg>