<svg width="24" height="24" viewBox="0 0 24 24" fill="none" xmlns="http://www.w3.org/2000/svg"><path d="M6.749 2.045 C 5.967 2.120,5.402 2.371,4.890 2.870 C 4.508 3.243,4.266 3.674,4.108 4.260 L 4.022 4.580 4.010 12.290 L 3.998 20.000 3.405 20.000 C 2.577 20.000,2.300 20.097,2.109 20.453 C 2.035 20.592,2.020 20.684,2.020 21.000 C 2.020 21.331,2.033 21.403,2.120 21.558 C 2.230 21.755,2.414 21.898,2.635 21.959 C 2.835 22.015,21.165 22.015,21.365 21.959 C 21.586 21.898,21.770 21.755,21.880 21.558 C 21.967 21.402,21.980 21.332,21.979 21.000 C 21.978 20.687,21.962 20.591,21.890 20.453 C 21.702 20.097,21.424 20.000,20.595 20.000 L 20.002 20.000 19.990 12.290 L 19.978 4.580 19.892 4.260 C 19.779 3.840,19.679 3.613,19.473 3.310 C 19.184 2.882,18.811 2.560,18.329 2.321 C 18.019 2.168,17.706 2.091,17.180 2.042 C 16.648 1.991,7.274 1.994,6.749 2.045 M17.374 4.074 C 17.572 4.141,17.859 4.428,17.926 4.626 C 17.968 4.750,17.981 6.269,17.990 12.390 L 18.002 20.000 17.001 20.000 L 16.000 20.000 15.999 17.430 C 15.999 15.317,15.988 14.810,15.940 14.581 C 15.792 13.885,15.328 13.363,14.635 13.112 L 14.380 13.020 12.000 13.020 L 9.620 13.020 9.365 13.112 C 8.859 13.295,8.433 13.660,8.222 14.093 C 8.009 14.527,8.001 14.645,8.001 17.430 L 8.000 20.000 7.000 20.000 L 6.000 20.000 6.000 12.630 C 6.000 8.144,6.016 5.128,6.039 4.923 C 6.103 4.366,6.350 4.103,6.866 4.042 C 7.017 4.024,9.408 4.012,12.180 4.016 C 16.174 4.021,17.252 4.034,17.374 4.074 M8.949 6.617 C 7.674 7.141,7.699 8.917,8.987 9.399 C 9.618 9.635,10.378 9.384,10.754 8.817 C 10.923 8.561,10.978 8.361,10.978 8.000 C 10.978 7.639,10.923 7.439,10.754 7.183 C 10.371 6.605,9.581 6.357,8.949 6.617 M13.949 6.617 C 12.674 7.141,12.699 8.917,13.987 9.399 C 14.618 9.635,15.378 9.384,15.754 8.817 C 15.923 8.561,15.978 8.361,15.978 8.000 C 15.978 7.639,15.923 7.439,15.754 7.183 C 15.371 6.605,14.581 6.357,13.949 6.617 M14.000 17.500 L 14.000 20.000 12.000 20.000 L 10.000 20.000 10.000 17.500 L 10.000 15.000 12.000 15.000 L 14.000 15.000 14.000 17.500 " stroke="none" fill-rule="evenodd" fill="black"></path></svg>