<svg width="24" height="24" viewBox="0 0 24 24" fill="none" xmlns="http://www.w3.org/2000/svg"><path d="M7.749 2.045 C 6.967 2.120,6.402 2.371,5.890 2.870 C 5.508 3.243,5.266 3.674,5.108 4.260 L 5.022 4.580 5.010 12.290 L 4.998 20.000 4.405 20.000 C 3.577 20.000,3.300 20.097,3.109 20.453 C 3.035 20.592,3.020 20.684,3.020 21.000 C 3.020 21.331,3.033 21.403,3.120 21.558 C 3.230 21.755,3.414 21.898,3.635 21.959 C 3.835 22.015,20.165 22.015,20.365 21.959 C 20.586 21.898,20.770 21.755,20.880 21.558 C 20.967 21.402,20.980 21.332,20.979 21.000 C 20.978 20.687,20.962 20.591,20.890 20.453 C 20.702 20.097,20.424 20.000,19.595 20.000 L 19.002 20.000 18.990 12.290 L 18.978 4.580 18.892 4.260 C 18.779 3.840,18.679 3.613,18.473 3.310 C 18.184 2.882,17.811 2.560,17.329 2.321 C 17.019 2.168,16.706 2.091,16.180 2.042 C 15.650 1.992,8.272 1.994,7.749 2.045 M16.374 4.075 C 16.571 4.140,16.859 4.428,16.926 4.626 C 16.968 4.750,16.981 6.269,16.990 12.390 L 17.002 20.000 12.001 20.000 L 7.000 20.000 7.000 12.630 C 7.000 8.144,7.016 5.128,7.039 4.923 C 7.103 4.366,7.350 4.103,7.866 4.041 C 8.017 4.023,9.958 4.012,12.180 4.016 C 15.341 4.022,16.254 4.035,16.374 4.075 M9.180 6.039 C 8.715 6.159,8.514 6.447,8.512 6.997 C 8.510 7.501,8.711 7.827,9.096 7.941 C 9.391 8.029,14.609 8.029,14.904 7.941 C 15.290 7.827,15.486 7.508,15.486 6.997 C 15.486 6.491,15.303 6.196,14.909 6.064 C 14.740 6.008,14.391 6.000,12.009 6.004 C 10.519 6.006,9.246 6.022,9.180 6.039 M9.180 10.039 C 8.715 10.159,8.514 10.447,8.512 10.997 C 8.510 11.501,8.711 11.827,9.096 11.941 C 9.391 12.029,14.609 12.029,14.904 11.941 C 15.290 11.827,15.486 11.508,15.486 10.997 C 15.486 10.491,15.303 10.196,14.909 10.064 C 14.740 10.008,14.391 10.000,12.009 10.004 C 10.519 10.006,9.246 10.022,9.180 10.039 M9.180 14.039 C 8.715 14.159,8.514 14.447,8.512 14.997 C 8.510 15.501,8.711 15.827,9.096 15.941 C 9.391 16.029,14.609 16.029,14.904 15.941 C 15.290 15.827,15.486 15.508,15.486 14.997 C 15.486 14.491,15.303 14.196,14.909 14.064 C 14.740 14.008,14.391 14.000,12.009 14.004 C 10.519 14.006,9.246 14.022,9.180 14.039 " stroke="none" fill-rule="evenodd" fill="black"></path></svg>