<svg width="24" height="24" viewBox="0 0 24 24" fill="none" xmlns="http://www.w3.org/2000/svg"><path d="M5.749 2.045 C 4.967 2.120,4.402 2.371,3.890 2.870 C 3.508 3.243,3.266 3.674,3.108 4.260 L 3.022 4.580 3.010 12.290 L 2.998 20.000 2.405 20.000 C 1.577 20.000,1.300 20.097,1.109 20.453 C 1.035 20.592,1.020 20.684,1.020 21.000 C 1.020 21.331,1.033 21.403,1.120 21.558 C 1.230 21.755,1.414 21.898,1.635 21.959 C 1.835 22.015,22.165 22.015,22.365 21.959 C 22.586 21.898,22.770 21.755,22.880 21.558 C 22.967 21.402,22.980 21.332,22.979 21.000 C 22.978 20.687,22.962 20.591,22.890 20.453 C 22.702 20.097,22.424 20.000,21.595 20.000 L 21.002 20.000 20.990 12.290 L 20.978 4.580 20.892 4.260 C 20.779 3.840,20.679 3.613,20.473 3.310 C 20.184 2.882,19.811 2.560,19.329 2.321 C 19.019 2.168,18.706 2.091,18.180 2.042 C 17.646 1.991,6.275 1.994,5.749 2.045 M18.374 4.074 C 18.572 4.141,18.859 4.428,18.926 4.626 C 18.968 4.750,18.981 6.269,18.990 12.390 L 19.002 20.000 12.001 20.000 L 5.000 20.000 5.000 12.630 C 5.000 8.144,5.016 5.128,5.039 4.923 C 5.103 4.366,5.350 4.103,5.866 4.042 C 6.017 4.024,8.858 4.012,12.180 4.016 C 17.006 4.021,18.251 4.033,18.374 4.074 M7.180 6.038 C 6.712 6.162,6.514 6.447,6.512 7.000 C 6.510 7.368,6.598 7.600,6.811 7.787 C 7.046 7.993,7.197 8.007,9.000 7.993 C 10.569 7.980,10.625 7.977,10.780 7.894 C 11.106 7.718,11.240 7.459,11.240 7.000 C 11.240 6.541,11.106 6.282,10.780 6.106 C 10.624 6.022,10.576 6.020,8.960 6.013 C 8.047 6.009,7.246 6.020,7.180 6.038 M13.420 6.037 C 12.975 6.146,12.760 6.459,12.760 6.998 C 12.760 7.501,12.947 7.808,13.331 7.936 C 13.605 8.027,16.600 8.031,16.904 7.941 C 17.290 7.827,17.486 7.508,17.486 6.997 C 17.486 6.491,17.303 6.196,16.909 6.064 C 16.745 6.009,16.485 6.001,15.129 6.004 C 14.255 6.006,13.486 6.021,13.420 6.037 M7.180 10.038 C 6.712 10.162,6.514 10.447,6.512 11.000 C 6.510 11.368,6.598 11.600,6.811 11.787 C 7.046 11.993,7.197 12.007,9.000 11.993 C 10.569 11.980,10.625 11.977,10.780 11.894 C 11.106 11.718,11.240 11.459,11.240 11.000 C 11.240 10.541,11.106 10.282,10.780 10.106 C 10.624 10.022,10.576 10.020,8.960 10.013 C 8.047 10.009,7.246 10.020,7.180 10.038 M13.420 10.037 C 12.975 10.146,12.760 10.459,12.760 10.998 C 12.760 11.501,12.947 11.808,13.331 11.936 C 13.605 12.027,16.600 12.031,16.904 11.941 C 17.290 11.827,17.486 11.508,17.486 10.997 C 17.486 10.491,17.303 10.196,16.909 10.064 C 16.745 10.009,16.485 10.001,15.129 10.004 C 14.255 10.006,13.486 10.021,13.420 10.037 M7.180 14.038 C 6.712 14.162,6.514 14.447,6.512 15.000 C 6.510 15.368,6.598 15.600,6.811 15.787 C 7.046 15.993,7.197 16.007,9.000 15.993 C 10.569 15.980,10.625 15.977,10.780 15.894 C 11.106 15.718,11.240 15.459,11.240 15.000 C 11.240 14.541,11.106 14.282,10.780 14.106 C 10.624 14.022,10.576 14.020,8.960 14.013 C 8.047 14.009,7.246 14.020,7.180 14.038 M13.420 14.037 C 12.975 14.146,12.760 14.459,12.760 14.998 C 12.760 15.501,12.947 15.808,13.331 15.936 C 13.605 16.027,16.600 16.031,16.904 15.941 C 17.290 15.827,17.486 15.508,17.486 14.997 C 17.486 14.491,17.303 14.196,16.909 14.064 C 16.745 14.009,16.485 14.001,15.129 14.004 C 14.255 14.006,13.486 14.021,13.420 14.037 " stroke="none" fill-rule="evenodd" fill="black"></path></svg>