<svg width="24" height="24" viewBox="0 0 24 24" fill="none" xmlns="http://www.w3.org/2000/svg"><path d="M12.749 2.045 C 11.967 2.120,11.402 2.371,10.890 2.870 C 10.507 3.244,10.263 3.678,10.110 4.260 C 10.028 4.568,10.024 4.684,10.010 7.290 L 9.995 10.000 7.628 10.000 C 5.256 10.000,4.595 10.028,4.141 10.145 C 3.517 10.306,2.910 10.744,2.527 11.310 C 2.320 11.614,2.220 11.841,2.109 12.260 C 2.025 12.574,2.023 12.654,2.010 16.281 L 1.997 19.982 1.755 20.028 C 1.450 20.086,1.227 20.232,1.111 20.450 C 1.035 20.592,1.020 20.682,1.020 21.000 C 1.020 21.331,1.033 21.403,1.120 21.558 C 1.230 21.755,1.414 21.898,1.635 21.959 C 1.835 22.015,22.165 22.015,22.365 21.959 C 22.586 21.898,22.770 21.755,22.880 21.558 C 22.967 21.402,22.980 21.332,22.979 21.000 C 22.978 20.685,22.963 20.591,22.888 20.450 C 22.773 20.232,22.551 20.086,22.245 20.028 L 22.002 19.982 21.990 12.281 L 21.978 4.580 21.892 4.260 C 21.779 3.840,21.679 3.613,21.473 3.310 C 21.184 2.882,20.811 2.560,20.329 2.321 C 20.019 2.168,19.706 2.091,19.180 2.042 C 18.655 1.992,13.269 1.995,12.749 2.045 M19.374 4.075 C 19.571 4.140,19.859 4.427,19.926 4.626 C 19.968 4.750,19.981 6.269,19.990 12.390 L 20.002 20.000 16.001 20.000 L 12.000 20.000 12.000 12.630 C 12.000 8.144,12.016 5.128,12.039 4.923 C 12.103 4.366,12.350 4.103,12.866 4.041 C 13.017 4.023,14.508 4.012,16.180 4.016 C 18.507 4.023,19.256 4.037,19.374 4.075 M14.180 6.039 C 13.715 6.159,13.514 6.447,13.512 6.997 C 13.510 7.348,13.582 7.556,13.771 7.751 C 14.001 7.989,14.101 8.000,16.000 8.000 C 17.899 8.000,17.999 7.989,18.229 7.751 C 18.418 7.556,18.486 7.355,18.486 6.997 C 18.486 6.491,18.303 6.196,17.909 6.064 C 17.744 6.009,17.475 6.001,16.009 6.004 C 15.069 6.006,14.246 6.022,14.180 6.039 M14.180 10.039 C 13.715 10.159,13.514 10.447,13.512 10.997 C 13.510 11.348,13.582 11.556,13.771 11.751 C 14.001 11.989,14.101 12.000,16.000 12.000 C 17.899 12.000,17.999 11.989,18.229 11.751 C 18.418 11.556,18.486 11.355,18.486 10.997 C 18.486 10.491,18.303 10.196,17.909 10.064 C 17.744 10.009,17.475 10.001,16.009 10.004 C 15.069 10.006,14.246 10.022,14.180 10.039 M10.000 16.000 L 10.000 20.000 7.000 20.000 L 4.000 20.000 4.000 16.630 C 4.000 14.720,4.017 13.114,4.039 12.923 C 4.103 12.365,4.350 12.102,4.866 12.042 C 5.017 12.025,6.233 12.008,7.570 12.005 L 10.000 12.000 10.000 16.000 M14.180 14.039 C 13.715 14.159,13.514 14.447,13.512 14.997 C 13.510 15.348,13.582 15.556,13.771 15.751 C 14.001 15.989,14.101 16.000,16.000 16.000 C 17.899 16.000,17.999 15.989,18.229 15.751 C 18.418 15.556,18.486 15.355,18.486 14.997 C 18.486 14.491,18.303 14.196,17.909 14.064 C 17.744 14.009,17.475 14.001,16.009 14.004 C 15.069 14.006,14.246 14.022,14.180 14.039 " stroke="none" fill-rule="evenodd" fill="black"></path></svg>