<svg width="24" height="24" viewBox="0 0 24 24" fill="none" xmlns="http://www.w3.org/2000/svg"><path d="M5.920 2.041 C 5.151 2.092,4.672 2.205,4.180 2.451 C 3.089 2.996,2.357 3.961,2.124 5.160 C 2.013 5.729,2.000 6.455,2.000 12.000 C 2.000 18.358,2.006 18.526,2.245 19.320 C 2.577 20.422,3.578 21.423,4.680 21.755 C 5.474 21.994,5.642 22.000,12.000 22.000 C 18.358 22.000,18.526 21.994,19.320 21.755 C 20.422 21.423,21.423 20.422,21.755 19.320 C 21.994 18.526,22.000 18.358,22.000 12.000 C 22.000 5.642,21.994 5.474,21.755 4.680 C 21.424 3.581,20.465 2.622,19.320 2.246 C 18.644 2.024,18.800 2.029,12.340 2.019 C 9.062 2.014,6.173 2.024,5.920 2.041 M18.492 4.091 C 18.894 4.188,19.109 4.309,19.400 4.600 C 19.696 4.895,19.814 5.109,19.912 5.528 C 19.975 5.797,19.980 6.313,19.980 12.000 C 19.980 17.687,19.975 18.203,19.912 18.472 C 19.814 18.891,19.696 19.104,19.400 19.401 C 19.101 19.701,18.820 19.851,18.418 19.928 C 18.010 20.005,5.990 20.005,5.582 19.927 C 5.170 19.850,4.898 19.704,4.600 19.403 C 4.303 19.104,4.186 18.890,4.088 18.472 C 4.025 18.203,4.020 17.687,4.020 12.000 C 4.020 6.313,4.025 5.797,4.088 5.528 C 4.175 5.155,4.294 4.918,4.520 4.667 C 4.883 4.262,5.282 4.091,5.980 4.039 C 6.200 4.023,9.044 4.013,12.300 4.018 C 17.643 4.024,18.247 4.032,18.492 4.091 M17.260 5.489 C 17.194 5.513,17.068 5.582,16.980 5.643 C 16.892 5.704,14.296 8.280,11.212 11.367 C 6.827 15.756,5.586 17.019,5.523 17.160 C 5.358 17.526,5.451 17.862,5.817 18.218 C 6.199 18.592,6.567 18.653,6.949 18.407 C 7.054 18.339,9.671 15.749,12.765 12.651 C 17.254 8.156,18.407 6.981,18.479 6.827 C 18.607 6.555,18.578 6.311,18.384 6.018 C 18.092 5.578,17.626 5.359,17.260 5.489 M8.042 5.572 C 7.858 5.631,7.616 5.879,7.559 6.067 C 7.534 6.151,7.503 6.513,7.491 6.870 L 7.470 7.520 6.849 7.520 C 6.475 7.520,6.164 7.539,6.066 7.569 C 5.848 7.634,5.616 7.871,5.557 8.088 C 5.498 8.308,5.498 8.692,5.557 8.912 C 5.615 9.126,5.859 9.378,6.067 9.441 C 6.151 9.466,6.501 9.497,6.845 9.509 L 7.470 9.530 7.491 10.155 C 7.503 10.499,7.534 10.849,7.559 10.933 C 7.622 11.142,7.874 11.385,8.088 11.442 C 8.518 11.558,9.007 11.473,9.238 11.242 C 9.441 11.039,9.484 10.866,9.509 10.155 L 9.530 9.530 10.155 9.509 C 10.506 9.496,10.850 9.464,10.940 9.434 C 11.293 9.316,11.495 8.966,11.491 8.479 C 11.486 8.033,11.340 7.763,11.024 7.616 C 10.836 7.528,10.770 7.521,10.175 7.520 L 9.530 7.520 9.510 6.870 C 9.482 5.999,9.402 5.792,9.024 5.616 C 8.859 5.539,8.758 5.521,8.500 5.524 C 8.324 5.527,8.118 5.548,8.042 5.572 M13.042 14.572 C 12.846 14.635,12.613 14.882,12.557 15.088 C 12.532 15.183,12.511 15.368,12.511 15.500 C 12.511 15.853,12.581 16.061,12.760 16.240 C 13.021 16.501,13.008 16.500,15.480 16.500 C 17.962 16.500,17.982 16.498,18.240 16.240 C 18.411 16.069,18.494 15.817,18.491 15.479 C 18.486 15.033,18.340 14.763,18.024 14.616 L 17.820 14.521 15.500 14.524 C 13.932 14.527,13.135 14.542,13.042 14.572 " stroke="none" fill-rule="evenodd" fill="black"></path></svg>