<svg width="24" height="24" viewBox="0 0 24 24" fill="none" xmlns="http://www.w3.org/2000/svg"><path d="M7.614 1.057 C 7.377 1.131,7.212 1.261,7.109 1.453 C 7.029 1.603,7.019 1.689,7.007 2.305 L 6.994 2.991 6.367 3.018 C 5.290 3.065,4.711 3.181,4.160 3.460 C 3.083 4.005,2.355 4.970,2.124 6.160 C 2.013 6.729,2.000 7.455,2.000 13.000 C 2.000 19.358,2.006 19.526,2.245 20.320 C 2.577 21.422,3.578 22.423,4.680 22.755 C 5.474 22.994,5.642 23.000,12.000 23.000 C 18.358 23.000,18.526 22.994,19.320 22.755 C 20.422 22.423,21.423 21.422,21.755 20.320 C 21.994 19.526,22.000 19.358,22.000 13.000 C 22.000 7.455,21.987 6.729,21.876 6.160 C 21.680 5.147,21.120 4.290,20.287 3.725 C 19.573 3.241,18.954 3.076,17.634 3.018 L 17.008 2.991 16.993 2.305 C 16.975 1.524,16.927 1.364,16.649 1.182 C 16.199 0.887,15.426 0.979,15.170 1.358 C 15.029 1.568,15.000 1.739,15.000 2.390 L 15.000 3.000 12.004 3.000 L 9.008 3.000 8.993 2.310 C 8.976 1.541,8.930 1.378,8.678 1.199 C 8.414 1.010,7.957 0.950,7.614 1.057 M7.013 5.203 C 7.074 5.715,7.426 6.000,8.000 6.000 C 8.574 6.000,8.919 5.723,8.983 5.210 L 9.009 5.000 11.999 5.000 L 14.989 5.000 15.013 5.203 C 15.074 5.715,15.426 6.000,16.000 6.000 C 16.576 6.000,16.919 5.723,16.984 5.205 L 17.010 4.990 17.615 5.018 C 18.591 5.063,18.937 5.164,19.333 5.520 C 19.694 5.844,19.883 6.228,19.943 6.761 L 19.970 7.000 12.005 7.000 L 4.040 7.000 4.041 6.890 C 4.042 6.694,4.154 6.240,4.248 6.051 C 4.454 5.639,4.900 5.266,5.343 5.137 C 5.578 5.069,6.106 5.017,6.684 5.006 L 6.989 5.000 7.013 5.203 M19.989 14.110 C 19.973 19.665,19.980 19.483,19.752 19.952 C 19.626 20.211,19.190 20.638,18.918 20.768 C 18.466 20.985,18.627 20.980,12.000 20.980 C 5.383 20.980,5.538 20.985,5.082 20.771 C 4.812 20.643,4.377 20.217,4.248 19.952 C 4.020 19.483,4.027 19.665,4.011 14.110 L 3.996 9.000 12.000 9.000 L 20.004 9.000 19.989 14.110 M11.614 11.057 C 11.377 11.131,11.212 11.261,11.109 11.453 C 11.024 11.613,11.020 11.668,11.008 12.810 L 10.996 14.000 9.904 14.000 C 8.744 14.000,8.570 14.022,8.322 14.199 C 8.100 14.357,8.020 14.568,8.020 15.000 C 8.020 15.331,8.033 15.403,8.120 15.558 C 8.230 15.755,8.414 15.898,8.635 15.959 C 8.716 15.982,9.270 16.000,9.890 16.000 L 11.000 16.000 11.000 17.110 C 11.000 17.730,11.018 18.284,11.041 18.365 C 11.148 18.750,11.437 18.962,11.896 18.991 C 12.381 19.022,12.699 18.882,12.880 18.558 C 12.979 18.381,12.980 18.374,12.993 17.190 L 13.005 16.000 14.113 16.000 C 14.731 16.000,15.284 15.982,15.365 15.959 C 15.586 15.898,15.770 15.755,15.880 15.558 C 15.967 15.402,15.980 15.332,15.979 15.000 C 15.978 14.567,15.898 14.355,15.678 14.199 C 15.430 14.022,15.256 14.000,14.096 14.000 L 13.005 14.000 12.993 12.810 C 12.981 11.669,12.976 11.613,12.891 11.453 C 12.842 11.362,12.746 11.247,12.678 11.199 C 12.414 11.010,11.957 10.950,11.614 11.057 " stroke="none" fill-rule="evenodd" fill="black"></path></svg>