<svg width="24" height="24" viewBox="0 0 24 24" fill="none" xmlns="http://www.w3.org/2000/svg"><path d="M7.614 1.057 C 7.377 1.131,7.212 1.261,7.109 1.453 C 7.029 1.603,7.019 1.689,7.007 2.305 L 6.994 2.991 6.367 3.018 C 5.290 3.065,4.711 3.181,4.160 3.460 C 3.083 4.005,2.355 4.970,2.124 6.160 C 2.013 6.729,2.000 7.455,2.000 13.000 C 2.000 19.358,2.006 19.526,2.245 20.320 C 2.577 21.422,3.578 22.423,4.680 22.755 C 5.425 22.980,5.824 23.000,9.483 23.000 C 13.046 23.000,12.984 23.004,13.229 22.751 C 13.417 22.557,13.486 22.355,13.486 22.000 C 13.486 21.656,13.418 21.445,13.248 21.267 C 13.002 21.008,13.213 21.023,9.320 20.998 C 5.537 20.974,5.514 20.973,5.080 20.769 C 4.812 20.644,4.376 20.216,4.248 19.952 C 4.025 19.493,4.028 19.564,4.011 15.110 L 3.995 11.000 11.997 11.000 L 20.000 11.000 20.000 11.353 C 20.000 12.152,20.292 12.485,20.997 12.488 C 21.348 12.490,21.556 12.418,21.751 12.229 C 21.996 11.992,22.000 11.948,22.000 9.483 C 22.000 6.880,21.968 6.387,21.755 5.680 C 21.531 4.934,20.971 4.189,20.287 3.725 C 19.573 3.241,18.954 3.076,17.634 3.018 L 17.008 2.991 16.993 2.305 C 16.975 1.524,16.927 1.364,16.649 1.182 C 16.199 0.887,15.426 0.979,15.170 1.358 C 15.029 1.568,15.000 1.739,15.000 2.390 L 15.000 3.000 12.004 3.000 L 9.008 3.000 8.993 2.310 C 8.976 1.541,8.930 1.378,8.678 1.199 C 8.414 1.010,7.957 0.950,7.614 1.057 M7.000 5.610 C 7.000 5.946,7.019 6.285,7.041 6.365 C 7.148 6.750,7.437 6.962,7.896 6.991 C 8.381 7.022,8.699 6.882,8.880 6.558 C 8.974 6.391,8.981 6.338,8.994 5.690 L 9.008 5.000 12.004 5.000 L 15.000 5.000 15.000 5.610 C 15.000 5.946,15.019 6.285,15.041 6.365 C 15.148 6.750,15.437 6.962,15.896 6.991 C 16.381 7.022,16.699 6.882,16.880 6.558 C 16.974 6.391,16.981 6.338,16.994 5.685 L 17.008 4.990 17.614 5.018 C 18.655 5.066,18.969 5.168,19.400 5.600 C 19.887 6.086,19.952 6.340,19.987 7.890 L 20.012 9.000 12.000 9.000 L 3.988 9.000 4.013 7.890 C 4.047 6.409,4.112 6.120,4.520 5.667 C 4.967 5.169,5.422 5.030,6.690 5.006 L 7.000 5.000 7.000 5.610 M15.344 14.066 C 14.531 14.240,13.701 14.885,13.321 15.638 C 13.032 16.211,12.929 16.962,13.056 17.559 C 13.125 17.883,13.321 18.329,13.526 18.630 C 13.808 19.043,14.917 20.109,16.277 21.276 C 17.054 21.942,17.183 22.020,17.500 22.018 C 17.807 22.016,17.892 21.969,18.475 21.481 C 19.726 20.433,20.923 19.310,21.332 18.800 C 22.038 17.921,22.195 16.759,21.742 15.775 C 21.570 15.403,21.453 15.235,21.151 14.928 C 20.216 13.975,18.916 13.744,17.709 14.317 C 17.525 14.405,17.465 14.417,17.409 14.381 C 17.234 14.265,16.802 14.114,16.491 14.060 C 16.070 13.986,15.706 13.988,15.344 14.066 M16.396 16.118 C 16.487 16.165,16.663 16.294,16.786 16.406 C 17.054 16.648,17.279 16.758,17.511 16.759 C 17.760 16.760,17.916 16.680,18.238 16.385 C 18.725 15.938,19.117 15.886,19.589 16.208 C 19.846 16.382,19.980 16.640,19.980 16.960 C 19.980 17.307,19.874 17.483,19.349 18.006 C 18.968 18.385,17.721 19.516,17.557 19.631 C 17.492 19.676,17.410 19.617,16.803 19.080 C 15.898 18.280,15.280 17.665,15.137 17.420 C 14.973 17.140,14.970 16.784,15.131 16.511 C 15.403 16.049,15.936 15.883,16.396 16.118 " stroke="none" fill-rule="evenodd" fill="black"></path></svg>