<svg width="24" height="24" viewBox="0 0 24 24" fill="none" xmlns="http://www.w3.org/2000/svg"><path d="M7.614 1.057 C 7.377 1.131,7.212 1.261,7.109 1.453 C 7.029 1.603,7.019 1.689,7.007 2.305 L 6.994 2.991 6.367 3.018 C 5.290 3.065,4.711 3.181,4.160 3.460 C 3.083 4.005,2.355 4.970,2.124 6.160 C 2.013 6.729,2.000 7.455,2.000 13.000 C 2.000 19.358,2.006 19.526,2.245 20.320 C 2.518 21.228,3.251 22.085,4.141 22.535 C 4.613 22.775,5.072 22.891,5.820 22.959 C 6.406 23.013,12.171 23.013,12.365 22.959 C 12.586 22.898,12.770 22.755,12.880 22.558 C 12.967 22.402,12.980 22.332,12.979 22.000 C 12.977 21.469,12.852 21.246,12.455 21.071 C 12.366 21.032,11.588 21.015,9.060 20.998 C 5.557 20.974,5.510 20.971,5.080 20.769 C 4.812 20.644,4.376 20.216,4.248 19.952 C 4.025 19.493,4.028 19.564,4.011 15.110 L 3.995 11.000 11.997 11.000 L 20.000 11.000 20.000 11.853 C 20.000 12.825,20.036 13.023,20.249 13.229 C 20.442 13.416,20.647 13.487,20.997 13.488 C 21.348 13.490,21.556 13.418,21.751 13.229 C 22.001 12.987,22.000 12.997,22.000 9.983 C 22.000 6.857,21.974 6.408,21.755 5.680 C 21.531 4.934,20.971 4.189,20.287 3.725 C 19.573 3.241,18.954 3.076,17.634 3.018 L 17.008 2.991 16.993 2.305 C 16.975 1.524,16.927 1.364,16.649 1.182 C 16.199 0.887,15.426 0.979,15.170 1.358 C 15.029 1.568,15.000 1.739,15.000 2.390 L 15.000 3.000 12.004 3.000 L 9.008 3.000 8.993 2.310 C 8.976 1.541,8.930 1.378,8.678 1.199 C 8.414 1.010,7.957 0.950,7.614 1.057 M7.000 5.610 C 7.000 5.946,7.019 6.285,7.041 6.365 C 7.148 6.750,7.437 6.962,7.896 6.991 C 8.381 7.022,8.699 6.882,8.880 6.558 C 8.974 6.391,8.981 6.338,8.994 5.690 L 9.008 5.000 12.004 5.000 L 15.000 5.000 15.000 5.610 C 15.000 5.946,15.019 6.285,15.041 6.365 C 15.148 6.750,15.437 6.962,15.896 6.991 C 16.381 7.022,16.699 6.882,16.880 6.558 C 16.974 6.391,16.981 6.338,16.994 5.685 L 17.008 4.990 17.614 5.018 C 18.655 5.066,18.969 5.168,19.400 5.600 C 19.887 6.086,19.952 6.340,19.987 7.890 L 20.012 9.000 12.000 9.000 L 3.988 9.000 4.013 7.890 C 4.047 6.409,4.112 6.120,4.520 5.667 C 4.967 5.169,5.422 5.030,6.690 5.006 L 7.000 5.000 7.000 5.610 M20.680 15.523 C 20.544 15.584,20.020 16.083,18.519 17.582 C 17.430 18.670,16.522 19.560,16.501 19.560 C 16.480 19.560,16.129 19.228,15.721 18.822 C 15.258 18.362,14.923 18.061,14.831 18.022 C 14.645 17.944,14.360 17.942,14.180 18.018 C 13.831 18.163,13.441 18.683,13.441 19.000 C 13.441 19.316,13.575 19.484,14.826 20.728 C 15.652 21.550,16.068 21.936,16.177 21.981 C 16.389 22.070,16.646 22.063,16.850 21.964 C 17.096 21.845,21.892 17.040,21.982 16.823 C 22.129 16.469,22.022 16.104,21.678 15.782 C 21.320 15.447,21.020 15.370,20.680 15.523 " stroke="none" fill-rule="evenodd" fill="black"></path></svg>