<svg width="24" height="24" viewBox="0 0 24 24" fill="none" xmlns="http://www.w3.org/2000/svg"><path d="M7.614 1.057 C 7.377 1.131,7.212 1.261,7.109 1.453 C 7.029 1.603,7.019 1.689,7.007 2.305 L 6.994 2.991 6.367 3.018 C 5.290 3.065,4.711 3.181,4.160 3.460 C 3.083 4.005,2.355 4.970,2.124 6.160 C 2.013 6.729,2.000 7.455,2.000 13.000 C 2.000 19.358,2.006 19.526,2.245 20.320 C 2.577 21.422,3.578 22.423,4.680 22.755 C 5.474 22.994,5.642 23.000,12.000 23.000 C 18.358 23.000,18.526 22.994,19.320 22.755 C 20.422 22.423,21.423 21.422,21.755 20.320 C 21.994 19.526,22.000 19.358,22.000 13.000 C 22.000 7.455,21.987 6.729,21.876 6.160 C 21.680 5.147,21.120 4.290,20.287 3.725 C 19.573 3.241,18.954 3.076,17.634 3.018 L 17.008 2.991 16.993 2.305 C 16.975 1.524,16.927 1.364,16.649 1.182 C 16.199 0.887,15.426 0.979,15.170 1.358 C 15.029 1.568,15.000 1.739,15.000 2.390 L 15.000 3.000 12.004 3.000 L 9.008 3.000 8.993 2.310 C 8.976 1.541,8.930 1.378,8.678 1.199 C 8.414 1.010,7.957 0.950,7.614 1.057 M7.000 5.610 C 7.000 5.946,7.019 6.285,7.041 6.365 C 7.148 6.750,7.437 6.962,7.896 6.991 C 8.381 7.022,8.699 6.882,8.880 6.558 C 8.974 6.391,8.981 6.338,8.994 5.690 L 9.008 5.000 12.004 5.000 L 15.000 5.000 15.000 5.610 C 15.000 5.946,15.019 6.285,15.041 6.365 C 15.148 6.750,15.437 6.962,15.896 6.991 C 16.381 7.022,16.699 6.882,16.880 6.558 C 16.974 6.391,16.981 6.338,16.994 5.685 L 17.008 4.990 17.614 5.018 C 18.655 5.066,18.969 5.168,19.400 5.600 C 19.887 6.086,19.952 6.340,19.987 7.890 L 20.012 9.000 12.000 9.000 L 3.988 9.000 4.013 7.890 C 4.047 6.409,4.112 6.120,4.520 5.667 C 4.967 5.169,5.422 5.030,6.690 5.006 L 7.000 5.000 7.000 5.610 M19.989 15.110 C 19.972 19.564,19.975 19.493,19.752 19.952 C 19.626 20.211,19.190 20.638,18.918 20.768 C 18.466 20.985,18.627 20.980,12.000 20.980 C 5.383 20.980,5.538 20.985,5.082 20.771 C 4.812 20.643,4.377 20.217,4.248 19.952 C 4.025 19.493,4.028 19.564,4.011 15.110 L 3.995 11.000 12.000 11.000 L 20.005 11.000 19.989 15.110 " stroke="none" fill-rule="evenodd" fill="black"></path></svg>