<svg width="24" height="24" viewBox="0 0 24 24" fill="none" xmlns="http://www.w3.org/2000/svg"><path d="M18.614 1.057 C 18.377 1.131,18.212 1.261,18.109 1.453 C 18.024 1.613,18.020 1.668,18.008 2.810 L 17.996 4.000 16.904 4.000 C 15.744 4.000,15.570 4.022,15.322 4.199 C 15.100 4.357,15.020 4.568,15.020 5.000 C 15.020 5.331,15.033 5.403,15.120 5.558 C 15.230 5.755,15.414 5.898,15.635 5.959 C 15.716 5.982,16.270 6.000,16.890 6.000 L 18.000 6.000 18.000 7.110 C 18.000 7.730,18.018 8.284,18.041 8.365 C 18.148 8.750,18.437 8.962,18.896 8.991 C 19.381 9.022,19.699 8.882,19.880 8.558 C 19.979 8.381,19.980 8.374,19.993 7.190 L 20.005 6.000 21.113 6.000 C 21.731 6.000,22.284 5.982,22.365 5.959 C 22.586 5.898,22.770 5.755,22.880 5.558 C 22.967 5.402,22.980 5.332,22.979 5.000 C 22.978 4.567,22.898 4.355,22.678 4.199 C 22.430 4.022,22.256 4.000,21.096 4.000 L 20.005 4.000 19.993 2.810 C 19.981 1.669,19.976 1.613,19.891 1.453 C 19.842 1.362,19.746 1.247,19.678 1.199 C 19.414 1.010,18.957 0.950,18.614 1.057 M6.120 2.041 C 5.497 2.071,5.318 2.091,4.820 2.187 C 3.943 2.357,3.102 2.823,2.436 3.508 C 1.507 4.465,1.144 5.375,1.038 7.015 C 0.991 7.751,0.991 16.249,1.038 16.985 C 1.144 18.622,1.507 19.536,2.430 20.486 C 3.370 21.453,4.344 21.854,6.015 21.962 C 6.751 22.009,17.249 22.009,17.985 21.962 C 19.622 21.856,20.536 21.493,21.486 20.570 C 22.251 19.826,22.678 19.010,22.858 17.945 C 22.972 17.275,22.998 16.513,22.999 13.857 C 23.000 10.965,23.003 11.001,22.723 10.747 C 22.536 10.578,22.351 10.520,22.000 10.520 C 21.649 10.520,21.464 10.578,21.277 10.747 C 20.999 10.999,21.000 10.987,20.999 13.657 C 20.997 17.475,20.951 17.935,20.499 18.642 C 20.185 19.134,19.681 19.553,19.173 19.744 C 18.533 19.985,18.679 19.980,12.060 19.980 C 5.578 19.980,5.559 19.979,4.920 19.777 C 4.384 19.607,3.838 19.170,3.499 18.640 C 3.020 17.891,3.002 17.643,3.002 12.000 C 3.002 6.354,3.020 6.110,3.501 5.358 C 3.714 5.024,4.024 4.714,4.358 4.501 C 5.082 4.038,5.475 4.002,9.823 4.001 C 13.012 4.000,12.986 4.002,13.229 3.751 C 13.418 3.556,13.486 3.355,13.486 2.997 C 13.486 2.491,13.303 2.196,12.909 2.064 C 12.739 2.007,12.370 2.001,9.709 2.006 C 8.054 2.010,6.439 2.026,6.120 2.041 M11.400 7.044 C 9.761 7.229,8.261 8.290,7.526 9.785 C 7.158 10.533,7.020 11.136,7.020 12.000 C 7.020 12.670,7.078 13.044,7.268 13.600 C 7.846 15.291,9.253 16.525,11.040 16.907 C 11.511 17.008,12.489 17.008,12.960 16.907 C 14.488 16.580,15.748 15.630,16.433 14.288 C 16.838 13.494,16.980 12.899,16.980 12.000 C 16.980 11.101,16.838 10.506,16.433 9.713 C 15.794 8.461,14.604 7.510,13.240 7.162 C 12.669 7.016,12.019 6.974,11.400 7.044 M12.861 9.129 C 13.804 9.405,14.584 10.183,14.875 11.139 C 14.958 11.412,14.973 11.542,14.973 12.000 C 14.973 12.458,14.958 12.588,14.875 12.861 C 14.588 13.803,13.845 14.555,12.887 14.872 C 12.620 14.961,12.508 14.974,12.020 14.977 C 11.539 14.980,11.418 14.967,11.160 14.886 C 10.180 14.580,9.418 13.822,9.125 12.861 C 9.042 12.588,9.027 12.458,9.027 12.000 C 9.027 11.542,9.042 11.412,9.125 11.139 C 9.456 10.054,10.371 9.245,11.499 9.040 C 11.832 8.980,12.500 9.023,12.861 9.129 " stroke="none" fill-rule="evenodd" fill="black"></path></svg>