<svg width="24" height="24" viewBox="0 0 24 24" fill="none" xmlns="http://www.w3.org/2000/svg"><path d="M11.240 1.024 C 11.141 1.033,10.907 1.060,10.720 1.084 C 10.533 1.108,10.256 1.135,10.105 1.145 C 9.954 1.155,9.797 1.180,9.758 1.201 C 9.718 1.223,9.479 1.293,9.227 1.358 C 8.247 1.611,7.181 2.062,6.303 2.595 C 5.524 3.068,4.956 3.520,4.238 4.238 C 3.148 5.328,2.422 6.395,1.860 7.738 C 1.759 7.979,1.661 8.195,1.642 8.218 C 1.606 8.262,1.602 8.277,1.383 9.120 C 0.686 11.794,0.944 14.425,2.141 16.860 C 2.474 17.538,2.750 17.992,3.171 18.553 C 3.330 18.765,3.487 18.987,3.520 19.045 C 3.622 19.226,4.906 20.425,5.375 20.777 C 5.994 21.242,6.443 21.517,7.140 21.859 C 7.813 22.190,8.299 22.378,9.011 22.583 C 10.230 22.934,11.733 23.079,12.920 22.960 C 13.129 22.939,13.453 22.911,13.640 22.898 C 13.827 22.884,14.124 22.831,14.300 22.780 C 14.476 22.728,14.845 22.621,15.120 22.541 C 16.908 22.021,18.392 21.133,19.762 19.762 C 20.852 18.672,21.578 17.605,22.140 16.262 C 22.241 16.021,22.339 15.805,22.358 15.782 C 22.394 15.738,22.398 15.723,22.617 14.880 C 23.314 12.206,23.056 9.575,21.859 7.140 C 21.526 6.462,21.250 6.008,20.829 5.447 C 20.670 5.235,20.513 5.014,20.480 4.956 C 20.404 4.821,19.270 3.731,18.900 3.436 C 17.332 2.188,15.546 1.410,13.580 1.120 C 13.040 1.040,11.681 0.985,11.240 1.024 M13.892 3.204 C 14.835 3.397,16.067 3.907,16.880 4.440 C 17.373 4.764,17.896 5.185,18.316 5.596 L 18.652 5.925 18.629 6.592 C 18.594 7.586,18.448 8.355,18.134 9.195 C 17.889 9.849,17.445 10.686,17.094 11.154 C 16.971 11.317,16.962 11.321,16.944 11.234 C 16.862 10.832,16.773 10.511,16.672 10.248 C 16.541 9.909,16.511 9.773,16.441 9.180 C 16.317 8.141,16.034 7.178,15.562 6.180 C 15.075 5.152,14.481 4.297,13.610 3.370 C 13.481 3.232,13.400 3.120,13.430 3.120 C 13.460 3.120,13.668 3.158,13.892 3.204 M10.356 3.386 C 11.572 4.060,12.623 5.080,13.361 6.301 C 13.591 6.682,13.900 7.313,13.871 7.343 C 13.860 7.354,13.754 7.327,13.635 7.284 C 13.331 7.172,12.983 7.089,12.680 7.057 C 12.537 7.042,12.352 6.995,12.270 6.954 C 11.968 6.802,11.129 6.484,10.720 6.367 C 9.018 5.878,7.258 5.844,5.466 6.264 C 5.227 6.320,5.025 6.358,5.017 6.350 C 5.008 6.342,5.150 6.170,5.331 5.968 C 6.227 4.970,7.376 4.164,8.622 3.660 C 9.081 3.474,9.826 3.244,9.976 3.242 C 10.040 3.241,10.211 3.306,10.356 3.386 M8.862 8.026 C 8.899 8.040,8.806 8.153,8.579 8.368 C 8.393 8.544,8.159 8.797,8.059 8.929 C 7.959 9.062,7.775 9.244,7.649 9.333 C 6.865 9.889,5.980 10.739,5.448 11.448 C 4.633 12.535,4.078 13.671,3.676 15.071 C 3.615 15.281,3.598 15.259,3.438 14.764 C 3.282 14.282,3.183 13.856,3.094 13.280 C 2.997 12.647,2.996 11.357,3.094 10.720 C 3.168 10.238,3.342 9.469,3.405 9.351 C 3.454 9.258,4.044 8.914,4.516 8.702 C 5.417 8.298,6.152 8.106,7.200 8.000 C 7.537 7.966,8.754 7.985,8.862 8.026 M20.581 9.292 C 20.865 10.189,20.976 10.942,20.977 11.980 C 20.978 12.936,20.881 13.694,20.658 14.461 C 20.598 14.669,20.573 14.699,20.348 14.845 C 19.461 15.418,18.231 15.836,16.992 15.984 C 16.479 16.046,15.221 16.042,15.118 15.979 C 15.097 15.966,15.233 15.810,15.419 15.634 C 15.606 15.457,15.840 15.205,15.938 15.074 C 16.044 14.933,16.244 14.745,16.428 14.613 C 16.926 14.256,17.307 13.923,17.800 13.415 C 18.980 12.198,19.814 10.723,20.302 8.993 L 20.377 8.725 20.428 8.844 C 20.455 8.910,20.524 9.111,20.581 9.292 M12.842 9.126 C 13.197 9.218,13.616 9.441,13.911 9.695 C 14.230 9.969,14.512 10.318,14.581 10.524 C 14.615 10.625,14.685 10.766,14.738 10.837 C 14.986 11.174,15.063 12.194,14.887 12.814 C 14.783 13.183,14.711 13.331,14.551 13.515 C 14.487 13.589,14.413 13.697,14.388 13.755 C 14.220 14.146,13.531 14.659,12.887 14.872 C 12.610 14.964,12.523 14.974,12.000 14.969 C 11.348 14.963,11.066 14.900,10.600 14.656 C 10.144 14.417,9.593 13.882,9.429 13.520 C 9.384 13.421,9.315 13.295,9.275 13.240 C 9.023 12.891,8.937 11.802,9.112 11.188 C 9.427 10.083,10.373 9.233,11.499 9.043 C 11.795 8.993,12.496 9.036,12.842 9.126 M7.140 13.140 C 7.179 13.316,7.270 13.614,7.344 13.803 C 7.438 14.041,7.491 14.262,7.519 14.523 C 7.756 16.797,8.693 18.819,10.304 20.535 C 10.677 20.933,10.681 20.929,10.032 20.782 C 9.363 20.630,8.673 20.383,8.020 20.062 C 7.122 19.619,6.447 19.143,5.723 18.441 L 5.348 18.077 5.371 17.408 C 5.406 16.416,5.551 15.651,5.865 14.805 C 6.049 14.311,6.476 13.479,6.779 13.025 C 7.046 12.625,7.028 12.620,7.140 13.140 M10.368 16.718 C 10.643 16.818,10.989 16.903,11.344 16.956 C 11.500 16.980,11.761 17.060,11.925 17.135 C 13.991 18.076,16.242 18.280,18.555 17.735 C 18.784 17.681,18.977 17.644,18.984 17.651 C 19.012 17.679,18.363 18.376,18.036 18.670 C 16.979 19.620,15.812 20.266,14.443 20.659 L 13.981 20.792 13.788 20.694 C 12.669 20.127,11.607 19.160,10.841 18.010 C 10.486 17.478,10.055 16.640,10.136 16.640 C 10.147 16.640,10.252 16.675,10.368 16.718 " stroke="none" fill-rule="evenodd" fill="black"></path></svg>