<svg width="24" height="24" viewBox="0 0 24 24" fill="none" xmlns="http://www.w3.org/2000/svg"><path d="M1.626 1.045 C 1.420 1.154,1.146 1.433,1.038 1.644 C 0.924 1.868,0.924 2.133,1.040 2.363 C 1.112 2.506,2.895 4.363,4.272 5.728 C 4.331 5.787,8.223 9.668,12.920 14.354 C 19.091 20.509,21.509 22.897,21.637 22.961 C 21.990 23.137,22.355 23.047,22.701 22.701 C 23.048 22.354,23.137 21.988,22.960 21.640 C 22.911 21.544,22.683 21.272,22.453 21.036 L 22.035 20.608 22.198 20.394 C 22.571 19.904,22.876 19.150,22.960 18.515 C 22.990 18.282,23.000 16.534,22.990 12.760 L 22.977 7.340 22.890 7.031 C 22.675 6.268,22.353 5.710,21.821 5.179 C 21.287 4.645,20.717 4.317,20.000 4.132 C 19.698 4.054,19.468 4.028,18.878 4.006 C 18.167 3.978,18.128 3.972,17.949 3.868 C 17.706 3.725,17.589 3.566,17.458 3.200 C 17.345 2.886,17.140 2.462,17.005 2.263 C 16.961 2.199,16.823 2.042,16.696 1.913 C 16.315 1.524,15.825 1.237,15.300 1.096 C 15.037 1.025,14.835 1.020,12.000 1.020 C 9.165 1.020,8.963 1.025,8.700 1.096 C 8.175 1.237,7.685 1.524,7.304 1.913 C 7.177 2.042,7.039 2.199,6.995 2.263 C 6.860 2.462,6.655 2.886,6.542 3.200 C 6.483 3.364,6.390 3.558,6.336 3.629 C 6.192 3.818,5.921 3.962,5.659 3.989 L 5.434 4.012 3.987 2.570 C 3.064 1.651,2.479 1.098,2.372 1.045 C 2.152 0.934,1.835 0.934,1.626 1.045 M14.870 3.061 C 15.182 3.153,15.396 3.385,15.535 3.780 C 15.857 4.691,16.378 5.322,17.109 5.681 C 17.571 5.909,17.831 5.962,18.660 5.999 C 19.511 6.036,19.712 6.084,20.100 6.342 C 20.521 6.621,20.797 7.014,20.923 7.513 C 21.000 7.816,21.001 7.965,20.991 13.122 L 20.980 18.420 20.863 18.707 C 20.798 18.864,20.713 19.035,20.674 19.087 L 20.603 19.180 18.486 17.065 L 16.370 14.950 16.548 14.574 C 17.258 13.075,17.112 11.177,16.178 9.761 C 15.415 8.604,14.194 7.810,12.822 7.577 C 12.247 7.479,11.287 7.516,10.760 7.655 C 10.372 7.757,9.896 7.939,9.679 8.067 L 9.559 8.138 8.299 6.879 C 7.176 5.756,7.047 5.615,7.110 5.571 C 7.820 5.074,8.173 4.606,8.465 3.780 C 8.602 3.390,8.813 3.155,9.107 3.065 C 9.399 2.975,14.569 2.971,14.870 3.061 M1.545 6.579 C 1.460 6.609,1.329 6.693,1.254 6.766 C 0.987 7.024,1.000 6.740,1.000 12.517 C 1.000 18.319,1.008 18.533,1.245 19.320 C 1.577 20.422,2.578 21.423,3.680 21.755 C 4.467 21.992,4.681 22.000,10.483 22.000 C 16.246 22.000,15.977 22.012,16.229 21.751 C 16.417 21.557,16.486 21.355,16.486 21.000 C 16.486 20.536,16.331 20.244,16.000 20.087 C 15.872 20.026,15.379 20.018,10.300 19.997 C 4.361 19.972,4.523 19.977,4.080 19.769 C 3.812 19.643,3.376 19.216,3.248 18.952 C 3.019 18.482,3.028 18.702,3.003 12.680 C 2.977 6.524,3.001 6.989,2.707 6.732 C 2.627 6.662,2.494 6.585,2.411 6.562 C 2.200 6.504,1.730 6.513,1.545 6.579 M12.677 9.579 C 13.547 9.762,14.322 10.396,14.723 11.254 C 14.895 11.621,14.958 11.878,14.984 12.320 C 15.005 12.673,14.930 13.323,14.861 13.392 C 14.848 13.406,13.992 12.572,12.960 11.540 C 11.928 10.508,11.091 9.656,11.100 9.646 C 11.110 9.637,11.213 9.606,11.329 9.578 C 11.621 9.507,12.337 9.508,12.677 9.579 M7.545 11.579 C 7.320 11.659,7.128 11.863,7.059 12.096 C 6.893 12.656,7.114 13.917,7.522 14.723 C 8.357 16.379,10.069 17.467,11.871 17.487 C 12.356 17.492,12.532 17.441,12.751 17.229 C 13.097 16.894,13.081 16.071,12.722 15.747 C 12.537 15.580,12.389 15.535,11.900 15.499 C 11.434 15.465,11.104 15.390,10.783 15.244 C 10.112 14.940,9.593 14.424,9.282 13.749 C 9.091 13.335,9.045 13.144,9.004 12.587 C 8.985 12.341,8.943 12.077,8.911 11.999 C 8.835 11.818,8.603 11.616,8.411 11.562 C 8.200 11.504,7.730 11.513,7.545 11.579 " stroke="none" fill-rule="evenodd" fill="black"></path></svg>