<svg width="24" height="24" viewBox="0 0 24 24" fill="none" xmlns="http://www.w3.org/2000/svg"><path d="M4.499 1.043 C 3.380 1.232,2.461 2.048,2.114 3.160 L 2.020 3.460 2.020 11.000 L 2.020 18.540 2.114 18.840 C 2.419 19.818,3.164 20.568,4.140 20.882 C 4.387 20.962,4.525 20.974,5.320 20.989 L 6.220 21.007 7.260 22.041 C 8.360 23.135,8.494 23.237,8.831 23.239 C 8.925 23.240,9.069 23.212,9.151 23.178 C 9.251 23.137,9.746 22.672,10.650 21.769 L 11.999 20.422 13.330 21.749 C 14.736 23.151,14.844 23.237,15.191 23.239 C 15.512 23.241,15.614 23.162,16.720 22.061 L 17.780 21.007 18.680 20.989 C 19.475 20.974,19.613 20.962,19.860 20.882 C 20.836 20.568,21.581 19.818,21.886 18.840 L 21.980 18.540 21.980 11.000 L 21.980 3.460 21.886 3.160 C 21.581 2.182,20.832 1.428,19.861 1.121 L 19.540 1.020 12.120 1.014 C 8.039 1.011,4.609 1.024,4.499 1.043 M19.310 3.061 C 19.589 3.144,19.856 3.411,19.939 3.690 C 19.993 3.870,20.000 4.755,20.000 11.001 C 20.000 16.907,19.991 18.138,19.945 18.290 C 19.834 18.658,19.517 18.935,19.147 18.985 C 19.004 19.005,18.960 18.998,18.960 18.957 C 18.960 18.927,18.294 18.236,17.480 17.421 C 16.050 15.988,16.000 15.933,16.000 15.786 C 16.000 15.525,15.848 14.869,15.705 14.516 C 15.172 13.197,14.001 12.269,12.605 12.058 C 12.121 11.986,11.879 11.986,11.395 12.058 C 10.002 12.269,8.833 13.195,8.289 14.521 C 8.157 14.841,8.000 15.531,8.000 15.787 C 8.000 15.935,7.955 15.985,6.619 17.320 C 5.860 18.079,5.190 18.769,5.131 18.854 C 5.027 19.003,5.017 19.008,4.845 18.984 C 4.619 18.953,4.363 18.804,4.225 18.623 C 3.986 18.309,4.000 18.795,4.000 11.022 C 4.000 4.758,4.007 3.870,4.061 3.690 C 4.140 3.421,4.412 3.143,4.673 3.063 C 4.964 2.974,19.009 2.971,19.310 3.061 M8.614 5.057 C 8.377 5.131,8.212 5.261,8.109 5.453 C 8.035 5.592,8.020 5.684,8.020 6.000 C 8.020 6.331,8.033 6.403,8.120 6.558 C 8.230 6.755,8.414 6.898,8.635 6.959 C 8.832 7.014,15.168 7.014,15.365 6.959 C 15.586 6.898,15.770 6.755,15.880 6.558 C 15.967 6.402,15.980 6.332,15.979 6.000 C 15.978 5.567,15.898 5.355,15.678 5.199 C 15.398 4.999,15.411 5.000,11.984 5.003 C 9.472 5.005,8.744 5.017,8.614 5.057 M6.545 8.579 C 6.095 8.739,5.884 9.316,6.060 9.908 C 6.130 10.143,6.341 10.359,6.585 10.445 C 6.713 10.491,7.647 10.500,12.000 10.500 C 17.781 10.500,17.432 10.515,17.725 10.251 C 17.982 10.018,18.072 9.536,17.940 9.092 C 17.868 8.852,17.645 8.627,17.413 8.563 C 17.309 8.534,15.584 8.521,11.980 8.522 C 7.593 8.523,6.674 8.533,6.545 8.579 M12.523 14.073 C 13.407 14.304,14.094 15.259,13.980 16.100 C 13.966 16.210,13.946 16.372,13.937 16.460 C 13.900 16.829,13.497 17.409,13.093 17.676 C 12.749 17.904,12.511 17.967,12.000 17.967 C 11.489 17.967,11.251 17.904,10.907 17.676 C 10.464 17.383,10.080 16.803,10.080 16.426 C 10.080 16.316,10.058 16.166,10.032 16.093 C 9.994 15.989,9.994 15.896,10.033 15.670 C 10.193 14.717,11.034 14.005,12.000 14.005 C 12.143 14.005,12.378 14.036,12.523 14.073 M8.989 18.625 C 9.214 18.890,9.688 19.290,9.931 19.419 C 10.013 19.463,10.080 19.508,10.080 19.520 C 10.080 19.531,9.801 19.820,9.460 20.160 L 8.840 20.779 8.130 20.070 L 7.421 19.360 8.020 18.760 L 8.620 18.159 8.700 18.269 C 8.744 18.329,8.874 18.490,8.989 18.625 M16.020 18.760 L 16.619 19.360 15.910 20.070 L 15.200 20.779 14.580 20.160 C 14.239 19.820,13.960 19.529,13.960 19.514 C 13.960 19.499,14.048 19.433,14.155 19.367 C 14.469 19.174,14.882 18.797,15.140 18.467 C 15.272 18.299,15.389 18.161,15.401 18.160 C 15.412 18.160,15.691 18.430,16.020 18.760 " stroke="none" fill-rule="evenodd" fill="black"></path></svg>