<svg width="24" height="24" viewBox="0 0 24 24" fill="none" xmlns="http://www.w3.org/2000/svg"><path d="M4.620 1.028 C 4.332 1.069,3.998 1.178,3.720 1.323 C 2.795 1.804,2.189 2.667,2.040 3.711 C 2.009 3.930,2.000 6.413,2.008 12.200 C 2.020 19.911,2.024 20.394,2.092 20.618 C 2.291 21.283,2.507 21.659,2.940 22.100 C 3.303 22.469,3.667 22.702,4.140 22.868 L 4.460 22.980 12.000 22.980 L 19.540 22.980 19.855 22.869 C 20.335 22.699,20.700 22.466,21.060 22.100 C 21.493 21.659,21.709 21.283,21.908 20.618 C 21.976 20.394,21.980 19.911,21.992 12.200 C 22.000 6.413,21.991 3.930,21.960 3.711 C 21.811 2.667,21.204 1.804,20.280 1.323 C 19.647 0.994,20.410 1.023,12.120 1.017 C 8.061 1.014,4.686 1.019,4.620 1.028 M19.245 3.041 C 19.456 3.099,19.738 3.367,19.868 3.631 L 19.980 3.860 19.980 12.000 L 19.980 20.140 19.895 20.325 C 19.780 20.572,19.553 20.817,19.345 20.918 C 19.175 21.000,19.161 21.000,12.000 21.000 C 4.839 21.000,4.825 21.000,4.655 20.918 C 4.447 20.817,4.220 20.572,4.105 20.325 L 4.020 20.140 4.020 12.000 L 4.020 3.860 4.132 3.631 C 4.257 3.378,4.543 3.099,4.736 3.043 C 4.914 2.992,19.059 2.989,19.245 3.041 M9.747 4.583 C 9.272 4.698,8.738 5.025,8.320 5.455 C 7.770 6.023,7.511 6.675,7.509 7.500 C 7.507 8.158,7.705 8.717,8.139 9.277 C 8.589 9.860,11.144 12.180,11.611 12.430 C 11.824 12.544,12.116 12.547,12.358 12.438 C 12.847 12.216,15.647 9.635,16.020 9.061 C 16.346 8.562,16.495 8.054,16.490 7.460 C 16.483 6.686,16.234 6.053,15.724 5.511 C 15.083 4.829,14.405 4.520,13.551 4.520 C 13.077 4.520,12.683 4.602,12.289 4.782 L 11.999 4.915 11.749 4.799 C 11.181 4.532,10.333 4.441,9.747 4.583 M10.871 6.599 C 10.964 6.642,11.135 6.766,11.251 6.874 C 11.538 7.145,11.770 7.261,12.020 7.257 C 12.268 7.254,12.420 7.176,12.727 6.894 C 13.026 6.619,13.233 6.522,13.522 6.521 C 13.908 6.519,14.274 6.765,14.432 7.132 C 14.497 7.284,14.493 7.641,14.423 7.805 C 14.341 7.997,14.011 8.370,13.491 8.855 C 12.839 9.463,12.044 10.160,12.000 10.160 C 11.915 10.160,10.152 8.560,9.857 8.215 C 9.588 7.899,9.520 7.747,9.520 7.460 C 9.520 6.948,9.949 6.519,10.458 6.521 C 10.610 6.521,10.763 6.551,10.871 6.599 M6.614 14.057 C 6.377 14.131,6.212 14.261,6.109 14.453 C 6.035 14.592,6.020 14.684,6.020 15.000 C 6.020 15.331,6.033 15.403,6.120 15.558 C 6.230 15.755,6.414 15.898,6.635 15.959 C 6.834 16.015,17.166 16.015,17.365 15.959 C 17.586 15.898,17.770 15.755,17.880 15.558 C 17.967 15.402,17.980 15.332,17.979 15.000 C 17.978 14.567,17.898 14.355,17.678 14.199 C 17.390 13.994,17.565 14.000,11.984 14.003 C 7.830 14.005,6.746 14.016,6.614 14.057 M8.545 17.579 C 8.320 17.659,8.128 17.863,8.059 18.096 C 7.928 18.536,8.019 19.019,8.275 19.251 C 8.562 19.510,8.414 19.500,12.000 19.500 C 15.586 19.500,15.438 19.510,15.725 19.251 C 15.982 19.018,16.072 18.536,15.940 18.092 C 15.868 17.852,15.645 17.627,15.413 17.563 C 15.311 17.534,14.174 17.521,11.980 17.522 C 9.294 17.523,8.672 17.534,8.545 17.579 " stroke="none" fill-rule="evenodd" fill="black"></path></svg>