<svg version="1.1" xmlns="http://www.w3.org/2000/svg" width="32" height="32" viewBox="0 0 32 32"><path d="M10.060 0.113 C 9.960 0.257,9.943 0.216,10.660 1.586 C 10.987 2.209,11.253 2.741,11.253 2.769 C 11.253 2.797,11.019 2.942,10.733 3.092 C 9.048 3.973,7.503 5.645,6.751 7.404 C 6.422 8.172,6.080 9.430,6.080 9.873 L 6.080 10.027 15.013 10.027 C 20.036 10.027,23.947 10.006,23.947 9.980 C 23.947 9.955,23.910 9.725,23.866 9.469 C 23.457 7.126,22.151 5.059,20.198 3.663 C 19.840 3.407,18.943 2.879,18.752 2.812 C 18.726 2.803,18.998 2.236,19.357 1.552 C 20.047 0.238,20.091 0.092,19.816 0.022 C 19.744 0.005,19.662 0.005,19.633 0.023 C 19.572 0.061,19.352 0.459,18.701 1.713 L 18.241 2.600 17.788 2.448 C 16.817 2.122,16.357 2.057,15.013 2.057 C 13.677 2.057,13.239 2.118,12.216 2.447 L 11.756 2.595 11.118 1.369 C 10.767 0.695,10.448 0.111,10.410 0.072 C 10.306 -0.034,10.150 -0.016,10.060 0.113 M11.610 5.698 C 12.155 5.976,12.427 6.404,12.426 6.984 C 12.425 7.432,12.263 7.794,11.931 8.086 C 10.858 9.030,9.223 7.968,9.624 6.588 C 9.865 5.760,10.858 5.315,11.610 5.698 M19.610 5.698 C 20.155 5.976,20.427 6.404,20.426 6.984 C 20.425 7.432,20.263 7.794,19.931 8.086 C 18.858 9.030,17.223 7.968,17.624 6.588 C 17.865 5.760,18.858 5.315,19.610 5.698 M2.392 10.099 C 1.839 10.303,1.421 10.681,1.181 11.194 L 1.040 11.493 1.040 16.001 L 1.040 20.509 1.215 20.864 C 2.062 22.585,4.551 22.258,4.957 20.373 C 5.004 20.157,5.016 18.957,5.003 15.813 L 4.987 11.547 4.817 11.189 C 4.610 10.751,4.283 10.415,3.864 10.209 C 3.596 10.077,3.473 10.051,3.067 10.040 C 2.763 10.031,2.515 10.053,2.392 10.099 M26.392 10.099 C 25.839 10.303,25.421 10.681,25.181 11.194 L 25.040 11.493 25.040 16.001 L 25.040 20.509 25.215 20.864 C 26.062 22.585,28.551 22.258,28.957 20.373 C 29.004 20.157,29.016 18.957,29.003 15.813 L 28.987 11.547 28.817 11.189 C 28.610 10.751,28.283 10.415,27.864 10.209 C 27.596 10.077,27.473 10.051,27.067 10.040 C 26.763 10.031,26.515 10.053,26.392 10.099 M5.985 17.747 L 6.000 23.493 6.148 23.911 C 6.490 24.879,7.137 25.525,8.081 25.842 C 8.411 25.953,8.635 25.986,9.229 26.011 L 9.967 26.043 9.984 28.208 C 10.001 30.314,10.005 30.382,10.123 30.674 C 10.372 31.295,10.800 31.702,11.406 31.893 C 11.835 32.028,12.165 32.028,12.594 31.893 C 13.200 31.702,13.628 31.295,13.877 30.674 C 13.995 30.382,13.999 30.314,14.016 28.200 L 14.033 26.027 15.014 26.027 L 15.996 26.027 16.011 28.253 L 16.027 30.480 16.176 30.800 C 16.372 31.220,16.783 31.633,17.194 31.823 C 17.475 31.953,17.586 31.973,18.000 31.973 C 18.414 31.973,18.524 31.953,18.800 31.824 C 19.220 31.628,19.633 31.217,19.823 30.806 L 19.973 30.480 19.989 28.261 L 20.004 26.043 20.762 26.011 C 21.591 25.976,21.919 25.901,22.427 25.635 C 22.878 25.399,23.450 24.810,23.667 24.360 C 24.011 23.649,23.998 23.901,23.999 17.667 L 24.000 12.000 14.985 12.000 L 5.969 12.000 5.985 17.747 " stroke="none" fill-rule="evenodd" fill="black"></path></svg>