<svg version="1.1" xmlns="http://www.w3.org/2000/svg" width="25" height="32" viewBox="0 0 25 32"><path d="M5.650 3.489 C 5.635 3.781,5.625 4.846,5.628 5.854 C 5.633 7.580,5.604 8.300,5.497 9.060 C 5.475 9.219,5.449 9.356,5.441 9.365 C 5.432 9.373,5.340 9.269,5.236 9.134 C 4.911 8.712,4.445 8.310,4.057 8.117 C 3.725 7.953,3.683 7.943,3.259 7.925 C 2.485 7.893,1.950 8.096,1.413 8.625 C 0.067 9.951,0.625 12.144,2.458 12.730 C 2.584 12.770,2.694 12.809,2.702 12.816 C 2.711 12.823,2.628 12.975,2.519 13.154 C 1.034 15.584,0.841 15.981,0.626 17.039 C 0.246 18.901,0.614 20.351,1.864 21.920 C 2.209 22.352,3.004 23.233,4.043 24.333 C 5.032 25.381,5.347 25.756,5.557 26.136 C 5.767 26.516,5.830 26.741,5.922 27.434 C 5.967 27.775,6.013 28.071,6.025 28.090 C 6.037 28.109,8.210 28.125,10.853 28.125 L 15.660 28.125 15.683 28.010 C 15.696 27.947,15.726 27.727,15.750 27.521 C 15.820 26.904,15.913 26.541,16.103 26.146 C 16.298 25.741,16.345 25.683,17.563 24.346 C 19.093 22.666,19.268 22.468,19.662 21.979 C 20.152 21.369,20.391 21.012,20.637 20.521 C 21.414 18.967,21.422 17.362,20.664 15.613 C 20.455 15.132,20.191 14.667,19.502 13.565 L 18.956 12.692 19.266 12.583 C 20.068 12.300,20.634 11.741,20.879 10.993 C 21.010 10.594,21.020 9.895,20.901 9.542 C 20.761 9.129,20.570 8.820,20.271 8.521 C 19.507 7.757,18.416 7.581,17.436 8.065 C 16.952 8.304,16.526 8.743,16.252 9.285 C 16.202 9.385,16.153 9.458,16.143 9.448 C 16.107 9.413,16.004 8.548,15.961 7.924 C 15.936 7.572,15.915 6.466,15.913 5.465 C 15.910 4.465,15.896 3.491,15.881 3.301 L 15.854 2.956 15.708 3.076 C 15.628 3.142,15.075 3.574,14.479 4.038 C 13.883 4.501,13.363 4.930,13.323 4.992 C 13.258 5.092,13.250 5.234,13.250 6.323 L 13.250 7.542 10.727 7.542 L 8.205 7.542 8.212 6.417 L 8.219 5.293 8.106 5.062 C 8.044 4.935,7.933 4.785,7.861 4.730 C 7.788 4.674,7.624 4.548,7.495 4.449 C 7.366 4.351,6.991 4.045,6.662 3.770 C 6.332 3.494,5.976 3.199,5.870 3.113 L 5.677 2.957 5.650 3.489 M6.979 4.800 L 7.563 5.271 7.563 7.583 C 7.563 10.049,7.570 10.158,7.774 10.699 C 7.829 10.845,7.930 11.049,8.000 11.152 C 8.069 11.254,8.125 11.378,8.125 11.428 C 8.125 11.478,8.021 11.810,7.893 12.167 L 7.661 12.815 7.383 12.867 C 6.259 13.077,5.618 13.960,5.509 15.448 C 5.450 16.246,5.542 17.021,5.835 18.208 C 6.182 19.613,6.640 20.631,7.339 21.549 C 7.718 22.046,8.014 22.209,8.383 22.122 C 8.739 22.038,8.948 21.738,9.023 21.198 L 9.051 21.000 10.752 21.000 L 12.453 21.000 12.480 21.198 C 12.554 21.736,12.699 21.953,13.060 22.067 C 13.490 22.203,13.703 22.076,14.230 21.370 C 15.033 20.294,15.335 19.507,15.779 17.333 C 15.990 16.300,16.013 16.136,16.013 15.667 C 16.012 15.034,15.893 14.525,15.607 13.938 C 15.260 13.223,14.829 12.892,14.179 12.839 L 13.854 12.813 13.617 12.146 C 13.487 11.779,13.379 11.423,13.379 11.354 C 13.378 11.281,13.437 11.135,13.523 11.000 C 13.885 10.433,13.934 9.968,13.897 7.479 C 13.867 5.426,13.867 5.416,14.076 5.192 C 14.250 5.004,15.217 4.245,15.245 4.273 C 15.259 4.287,15.282 5.220,15.295 6.347 C 15.322 8.594,15.336 8.751,15.604 9.860 C 15.793 10.642,16.021 11.304,16.423 12.244 C 17.336 14.374,18.096 16.294,18.216 16.773 C 18.348 17.297,18.347 18.241,18.215 18.727 C 18.022 19.432,17.569 20.157,16.988 20.688 C 16.823 20.839,16.247 21.275,15.708 21.657 C 14.957 22.190,14.620 22.459,14.261 22.814 C 13.755 23.315,13.635 23.508,13.596 23.893 C 13.538 24.448,13.944 24.950,14.512 25.026 L 14.712 25.053 14.700 25.391 L 14.688 25.729 13.679 25.740 L 12.671 25.751 12.583 25.553 C 12.329 24.976,11.722 24.724,10.669 24.757 C 10.190 24.772,10.123 24.784,9.875 24.901 C 9.567 25.046,9.310 25.285,9.163 25.561 L 9.063 25.750 7.969 25.750 L 6.875 25.750 6.875 25.396 C 6.875 25.044,6.876 25.042,6.982 25.042 C 7.552 25.042,7.975 24.562,7.975 23.917 C 7.975 23.680,7.910 23.511,7.722 23.261 C 7.667 23.186,6.970 22.606,6.175 21.971 C 5.380 21.336,4.569 20.657,4.373 20.461 C 3.810 19.899,3.503 19.385,3.327 18.712 C 3.223 18.314,3.213 17.531,3.307 17.104 C 3.466 16.381,4.157 14.536,4.944 12.733 C 5.592 11.250,5.886 10.330,6.080 9.183 C 6.226 8.318,6.250 7.867,6.250 6.036 C 6.250 4.344,6.254 4.249,6.323 4.289 C 6.363 4.311,6.658 4.542,6.979 4.800 M8.792 9.673 L 8.792 11.138 8.707 11.061 C 8.588 10.953,8.348 10.448,8.263 10.125 C 8.206 9.910,8.193 9.692,8.198 9.073 C 8.201 8.643,8.215 8.273,8.229 8.250 C 8.243 8.227,8.376 8.208,8.523 8.208 L 8.792 8.208 8.792 9.673 M10.458 14.271 L 10.458 20.333 9.938 20.333 L 9.417 20.333 9.417 14.271 L 9.417 8.208 9.938 8.208 L 10.458 8.208 10.458 14.271 M12.042 14.271 L 12.042 20.333 11.583 20.333 L 11.125 20.333 11.125 14.271 L 11.125 8.208 11.583 8.208 L 12.042 8.208 12.042 14.271 M13.292 8.913 C 13.292 9.365,13.269 9.734,13.229 9.943 C 13.165 10.277,12.955 10.774,12.799 10.958 L 12.711 11.063 12.710 9.635 L 12.708 8.208 13.000 8.208 L 13.292 8.208 13.292 8.913 M13.083 12.500 C 13.225 12.970,13.360 13.376,13.382 13.404 C 13.409 13.437,13.565 13.452,13.847 13.449 C 14.228 13.445,14.293 13.456,14.485 13.554 C 14.740 13.684,14.902 13.869,15.080 14.235 C 15.318 14.724,15.355 14.934,15.351 15.813 C 15.348 16.488,15.331 16.687,15.237 17.170 C 14.923 18.788,14.494 19.910,13.785 20.973 C 13.448 21.479,13.338 21.565,13.202 21.429 C 13.128 21.355,13.112 21.274,13.093 20.876 C 13.080 20.590,13.053 20.404,13.025 20.396 C 13.000 20.388,12.928 20.371,12.865 20.357 L 12.750 20.332 12.750 15.949 C 12.750 13.360,12.765 11.583,12.787 11.606 C 12.808 11.628,12.941 12.030,13.083 12.500 M8.792 16.042 L 8.792 20.375 8.604 20.375 L 8.417 20.375 8.417 20.751 C 8.417 21.114,8.356 21.372,8.257 21.433 C 8.168 21.488,7.931 21.318,7.735 21.061 C 7.003 20.097,6.699 19.277,6.264 17.098 C 6.078 16.169,6.052 15.481,6.183 15.000 C 6.330 14.464,6.498 14.094,6.695 13.875 C 6.982 13.556,7.143 13.489,7.687 13.461 L 8.145 13.438 8.414 12.573 C 8.583 12.030,8.704 11.708,8.738 11.708 C 8.782 11.708,8.792 12.518,8.792 16.042 " stroke="none" fill-rule="evenodd" fill="black"></path></svg>