<svg version="1.1" xmlns="http://www.w3.org/2000/svg" width="32" height="32" viewBox="0 0 32 32"><path d="M14.240 1.365 C 11.062 1.744,8.130 3.138,5.813 5.370 C 3.413 7.682,1.950 10.523,1.433 13.872 C 1.262 14.977,1.262 16.915,1.433 18.027 C 1.699 19.757,2.215 21.354,2.973 22.788 C 5.045 26.705,8.774 29.504,13.067 30.363 C 14.224 30.595,14.683 30.638,16.027 30.637 C 17.091 30.636,17.437 30.615,18.080 30.515 C 21.374 29.999,24.013 28.674,26.326 26.374 C 27.244 25.461,27.542 25.108,28.172 24.185 C 29.460 22.299,30.290 20.086,30.591 17.733 C 30.700 16.888,30.713 15.200,30.618 14.373 C 29.877 7.963,25.170 2.812,18.899 1.549 C 17.563 1.280,15.599 1.202,14.240 1.365 M17.600 3.928 C 20.190 4.251,22.634 5.461,24.533 7.360 C 26.314 9.141,27.444 11.305,27.901 13.813 C 28.063 14.700,28.099 16.470,27.975 17.444 C 27.355 22.322,23.773 26.384,19.021 27.598 C 17.885 27.889,17.238 27.968,16.000 27.968 C 14.761 27.969,14.115 27.890,12.989 27.601 C 8.666 26.493,5.270 23.043,4.244 18.720 C 4.006 17.716,3.933 17.063,3.931 15.920 C 3.927 13.853,4.348 12.101,5.281 10.311 C 5.881 9.159,6.517 8.299,7.489 7.330 C 10.155 4.668,13.774 3.450,17.600 3.928 M11.738 9.951 C 11.316 10.065,10.897 10.322,10.533 10.691 C 9.515 11.724,9.503 13.347,10.505 14.415 C 10.900 14.836,11.278 15.063,11.810 15.199 C 12.338 15.334,12.621 15.334,13.147 15.200 C 13.662 15.068,13.958 14.899,14.381 14.495 C 15.242 13.670,15.444 12.433,14.900 11.314 C 14.723 10.950,14.160 10.376,13.783 10.174 C 13.219 9.874,12.370 9.782,11.738 9.951 M18.779 9.951 C 18.337 10.070,17.981 10.285,17.594 10.666 C 17.037 11.216,16.800 11.790,16.800 12.591 C 16.800 13.773,17.511 14.758,18.644 15.148 C 20.523 15.795,22.484 14.168,22.198 12.201 C 22.039 11.111,21.250 10.224,20.187 9.939 C 19.841 9.847,19.145 9.853,18.779 9.951 M11.738 16.725 C 10.628 17.023,9.760 18.160,9.760 19.315 C 9.760 20.262,10.292 21.205,11.103 21.693 C 11.518 21.943,12.192 22.102,12.665 22.062 C 14.635 21.895,15.770 19.877,14.900 18.087 C 14.723 17.723,14.160 17.149,13.783 16.948 C 13.219 16.647,12.370 16.555,11.738 16.725 M18.779 16.724 C 18.337 16.843,17.981 17.058,17.594 17.440 C 17.038 17.988,16.800 18.564,16.800 19.361 C 16.800 20.797,17.871 21.942,19.326 22.060 C 20.674 22.170,21.946 21.157,22.192 19.777 C 22.430 18.446,21.533 17.071,20.194 16.714 C 19.842 16.620,19.147 16.625,18.779 16.724 " stroke="none" fill-rule="evenodd" fill="black"></path></svg>