<svg width="24" height="24" viewBox="0 0 24 24" fill="none" xmlns="http://www.w3.org/2000/svg"><path d="M15.180 1.039 C 14.860 1.121,14.656 1.300,14.554 1.587 C 14.479 1.800,14.477 3.665,14.552 3.912 C 14.621 4.140,14.866 4.382,15.088 4.442 C 15.520 4.559,16.007 4.473,16.240 4.240 C 16.472 4.008,16.500 3.846,16.500 2.720 C 16.500 1.624,16.474 1.485,16.230 1.251 C 16.005 1.037,15.547 0.945,15.180 1.039 M10.400 1.120 C 8.691 1.387,7.273 1.937,5.861 2.883 C 4.098 4.064,2.660 5.811,1.855 7.748 C 0.343 11.389,0.855 15.456,3.226 18.633 C 3.701 19.269,4.753 20.316,5.400 20.797 C 8.782 23.312,13.212 23.702,16.966 21.817 C 17.993 21.301,18.862 20.663,19.762 19.762 C 21.087 18.438,21.930 17.059,22.492 15.300 C 22.758 14.469,22.991 13.179,22.946 12.793 C 22.889 12.298,22.487 11.999,21.881 12.000 C 21.279 12.001,21.026 12.297,20.924 13.120 C 20.719 14.761,20.050 16.339,19.010 17.635 C 16.885 20.284,13.417 21.514,10.092 20.797 C 9.099 20.582,7.861 20.061,7.040 19.511 C 6.018 18.826,5.121 17.918,4.441 16.880 C 4.035 16.261,3.596 15.314,3.385 14.604 L 3.322 14.393 3.471 14.418 C 3.553 14.431,3.929 14.457,4.307 14.476 C 8.177 14.666,11.876 13.287,14.690 10.605 L 15.000 10.309 15.000 11.265 C 15.000 11.790,15.019 12.285,15.041 12.365 C 15.148 12.750,15.437 12.962,15.896 12.991 C 16.381 13.022,16.699 12.882,16.880 12.558 L 16.980 12.380 16.980 10.000 L 16.980 7.620 16.891 7.453 C 16.842 7.362,16.746 7.247,16.678 7.199 C 16.393 6.996,16.342 6.992,13.989 6.998 C 11.664 7.005,11.586 7.011,11.322 7.199 C 11.100 7.357,11.020 7.568,11.020 8.000 C 11.020 8.331,11.033 8.403,11.120 8.558 C 11.230 8.755,11.414 8.898,11.635 8.959 C 11.715 8.981,12.158 9.000,12.620 9.001 L 13.460 9.002 13.160 9.291 C 12.597 9.833,11.696 10.497,10.940 10.928 C 9.314 11.853,7.530 12.376,5.668 12.475 C 4.960 12.512,3.956 12.474,3.360 12.387 L 3.020 12.338 3.026 11.756 C 3.045 9.839,3.745 7.916,4.989 6.366 C 6.412 4.592,8.479 3.414,10.720 3.100 C 11.331 3.014,11.572 2.942,11.737 2.797 C 12.026 2.543,12.083 1.953,11.862 1.501 C 11.653 1.072,11.299 0.980,10.400 1.120 M20.260 2.487 C 20.034 2.572,19.819 2.753,19.196 3.386 C 18.520 4.072,18.391 4.261,18.391 4.564 C 18.391 5.045,18.957 5.609,19.440 5.609 C 19.553 5.609,19.694 5.574,19.803 5.519 C 20.019 5.409,21.232 4.222,21.408 3.948 C 21.655 3.563,21.587 3.183,21.202 2.799 C 20.905 2.503,20.540 2.382,20.260 2.487 M19.967 7.624 C 19.813 7.701,19.731 7.776,19.649 7.914 C 19.550 8.083,19.540 8.136,19.540 8.500 C 19.540 8.864,19.550 8.917,19.650 9.087 C 19.735 9.232,19.811 9.299,19.990 9.387 L 20.220 9.500 21.260 9.500 L 22.300 9.500 22.530 9.387 C 22.709 9.299,22.785 9.232,22.870 9.087 C 22.970 8.917,22.980 8.864,22.980 8.500 C 22.980 8.136,22.970 8.083,22.871 7.914 C 22.789 7.776,22.707 7.701,22.553 7.624 L 22.344 7.520 21.260 7.520 L 20.176 7.520 19.967 7.624 " stroke="none" fill-rule="evenodd" fill="black"></path></svg>