<svg width="24" height="24" viewBox="0 0 24 24" fill="none" xmlns="http://www.w3.org/2000/svg"><path d="M15.180 1.039 C 14.860 1.121,14.656 1.300,14.554 1.587 C 14.479 1.800,14.477 3.665,14.552 3.912 C 14.621 4.140,14.866 4.382,15.088 4.442 C 15.520 4.559,16.007 4.473,16.240 4.240 C 16.472 4.008,16.500 3.846,16.500 2.720 C 16.500 1.624,16.474 1.485,16.230 1.251 C 16.005 1.037,15.547 0.945,15.180 1.039 M5.920 2.042 C 5.155 2.091,4.674 2.204,4.180 2.451 C 3.089 2.996,2.357 3.961,2.124 5.160 C 2.013 5.729,2.000 6.455,2.000 12.000 C 2.000 18.358,2.006 18.526,2.245 19.320 C 2.577 20.422,3.578 21.423,4.680 21.755 C 5.474 21.994,5.642 22.000,12.000 22.000 C 18.358 22.000,18.526 21.994,19.320 21.755 C 20.422 21.423,21.425 20.421,21.755 19.320 C 21.979 18.573,22.007 18.074,21.993 15.120 C 21.980 12.623,21.980 12.620,21.891 12.453 C 21.785 12.256,21.622 12.131,21.371 12.055 C 20.862 11.902,20.311 12.076,20.109 12.453 C 20.020 12.620,20.020 12.624,19.995 15.420 C 19.968 18.429,19.962 18.522,19.752 18.952 C 19.626 19.211,19.190 19.638,18.918 19.768 C 18.466 19.985,18.627 19.980,12.000 19.980 C 5.383 19.980,5.538 19.985,5.082 19.771 C 4.812 19.643,4.377 19.217,4.248 18.952 C 4.052 18.550,4.034 18.349,4.011 16.344 L 3.990 14.469 4.485 14.489 C 5.533 14.533,6.915 14.412,7.976 14.182 C 10.484 13.639,12.804 12.403,14.690 10.605 L 15.000 10.309 15.000 11.265 C 15.000 11.790,15.019 12.285,15.041 12.365 C 15.148 12.750,15.437 12.962,15.896 12.991 C 16.381 13.022,16.699 12.882,16.880 12.558 L 16.980 12.380 16.980 10.000 L 16.980 7.620 16.891 7.453 C 16.842 7.362,16.746 7.247,16.678 7.199 C 16.393 6.996,16.342 6.992,13.989 6.998 C 11.664 7.005,11.586 7.011,11.322 7.199 C 11.100 7.357,11.020 7.568,11.020 8.000 C 11.020 8.331,11.033 8.403,11.120 8.558 C 11.230 8.755,11.414 8.898,11.635 8.959 C 11.715 8.981,12.158 9.000,12.620 9.001 L 13.460 9.002 13.160 9.291 C 11.951 10.455,10.206 11.462,8.502 11.978 C 7.231 12.364,5.802 12.546,4.487 12.490 L 3.994 12.469 4.011 9.124 C 4.029 5.512,4.030 5.495,4.248 5.048 C 4.366 4.806,4.806 4.366,5.048 4.248 C 5.478 4.038,5.571 4.032,8.580 4.005 C 11.342 3.980,11.382 3.979,11.540 3.894 C 11.875 3.715,11.978 3.504,11.978 3.000 C 11.978 2.567,11.899 2.356,11.678 2.199 C 11.403 2.003,11.352 2.000,8.784 2.006 C 7.462 2.009,6.173 2.025,5.920 2.042 M20.260 2.487 C 20.034 2.572,19.819 2.753,19.196 3.386 C 18.520 4.072,18.391 4.261,18.391 4.564 C 18.391 5.045,18.957 5.609,19.440 5.609 C 19.553 5.609,19.694 5.574,19.803 5.519 C 20.019 5.409,21.232 4.222,21.408 3.948 C 21.655 3.563,21.587 3.183,21.202 2.799 C 20.905 2.503,20.540 2.382,20.260 2.487 M19.967 7.624 C 19.813 7.701,19.731 7.776,19.649 7.914 C 19.550 8.083,19.540 8.136,19.540 8.500 C 19.540 8.864,19.550 8.917,19.650 9.087 C 19.735 9.232,19.811 9.299,19.990 9.387 L 20.220 9.500 21.260 9.500 L 22.300 9.500 22.530 9.387 C 22.709 9.299,22.785 9.232,22.870 9.087 C 22.970 8.917,22.980 8.864,22.980 8.500 C 22.980 8.136,22.970 8.083,22.871 7.914 C 22.789 7.776,22.707 7.701,22.553 7.624 L 22.344 7.520 21.260 7.520 L 20.176 7.520 19.967 7.624 " stroke="none" fill-rule="evenodd" fill="black"></path></svg>