<svg version="1.1" xmlns="http://www.w3.org/2000/svg" width="47" height="32" viewBox="0 0 47 32"><path d="M14.178 4.123 C 9.726 4.598,6.198 7.393,4.817 11.542 C 4.287 13.137,4.283 13.183,4.248 18.996 C 4.215 24.520,4.232 24.849,4.561 25.268 C 4.775 25.539,5.282 25.768,5.674 25.770 C 6.267 25.773,6.615 25.518,7.326 24.557 C 7.683 24.074,8.035 23.656,8.107 23.629 C 8.372 23.527,8.547 23.587,9.182 24.000 C 10.064 24.573,10.677 24.870,11.619 25.184 C 13.329 25.752,13.017 25.733,20.249 25.733 L 26.751 25.733 27.573 25.549 C 32.692 24.409,36.205 20.085,36.205 14.923 C 36.205 9.733,32.666 5.410,27.498 4.288 C 26.782 4.132,26.496 4.125,20.602 4.110 C 17.220 4.101,14.329 4.107,14.178 4.123 M27.279 7.185 C 28.821 7.621,29.813 8.195,30.907 9.283 C 32.056 10.425,32.694 11.538,33.073 13.060 C 33.211 13.614,33.244 13.976,33.244 14.923 C 33.244 16.330,33.083 17.104,32.555 18.217 C 32.087 19.205,31.653 19.825,30.909 20.567 C 29.886 21.587,28.781 22.221,27.275 22.653 C 26.682 22.823,26.581 22.826,20.602 22.855 C 16.213 22.876,14.368 22.859,13.943 22.792 C 10.861 22.310,8.371 20.119,7.473 17.098 C 7.194 16.160,7.120 14.378,7.320 13.390 C 7.968 10.188,10.502 7.666,13.657 7.086 C 14.095 7.006,15.579 6.986,20.445 6.998 C 26.592 7.013,26.680 7.016,27.279 7.185 M13.098 13.249 C 12.722 13.357,12.097 13.994,11.993 14.374 C 11.785 15.136,12.042 15.950,12.624 16.371 C 13.420 16.948,14.409 16.820,15.065 16.054 C 16.213 14.713,14.835 12.748,13.098 13.249 M25.937 13.366 C 24.384 14.140,24.764 16.403,26.500 16.718 C 26.899 16.790,27.534 16.598,27.899 16.296 C 28.292 15.971,28.514 15.485,28.512 14.957 C 28.506 13.609,27.141 12.766,25.937 13.366 " stroke="none" fill-rule="evenodd" fill="black"></path></svg>