<svg width="24" height="24" viewBox="0 0 24 24" fill="none" xmlns="http://www.w3.org/2000/svg"><path d="M6.847 2.044 C 4.399 2.375,2.253 4.182,1.389 6.640 C 0.766 8.411,0.904 10.335,1.778 12.061 C 2.271 13.033,2.938 13.828,4.936 15.821 C 6.850 17.731,10.303 20.916,10.881 21.304 C 11.357 21.624,11.843 21.731,12.347 21.626 C 12.929 21.504,13.039 21.424,14.659 19.962 C 18.466 16.526,20.785 14.201,21.705 12.900 C 23.136 10.877,23.394 8.298,22.390 6.064 C 21.515 4.116,19.678 2.594,17.675 2.157 C 15.825 1.753,13.802 2.258,12.246 3.511 L 11.993 3.715 11.766 3.530 C 11.106 2.991,10.206 2.513,9.400 2.273 C 8.653 2.051,7.536 1.951,6.847 2.044 M8.239 4.062 C 9.281 4.231,10.090 4.667,11.019 5.560 C 11.436 5.961,11.587 6.082,11.740 6.134 C 12.158 6.276,12.310 6.211,12.880 5.646 C 13.476 5.055,13.865 4.767,14.458 4.478 C 15.936 3.758,17.527 3.886,18.860 4.831 C 20.077 5.694,20.824 6.968,20.964 8.417 C 21.092 9.733,20.705 10.970,19.820 12.080 C 18.838 13.310,16.406 15.700,13.199 18.585 C 12.000 19.664,12.015 19.652,11.945 19.613 C 11.914 19.595,11.378 19.119,10.754 18.557 C 6.942 15.117,4.610 12.784,3.857 11.656 C 2.967 10.323,2.768 8.725,3.305 7.220 C 3.724 6.047,4.684 4.975,5.825 4.405 C 6.555 4.041,7.384 3.923,8.239 4.062 M15.260 7.487 C 15.194 7.511,15.086 7.567,15.020 7.611 C 14.954 7.655,14.023 8.566,12.951 9.634 L 11.002 11.577 10.271 10.854 C 9.857 10.444,9.467 10.094,9.372 10.045 C 9.021 9.868,8.640 9.958,8.299 10.299 C 7.952 10.646,7.863 11.010,8.040 11.363 C 8.162 11.607,10.393 13.838,10.637 13.960 C 10.868 14.076,11.132 14.076,11.363 13.960 C 11.579 13.852,16.216 9.244,16.408 8.947 C 16.655 8.564,16.587 8.182,16.202 7.799 C 15.905 7.503,15.541 7.382,15.260 7.487 " stroke="none" fill-rule="evenodd" fill="black"></path></svg>