<svg width="24" height="24" viewBox="0 0 24 24" fill="none" xmlns="http://www.w3.org/2000/svg"><path d="M19.620 5.046 C 19.519 5.098,17.529 7.057,14.230 10.353 L 9.000 15.579 6.770 13.354 C 5.295 11.881,4.483 11.100,4.372 11.044 C 4.020 10.868,3.639 10.959,3.299 11.299 C 2.953 11.645,2.863 12.010,3.039 12.363 C 3.164 12.613,8.387 17.836,8.637 17.961 C 8.868 18.076,9.132 18.076,9.363 17.961 C 9.615 17.835,20.835 6.615,20.961 6.363 C 21.136 6.010,21.047 5.645,20.701 5.299 C 20.361 4.959,19.968 4.867,19.620 5.046 " stroke="none" fill-rule="evenodd" fill="black"></path></svg>