<svg width="24" height="24" viewBox="0 0 24 24" fill="none" xmlns="http://www.w3.org/2000/svg"><path d="M5.920 2.042 C 5.155 2.091,4.674 2.204,4.180 2.451 C 3.089 2.996,2.357 3.961,2.124 5.160 C 2.013 5.729,2.000 6.455,2.000 12.000 C 2.000 18.358,2.006 18.526,2.245 19.320 C 2.577 20.422,3.578 21.423,4.680 21.755 C 5.474 21.994,5.642 22.000,12.000 22.000 C 18.358 22.000,18.526 21.994,19.320 21.755 C 20.422 21.423,21.425 20.421,21.755 19.320 C 21.984 18.555,22.007 18.112,21.992 14.620 L 21.980 11.620 21.891 11.453 C 21.785 11.256,21.622 11.131,21.371 11.055 C 20.862 10.902,20.311 11.076,20.109 11.453 L 20.020 11.620 19.996 14.920 C 19.969 18.477,19.967 18.510,19.752 18.952 C 19.626 19.211,19.190 19.638,18.918 19.768 C 18.466 19.985,18.627 19.980,12.000 19.980 C 5.383 19.980,5.538 19.985,5.082 19.771 C 4.812 19.643,4.377 19.217,4.248 18.952 C 4.198 18.849,4.126 18.633,4.088 18.472 C 4.025 18.203,4.020 17.687,4.020 12.000 C 4.020 6.313,4.025 5.797,4.088 5.528 C 4.126 5.367,4.198 5.151,4.248 5.048 C 4.366 4.806,4.806 4.366,5.048 4.248 C 5.516 4.020,5.323 4.028,11.080 4.003 L 16.380 3.980 16.540 3.894 C 16.875 3.715,16.978 3.504,16.978 3.000 C 16.978 2.567,16.899 2.356,16.678 2.199 C 16.391 1.994,16.543 2.000,11.284 2.006 C 8.587 2.009,6.173 2.025,5.920 2.042 M21.620 3.046 C 21.519 3.097,19.705 4.882,16.731 7.853 L 12.001 12.578 10.771 11.354 C 10.001 10.588,9.477 10.098,9.372 10.045 C 9.020 9.868,8.639 9.958,8.299 10.299 C 7.952 10.645,7.863 11.010,8.039 11.363 C 8.163 11.610,11.390 14.837,11.637 14.961 C 11.868 15.076,12.132 15.076,12.363 14.961 C 12.615 14.835,22.835 4.615,22.961 4.363 C 23.136 4.010,23.047 3.645,22.701 3.299 C 22.361 2.959,21.968 2.867,21.620 3.046 " stroke="none" fill-rule="evenodd" fill="black"></path></svg>