<svg width="24" height="24" viewBox="0 0 24 24" fill="none" xmlns="http://www.w3.org/2000/svg"><path d="M11.340 1.043 C 10.467 1.163,9.800 1.455,8.947 2.092 C 8.219 2.635,8.080 2.686,6.783 2.898 C 5.777 3.062,4.915 3.523,4.168 4.297 C 3.388 5.105,3.012 5.896,2.841 7.087 C 2.710 7.997,2.600 8.281,2.150 8.864 C 1.533 9.662,1.270 10.209,1.074 11.100 C 1.042 11.245,1.021 11.602,1.021 12.000 C 1.021 12.398,1.042 12.755,1.074 12.900 C 1.272 13.803,1.542 14.353,2.200 15.200 C 2.599 15.714,2.733 16.083,2.859 17.012 C 3.003 18.083,3.409 18.917,4.168 19.703 C 4.970 20.534,5.871 20.992,7.000 21.142 C 7.909 21.263,8.292 21.404,8.800 21.801 C 9.457 22.314,10.009 22.621,10.580 22.790 C 11.141 22.956,11.325 22.980,12.040 22.976 C 12.690 22.973,12.773 22.964,13.201 22.849 C 13.938 22.652,14.465 22.376,15.200 21.801 C 15.708 21.404,16.091 21.263,17.000 21.142 C 18.115 20.994,19.023 20.536,19.810 19.726 C 20.586 18.927,20.998 18.084,21.142 17.000 C 21.263 16.091,21.404 15.708,21.801 15.200 C 22.376 14.465,22.652 13.938,22.849 13.201 C 22.964 12.773,22.973 12.690,22.976 12.040 C 22.980 11.325,22.956 11.141,22.790 10.580 C 22.621 10.009,22.314 9.457,21.801 8.800 C 21.404 8.292,21.263 7.909,21.142 7.000 C 21.000 5.935,20.590 5.084,19.843 4.304 C 19.429 3.873,18.983 3.548,18.460 3.296 C 17.927 3.040,17.594 2.944,16.860 2.839 C 15.973 2.712,15.725 2.607,14.989 2.048 C 14.313 1.536,13.734 1.262,12.980 1.099 C 12.630 1.023,11.711 0.992,11.340 1.043 M12.529 3.057 C 13.069 3.160,13.383 3.322,14.071 3.852 C 14.467 4.157,14.982 4.432,15.420 4.574 C 15.833 4.708,16.021 4.748,16.586 4.822 C 16.841 4.855,17.156 4.918,17.285 4.962 C 18.049 5.219,18.781 5.951,19.038 6.715 C 19.082 6.844,19.145 7.159,19.178 7.414 C 19.252 7.979,19.292 8.167,19.426 8.580 C 19.568 9.018,19.843 9.533,20.148 9.929 C 20.678 10.617,20.840 10.931,20.943 11.471 C 21.015 11.846,21.015 12.154,20.943 12.529 C 20.840 13.069,20.678 13.383,20.148 14.071 C 19.843 14.467,19.568 14.982,19.426 15.420 C 19.292 15.833,19.252 16.021,19.178 16.586 C 19.108 17.121,19.018 17.417,18.823 17.750 C 18.459 18.370,17.913 18.828,17.286 19.038 C 17.147 19.085,16.769 19.160,16.446 19.204 C 15.445 19.342,14.679 19.658,13.953 20.233 C 13.503 20.590,13.240 20.743,12.860 20.869 C 12.577 20.963,12.477 20.975,12.000 20.975 C 11.523 20.975,11.423 20.963,11.140 20.869 C 10.760 20.743,10.497 20.590,10.047 20.233 C 9.321 19.658,8.555 19.342,7.554 19.204 C 6.709 19.088,6.377 18.963,5.880 18.575 C 5.617 18.370,5.407 18.126,5.198 17.781 C 4.988 17.436,4.894 17.136,4.822 16.586 C 4.748 16.021,4.708 15.833,4.574 15.420 C 4.432 14.982,4.157 14.467,3.852 14.071 C 3.466 13.570,3.315 13.328,3.196 13.020 C 2.885 12.210,2.963 11.281,3.404 10.560 C 3.491 10.417,3.684 10.144,3.833 9.952 C 4.150 9.544,4.429 9.028,4.574 8.580 C 4.708 8.167,4.748 7.979,4.822 7.414 C 4.855 7.159,4.918 6.844,4.962 6.715 C 5.219 5.951,5.951 5.219,6.715 4.962 C 6.844 4.918,7.159 4.855,7.414 4.822 C 7.979 4.748,8.167 4.708,8.580 4.574 C 9.018 4.432,9.533 4.157,9.929 3.852 C 10.111 3.712,10.358 3.532,10.477 3.453 C 11.060 3.066,11.814 2.920,12.529 3.057 M15.260 8.487 C 15.194 8.511,15.086 8.567,15.020 8.611 C 14.954 8.655,14.023 9.566,12.951 10.634 L 11.002 12.577 10.271 11.854 C 9.857 11.444,9.467 11.094,9.372 11.045 C 9.021 10.868,8.640 10.958,8.299 11.299 C 7.952 11.646,7.863 12.010,8.040 12.363 C 8.162 12.607,10.393 14.838,10.637 14.960 C 10.868 15.076,11.132 15.076,11.363 14.960 C 11.579 14.852,16.216 10.244,16.408 9.947 C 16.655 9.564,16.587 9.182,16.202 8.799 C 15.905 8.503,15.541 8.382,15.260 8.487 " stroke="none" fill-rule="evenodd" fill="black"></path></svg>