<svg width="24" height="24" viewBox="0 0 24 24" fill="none" xmlns="http://www.w3.org/2000/svg"><path d="M11.280 1.024 C 11.203 1.033,10.960 1.059,10.740 1.082 C 9.359 1.227,7.802 1.735,6.579 2.438 C 5.614 2.994,5.002 3.468,4.179 4.296 C 2.813 5.671,1.899 7.254,1.384 9.140 C 0.917 10.849,0.885 12.716,1.293 14.500 C 1.833 16.861,3.224 19.058,5.170 20.619 C 7.558 22.535,10.843 23.372,13.860 22.834 C 16.097 22.435,18.007 21.465,19.626 19.906 C 21.002 18.581,21.956 17.034,22.500 15.246 C 22.871 14.029,22.979 13.248,22.980 11.777 L 22.980 10.694 22.860 10.499 C 22.680 10.209,22.450 10.103,22.000 10.103 C 21.551 10.103,21.320 10.209,21.142 10.497 L 21.023 10.689 20.994 11.754 C 20.978 12.340,20.937 13.018,20.902 13.260 C 20.481 16.206,18.634 18.757,15.980 20.059 C 13.837 21.109,11.564 21.280,9.260 20.563 C 6.876 19.821,4.823 17.990,3.801 15.693 C 2.424 12.597,2.873 9.023,4.970 6.395 C 6.391 4.613,8.403 3.459,10.720 3.095 C 11.286 3.007,12.601 2.995,13.140 3.075 C 13.984 3.199,14.725 3.397,15.434 3.687 C 15.918 3.884,16.160 3.934,16.368 3.878 C 16.884 3.739,17.278 2.843,17.018 2.401 C 16.849 2.113,16.407 1.878,15.420 1.555 C 14.377 1.212,13.345 1.041,12.200 1.021 C 11.771 1.013,11.357 1.015,11.280 1.024 M21.620 3.046 C 21.519 3.097,19.705 4.882,16.731 7.853 L 12.002 12.577 10.771 11.356 C 9.901 10.493,9.486 10.109,9.357 10.047 C 8.998 9.876,8.655 9.961,8.299 10.311 C 7.955 10.649,7.865 11.021,8.042 11.375 C 8.103 11.498,8.658 12.078,9.835 13.252 C 11.483 14.895,11.548 14.954,11.770 15.023 C 11.990 15.092,12.010 15.092,12.230 15.024 C 12.457 14.954,12.519 14.894,17.666 9.747 C 21.411 6.001,22.897 4.490,22.961 4.363 C 23.136 4.010,23.047 3.645,22.701 3.299 C 22.361 2.959,21.968 2.867,21.620 3.046 " stroke="none" fill-rule="evenodd" fill="black"></path></svg>