<svg width="24" height="24" viewBox="0 0 24 24" fill="none" xmlns="http://www.w3.org/2000/svg"><path d="M5.920 2.041 C 5.151 2.092,4.672 2.205,4.180 2.451 C 3.089 2.996,2.357 3.961,2.124 5.160 C 2.013 5.729,2.000 6.455,2.000 12.000 C 2.000 18.358,2.006 18.526,2.245 19.320 C 2.577 20.422,3.578 21.423,4.680 21.755 C 5.474 21.994,5.642 22.000,12.000 22.000 C 18.358 22.000,18.526 21.994,19.320 21.755 C 20.422 21.423,21.423 20.422,21.755 19.320 C 21.994 18.526,22.000 18.358,22.000 12.000 C 22.000 5.642,21.994 5.474,21.755 4.680 C 21.424 3.581,20.465 2.622,19.320 2.246 C 18.644 2.024,18.800 2.029,12.340 2.019 C 9.062 2.014,6.173 2.024,5.920 2.041 M18.492 4.091 C 18.894 4.188,19.109 4.309,19.400 4.600 C 19.696 4.895,19.814 5.109,19.912 5.528 C 19.975 5.797,19.980 6.313,19.980 12.000 C 19.980 17.687,19.975 18.203,19.912 18.472 C 19.814 18.891,19.696 19.104,19.400 19.401 C 19.101 19.701,18.820 19.851,18.418 19.928 C 18.010 20.005,5.990 20.005,5.582 19.927 C 5.170 19.850,4.898 19.704,4.600 19.403 C 4.303 19.104,4.186 18.890,4.088 18.472 C 4.025 18.203,4.020 17.687,4.020 12.000 C 4.020 6.313,4.025 5.797,4.088 5.528 C 4.175 5.155,4.294 4.918,4.520 4.667 C 4.883 4.262,5.282 4.091,5.980 4.039 C 6.200 4.023,9.044 4.013,12.300 4.018 C 17.643 4.024,18.247 4.032,18.492 4.091 M16.160 8.023 C 16.070 8.062,15.035 9.067,13.280 10.822 C 11.772 12.328,10.522 13.560,10.500 13.560 C 10.479 13.560,9.903 13.003,9.221 12.322 C 8.396 11.498,7.930 11.063,7.831 11.022 C 7.645 10.944,7.360 10.942,7.180 11.018 C 6.831 11.163,6.441 11.683,6.441 12.000 C 6.441 12.331,6.547 12.456,8.346 14.245 C 10.138 16.028,10.162 16.048,10.500 16.048 C 10.850 16.048,10.775 16.116,14.154 12.746 C 17.539 9.370,17.559 9.348,17.559 9.000 C 17.559 8.683,17.169 8.163,16.820 8.018 C 16.644 7.944,16.339 7.946,16.160 8.023 " stroke="none" fill-rule="evenodd" fill="black"></path></svg>