<svg width="24" height="24" viewBox="0 0 24 24" fill="none" xmlns="http://www.w3.org/2000/svg"><path d="M8.620 6.046 C 8.384 6.167,3.154 11.407,3.039 11.637 C 2.924 11.868,2.924 12.132,3.039 12.363 C 3.164 12.613,8.387 17.836,8.637 17.961 C 8.990 18.137,9.355 18.047,9.701 17.701 C 10.048 17.354,10.137 16.990,9.960 16.637 C 9.899 16.514,9.189 15.776,7.647 14.230 L 5.422 12.000 7.647 9.770 C 9.189 8.224,9.899 7.486,9.960 7.363 C 10.137 7.010,10.048 6.646,9.701 6.299 C 9.361 5.959,8.968 5.867,8.620 6.046 M14.626 6.045 C 14.420 6.154,14.146 6.433,14.038 6.644 C 13.924 6.868,13.924 7.132,14.040 7.363 C 14.101 7.486,14.811 8.224,16.353 9.770 L 18.578 12.000 16.353 14.230 C 14.811 15.776,14.101 16.514,14.040 16.637 C 13.863 16.990,13.952 17.354,14.299 17.701 C 14.645 18.047,15.010 18.137,15.363 17.961 C 15.613 17.836,20.836 12.613,20.961 12.363 C 21.076 12.132,21.076 11.868,20.961 11.637 C 20.840 11.395,15.613 6.164,15.372 6.044 C 15.152 5.934,14.834 5.935,14.626 6.045 " stroke="none" fill-rule="evenodd" fill="black"></path></svg>