<svg width="24" height="24" viewBox="0 0 24 24" fill="none" xmlns="http://www.w3.org/2000/svg"><path d="M14.620 5.046 C 14.383 5.167,8.154 11.406,8.039 11.637 C 7.986 11.744,7.951 11.889,7.951 12.000 C 7.951 12.111,7.986 12.256,8.039 12.363 C 8.164 12.613,14.387 18.836,14.637 18.961 C 14.990 19.137,15.355 19.047,15.701 18.701 C 16.048 18.354,16.137 17.990,15.961 17.637 C 15.898 17.513,15.058 16.644,13.147 14.730 L 10.421 12.000 13.147 9.270 C 15.058 7.356,15.898 6.487,15.961 6.363 C 16.137 6.010,16.048 5.646,15.701 5.299 C 15.361 4.959,14.968 4.867,14.620 5.046 " stroke="none" fill-rule="evenodd" fill="black"></path></svg>