<svg width="24" height="24" viewBox="0 0 24 24" fill="none" xmlns="http://www.w3.org/2000/svg"><path d="M5.626 6.045 C 5.420 6.154,5.146 6.433,5.038 6.644 C 4.924 6.868,4.924 7.132,5.040 7.363 C 5.101 7.486,5.811 8.224,7.353 9.770 L 9.578 12.000 7.353 14.230 C 5.811 15.776,5.101 16.514,5.040 16.637 C 4.863 16.990,4.952 17.354,5.299 17.701 C 5.645 18.047,6.010 18.137,6.363 17.961 C 6.613 17.836,11.836 12.613,11.961 12.363 C 12.076 12.132,12.076 11.868,11.961 11.637 C 11.840 11.395,6.613 6.164,6.372 6.044 C 6.152 5.934,5.834 5.935,5.626 6.045 M12.626 6.045 C 12.420 6.154,12.146 6.433,12.038 6.644 C 11.924 6.868,11.924 7.132,12.040 7.363 C 12.101 7.486,12.811 8.224,14.353 9.770 L 16.578 12.000 14.353 14.230 C 12.811 15.776,12.101 16.514,12.040 16.637 C 11.863 16.990,11.952 17.354,12.299 17.701 C 12.645 18.047,13.010 18.137,13.363 17.961 C 13.613 17.836,18.836 12.613,18.961 12.363 C 19.076 12.132,19.076 11.868,18.961 11.637 C 18.840 11.395,13.613 6.164,13.372 6.044 C 13.152 5.934,12.834 5.935,12.626 6.045 " stroke="none" fill-rule="evenodd" fill="black"></path></svg>