<svg width="24" height="24" viewBox="0 0 24 24" fill="none" xmlns="http://www.w3.org/2000/svg"><path d="M11.620 8.046 C 11.383 8.167,5.154 14.406,5.039 14.637 C 4.863 14.990,4.953 15.355,5.299 15.701 C 5.646 16.048,6.010 16.137,6.363 15.961 C 6.487 15.898,7.356 15.058,9.270 13.147 L 12.000 10.421 14.730 13.147 C 16.644 15.058,17.513 15.898,17.637 15.961 C 17.990 16.137,18.354 16.048,18.701 15.701 C 19.047 15.355,19.137 14.990,18.961 14.637 C 18.840 14.394,12.614 8.164,12.372 8.044 C 12.151 7.934,11.836 7.935,11.620 8.046 " stroke="none" fill-rule="evenodd" fill="black"></path></svg>