<svg width="24" height="24" viewBox="0 0 24 24" fill="none" xmlns="http://www.w3.org/2000/svg"><path d="M6.626 5.045 C 6.420 5.154,6.146 5.433,6.038 5.644 C 5.924 5.867,5.924 6.132,6.039 6.363 C 6.164 6.613,11.387 11.836,11.637 11.961 C 11.868 12.076,12.132 12.076,12.363 11.961 C 12.613 11.836,17.836 6.613,17.961 6.363 C 18.137 6.010,18.047 5.645,17.701 5.299 C 17.361 4.959,16.980 4.868,16.628 5.044 C 16.517 5.100,15.705 5.881,14.230 7.353 L 12.000 9.578 9.770 7.353 C 8.295 5.881,7.483 5.100,7.372 5.044 C 7.152 4.934,6.835 4.935,6.626 5.045 M6.626 12.045 C 6.420 12.154,6.146 12.433,6.038 12.644 C 5.924 12.867,5.924 13.132,6.039 13.363 C 6.164 13.613,11.387 18.836,11.637 18.961 C 11.868 19.076,12.132 19.076,12.363 18.961 C 12.613 18.836,17.836 13.613,17.961 13.363 C 18.137 13.010,18.047 12.645,17.701 12.299 C 17.361 11.959,16.980 11.868,16.628 12.044 C 16.517 12.100,15.705 12.881,14.230 14.353 L 12.000 16.578 9.770 14.353 C 8.295 12.881,7.483 12.100,7.372 12.044 C 7.152 11.934,6.835 11.935,6.626 12.045 " stroke="none" fill-rule="evenodd" fill="black"></path></svg>