<svg width="24" height="24" viewBox="0 0 24 24" fill="none" xmlns="http://www.w3.org/2000/svg"><path d="M10.620 6.046 C 10.384 6.167,5.154 11.407,5.039 11.637 C 4.924 11.868,4.924 12.132,5.039 12.363 C 5.164 12.613,10.387 17.836,10.637 17.961 C 10.990 18.137,11.355 18.047,11.701 17.701 C 12.048 17.354,12.137 16.990,11.960 16.637 C 11.899 16.514,11.189 15.776,9.647 14.230 L 7.422 12.000 9.647 9.770 C 11.189 8.224,11.899 7.486,11.960 7.363 C 12.137 7.010,12.048 6.646,11.701 6.299 C 11.361 5.959,10.968 5.867,10.620 6.046 M17.620 6.046 C 17.384 6.167,12.154 11.407,12.039 11.637 C 11.924 11.868,11.924 12.132,12.039 12.363 C 12.164 12.613,17.387 17.836,17.637 17.961 C 17.990 18.137,18.355 18.047,18.701 17.701 C 19.048 17.354,19.137 16.990,18.960 16.637 C 18.899 16.514,18.189 15.776,16.647 14.230 L 14.422 12.000 16.647 9.770 C 18.189 8.224,18.899 7.486,18.960 7.363 C 19.137 7.010,19.048 6.646,18.701 6.299 C 18.361 5.959,17.968 5.867,17.620 6.046 " stroke="none" fill-rule="evenodd" fill="black"></path></svg>