<svg width="24" height="24" viewBox="0 0 24 24" fill="none" xmlns="http://www.w3.org/2000/svg"><path d="M8.626 5.045 C 8.420 5.154,8.146 5.433,8.038 5.644 C 7.924 5.867,7.924 6.132,8.039 6.363 C 8.102 6.487,8.942 7.356,10.853 9.270 L 13.579 12.000 10.853 14.730 C 8.942 16.644,8.102 17.513,8.039 17.637 C 7.863 17.990,7.952 18.354,8.299 18.701 C 8.645 19.047,9.010 19.137,9.363 18.961 C 9.613 18.836,15.836 12.613,15.961 12.363 C 16.014 12.256,16.049 12.111,16.049 12.000 C 16.049 11.889,16.014 11.744,15.961 11.637 C 15.840 11.394,9.614 5.164,9.372 5.044 C 9.152 4.934,8.834 4.935,8.626 5.045 " stroke="none" fill-rule="evenodd" fill="black"></path></svg>