<svg width="24" height="24" viewBox="0 0 24 24" fill="none" xmlns="http://www.w3.org/2000/svg"><path d="M11.620 5.046 C 11.384 5.167,6.154 10.407,6.039 10.637 C 5.863 10.990,5.953 11.355,6.299 11.701 C 6.646 12.048,7.010 12.137,7.363 11.960 C 7.486 11.899,8.224 11.189,9.770 9.647 L 12.000 7.422 14.230 9.647 C 15.776 11.189,16.514 11.899,16.637 11.960 C 16.990 12.137,17.354 12.048,17.701 11.701 C 18.047 11.355,18.137 10.990,17.961 10.637 C 17.840 10.395,12.613 5.164,12.372 5.044 C 12.151 4.934,11.836 4.935,11.620 5.046 M11.620 12.046 C 11.384 12.167,6.154 17.407,6.039 17.637 C 5.863 17.990,5.953 18.355,6.299 18.701 C 6.646 19.048,7.010 19.137,7.363 18.960 C 7.486 18.899,8.224 18.189,9.770 16.647 L 12.000 14.422 14.230 16.647 C 15.776 18.189,16.514 18.899,16.637 18.960 C 16.990 19.137,17.354 19.048,17.701 18.701 C 18.047 18.355,18.137 17.990,17.961 17.637 C 17.840 17.395,12.613 12.164,12.372 12.044 C 12.151 11.934,11.836 11.935,11.620 12.046 " stroke="none" fill-rule="evenodd" fill="black"></path></svg>