<svg width="24" height="24" viewBox="0 0 24 24" fill="none" xmlns="http://www.w3.org/2000/svg"><path d="M11.620 3.046 C 11.384 3.167,6.154 8.407,6.039 8.637 C 5.863 8.990,5.953 9.355,6.299 9.701 C 6.646 10.048,7.010 10.137,7.363 9.960 C 7.486 9.899,8.224 9.189,9.770 7.647 L 12.000 5.422 14.230 7.647 C 15.776 9.189,16.514 9.899,16.637 9.960 C 16.990 10.137,17.354 10.048,17.701 9.701 C 18.047 9.355,18.137 8.990,17.961 8.637 C 17.840 8.395,12.613 3.164,12.372 3.044 C 12.151 2.934,11.836 2.935,11.620 3.046 M6.626 14.045 C 6.420 14.154,6.146 14.433,6.038 14.644 C 5.924 14.867,5.924 15.132,6.039 15.363 C 6.164 15.613,11.387 20.836,11.637 20.961 C 11.868 21.076,12.132 21.076,12.363 20.961 C 12.613 20.836,17.836 15.613,17.961 15.363 C 18.137 15.010,18.047 14.645,17.701 14.299 C 17.361 13.959,16.980 13.868,16.628 14.044 C 16.517 14.100,15.705 14.881,14.230 16.353 L 12.000 18.578 9.770 16.353 C 8.295 14.881,7.483 14.100,7.372 14.044 C 7.152 13.934,6.835 13.935,6.626 14.045 " stroke="none" fill-rule="evenodd" fill="black"></path></svg>