<svg width="24" height="24" viewBox="0 0 24 24" fill="none" xmlns="http://www.w3.org/2000/svg"><path d="M5.626 8.045 C 5.420 8.154,5.146 8.433,5.038 8.644 C 4.924 8.867,4.924 9.132,5.039 9.363 C 5.164 9.613,11.387 15.836,11.637 15.961 C 11.868 16.076,12.132 16.076,12.363 15.961 C 12.613 15.836,18.836 9.613,18.961 9.363 C 19.137 9.010,19.047 8.645,18.701 8.299 C 18.361 7.959,17.980 7.868,17.628 8.044 C 17.516 8.100,16.558 9.029,14.730 10.853 L 12.000 13.579 9.270 10.853 C 7.442 9.029,6.484 8.100,6.372 8.044 C 6.152 7.934,5.835 7.935,5.626 8.045 " stroke="none" fill-rule="evenodd" fill="black"></path></svg>