<svg width="24" height="24" viewBox="0 0 24 24" fill="none" xmlns="http://www.w3.org/2000/svg"><path d="M4.920 2.041 C 4.152 2.092,3.672 2.205,3.180 2.451 C 2.089 2.996,1.357 3.961,1.124 5.160 C 1.005 5.769,0.947 8.027,1.041 8.365 C 1.148 8.750,1.437 8.962,1.896 8.991 C 2.381 9.022,2.700 8.882,2.879 8.558 C 2.977 8.383,2.978 8.362,3.006 7.100 C 3.045 5.337,3.101 5.098,3.600 4.600 C 3.895 4.304,4.109 4.186,4.528 4.088 C 4.798 4.025,5.370 4.020,12.000 4.020 C 18.630 4.020,19.202 4.025,19.472 4.088 C 19.891 4.186,20.105 4.304,20.400 4.600 C 20.696 4.895,20.814 5.109,20.912 5.528 C 20.975 5.797,20.980 6.313,20.980 12.000 C 20.980 17.687,20.975 18.203,20.912 18.472 C 20.874 18.633,20.802 18.849,20.752 18.952 C 20.627 19.210,20.190 19.638,19.920 19.767 C 19.503 19.967,19.410 19.973,16.439 19.997 L 13.658 20.020 13.459 20.122 C 13.119 20.297,12.978 20.606,13.009 21.104 C 13.038 21.563,13.250 21.852,13.635 21.959 C 13.828 22.013,18.599 22.013,19.180 21.959 C 19.928 21.891,20.387 21.775,20.859 21.535 C 21.749 21.085,22.482 20.228,22.755 19.320 C 22.994 18.526,23.000 18.358,23.000 12.000 C 23.000 5.642,22.994 5.474,22.755 4.680 C 22.424 3.581,21.465 2.622,20.320 2.246 C 19.635 2.021,19.900 2.028,12.340 2.019 C 8.512 2.014,5.173 2.024,4.920 2.041 M1.654 11.078 C 1.270 11.170,1.042 11.504,1.009 12.023 C 0.985 12.387,1.062 12.621,1.263 12.797 C 1.421 12.936,1.659 13.012,2.206 13.098 C 3.073 13.235,3.671 13.420,4.469 13.800 C 6.106 14.581,7.419 15.894,8.200 17.531 C 8.586 18.342,8.800 19.049,8.923 19.920 C 9.036 20.727,9.291 21.002,9.920 20.998 C 10.181 20.997,10.500 20.895,10.669 20.758 C 10.939 20.541,11.000 20.227,10.901 19.580 C 10.571 17.445,9.670 15.594,8.229 14.095 C 6.657 12.460,4.778 11.485,2.491 11.119 C 1.973 11.036,1.857 11.030,1.654 11.078 M1.651 15.119 C 1.262 15.211,1.000 15.642,1.000 16.189 C 1.000 16.649,1.206 16.902,1.693 17.042 C 2.375 17.237,2.639 17.335,2.940 17.504 C 3.581 17.863,4.137 18.419,4.496 19.060 C 4.665 19.361,4.763 19.625,4.959 20.310 C 5.052 20.632,5.218 20.858,5.428 20.946 C 5.626 21.029,6.040 21.014,6.308 20.914 C 6.697 20.769,6.919 20.474,6.920 20.100 C 6.920 19.908,6.734 19.192,6.578 18.790 C 5.878 16.975,4.172 15.530,2.272 15.143 C 1.939 15.075,1.850 15.072,1.651 15.119 M1.614 19.055 C 1.220 19.184,1.039 19.437,1.009 19.900 C 0.978 20.381,1.119 20.699,1.442 20.880 C 1.597 20.967,1.669 20.980,2.000 20.980 C 2.312 20.980,2.408 20.964,2.540 20.894 C 2.866 20.718,3.000 20.459,3.000 20.000 C 3.000 19.357,2.713 19.048,2.083 19.016 C 1.893 19.006,1.718 19.021,1.614 19.055 " stroke="none" fill-rule="evenodd" fill="black"></path></svg>