<svg version="1.1" xmlns="http://www.w3.org/2000/svg" width="32" height="32" viewBox="0 0 32 32"><path d="M15.440 0.306 C 12.102 0.402,8.902 1.588,6.181 3.736 C 5.480 4.290,4.256 5.514,3.690 6.228 C 2.192 8.117,1.108 10.410,0.621 12.722 C 0.373 13.898,0.303 14.603,0.303 15.893 C 0.305 18.473,0.803 20.633,1.921 22.907 C 2.730 24.554,3.540 25.677,4.905 27.043 C 6.764 28.905,8.732 30.113,11.188 30.902 C 13.506 31.646,16.143 31.837,18.560 31.435 C 21.774 30.901,24.662 29.415,26.993 27.096 C 27.452 26.640,28.021 26.020,28.259 25.718 C 32.009 20.964,32.717 14.649,30.111 9.200 C 28.915 6.700,26.997 4.492,24.672 2.938 C 21.945 1.116,18.766 0.210,15.440 0.306 M18.293 3.059 C 22.286 3.756,25.734 6.359,27.603 10.087 C 28.502 11.879,28.896 13.478,28.946 15.533 C 28.990 17.354,28.791 18.708,28.260 20.213 C 26.631 24.833,22.712 28.068,17.813 28.837 C 16.940 28.974,14.711 28.972,13.947 28.833 C 11.536 28.396,9.603 27.526,7.787 26.061 C 7.267 25.642,6.300 24.673,5.868 24.139 C 5.017 23.087,4.164 21.593,3.708 20.354 C 3.457 19.675,3.179 18.585,3.058 17.811 C 2.940 17.054,2.923 15.001,3.029 14.267 C 3.261 12.668,3.609 11.513,4.271 10.154 C 6.235 6.120,10.206 3.411,14.853 2.936 C 15.731 2.847,17.422 2.907,18.293 3.059 M15.253 9.104 C 12.662 9.381,10.323 11.236,9.452 13.707 C 9.169 14.510,9.096 14.972,9.095 15.973 C 9.093 16.982,9.145 17.330,9.420 18.180 C 10.082 20.218,11.775 21.904,13.840 22.581 C 14.535 22.809,14.970 22.885,15.760 22.915 C 16.634 22.949,17.258 22.865,18.066 22.607 C 19.143 22.262,20.074 21.693,20.884 20.884 C 23.548 18.219,23.617 14.040,21.041 11.266 C 19.611 9.725,17.348 8.880,15.253 9.104 M16.560 10.562 C 18.122 10.738,19.559 11.571,20.446 12.813 C 20.766 13.262,21.145 14.057,21.290 14.587 C 21.391 14.955,21.407 15.148,21.407 16.000 C 21.407 17.161,21.336 17.504,20.915 18.373 C 20.167 19.916,18.901 20.924,17.187 21.343 C 16.603 21.485,15.483 21.499,14.905 21.370 C 12.700 20.879,11.062 19.229,10.631 17.067 C 10.523 16.522,10.527 15.445,10.639 14.913 C 10.915 13.602,11.636 12.443,12.651 11.678 C 13.445 11.080,14.439 10.672,15.360 10.566 C 15.927 10.501,16.022 10.501,16.560 10.562 M13.840 13.046 C 12.444 13.244,11.345 14.393,11.221 15.783 C 11.181 16.238,11.301 16.808,11.548 17.327 C 12.039 18.361,13.241 19.058,14.376 18.967 C 16.512 18.795,17.786 16.586,16.850 14.679 C 16.526 14.020,15.793 13.385,15.113 13.175 C 14.772 13.070,14.130 13.005,13.840 13.046 " stroke="none" fill-rule="evenodd" fill="black"></path></svg>