<svg width="24" height="24" viewBox="0 0 24 24" fill="none" xmlns="http://www.w3.org/2000/svg"><path d="M8.686 1.040 C 8.236 1.108,7.820 1.332,7.512 1.676 C 7.265 1.950,7.130 2.234,7.051 2.645 C 7.016 2.829,6.983 2.986,6.977 2.993 C 6.972 3.000,6.786 3.023,6.564 3.043 C 5.234 3.169,4.047 3.993,3.430 5.220 C 3.236 5.606,3.088 6.097,3.041 6.511 C 2.986 6.987,2.986 18.588,3.041 19.180 C 3.109 19.928,3.225 20.387,3.464 20.858 C 3.915 21.749,4.772 22.482,5.680 22.755 C 6.460 22.990,6.716 23.000,12.000 23.000 C 17.284 23.000,17.540 22.990,18.320 22.755 C 19.228 22.482,20.085 21.749,20.536 20.858 C 20.775 20.387,20.891 19.928,20.959 19.180 C 21.014 18.588,21.014 6.987,20.959 6.511 C 20.860 5.648,20.452 4.814,19.819 4.181 C 19.165 3.526,18.329 3.127,17.436 3.043 C 17.214 3.023,17.028 3.000,17.023 2.993 C 17.017 2.986,16.984 2.829,16.949 2.645 C 16.870 2.234,16.735 1.950,16.488 1.676 C 16.261 1.423,15.978 1.236,15.635 1.112 L 15.380 1.020 12.140 1.014 C 10.358 1.011,8.804 1.023,8.686 1.040 M15.000 4.000 L 15.000 5.000 12.000 5.000 L 9.000 5.000 9.000 4.000 L 9.000 3.000 12.000 3.000 L 15.000 3.000 15.000 4.000 M7.051 5.365 C 7.140 5.814,7.286 6.092,7.597 6.403 C 7.896 6.702,8.173 6.853,8.581 6.939 C 8.995 7.027,15.005 7.027,15.419 6.940 C 15.818 6.855,16.102 6.699,16.401 6.401 C 16.712 6.090,16.862 5.806,16.949 5.365 L 17.013 5.040 17.225 5.040 C 17.614 5.040,18.126 5.287,18.444 5.626 C 18.647 5.843,18.732 5.980,18.864 6.300 L 18.980 6.580 18.980 12.880 C 18.980 18.680,18.975 19.203,18.912 19.472 C 18.814 19.891,18.696 20.104,18.400 20.401 C 18.101 20.701,17.820 20.851,17.418 20.928 C 17.011 21.004,6.989 21.004,6.582 20.927 C 6.170 20.850,5.898 20.704,5.600 20.403 C 5.303 20.104,5.186 19.890,5.088 19.472 C 5.025 19.203,5.020 18.680,5.020 12.880 L 5.020 6.580 5.128 6.310 C 5.297 5.890,5.550 5.570,5.907 5.325 C 6.126 5.176,6.524 5.044,6.764 5.042 L 6.987 5.040 7.051 5.365 M9.171 11.019 C 8.968 11.108,8.637 11.440,8.535 11.660 C 8.305 12.150,8.392 12.301,9.596 13.500 C 10.126 14.028,10.560 14.478,10.560 14.500 C 10.560 14.522,10.126 14.972,9.596 15.500 C 8.587 16.504,8.441 16.694,8.441 17.000 C 8.441 17.213,8.605 17.519,8.835 17.732 C 9.075 17.956,9.267 18.047,9.500 18.047 C 9.823 18.047,9.933 17.963,10.990 16.909 L 12.000 15.902 13.010 16.909 C 14.067 17.963,14.177 18.047,14.500 18.047 C 14.733 18.047,14.925 17.956,15.165 17.732 C 15.395 17.519,15.559 17.213,15.559 17.000 C 15.559 16.694,15.413 16.504,14.404 15.500 C 13.874 14.972,13.440 14.522,13.440 14.500 C 13.440 14.478,13.874 14.028,14.404 13.500 C 15.413 12.496,15.559 12.306,15.559 12.000 C 15.559 11.683,15.169 11.163,14.820 11.018 C 14.640 10.942,14.355 10.944,14.169 11.022 C 14.072 11.062,13.668 11.435,13.010 12.091 L 12.000 13.098 10.990 12.091 C 10.332 11.435,9.928 11.062,9.831 11.022 C 9.648 10.946,9.343 10.944,9.171 11.019 " stroke="none" fill-rule="evenodd" fill="black"></path></svg>