<svg width="24" height="24" viewBox="0 0 24 24" fill="none" xmlns="http://www.w3.org/2000/svg"><path d="M11.280 1.023 C 11.203 1.032,10.951 1.059,10.720 1.083 C 8.832 1.283,6.991 2.023,5.360 3.235 C 4.751 3.688,3.684 4.755,3.226 5.367 C 0.944 8.425,0.383 12.286,1.701 15.867 C 1.888 16.376,2.374 17.362,2.662 17.820 C 3.316 18.858,4.432 20.075,5.380 20.784 C 7.155 22.112,9.234 22.868,11.437 22.986 C 12.032 23.018,12.282 22.956,12.493 22.723 C 12.663 22.534,12.730 22.315,12.727 21.954 C 12.723 21.533,12.582 21.275,12.265 21.113 C 12.149 21.053,11.976 21.024,11.585 20.997 C 10.234 20.903,9.205 20.637,8.060 20.084 C 5.683 18.935,3.890 16.720,3.267 14.160 C 3.081 13.397,3.023 12.888,3.023 12.000 C 3.023 10.507,3.280 9.379,3.920 8.060 C 4.799 6.247,6.247 4.799,8.060 3.920 C 9.379 3.280,10.507 3.023,12.000 3.023 C 13.493 3.023,14.621 3.280,15.940 3.920 C 17.753 4.799,19.201 6.247,20.080 8.060 C 20.709 9.355,20.948 10.394,20.985 11.980 C 21.007 12.967,21.039 13.121,21.262 13.316 C 21.501 13.526,22.001 13.612,22.368 13.505 C 22.626 13.430,22.846 13.219,22.922 12.973 C 22.994 12.742,23.015 11.736,22.962 11.103 C 22.785 9.012,22.044 7.069,20.770 5.363 C 20.316 4.755,19.247 3.686,18.640 3.235 C 17.045 2.049,15.365 1.360,13.423 1.096 C 13.000 1.038,11.574 0.990,11.280 1.023 M11.614 5.057 C 11.377 5.131,11.212 5.261,11.109 5.453 L 11.020 5.620 11.008 8.880 C 11.000 11.260,11.009 12.185,11.043 12.308 C 11.148 12.688,11.188 12.713,13.466 13.852 C 15.535 14.886,15.565 14.900,15.811 14.900 C 16.116 14.900,16.282 14.813,16.482 14.547 C 16.747 14.197,16.845 13.720,16.708 13.455 C 16.571 13.190,16.381 13.075,14.691 12.227 L 13.002 11.380 12.991 8.500 L 12.980 5.620 12.891 5.453 C 12.842 5.362,12.746 5.247,12.678 5.199 C 12.414 5.010,11.957 4.950,11.614 5.057 M20.680 15.523 C 20.544 15.584,20.020 16.083,18.519 17.582 C 17.430 18.670,16.522 19.560,16.501 19.560 C 16.480 19.560,16.129 19.228,15.721 18.822 C 15.258 18.362,14.923 18.061,14.831 18.022 C 14.645 17.944,14.360 17.942,14.180 18.018 C 13.831 18.163,13.441 18.683,13.441 19.000 C 13.441 19.316,13.575 19.484,14.826 20.728 C 15.652 21.550,16.068 21.936,16.177 21.981 C 16.389 22.070,16.646 22.063,16.850 21.964 C 17.096 21.845,21.892 17.040,21.982 16.823 C 22.129 16.469,22.022 16.104,21.678 15.782 C 21.320 15.447,21.020 15.370,20.680 15.523 " stroke="none" fill-rule="evenodd" fill="black"></path></svg>