<svg width="24" height="24" viewBox="0 0 24 24" fill="none" xmlns="http://www.w3.org/2000/svg"><path d="M11.280 1.023 C 11.203 1.032,10.951 1.059,10.720 1.083 C 8.832 1.283,6.991 2.023,5.360 3.235 C 4.751 3.688,3.684 4.755,3.226 5.367 C 0.728 8.714,0.301 13.032,2.097 16.780 C 2.642 17.918,3.276 18.800,4.238 19.763 C 5.202 20.728,6.132 21.391,7.290 21.938 C 9.091 22.790,11.202 23.156,13.080 22.942 C 13.639 22.879,13.799 22.834,13.994 22.689 C 14.266 22.487,14.358 21.999,14.216 21.518 C 14.085 21.078,13.758 20.890,13.200 20.936 C 11.554 21.070,10.459 20.961,9.150 20.533 C 8.513 20.324,7.578 19.871,7.040 19.511 C 5.157 18.249,3.791 16.312,3.267 14.160 C 3.081 13.397,3.023 12.888,3.023 12.000 C 3.023 10.507,3.280 9.379,3.920 8.060 C 4.799 6.247,6.247 4.799,8.060 3.920 C 9.379 3.280,10.507 3.023,12.000 3.023 C 13.493 3.023,14.621 3.280,15.940 3.920 C 17.753 4.799,19.201 6.247,20.080 8.060 C 20.810 9.565,21.082 11.012,20.959 12.739 C 20.897 13.616,20.917 13.732,21.177 13.983 C 21.382 14.180,21.629 14.261,22.020 14.259 C 22.624 14.255,22.843 13.977,22.943 13.088 C 23.240 10.424,22.449 7.613,20.770 5.363 C 20.316 4.755,19.247 3.686,18.640 3.235 C 17.045 2.049,15.365 1.360,13.423 1.096 C 13.000 1.038,11.574 0.990,11.280 1.023 M11.614 5.057 C 11.377 5.131,11.212 5.261,11.109 5.453 L 11.020 5.620 11.008 8.880 C 11.000 11.260,11.009 12.185,11.043 12.308 C 11.148 12.688,11.188 12.713,13.466 13.852 C 15.535 14.886,15.565 14.900,15.811 14.900 C 16.116 14.900,16.282 14.813,16.482 14.547 C 16.747 14.197,16.845 13.720,16.708 13.455 C 16.571 13.190,16.381 13.075,14.691 12.227 L 13.002 11.380 12.991 8.500 L 12.980 5.620 12.891 5.453 C 12.842 5.362,12.746 5.247,12.678 5.199 C 12.414 5.010,11.957 4.950,11.614 5.057 M18.614 15.057 C 18.377 15.131,18.212 15.261,18.109 15.453 C 18.024 15.613,18.020 15.668,18.008 16.810 L 17.996 18.000 16.904 18.000 C 15.744 18.000,15.570 18.022,15.322 18.199 C 15.100 18.357,15.020 18.568,15.020 19.000 C 15.020 19.331,15.033 19.403,15.120 19.558 C 15.230 19.755,15.414 19.898,15.635 19.959 C 15.716 19.982,16.270 20.000,16.890 20.000 L 18.000 20.000 18.000 21.110 C 18.000 21.730,18.018 22.284,18.041 22.365 C 18.148 22.750,18.437 22.962,18.896 22.991 C 19.381 23.022,19.699 22.882,19.880 22.558 C 19.979 22.381,19.980 22.374,19.993 21.190 L 20.005 20.000 21.113 20.000 C 21.731 20.000,22.284 19.982,22.365 19.959 C 22.586 19.898,22.770 19.755,22.880 19.558 C 22.967 19.402,22.980 19.332,22.979 19.000 C 22.978 18.567,22.898 18.355,22.678 18.199 C 22.430 18.022,22.256 18.000,21.096 18.000 L 20.005 18.000 19.993 16.810 C 19.981 15.669,19.976 15.613,19.891 15.453 C 19.842 15.362,19.746 15.247,19.678 15.199 C 19.414 15.010,18.957 14.950,18.614 15.057 " stroke="none" fill-rule="evenodd" fill="black"></path></svg>