<svg width="24" height="24" viewBox="0 0 24 24" fill="none" xmlns="http://www.w3.org/2000/svg"><path d="M10.920 2.565 C 8.860 2.800,6.911 3.720,5.424 5.158 C 3.911 6.623,2.967 8.417,2.622 10.485 C 2.467 11.417,2.572 11.795,3.042 11.997 C 3.509 12.198,4.042 12.131,4.291 11.840 C 4.453 11.651,4.496 11.518,4.580 10.960 C 4.705 10.125,4.890 9.505,5.218 8.816 C 6.257 6.636,8.133 5.162,10.520 4.650 C 10.985 4.550,11.088 4.543,12.000 4.543 C 12.860 4.543,13.031 4.554,13.400 4.632 C 14.484 4.862,15.522 5.311,16.379 5.923 C 16.822 6.239,17.637 6.977,17.592 7.022 C 17.580 7.033,17.466 7.015,17.337 6.981 C 16.665 6.806,16.255 7.032,16.083 7.670 C 15.963 8.115,16.064 8.505,16.349 8.698 C 16.546 8.832,16.741 8.893,18.337 9.318 C 19.160 9.537,19.771 9.680,19.889 9.680 C 20.236 9.680,20.490 9.511,20.642 9.180 C 20.682 9.092,20.898 8.337,21.122 7.502 C 21.578 5.799,21.593 5.675,21.389 5.367 C 21.182 5.053,20.545 4.845,20.135 4.956 C 19.866 5.029,19.664 5.283,19.536 5.712 L 19.429 6.069 19.200 5.805 C 17.634 3.996,15.395 2.819,13.032 2.562 C 12.581 2.513,11.357 2.515,10.920 2.565 M11.545 6.579 C 11.460 6.609,11.329 6.694,11.253 6.766 C 10.997 7.015,10.996 7.020,11.009 9.804 L 11.020 12.300 11.129 12.486 C 11.272 12.729,11.389 12.810,12.860 13.689 C 14.002 14.371,14.369 14.560,14.551 14.560 C 15.086 14.558,15.662 13.769,15.519 13.236 C 15.441 12.946,15.197 12.752,14.050 12.064 L 13.000 11.435 13.000 9.365 C 13.000 7.018,12.998 6.996,12.723 6.747 C 12.636 6.669,12.497 6.586,12.413 6.563 C 12.200 6.504,11.731 6.513,11.545 6.579 M20.260 11.898 C 20.238 11.907,20.151 11.925,20.068 11.939 C 19.857 11.974,19.621 12.196,19.543 12.433 C 19.509 12.536,19.454 12.809,19.419 13.040 C 19.256 14.143,18.909 15.089,18.333 16.006 C 16.879 18.319,14.195 19.686,11.510 19.481 C 9.814 19.351,8.246 18.690,6.979 17.570 C 6.663 17.291,6.358 16.960,6.416 16.960 C 6.427 16.960,6.540 16.987,6.666 17.020 C 7.439 17.221,7.908 16.856,7.950 16.020 C 7.965 15.720,7.959 15.689,7.847 15.515 C 7.761 15.381,7.669 15.301,7.514 15.226 C 7.212 15.080,4.353 14.320,4.103 14.320 C 3.745 14.320,3.458 14.532,3.319 14.900 C 3.181 15.265,2.480 18.002,2.480 18.177 C 2.480 18.580,2.735 18.878,3.198 19.016 C 3.859 19.212,4.256 18.983,4.465 18.286 L 4.571 17.931 4.801 18.195 C 5.110 18.552,5.756 19.175,6.100 19.448 C 7.436 20.510,9.146 21.214,10.940 21.442 C 11.477 21.511,12.616 21.501,13.200 21.424 C 14.684 21.227,16.033 20.721,17.267 19.896 C 17.883 19.485,18.263 19.167,18.803 18.614 C 20.189 17.192,21.027 15.529,21.379 13.501 C 21.535 12.602,21.424 12.202,20.966 12.007 C 20.792 11.933,20.349 11.865,20.260 11.898 " stroke="none" fill-rule="evenodd" fill="black"></path></svg>