<svg width="24" height="24" viewBox="0 0 24 24" fill="none" xmlns="http://www.w3.org/2000/svg"><path d="M11.080 2.042 C 9.165 2.226,7.360 2.948,5.800 4.154 C 5.005 4.769,4.015 5.884,3.470 6.780 C 2.106 9.020,1.666 11.743,2.260 14.260 C 2.697 16.112,3.581 17.701,4.919 19.042 C 6.094 20.220,7.404 21.026,8.947 21.520 C 10.023 21.865,10.778 21.978,12.000 21.978 C 13.222 21.978,13.977 21.865,15.053 21.520 C 16.596 21.026,17.906 20.220,19.081 19.042 C 19.892 18.229,20.473 17.419,20.960 16.420 C 21.285 15.754,21.479 15.242,21.647 14.608 C 21.715 14.350,21.777 14.116,21.785 14.086 C 21.795 14.052,21.874 14.099,22.010 14.222 C 22.442 14.613,22.782 14.657,23.192 14.375 C 23.482 14.176,23.721 13.837,23.750 13.584 C 23.793 13.200,23.744 13.135,22.425 11.816 C 21.652 11.044,21.163 10.585,21.060 10.537 C 20.854 10.440,20.546 10.440,20.340 10.537 C 20.098 10.651,17.828 12.926,17.723 13.160 C 17.561 13.519,17.649 13.853,17.998 14.202 C 18.494 14.697,18.905 14.677,19.486 14.129 C 19.655 13.969,19.760 13.895,19.760 13.934 C 19.760 14.089,19.415 15.025,19.183 15.499 C 18.749 16.387,18.223 17.105,17.496 17.801 C 16.876 18.394,16.262 18.819,15.471 19.200 C 13.267 20.265,10.733 20.265,8.529 19.200 C 7.738 18.819,7.124 18.394,6.504 17.801 C 4.495 15.878,3.630 13.155,4.161 10.422 C 4.403 9.176,5.023 7.881,5.848 6.900 C 6.622 5.980,7.440 5.337,8.500 4.816 C 11.509 3.338,15.145 3.917,17.554 6.258 C 18.048 6.737,18.337 7.088,18.735 7.694 C 19.165 8.348,19.397 8.519,19.785 8.465 C 20.136 8.417,20.598 8.102,20.724 7.823 C 20.912 7.411,20.750 7.016,19.963 5.960 C 18.400 3.862,15.891 2.415,13.240 2.081 C 12.761 2.020,11.532 1.998,11.080 2.042 M11.614 6.057 C 11.377 6.131,11.212 6.261,11.109 6.453 L 11.020 6.620 11.020 9.463 L 11.020 12.306 11.140 12.503 C 11.249 12.681,11.415 12.804,12.860 13.774 C 13.740 14.365,14.550 14.891,14.660 14.943 C 15.042 15.126,15.398 15.049,15.697 14.718 C 16.120 14.250,16.149 13.708,15.770 13.349 C 15.706 13.288,15.061 12.842,14.337 12.358 L 13.020 11.479 13.000 9.050 C 12.980 6.633,12.980 6.619,12.891 6.453 C 12.842 6.362,12.746 6.247,12.678 6.199 C 12.414 6.010,11.957 5.950,11.614 6.057 " stroke="none" fill-rule="evenodd" fill="black"></path></svg>