<svg width="24" height="24" viewBox="0 0 24 24" fill="none" xmlns="http://www.w3.org/2000/svg"><path d="M11.280 1.023 C 11.203 1.032,10.951 1.059,10.720 1.083 C 9.527 1.210,8.337 1.558,7.180 2.120 C 6.045 2.671,5.193 3.285,4.238 4.239 C 3.277 5.198,2.643 6.080,2.097 7.220 C 0.301 10.968,0.728 15.286,3.226 18.633 C 3.701 19.269,4.753 20.316,5.400 20.797 C 7.446 22.319,9.844 23.071,12.380 22.987 C 13.438 22.952,13.743 22.841,13.921 22.428 C 14.081 22.058,13.974 21.410,13.715 21.172 C 13.498 20.973,13.382 20.955,12.488 20.984 C 11.200 21.027,10.276 20.902,9.150 20.533 C 8.513 20.324,7.578 19.871,7.040 19.511 C 5.157 18.249,3.791 16.312,3.267 14.160 C 3.081 13.397,3.023 12.888,3.023 12.000 C 3.023 10.507,3.280 9.379,3.920 8.060 C 4.799 6.247,6.247 4.799,8.060 3.920 C 9.379 3.280,10.507 3.023,12.000 3.023 C 13.493 3.023,14.621 3.280,15.940 3.920 C 18.328 5.077,20.110 7.279,20.733 9.840 C 20.938 10.681,20.975 11.054,20.978 12.280 C 20.980 13.263,20.989 13.437,21.046 13.540 C 21.205 13.829,21.468 13.961,21.940 13.989 C 22.235 14.007,22.277 13.999,22.480 13.892 C 22.884 13.678,22.997 13.274,22.999 12.020 C 23.003 9.626,22.231 7.321,20.770 5.363 C 20.316 4.755,19.247 3.686,18.640 3.235 C 17.045 2.049,15.365 1.360,13.423 1.096 C 13.000 1.038,11.574 0.990,11.280 1.023 M11.614 5.057 C 11.377 5.131,11.212 5.261,11.109 5.453 L 11.020 5.620 11.008 8.880 C 11.000 11.260,11.009 12.185,11.043 12.308 C 11.148 12.688,11.188 12.713,13.466 13.852 C 15.535 14.886,15.565 14.900,15.811 14.900 C 16.116 14.900,16.282 14.813,16.482 14.547 C 16.747 14.197,16.845 13.720,16.708 13.455 C 16.571 13.190,16.381 13.075,14.691 12.227 L 13.002 11.380 12.991 8.500 L 12.980 5.620 12.891 5.453 C 12.842 5.362,12.746 5.247,12.678 5.199 C 12.414 5.010,11.957 4.950,11.614 5.057 M16.180 16.039 C 15.715 16.159,15.514 16.447,15.512 16.997 C 15.510 17.348,15.582 17.556,15.771 17.751 C 15.995 17.983,16.128 18.000,17.697 18.000 L 19.100 18.000 17.351 19.750 C 15.530 21.574,15.442 21.677,15.442 22.000 C 15.442 22.323,15.741 22.734,16.100 22.904 L 16.300 22.999 19.003 23.000 C 21.995 23.000,21.988 23.001,22.229 22.751 C 22.418 22.556,22.486 22.355,22.486 21.997 C 22.486 21.491,22.303 21.196,21.909 21.064 C 21.748 21.010,21.493 21.000,20.309 21.000 L 18.900 21.000 20.629 19.270 C 21.886 18.012,22.375 17.496,22.423 17.380 C 22.572 17.020,22.472 16.470,22.215 16.234 C 21.960 15.999,21.973 16.000,19.009 16.004 C 17.519 16.006,16.246 16.022,16.180 16.039 " stroke="none" fill-rule="evenodd" fill="black"></path></svg>