<svg width="24" height="24" viewBox="0 0 24 24" fill="none" xmlns="http://www.w3.org/2000/svg"><path d="M11.080 2.045 C 9.507 2.184,7.883 2.751,6.540 3.630 C 5.905 4.045,5.499 4.378,4.919 4.958 C 2.953 6.926,1.919 9.544,2.013 12.320 C 2.084 14.439,2.752 16.328,4.033 18.040 C 4.430 18.570,5.305 19.464,5.800 19.847 C 7.242 20.961,8.790 21.625,10.600 21.906 C 11.172 21.995,12.702 22.007,13.280 21.927 C 15.418 21.630,17.408 20.671,18.935 19.202 C 19.392 18.761,19.871 18.190,19.969 17.968 C 20.130 17.605,20.041 17.282,19.690 16.953 C 19.410 16.691,19.264 16.623,18.980 16.623 C 18.681 16.623,18.556 16.688,18.276 16.987 C 17.660 17.646,17.311 17.991,17.040 18.211 C 14.630 20.163,11.319 20.548,8.529 19.200 C 7.477 18.693,6.612 18.015,5.847 17.100 C 4.102 15.014,3.551 12.113,4.403 9.502 C 4.953 7.820,6.121 6.296,7.620 5.309 C 9.618 3.993,12.199 3.653,14.498 4.403 C 16.180 4.953,17.704 6.121,18.691 7.620 C 19.345 8.612,19.816 9.914,19.943 11.080 L 19.971 11.340 19.596 10.979 C 19.166 10.566,18.986 10.461,18.700 10.461 C 18.445 10.461,18.233 10.565,17.988 10.809 C 17.764 11.033,17.642 11.276,17.642 11.500 C 17.642 11.826,17.747 11.961,18.932 13.151 C 19.552 13.774,20.146 14.339,20.251 14.407 C 20.496 14.564,20.737 14.594,20.990 14.499 C 21.147 14.440,21.379 14.230,22.332 13.284 C 22.966 12.655,23.540 12.054,23.607 11.949 C 23.748 11.730,23.791 11.475,23.723 11.268 C 23.612 10.934,23.219 10.568,22.870 10.474 C 22.634 10.411,22.399 10.476,22.131 10.679 L 21.930 10.831 21.904 10.606 C 21.860 10.236,21.720 9.609,21.573 9.120 C 21.210 7.921,20.643 6.829,19.847 5.800 C 19.510 5.365,18.639 4.494,18.200 4.154 C 16.133 2.555,13.646 1.818,11.080 2.045 M11.614 6.057 C 11.377 6.131,11.212 6.261,11.109 6.453 L 11.020 6.620 11.020 9.463 L 11.020 12.306 11.140 12.503 C 11.249 12.681,11.415 12.804,12.860 13.774 C 13.740 14.365,14.550 14.891,14.660 14.943 C 15.042 15.126,15.398 15.049,15.697 14.718 C 16.120 14.250,16.149 13.708,15.770 13.349 C 15.706 13.288,15.061 12.842,14.337 12.358 L 13.020 11.479 13.000 9.050 C 12.980 6.633,12.980 6.619,12.891 6.453 C 12.842 6.362,12.746 6.247,12.678 6.199 C 12.414 6.010,11.957 5.950,11.614 6.057 " stroke="none" fill-rule="evenodd" fill="black"></path></svg>