<svg width="24" height="24" viewBox="0 0 24 24" fill="none" xmlns="http://www.w3.org/2000/svg"><path d="M9.614 1.057 C 9.377 1.131,9.212 1.261,9.109 1.453 C 9.035 1.592,9.020 1.684,9.020 2.000 C 9.020 2.331,9.033 2.403,9.120 2.558 C 9.230 2.755,9.414 2.898,9.635 2.959 C 9.715 2.981,10.055 3.000,10.391 3.000 L 11.002 3.000 10.991 3.528 L 10.980 4.057 10.580 4.112 C 9.660 4.241,8.724 4.537,7.780 5.001 C 6.150 5.800,4.779 7.070,3.824 8.666 C 3.180 9.743,2.726 11.082,2.559 12.400 C 2.497 12.887,2.497 14.064,2.558 14.580 C 2.714 15.883,3.174 17.248,3.824 18.334 C 4.787 19.943,6.168 21.218,7.820 22.021 C 8.759 22.477,9.627 22.750,10.640 22.907 C 11.283 23.006,12.717 23.006,13.360 22.907 C 16.976 22.346,19.890 19.895,21.022 16.460 C 21.350 15.465,21.489 14.582,21.489 13.500 C 21.489 13.126,21.468 12.640,21.442 12.420 C 21.190 10.307,20.235 8.320,18.760 6.838 C 17.960 6.033,17.189 5.476,16.220 5.001 C 15.276 4.537,14.340 4.241,13.420 4.112 L 13.020 4.057 13.009 3.528 L 12.998 3.000 13.609 3.000 C 13.945 3.000,14.285 2.981,14.365 2.959 C 14.586 2.898,14.770 2.755,14.880 2.558 C 14.967 2.402,14.980 2.332,14.979 2.000 C 14.978 1.567,14.898 1.355,14.678 1.199 C 14.406 1.005,14.336 1.000,11.984 1.003 C 10.293 1.005,9.741 1.017,9.614 1.057 M4.800 3.137 C 4.583 3.254,2.803 5.035,2.697 5.240 C 2.602 5.424,2.604 5.737,2.701 5.940 C 2.803 6.153,3.119 6.466,3.330 6.561 C 3.536 6.655,3.792 6.661,3.991 6.578 C 4.172 6.502,6.010 4.689,6.120 4.478 C 6.293 4.144,6.260 3.888,5.999 3.536 C 5.669 3.093,5.181 2.930,4.800 3.137 M18.480 3.129 C 18.263 3.235,17.961 3.534,17.857 3.746 C 17.756 3.951,17.761 4.254,17.870 4.460 C 17.988 4.686,19.820 6.499,20.009 6.578 C 20.406 6.744,20.891 6.549,21.199 6.102 C 21.381 5.837,21.423 5.611,21.339 5.353 C 21.276 5.161,21.176 5.046,20.325 4.187 C 19.685 3.541,19.319 3.202,19.191 3.137 C 18.954 3.015,18.717 3.012,18.480 3.129 M13.280 6.116 C 14.794 6.380,16.174 7.094,17.261 8.178 C 18.460 9.374,19.187 10.812,19.420 12.445 C 19.495 12.977,19.495 14.023,19.420 14.555 C 19.189 16.174,18.460 17.623,17.282 18.802 C 16.301 19.782,15.140 20.443,13.820 20.774 C 13.152 20.941,12.823 20.978,12.000 20.978 C 10.965 20.978,10.280 20.860,9.400 20.532 C 7.858 19.956,6.483 18.833,5.639 17.459 C 4.872 16.212,4.521 14.968,4.521 13.500 C 4.521 12.031,4.872 10.790,5.639 9.540 C 6.818 7.619,8.914 6.302,11.204 6.043 C 11.706 5.986,12.744 6.023,13.280 6.116 M11.545 8.579 C 11.460 8.609,11.329 8.693,11.254 8.766 C 11.004 9.009,11.000 9.047,11.000 11.480 C 11.000 13.954,10.996 13.915,11.295 14.191 C 11.480 14.361,14.055 15.919,14.276 15.994 C 14.625 16.113,14.971 16.008,15.212 15.711 C 15.605 15.226,15.650 14.773,15.341 14.412 C 15.254 14.310,14.843 14.040,14.107 13.600 L 13.003 12.940 13.001 11.117 C 13.000 9.044,12.994 8.992,12.723 8.747 C 12.636 8.669,12.497 8.586,12.413 8.563 C 12.200 8.504,11.731 8.513,11.545 8.579 " stroke="none" fill-rule="evenodd" fill="black"></path></svg>