<svg width="24" height="24" viewBox="0 0 24 24" fill="none" xmlns="http://www.w3.org/2000/svg"><path d="M11.267 1.042 C 9.834 1.209,8.481 1.858,7.438 2.880 C 7.224 3.089,6.923 3.433,6.767 3.644 L 6.485 4.028 6.254 4.055 C 3.723 4.353,1.670 6.264,1.114 8.840 C 0.984 9.446,0.984 10.554,1.114 11.160 C 1.636 13.578,3.381 15.331,5.820 15.886 L 6.220 15.977 12.000 15.991 C 16.201 16.002,17.878 15.993,18.140 15.959 C 19.385 15.800,20.456 15.285,21.340 14.420 C 22.959 12.835,23.435 10.495,22.570 8.376 C 21.861 6.640,20.079 5.270,18.260 5.061 L 18.020 5.034 17.846 4.661 C 17.188 3.248,15.899 2.065,14.322 1.424 C 13.511 1.094,12.213 0.932,11.267 1.042 M12.680 3.058 C 13.173 3.133,13.536 3.247,13.974 3.463 C 15.097 4.019,15.871 4.917,16.296 6.157 C 16.396 6.452,16.477 6.615,16.569 6.711 C 16.789 6.940,16.887 6.970,17.520 7.005 C 17.861 7.024,18.226 7.070,18.405 7.116 C 19.154 7.308,19.944 7.871,20.396 8.533 C 20.595 8.824,20.826 9.344,20.906 9.680 C 21.004 10.091,21.004 10.909,20.906 11.320 C 20.760 11.933,20.388 12.571,19.915 13.023 C 19.466 13.450,19.034 13.701,18.420 13.892 L 18.140 13.979 12.391 13.990 C 6.696 14.002,6.638 14.001,6.232 13.918 C 4.565 13.579,3.309 12.267,3.058 10.605 C 2.986 10.121,2.986 9.879,3.058 9.395 C 3.247 8.145,4.042 7.036,5.160 6.464 C 5.765 6.155,6.131 6.061,6.958 6.003 C 7.648 5.955,7.732 5.898,8.142 5.200 C 8.594 4.428,9.237 3.846,10.086 3.442 C 10.917 3.046,11.768 2.920,12.680 3.058 M7.529 17.563 C 7.433 17.611,7.307 17.723,7.243 17.816 C 7.101 18.022,6.056 20.622,5.992 20.929 C 5.955 21.105,5.956 21.189,5.997 21.326 C 6.096 21.660,6.534 21.960,7.021 22.026 C 7.351 22.072,7.683 21.872,7.857 21.524 C 8.051 21.134,9.000 18.688,9.024 18.518 C 9.058 18.268,8.987 18.046,8.818 17.871 C 8.481 17.525,7.885 17.382,7.529 17.563 M11.529 17.563 C 11.433 17.611,11.307 17.723,11.243 17.816 C 11.101 18.022,10.056 20.622,9.992 20.929 C 9.955 21.105,9.956 21.189,9.997 21.326 C 10.096 21.660,10.534 21.960,11.021 22.026 C 11.351 22.072,11.683 21.872,11.857 21.524 C 12.051 21.134,13.000 18.688,13.024 18.518 C 13.058 18.268,12.987 18.046,12.818 17.871 C 12.481 17.525,11.885 17.382,11.529 17.563 M15.529 17.563 C 15.433 17.611,15.307 17.723,15.243 17.816 C 15.101 18.022,14.056 20.622,13.992 20.929 C 13.955 21.105,13.956 21.189,13.997 21.326 C 14.096 21.660,14.534 21.960,15.021 22.026 C 15.351 22.072,15.683 21.872,15.857 21.524 C 16.051 21.134,17.000 18.688,17.024 18.518 C 17.058 18.268,16.987 18.046,16.818 17.871 C 16.481 17.525,15.885 17.382,15.529 17.563 " stroke="none" fill-rule="evenodd" fill="black"></path></svg>