<svg width="24" height="24" viewBox="0 0 24 24" fill="none" xmlns="http://www.w3.org/2000/svg"><path d="M9.840 1.025 C 7.747 1.216,5.948 2.050,4.499 3.499 C 3.077 4.920,2.242 6.685,2.037 8.700 C 1.950 9.561,2.064 11.027,2.254 11.480 C 2.454 11.956,2.947 12.124,3.542 11.919 C 3.815 11.826,3.980 11.686,4.084 11.460 C 4.174 11.266,4.178 11.075,4.103 10.590 C 3.894 9.240,4.051 8.019,4.585 6.828 C 5.702 4.342,8.309 2.801,11.004 3.034 C 11.639 3.089,12.018 3.165,12.559 3.345 C 14.461 3.977,15.961 5.462,16.641 7.388 C 16.709 7.582,16.818 8.006,16.882 8.332 C 17.035 9.102,17.109 9.249,17.420 9.412 C 17.618 9.516,18.090 9.522,18.353 9.425 C 18.895 9.225,19.025 8.855,18.861 7.980 C 18.187 4.378,15.321 1.613,11.729 1.100 C 11.310 1.041,10.167 0.995,9.840 1.025 M11.240 9.045 C 10.467 9.123,9.768 9.319,9.049 9.662 C 7.639 10.332,6.486 11.422,5.813 12.719 L 5.658 13.017 5.299 13.063 C 4.491 13.167,3.785 13.451,3.068 13.963 C 2.067 14.677,1.364 15.771,1.093 17.040 C 0.992 17.511,0.992 18.489,1.093 18.960 C 1.523 20.968,2.959 22.418,5.000 22.905 C 5.280 22.972,5.712 22.978,11.540 22.991 C 16.074 23.001,17.878 22.993,18.140 22.959 C 19.384 22.801,20.456 22.285,21.340 21.420 C 23.309 19.492,23.553 16.446,21.915 14.237 C 21.002 13.006,19.614 12.207,18.107 12.046 C 17.813 12.015,17.743 11.994,17.692 11.921 C 17.343 11.422,16.732 10.797,16.232 10.428 C 14.749 9.331,13.056 8.862,11.240 9.045 M13.060 11.116 C 13.669 11.247,14.261 11.505,14.840 11.891 C 15.265 12.175,15.887 12.818,16.207 13.303 C 16.494 13.739,16.644 13.890,16.849 13.953 C 16.921 13.975,17.232 14.003,17.540 14.014 C 18.191 14.038,18.567 14.122,19.005 14.342 C 19.562 14.621,20.071 15.056,20.396 15.533 C 20.595 15.824,20.826 16.344,20.906 16.680 C 21.004 17.091,21.004 17.909,20.906 18.320 C 20.613 19.547,19.628 20.548,18.360 20.906 C 18.113 20.976,17.793 20.980,11.780 20.980 L 5.460 20.980 5.160 20.886 C 4.180 20.580,3.418 19.822,3.125 18.861 C 3.042 18.588,3.027 18.458,3.027 18.000 C 3.027 17.542,3.042 17.412,3.125 17.139 C 3.416 16.184,4.192 15.409,5.139 15.127 C 5.391 15.052,5.588 15.027,6.060 15.011 C 6.474 14.996,6.697 14.971,6.780 14.930 C 6.998 14.822,7.156 14.633,7.284 14.323 C 7.471 13.871,7.698 13.429,7.885 13.149 C 8.120 12.801,8.799 12.133,9.178 11.879 C 9.914 11.387,10.505 11.169,11.500 11.024 C 11.764 10.985,12.713 11.041,13.060 11.116 " stroke="none" fill-rule="evenodd" fill="black"></path></svg>