<svg width="24" height="24" viewBox="0 0 24 24" fill="none" xmlns="http://www.w3.org/2000/svg"><path d="M10.042 0.572 C 9.850 0.633,9.615 0.882,9.552 1.088 C 9.479 1.330,9.479 3.270,9.552 3.512 C 9.621 3.740,9.866 3.982,10.088 4.042 C 10.322 4.105,10.672 4.104,10.903 4.039 C 11.156 3.968,11.368 3.756,11.443 3.497 C 11.524 3.219,11.525 1.332,11.444 1.100 C 11.302 0.691,11.020 0.518,10.500 0.524 C 10.324 0.527,10.118 0.548,10.042 0.572 M4.011 2.839 C 3.782 2.942,3.462 3.249,3.358 3.463 C 3.250 3.686,3.249 3.951,3.355 4.171 C 3.465 4.398,4.926 5.853,5.129 5.938 C 5.465 6.079,5.827 5.977,6.151 5.652 C 6.515 5.286,6.598 4.907,6.391 4.557 C 6.230 4.285,4.857 2.942,4.640 2.843 C 4.415 2.741,4.228 2.740,4.011 2.839 M16.360 2.843 C 16.143 2.942,14.770 4.285,14.609 4.557 C 14.402 4.907,14.485 5.286,14.849 5.652 C 15.173 5.977,15.535 6.079,15.871 5.938 C 16.074 5.853,17.535 4.398,17.645 4.171 C 17.816 3.816,17.714 3.435,17.358 3.102 C 17.000 2.767,16.700 2.689,16.360 2.843 M9.891 5.041 C 7.986 5.282,6.391 6.587,5.759 8.422 C 5.530 9.090,5.436 10.130,5.576 10.460 C 5.726 10.812,6.046 11.000,6.500 11.000 C 6.946 11.000,7.276 10.811,7.416 10.476 C 7.449 10.396,7.488 10.162,7.503 9.956 C 7.566 9.064,7.789 8.513,8.318 7.945 C 8.673 7.565,9.289 7.203,9.800 7.075 C 10.112 6.997,10.912 7.008,11.240 7.094 C 11.761 7.231,12.329 7.564,12.665 7.928 C 12.754 8.025,12.937 8.268,13.071 8.466 C 13.351 8.883,13.497 9.020,13.728 9.082 C 14.128 9.190,14.758 8.877,14.967 8.466 C 15.133 8.140,15.011 7.726,14.556 7.080 C 14.144 6.494,13.404 5.865,12.723 5.522 C 12.395 5.356,11.851 5.173,11.473 5.100 C 11.064 5.021,10.280 4.992,9.891 5.041 M1.614 9.057 C 1.377 9.131,1.212 9.261,1.109 9.453 C 1.035 9.592,1.020 9.684,1.020 10.000 C 1.020 10.331,1.033 10.403,1.120 10.558 C 1.230 10.755,1.414 10.898,1.635 10.959 C 1.824 11.012,3.776 11.012,3.965 10.959 C 4.186 10.898,4.370 10.755,4.480 10.558 C 4.567 10.402,4.580 10.332,4.579 10.000 C 4.578 9.687,4.562 9.591,4.490 9.453 C 4.386 9.256,4.223 9.131,3.971 9.055 C 3.720 8.980,1.856 8.981,1.614 9.057 M17.014 9.057 C 16.777 9.131,16.612 9.261,16.509 9.453 C 16.435 9.592,16.420 9.684,16.420 10.000 C 16.420 10.331,16.433 10.403,16.520 10.558 C 16.630 10.755,16.814 10.898,17.035 10.959 C 17.224 11.012,19.176 11.012,19.365 10.959 C 19.586 10.898,19.770 10.755,19.880 10.558 C 19.967 10.402,19.980 10.332,19.979 10.000 C 19.978 9.687,19.962 9.591,19.890 9.453 C 19.786 9.256,19.623 9.131,19.371 9.055 C 19.120 8.980,17.256 8.981,17.014 9.057 M11.420 10.025 C 9.574 10.226,7.907 11.247,6.944 12.767 L 6.757 13.063 6.428 13.024 C 6.035 12.978,5.203 13.044,4.780 13.154 C 3.363 13.523,2.160 14.495,1.526 15.785 C 1.333 16.177,1.187 16.599,1.093 17.040 C 0.992 17.511,0.992 18.489,1.093 18.960 C 1.526 20.984,3.016 22.474,5.040 22.907 C 5.361 22.976,5.750 22.980,12.000 22.980 C 18.250 22.980,18.639 22.976,18.960 22.907 C 20.488 22.580,21.748 21.630,22.433 20.288 C 22.838 19.494,22.980 18.899,22.980 18.000 C 22.980 17.101,22.838 16.506,22.433 15.713 C 21.792 14.456,20.612 13.516,19.220 13.154 C 18.802 13.045,17.966 12.980,17.572 13.026 L 17.244 13.064 17.064 12.782 C 16.174 11.385,14.726 10.409,13.080 10.100 C 12.745 10.037,11.733 9.991,11.420 10.025 M13.011 12.136 C 14.227 12.447,15.236 13.340,15.717 14.531 C 15.993 15.214,16.347 15.364,17.132 15.131 C 17.454 15.035,17.565 15.022,18.020 15.025 C 18.450 15.027,18.595 15.045,18.861 15.125 C 19.814 15.415,20.584 16.185,20.875 17.139 C 20.958 17.412,20.973 17.542,20.973 18.000 C 20.973 18.458,20.958 18.588,20.875 18.861 C 20.582 19.822,19.820 20.580,18.840 20.886 L 18.540 20.980 12.000 20.980 L 5.460 20.980 5.160 20.886 C 4.180 20.580,3.418 19.822,3.125 18.861 C 3.042 18.588,3.027 18.458,3.027 18.000 C 3.027 17.542,3.042 17.412,3.125 17.139 C 3.416 16.185,4.186 15.415,5.139 15.125 C 5.405 15.045,5.550 15.027,5.980 15.025 C 6.435 15.022,6.546 15.035,6.868 15.131 C 7.653 15.364,8.011 15.213,8.282 14.531 C 8.805 13.211,9.997 12.267,11.423 12.041 C 11.822 11.979,12.570 12.023,13.011 12.136 " stroke="none" fill-rule="evenodd" fill="black"></path></svg>