<svg width="24" height="24" viewBox="0 0 24 24" fill="none" xmlns="http://www.w3.org/2000/svg"><path d="M11.267 1.042 C 9.834 1.209,8.481 1.858,7.438 2.880 C 7.224 3.089,6.923 3.433,6.767 3.644 L 6.485 4.028 6.254 4.055 C 3.723 4.353,1.670 6.264,1.114 8.840 C 0.984 9.446,0.984 10.554,1.114 11.160 C 1.636 13.578,3.381 15.331,5.820 15.886 L 6.220 15.977 12.000 15.991 C 16.201 16.002,17.878 15.993,18.140 15.959 C 19.385 15.800,20.456 15.285,21.340 14.420 C 22.959 12.835,23.435 10.495,22.570 8.376 C 21.861 6.640,20.079 5.270,18.260 5.061 L 18.020 5.034 17.846 4.661 C 17.188 3.248,15.899 2.065,14.322 1.424 C 13.511 1.094,12.213 0.932,11.267 1.042 M12.680 3.058 C 13.173 3.133,13.536 3.247,13.974 3.463 C 15.097 4.019,15.871 4.917,16.296 6.157 C 16.396 6.452,16.477 6.615,16.569 6.711 C 16.789 6.940,16.887 6.970,17.520 7.005 C 17.861 7.024,18.226 7.070,18.405 7.116 C 19.154 7.308,19.944 7.871,20.396 8.533 C 20.595 8.824,20.826 9.344,20.906 9.680 C 21.004 10.091,21.004 10.909,20.906 11.320 C 20.760 11.933,20.388 12.571,19.915 13.023 C 19.466 13.450,19.034 13.701,18.420 13.892 L 18.140 13.979 12.391 13.990 C 6.696 14.002,6.638 14.001,6.232 13.918 C 4.565 13.579,3.309 12.267,3.058 10.605 C 2.986 10.121,2.986 9.879,3.058 9.395 C 3.247 8.145,4.042 7.036,5.160 6.464 C 5.765 6.155,6.131 6.061,6.958 6.003 C 7.648 5.955,7.732 5.898,8.142 5.200 C 8.594 4.428,9.237 3.846,10.086 3.442 C 10.917 3.046,11.768 2.920,12.680 3.058 M7.614 17.055 C 7.220 17.184,7.039 17.437,7.009 17.900 C 6.978 18.381,7.119 18.699,7.442 18.880 C 7.597 18.967,7.669 18.980,8.000 18.980 C 8.312 18.980,8.408 18.964,8.540 18.894 C 8.866 18.718,9.000 18.459,9.000 18.000 C 9.000 17.357,8.713 17.048,8.083 17.016 C 7.893 17.006,7.718 17.021,7.614 17.055 M15.614 17.055 C 15.220 17.184,15.039 17.437,15.009 17.900 C 14.978 18.381,15.119 18.699,15.442 18.880 C 15.597 18.967,15.669 18.980,16.000 18.980 C 16.312 18.980,16.408 18.964,16.540 18.894 C 16.866 18.718,17.000 18.459,17.000 18.000 C 17.000 17.357,16.713 17.048,16.083 17.016 C 15.893 17.006,15.718 17.021,15.614 17.055 M11.545 17.579 C 11.203 17.701,11.000 18.044,11.000 18.500 C 11.000 19.148,11.344 19.486,12.007 19.488 C 12.429 19.490,12.710 19.360,12.870 19.087 C 12.970 18.917,12.980 18.864,12.980 18.500 C 12.980 18.136,12.970 18.083,12.871 17.914 C 12.709 17.640,12.449 17.519,12.022 17.522 C 11.845 17.523,11.630 17.548,11.545 17.579 M7.614 20.055 C 7.220 20.184,7.039 20.437,7.009 20.900 C 6.978 21.381,7.119 21.699,7.442 21.880 C 7.597 21.967,7.669 21.980,8.000 21.980 C 8.312 21.980,8.408 21.964,8.540 21.894 C 8.866 21.718,9.000 21.459,9.000 21.000 C 9.000 20.357,8.713 20.048,8.083 20.016 C 7.893 20.006,7.718 20.021,7.614 20.055 M15.614 20.055 C 15.220 20.184,15.039 20.437,15.009 20.900 C 14.978 21.381,15.119 21.699,15.442 21.880 C 15.597 21.967,15.669 21.980,16.000 21.980 C 16.312 21.980,16.408 21.964,16.540 21.894 C 16.866 21.718,17.000 21.459,17.000 21.000 C 17.000 20.357,16.713 20.048,16.083 20.016 C 15.893 20.006,15.718 20.021,15.614 20.055 M11.545 20.579 C 11.203 20.701,11.000 21.044,11.000 21.500 C 11.000 22.148,11.344 22.486,12.007 22.488 C 12.429 22.490,12.710 22.360,12.870 22.087 C 12.970 21.917,12.980 21.864,12.980 21.500 C 12.980 21.136,12.970 21.083,12.871 20.914 C 12.709 20.640,12.449 20.519,12.022 20.522 C 11.845 20.523,11.630 20.548,11.545 20.579 " stroke="none" fill-rule="evenodd" fill="black"></path></svg>