<svg width="24" height="24" viewBox="0 0 24 24" fill="none" xmlns="http://www.w3.org/2000/svg"><path d="M2.626 2.045 C 2.420 2.154,2.146 2.433,2.038 2.644 C 1.924 2.868,1.924 3.133,2.040 3.363 C 2.101 3.484,2.731 4.144,4.052 5.469 L 5.975 7.397 5.747 7.858 C 5.621 8.112,5.457 8.503,5.381 8.728 L 5.244 9.136 4.852 9.261 C 3.083 9.825,1.733 11.207,1.221 12.979 C 0.670 14.885,1.184 16.918,2.573 18.333 C 3.443 19.220,4.496 19.756,5.729 19.941 C 6.059 19.991,7.035 20.000,11.997 20.000 C 15.960 20.000,17.975 19.986,18.182 19.957 L 18.491 19.914 19.475 20.892 C 20.103 21.515,20.524 21.903,20.637 21.960 C 20.989 22.137,21.354 22.048,21.701 21.701 C 22.049 21.354,22.137 20.988,21.959 20.637 C 21.902 20.525,21.432 20.015,20.671 19.240 C 20.012 18.569,19.461 18.010,19.446 17.997 C 19.432 17.984,15.847 14.408,11.480 10.051 C 5.999 4.581,3.488 2.102,3.372 2.044 C 3.152 1.934,2.834 1.935,2.626 2.045 M11.264 4.044 C 10.496 4.125,10.022 4.283,9.851 4.514 C 9.636 4.805,9.633 5.243,9.843 5.672 C 10.059 6.113,10.352 6.220,11.020 6.105 C 12.829 5.793,14.419 6.302,15.642 7.585 C 16.288 8.263,16.639 8.932,16.883 9.953 C 17.012 10.495,17.041 10.567,17.195 10.734 C 17.353 10.904,17.468 10.950,17.966 11.037 C 18.659 11.160,19.062 11.319,19.540 11.661 C 20.802 12.564,21.290 14.121,20.796 15.664 C 20.575 16.358,20.683 16.719,21.192 16.975 C 21.497 17.129,21.800 17.182,22.023 17.119 C 22.374 17.021,22.575 16.729,22.779 16.021 C 23.331 14.108,22.804 12.047,21.407 10.647 C 20.751 9.990,20.002 9.531,19.144 9.259 L 18.749 9.134 18.633 8.777 C 18.490 8.338,18.158 7.640,17.901 7.241 C 16.468 5.012,13.885 3.768,11.264 4.044 M12.040 13.461 L 16.580 18.001 11.220 17.990 L 5.860 17.979 5.580 17.892 C 4.966 17.701,4.534 17.450,4.085 17.023 C 3.630 16.589,3.270 15.991,3.112 15.405 C 2.991 14.961,2.990 14.070,3.110 13.614 C 3.399 12.510,4.276 11.566,5.359 11.194 C 5.480 11.152,5.784 11.082,6.035 11.037 C 6.530 10.950,6.603 10.923,6.774 10.765 C 6.939 10.612,6.983 10.507,7.115 9.953 C 7.231 9.470,7.422 8.920,7.474 8.920 C 7.489 8.920,9.543 10.963,12.040 13.461 " stroke="none" fill-rule="evenodd" fill="black"></path></svg>