<svg width="24" height="24" viewBox="0 0 24 24" fill="none" xmlns="http://www.w3.org/2000/svg"><path d="M11.207 3.040 C 8.765 3.297,6.612 4.619,5.264 6.689 C 4.641 7.645,4.142 9.051,4.053 10.103 L 4.028 10.405 3.742 10.541 C 2.895 10.942,1.968 11.872,1.510 12.780 C 1.363 13.071,1.180 13.610,1.096 14.000 C 0.993 14.475,0.992 15.488,1.093 15.960 C 1.523 17.968,2.959 19.418,5.000 19.905 C 5.280 19.972,5.712 19.978,11.540 19.991 C 16.074 20.001,17.878 19.993,18.140 19.959 C 19.410 19.797,20.481 19.274,21.378 18.378 C 22.499 17.256,23.063 15.801,22.986 14.227 C 22.926 13.003,22.518 11.957,21.718 10.978 C 21.303 10.470,20.806 10.058,20.170 9.696 L 19.866 9.522 19.755 9.071 C 18.991 5.960,16.378 3.577,13.210 3.102 C 12.705 3.026,11.651 2.993,11.207 3.040 M12.606 5.042 C 14.012 5.184,15.210 5.758,16.222 6.775 C 16.742 7.298,16.983 7.617,17.284 8.180 C 17.625 8.820,17.803 9.365,17.942 10.200 C 17.977 10.409,18.033 10.638,18.067 10.709 C 18.157 10.899,18.399 11.099,18.656 11.195 C 19.526 11.521,20.227 12.136,20.617 12.917 C 21.312 14.308,21.030 15.960,19.915 17.023 C 19.456 17.459,18.976 17.732,18.360 17.906 C 18.113 17.976,17.793 17.980,11.780 17.980 L 5.460 17.980 5.160 17.886 C 4.178 17.580,3.404 16.808,3.130 15.863 C 2.733 14.492,3.318 13.062,4.560 12.368 C 4.681 12.300,4.949 12.190,5.155 12.123 C 5.836 11.903,5.954 11.739,6.004 10.940 C 6.048 10.230,6.072 10.037,6.167 9.626 C 6.412 8.562,6.938 7.615,7.731 6.805 C 9.018 5.493,10.776 4.857,12.606 5.042 " stroke="none" fill-rule="evenodd" fill="black"></path></svg>