<svg width="24" height="24" viewBox="0 0 24 24" fill="none" xmlns="http://www.w3.org/2000/svg"><path d="M11.300 1.045 C 9.210 1.241,7.256 2.442,6.099 4.241 C 5.842 4.640,5.510 5.338,5.367 5.777 L 5.251 6.134 4.856 6.260 C 2.808 6.913,1.377 8.607,1.054 10.760 C 0.979 11.258,0.999 12.042,1.098 12.550 C 1.343 13.798,2.064 14.989,3.052 15.781 C 3.811 16.388,4.264 16.437,4.697 15.958 C 4.934 15.696,5.053 15.400,5.033 15.124 C 5.011 14.827,4.926 14.710,4.462 14.341 C 3.728 13.756,3.329 13.172,3.112 12.364 C 2.993 11.920,2.992 11.064,3.110 10.614 C 3.399 9.510,4.276 8.566,5.359 8.194 C 5.480 8.152,5.784 8.082,6.035 8.037 C 6.530 7.950,6.603 7.923,6.774 7.765 C 6.940 7.611,6.988 7.498,7.119 6.942 C 7.261 6.347,7.420 5.921,7.641 5.542 C 8.383 4.275,9.639 3.363,11.001 3.102 C 12.739 2.770,14.426 3.309,15.642 4.585 C 16.288 5.262,16.639 5.932,16.882 6.952 C 17.013 7.498,17.061 7.612,17.226 7.765 C 17.397 7.923,17.470 7.950,17.965 8.037 C 18.216 8.082,18.520 8.152,18.641 8.194 C 19.724 8.566,20.601 9.510,20.890 10.614 C 21.008 11.064,21.007 11.920,20.888 12.364 C 20.671 13.172,20.272 13.756,19.538 14.341 C 19.074 14.710,18.989 14.827,18.967 15.124 C 18.947 15.408,19.070 15.704,19.324 15.980 C 19.746 16.438,20.196 16.383,20.948 15.781 C 22.892 14.223,23.528 11.568,22.513 9.249 C 22.026 8.138,21.046 7.123,19.930 6.576 C 19.715 6.471,19.362 6.328,19.144 6.259 L 18.749 6.134 18.633 5.777 C 18.490 5.338,18.158 4.640,17.901 4.241 C 16.470 2.014,13.954 0.796,11.300 1.045 M8.717 11.996 C 8.544 12.052,8.401 12.164,8.281 12.338 C 8.154 12.524,5.305 19.608,5.239 19.906 C 5.142 20.339,5.388 20.740,5.859 20.916 C 6.203 21.045,6.408 21.063,6.619 20.982 C 6.999 20.837,6.964 20.911,8.580 16.876 C 10.039 13.232,10.060 13.176,10.060 12.897 C 10.060 12.647,10.047 12.596,9.945 12.463 C 9.812 12.288,9.526 12.095,9.316 12.039 C 9.090 11.978,8.830 11.960,8.717 11.996 M16.717 11.996 C 16.544 12.052,16.401 12.164,16.281 12.338 C 16.154 12.524,13.305 19.608,13.239 19.906 C 13.142 20.339,13.388 20.740,13.859 20.916 C 14.203 21.045,14.408 21.063,14.619 20.982 C 14.999 20.837,14.964 20.911,16.580 16.876 C 18.039 13.232,18.060 13.176,18.060 12.897 C 18.060 12.647,18.047 12.596,17.945 12.463 C 17.812 12.288,17.526 12.095,17.316 12.039 C 17.090 11.978,16.830 11.960,16.717 11.996 M11.917 13.996 C 11.744 14.052,11.601 14.164,11.481 14.338 C 11.354 14.524,8.505 21.608,8.439 21.906 C 8.342 22.339,8.588 22.740,9.059 22.916 C 9.403 23.045,9.608 23.063,9.819 22.982 C 10.199 22.837,10.164 22.911,11.780 18.876 C 13.239 15.232,13.260 15.176,13.260 14.897 C 13.260 14.647,13.247 14.596,13.145 14.463 C 13.012 14.288,12.726 14.095,12.516 14.039 C 12.290 13.978,12.030 13.960,11.917 13.996 " stroke="none" fill-rule="evenodd" fill="black"></path></svg>