<svg width="24" height="24" viewBox="0 0 24 24" fill="none" xmlns="http://www.w3.org/2000/svg"><path d="M8.840 3.025 C 6.745 3.217,4.948 4.050,3.499 5.499 C 0.981 8.016,0.301 11.725,1.756 15.000 C 2.571 16.833,4.170 18.432,6.000 19.243 C 6.870 19.629,7.769 19.869,8.680 19.959 C 9.003 19.992,10.351 20.001,13.220 19.990 C 17.662 19.973,17.457 19.983,18.300 19.739 C 20.690 19.048,22.445 17.084,22.910 14.580 C 23.002 14.085,23.002 12.915,22.910 12.420 C 22.364 9.479,20.025 7.307,17.120 7.044 C 16.788 7.013,16.732 6.997,16.673 6.915 C 16.635 6.863,16.472 6.640,16.310 6.420 C 15.016 4.667,12.945 3.419,10.800 3.101 C 10.383 3.040,9.186 2.993,8.840 3.025 M10.180 5.041 C 11.721 5.213,12.987 5.822,14.083 6.917 C 14.570 7.405,14.813 7.726,15.286 8.511 C 15.376 8.660,15.499 8.798,15.603 8.866 C 15.766 8.974,15.798 8.980,16.436 9.006 C 16.801 9.021,17.243 9.064,17.418 9.100 C 19.659 9.568,21.196 11.666,20.965 13.942 C 20.754 16.023,19.177 17.660,17.096 17.959 C 16.871 17.992,15.620 18.000,12.740 17.989 C 8.342 17.973,8.542 17.983,7.700 17.739 C 4.745 16.885,2.771 14.032,3.034 10.996 C 3.152 9.635,3.590 8.519,4.419 7.462 C 5.765 5.745,8.016 4.799,10.180 5.041 " stroke="none" fill-rule="evenodd" fill="black"></path></svg>