<svg width="24" height="24" viewBox="0 0 24 24" fill="none" xmlns="http://www.w3.org/2000/svg"><path d="M16.380 2.043 C 13.827 2.295,11.671 4.228,11.138 6.743 L 11.070 7.065 10.705 7.134 C 9.889 7.288,8.952 7.699,8.201 8.231 C 7.721 8.572,7.050 9.239,6.740 9.684 L 6.500 10.029 6.273 10.054 C 3.754 10.327,1.671 12.260,1.114 14.840 C 0.984 15.446,0.984 16.554,1.114 17.160 C 1.636 19.578,3.381 21.331,5.820 21.886 L 6.220 21.977 12.000 21.991 C 16.201 22.002,17.878 21.993,18.140 21.959 C 19.385 21.800,20.456 21.285,21.340 20.420 C 23.306 18.495,23.553 15.446,21.920 13.243 C 21.788 13.065,21.558 12.796,21.410 12.646 L 21.140 12.372 21.450 12.023 C 22.171 11.209,22.659 10.247,22.887 9.188 C 23.016 8.593,23.015 7.442,22.885 6.840 C 22.625 5.630,22.109 4.660,21.269 3.805 C 19.978 2.490,18.230 1.860,16.380 2.043 M17.605 4.058 C 18.855 4.247,19.964 5.042,20.536 6.160 C 20.768 6.614,20.871 6.930,20.946 7.416 C 21.069 8.220,20.948 8.995,20.582 9.740 C 20.284 10.347,19.907 10.804,19.353 11.233 C 19.296 11.277,19.217 11.269,18.873 11.185 C 18.646 11.129,18.361 11.072,18.240 11.058 L 18.020 11.033 17.846 10.660 C 17.266 9.417,16.171 8.321,14.860 7.672 C 14.352 7.420,14.124 7.335,13.609 7.206 C 13.362 7.143,13.148 7.081,13.134 7.067 C 13.093 7.027,13.274 6.529,13.464 6.160 C 14.029 5.058,15.142 4.251,16.358 4.061 C 16.816 3.990,17.144 3.989,17.605 4.058 M12.680 9.058 C 13.173 9.133,13.536 9.247,13.974 9.463 C 15.097 10.019,15.871 10.917,16.296 12.157 C 16.396 12.452,16.477 12.615,16.569 12.711 C 16.788 12.939,16.888 12.970,17.500 13.004 C 18.160 13.040,18.580 13.126,18.789 13.269 C 18.872 13.326,19.018 13.397,19.114 13.426 C 19.458 13.530,20.077 14.065,20.396 14.533 C 20.595 14.824,20.826 15.344,20.906 15.680 C 21.004 16.091,21.004 16.909,20.906 17.320 C 20.760 17.933,20.388 18.571,19.915 19.023 C 19.466 19.450,19.034 19.701,18.420 19.892 L 18.140 19.979 12.391 19.990 C 6.696 20.002,6.638 20.001,6.232 19.918 C 4.565 19.579,3.309 18.267,3.058 16.605 C 2.986 16.121,2.986 15.879,3.058 15.395 C 3.247 14.145,4.042 13.036,5.160 12.464 C 5.765 12.155,6.131 12.061,6.958 12.003 C 7.648 11.955,7.732 11.898,8.142 11.200 C 8.594 10.428,9.237 9.846,10.086 9.442 C 10.917 9.046,11.768 8.920,12.680 9.058 " stroke="none" fill-rule="evenodd" fill="black"></path></svg>