<svg width="24" height="24" viewBox="0 0 24 24" fill="none" xmlns="http://www.w3.org/2000/svg"><path d="M14.680 1.264 C 13.632 1.574,12.727 2.112,11.935 2.898 C 11.458 3.372,11.163 3.748,10.864 4.264 C 10.151 5.493,9.862 6.982,10.066 8.380 C 10.170 9.100,10.181 9.054,9.900 9.089 C 9.768 9.106,9.480 9.164,9.260 9.219 C 7.358 9.695,5.580 11.123,4.757 12.838 L 4.587 13.192 4.197 13.339 C 3.513 13.598,2.943 13.979,2.415 14.529 C 1.716 15.258,1.307 16.024,1.096 17.000 C 0.993 17.475,0.992 18.488,1.093 18.960 C 1.523 20.968,2.959 22.418,5.000 22.905 C 5.280 22.972,5.712 22.978,11.540 22.991 C 16.074 23.001,17.878 22.993,18.140 22.959 C 19.384 22.801,20.456 22.285,21.340 21.420 C 22.959 19.835,23.435 17.495,22.570 15.376 C 22.164 14.381,21.365 13.448,20.376 12.811 C 20.304 12.765,20.304 12.760,20.370 12.719 C 20.535 12.618,20.971 12.221,21.273 11.898 C 21.878 11.251,22.354 10.452,22.643 9.600 C 22.942 8.717,22.900 8.310,22.483 8.042 C 22.179 7.847,21.927 7.811,21.455 7.897 C 20.620 8.047,19.966 8.023,19.248 7.815 C 17.517 7.314,16.256 5.821,16.040 4.018 C 15.984 3.557,16.010 3.082,16.123 2.484 C 16.169 2.239,16.191 2.009,16.176 1.924 C 16.116 1.588,15.907 1.372,15.507 1.234 C 15.233 1.139,15.086 1.145,14.680 1.264 M4.614 2.057 C 4.377 2.131,4.212 2.261,4.109 2.453 C 4.029 2.603,4.019 2.689,4.007 3.310 L 3.993 4.000 3.403 4.000 C 2.577 4.000,2.299 4.097,2.109 4.453 C 2.035 4.592,2.020 4.684,2.020 5.000 C 2.020 5.331,2.033 5.403,2.120 5.558 C 2.230 5.755,2.414 5.898,2.635 5.959 C 2.715 5.981,3.054 6.000,3.390 6.000 L 4.000 6.000 4.000 6.610 C 4.000 6.946,4.019 7.285,4.041 7.365 C 4.148 7.750,4.437 7.962,4.896 7.991 C 5.381 8.022,5.699 7.882,5.880 7.558 C 5.974 7.391,5.981 7.338,5.994 6.690 L 6.008 6.000 6.614 6.000 C 6.947 6.000,7.285 5.981,7.365 5.959 C 7.586 5.898,7.770 5.755,7.880 5.558 C 7.967 5.402,7.980 5.332,7.979 5.000 C 7.978 4.687,7.962 4.591,7.890 4.453 C 7.702 4.098,7.423 4.000,6.598 4.000 L 6.008 4.000 5.993 3.310 C 5.976 2.541,5.930 2.378,5.678 2.199 C 5.414 2.010,4.957 1.950,4.614 2.057 M14.100 4.580 C 14.340 6.111,15.226 7.613,16.460 8.580 C 17.501 9.396,18.610 9.836,19.990 9.982 L 20.239 10.008 20.110 10.192 C 19.910 10.475,19.408 10.957,19.067 11.193 C 18.468 11.606,17.662 11.910,16.980 11.978 L 16.740 12.002 16.573 11.771 C 15.709 10.573,14.133 9.539,12.646 9.197 L 12.293 9.116 12.228 8.908 C 11.886 7.819,11.951 6.611,12.403 5.645 C 12.712 4.984,13.271 4.280,13.780 3.910 L 13.980 3.764 14.012 3.992 C 14.029 4.117,14.069 4.382,14.100 4.580 M11.627 11.058 C 12.256 11.093,13.151 11.429,13.823 11.882 C 14.307 12.209,14.805 12.714,15.123 13.200 C 15.275 13.431,15.442 13.685,15.495 13.765 C 15.725 14.109,16.028 14.220,16.500 14.134 C 17.359 13.978,17.851 13.974,18.418 14.119 C 19.153 14.307,19.947 14.875,20.396 15.533 C 20.595 15.824,20.826 16.344,20.906 16.680 C 21.004 17.091,21.004 17.909,20.906 18.320 C 20.613 19.547,19.628 20.548,18.360 20.906 C 18.113 20.976,17.793 20.980,11.780 20.980 L 5.460 20.980 5.160 20.886 C 4.180 20.580,3.404 19.808,3.131 18.865 C 2.643 17.179,3.634 15.480,5.342 15.078 C 5.760 14.980,6.001 14.852,6.113 14.670 C 6.157 14.599,6.277 14.345,6.378 14.107 C 6.693 13.368,6.990 12.932,7.535 12.409 C 8.363 11.615,9.262 11.195,10.500 11.025 C 10.611 11.010,10.901 11.018,11.627 11.058 " stroke="none" fill-rule="evenodd" fill="black"></path></svg>