<svg width="24" height="24" viewBox="0 0 24 24" fill="none" xmlns="http://www.w3.org/2000/svg"><path d="M11.300 1.045 C 9.210 1.241,7.256 2.442,6.099 4.241 C 5.842 4.640,5.510 5.338,5.367 5.777 L 5.251 6.134 4.856 6.260 C 3.082 6.825,1.734 8.206,1.221 9.980 C 0.842 11.289,0.967 12.735,1.562 13.922 C 2.089 14.975,3.011 15.908,4.020 16.411 C 4.716 16.757,5.167 16.840,5.482 16.679 C 5.780 16.527,6.013 16.075,6.018 15.640 C 6.022 15.217,5.845 15.023,5.207 14.749 C 4.744 14.550,4.475 14.381,4.157 14.088 C 3.177 13.185,2.792 11.889,3.119 10.593 C 3.346 9.690,4.062 8.810,4.919 8.379 C 5.252 8.212,5.534 8.126,6.035 8.037 C 6.530 7.950,6.603 7.923,6.774 7.765 C 6.940 7.611,6.988 7.498,7.119 6.942 C 7.261 6.347,7.420 5.921,7.641 5.542 C 8.383 4.275,9.639 3.363,11.001 3.102 C 12.739 2.770,14.426 3.309,15.642 4.585 C 16.288 5.262,16.639 5.932,16.882 6.952 C 17.013 7.498,17.061 7.612,17.226 7.765 C 17.397 7.923,17.470 7.950,17.965 8.037 C 18.466 8.126,18.748 8.212,19.081 8.379 C 19.938 8.810,20.654 9.690,20.881 10.593 C 21.208 11.889,20.823 13.185,19.843 14.088 C 19.525 14.381,19.256 14.550,18.793 14.749 C 18.354 14.938,18.147 15.083,18.056 15.268 C 17.909 15.564,17.993 16.093,18.242 16.436 C 18.492 16.781,18.878 16.848,19.442 16.642 C 20.530 16.244,21.471 15.481,22.129 14.460 C 22.672 13.618,22.941 12.764,22.986 11.740 C 23.052 10.196,22.486 8.728,21.407 7.647 C 20.751 6.990,20.002 6.531,19.144 6.259 L 18.749 6.134 18.633 5.777 C 18.490 5.338,18.158 4.640,17.901 4.241 C 16.470 2.014,13.954 0.796,11.300 1.045 M12.620 9.026 C 12.554 9.061,12.448 9.137,12.385 9.195 C 12.252 9.317,8.145 15.457,8.035 15.698 C 7.944 15.898,7.939 16.204,8.024 16.382 C 8.059 16.456,8.168 16.591,8.266 16.681 C 8.604 16.992,8.480 16.978,10.930 17.000 L 13.120 17.020 11.614 19.278 C 10.786 20.521,10.076 21.610,10.035 21.698 C 9.944 21.898,9.939 22.204,10.024 22.382 C 10.111 22.567,10.402 22.826,10.652 22.942 C 11.029 23.118,11.385 23.052,11.665 22.754 C 11.874 22.531,15.885 16.479,15.950 16.288 C 16.073 15.929,15.940 15.385,15.686 15.204 C 15.426 15.019,15.448 15.021,13.110 15.000 L 10.880 14.980 12.386 12.722 C 13.214 11.479,13.924 10.390,13.965 10.302 C 14.056 10.102,14.061 9.796,13.976 9.618 C 13.889 9.433,13.598 9.174,13.348 9.058 C 13.105 8.944,12.801 8.931,12.620 9.026 " stroke="none" fill-rule="evenodd" fill="black"></path></svg>