<svg width="24" height="24" viewBox="0 0 24 24" fill="none" xmlns="http://www.w3.org/2000/svg"><path d="M11.300 1.045 C 9.210 1.241,7.256 2.442,6.099 4.241 C 5.842 4.640,5.510 5.338,5.367 5.777 L 5.251 6.134 4.856 6.260 C 2.808 6.913,1.377 8.607,1.054 10.760 C 0.979 11.258,0.999 12.042,1.098 12.550 C 1.343 13.798,2.064 14.989,3.052 15.781 C 3.811 16.388,4.264 16.437,4.697 15.958 C 4.934 15.696,5.053 15.400,5.033 15.124 C 5.011 14.827,4.926 14.710,4.462 14.341 C 3.728 13.756,3.329 13.172,3.112 12.364 C 2.993 11.920,2.992 11.064,3.110 10.614 C 3.399 9.510,4.276 8.566,5.359 8.194 C 5.480 8.152,5.784 8.082,6.035 8.037 C 6.530 7.950,6.603 7.923,6.774 7.765 C 6.940 7.611,6.988 7.498,7.119 6.942 C 7.261 6.347,7.420 5.921,7.641 5.542 C 8.383 4.275,9.639 3.363,11.001 3.102 C 12.739 2.770,14.426 3.309,15.642 4.585 C 16.288 5.262,16.639 5.932,16.882 6.952 C 17.013 7.498,17.061 7.612,17.226 7.765 C 17.397 7.923,17.470 7.950,17.965 8.037 C 18.216 8.082,18.520 8.152,18.641 8.194 C 19.724 8.566,20.601 9.510,20.890 10.614 C 21.008 11.064,21.007 11.920,20.888 12.364 C 20.671 13.172,20.272 13.756,19.538 14.341 C 19.074 14.710,18.989 14.827,18.967 15.124 C 18.947 15.408,19.070 15.704,19.324 15.980 C 19.746 16.438,20.196 16.383,20.948 15.781 C 22.892 14.223,23.528 11.568,22.513 9.249 C 22.026 8.138,21.046 7.123,19.930 6.576 C 19.715 6.471,19.362 6.328,19.144 6.259 L 18.749 6.134 18.633 5.777 C 18.490 5.338,18.158 4.640,17.901 4.241 C 16.470 2.014,13.954 0.796,11.300 1.045 M7.614 11.057 C 7.377 11.131,7.212 11.261,7.109 11.453 C 7.023 11.614,7.020 11.665,7.008 12.908 C 7.000 13.720,7.011 14.254,7.038 14.352 C 7.144 14.747,7.432 14.961,7.896 14.991 C 8.381 15.022,8.699 14.882,8.880 14.558 L 8.980 14.380 8.980 13.000 C 8.980 11.650,8.978 11.616,8.891 11.453 C 8.842 11.362,8.746 11.247,8.678 11.199 C 8.414 11.010,7.957 10.950,7.614 11.057 M15.614 11.057 C 15.377 11.131,15.212 11.261,15.109 11.453 C 15.023 11.614,15.020 11.665,15.008 12.908 C 15.000 13.720,15.011 14.254,15.038 14.352 C 15.144 14.747,15.432 14.961,15.896 14.991 C 16.381 15.022,16.699 14.882,16.880 14.558 L 16.980 14.380 16.980 13.000 C 16.980 11.650,16.978 11.616,16.891 11.453 C 16.842 11.362,16.746 11.247,16.678 11.199 C 16.414 11.010,15.957 10.950,15.614 11.057 M11.614 13.057 C 11.377 13.131,11.212 13.261,11.109 13.453 C 11.023 13.614,11.020 13.665,11.008 14.908 C 11.000 15.720,11.011 16.254,11.038 16.352 C 11.144 16.747,11.432 16.961,11.896 16.991 C 12.381 17.022,12.699 16.882,12.880 16.558 L 12.980 16.380 12.980 15.000 C 12.980 13.650,12.978 13.616,12.891 13.453 C 12.842 13.362,12.746 13.247,12.678 13.199 C 12.414 13.010,11.957 12.950,11.614 13.057 M7.614 17.057 C 7.377 17.131,7.212 17.261,7.109 17.453 C 7.023 17.614,7.020 17.665,7.008 18.908 C 7.000 19.720,7.011 20.254,7.038 20.352 C 7.144 20.747,7.432 20.961,7.896 20.991 C 8.381 21.022,8.699 20.882,8.880 20.558 L 8.980 20.380 8.980 19.000 C 8.980 17.650,8.978 17.616,8.891 17.453 C 8.842 17.362,8.746 17.247,8.678 17.199 C 8.414 17.010,7.957 16.950,7.614 17.057 M15.614 17.057 C 15.377 17.131,15.212 17.261,15.109 17.453 C 15.023 17.614,15.020 17.665,15.008 18.908 C 15.000 19.720,15.011 20.254,15.038 20.352 C 15.144 20.747,15.432 20.961,15.896 20.991 C 16.381 21.022,16.699 20.882,16.880 20.558 L 16.980 20.380 16.980 19.000 C 16.980 17.650,16.978 17.616,16.891 17.453 C 16.842 17.362,16.746 17.247,16.678 17.199 C 16.414 17.010,15.957 16.950,15.614 17.057 M11.614 19.057 C 11.377 19.131,11.212 19.261,11.109 19.453 C 11.023 19.614,11.020 19.665,11.008 20.908 C 11.000 21.720,11.011 22.254,11.038 22.352 C 11.144 22.747,11.432 22.961,11.896 22.991 C 12.381 23.022,12.699 22.882,12.880 22.558 L 12.980 22.380 12.980 21.000 C 12.980 19.650,12.978 19.616,12.891 19.453 C 12.842 19.362,12.746 19.247,12.678 19.199 C 12.414 19.010,11.957 18.950,11.614 19.057 " stroke="none" fill-rule="evenodd" fill="black"></path></svg>