<svg width="24" height="24" viewBox="0 0 24 24" fill="none" xmlns="http://www.w3.org/2000/svg"><path d="M11.267 1.042 C 9.834 1.209,8.481 1.858,7.438 2.880 C 7.224 3.089,6.923 3.433,6.767 3.644 L 6.485 4.028 6.254 4.055 C 3.723 4.353,1.670 6.264,1.114 8.840 C 0.984 9.446,0.984 10.554,1.114 11.160 C 1.636 13.578,3.381 15.331,5.820 15.886 L 6.220 15.977 12.000 15.991 C 16.201 16.002,17.878 15.993,18.140 15.959 C 19.385 15.800,20.456 15.285,21.340 14.420 C 22.959 12.835,23.435 10.495,22.570 8.376 C 21.861 6.640,20.079 5.270,18.260 5.061 L 18.020 5.034 17.846 4.661 C 17.188 3.248,15.899 2.065,14.322 1.424 C 13.511 1.094,12.213 0.932,11.267 1.042 M12.680 3.058 C 13.173 3.133,13.536 3.247,13.974 3.463 C 15.097 4.019,15.871 4.917,16.296 6.157 C 16.396 6.452,16.477 6.615,16.569 6.711 C 16.789 6.940,16.887 6.970,17.520 7.005 C 17.861 7.024,18.226 7.070,18.405 7.116 C 19.154 7.308,19.944 7.871,20.396 8.533 C 20.595 8.824,20.826 9.344,20.906 9.680 C 21.004 10.091,21.004 10.909,20.906 11.320 C 20.760 11.933,20.388 12.571,19.915 13.023 C 19.466 13.450,19.034 13.701,18.420 13.892 L 18.140 13.979 12.391 13.990 C 6.696 14.002,6.638 14.001,6.232 13.918 C 4.565 13.579,3.309 12.267,3.058 10.605 C 2.986 10.121,2.986 9.879,3.058 9.395 C 3.247 8.145,4.042 7.036,5.160 6.464 C 5.765 6.155,6.131 6.061,6.958 6.003 C 7.648 5.955,7.732 5.898,8.142 5.200 C 8.594 4.428,9.237 3.846,10.086 3.442 C 10.917 3.046,11.768 2.920,12.680 3.058 M4.614 17.057 C 4.377 17.131,4.212 17.261,4.109 17.453 C 4.035 17.592,4.020 17.684,4.020 18.000 C 4.020 18.331,4.033 18.403,4.120 18.558 C 4.230 18.755,4.414 18.898,4.635 18.959 C 4.826 19.012,7.174 19.012,7.365 18.959 C 7.586 18.898,7.770 18.755,7.880 18.558 C 7.967 18.402,7.980 18.332,7.979 18.000 C 7.978 17.687,7.962 17.591,7.890 17.453 C 7.786 17.256,7.623 17.131,7.371 17.055 C 7.117 16.979,4.859 16.981,4.614 17.057 M9.614 17.057 C 9.377 17.131,9.212 17.261,9.109 17.453 C 9.035 17.592,9.020 17.684,9.020 18.000 C 9.020 18.331,9.033 18.403,9.120 18.558 C 9.230 18.755,9.414 18.898,9.635 18.959 C 9.834 19.014,19.166 19.014,19.365 18.959 C 19.586 18.898,19.770 18.755,19.880 18.558 C 19.967 18.402,19.980 18.332,19.979 18.000 C 19.978 17.567,19.898 17.355,19.678 17.199 C 19.392 16.995,19.526 17.000,14.484 17.003 C 10.740 17.005,9.746 17.016,9.614 17.057 M5.614 20.057 C 5.377 20.131,5.212 20.261,5.109 20.453 C 5.035 20.592,5.020 20.684,5.020 21.000 C 5.020 21.331,5.033 21.403,5.120 21.558 C 5.230 21.755,5.414 21.898,5.635 21.959 C 5.833 22.014,13.167 22.014,13.365 21.959 C 13.586 21.898,13.770 21.755,13.880 21.558 C 13.967 21.402,13.980 21.332,13.979 21.000 C 13.978 20.567,13.898 20.355,13.678 20.199 C 13.395 19.997,13.449 20.000,9.484 20.003 C 6.561 20.005,5.745 20.016,5.614 20.057 M15.614 20.057 C 15.377 20.131,15.212 20.261,15.109 20.453 C 15.035 20.592,15.020 20.684,15.020 21.000 C 15.020 21.331,15.033 21.403,15.120 21.558 C 15.230 21.755,15.414 21.898,15.635 21.959 C 15.718 21.982,16.305 22.000,17.000 22.000 C 17.695 22.000,18.282 21.982,18.365 21.959 C 18.586 21.898,18.770 21.755,18.880 21.558 C 18.967 21.402,18.980 21.332,18.979 21.000 C 18.978 20.687,18.962 20.591,18.890 20.453 C 18.786 20.256,18.623 20.131,18.371 20.055 C 18.117 19.979,15.859 19.981,15.614 20.057 " stroke="none" fill-rule="evenodd" fill="black"></path></svg>