<svg width="24" height="24" viewBox="0 0 24 24" fill="none" xmlns="http://www.w3.org/2000/svg"><path d="M11.267 1.042 C 9.834 1.209,8.481 1.858,7.438 2.880 C 7.224 3.089,6.923 3.433,6.767 3.644 L 6.485 4.028 6.254 4.055 C 3.723 4.353,1.670 6.264,1.114 8.840 C 0.984 9.446,0.984 10.554,1.114 11.160 C 1.636 13.578,3.381 15.331,5.820 15.886 L 6.220 15.977 12.000 15.991 C 16.201 16.002,17.878 15.993,18.140 15.959 C 19.385 15.800,20.456 15.285,21.340 14.420 C 22.959 12.835,23.435 10.495,22.570 8.376 C 21.861 6.640,20.079 5.270,18.260 5.061 L 18.020 5.034 17.846 4.661 C 17.188 3.248,15.899 2.065,14.322 1.424 C 13.511 1.094,12.213 0.932,11.267 1.042 M12.680 3.058 C 13.173 3.133,13.536 3.247,13.974 3.463 C 15.097 4.019,15.871 4.917,16.296 6.157 C 16.396 6.452,16.477 6.615,16.569 6.711 C 16.789 6.940,16.887 6.970,17.520 7.005 C 17.861 7.024,18.226 7.070,18.405 7.116 C 19.154 7.308,19.944 7.871,20.396 8.533 C 20.595 8.824,20.826 9.344,20.906 9.680 C 21.004 10.091,21.004 10.909,20.906 11.320 C 20.760 11.933,20.388 12.571,19.915 13.023 C 19.466 13.450,19.034 13.701,18.420 13.892 L 18.140 13.979 12.391 13.990 C 6.696 14.002,6.638 14.001,6.232 13.918 C 4.565 13.579,3.309 12.267,3.058 10.605 C 2.986 10.121,2.986 9.879,3.058 9.395 C 3.247 8.145,4.042 7.036,5.160 6.464 C 5.765 6.155,6.131 6.061,6.958 6.003 C 7.648 5.955,7.732 5.898,8.142 5.200 C 8.594 4.428,9.237 3.846,10.086 3.442 C 10.917 3.046,11.768 2.920,12.680 3.058 M7.545 17.579 C 7.460 17.609,7.329 17.693,7.254 17.766 C 7.015 17.997,7.000 18.116,7.000 19.757 C 7.000 20.614,7.017 21.280,7.041 21.365 C 7.148 21.750,7.437 21.962,7.896 21.991 C 8.381 22.022,8.699 21.882,8.880 21.558 L 8.980 21.380 8.992 19.848 C 9.006 18.084,8.995 17.993,8.723 17.748 C 8.637 17.669,8.497 17.586,8.413 17.563 C 8.200 17.504,7.731 17.513,7.545 17.579 M15.545 17.579 C 15.460 17.609,15.329 17.693,15.254 17.766 C 15.015 17.997,15.000 18.116,15.000 19.757 C 15.000 20.614,15.017 21.280,15.041 21.365 C 15.148 21.750,15.437 21.962,15.896 21.991 C 16.381 22.022,16.699 21.882,16.880 21.558 L 16.980 21.380 16.992 19.848 C 17.006 18.084,16.995 17.993,16.723 17.748 C 16.637 17.669,16.497 17.586,16.413 17.563 C 16.200 17.504,15.731 17.513,15.545 17.579 M11.545 18.579 C 11.460 18.609,11.329 18.693,11.254 18.766 C 11.015 18.997,11.000 19.116,11.000 20.757 C 11.000 21.614,11.017 22.280,11.041 22.365 C 11.148 22.750,11.437 22.962,11.896 22.991 C 12.381 23.022,12.699 22.882,12.880 22.558 L 12.980 22.380 12.992 20.848 C 13.006 19.084,12.995 18.993,12.723 18.748 C 12.637 18.669,12.497 18.586,12.413 18.563 C 12.200 18.504,11.731 18.513,11.545 18.579 " stroke="none" fill-rule="evenodd" fill="black"></path></svg>