<svg width="24" height="24" viewBox="0 0 24 24" fill="none" xmlns="http://www.w3.org/2000/svg"><path d="M11.300 4.045 C 9.210 4.241,7.256 5.442,6.099 7.241 C 5.842 7.640,5.510 8.338,5.367 8.777 L 5.251 9.134 4.856 9.260 C 3.083 9.825,1.733 11.206,1.221 12.979 C 0.670 14.885,1.184 16.918,2.573 18.333 C 3.443 19.220,4.496 19.756,5.729 19.941 C 6.059 19.991,7.036 20.000,12.000 20.000 C 18.363 20.000,18.246 20.004,19.001 19.784 C 19.694 19.583,20.199 19.333,20.763 18.915 C 23.125 17.164,23.695 13.914,22.072 11.456 C 21.400 10.439,20.328 9.634,19.144 9.259 L 18.749 9.134 18.633 8.777 C 18.490 8.338,18.158 7.640,17.901 7.241 C 16.470 5.014,13.954 3.796,11.300 4.045 M12.620 6.044 C 13.781 6.187,14.808 6.710,15.642 7.585 C 16.288 8.263,16.639 8.932,16.883 9.953 C 17.012 10.495,17.041 10.567,17.195 10.734 C 17.353 10.904,17.468 10.950,17.966 11.037 C 18.216 11.082,18.520 11.152,18.641 11.194 C 19.724 11.566,20.603 12.512,20.889 13.614 C 21.003 14.051,21.011 14.882,20.906 15.320 C 20.612 16.549,19.628 17.548,18.360 17.906 C 18.113 17.976,17.800 17.980,12.000 17.980 C 5.223 17.980,5.775 18.001,5.111 17.719 C 4.181 17.324,3.380 16.397,3.112 15.405 C 2.991 14.961,2.990 14.070,3.110 13.614 C 3.399 12.510,4.276 11.566,5.359 11.194 C 5.480 11.152,5.784 11.082,6.035 11.037 C 6.530 10.950,6.603 10.923,6.774 10.765 C 6.939 10.612,6.988 10.498,7.118 9.948 C 7.362 8.921,7.712 8.258,8.378 7.566 C 9.507 6.390,11.019 5.848,12.620 6.044 " stroke="none" fill-rule="evenodd" fill="black"></path></svg>