<svg width="24" height="24" viewBox="0 0 24 24" fill="none" xmlns="http://www.w3.org/2000/svg"><path d="M11.300 1.045 C 9.210 1.241,7.256 2.442,6.099 4.241 C 5.842 4.640,5.510 5.338,5.367 5.777 L 5.251 6.134 4.856 6.260 C 2.808 6.913,1.377 8.607,1.054 10.760 C 0.979 11.258,0.999 12.042,1.098 12.550 C 1.343 13.798,2.064 14.989,3.052 15.781 C 3.811 16.388,4.264 16.437,4.697 15.958 C 4.934 15.696,5.053 15.400,5.033 15.124 C 5.011 14.827,4.926 14.710,4.462 14.341 C 3.728 13.756,3.329 13.172,3.112 12.364 C 2.993 11.920,2.992 11.064,3.110 10.614 C 3.399 9.510,4.276 8.566,5.359 8.194 C 5.480 8.152,5.784 8.082,6.035 8.037 C 6.530 7.950,6.603 7.923,6.774 7.765 C 6.940 7.611,6.988 7.498,7.119 6.942 C 7.261 6.347,7.420 5.921,7.641 5.542 C 8.383 4.275,9.639 3.363,11.001 3.102 C 12.739 2.770,14.426 3.309,15.642 4.585 C 16.288 5.262,16.639 5.932,16.882 6.952 C 17.013 7.498,17.061 7.612,17.226 7.765 C 17.397 7.923,17.470 7.950,17.965 8.037 C 18.216 8.082,18.520 8.152,18.641 8.194 C 19.724 8.566,20.601 9.510,20.890 10.614 C 21.008 11.064,21.007 11.920,20.888 12.364 C 20.671 13.172,20.272 13.756,19.538 14.341 C 19.074 14.710,18.989 14.827,18.967 15.124 C 18.947 15.408,19.070 15.704,19.324 15.980 C 19.746 16.438,20.196 16.383,20.948 15.781 C 22.892 14.223,23.528 11.568,22.513 9.249 C 22.026 8.138,21.046 7.123,19.930 6.576 C 19.715 6.471,19.362 6.328,19.144 6.259 L 18.749 6.134 18.633 5.777 C 18.490 5.338,18.158 4.640,17.901 4.241 C 16.470 2.014,13.954 0.796,11.300 1.045 M7.614 14.055 C 7.220 14.184,7.039 14.437,7.009 14.900 C 6.978 15.381,7.119 15.699,7.442 15.880 C 7.597 15.967,7.669 15.980,8.000 15.980 C 8.312 15.980,8.408 15.964,8.540 15.894 C 8.866 15.718,9.000 15.459,9.000 15.000 C 9.000 14.357,8.713 14.048,8.083 14.016 C 7.893 14.006,7.718 14.021,7.614 14.055 M15.614 14.055 C 15.220 14.184,15.039 14.437,15.009 14.900 C 14.978 15.381,15.119 15.699,15.442 15.880 C 15.597 15.967,15.669 15.980,16.000 15.980 C 16.312 15.980,16.408 15.964,16.540 15.894 C 16.866 15.718,17.000 15.459,17.000 15.000 C 17.000 14.357,16.713 14.048,16.083 14.016 C 15.893 14.006,15.718 14.021,15.614 14.055 M11.614 16.055 C 11.220 16.184,11.039 16.437,11.009 16.900 C 10.978 17.381,11.119 17.699,11.442 17.880 C 11.597 17.967,11.669 17.980,12.000 17.980 C 12.312 17.980,12.408 17.964,12.540 17.894 C 12.866 17.718,13.000 17.459,13.000 17.000 C 13.000 16.357,12.713 16.048,12.083 16.016 C 11.893 16.006,11.718 16.021,11.614 16.055 M7.614 18.055 C 7.220 18.184,7.039 18.437,7.009 18.900 C 6.978 19.381,7.119 19.699,7.442 19.880 C 7.597 19.967,7.669 19.980,8.000 19.980 C 8.312 19.980,8.408 19.964,8.540 19.894 C 8.866 19.718,9.000 19.459,9.000 19.000 C 9.000 18.357,8.713 18.048,8.083 18.016 C 7.893 18.006,7.718 18.021,7.614 18.055 M15.614 18.055 C 15.220 18.184,15.039 18.437,15.009 18.900 C 14.978 19.381,15.119 19.699,15.442 19.880 C 15.597 19.967,15.669 19.980,16.000 19.980 C 16.312 19.980,16.408 19.964,16.540 19.894 C 16.866 19.718,17.000 19.459,17.000 19.000 C 17.000 18.357,16.713 18.048,16.083 18.016 C 15.893 18.006,15.718 18.021,15.614 18.055 M11.614 20.055 C 11.220 20.184,11.039 20.437,11.009 20.900 C 10.978 21.381,11.119 21.699,11.442 21.880 C 11.597 21.967,11.669 21.980,12.000 21.980 C 12.312 21.980,12.408 21.964,12.540 21.894 C 12.866 21.718,13.000 21.459,13.000 21.000 C 13.000 20.357,12.713 20.048,12.083 20.016 C 11.893 20.006,11.718 20.021,11.614 20.055 " stroke="none" fill-rule="evenodd" fill="black"></path></svg>