<svg width="24" height="24" viewBox="0 0 24 24" fill="none" xmlns="http://www.w3.org/2000/svg"><path d="M11.280 1.023 C 11.203 1.032,10.951 1.059,10.720 1.083 C 9.527 1.210,8.337 1.558,7.180 2.120 C 6.045 2.671,5.193 3.285,4.238 4.239 C 3.277 5.198,2.643 6.080,2.097 7.220 C 0.301 10.968,0.728 15.286,3.226 18.633 C 3.701 19.269,4.753 20.316,5.400 20.797 C 9.364 23.745,14.666 23.734,18.637 20.770 C 19.246 20.316,20.316 19.246,20.770 18.637 C 23.744 14.652,23.744 9.348,20.770 5.363 C 20.316 4.755,19.247 3.686,18.640 3.235 C 17.045 2.049,15.365 1.360,13.423 1.096 C 13.000 1.038,11.574 0.990,11.280 1.023 M13.320 3.101 C 15.883 3.488,18.124 4.931,19.560 7.120 C 19.863 7.583,20.303 8.479,20.492 9.020 C 20.838 10.013,20.977 10.865,20.977 12.000 C 20.977 13.493,20.720 14.621,20.080 15.940 C 19.375 17.394,18.311 18.607,16.927 19.532 C 16.138 20.060,14.876 20.588,13.908 20.797 C 11.266 21.366,8.479 20.708,6.370 19.019 C 4.857 17.807,3.722 16.029,3.267 14.160 C 3.081 13.397,3.023 12.888,3.023 12.000 C 3.023 10.507,3.280 9.379,3.920 8.060 C 4.971 5.891,6.877 4.221,9.160 3.466 C 9.865 3.233,10.432 3.118,11.340 3.024 C 11.662 2.991,12.911 3.039,13.320 3.101 M9.160 8.023 C 9.073 8.061,8.379 8.723,7.326 9.772 C 5.549 11.542,5.441 11.670,5.441 12.000 C 5.441 12.330,5.549 12.458,7.326 14.228 C 8.529 15.427,9.065 15.935,9.177 15.982 C 9.373 16.063,9.623 16.065,9.812 15.986 C 10.168 15.837,10.560 15.320,10.559 15.000 C 10.558 14.688,10.446 14.550,9.149 13.250 L 7.900 12.000 9.149 10.750 C 10.446 9.450,10.558 9.312,10.559 9.000 C 10.560 8.683,10.169 8.163,9.820 8.018 C 9.644 7.944,9.339 7.946,9.160 8.023 M14.171 8.019 C 13.826 8.169,13.440 8.688,13.441 9.000 C 13.442 9.312,13.554 9.450,14.851 10.750 L 16.100 12.000 14.851 13.250 C 13.554 14.550,13.442 14.688,13.441 15.000 C 13.440 15.320,13.832 15.837,14.188 15.986 C 14.377 16.065,14.627 16.063,14.823 15.982 C 14.935 15.935,15.471 15.427,16.674 14.228 C 18.451 12.458,18.559 12.330,18.559 12.000 C 18.559 11.670,18.451 11.542,16.674 9.772 C 15.524 8.625,14.932 8.064,14.831 8.022 C 14.648 7.946,14.343 7.944,14.171 8.019 " stroke="none" fill-rule="evenodd" fill="black"></path></svg>