<svg width="24" height="24" viewBox="0 0 24 24" fill="none" xmlns="http://www.w3.org/2000/svg"><path d="M11.280 1.023 C 11.203 1.032,10.951 1.059,10.720 1.083 C 9.527 1.210,8.337 1.558,7.180 2.120 C 6.045 2.671,5.193 3.285,4.238 4.239 C 3.277 5.198,2.643 6.080,2.097 7.220 C 0.301 10.968,0.728 15.286,3.226 18.633 C 3.701 19.269,4.753 20.316,5.400 20.797 C 9.364 23.745,14.666 23.734,18.637 20.770 C 19.246 20.316,20.316 19.246,20.770 18.637 C 23.744 14.652,23.744 9.348,20.770 5.363 C 20.316 4.755,19.247 3.686,18.640 3.235 C 17.045 2.049,15.365 1.360,13.423 1.096 C 13.000 1.038,11.574 0.990,11.280 1.023 M13.320 3.101 C 15.883 3.488,18.124 4.931,19.560 7.120 C 19.863 7.583,20.303 8.479,20.492 9.020 C 20.838 10.013,20.977 10.865,20.977 12.000 C 20.977 13.493,20.720 14.621,20.080 15.940 C 19.375 17.394,18.311 18.607,16.927 19.532 C 16.138 20.060,14.876 20.588,13.908 20.797 C 11.266 21.366,8.479 20.708,6.370 19.019 C 4.857 17.807,3.722 16.029,3.267 14.160 C 3.081 13.397,3.023 12.888,3.023 12.000 C 3.023 10.507,3.280 9.379,3.920 8.060 C 4.971 5.891,6.877 4.221,9.160 3.466 C 9.865 3.233,10.432 3.118,11.340 3.024 C 11.662 2.991,12.911 3.039,13.320 3.101 M9.620 6.046 C 9.387 6.166,6.154 9.409,6.039 9.637 C 5.986 9.744,5.951 9.889,5.951 10.000 C 5.951 10.111,5.986 10.256,6.039 10.363 C 6.163 10.610,9.390 13.837,9.637 13.961 C 9.990 14.137,10.355 14.048,10.701 13.701 C 11.048 13.354,11.137 12.989,10.960 12.637 C 10.901 12.521,10.452 12.039,9.647 11.230 L 8.423 10.000 9.647 8.770 C 10.452 7.961,10.901 7.479,10.960 7.363 C 11.137 7.011,11.048 6.646,10.701 6.299 C 10.361 5.959,9.967 5.867,9.620 6.046 M13.626 10.045 C 13.257 10.239,12.951 10.673,12.951 11.000 C 12.951 11.333,13.056 11.467,14.353 12.770 L 15.577 14.000 14.353 15.230 C 13.548 16.039,13.099 16.521,13.040 16.637 C 12.863 16.989,12.952 17.354,13.299 17.701 C 13.645 18.048,14.010 18.137,14.363 17.961 C 14.484 17.900,15.065 17.347,16.206 16.206 C 17.347 15.065,17.900 14.484,17.961 14.363 C 18.014 14.256,18.049 14.111,18.049 14.000 C 18.049 13.889,18.014 13.744,17.961 13.637 C 17.841 13.397,14.611 10.163,14.372 10.044 C 14.152 9.934,13.835 9.935,13.626 10.045 " stroke="none" fill-rule="evenodd" fill="black"></path></svg>