<svg width="24" height="24" viewBox="0 0 24 24" fill="none" xmlns="http://www.w3.org/2000/svg"><path d="M7.620 5.046 C 7.383 5.167,1.154 11.406,1.039 11.637 C 0.986 11.744,0.951 11.889,0.951 12.000 C 0.951 12.111,0.986 12.256,1.039 12.363 C 1.164 12.613,7.387 18.836,7.637 18.961 C 7.990 19.137,8.355 19.047,8.701 18.701 C 9.048 18.354,9.137 17.990,8.961 17.637 C 8.898 17.513,8.058 16.644,6.147 14.730 L 3.421 12.000 6.147 9.270 C 8.058 7.356,8.898 6.487,8.961 6.363 C 9.137 6.010,9.048 5.646,8.701 5.299 C 8.361 4.959,7.968 4.867,7.620 5.046 M15.626 5.045 C 15.420 5.154,15.146 5.433,15.038 5.644 C 14.924 5.867,14.924 6.132,15.039 6.363 C 15.102 6.487,15.942 7.356,17.853 9.270 L 20.579 12.000 17.853 14.730 C 15.942 16.644,15.102 17.513,15.039 17.637 C 14.863 17.990,14.952 18.354,15.299 18.701 C 15.645 19.047,16.010 19.137,16.363 18.961 C 16.613 18.836,22.836 12.613,22.961 12.363 C 23.014 12.256,23.049 12.111,23.049 12.000 C 23.049 11.889,23.014 11.744,22.961 11.637 C 22.840 11.394,16.614 5.164,16.372 5.044 C 16.152 4.934,15.834 4.935,15.626 5.045 " stroke="none" fill-rule="evenodd" fill="black"></path></svg>