<svg width="24" height="24" viewBox="0 0 24 24" fill="none" xmlns="http://www.w3.org/2000/svg"><path d="M4.920 2.041 C 4.152 2.092,3.672 2.205,3.180 2.451 C 2.089 2.996,1.357 3.961,1.124 5.160 C 1.013 5.729,1.000 6.455,1.000 12.000 C 1.000 18.358,1.006 18.526,1.245 19.320 C 1.577 20.422,2.578 21.423,3.680 21.755 C 4.485 21.998,4.567 22.000,12.000 22.000 C 19.433 22.000,19.515 21.998,20.320 21.755 C 21.422 21.423,22.423 20.422,22.755 19.320 C 22.994 18.526,23.000 18.358,23.000 12.000 C 23.000 5.642,22.994 5.474,22.755 4.680 C 22.424 3.581,21.465 2.622,20.320 2.246 C 19.635 2.021,19.900 2.028,12.340 2.019 C 8.512 2.014,5.173 2.024,4.920 2.041 M19.492 4.091 C 19.894 4.188,20.110 4.309,20.400 4.600 C 20.887 5.086,20.952 5.340,20.987 6.890 L 21.012 8.000 12.000 8.000 L 2.988 8.000 3.013 6.890 C 3.047 5.409,3.112 5.120,3.520 4.667 C 3.883 4.262,4.282 4.090,4.980 4.039 C 5.200 4.023,8.494 4.013,12.300 4.017 C 18.585 4.024,19.245 4.031,19.492 4.091 M20.989 14.110 C 20.972 18.564,20.975 18.493,20.752 18.952 C 20.626 19.211,20.190 19.638,19.918 19.768 C 19.463 19.987,19.707 19.980,12.000 19.980 C 4.304 19.980,4.541 19.986,4.082 19.771 C 3.812 19.643,3.377 19.217,3.248 18.952 C 3.025 18.493,3.028 18.564,3.011 14.110 L 2.995 10.000 12.000 10.000 L 21.005 10.000 20.989 14.110 M9.680 11.523 C 9.547 11.583,9.128 11.974,8.066 13.032 C 6.562 14.529,6.440 14.677,6.441 15.000 C 6.442 15.316,6.546 15.443,8.032 16.934 C 9.528 18.436,9.677 18.559,10.000 18.559 C 10.213 18.559,10.519 18.395,10.732 18.165 C 10.956 17.925,11.047 17.733,11.047 17.500 C 11.047 17.177,10.963 17.067,9.909 16.010 L 8.902 15.000 9.909 13.990 C 10.597 13.300,10.937 12.930,10.981 12.823 C 11.129 12.469,11.023 12.104,10.678 11.782 C 10.320 11.447,10.020 11.370,9.680 11.523 M13.691 11.519 C 13.462 11.622,13.142 11.929,13.038 12.143 C 12.937 12.353,12.929 12.609,13.019 12.823 C 13.063 12.930,13.403 13.300,14.091 13.990 L 15.098 15.000 14.091 16.010 C 13.037 17.067,12.953 17.177,12.953 17.500 C 12.953 17.733,13.044 17.925,13.268 18.165 C 13.481 18.395,13.787 18.559,14.000 18.559 C 14.323 18.559,14.472 18.436,15.968 16.934 C 17.454 15.443,17.558 15.316,17.559 15.000 C 17.560 14.677,17.438 14.529,15.934 13.032 C 14.443 11.547,14.315 11.442,14.000 11.442 C 13.923 11.442,13.784 11.476,13.691 11.519 " stroke="none" fill-rule="evenodd" fill="black"></path></svg>