<svg width="24" height="24" viewBox="0 0 24 24" fill="none" xmlns="http://www.w3.org/2000/svg"><path d="M5.920 2.041 C 5.151 2.092,4.672 2.205,4.180 2.451 C 3.089 2.996,2.357 3.961,2.124 5.160 C 2.013 5.729,2.000 6.455,2.000 12.000 C 2.000 18.358,2.006 18.526,2.245 19.320 C 2.577 20.422,3.578 21.423,4.680 21.755 C 5.474 21.994,5.642 22.000,12.000 22.000 C 18.358 22.000,18.526 21.994,19.320 21.755 C 20.422 21.423,21.423 20.422,21.755 19.320 C 21.994 18.526,22.000 18.358,22.000 12.000 C 22.000 5.642,21.994 5.474,21.755 4.680 C 21.424 3.581,20.465 2.622,19.320 2.246 C 18.644 2.024,18.800 2.029,12.340 2.019 C 9.062 2.014,6.173 2.024,5.920 2.041 M18.492 4.091 C 18.894 4.188,19.109 4.309,19.400 4.600 C 19.696 4.895,19.814 5.109,19.912 5.528 C 19.975 5.797,19.980 6.313,19.980 12.000 C 19.980 17.687,19.975 18.203,19.912 18.472 C 19.814 18.891,19.696 19.104,19.400 19.401 C 19.101 19.701,18.820 19.851,18.418 19.928 C 18.010 20.005,5.990 20.005,5.582 19.927 C 5.170 19.850,4.898 19.704,4.600 19.403 C 4.303 19.104,4.186 18.890,4.088 18.472 C 4.025 18.203,4.020 17.687,4.020 12.000 C 4.020 6.313,4.025 5.797,4.088 5.528 C 4.175 5.155,4.294 4.918,4.520 4.667 C 4.883 4.262,5.282 4.091,5.980 4.039 C 6.200 4.023,9.044 4.013,12.300 4.018 C 17.643 4.024,18.247 4.032,18.492 4.091 M9.620 6.046 C 9.387 6.166,6.154 9.409,6.039 9.637 C 5.986 9.744,5.951 9.889,5.951 10.000 C 5.951 10.111,5.986 10.256,6.039 10.363 C 6.163 10.610,9.390 13.837,9.637 13.961 C 9.990 14.137,10.355 14.048,10.701 13.701 C 11.048 13.354,11.137 12.989,10.960 12.637 C 10.901 12.521,10.452 12.039,9.647 11.230 L 8.423 10.000 9.647 8.770 C 10.452 7.961,10.901 7.479,10.960 7.363 C 11.137 7.011,11.048 6.646,10.701 6.299 C 10.361 5.959,9.967 5.867,9.620 6.046 M13.626 10.045 C 13.257 10.239,12.951 10.673,12.951 11.000 C 12.951 11.333,13.056 11.467,14.353 12.770 L 15.577 14.000 14.353 15.230 C 13.548 16.039,13.099 16.521,13.040 16.637 C 12.863 16.989,12.952 17.354,13.299 17.701 C 13.645 18.048,14.010 18.137,14.363 17.961 C 14.484 17.900,15.065 17.347,16.206 16.206 C 17.347 15.065,17.900 14.484,17.961 14.363 C 18.014 14.256,18.049 14.111,18.049 14.000 C 18.049 13.889,18.014 13.744,17.961 13.637 C 17.841 13.397,14.611 10.163,14.372 10.044 C 14.152 9.934,13.835 9.935,13.626 10.045 " stroke="none" fill-rule="evenodd" fill="black"></path></svg>