<svg width="24" height="24" viewBox="0 0 24 24" fill="none" xmlns="http://www.w3.org/2000/svg"><path d="M13.476 2.093 C 13.111 2.286,13.282 1.612,11.038 11.706 C 9.633 18.022,9.002 20.934,9.001 21.097 C 8.999 21.655,9.416 22.000,10.094 22.000 C 10.532 22.000,10.843 21.751,10.953 21.311 C 10.977 21.217,11.897 17.086,12.998 12.130 C 14.349 6.048,15.000 3.046,15.000 2.893 C 15.000 2.620,14.893 2.374,14.718 2.245 C 14.385 1.999,13.792 1.926,13.476 2.093 M6.620 6.046 C 6.384 6.167,1.154 11.407,1.039 11.637 C 0.924 11.868,0.924 12.132,1.039 12.363 C 1.164 12.613,6.387 17.836,6.637 17.961 C 6.990 18.137,7.355 18.047,7.701 17.701 C 8.048 17.354,8.137 16.990,7.960 16.637 C 7.899 16.514,7.189 15.776,5.647 14.230 L 3.422 12.000 5.647 9.770 C 7.189 8.224,7.899 7.486,7.960 7.363 C 8.137 7.010,8.048 6.646,7.701 6.299 C 7.361 5.959,6.968 5.867,6.620 6.046 M16.626 6.045 C 16.420 6.154,16.146 6.433,16.038 6.644 C 15.924 6.868,15.924 7.132,16.040 7.363 C 16.101 7.486,16.811 8.224,18.353 9.770 L 20.578 12.000 18.353 14.230 C 16.811 15.776,16.101 16.514,16.040 16.637 C 15.863 16.990,15.952 17.354,16.299 17.701 C 16.645 18.047,17.010 18.137,17.363 17.961 C 17.613 17.836,22.836 12.613,22.961 12.363 C 23.076 12.132,23.076 11.868,22.961 11.637 C 22.840 11.395,17.613 6.164,17.372 6.044 C 17.152 5.934,16.834 5.935,16.626 6.045 " stroke="none" fill-rule="evenodd" fill="black"></path></svg>