<svg width="24" height="24" viewBox="0 0 24 24" fill="none" xmlns="http://www.w3.org/2000/svg"><path d="M5.920 2.041 C 5.151 2.092,4.672 2.205,4.180 2.451 C 3.089 2.996,2.357 3.961,2.124 5.160 C 2.013 5.729,2.000 6.455,2.000 12.000 C 2.000 18.358,2.006 18.526,2.245 19.320 C 2.577 20.422,3.578 21.423,4.680 21.755 C 5.474 21.994,5.642 22.000,12.000 22.000 C 18.358 22.000,18.526 21.994,19.320 21.755 C 20.422 21.423,21.423 20.422,21.755 19.320 C 21.994 18.526,22.000 18.358,22.000 12.000 C 22.000 5.642,21.994 5.474,21.755 4.680 C 21.424 3.581,20.465 2.622,19.320 2.246 C 18.644 2.024,18.800 2.029,12.340 2.019 C 9.062 2.014,6.173 2.024,5.920 2.041 M18.492 4.091 C 18.894 4.188,19.109 4.309,19.400 4.600 C 19.696 4.895,19.814 5.109,19.912 5.528 C 19.975 5.797,19.980 6.313,19.980 12.000 C 19.980 17.687,19.975 18.203,19.912 18.472 C 19.814 18.891,19.696 19.104,19.400 19.401 C 19.101 19.701,18.820 19.851,18.418 19.928 C 18.010 20.005,5.990 20.005,5.582 19.927 C 5.170 19.850,4.898 19.704,4.600 19.403 C 4.303 19.104,4.186 18.890,4.088 18.472 C 4.025 18.203,4.020 17.687,4.020 12.000 C 4.020 6.313,4.025 5.797,4.088 5.528 C 4.175 5.155,4.294 4.918,4.520 4.667 C 4.883 4.262,5.282 4.091,5.980 4.039 C 6.200 4.023,9.044 4.013,12.300 4.018 C 17.643 4.024,18.247 4.032,18.492 4.091 M9.160 8.023 C 9.073 8.061,8.379 8.723,7.326 9.772 C 5.549 11.542,5.441 11.670,5.441 12.000 C 5.441 12.330,5.549 12.458,7.326 14.228 C 8.529 15.427,9.065 15.935,9.177 15.982 C 9.373 16.063,9.623 16.065,9.812 15.986 C 10.168 15.837,10.560 15.320,10.559 15.000 C 10.558 14.688,10.446 14.550,9.149 13.250 L 7.900 12.000 9.149 10.750 C 10.446 9.450,10.558 9.312,10.559 9.000 C 10.560 8.683,10.169 8.163,9.820 8.018 C 9.644 7.944,9.339 7.946,9.160 8.023 M14.171 8.019 C 13.826 8.169,13.440 8.688,13.441 9.000 C 13.442 9.312,13.554 9.450,14.851 10.750 L 16.100 12.000 14.851 13.250 C 13.554 14.550,13.442 14.688,13.441 15.000 C 13.440 15.320,13.832 15.837,14.188 15.986 C 14.377 16.065,14.627 16.063,14.823 15.982 C 14.935 15.935,15.471 15.427,16.674 14.228 C 18.451 12.458,18.559 12.330,18.559 12.000 C 18.559 11.670,18.451 11.542,16.674 9.772 C 15.524 8.625,14.932 8.064,14.831 8.022 C 14.648 7.946,14.343 7.944,14.171 8.019 " stroke="none" fill-rule="evenodd" fill="black"></path></svg>