<svg width="24" height="24" viewBox="0 0 24 24" fill="none" xmlns="http://www.w3.org/2000/svg"><path d="M11.280 1.023 C 11.203 1.032,10.951 1.059,10.720 1.083 C 9.527 1.210,8.337 1.558,7.180 2.120 C 6.045 2.671,5.193 3.285,4.238 4.239 C 3.277 5.198,2.643 6.080,2.097 7.220 C 0.301 10.968,0.728 15.286,3.226 18.633 C 3.701 19.269,4.753 20.316,5.400 20.797 C 9.364 23.745,14.666 23.734,18.637 20.770 C 19.246 20.316,20.316 19.246,20.770 18.637 C 23.744 14.652,23.744 9.348,20.770 5.363 C 20.316 4.755,19.247 3.686,18.640 3.235 C 17.045 2.049,15.365 1.360,13.423 1.096 C 13.000 1.038,11.574 0.990,11.280 1.023 M13.320 3.101 C 15.883 3.488,18.124 4.931,19.560 7.120 C 19.863 7.583,20.303 8.479,20.492 9.020 C 20.838 10.013,20.977 10.865,20.977 12.000 C 20.977 13.493,20.720 14.621,20.080 15.940 C 19.375 17.394,18.311 18.607,16.927 19.532 C 16.138 20.060,14.876 20.588,13.908 20.797 C 11.266 21.366,8.479 20.708,6.370 19.019 C 4.857 17.807,3.722 16.029,3.267 14.160 C 3.081 13.397,3.023 12.888,3.023 12.000 C 3.023 10.507,3.280 9.379,3.920 8.060 C 4.971 5.891,6.877 4.221,9.160 3.466 C 9.865 3.233,10.432 3.118,11.340 3.024 C 11.662 2.991,12.911 3.039,13.320 3.101 M12.480 6.090 C 12.105 6.291,12.186 5.975,11.032 11.730 C 9.893 17.414,9.915 17.268,10.129 17.590 C 10.202 17.701,10.309 17.788,10.468 17.866 C 10.671 17.966,10.745 17.980,11.063 17.980 C 11.390 17.980,11.442 17.969,11.589 17.872 C 11.699 17.799,11.785 17.695,11.854 17.552 C 12.009 17.228,14.014 7.160,13.992 6.815 C 13.961 6.318,13.613 6.040,12.984 6.009 C 12.700 5.995,12.638 6.005,12.480 6.090 M8.160 8.023 C 8.073 8.061,7.379 8.723,6.326 9.772 C 4.549 11.542,4.441 11.670,4.441 12.000 C 4.441 12.330,4.549 12.458,6.326 14.228 C 7.529 15.427,8.065 15.935,8.177 15.982 C 8.373 16.063,8.623 16.065,8.812 15.986 C 9.168 15.837,9.560 15.320,9.559 15.000 C 9.558 14.688,9.446 14.550,8.149 13.250 L 6.900 12.000 8.149 10.750 C 9.446 9.450,9.558 9.312,9.559 9.000 C 9.560 8.683,9.169 8.163,8.820 8.018 C 8.644 7.944,8.339 7.946,8.160 8.023 M15.171 8.019 C 14.826 8.169,14.440 8.688,14.441 9.000 C 14.442 9.312,14.554 9.450,15.851 10.750 L 17.100 12.000 15.851 13.250 C 14.554 14.550,14.442 14.688,14.441 15.000 C 14.440 15.320,14.832 15.837,15.188 15.986 C 15.377 16.065,15.627 16.063,15.823 15.982 C 15.935 15.935,16.471 15.427,17.674 14.228 C 19.451 12.458,19.559 12.330,19.559 12.000 C 19.559 11.670,19.451 11.542,17.674 9.772 C 16.524 8.625,15.932 8.064,15.831 8.022 C 15.648 7.946,15.343 7.944,15.171 8.019 " stroke="none" fill-rule="evenodd" fill="black"></path></svg>