<svg version="1.1" xmlns="http://www.w3.org/2000/svg" width="24" height="24" viewBox="0 0 24 24"><path d="M5.664 0.063 C 5.436 0.146,5.257 0.297,5.131 0.511 L 5.020 0.700 5.008 2.415 C 4.995 4.371,4.999 4.401,5.298 4.700 C 5.690 5.092,6.309 5.093,6.701 4.701 C 6.995 4.407,7.000 4.371,7.000 2.500 C 7.000 0.629,6.995 0.593,6.701 0.299 C 6.429 0.027,6.018 -0.067,5.664 0.063 M9.664 0.063 C 9.436 0.146,9.257 0.297,9.131 0.511 L 9.020 0.700 9.008 2.415 C 8.995 4.371,8.999 4.401,9.298 4.700 C 9.690 5.092,10.309 5.093,10.701 4.701 C 10.995 4.407,11.000 4.371,11.000 2.500 C 11.000 0.629,10.995 0.593,10.701 0.299 C 10.429 0.027,10.018 -0.067,9.664 0.063 M13.664 0.063 C 13.436 0.146,13.257 0.297,13.131 0.511 L 13.020 0.700 13.008 2.415 C 12.995 4.371,12.999 4.401,13.298 4.700 C 13.690 5.092,14.309 5.093,14.701 4.701 C 14.995 4.407,15.000 4.371,15.000 2.500 C 15.000 0.629,14.995 0.593,14.701 0.299 C 14.429 0.027,14.018 -0.067,13.664 0.063 M1.664 7.063 C 1.436 7.146,1.257 7.297,1.131 7.511 L 1.020 7.700 1.020 12.660 C 1.020 18.045,1.011 17.810,1.246 18.535 C 1.739 20.058,2.941 21.261,4.460 21.753 C 5.189 21.989,4.978 21.980,10.040 21.980 L 14.700 21.980 15.131 21.871 C 15.903 21.674,16.531 21.371,17.088 20.925 C 17.604 20.513,18.058 19.986,18.370 19.439 C 18.679 18.897,18.940 18.022,18.985 17.376 L 19.011 17.011 19.376 16.985 C 21.373 16.845,23.131 15.460,23.754 13.535 C 23.940 12.961,23.980 12.679,23.978 11.960 C 23.976 11.381,23.963 11.247,23.869 10.869 C 23.612 9.842,23.144 9.040,22.393 8.339 C 21.638 7.635,20.633 7.168,19.601 7.042 C 19.375 7.014,16.347 7.001,10.541 7.003 C 3.077 7.005,1.797 7.014,1.664 7.063 M17.000 13.116 C 17.000 17.734,17.007 17.616,16.716 18.238 C 16.292 19.144,15.552 19.733,14.578 19.940 C 14.152 20.030,5.856 20.029,5.419 19.938 C 4.460 19.740,3.694 19.131,3.283 18.241 C 3.005 17.638,3.024 17.983,3.010 13.270 L 2.998 9.000 9.999 9.000 L 17.000 9.000 17.000 13.116 M19.720 9.086 C 19.819 9.109,20.088 9.219,20.318 9.329 C 20.687 9.506,20.780 9.573,21.102 9.895 C 21.408 10.201,21.497 10.321,21.655 10.640 C 21.884 11.103,21.953 11.351,21.985 11.820 C 22.070 13.072,21.271 14.339,20.118 14.780 C 19.814 14.897,19.366 14.998,19.150 14.999 L 19.000 15.000 19.000 11.994 L 19.000 8.989 19.270 9.017 C 19.418 9.032,19.621 9.063,19.720 9.086 " stroke="none" fill-rule="evenodd" fill="black"></path></svg>