<svg width="24" height="24" viewBox="0 0 24 24" fill="none" xmlns="http://www.w3.org/2000/svg"><path d="M5.626 1.045 C 5.420 1.154,5.146 1.433,5.038 1.644 C 4.856 2.000,4.945 2.326,5.339 2.752 C 5.461 2.883,5.560 2.999,5.560 3.010 C 5.560 3.021,5.447 3.042,5.310 3.057 C 4.278 3.171,3.162 3.746,2.384 4.563 C 1.547 5.443,1.071 6.550,1.011 7.760 C 0.980 8.393,1.092 8.684,1.442 8.880 C 1.598 8.968,1.667 8.980,2.000 8.979 C 2.307 8.977,2.411 8.961,2.540 8.893 C 2.864 8.722,2.953 8.536,3.003 7.928 C 3.051 7.334,3.120 7.060,3.320 6.660 C 3.730 5.843,4.495 5.255,5.399 5.060 L 5.537 5.030 5.327 5.260 C 5.057 5.555,4.951 5.765,4.951 6.000 C 4.951 6.477,5.523 7.049,6.000 7.049 C 6.322 7.049,6.478 6.931,7.562 5.865 C 8.124 5.312,8.635 4.826,8.697 4.784 C 8.850 4.682,9.049 4.238,9.049 4.000 C 9.049 3.745,8.851 3.321,8.676 3.200 C 8.601 3.149,8.090 2.662,7.540 2.119 C 6.939 1.524,6.473 1.096,6.372 1.045 C 6.152 0.934,5.835 0.934,5.626 1.045 M15.300 1.042 C 12.872 1.288,10.753 2.775,9.696 4.976 C 9.467 5.454,9.217 6.176,9.177 6.476 C 9.117 6.926,9.371 7.286,9.854 7.435 C 10.320 7.579,10.627 7.533,10.879 7.281 C 11.008 7.152,11.059 7.045,11.197 6.620 C 11.511 5.651,11.888 5.029,12.538 4.408 C 13.638 3.359,15.025 2.879,16.500 3.037 C 17.417 3.136,18.168 3.418,18.900 3.939 C 20.495 5.075,21.270 7.035,20.899 8.994 C 20.722 9.924,20.259 10.775,19.520 11.525 C 18.900 12.155,18.384 12.473,17.516 12.760 C 16.931 12.953,16.718 13.070,16.601 13.259 C 16.388 13.603,16.495 14.266,16.815 14.585 C 17.117 14.888,17.387 14.903,18.145 14.659 C 19.307 14.284,20.450 13.536,21.239 12.632 C 22.776 10.872,23.348 8.518,22.783 6.280 C 22.104 3.593,19.819 1.509,17.100 1.097 C 16.616 1.024,15.742 0.997,15.300 1.042 M7.540 9.023 C 6.478 9.125,5.692 9.335,4.910 9.726 C 2.838 10.762,1.448 12.666,1.074 14.980 C 1.008 15.393,1.008 16.607,1.074 17.020 C 1.574 20.112,3.888 22.426,6.980 22.926 C 7.392 22.992,8.607 22.992,9.020 22.926 C 12.109 22.428,14.428 20.109,14.926 17.020 C 14.954 16.844,14.977 16.385,14.977 16.000 C 14.977 15.056,14.876 14.462,14.573 13.620 C 13.715 11.237,11.581 9.473,9.102 9.098 C 8.726 9.041,7.813 8.997,7.540 9.023 M8.552 11.043 C 10.413 11.246,12.001 12.479,12.680 14.248 C 13.092 15.320,13.085 16.720,12.663 17.793 C 12.120 19.174,10.991 20.256,9.600 20.732 C 9.044 20.922,8.670 20.980,8.000 20.980 C 7.330 20.980,6.956 20.922,6.400 20.732 C 4.808 20.188,3.580 18.864,3.161 17.240 C 2.920 16.307,2.983 15.125,3.320 14.248 C 4.146 12.096,6.274 10.793,8.552 11.043 M21.614 15.057 C 21.179 15.193,21.045 15.415,20.995 16.084 C 20.975 16.349,20.921 16.686,20.869 16.866 C 20.599 17.798,19.814 18.586,18.866 18.876 C 18.464 18.999,18.447 18.987,18.678 18.735 C 19.056 18.321,19.141 17.995,18.962 17.644 C 18.852 17.428,18.576 17.150,18.365 17.043 C 18.150 16.933,17.849 16.934,17.628 17.045 C 17.527 17.096,17.061 17.524,16.460 18.119 C 15.910 18.662,15.399 19.149,15.324 19.200 C 15.149 19.321,14.951 19.745,14.951 20.000 C 14.951 20.238,15.150 20.682,15.303 20.784 C 15.365 20.826,15.876 21.312,16.438 21.865 C 17.522 22.931,17.678 23.049,18.000 23.049 C 18.477 23.049,19.049 22.477,19.049 22.000 C 19.049 21.762,18.939 21.549,18.662 21.249 C 18.541 21.118,18.453 21.000,18.468 20.986 C 18.482 20.972,18.536 20.960,18.588 20.960 C 18.641 20.960,18.822 20.932,18.992 20.897 C 21.273 20.431,22.977 18.389,22.979 16.120 C 22.980 15.679,22.969 15.600,22.891 15.453 C 22.842 15.362,22.746 15.247,22.678 15.199 C 22.414 15.010,21.957 14.950,21.614 15.057 " stroke="none" fill-rule="evenodd" fill="black"></path></svg>