<svg width="24" height="24" viewBox="0 0 24 24" fill="none" xmlns="http://www.w3.org/2000/svg"><path d="M14.207 1.043 C 12.480 1.210,10.791 1.979,9.529 3.175 C 9.205 3.482,9.041 3.759,9.041 4.000 C 9.041 4.213,9.205 4.519,9.435 4.732 C 9.675 4.956,9.867 5.047,10.100 5.047 C 10.341 5.047,10.510 4.962,10.839 4.675 C 12.039 3.627,13.088 3.158,14.500 3.036 C 16.289 2.881,18.008 3.519,19.269 4.805 C 20.509 6.070,21.122 7.765,20.964 9.490 C 20.831 10.939,20.378 11.955,19.325 13.161 C 19.038 13.490,18.953 13.659,18.953 13.900 C 18.953 14.133,19.044 14.325,19.268 14.565 C 19.481 14.795,19.787 14.959,20.000 14.959 C 20.244 14.959,20.518 14.795,20.840 14.456 C 22.207 13.018,23.000 11.016,23.000 9.000 C 23.000 7.253,22.404 5.508,21.325 4.100 C 21.055 3.747,20.510 3.190,20.100 2.847 C 18.483 1.494,16.337 0.837,14.207 1.043 M8.207 7.043 C 6.656 7.193,5.096 7.846,3.900 8.847 C 2.985 9.612,2.307 10.477,1.800 11.529 C 0.734 13.734,0.735 16.267,1.801 18.474 C 2.225 19.352,2.730 20.049,3.446 20.741 C 4.114 21.389,4.706 21.803,5.529 22.200 C 8.259 23.519,11.467 23.184,13.900 21.326 C 14.239 21.067,14.925 20.394,15.211 20.040 C 17.163 17.625,17.547 14.317,16.200 11.529 C 15.693 10.477,15.015 9.612,14.100 8.847 C 12.483 7.494,10.337 6.837,8.207 7.043 M9.564 9.039 C 11.921 9.269,13.913 10.837,14.671 13.060 C 15.168 14.517,15.068 16.251,14.410 17.580 C 13.550 19.316,12.056 20.478,10.160 20.885 C 9.810 20.960,9.617 20.975,9.000 20.975 C 8.383 20.975,8.190 20.960,7.840 20.885 C 5.941 20.478,4.451 19.319,3.590 17.580 C 2.826 16.037,2.826 13.963,3.590 12.420 C 3.913 11.768,4.237 11.309,4.731 10.805 C 6.008 9.503,7.757 8.864,9.564 9.039 M8.697 11.036 C 8.527 11.113,7.059 12.079,6.784 12.294 C 6.580 12.454,6.423 12.789,6.451 13.001 C 6.501 13.372,6.843 13.858,7.142 13.983 C 7.328 14.061,7.562 14.054,7.800 13.964 L 8.000 13.888 8.000 15.200 L 8.000 16.513 7.550 16.527 C 7.189 16.537,7.068 16.557,6.940 16.624 C 6.608 16.797,6.446 17.233,6.526 17.738 C 6.598 18.192,6.823 18.406,7.309 18.481 C 7.745 18.548,10.728 18.512,10.940 18.437 C 11.296 18.311,11.495 17.965,11.491 17.479 C 11.486 17.033,11.340 16.763,11.024 16.616 C 10.851 16.535,10.757 16.521,10.410 16.520 L 10.000 16.520 10.000 14.187 C 10.000 11.570,10.006 11.635,9.712 11.301 C 9.419 10.968,9.055 10.873,8.697 11.036 " stroke="none" fill-rule="evenodd" fill="black"></path></svg>