<svg width="24" height="24" viewBox="0 0 24 24" fill="none" xmlns="http://www.w3.org/2000/svg"><path d="M14.480 1.026 C 12.458 1.164,10.574 2.053,9.183 3.525 C 8.275 4.486,7.660 5.579,7.280 6.909 C 7.198 7.194,7.195 7.198,7.029 7.242 C 5.913 7.534,4.766 8.122,3.900 8.847 C 2.985 9.612,2.307 10.477,1.800 11.529 C 0.481 14.259,0.816 17.467,2.674 19.900 C 2.933 20.239,3.606 20.925,3.960 21.211 C 5.378 22.357,7.190 23.000,9.000 23.000 C 10.810 23.000,12.622 22.357,14.040 21.211 C 14.394 20.925,15.067 20.239,15.326 19.900 C 15.968 19.060,16.492 17.987,16.758 16.971 C 16.802 16.805,16.806 16.802,17.091 16.720 C 18.727 16.253,20.095 15.371,21.154 14.100 C 22.050 13.025,22.686 11.616,22.905 10.220 C 23.095 9.003,22.986 7.697,22.595 6.500 C 22.229 5.382,21.612 4.352,20.801 3.504 C 19.134 1.762,16.845 0.865,14.480 1.026 M15.564 3.039 C 17.009 3.180,18.260 3.776,19.269 4.805 C 20.859 6.427,21.397 8.742,20.681 10.884 C 20.161 12.443,19.060 13.697,17.600 14.394 C 16.975 14.693,17.012 14.694,16.980 14.372 C 16.794 12.459,16.059 10.819,14.801 9.504 C 14.105 8.777,13.386 8.250,12.500 7.817 C 11.672 7.413,10.686 7.125,9.907 7.060 C 9.387 7.017,9.353 7.007,9.381 6.908 C 9.395 6.860,9.478 6.668,9.565 6.482 C 10.659 4.156,13.033 2.793,15.564 3.039 M9.564 9.039 C 11.921 9.269,13.913 10.837,14.671 13.060 C 15.088 14.283,15.088 15.717,14.671 16.940 C 13.988 18.944,12.291 20.428,10.160 20.885 C 9.810 20.960,9.617 20.975,9.000 20.975 C 8.383 20.975,8.190 20.960,7.840 20.885 C 5.941 20.478,4.451 19.319,3.590 17.580 C 3.040 16.470,2.872 15.017,3.143 13.720 C 3.551 11.767,5.042 10.061,6.949 9.367 C 7.378 9.210,7.743 9.126,8.260 9.063 C 8.807 8.997,9.075 8.992,9.564 9.039 M8.697 11.036 C 8.527 11.113,7.059 12.079,6.784 12.294 C 6.580 12.454,6.423 12.789,6.451 13.001 C 6.501 13.372,6.843 13.858,7.142 13.983 C 7.328 14.061,7.562 14.054,7.800 13.964 L 8.000 13.888 8.000 15.200 L 8.000 16.513 7.550 16.527 C 7.189 16.537,7.068 16.557,6.940 16.624 C 6.608 16.797,6.446 17.233,6.526 17.738 C 6.598 18.192,6.823 18.406,7.309 18.481 C 7.745 18.548,10.728 18.512,10.940 18.437 C 11.296 18.311,11.495 17.965,11.491 17.479 C 11.486 17.033,11.340 16.763,11.024 16.616 C 10.851 16.535,10.757 16.521,10.410 16.520 L 10.000 16.520 10.000 14.187 C 10.000 11.570,10.006 11.635,9.712 11.301 C 9.419 10.968,9.055 10.873,8.697 11.036 " stroke="none" fill-rule="evenodd" fill="black"></path></svg>