<svg width="24" height="24" viewBox="0 0 24 24" fill="none" xmlns="http://www.w3.org/2000/svg"><path d="M11.280 1.023 C 11.203 1.032,10.951 1.059,10.720 1.083 C 9.527 1.210,8.337 1.558,7.180 2.120 C 6.045 2.671,5.193 3.285,4.238 4.239 C 3.277 5.198,2.643 6.080,2.097 7.220 C 0.301 10.968,0.728 15.286,3.226 18.633 C 3.701 19.269,4.753 20.316,5.400 20.797 C 9.364 23.745,14.666 23.734,18.637 20.770 C 19.246 20.316,20.316 19.246,20.770 18.637 C 23.744 14.652,23.744 9.348,20.770 5.363 C 20.316 4.755,19.247 3.686,18.640 3.235 C 17.045 2.049,15.365 1.360,13.423 1.096 C 13.000 1.038,11.574 0.990,11.280 1.023 M11.000 3.650 C 11.000 3.964,11.019 4.285,11.041 4.365 C 11.148 4.750,11.437 4.962,11.896 4.991 C 12.381 5.022,12.699 4.882,12.880 4.558 C 12.973 4.392,12.980 4.335,12.994 3.725 L 13.008 3.069 13.243 3.094 C 14.556 3.231,16.409 3.999,17.432 4.829 L 17.604 4.969 17.181 5.403 C 16.732 5.863,16.602 6.073,16.601 6.342 C 16.598 6.810,17.188 7.398,17.660 7.398 C 17.926 7.398,18.137 7.267,18.597 6.819 L 19.031 6.396 19.171 6.568 C 20.003 7.592,20.769 9.444,20.906 10.761 L 20.931 11.000 20.372 11.000 C 19.580 11.000,19.297 11.101,19.109 11.453 C 19.035 11.592,19.020 11.684,19.020 12.000 C 19.020 12.331,19.033 12.403,19.120 12.558 C 19.230 12.755,19.414 12.898,19.635 12.959 C 19.715 12.981,20.039 13.000,20.356 13.000 L 20.931 13.000 20.906 13.239 C 20.769 14.556,20.003 16.408,19.171 17.432 L 19.031 17.604 18.606 17.190 C 18.152 16.748,17.912 16.599,17.657 16.601 C 17.186 16.604,16.598 17.192,16.601 17.658 C 16.602 17.927,16.732 18.137,17.185 18.602 C 17.420 18.843,17.606 19.047,17.596 19.054 C 17.587 19.062,17.445 19.167,17.280 19.288 C 16.147 20.115,14.616 20.734,13.254 20.913 L 13.008 20.946 12.993 20.283 C 12.975 19.526,12.924 19.362,12.649 19.182 C 12.199 18.887,11.426 18.979,11.170 19.358 C 11.030 19.567,11.000 19.739,11.000 20.363 L 11.000 20.947 10.750 20.914 C 9.645 20.768,8.366 20.314,7.361 19.711 C 7.098 19.554,6.541 19.171,6.404 19.054 C 6.394 19.047,6.580 18.843,6.815 18.602 C 7.268 18.137,7.398 17.927,7.399 17.658 C 7.402 17.192,6.814 16.604,6.343 16.601 C 6.088 16.599,5.848 16.748,5.394 17.190 L 4.969 17.604 4.829 17.432 C 3.997 16.408,3.231 14.556,3.094 13.239 L 3.069 13.000 3.644 13.000 C 3.961 13.000,4.285 12.981,4.365 12.959 C 4.586 12.898,4.770 12.755,4.880 12.558 C 4.967 12.402,4.980 12.332,4.979 12.000 C 4.978 11.687,4.962 11.591,4.890 11.453 C 4.704 11.102,4.421 11.000,3.628 11.000 L 3.069 11.000 3.094 10.761 C 3.231 9.444,3.997 7.592,4.829 6.568 L 4.969 6.396 5.403 6.819 C 5.863 7.268,6.073 7.398,6.342 7.399 C 6.810 7.402,7.398 6.812,7.398 6.340 C 7.398 6.074,7.267 5.863,6.819 5.403 L 6.396 4.969 6.568 4.829 C 7.423 4.135,8.964 3.431,10.120 3.205 C 10.351 3.160,10.576 3.115,10.620 3.106 C 10.664 3.097,10.768 3.087,10.850 3.085 L 11.000 3.080 11.000 3.650 M11.620 7.046 C 11.385 7.167,7.154 11.408,7.039 11.637 C 6.986 11.744,6.951 11.889,6.951 12.000 C 6.951 12.111,6.986 12.256,7.039 12.363 C 7.164 12.612,11.388 16.836,11.637 16.961 C 11.868 17.076,12.132 17.076,12.363 16.961 C 12.612 16.836,16.836 12.612,16.961 12.363 C 17.014 12.256,17.049 12.111,17.049 12.000 C 17.049 11.889,17.014 11.744,16.961 11.637 C 16.840 11.396,12.612 7.164,12.372 7.044 C 12.151 6.934,11.836 6.935,11.620 7.046 M13.300 10.720 L 14.580 12.000 13.290 13.290 L 12.000 14.580 10.710 13.290 L 9.420 12.000 10.700 10.720 C 11.404 10.016,11.989 9.440,12.000 9.440 C 12.011 9.440,12.596 10.016,13.300 10.720 " stroke="none" fill-rule="evenodd" fill="black"></path></svg>