<svg width="24" height="24" viewBox="0 0 24 24" fill="none" xmlns="http://www.w3.org/2000/svg"><path d="M11.614 1.057 C 11.377 1.131,11.212 1.261,11.109 1.453 C 11.027 1.606,11.019 1.684,11.007 2.390 C 10.997 2.948,10.981 3.160,10.947 3.160 C 10.825 3.160,10.055 3.584,9.793 3.795 C 8.625 4.736,8.194 6.366,8.742 7.764 C 8.876 8.108,9.087 8.471,9.277 8.687 C 9.367 8.789,9.440 8.882,9.440 8.893 C 9.440 8.923,5.482 15.734,5.440 15.776 C 5.385 15.831,4.900 15.422,4.120 14.660 C 3.398 13.955,3.286 13.879,2.975 13.881 C 2.698 13.883,2.198 14.251,2.032 14.575 C 1.918 14.800,1.929 15.072,2.064 15.320 C 2.271 15.700,3.451 16.852,4.168 17.374 C 4.293 17.465,4.396 17.552,4.398 17.567 C 4.399 17.582,3.884 18.482,3.253 19.567 C 2.622 20.652,2.073 21.626,2.033 21.730 C 1.883 22.121,1.953 22.399,2.276 22.689 C 2.615 22.993,3.063 23.115,3.372 22.986 C 3.623 22.881,3.859 22.528,4.993 20.568 L 6.127 18.609 6.493 18.779 C 7.713 19.346,8.982 19.712,10.400 19.908 C 11.102 20.005,12.898 20.005,13.600 19.908 C 15.018 19.712,16.287 19.346,17.507 18.779 L 17.873 18.609 19.007 20.568 C 20.141 22.528,20.377 22.881,20.628 22.986 C 20.937 23.115,21.385 22.993,21.724 22.689 C 22.047 22.399,22.117 22.121,21.967 21.730 C 21.927 21.626,21.378 20.652,20.747 19.567 C 20.116 18.482,19.601 17.582,19.601 17.567 C 19.602 17.552,19.706 17.465,19.832 17.373 C 20.583 16.829,21.761 15.669,21.944 15.295 C 22.138 14.900,22.059 14.578,21.683 14.227 C 21.458 14.016,21.203 13.882,21.025 13.881 C 20.714 13.879,20.602 13.955,19.880 14.660 C 19.100 15.422,18.615 15.831,18.560 15.776 C 18.518 15.734,14.560 8.923,14.560 8.893 C 14.560 8.882,14.633 8.789,14.723 8.687 C 15.197 8.149,15.487 7.317,15.487 6.500 C 15.487 5.415,15.014 4.433,14.166 3.760 C 13.934 3.575,13.164 3.160,13.054 3.160 C 13.021 3.160,13.003 2.941,12.993 2.390 C 12.980 1.689,12.971 1.605,12.890 1.453 C 12.842 1.362,12.746 1.247,12.678 1.199 C 12.414 1.010,11.957 0.950,11.614 1.057 M12.344 5.053 C 13.388 5.272,13.837 6.579,13.161 7.433 C 12.987 7.655,12.699 7.859,12.462 7.930 C 12.253 7.992,11.747 7.992,11.538 7.930 C 11.301 7.859,11.013 7.655,10.839 7.433 C 10.290 6.740,10.460 5.715,11.202 5.239 C 11.407 5.107,11.732 5.009,11.980 5.004 C 12.046 5.003,12.210 5.025,12.344 5.053 M12.000 9.980 C 12.231 9.980,12.511 9.965,12.622 9.947 L 12.824 9.915 14.835 13.377 C 15.940 15.282,16.835 16.856,16.822 16.876 C 16.786 16.936,15.897 17.297,15.360 17.471 C 14.185 17.852,13.354 17.977,12.000 17.977 C 10.646 17.977,9.815 17.852,8.640 17.471 C 8.103 17.297,7.214 16.936,7.178 16.876 C 7.165 16.856,8.060 15.282,9.165 13.377 L 11.176 9.915 11.378 9.947 C 11.489 9.965,11.769 9.980,12.000 9.980 " stroke="none" fill-rule="evenodd" fill="black"></path></svg>