<svg width="24" height="24" viewBox="0 0 24 24" fill="none" xmlns="http://www.w3.org/2000/svg"><path d="M11.280 1.026 C 9.617 1.179,8.507 1.476,7.180 2.120 C 6.045 2.671,5.193 3.285,4.238 4.239 C 3.277 5.198,2.643 6.080,2.097 7.220 C 0.301 10.968,0.728 15.286,3.226 18.633 C 3.701 19.269,4.753 20.316,5.400 20.797 C 7.085 22.050,9.011 22.781,11.100 22.962 C 12.056 23.045,13.497 22.956,14.119 22.776 C 14.427 22.687,14.654 22.455,14.716 22.164 C 14.799 21.773,14.637 21.212,14.385 21.022 C 14.165 20.856,13.967 20.821,13.542 20.874 C 13.335 20.899,13.128 20.920,13.082 20.920 L 13.000 20.920 13.000 11.995 L 13.000 3.071 13.270 3.105 C 13.418 3.124,13.676 3.140,13.843 3.140 C 14.105 3.140,14.168 3.125,14.308 3.033 C 14.523 2.890,14.630 2.707,14.705 2.353 C 14.813 1.840,14.651 1.449,14.260 1.276 C 13.832 1.087,12.146 0.946,11.280 1.026 M17.380 2.835 C 17.178 2.927,16.960 3.151,16.814 3.415 C 16.726 3.575,16.702 3.673,16.701 3.863 C 16.700 4.205,16.809 4.350,17.429 4.832 C 18.080 5.337,18.663 5.920,19.168 6.571 C 19.611 7.141,19.785 7.283,20.079 7.311 C 20.439 7.345,21.000 6.995,21.176 6.624 C 21.266 6.432,21.255 6.175,21.146 5.940 C 20.826 5.255,19.471 3.830,18.415 3.068 C 17.989 2.761,17.690 2.694,17.380 2.835 M11.000 12.013 L 11.000 20.947 10.750 20.914 C 9.539 20.754,8.061 20.195,7.040 19.511 C 5.689 18.606,4.618 17.380,3.920 15.940 C 3.487 15.047,3.246 14.271,3.094 13.280 C 2.997 12.646,2.997 11.354,3.094 10.720 C 3.494 8.105,4.917 5.885,7.120 4.440 C 7.944 3.900,9.191 3.386,10.120 3.205 C 10.351 3.160,10.576 3.115,10.620 3.106 C 10.664 3.097,10.768 3.087,10.850 3.085 L 11.000 3.080 11.000 12.013 M21.714 9.287 C 21.275 9.344,20.968 9.559,20.882 9.871 C 20.825 10.075,20.829 10.234,20.905 10.743 C 20.949 11.036,20.970 11.450,20.970 12.000 C 20.970 12.550,20.949 12.964,20.905 13.257 C 20.829 13.766,20.825 13.925,20.882 14.129 C 20.968 14.441,21.243 14.634,21.727 14.724 C 22.235 14.817,22.639 14.584,22.777 14.118 C 23.052 13.192,23.052 10.809,22.778 9.884 C 22.717 9.679,22.538 9.434,22.392 9.356 C 22.264 9.287,21.954 9.256,21.714 9.287 M19.951 16.718 C 19.711 16.794,19.541 16.949,19.164 17.435 C 18.686 18.050,17.972 18.761,17.380 19.211 C 17.138 19.395,16.886 19.622,16.820 19.716 C 16.585 20.050,16.686 20.542,17.071 20.938 C 17.372 21.247,17.696 21.316,18.060 21.146 C 18.852 20.777,20.777 18.852,21.146 18.060 C 21.320 17.688,21.240 17.356,20.903 17.046 C 20.605 16.773,20.209 16.636,19.951 16.718 " stroke="none" fill-rule="evenodd" fill="black"></path></svg>