<svg version="1.1" xmlns="http://www.w3.org/2000/svg" width="24" height="24" viewBox="0 0 24 24"><path d="M6.000 2.000 L 6.000 3.000 5.370 3.002 C 4.639 3.005,4.342 3.065,3.983 3.281 C 3.703 3.449,3.354 3.816,3.219 4.083 C 2.988 4.538,3.000 4.104,3.001 11.978 C 3.001 19.845,2.991 19.468,3.219 19.917 C 3.354 20.184,3.703 20.551,3.983 20.719 C 4.475 21.015,3.903 20.995,11.980 20.997 C 19.862 20.999,19.388 21.013,19.874 20.775 C 20.169 20.631,20.631 20.169,20.775 19.874 C 21.012 19.388,20.999 19.859,21.000 11.999 C 21.000 5.123,20.997 4.766,20.927 4.514 C 20.827 4.154,20.675 3.907,20.364 3.600 C 20.075 3.316,19.720 3.117,19.368 3.044 C 19.251 3.020,18.896 3.000,18.578 3.000 L 18.000 3.000 18.000 2.000 L 18.000 1.000 16.980 1.000 L 15.960 1.000 15.960 2.000 L 15.960 3.000 12.000 3.000 L 8.040 3.000 8.040 2.000 L 8.040 1.000 7.020 1.000 L 6.000 1.000 6.000 2.000 M12.760 6.098 C 13.070 6.182,13.579 6.444,13.849 6.658 C 14.325 7.036,14.787 7.748,14.926 8.320 C 14.995 8.606,14.994 9.398,14.925 9.680 C 14.753 10.372,14.274 11.056,13.672 11.467 C 12.490 12.274,11.007 12.153,9.945 11.162 C 9.564 10.806,9.202 10.189,9.075 9.680 C 9.005 9.396,9.005 8.604,9.075 8.320 C 9.202 7.811,9.564 7.193,9.945 6.838 C 10.336 6.474,10.889 6.171,11.320 6.085 C 11.441 6.061,11.576 6.032,11.620 6.022 C 11.772 5.987,12.541 6.038,12.760 6.098 M13.260 14.020 C 14.423 14.198,15.872 14.685,16.720 15.182 C 17.212 15.470,17.636 15.900,17.828 16.302 L 17.979 16.620 17.994 17.310 L 18.009 18.000 12.005 18.000 L 6.000 18.000 6.001 17.410 C 6.003 16.488,6.102 16.214,6.619 15.700 C 6.989 15.333,7.397 15.078,8.059 14.798 C 9.156 14.333,10.212 14.062,11.380 13.944 C 11.692 13.912,12.866 13.960,13.260 14.020 " stroke="none" fill-rule="evenodd" fill="black"></path></svg>