<svg width="24" height="24" viewBox="0 0 24 24" fill="none" xmlns="http://www.w3.org/2000/svg"><path d="M9.760 1.039 C 9.330 1.081,8.965 1.175,8.671 1.321 C 7.729 1.789,7.162 2.612,7.043 3.688 C 6.944 4.583,7.008 5.009,7.278 5.253 C 7.566 5.514,8.147 5.575,8.532 5.385 C 8.895 5.206,8.964 5.028,9.034 4.090 C 9.075 3.532,9.147 3.369,9.440 3.175 C 9.579 3.083,9.661 3.065,10.090 3.034 C 11.028 2.964,11.206 2.895,11.385 2.532 C 11.464 2.371,11.488 2.261,11.489 2.052 C 11.491 1.554,11.356 1.282,11.025 1.112 C 10.833 1.014,10.324 0.985,9.760 1.039 M13.614 1.057 C 13.377 1.131,13.212 1.261,13.109 1.453 C 13.035 1.592,13.020 1.684,13.020 2.000 C 13.020 2.331,13.033 2.403,13.120 2.558 C 13.230 2.755,13.414 2.898,13.635 2.959 C 13.826 3.012,16.174 3.012,16.365 2.959 C 16.586 2.898,16.770 2.755,16.880 2.558 C 16.967 2.402,16.980 2.332,16.979 2.000 C 16.978 1.687,16.962 1.591,16.890 1.453 C 16.786 1.256,16.623 1.131,16.371 1.055 C 16.117 0.979,13.859 0.981,13.614 1.057 M19.180 1.035 C 18.712 1.159,18.509 1.468,18.511 2.052 C 18.512 2.261,18.536 2.371,18.615 2.532 C 18.794 2.895,18.972 2.964,19.910 3.034 C 20.468 3.075,20.631 3.147,20.825 3.440 C 20.917 3.579,20.935 3.661,20.966 4.090 C 21.036 5.028,21.105 5.206,21.468 5.385 C 21.704 5.501,22.090 5.525,22.392 5.443 C 22.642 5.375,22.866 5.156,22.940 4.908 C 23.056 4.516,22.990 3.530,22.810 2.984 C 22.502 2.050,21.657 1.305,20.680 1.106 C 20.331 1.034,19.355 0.988,19.180 1.035 M3.749 7.045 C 2.967 7.120,2.402 7.371,1.890 7.870 C 1.491 8.260,1.236 8.731,1.094 9.340 C 1.024 9.643,1.020 9.936,1.020 15.020 L 1.020 20.380 1.111 20.735 C 1.281 21.406,1.637 21.962,2.142 22.350 C 2.495 22.621,2.816 22.775,3.265 22.889 L 3.620 22.980 8.980 22.980 C 14.064 22.980,14.357 22.976,14.660 22.906 C 15.459 22.720,16.041 22.327,16.486 21.671 C 16.685 21.378,16.807 21.084,16.906 20.660 C 16.976 20.357,16.980 20.064,16.980 15.000 C 16.980 9.936,16.976 9.643,16.906 9.340 C 16.688 8.404,16.167 7.737,15.329 7.321 C 15.019 7.168,14.706 7.091,14.180 7.042 C 13.648 6.991,4.274 6.994,3.749 7.045 M21.649 7.037 C 21.439 7.091,21.208 7.267,21.111 7.450 C 21.021 7.617,21.020 7.642,21.020 9.000 C 21.020 10.334,21.023 10.385,21.106 10.540 C 21.285 10.875,21.496 10.978,22.000 10.978 C 22.504 10.978,22.715 10.875,22.894 10.540 C 22.977 10.385,22.980 10.334,22.980 9.000 L 22.980 7.620 22.880 7.442 C 22.726 7.167,22.484 7.037,22.094 7.018 C 21.921 7.010,21.721 7.018,21.649 7.037 M14.374 9.074 C 14.585 9.145,14.862 9.432,14.928 9.646 C 15.005 9.902,15.005 20.098,14.928 20.354 C 14.863 20.567,14.591 20.849,14.376 20.925 C 14.144 21.007,3.856 21.007,3.624 20.925 C 3.422 20.854,3.140 20.571,3.074 20.374 C 3.008 20.176,2.974 10.516,3.037 9.947 C 3.102 9.365,3.341 9.104,3.866 9.042 C 4.017 9.024,6.408 9.012,9.180 9.016 C 13.174 9.021,14.252 9.034,14.374 9.074 M21.500 12.595 C 21.276 12.696,21.099 12.912,21.048 13.146 C 21.024 13.253,20.994 13.538,20.981 13.780 C 20.949 14.365,20.910 14.492,20.701 14.701 C 20.485 14.917,20.343 14.958,19.662 14.999 C 18.954 15.042,18.757 15.136,18.591 15.511 C 18.500 15.717,18.484 16.125,18.557 16.392 C 18.625 16.642,18.844 16.866,19.092 16.940 C 19.484 17.056,20.470 16.990,21.016 16.810 C 21.818 16.545,22.545 15.818,22.810 15.016 C 22.990 14.470,23.056 13.484,22.940 13.092 C 22.868 12.852,22.645 12.627,22.413 12.563 C 22.166 12.494,21.683 12.511,21.500 12.595 " stroke="none" fill-rule="evenodd" fill="black"></path></svg>