<svg width="24" height="24" viewBox="0 0 24 24" fill="none" xmlns="http://www.w3.org/2000/svg"><path d="M15.530 3.085 C 15.392 3.152,15.248 3.254,15.210 3.312 C 15.171 3.370,14.012 4.552,12.634 5.939 C 10.897 7.687,10.101 8.514,10.040 8.637 C 9.863 8.990,9.952 9.354,10.299 9.701 C 10.646 10.048,11.011 10.137,11.363 9.960 C 11.483 9.900,12.096 9.318,13.274 8.146 L 15.007 6.420 14.986 10.080 C 14.963 14.164,14.940 14.631,14.713 15.540 C 14.376 16.898,13.046 18.281,11.700 18.674 C 10.788 18.940,10.330 18.967,6.259 18.995 L 2.658 19.020 2.459 19.122 C 2.119 19.297,1.978 19.606,2.009 20.104 C 2.038 20.563,2.250 20.852,2.635 20.959 C 2.823 21.011,8.383 21.012,9.580 20.961 C 11.345 20.884,12.349 20.670,13.292 20.168 C 13.937 19.824,14.409 19.473,14.941 18.941 C 15.876 18.006,16.446 16.990,16.716 15.777 C 16.951 14.721,16.998 13.687,16.999 9.561 L 17.000 6.422 18.730 8.147 C 19.908 9.321,20.517 9.900,20.637 9.960 C 20.989 10.137,21.354 10.048,21.701 9.701 C 22.048 9.354,22.137 8.990,21.960 8.637 C 21.899 8.514,21.103 7.687,19.366 5.939 C 17.988 4.552,16.829 3.370,16.790 3.312 C 16.752 3.254,16.604 3.151,16.460 3.083 C 16.113 2.919,15.873 2.920,15.530 3.085 " stroke="none" fill-rule="evenodd" fill="black"></path></svg>