<svg width="24" height="24" viewBox="0 0 24 24" fill="none" xmlns="http://www.w3.org/2000/svg"><path d="M19.614 3.057 C 19.377 3.131,19.212 3.261,19.110 3.453 C 19.022 3.618,19.021 3.643,18.995 6.100 C 18.963 9.059,18.923 9.695,18.713 10.540 C 18.432 11.675,17.442 12.861,16.300 13.432 C 15.793 13.685,15.223 13.827,14.320 13.924 C 14.055 13.952,12.522 13.976,10.160 13.988 L 6.420 14.006 8.146 12.273 C 9.319 11.095,9.900 10.483,9.960 10.363 C 10.137 10.011,10.048 9.646,9.701 9.299 C 9.361 8.959,8.980 8.868,8.628 9.044 C 8.517 9.100,7.621 9.964,5.960 11.618 C 4.585 12.988,3.399 14.150,3.324 14.201 C 3.149 14.321,2.951 14.744,2.951 15.000 C 2.951 15.239,3.150 15.682,3.304 15.784 C 3.366 15.826,4.552 16.988,5.939 18.366 C 7.687 20.103,8.514 20.899,8.637 20.960 C 8.990 21.137,9.354 21.048,9.701 20.701 C 10.048 20.354,10.137 19.989,9.960 19.637 C 9.900 19.517,9.321 18.908,8.147 17.730 L 6.422 16.000 9.561 15.999 C 13.687 15.998,14.721 15.951,15.777 15.716 C 16.990 15.446,18.006 14.876,18.941 13.941 C 19.876 13.006,20.446 11.990,20.716 10.777 C 20.937 9.787,21.011 8.382,20.992 5.540 C 20.980 3.643,20.979 3.618,20.891 3.453 C 20.842 3.362,20.746 3.247,20.678 3.199 C 20.414 3.010,19.957 2.950,19.614 3.057 " stroke="none" fill-rule="evenodd" fill="black"></path></svg>