<svg width="24" height="24" viewBox="0 0 24 24" fill="none" xmlns="http://www.w3.org/2000/svg"><path d="M14.626 3.045 C 14.420 3.154,14.146 3.433,14.038 3.644 C 13.924 3.868,13.924 4.133,14.040 4.363 C 14.100 4.483,14.678 5.091,15.848 6.265 L 17.568 7.990 13.874 8.013 C 9.635 8.039,9.082 8.070,7.981 8.346 C 6.467 8.725,5.063 9.759,4.143 11.170 C 3.530 12.111,3.229 13.076,3.079 14.580 C 3.015 15.219,2.978 20.134,3.035 20.344 C 3.145 20.749,3.428 20.961,3.896 20.991 C 4.381 21.022,4.699 20.882,4.880 20.558 L 4.980 20.380 5.006 17.880 C 5.037 14.872,5.086 14.174,5.321 13.327 C 5.690 11.998,7.066 10.651,8.412 10.302 C 9.347 10.059,9.762 10.037,13.900 10.013 L 17.580 9.993 15.854 11.726 C 14.682 12.904,14.100 13.517,14.040 13.637 C 13.863 13.989,13.952 14.354,14.299 14.701 C 14.646 15.048,15.010 15.137,15.363 14.960 C 15.486 14.899,16.313 14.103,18.061 12.366 C 19.448 10.988,20.634 9.826,20.696 9.784 C 20.850 9.682,21.049 9.239,21.049 9.000 C 21.049 8.744,20.851 8.321,20.676 8.201 C 20.601 8.150,19.415 6.988,18.040 5.618 C 16.379 3.964,15.483 3.100,15.372 3.044 C 15.152 2.934,14.835 2.935,14.626 3.045 " stroke="none" fill-rule="evenodd" fill="black"></path></svg>