<svg width="24" height="24" viewBox="0 0 24 24" fill="none" xmlns="http://www.w3.org/2000/svg"><path d="M2.614 3.055 C 2.220 3.184,2.039 3.437,2.009 3.900 C 1.978 4.381,2.119 4.699,2.442 4.880 L 2.620 4.980 6.160 5.006 C 10.205 5.035,10.758 5.067,11.673 5.321 C 13.016 5.693,14.374 7.096,14.713 8.460 C 14.940 9.369,14.963 9.836,14.986 13.920 L 15.007 17.580 13.274 15.854 C 12.151 14.737,11.481 14.099,11.372 14.044 C 11.020 13.868,10.639 13.959,10.299 14.299 C 9.952 14.646,9.863 15.010,10.040 15.363 C 10.101 15.486,10.897 16.313,12.634 18.061 C 14.012 19.448,15.174 20.634,15.216 20.696 C 15.318 20.850,15.761 21.049,16.000 21.049 C 16.239 21.049,16.682 20.850,16.784 20.696 C 16.826 20.634,17.988 19.448,19.366 18.061 C 21.103 16.313,21.899 15.486,21.960 15.363 C 22.137 15.010,22.048 14.646,21.701 14.299 C 21.361 13.959,20.980 13.868,20.628 14.044 C 20.519 14.099,19.853 14.734,18.730 15.853 L 17.000 17.578 16.999 14.439 C 16.998 10.313,16.951 9.279,16.716 8.223 C 16.387 6.745,15.493 5.375,14.247 4.439 C 13.110 3.585,12.094 3.235,10.300 3.078 C 10.033 3.054,8.259 3.028,6.300 3.018 C 3.392 3.003,2.751 3.009,2.614 3.055 " stroke="none" fill-rule="evenodd" fill="black"></path></svg>