<svg width="24" height="24" viewBox="0 0 24 24" fill="none" xmlns="http://www.w3.org/2000/svg"><path d="M7.530 3.085 C 7.392 3.152,7.248 3.254,7.210 3.312 C 7.171 3.370,6.012 4.552,4.634 5.939 C 2.897 7.687,2.101 8.514,2.040 8.637 C 1.863 8.990,1.952 9.354,2.299 9.701 C 2.646 10.048,3.011 10.137,3.363 9.960 C 3.483 9.900,4.091 9.322,5.266 8.151 L 6.992 6.430 7.012 10.205 C 7.024 12.596,7.048 14.141,7.077 14.420 C 7.147 15.097,7.274 15.809,7.404 16.255 C 7.554 16.768,7.961 17.589,8.309 18.080 C 8.656 18.569,9.437 19.350,9.910 19.681 C 11.164 20.557,12.255 20.867,14.420 20.961 C 15.617 21.012,21.177 21.011,21.365 20.959 C 21.586 20.898,21.770 20.755,21.880 20.558 C 21.967 20.402,21.980 20.332,21.979 20.000 C 21.978 19.685,21.963 19.591,21.888 19.450 C 21.783 19.252,21.574 19.102,21.320 19.043 C 21.207 19.018,19.830 18.996,17.620 18.985 C 15.423 18.975,13.942 18.952,13.680 18.924 C 13.148 18.867,12.658 18.778,12.300 18.674 C 10.968 18.285,9.649 16.928,9.302 15.588 C 9.059 14.653,9.037 14.238,9.013 10.100 L 8.993 6.420 10.726 8.146 C 11.904 9.318,12.517 9.900,12.637 9.960 C 12.989 10.137,13.354 10.048,13.701 9.701 C 14.048 9.354,14.137 8.990,13.960 8.637 C 13.899 8.514,13.103 7.687,11.366 5.939 C 9.988 4.552,8.829 3.370,8.790 3.312 C 8.752 3.254,8.604 3.151,8.460 3.083 C 8.113 2.919,7.873 2.920,7.530 3.085 " stroke="none" fill-rule="evenodd" fill="black"></path></svg>