<svg width="24" height="24" viewBox="0 0 24 24" fill="none" xmlns="http://www.w3.org/2000/svg"><path d="M14.600 3.041 C 12.657 3.104,11.620 3.325,10.593 3.893 C 9.327 4.594,8.329 5.649,7.720 6.930 C 7.392 7.621,7.197 8.424,7.077 9.580 C 7.048 9.859,7.024 11.404,7.012 13.795 L 6.992 17.570 5.266 15.849 C 4.146 14.733,3.481 14.099,3.372 14.044 C 3.020 13.868,2.639 13.959,2.299 14.299 C 1.952 14.646,1.863 15.010,2.040 15.363 C 2.101 15.486,2.897 16.313,4.634 18.061 C 6.012 19.448,7.174 20.634,7.216 20.696 C 7.318 20.850,7.761 21.049,8.000 21.049 C 8.239 21.049,8.682 20.850,8.784 20.696 C 8.826 20.634,9.988 19.448,11.366 18.061 C 13.103 16.313,13.899 15.486,13.960 15.363 C 14.137 15.010,14.048 14.646,13.701 14.299 C 13.361 13.959,12.980 13.868,12.628 14.044 C 12.519 14.099,11.849 14.737,10.726 15.854 L 8.993 17.580 9.013 13.900 C 9.037 9.762,9.059 9.347,9.302 8.412 C 9.661 7.026,11.026 5.661,12.412 5.302 C 13.337 5.061,13.774 5.038,17.720 5.014 C 19.645 5.003,21.285 4.977,21.364 4.957 C 21.582 4.901,21.769 4.757,21.880 4.558 C 21.967 4.402,21.980 4.332,21.979 4.000 C 21.978 3.567,21.898 3.355,21.678 3.199 C 21.399 3.000,21.387 3.000,18.324 3.007 C 16.749 3.010,15.073 3.026,14.600 3.041 " stroke="none" fill-rule="evenodd" fill="black"></path></svg>