<svg width="24" height="24" viewBox="0 0 24 24" fill="none" xmlns="http://www.w3.org/2000/svg"><path d="M3.614 3.057 C 3.377 3.131,3.212 3.261,3.109 3.453 L 3.020 3.620 3.023 6.220 C 3.026 8.919,3.047 9.405,3.204 10.355 C 3.322 11.069,3.486 11.588,3.781 12.180 C 4.126 12.874,4.480 13.361,5.059 13.941 C 5.993 14.875,7.010 15.446,8.223 15.716 C 9.279 15.951,10.313 15.998,14.439 15.999 L 17.578 16.000 15.853 17.730 C 14.679 18.908,14.100 19.517,14.040 19.637 C 13.863 19.989,13.952 20.354,14.299 20.701 C 14.646 21.048,15.010 21.137,15.363 20.960 C 15.486 20.899,16.313 20.103,18.061 18.366 C 19.448 16.988,20.634 15.826,20.696 15.784 C 20.850 15.682,21.049 15.239,21.049 15.000 C 21.049 14.744,20.851 14.321,20.676 14.201 C 20.601 14.150,19.415 12.988,18.040 11.618 C 16.379 9.964,15.483 9.100,15.372 9.044 C 15.020 8.868,14.639 8.959,14.299 9.299 C 13.952 9.646,13.863 10.011,14.040 10.363 C 14.100 10.483,14.681 11.095,15.854 12.273 L 17.580 14.006 13.840 13.988 C 10.111 13.969,9.673 13.954,8.920 13.817 C 7.925 13.637,7.253 13.288,6.508 12.564 C 5.953 12.024,5.492 11.290,5.321 10.673 C 5.086 9.827,5.038 9.130,5.005 6.120 C 4.978 3.646,4.977 3.618,4.890 3.453 C 4.841 3.362,4.746 3.247,4.678 3.199 C 4.414 3.010,3.957 2.950,3.614 3.057 " stroke="none" fill-rule="evenodd" fill="black"></path></svg>