<svg width="24" height="24" viewBox="0 0 24 24" fill="none" xmlns="http://www.w3.org/2000/svg"><path d="M8.620 3.046 C 8.523 3.096,7.478 4.107,5.960 5.618 C 4.585 6.988,3.399 8.150,3.324 8.201 C 3.149 8.321,2.951 8.744,2.951 9.000 C 2.951 9.239,3.150 9.682,3.304 9.784 C 3.366 9.826,4.552 10.988,5.939 12.366 C 7.687 14.103,8.514 14.899,8.637 14.960 C 8.990 15.137,9.354 15.048,9.701 14.701 C 10.048 14.354,10.137 13.989,9.960 13.637 C 9.900 13.517,9.318 12.904,8.146 11.726 L 6.420 9.993 10.100 10.013 C 14.238 10.037,14.653 10.059,15.588 10.302 C 16.988 10.665,18.364 12.055,18.713 13.460 C 18.923 14.305,18.957 14.835,18.984 17.740 C 18.997 19.104,19.024 20.285,19.044 20.364 C 19.139 20.743,19.436 20.962,19.896 20.991 C 20.381 21.022,20.699 20.882,20.880 20.558 L 20.980 20.380 20.992 18.460 C 21.019 14.332,20.857 13.003,20.168 11.708 C 19.691 10.813,19.018 10.019,18.247 9.439 C 17.110 8.585,16.096 8.236,14.300 8.078 C 14.034 8.054,12.175 8.025,10.126 8.013 L 6.432 7.990 8.152 6.265 C 9.322 5.091,9.900 4.483,9.960 4.363 C 10.137 4.011,10.048 3.646,9.701 3.299 C 9.361 2.959,8.967 2.867,8.620 3.046 " stroke="none" fill-rule="evenodd" fill="black"></path></svg>