<svg width="24" height="24" viewBox="0 0 24 24" fill="none" xmlns="http://www.w3.org/2000/svg"><path d="M8.614 1.057 C 8.377 1.131,8.212 1.261,8.109 1.453 C 8.029 1.603,8.019 1.689,8.007 2.305 L 7.994 2.991 7.367 3.018 C 5.807 3.086,5.023 3.361,4.228 4.116 C 3.370 4.931,3.000 5.989,3.000 7.630 L 3.000 8.000 2.406 8.000 C 1.577 8.000,1.300 8.097,1.109 8.453 C 1.035 8.592,1.020 8.684,1.020 9.000 C 1.020 9.331,1.033 9.403,1.120 9.558 C 1.230 9.755,1.414 9.898,1.635 9.959 C 1.715 9.981,2.054 10.000,2.390 10.000 L 3.000 10.000 3.000 11.500 L 3.000 13.000 2.406 13.000 C 1.577 13.000,1.300 13.097,1.109 13.453 C 1.035 13.592,1.020 13.684,1.020 14.000 C 1.020 14.331,1.033 14.403,1.120 14.558 C 1.230 14.755,1.414 14.898,1.635 14.959 C 1.715 14.981,2.054 15.000,2.390 15.000 L 3.000 15.000 3.000 15.870 C 3.000 17.428,3.115 18.170,3.464 18.858 C 3.999 19.913,4.979 20.647,6.160 20.876 C 6.483 20.939,7.207 21.000,7.630 21.000 L 8.000 21.000 8.000 21.610 C 8.000 21.946,8.019 22.285,8.041 22.365 C 8.148 22.750,8.437 22.962,8.896 22.991 C 9.381 23.022,9.699 22.882,9.880 22.558 C 9.974 22.391,9.981 22.338,9.994 21.690 L 10.008 21.000 12.004 21.000 L 14.000 21.000 14.000 21.610 C 14.000 21.946,14.019 22.285,14.041 22.365 C 14.148 22.750,14.437 22.962,14.896 22.991 C 15.381 23.022,15.699 22.882,15.880 22.558 C 15.974 22.391,15.981 22.338,15.994 21.690 L 16.008 21.000 16.374 21.000 C 17.085 21.000,17.811 20.909,18.320 20.755 C 19.228 20.482,20.085 19.749,20.535 18.859 C 20.885 18.170,21.000 17.429,21.000 15.870 L 21.000 15.000 21.610 15.000 C 21.946 15.000,22.285 14.981,22.365 14.959 C 22.586 14.898,22.770 14.755,22.880 14.558 C 22.967 14.402,22.980 14.332,22.979 14.000 C 22.978 13.687,22.962 13.591,22.890 13.453 C 22.702 13.097,22.424 13.000,21.594 13.000 L 21.000 13.000 21.000 11.500 L 21.000 10.000 21.610 10.000 C 21.946 10.000,22.285 9.981,22.365 9.959 C 22.586 9.898,22.770 9.755,22.880 9.558 C 22.967 9.402,22.980 9.332,22.979 9.000 C 22.978 8.687,22.962 8.591,22.890 8.453 C 22.702 8.097,22.424 8.000,21.594 8.000 L 21.000 8.000 21.000 7.630 C 21.000 7.207,20.939 6.483,20.876 6.160 C 20.680 5.147,20.120 4.290,19.287 3.725 C 18.573 3.241,17.954 3.076,16.634 3.018 L 16.008 2.991 15.993 2.305 C 15.975 1.524,15.927 1.364,15.649 1.182 C 15.199 0.887,14.426 0.979,14.170 1.358 C 14.029 1.568,14.000 1.739,14.000 2.390 L 14.000 3.000 12.004 3.000 L 10.008 3.000 9.993 2.310 C 9.976 1.541,9.930 1.378,9.678 1.199 C 9.414 1.010,8.957 0.950,8.614 1.057 M17.492 5.091 C 17.893 5.188,18.109 5.309,18.400 5.600 C 18.696 5.895,18.814 6.109,18.912 6.528 C 18.974 6.795,18.980 7.256,18.980 12.000 C 18.980 16.744,18.974 17.205,18.912 17.472 C 18.814 17.891,18.696 18.104,18.400 18.401 C 18.101 18.701,17.820 18.851,17.418 18.928 C 17.011 19.004,6.989 19.004,6.582 18.927 C 6.170 18.850,5.898 18.704,5.600 18.403 C 5.303 18.104,5.186 17.890,5.088 17.472 C 5.026 17.205,5.020 16.744,5.020 12.000 C 5.020 7.256,5.026 6.795,5.088 6.528 C 5.175 6.155,5.294 5.918,5.520 5.667 C 5.883 5.262,6.281 5.091,6.980 5.039 C 7.200 5.023,9.594 5.013,12.300 5.018 C 16.701 5.025,17.249 5.033,17.492 5.091 M9.686 8.040 C 8.868 8.163,8.233 8.765,8.061 9.581 C 7.974 9.991,7.974 14.009,8.061 14.419 C 8.147 14.827,8.298 15.104,8.597 15.403 C 8.896 15.702,9.173 15.853,9.581 15.939 C 9.990 16.026,14.009 16.026,14.419 15.940 C 14.818 15.855,15.102 15.699,15.401 15.401 C 15.699 15.102,15.855 14.818,15.940 14.419 C 16.026 14.009,16.026 9.990,15.939 9.581 C 15.791 8.881,15.331 8.363,14.635 8.113 C 14.381 8.021,14.368 8.021,12.140 8.014 C 10.908 8.011,9.804 8.022,9.686 8.040 M14.000 12.000 L 14.000 14.000 12.000 14.000 L 10.000 14.000 10.000 12.000 L 10.000 10.000 12.000 10.000 L 14.000 10.000 14.000 12.000 " stroke="none" fill-rule="evenodd" fill="black"></path></svg>