<svg width="24" height="24" viewBox="0 0 24 24" fill="none" xmlns="http://www.w3.org/2000/svg"><path d="M3.749 4.045 C 2.967 4.120,2.402 4.371,1.890 4.870 C 1.491 5.260,1.236 5.731,1.094 6.340 C 1.024 6.643,1.020 6.936,1.020 12.020 L 1.020 17.380 1.111 17.735 C 1.225 18.184,1.379 18.505,1.650 18.858 C 2.032 19.355,2.587 19.714,3.244 19.887 C 3.576 19.975,3.617 19.976,7.100 19.991 C 9.676 20.002,10.677 19.994,10.833 19.960 C 11.261 19.866,11.486 19.537,11.486 19.003 C 11.486 18.656,11.418 18.446,11.248 18.267 C 11.001 18.007,11.217 18.022,7.300 18.000 L 3.740 17.980 3.550 17.886 C 3.335 17.780,3.141 17.567,3.071 17.360 C 3.038 17.259,3.021 16.346,3.010 14.110 L 2.996 11.000 11.998 11.000 L 21.000 11.000 21.000 11.610 C 21.000 11.945,21.019 12.285,21.041 12.365 C 21.148 12.750,21.437 12.962,21.896 12.991 C 22.381 13.022,22.699 12.882,22.880 12.558 L 22.980 12.380 22.980 9.520 C 22.980 6.873,22.974 6.636,22.906 6.340 C 22.688 5.404,22.167 4.737,21.329 4.321 C 21.019 4.168,20.706 4.091,20.180 4.042 C 19.643 3.991,4.277 3.994,3.749 4.045 M20.374 6.074 C 20.575 6.142,20.861 6.431,20.921 6.626 C 20.950 6.720,20.976 7.211,20.989 7.890 L 21.010 9.000 12.005 9.000 L 3.000 9.000 3.000 8.130 C 3.001 7.036,3.042 6.641,3.179 6.434 C 3.333 6.201,3.547 6.080,3.866 6.042 C 4.017 6.024,7.758 6.012,12.180 6.016 C 18.671 6.021,20.250 6.032,20.374 6.074 M17.277 13.558 C 15.817 13.825,14.611 14.720,13.972 16.010 C 13.656 16.648,13.513 17.271,13.513 18.000 C 13.513 20.211,15.074 22.052,17.280 22.442 C 17.639 22.505,18.438 22.496,18.804 22.425 C 19.306 22.328,20.181 21.992,20.338 21.838 C 20.361 21.815,20.582 22.004,20.918 22.335 C 21.216 22.628,21.540 22.909,21.637 22.959 C 21.988 23.137,22.353 23.049,22.701 22.701 C 23.049 22.353,23.137 21.988,22.959 21.637 C 22.909 21.540,22.628 21.216,22.335 20.918 C 22.004 20.582,21.815 20.361,21.838 20.338 C 21.992 20.181,22.328 19.306,22.425 18.804 C 22.496 18.438,22.505 17.639,22.442 17.280 C 22.296 16.454,21.925 15.664,21.405 15.070 C 20.804 14.383,20.041 13.903,19.159 13.658 C 18.836 13.568,18.683 13.550,18.120 13.538 C 17.757 13.531,17.378 13.540,17.277 13.558 M18.817 15.633 C 19.521 15.888,20.103 16.469,20.370 17.183 C 20.446 17.388,20.458 17.499,20.458 18.000 C 20.458 18.501,20.446 18.612,20.370 18.817 C 20.140 19.432,19.659 19.974,19.110 20.235 C 18.695 20.432,18.446 20.490,18.000 20.490 C 17.554 20.490,17.305 20.432,16.890 20.235 C 16.339 19.973,15.851 19.422,15.634 18.817 C 15.526 18.518,15.488 17.830,15.559 17.470 C 15.730 16.598,16.497 15.796,17.371 15.575 C 17.699 15.492,18.520 15.525,18.817 15.633 " stroke="none" fill-rule="evenodd" fill="black"></path></svg>