<svg width="24" height="24" viewBox="0 0 24 24" fill="none" xmlns="http://www.w3.org/2000/svg"><path d="M3.749 4.045 C 2.967 4.120,2.402 4.371,1.890 4.870 C 1.491 5.260,1.236 5.731,1.094 6.340 C 1.024 6.643,1.020 6.936,1.020 12.020 L 1.020 17.380 1.111 17.735 C 1.225 18.184,1.379 18.505,1.650 18.858 C 2.031 19.355,2.586 19.713,3.244 19.887 C 3.580 19.976,3.582 19.976,7.889 19.990 C 10.788 19.999,12.250 19.990,12.353 19.962 C 12.583 19.900,12.768 19.759,12.880 19.558 C 12.967 19.402,12.980 19.332,12.979 19.000 C 12.977 18.469,12.852 18.247,12.455 18.071 C 12.365 18.031,11.403 18.016,8.040 18.000 L 3.740 17.980 3.550 17.886 C 3.335 17.780,3.141 17.567,3.071 17.360 C 3.038 17.259,3.021 16.346,3.010 14.110 L 2.996 11.000 11.998 11.000 L 21.000 11.000 21.000 12.353 C 21.000 13.867,21.018 14.006,21.249 14.229 C 21.442 14.416,21.647 14.487,22.000 14.488 C 22.530 14.491,22.866 14.261,22.960 13.833 C 22.994 13.677,23.002 12.676,22.991 10.100 C 22.976 6.665,22.974 6.572,22.891 6.260 C 22.780 5.842,22.680 5.615,22.473 5.310 C 22.184 4.882,21.811 4.560,21.329 4.321 C 21.019 4.168,20.706 4.091,20.180 4.042 C 19.643 3.991,4.277 3.994,3.749 4.045 M20.374 6.074 C 20.575 6.142,20.861 6.431,20.921 6.626 C 20.950 6.720,20.976 7.211,20.989 7.890 L 21.010 9.000 12.005 9.000 L 3.000 9.000 3.000 8.130 C 3.001 7.036,3.042 6.641,3.179 6.434 C 3.333 6.201,3.547 6.080,3.866 6.042 C 4.017 6.024,7.758 6.012,12.180 6.016 C 18.671 6.021,20.250 6.032,20.374 6.074 M15.614 17.057 C 15.377 17.131,15.212 17.261,15.109 17.453 C 15.035 17.592,15.020 17.684,15.020 18.000 C 15.020 18.331,15.033 18.403,15.120 18.558 C 15.230 18.755,15.414 18.898,15.635 18.959 C 15.832 19.014,22.168 19.014,22.365 18.959 C 22.586 18.898,22.770 18.755,22.880 18.558 C 22.967 18.402,22.980 18.332,22.979 18.000 C 22.978 17.567,22.898 17.355,22.678 17.199 C 22.398 16.999,22.411 17.000,18.984 17.003 C 16.472 17.005,15.744 17.017,15.614 17.057 " stroke="none" fill-rule="evenodd" fill="black"></path></svg>