<svg width="24" height="24" viewBox="0 0 24 24" fill="none" xmlns="http://www.w3.org/2000/svg"><path d="M3.749 4.045 C 2.967 4.120,2.402 4.371,1.890 4.870 C 1.491 5.260,1.236 5.731,1.094 6.340 C 1.024 6.643,1.020 6.936,1.020 12.020 L 1.020 17.380 1.111 17.735 C 1.225 18.184,1.379 18.505,1.650 18.858 C 2.031 19.355,2.586 19.713,3.244 19.887 C 3.580 19.976,3.582 19.976,7.889 19.990 C 10.788 19.999,12.250 19.990,12.353 19.962 C 12.583 19.900,12.768 19.759,12.880 19.558 C 12.967 19.402,12.980 19.332,12.979 19.000 C 12.977 18.469,12.852 18.247,12.455 18.071 C 12.365 18.031,11.403 18.016,8.040 18.000 L 3.740 17.980 3.550 17.886 C 3.335 17.780,3.141 17.567,3.071 17.360 C 3.038 17.259,3.021 16.346,3.010 14.110 L 2.996 11.000 11.998 11.000 L 21.000 11.000 21.000 11.610 C 21.000 11.945,21.019 12.285,21.041 12.365 C 21.148 12.750,21.437 12.962,21.896 12.991 C 22.381 13.022,22.699 12.882,22.880 12.558 L 22.980 12.380 22.980 9.520 C 22.980 6.873,22.974 6.636,22.906 6.340 C 22.688 5.404,22.167 4.737,21.329 4.321 C 21.019 4.168,20.706 4.091,20.180 4.042 C 19.643 3.991,4.277 3.994,3.749 4.045 M20.374 6.074 C 20.575 6.142,20.861 6.431,20.921 6.626 C 20.950 6.720,20.976 7.211,20.989 7.890 L 21.010 9.000 12.005 9.000 L 3.000 9.000 3.000 8.130 C 3.001 7.036,3.042 6.641,3.179 6.434 C 3.333 6.201,3.547 6.080,3.866 6.042 C 4.017 6.024,7.758 6.012,12.180 6.016 C 18.671 6.021,20.250 6.032,20.374 6.074 M21.620 15.046 C 21.525 15.095,20.753 15.834,19.731 16.853 L 18.001 18.577 17.271 17.854 C 16.856 17.444,16.467 17.094,16.372 17.045 C 16.021 16.868,15.640 16.958,15.299 17.299 C 14.952 17.646,14.863 18.010,15.040 18.363 C 15.162 18.607,17.393 20.838,17.637 20.960 C 17.868 21.076,18.132 21.076,18.363 20.961 C 18.486 20.899,19.197 20.215,20.706 18.706 C 22.215 17.197,22.899 16.486,22.961 16.363 C 23.137 16.010,23.048 15.645,22.701 15.299 C 22.361 14.959,21.967 14.867,21.620 15.046 " stroke="none" fill-rule="evenodd" fill="black"></path></svg>