<svg width="24" height="24" viewBox="0 0 24 24" fill="none" xmlns="http://www.w3.org/2000/svg"><path d="M3.749 4.045 C 2.967 4.120,2.402 4.371,1.890 4.870 C 1.491 5.260,1.236 5.731,1.094 6.340 C 1.024 6.643,1.020 6.936,1.020 12.020 L 1.020 17.380 1.111 17.735 C 1.225 18.184,1.379 18.505,1.650 18.858 C 2.031 19.355,2.586 19.713,3.244 19.887 C 3.580 19.976,3.582 19.976,7.889 19.990 C 10.788 19.999,12.250 19.990,12.353 19.962 C 12.583 19.900,12.768 19.759,12.880 19.558 C 12.967 19.402,12.980 19.332,12.979 19.000 C 12.977 18.469,12.852 18.247,12.455 18.071 C 12.365 18.031,11.403 18.016,8.040 18.000 L 3.740 17.980 3.550 17.886 C 3.335 17.780,3.141 17.567,3.071 17.360 C 3.038 17.259,3.021 16.346,3.010 14.110 L 2.996 11.000 11.998 11.000 L 21.000 11.000 21.000 11.610 C 21.000 11.945,21.019 12.285,21.041 12.365 C 21.148 12.750,21.437 12.962,21.896 12.991 C 22.381 13.022,22.699 12.882,22.880 12.558 L 22.980 12.380 22.980 9.520 C 22.980 6.873,22.974 6.636,22.906 6.340 C 22.688 5.404,22.167 4.737,21.329 4.321 C 21.019 4.168,20.706 4.091,20.180 4.042 C 19.643 3.991,4.277 3.994,3.749 4.045 M20.374 6.074 C 20.575 6.142,20.861 6.431,20.921 6.626 C 20.950 6.720,20.976 7.211,20.989 7.890 L 21.010 9.000 12.005 9.000 L 3.000 9.000 3.000 8.130 C 3.001 7.036,3.042 6.641,3.179 6.434 C 3.333 6.201,3.547 6.080,3.866 6.042 C 4.017 6.024,7.758 6.012,12.180 6.016 C 18.671 6.021,20.250 6.032,20.374 6.074 M18.614 14.057 C 18.377 14.131,18.212 14.261,18.109 14.453 C 18.021 14.618,18.020 14.640,18.009 16.596 L 17.997 18.572 17.269 17.852 C 16.856 17.443,16.467 17.094,16.372 17.045 C 16.021 16.868,15.640 16.958,15.299 17.299 C 14.952 17.646,14.863 18.011,15.040 18.363 C 15.099 18.480,15.635 19.051,16.635 20.062 C 17.463 20.899,18.174 21.634,18.216 21.697 C 18.318 21.850,18.762 22.049,19.000 22.049 C 19.238 22.049,19.682 21.850,19.784 21.697 C 19.826 21.634,20.537 20.899,21.365 20.062 C 22.365 19.051,22.901 18.480,22.960 18.363 C 23.137 18.011,23.048 17.646,22.701 17.299 C 22.360 16.958,21.979 16.868,21.628 17.045 C 21.533 17.094,21.144 17.443,20.732 17.851 L 20.004 18.572 19.992 16.596 C 19.980 14.640,19.979 14.618,19.891 14.453 C 19.842 14.362,19.746 14.247,19.678 14.199 C 19.414 14.010,18.957 13.950,18.614 14.057 " stroke="none" fill-rule="evenodd" fill="black"></path></svg>