<svg width="24" height="24" viewBox="0 0 24 24" fill="none" xmlns="http://www.w3.org/2000/svg"><path d="M3.749 3.045 C 2.967 3.120,2.402 3.371,1.890 3.870 C 1.491 4.260,1.236 4.731,1.094 5.340 C 1.024 5.643,1.020 5.936,1.020 11.020 L 1.020 16.380 1.111 16.735 C 1.225 17.184,1.379 17.505,1.650 17.858 C 2.034 18.358,2.596 18.720,3.244 18.883 C 3.713 19.001,5.544 19.045,5.883 18.947 C 6.289 18.829,6.486 18.519,6.486 18.000 C 6.486 17.656,6.418 17.445,6.248 17.267 C 6.035 17.043,5.952 17.028,4.800 17.002 C 3.800 16.979,3.729 16.973,3.550 16.885 C 3.335 16.781,3.141 16.568,3.071 16.360 C 3.038 16.259,3.021 15.346,3.010 13.110 L 2.996 10.000 12.000 10.000 L 21.004 10.000 20.990 13.110 C 20.979 15.346,20.962 16.259,20.929 16.360 C 20.859 16.568,20.665 16.781,20.450 16.885 C 20.271 16.972,20.198 16.979,19.200 17.002 C 18.049 17.029,17.963 17.045,17.752 17.267 C 17.584 17.443,17.513 17.658,17.512 17.997 C 17.510 18.512,17.711 18.829,18.117 18.947 C 18.300 19.000,18.500 19.006,19.377 18.989 C 20.715 18.962,21.094 18.878,21.679 18.481 C 22.323 18.044,22.722 17.451,22.906 16.660 C 22.976 16.357,22.980 16.064,22.980 11.000 C 22.980 5.936,22.976 5.643,22.906 5.340 C 22.688 4.404,22.167 3.737,21.329 3.321 C 21.019 3.168,20.706 3.091,20.180 3.042 C 19.643 2.991,4.277 2.994,3.749 3.045 M20.374 5.074 C 20.575 5.142,20.861 5.431,20.921 5.626 C 20.950 5.720,20.976 6.211,20.989 6.890 L 21.010 8.000 12.005 8.000 L 3.000 8.000 3.000 7.130 C 3.001 6.036,3.042 5.641,3.179 5.434 C 3.333 5.201,3.547 5.080,3.866 5.042 C 4.017 5.024,7.758 5.012,12.180 5.016 C 18.671 5.021,20.250 5.032,20.374 5.074 M11.530 12.085 C 11.392 12.152,11.248 12.254,11.210 12.311 C 11.171 12.369,10.463 13.101,9.635 13.938 C 8.635 14.949,8.099 15.520,8.040 15.637 C 7.863 15.989,7.952 16.354,8.299 16.701 C 8.646 17.048,9.012 17.137,9.363 16.959 C 9.469 16.905,9.832 16.580,10.270 16.147 L 11.000 15.425 11.000 17.822 C 11.000 19.305,11.016 20.275,11.041 20.365 C 11.148 20.750,11.437 20.962,11.896 20.991 C 12.381 21.022,12.699 20.882,12.880 20.558 L 12.980 20.380 12.991 17.904 L 13.003 15.428 13.731 16.148 C 14.168 16.581,14.531 16.905,14.637 16.959 C 14.988 17.137,15.354 17.048,15.701 16.701 C 16.048 16.354,16.137 15.989,15.960 15.637 C 15.901 15.520,15.365 14.949,14.365 13.938 C 13.537 13.101,12.829 12.369,12.790 12.311 C 12.752 12.254,12.604 12.151,12.460 12.083 C 12.113 11.919,11.873 11.920,11.530 12.085 " stroke="none" fill-rule="evenodd" fill="black"></path></svg>