<svg width="24" height="24" viewBox="0 0 24 24" fill="none" xmlns="http://www.w3.org/2000/svg"><path d="M10.626 2.045 C 10.420 2.154,10.146 2.433,10.038 2.644 C 9.856 3.002,9.945 3.326,10.344 3.757 L 10.569 4.000 7.414 4.000 C 4.253 4.000,3.618 4.022,3.141 4.145 C 2.514 4.307,1.910 4.744,1.523 5.315 C 1.315 5.621,1.194 5.912,1.094 6.340 C 1.024 6.643,1.020 6.936,1.020 12.020 L 1.020 17.380 1.111 17.735 C 1.225 18.184,1.379 18.505,1.650 18.858 C 2.033 19.356,2.591 19.716,3.244 19.885 C 3.559 19.967,3.694 19.973,5.383 19.990 C 6.605 20.001,7.238 19.993,7.347 19.964 C 7.583 19.900,7.767 19.760,7.880 19.558 C 7.967 19.402,7.980 19.332,7.979 19.000 C 7.977 18.469,7.850 18.243,7.455 18.072 C 7.371 18.036,6.851 18.016,5.540 18.001 C 3.754 17.980,3.738 17.979,3.550 17.886 C 3.335 17.780,3.141 17.567,3.071 17.360 C 3.038 17.259,3.021 16.346,3.010 14.110 L 2.996 11.000 12.000 11.000 L 21.004 11.000 20.990 14.110 C 20.979 16.346,20.962 17.259,20.929 17.360 C 20.859 17.567,20.665 17.780,20.450 17.886 L 20.260 17.980 16.844 17.991 L 13.429 18.003 13.655 17.758 C 14.055 17.326,14.145 17.002,13.962 16.644 C 13.852 16.428,13.576 16.150,13.365 16.043 C 13.150 15.933,12.849 15.934,12.628 16.045 C 12.527 16.096,12.061 16.524,11.460 17.119 C 10.910 17.662,10.399 18.149,10.324 18.200 C 10.149 18.321,9.951 18.745,9.951 19.000 C 9.951 19.238,10.150 19.682,10.303 19.784 C 10.365 19.826,10.876 20.312,11.438 20.865 C 12.522 21.931,12.678 22.049,13.000 22.049 C 13.477 22.049,14.049 21.477,14.049 21.000 C 14.049 20.761,13.939 20.549,13.658 20.245 L 13.435 20.004 16.928 19.990 C 20.336 19.976,20.428 19.974,20.740 19.891 C 21.158 19.780,21.385 19.680,21.690 19.473 C 22.324 19.044,22.722 18.449,22.906 17.660 C 22.976 17.357,22.980 17.064,22.980 12.000 C 22.980 6.936,22.976 6.643,22.906 6.340 C 22.688 5.404,22.167 4.737,21.329 4.321 C 20.794 4.056,20.262 4.000,18.276 4.000 C 16.719 4.000,16.581 4.014,16.322 4.199 C 16.139 4.329,16.030 4.573,16.009 4.900 C 15.978 5.381,16.119 5.699,16.442 5.880 L 16.620 5.980 18.420 6.005 C 19.654 6.021,20.268 6.044,20.374 6.078 C 20.573 6.140,20.861 6.429,20.921 6.626 C 20.950 6.720,20.976 7.211,20.989 7.890 L 21.010 9.000 12.000 9.000 L 2.990 9.000 3.011 7.890 C 3.024 7.211,3.050 6.720,3.079 6.626 C 3.139 6.430,3.426 6.141,3.626 6.075 C 3.744 6.036,4.567 6.021,7.176 6.010 L 10.572 5.996 10.345 6.241 C 10.061 6.549,9.951 6.760,9.951 7.000 C 9.951 7.477,10.523 8.049,11.000 8.049 C 11.322 8.049,11.478 7.931,12.562 6.865 C 13.124 6.312,13.635 5.826,13.697 5.784 C 13.850 5.682,14.049 5.238,14.049 5.000 C 14.049 4.745,13.851 4.321,13.676 4.200 C 13.601 4.149,13.090 3.662,12.540 3.119 C 11.939 2.524,11.473 2.096,11.372 2.045 C 11.152 1.934,10.835 1.934,10.626 2.045 " stroke="none" fill-rule="evenodd" fill="black"></path></svg>