<svg width="24" height="24" viewBox="0 0 24 24" fill="none" xmlns="http://www.w3.org/2000/svg"><path d="M5.614 1.057 C 5.377 1.131,5.212 1.261,5.109 1.453 C 5.022 1.617,5.020 1.650,5.008 3.310 L 4.997 5.000 3.405 5.000 C 1.710 5.000,1.584 5.012,1.322 5.199 C 1.100 5.357,1.020 5.568,1.020 6.000 C 1.020 6.331,1.033 6.403,1.120 6.558 C 1.230 6.755,1.414 6.898,1.635 6.959 C 1.721 6.983,2.434 7.000,3.389 7.000 L 4.997 7.000 5.010 11.710 L 5.023 16.420 5.112 16.756 C 5.287 17.415,5.645 17.969,6.142 18.350 C 6.487 18.615,6.810 18.772,7.244 18.888 L 7.580 18.977 12.290 18.990 L 17.000 19.003 17.000 20.612 C 17.000 21.566,17.017 22.279,17.041 22.365 C 17.148 22.750,17.437 22.962,17.896 22.991 C 18.381 23.022,18.699 22.882,18.880 22.558 L 18.980 22.380 18.992 20.690 L 19.004 19.000 20.612 19.000 C 21.566 19.000,22.279 18.983,22.365 18.959 C 22.586 18.898,22.770 18.755,22.880 18.558 C 22.967 18.402,22.980 18.332,22.979 18.000 C 22.978 17.567,22.898 17.355,22.678 17.199 C 22.416 17.012,22.290 17.000,20.595 17.000 L 19.003 17.000 18.990 12.290 C 18.977 7.628,18.976 7.577,18.891 7.260 C 18.779 6.841,18.680 6.614,18.473 6.310 C 18.090 5.744,17.483 5.306,16.859 5.145 C 16.360 5.016,15.757 5.000,11.372 5.000 L 7.004 5.000 6.992 3.310 C 6.980 1.651,6.978 1.617,6.891 1.453 C 6.842 1.362,6.746 1.247,6.678 1.199 C 6.414 1.010,5.957 0.950,5.614 1.057 M16.374 7.075 C 16.572 7.141,16.859 7.428,16.925 7.626 C 16.966 7.747,16.980 8.768,16.990 12.391 L 17.003 17.002 12.372 16.991 L 7.740 16.980 7.550 16.886 C 7.335 16.781,7.141 16.568,7.071 16.360 C 7.035 16.256,7.020 15.040,7.010 11.608 L 6.997 6.997 11.608 7.010 C 15.232 7.020,16.253 7.034,16.374 7.075 " stroke="none" fill-rule="evenodd" fill="black"></path></svg>