<svg width="24" height="24" viewBox="0 0 24 24" fill="none" xmlns="http://www.w3.org/2000/svg"><path d="M5.614 1.057 C 5.377 1.131,5.212 1.261,5.109 1.453 C 5.022 1.617,5.020 1.650,5.008 3.310 L 4.997 5.000 3.405 5.000 C 1.710 5.000,1.584 5.012,1.322 5.199 C 1.100 5.357,1.020 5.568,1.020 6.000 C 1.020 6.331,1.033 6.403,1.120 6.558 C 1.230 6.755,1.414 6.898,1.635 6.959 C 1.721 6.983,2.434 7.000,3.389 7.000 L 4.997 7.000 5.010 11.710 L 5.023 16.420 5.112 16.756 C 5.287 17.415,5.645 17.969,6.142 18.350 C 6.487 18.615,6.810 18.772,7.244 18.888 L 7.580 18.977 12.290 18.990 L 17.000 19.003 17.000 20.612 C 17.000 21.566,17.017 22.279,17.041 22.365 C 17.148 22.750,17.437 22.962,17.896 22.991 C 18.381 23.022,18.699 22.882,18.880 22.558 L 18.980 22.380 18.992 20.690 L 19.004 19.000 20.612 19.000 C 21.566 19.000,22.279 18.983,22.365 18.959 C 22.586 18.898,22.770 18.755,22.880 18.558 C 22.967 18.402,22.980 18.332,22.979 18.000 C 22.977 17.469,22.852 17.247,22.455 17.071 C 22.364 17.031,20.834 17.016,15.040 17.000 L 7.740 16.980 7.550 16.886 C 7.336 16.781,7.142 16.568,7.070 16.360 C 7.034 16.254,7.017 14.443,7.001 8.920 L 6.980 1.620 6.891 1.453 C 6.842 1.362,6.746 1.247,6.678 1.199 C 6.414 1.010,5.957 0.950,5.614 1.057 M9.614 5.057 C 9.223 5.180,9.039 5.436,9.009 5.900 C 8.978 6.381,9.119 6.699,9.442 6.880 L 9.620 6.980 12.920 7.003 C 15.414 7.020,16.258 7.038,16.374 7.076 C 16.572 7.140,16.860 7.428,16.924 7.626 C 16.962 7.742,16.980 8.586,16.997 11.080 L 17.020 14.380 17.120 14.558 C 17.287 14.856,17.572 15.000,18.000 15.000 C 18.428 15.000,18.713 14.856,18.880 14.558 L 18.980 14.380 18.980 11.020 C 18.980 7.886,18.975 7.638,18.906 7.340 C 18.688 6.404,18.167 5.737,17.329 5.321 C 16.731 5.025,16.371 5.000,12.760 5.003 C 10.432 5.005,9.744 5.017,9.614 5.057 " stroke="none" fill-rule="evenodd" fill="black"></path></svg>