<svg width="24" height="24" viewBox="0 0 24 24" fill="none" xmlns="http://www.w3.org/2000/svg"><path d="M7.483 1.999 C 7.137 2.084,6.002 2.753,5.295 3.288 C 4.781 3.678,3.955 4.474,3.541 4.979 C 2.224 6.585,1.445 8.339,1.118 10.435 C 0.943 11.555,0.990 13.384,1.207 13.888 C 1.369 14.264,1.684 14.429,2.154 14.386 C 2.474 14.356,2.798 14.210,2.932 14.034 C 3.104 13.808,3.126 13.607,3.055 12.914 C 2.809 10.523,3.547 8.099,5.081 6.260 C 5.850 5.338,6.712 4.640,7.840 4.025 C 8.326 3.760,8.398 3.706,8.537 3.500 C 8.733 3.212,8.648 2.700,8.338 2.294 C 8.146 2.042,7.797 1.921,7.483 1.999 M16.087 1.999 C 15.872 2.051,15.672 2.243,15.510 2.556 C 15.262 3.035,15.312 3.442,15.653 3.724 C 15.701 3.763,15.929 3.899,16.160 4.025 C 17.288 4.640,18.150 5.338,18.919 6.260 C 20.448 8.093,21.181 10.493,20.945 12.895 C 20.867 13.689,20.893 13.856,21.135 14.096 C 21.314 14.276,21.520 14.357,21.880 14.389 C 22.315 14.428,22.636 14.253,22.792 13.890 C 22.930 13.570,23.015 12.603,22.986 11.700 C 22.889 8.752,21.717 6.103,19.615 4.083 C 18.814 3.313,17.958 2.702,17.020 2.228 C 16.565 1.999,16.330 1.941,16.087 1.999 M11.652 5.255 C 11.538 5.284,11.345 5.368,11.224 5.441 C 11.075 5.532,10.126 6.455,8.247 8.337 C 5.671 10.918,5.481 11.118,5.355 11.379 C 5.234 11.629,5.220 11.694,5.220 12.000 C 5.220 12.306,5.234 12.371,5.355 12.621 C 5.481 12.882,5.668 13.078,8.295 15.705 C 10.922 18.332,11.118 18.519,11.379 18.645 C 11.629 18.766,11.694 18.780,12.000 18.780 C 12.306 18.780,12.371 18.766,12.621 18.645 C 12.882 18.519,13.078 18.332,15.705 15.705 C 18.332 13.078,18.519 12.882,18.645 12.621 C 18.766 12.371,18.780 12.306,18.780 12.000 C 18.780 11.694,18.766 11.630,18.645 11.379 C 18.519 11.118,18.330 10.919,15.785 8.368 C 14.179 6.758,12.964 5.571,12.827 5.479 C 12.465 5.236,12.044 5.155,11.652 5.255 M14.300 9.720 L 16.580 12.000 14.290 14.290 L 12.000 16.580 9.710 14.290 L 7.420 12.000 9.700 9.720 C 10.954 8.466,11.989 7.440,12.000 7.440 C 12.011 7.440,13.046 8.466,14.300 9.720 M5.805 19.091 C 5.478 19.196,5.080 19.766,5.080 20.129 C 5.080 20.493,5.274 20.734,5.900 21.148 C 7.346 22.104,8.922 22.686,10.720 22.927 C 11.212 22.992,12.788 22.992,13.280 22.927 C 15.078 22.686,16.654 22.104,18.100 21.148 C 18.726 20.734,18.920 20.493,18.920 20.129 C 18.920 19.734,18.514 19.185,18.146 19.082 C 17.831 18.993,17.661 19.047,17.092 19.418 C 16.445 19.839,15.943 20.106,15.366 20.338 C 12.555 21.466,9.461 21.132,6.920 19.426 C 6.344 19.040,6.150 18.981,5.805 19.091 " stroke="none" fill-rule="evenodd" fill="black"></path></svg>