<svg width="24" height="24" viewBox="0 0 24 24" fill="none" xmlns="http://www.w3.org/2000/svg"><path d="M1.626 1.045 C 1.420 1.154,1.146 1.433,1.038 1.644 C 0.924 1.868,0.924 2.132,1.040 2.363 C 1.162 2.607,3.393 4.838,3.637 4.960 C 3.990 5.137,4.354 5.048,4.701 4.701 C 5.048 4.354,5.137 3.990,4.960 3.637 C 4.842 3.400,2.608 1.162,2.372 1.044 C 2.152 0.934,1.835 0.935,1.626 1.045 M21.620 1.046 C 21.390 1.165,19.153 3.411,19.040 3.637 C 18.863 3.990,18.952 4.354,19.299 4.701 C 19.646 5.048,20.010 5.137,20.363 4.960 C 20.607 4.838,22.838 2.607,22.960 2.363 C 23.137 2.010,23.048 1.646,22.701 1.299 C 22.361 0.959,21.967 0.867,21.620 1.046 M7.614 1.057 C 7.377 1.131,7.212 1.261,7.109 1.453 C 7.025 1.611,7.019 1.676,7.007 2.620 C 6.991 3.761,7.019 3.967,7.213 4.189 C 7.398 4.400,7.626 4.487,7.997 4.488 C 8.368 4.490,8.599 4.402,8.787 4.189 C 8.982 3.967,9.009 3.761,8.994 2.620 C 8.981 1.677,8.975 1.611,8.891 1.453 C 8.842 1.362,8.746 1.247,8.678 1.199 C 8.414 1.010,7.957 0.950,7.614 1.057 M15.614 1.057 C 15.377 1.131,15.212 1.261,15.109 1.453 C 15.020 1.619,15.020 1.629,15.009 3.911 C 15.001 5.392,15.012 6.256,15.039 6.355 C 15.144 6.747,15.433 6.961,15.896 6.991 C 16.381 7.022,16.699 6.882,16.880 6.558 L 16.980 6.380 16.980 4.000 L 16.980 1.620 16.891 1.453 C 16.842 1.362,16.746 1.247,16.678 1.199 C 16.414 1.010,15.957 0.950,15.614 1.057 M1.614 7.057 C 1.377 7.131,1.212 7.261,1.109 7.453 C 1.035 7.592,1.020 7.684,1.020 8.000 C 1.020 8.331,1.033 8.403,1.120 8.558 C 1.230 8.755,1.414 8.898,1.635 8.959 C 1.831 9.014,6.169 9.014,6.365 8.959 C 6.586 8.898,6.770 8.755,6.880 8.558 C 6.967 8.402,6.980 8.332,6.979 8.000 C 6.978 7.567,6.898 7.355,6.678 7.199 C 6.406 7.005,6.336 7.000,3.984 7.003 C 2.293 7.005,1.741 7.017,1.614 7.057 M11.400 7.044 C 9.761 7.229,8.261 8.290,7.526 9.785 C 7.158 10.533,7.020 11.136,7.020 12.000 C 7.020 12.670,7.078 13.044,7.268 13.600 C 7.846 15.291,9.253 16.525,11.040 16.907 C 11.511 17.008,12.489 17.008,12.960 16.907 C 14.488 16.580,15.748 15.630,16.433 14.288 C 16.838 13.494,16.980 12.899,16.980 12.000 C 16.980 11.101,16.838 10.506,16.433 9.713 C 15.794 8.461,14.604 7.510,13.240 7.162 C 12.669 7.016,12.019 6.974,11.400 7.044 M20.180 7.039 C 19.715 7.159,19.514 7.447,19.512 7.997 C 19.510 8.501,19.711 8.827,20.096 8.941 C 20.332 9.011,22.126 9.026,22.365 8.959 C 22.586 8.898,22.770 8.755,22.880 8.558 C 22.967 8.402,22.980 8.332,22.979 8.000 C 22.978 7.567,22.898 7.355,22.678 7.199 C 22.434 7.025,22.249 7.000,21.244 7.004 C 20.725 7.006,20.246 7.022,20.180 7.039 M12.861 9.129 C 13.804 9.405,14.584 10.183,14.875 11.139 C 14.958 11.412,14.973 11.542,14.973 12.000 C 14.973 12.458,14.958 12.588,14.875 12.861 C 14.588 13.803,13.845 14.555,12.887 14.872 C 12.620 14.961,12.508 14.974,12.020 14.977 C 11.539 14.980,11.418 14.967,11.160 14.886 C 10.180 14.580,9.418 13.822,9.125 12.861 C 9.042 12.588,9.027 12.458,9.027 12.000 C 9.027 11.542,9.042 11.412,9.125 11.139 C 9.456 10.054,10.371 9.245,11.499 9.040 C 11.832 8.980,12.500 9.023,12.861 9.129 M1.614 15.057 C 1.377 15.131,1.212 15.261,1.109 15.453 C 1.035 15.592,1.020 15.684,1.020 16.000 C 1.020 16.331,1.033 16.403,1.120 16.558 C 1.230 16.755,1.414 16.898,1.635 16.959 C 1.874 17.026,3.668 17.011,3.904 16.941 C 4.290 16.827,4.486 16.508,4.486 15.997 C 4.486 15.491,4.303 15.196,3.909 15.064 C 3.658 14.980,1.877 14.975,1.614 15.057 M17.614 15.057 C 17.377 15.131,17.212 15.261,17.109 15.453 C 17.035 15.592,17.020 15.684,17.020 16.000 C 17.020 16.331,17.033 16.403,17.120 16.558 C 17.230 16.755,17.414 16.898,17.635 16.959 C 17.723 16.984,18.551 17.000,19.743 17.000 C 21.924 17.000,21.995 16.993,22.229 16.751 C 22.418 16.556,22.486 16.355,22.486 15.997 C 22.486 15.491,22.303 15.196,21.909 15.064 C 21.743 15.009,21.450 15.000,19.749 15.003 C 18.251 15.005,17.740 15.018,17.614 15.057 M7.614 17.057 C 7.377 17.131,7.212 17.261,7.109 17.453 C 7.020 17.619,7.020 17.629,7.009 19.911 C 7.001 21.392,7.012 22.256,7.039 22.355 C 7.144 22.747,7.433 22.961,7.896 22.991 C 8.381 23.022,8.699 22.882,8.880 22.558 L 8.980 22.380 8.980 20.000 L 8.980 17.620 8.891 17.453 C 8.842 17.362,8.746 17.247,8.678 17.199 C 8.414 17.010,7.957 16.950,7.614 17.057 M3.620 19.046 C 3.390 19.165,1.153 21.411,1.040 21.637 C 0.863 21.990,0.952 22.354,1.299 22.701 C 1.646 23.048,2.010 23.137,2.363 22.960 C 2.607 22.838,4.838 20.607,4.960 20.363 C 5.137 20.010,5.048 19.646,4.701 19.299 C 4.361 18.959,3.967 18.867,3.620 19.046 M19.626 19.045 C 19.420 19.154,19.146 19.433,19.038 19.644 C 18.924 19.868,18.924 20.132,19.040 20.363 C 19.162 20.607,21.393 22.838,21.637 22.960 C 21.990 23.137,22.354 23.048,22.701 22.701 C 23.048 22.354,23.137 21.990,22.960 21.637 C 22.842 21.400,20.608 19.162,20.372 19.044 C 20.152 18.934,19.835 18.935,19.626 19.045 M15.545 19.579 C 15.320 19.659,15.128 19.863,15.059 20.096 C 14.989 20.332,14.974 22.126,15.041 22.365 C 15.148 22.750,15.437 22.962,15.896 22.991 C 16.381 23.022,16.699 22.882,16.880 22.558 C 16.978 22.383,16.980 22.363,16.993 21.350 C 17.008 20.139,16.982 19.981,16.723 19.748 C 16.637 19.669,16.497 19.586,16.413 19.563 C 16.200 19.504,15.731 19.513,15.545 19.579 " stroke="none" fill-rule="evenodd" fill="black"></path></svg>