<svg width="24" height="24" viewBox="0 0 24 24" fill="none" xmlns="http://www.w3.org/2000/svg"><path d="M7.483 1.999 C 7.137 2.084,6.002 2.753,5.295 3.288 C 4.781 3.678,3.955 4.474,3.541 4.979 C 2.224 6.585,1.445 8.339,1.118 10.435 C 0.943 11.555,0.990 13.384,1.207 13.888 C 1.369 14.264,1.684 14.429,2.154 14.386 C 2.474 14.356,2.798 14.210,2.932 14.034 C 3.104 13.808,3.126 13.607,3.055 12.914 C 2.809 10.523,3.547 8.099,5.081 6.260 C 5.850 5.338,6.712 4.640,7.840 4.025 C 8.326 3.760,8.398 3.706,8.537 3.500 C 8.733 3.212,8.648 2.700,8.338 2.294 C 8.146 2.042,7.797 1.921,7.483 1.999 M16.087 1.999 C 15.872 2.051,15.672 2.243,15.510 2.556 C 15.262 3.035,15.312 3.442,15.653 3.724 C 15.701 3.763,15.929 3.899,16.160 4.025 C 17.288 4.640,18.150 5.338,18.919 6.260 C 20.448 8.093,21.181 10.493,20.945 12.895 C 20.867 13.689,20.893 13.856,21.135 14.096 C 21.314 14.276,21.520 14.357,21.880 14.389 C 22.315 14.428,22.636 14.253,22.792 13.890 C 22.930 13.570,23.015 12.603,22.986 11.700 C 22.889 8.752,21.717 6.103,19.615 4.083 C 18.814 3.313,17.958 2.702,17.020 2.228 C 16.565 1.999,16.330 1.941,16.087 1.999 M11.020 5.580 C 8.196 6.031,6.006 8.220,5.577 11.020 C 5.498 11.533,5.498 12.467,5.577 12.980 C 5.746 14.086,6.231 15.188,6.933 16.060 C 8.177 17.608,10.011 18.486,12.000 18.486 C 14.497 18.486,16.705 17.111,17.835 14.852 C 18.265 13.993,18.487 13.013,18.485 11.980 C 18.479 8.755,16.155 6.071,12.940 5.577 C 12.498 5.509,11.456 5.511,11.020 5.580 M13.160 7.657 C 13.601 7.779,14.323 8.121,14.640 8.358 C 14.944 8.586,15.372 9.010,15.609 9.320 C 15.877 9.670,16.214 10.372,16.349 10.860 C 16.451 11.230,16.459 11.315,16.459 12.000 C 16.459 12.686,16.451 12.769,16.349 13.138 C 15.989 14.427,15.153 15.452,13.990 16.028 C 12.376 16.826,10.409 16.577,9.070 15.405 C 8.377 14.799,7.903 14.041,7.651 13.138 C 7.549 12.769,7.541 12.686,7.541 12.000 C 7.541 11.315,7.549 11.230,7.651 10.860 C 7.786 10.374,8.122 9.672,8.390 9.320 C 9.095 8.394,10.118 7.767,11.260 7.561 C 11.370 7.541,11.757 7.531,12.120 7.538 C 12.681 7.550,12.837 7.568,13.160 7.657 M5.805 19.091 C 5.478 19.196,5.080 19.766,5.080 20.129 C 5.080 20.493,5.274 20.734,5.900 21.148 C 7.346 22.104,8.922 22.686,10.720 22.927 C 11.212 22.992,12.788 22.992,13.280 22.927 C 15.078 22.686,16.654 22.104,18.100 21.148 C 18.726 20.734,18.920 20.493,18.920 20.129 C 18.920 19.734,18.514 19.185,18.146 19.082 C 17.831 18.993,17.661 19.047,17.092 19.418 C 16.445 19.839,15.943 20.106,15.366 20.338 C 12.555 21.466,9.461 21.132,6.920 19.426 C 6.344 19.040,6.150 18.981,5.805 19.091 " stroke="none" fill-rule="evenodd" fill="black"></path></svg>