<svg width="24" height="24" viewBox="0 0 24 24" fill="none" xmlns="http://www.w3.org/2000/svg"><path d="M11.280 1.023 C 11.203 1.032,10.951 1.059,10.720 1.083 C 9.527 1.210,8.337 1.558,7.180 2.120 C 6.045 2.671,5.193 3.285,4.238 4.239 C 3.277 5.198,2.643 6.080,2.097 7.220 C 0.301 10.968,0.728 15.286,3.226 18.633 C 3.701 19.269,4.753 20.316,5.400 20.797 C 9.364 23.745,14.666 23.734,18.637 20.770 C 19.246 20.316,20.316 19.246,20.770 18.637 C 23.744 14.652,23.744 9.348,20.770 5.363 C 20.316 4.755,19.247 3.686,18.640 3.235 C 17.045 2.049,15.365 1.360,13.423 1.096 C 13.000 1.038,11.574 0.990,11.280 1.023 M13.320 3.101 C 15.883 3.488,18.124 4.931,19.560 7.120 C 19.863 7.583,20.303 8.479,20.492 9.020 C 20.838 10.013,20.977 10.865,20.977 12.000 C 20.977 13.493,20.720 14.621,20.080 15.940 C 19.375 17.394,18.311 18.607,16.927 19.532 C 16.138 20.060,14.876 20.588,13.908 20.797 C 11.266 21.366,8.479 20.708,6.370 19.019 C 4.857 17.807,3.722 16.029,3.267 14.160 C 3.081 13.397,3.023 12.888,3.023 12.000 C 3.023 10.507,3.280 9.379,3.920 8.060 C 4.971 5.891,6.877 4.221,9.160 3.466 C 9.865 3.233,10.432 3.118,11.340 3.024 C 11.662 2.991,12.911 3.039,13.320 3.101 M9.614 5.057 C 9.376 5.132,9.211 5.261,9.111 5.453 C 9.040 5.588,9.021 5.706,9.007 6.070 L 8.991 6.520 8.366 6.520 C 7.644 6.520,7.493 6.552,7.277 6.747 C 6.919 7.071,6.904 7.895,7.249 8.229 C 7.440 8.414,7.626 8.476,8.078 8.506 L 8.480 8.532 8.480 12.026 L 8.480 15.520 8.110 15.520 C 7.648 15.521,7.476 15.567,7.277 15.747 C 6.919 16.071,6.904 16.895,7.249 17.229 C 7.476 17.449,7.630 17.489,8.350 17.511 L 9.000 17.531 9.000 17.876 C 9.000 18.065,9.019 18.285,9.041 18.365 C 9.148 18.750,9.437 18.962,9.896 18.991 C 10.380 19.022,10.700 18.881,10.877 18.561 C 10.959 18.413,10.978 18.314,10.992 17.952 L 11.010 17.520 11.505 17.520 L 12.000 17.520 12.000 17.870 C 12.000 18.063,12.019 18.285,12.041 18.365 C 12.148 18.750,12.437 18.962,12.896 18.991 C 13.380 19.022,13.700 18.881,13.877 18.561 C 13.959 18.413,13.978 18.314,13.992 17.958 L 14.010 17.533 14.480 17.487 C 14.738 17.461,15.074 17.403,15.225 17.357 C 16.191 17.063,17.073 16.179,17.357 15.220 C 17.692 14.086,17.411 12.873,16.621 12.046 L 16.329 11.740 16.427 11.600 C 16.600 11.354,16.797 10.933,16.889 10.612 C 16.962 10.355,16.978 10.201,16.977 9.740 C 16.977 9.162,16.955 9.032,16.775 8.552 C 16.522 7.878,15.874 7.177,15.180 6.829 C 14.920 6.699,14.515 6.575,14.233 6.540 L 14.010 6.512 13.992 6.066 C 13.971 5.546,13.892 5.341,13.649 5.182 C 13.199 4.887,12.426 4.979,12.170 5.358 C 12.040 5.552,12.000 5.734,12.000 6.150 L 12.000 6.520 11.505 6.520 L 11.010 6.520 10.992 6.070 C 10.972 5.562,10.897 5.354,10.678 5.199 C 10.414 5.010,9.957 4.950,9.614 5.057 M14.302 8.627 C 14.524 8.746,14.761 8.992,14.880 9.225 C 15.027 9.517,15.022 9.974,14.868 10.289 C 14.730 10.569,14.465 10.810,14.174 10.919 C 13.968 10.996,13.868 11.000,12.238 11.000 L 10.520 11.000 10.520 9.758 L 10.520 8.517 12.330 8.528 C 14.099 8.540,14.144 8.542,14.302 8.627 M14.775 13.119 C 15.219 13.346,15.445 13.691,15.472 14.184 C 15.488 14.475,15.478 14.535,15.378 14.756 C 15.247 15.050,14.970 15.318,14.690 15.425 C 14.518 15.490,14.309 15.498,12.510 15.511 L 10.520 15.525 10.520 14.261 L 10.520 12.997 12.550 13.008 L 14.580 13.020 14.775 13.119 " stroke="none" fill-rule="evenodd" fill="black"></path></svg>