<svg width="24" height="24" viewBox="0 0 24 24" fill="none" xmlns="http://www.w3.org/2000/svg"><path d="M11.280 1.023 C 11.203 1.032,10.951 1.059,10.720 1.083 C 9.527 1.210,8.337 1.558,7.180 2.120 C 6.045 2.671,5.193 3.285,4.238 4.239 C 3.277 5.198,2.643 6.080,2.097 7.220 C 0.301 10.968,0.728 15.286,3.226 18.633 C 3.701 19.269,4.753 20.316,5.400 20.797 C 9.364 23.745,14.666 23.734,18.637 20.770 C 19.246 20.316,20.316 19.246,20.770 18.637 C 23.744 14.652,23.744 9.348,20.770 5.363 C 20.316 4.755,19.247 3.686,18.640 3.235 C 17.045 2.049,15.365 1.360,13.423 1.096 C 13.000 1.038,11.574 0.990,11.280 1.023 M13.320 3.101 C 15.883 3.488,18.124 4.931,19.560 7.120 C 19.863 7.583,20.303 8.479,20.492 9.020 C 20.838 10.013,20.977 10.865,20.977 12.000 C 20.977 13.493,20.720 14.621,20.080 15.940 C 19.375 17.394,18.311 18.607,16.927 19.532 C 16.138 20.060,14.876 20.588,13.908 20.797 C 11.266 21.366,8.479 20.708,6.370 19.019 C 4.857 17.807,3.722 16.029,3.267 14.160 C 3.081 13.397,3.023 12.888,3.023 12.000 C 3.023 10.507,3.280 9.379,3.920 8.060 C 4.971 5.891,6.877 4.221,9.160 3.466 C 9.865 3.233,10.432 3.118,11.340 3.024 C 11.662 2.991,12.911 3.039,13.320 3.101 M7.600 6.080 C 7.330 6.232,7.183 6.369,7.052 6.591 C 6.911 6.829,6.931 7.191,7.097 7.443 C 7.160 7.538,7.821 8.377,8.566 9.308 L 9.921 11.000 8.867 11.000 C 7.746 11.000,7.569 11.023,7.322 11.199 C 7.100 11.357,7.020 11.568,7.020 12.000 C 7.020 12.331,7.033 12.403,7.120 12.558 C 7.230 12.755,7.414 12.898,7.635 12.959 C 7.721 12.983,8.435 13.000,9.390 13.000 L 11.000 13.000 11.000 13.498 L 11.000 13.995 9.570 14.009 C 8.007 14.023,7.981 14.027,7.752 14.267 C 7.584 14.443,7.513 14.658,7.512 14.997 C 7.510 15.348,7.582 15.556,7.771 15.751 C 7.994 15.982,8.133 16.000,9.647 16.000 L 11.000 16.000 11.000 17.110 C 11.000 17.730,11.018 18.284,11.041 18.365 C 11.148 18.750,11.437 18.962,11.896 18.991 C 12.381 19.022,12.699 18.882,12.880 18.558 C 12.979 18.381,12.980 18.374,12.993 17.190 L 13.005 16.000 14.355 16.000 C 15.867 16.000,16.006 15.982,16.229 15.751 C 16.418 15.556,16.486 15.355,16.486 14.997 C 16.486 14.491,16.303 14.196,15.909 14.064 C 15.748 14.010,15.497 14.000,14.359 14.000 L 13.000 14.000 13.000 13.500 L 13.000 13.000 14.610 13.000 C 15.565 13.000,16.279 12.983,16.365 12.959 C 16.586 12.898,16.770 12.755,16.880 12.558 C 16.967 12.402,16.980 12.332,16.979 12.000 C 16.978 11.567,16.898 11.355,16.678 11.199 C 16.431 11.023,16.254 11.000,15.133 11.000 L 14.079 11.000 15.434 9.308 C 16.179 8.377,16.840 7.538,16.903 7.443 C 17.070 7.190,17.089 6.830,16.946 6.587 C 16.819 6.369,16.620 6.192,16.351 6.056 C 16.080 5.918,15.766 5.932,15.523 6.093 C 15.414 6.166,14.804 6.896,13.695 8.281 C 12.780 9.424,12.018 10.360,12.000 10.360 C 11.982 10.360,11.220 9.424,10.305 8.281 C 9.190 6.888,8.586 6.166,8.476 6.092 C 8.351 6.010,8.251 5.980,8.065 5.970 C 7.852 5.959,7.792 5.973,7.600 6.080 " stroke="none" fill-rule="evenodd" fill="black"></path></svg>