<svg width="24" height="24" viewBox="0 0 24 24" fill="none" xmlns="http://www.w3.org/2000/svg"><path d="M8.042 2.571 C 7.860 2.630,7.618 2.876,7.554 3.067 C 7.514 3.186,7.500 4.036,7.490 6.870 L 7.477 10.520 6.853 10.520 C 6.476 10.520,6.164 10.539,6.066 10.569 C 5.848 10.634,5.616 10.871,5.557 11.088 C 5.498 11.308,5.498 11.692,5.557 11.912 C 5.615 12.126,5.859 12.378,6.067 12.441 C 6.151 12.466,6.504 12.497,6.850 12.509 L 7.480 12.531 7.480 13.525 L 7.480 14.520 6.855 14.520 C 6.477 14.520,6.165 14.539,6.066 14.569 C 5.848 14.634,5.616 14.871,5.557 15.088 C 5.498 15.308,5.498 15.692,5.557 15.912 C 5.615 16.126,5.859 16.378,6.067 16.441 C 6.151 16.466,6.502 16.497,6.848 16.509 L 7.476 16.530 7.490 18.655 C 7.501 20.220,7.518 20.820,7.555 20.933 C 7.625 21.144,7.877 21.385,8.088 21.442 C 8.518 21.558,9.007 21.473,9.238 21.242 C 9.496 20.984,9.494 21.005,9.510 18.652 L 9.524 16.524 11.652 16.510 C 14.005 16.494,13.984 16.496,14.242 16.238 C 14.411 16.069,14.494 15.815,14.491 15.479 C 14.486 15.033,14.340 14.763,14.024 14.616 L 13.820 14.521 11.670 14.520 L 9.520 14.520 9.520 13.523 L 9.520 12.526 12.290 12.508 C 15.344 12.489,15.334 12.490,16.104 12.227 C 16.824 11.982,17.411 11.623,17.962 11.093 C 19.043 10.053,19.602 8.579,19.477 7.103 C 19.434 6.599,19.382 6.353,19.221 5.880 C 19.063 5.413,18.937 5.159,18.646 4.720 C 17.969 3.695,16.922 2.968,15.640 2.632 C 15.302 2.544,15.279 2.543,11.740 2.535 C 9.203 2.529,8.140 2.540,8.042 2.571 M15.180 4.580 C 15.334 4.612,15.622 4.719,15.820 4.818 C 16.427 5.121,16.879 5.573,17.182 6.180 C 17.399 6.615,17.479 6.969,17.479 7.500 C 17.479 8.359,17.219 8.992,16.610 9.616 C 16.129 10.108,15.528 10.397,14.814 10.479 C 14.612 10.502,13.398 10.519,11.990 10.520 L 9.520 10.520 9.520 7.520 L 9.520 4.520 12.210 4.521 C 14.412 4.521,14.951 4.532,15.180 4.580 " stroke="none" fill-rule="evenodd" fill="black"></path></svg>