<svg width="24" height="24" viewBox="0 0 24 24" fill="none" xmlns="http://www.w3.org/2000/svg"><path d="M5.614 2.057 C 5.377 2.131,5.212 2.261,5.109 2.453 C 5.035 2.592,5.020 2.684,5.020 3.000 C 5.020 3.331,5.033 3.403,5.120 3.558 C 5.230 3.755,5.414 3.898,5.635 3.959 C 5.722 3.983,6.478 4.000,7.521 4.000 C 8.479 4.000,9.415 4.019,9.601 4.041 C 10.970 4.209,11.959 4.890,12.559 6.078 C 12.669 6.296,12.880 6.879,12.880 6.965 C 12.880 6.985,11.331 7.000,9.346 7.000 C 5.566 7.000,5.603 6.998,5.322 7.199 C 5.100 7.357,5.020 7.568,5.020 8.000 C 5.020 8.331,5.033 8.403,5.120 8.558 C 5.230 8.755,5.414 8.898,5.635 8.959 C 5.727 8.985,7.075 9.000,9.330 9.000 C 11.324 9.000,12.880 9.015,12.880 9.035 C 12.880 9.121,12.669 9.704,12.559 9.922 C 12.018 10.994,11.218 11.617,10.015 11.905 C 9.788 11.959,9.394 11.975,7.740 11.995 C 5.747 12.020,5.739 12.020,5.550 12.114 C 5.445 12.165,5.297 12.284,5.220 12.377 C 4.927 12.735,4.877 13.067,5.067 13.402 C 5.153 13.555,6.228 14.589,9.578 17.742 C 12.448 20.442,14.036 21.910,14.148 21.964 C 14.350 22.062,14.610 22.070,14.812 21.986 C 15.159 21.841,15.559 21.322,15.560 21.016 C 15.560 20.846,15.488 20.646,15.369 20.486 C 15.315 20.412,13.757 18.927,11.907 17.186 L 8.545 14.020 9.182 13.995 C 10.210 13.954,11.068 13.748,11.857 13.352 C 13.400 12.576,14.473 11.140,14.861 9.330 L 14.932 9.000 16.576 9.000 C 17.554 9.000,18.279 8.983,18.365 8.959 C 18.586 8.898,18.770 8.755,18.880 8.558 C 18.967 8.402,18.980 8.332,18.979 8.000 C 18.978 7.567,18.898 7.355,18.678 7.199 C 18.415 7.012,18.293 7.000,16.559 7.000 L 14.932 7.000 14.861 6.670 C 14.660 5.735,14.258 4.864,13.678 4.110 L 13.593 4.000 15.907 4.000 C 17.333 4.000,18.275 3.984,18.365 3.959 C 18.586 3.898,18.770 3.755,18.880 3.558 C 18.967 3.402,18.980 3.332,18.979 3.000 C 18.978 2.567,18.898 2.355,18.678 2.199 C 18.388 1.992,18.642 2.000,11.984 2.003 C 7.009 2.005,5.747 2.016,5.614 2.057 " stroke="none" fill-rule="evenodd" fill="black"></path></svg>