<svg width="24" height="24" viewBox="0 0 24 24" fill="none" xmlns="http://www.w3.org/2000/svg"><path d="M11.280 1.023 C 11.203 1.032,10.951 1.059,10.720 1.083 C 9.527 1.210,8.337 1.558,7.180 2.120 C 6.045 2.671,5.193 3.285,4.238 4.239 C 3.277 5.198,2.643 6.080,2.097 7.220 C 0.301 10.968,0.728 15.286,3.226 18.633 C 3.701 19.269,4.753 20.316,5.400 20.797 C 9.364 23.745,14.666 23.734,18.637 20.770 C 19.246 20.316,20.316 19.246,20.770 18.637 C 23.744 14.652,23.744 9.348,20.770 5.363 C 20.316 4.755,19.247 3.686,18.640 3.235 C 17.045 2.049,15.365 1.360,13.423 1.096 C 13.000 1.038,11.574 0.990,11.280 1.023 M13.320 3.101 C 15.883 3.488,18.124 4.931,19.560 7.120 C 19.863 7.583,20.303 8.479,20.492 9.020 C 20.838 10.013,20.977 10.865,20.977 12.000 C 20.977 13.493,20.720 14.621,20.080 15.940 C 19.375 17.394,18.311 18.607,16.927 19.532 C 16.138 20.060,14.876 20.588,13.908 20.797 C 11.266 21.366,8.479 20.708,6.370 19.019 C 4.857 17.807,3.722 16.029,3.267 14.160 C 3.081 13.397,3.023 12.888,3.023 12.000 C 3.023 10.507,3.280 9.379,3.920 8.060 C 4.971 5.891,6.877 4.221,9.160 3.466 C 9.865 3.233,10.432 3.118,11.340 3.024 C 11.662 2.991,12.911 3.039,13.320 3.101 M11.380 6.040 C 9.413 6.251,7.659 7.421,6.733 9.140 L 6.539 9.500 6.059 9.522 C 5.549 9.545,5.462 9.572,5.249 9.774 C 4.919 10.086,4.919 10.914,5.249 11.226 C 5.425 11.393,5.537 11.446,5.777 11.475 L 5.980 11.500 5.991 12.010 L 6.002 12.520 5.871 12.520 C 5.490 12.521,5.161 12.753,5.060 13.092 C 4.935 13.513,5.017 14.004,5.249 14.229 C 5.446 14.420,5.632 14.479,6.122 14.507 L 6.562 14.532 6.731 14.856 C 6.823 15.034,7.027 15.351,7.183 15.560 C 9.184 18.242,12.948 18.789,15.612 16.785 C 16.151 16.379,16.400 16.040,16.400 15.712 C 16.400 15.540,16.166 15.132,15.968 14.958 C 15.741 14.758,15.564 14.680,15.345 14.681 C 15.119 14.682,14.919 14.784,14.527 15.095 C 14.123 15.416,13.794 15.604,13.362 15.762 C 12.255 16.166,10.998 16.044,9.953 15.431 C 9.649 15.252,9.131 14.825,9.005 14.646 L 8.920 14.527 10.110 14.512 C 11.424 14.496,11.486 14.485,11.751 14.229 C 11.983 14.004,12.065 13.513,11.940 13.092 C 11.868 12.852,11.645 12.627,11.413 12.563 C 11.317 12.536,10.663 12.520,9.655 12.520 L 8.050 12.520 8.026 12.370 C 7.994 12.177,7.993 11.804,8.024 11.648 L 8.049 11.526 9.674 11.513 C 11.474 11.498,11.473 11.498,11.751 11.229 C 11.983 11.004,12.065 10.513,11.940 10.092 C 11.868 9.852,11.645 9.627,11.413 9.563 C 11.321 9.537,10.791 9.520,10.090 9.520 C 9.447 9.520,8.920 9.505,8.920 9.486 C 8.920 9.411,9.262 9.070,9.568 8.839 C 10.139 8.409,10.724 8.160,11.416 8.054 C 12.567 7.878,13.718 8.211,14.621 8.983 C 15.146 9.431,15.622 9.429,16.040 8.976 C 16.220 8.780,16.399 8.437,16.400 8.285 C 16.401 8.039,16.303 7.858,16.013 7.569 C 15.324 6.884,14.120 6.285,13.064 6.102 C 12.619 6.024,11.802 5.994,11.380 6.040 " stroke="none" fill-rule="evenodd" fill="black"></path></svg>