<svg width="24" height="24" viewBox="0 0 24 24" fill="none" xmlns="http://www.w3.org/2000/svg"><path d="M11.280 1.023 C 11.203 1.032,10.951 1.059,10.720 1.083 C 9.527 1.210,8.337 1.558,7.180 2.120 C 6.045 2.671,5.193 3.285,4.238 4.239 C 3.277 5.198,2.643 6.080,2.097 7.220 C 0.301 10.968,0.728 15.286,3.226 18.633 C 3.701 19.269,4.753 20.316,5.400 20.797 C 9.364 23.745,14.666 23.734,18.637 20.770 C 19.246 20.316,20.316 19.246,20.770 18.637 C 23.744 14.652,23.744 9.348,20.770 5.363 C 20.316 4.755,19.247 3.686,18.640 3.235 C 17.045 2.049,15.365 1.360,13.423 1.096 C 13.000 1.038,11.574 0.990,11.280 1.023 M13.320 3.101 C 15.883 3.488,18.124 4.931,19.560 7.120 C 19.863 7.583,20.303 8.479,20.492 9.020 C 20.838 10.013,20.977 10.865,20.977 12.000 C 20.977 13.493,20.720 14.621,20.080 15.940 C 19.375 17.394,18.311 18.607,16.927 19.532 C 16.138 20.060,14.876 20.588,13.908 20.797 C 11.266 21.366,8.479 20.708,6.370 19.019 C 4.857 17.807,3.722 16.029,3.267 14.160 C 3.081 13.397,3.023 12.888,3.023 12.000 C 3.023 10.507,3.280 9.379,3.920 8.060 C 4.971 5.891,6.877 4.221,9.160 3.466 C 9.865 3.233,10.432 3.118,11.340 3.024 C 11.662 2.991,12.911 3.039,13.320 3.101 M11.680 4.029 C 11.603 4.070,11.498 4.130,11.446 4.162 C 11.364 4.213,6.171 10.309,5.733 10.869 C 5.517 11.145,5.423 11.390,5.451 11.604 C 5.480 11.818,5.661 12.106,5.863 12.260 C 6.003 12.367,11.125 14.728,11.650 14.928 C 11.892 15.019,12.108 15.019,12.350 14.928 C 12.797 14.757,17.992 12.372,18.157 12.262 C 18.531 12.011,18.632 11.552,18.410 11.115 C 18.264 10.827,12.716 4.264,12.482 4.101 C 12.261 3.948,11.895 3.915,11.680 4.029 M13.954 8.857 C 15.013 10.110,15.874 11.138,15.869 11.143 C 15.827 11.179,12.040 12.880,12.000 12.880 C 11.972 12.880,11.089 12.489,10.037 12.012 L 8.125 11.143 8.193 11.054 C 8.393 10.786,11.984 6.565,12.005 6.572 C 12.019 6.576,12.896 7.605,13.954 8.857 M6.060 14.541 C 5.857 14.650,5.734 14.795,5.600 15.086 C 5.486 15.332,5.473 15.397,5.487 15.637 C 5.505 15.959,5.615 16.135,5.905 16.305 C 6.097 16.418,11.061 18.686,11.547 18.884 C 11.878 19.018,12.082 19.029,12.350 18.928 C 12.797 18.757,17.992 16.372,18.157 16.262 C 18.408 16.093,18.519 15.884,18.519 15.575 C 18.520 15.371,18.495 15.283,18.370 15.037 C 18.277 14.855,18.162 14.697,18.066 14.622 C 17.923 14.508,17.890 14.500,17.586 14.501 L 17.260 14.501 14.656 15.691 C 13.224 16.345,12.028 16.880,12.000 16.880 C 11.972 16.880,10.776 16.346,9.344 15.693 C 6.839 14.551,6.729 14.506,6.460 14.491 C 6.256 14.480,6.148 14.494,6.060 14.541 " stroke="none" fill-rule="evenodd" fill="black"></path></svg>