<svg width="24" height="24" viewBox="0 0 24 24" fill="none" xmlns="http://www.w3.org/2000/svg"><path d="M11.280 1.023 C 11.203 1.032,10.951 1.059,10.720 1.083 C 9.527 1.210,8.337 1.558,7.180 2.120 C 6.045 2.671,5.193 3.285,4.238 4.239 C 3.277 5.198,2.643 6.080,2.097 7.220 C 0.301 10.968,0.728 15.286,3.226 18.633 C 3.701 19.269,4.753 20.316,5.400 20.797 C 9.364 23.745,14.666 23.734,18.637 20.770 C 19.246 20.316,20.316 19.246,20.770 18.637 C 23.744 14.652,23.744 9.348,20.770 5.363 C 20.316 4.755,19.247 3.686,18.640 3.235 C 17.045 2.049,15.365 1.360,13.423 1.096 C 13.000 1.038,11.574 0.990,11.280 1.023 M13.320 3.101 C 15.883 3.488,18.124 4.931,19.560 7.120 C 19.863 7.583,20.303 8.479,20.492 9.020 C 20.838 10.013,20.977 10.865,20.977 12.000 C 20.977 13.493,20.720 14.621,20.080 15.940 C 19.375 17.394,18.311 18.607,16.927 19.532 C 16.138 20.060,14.876 20.588,13.908 20.797 C 11.266 21.366,8.479 20.708,6.370 19.019 C 4.857 17.807,3.722 16.029,3.267 14.160 C 3.081 13.397,3.023 12.888,3.023 12.000 C 3.023 10.507,3.280 9.379,3.920 8.060 C 4.971 5.891,6.877 4.221,9.160 3.466 C 9.865 3.233,10.432 3.118,11.340 3.024 C 11.662 2.991,12.911 3.039,13.320 3.101 M11.545 4.579 C 11.168 4.713,11.000 5.040,11.000 5.642 L 11.000 5.989 10.730 6.016 C 9.768 6.114,8.858 6.589,8.294 7.286 C 7.501 8.268,7.288 9.606,7.742 10.764 C 8.118 11.726,8.926 12.495,9.900 12.820 C 10.358 12.973,10.656 13.000,11.894 13.001 C 12.716 13.001,13.178 13.018,13.344 13.053 C 13.810 13.151,14.223 13.517,14.401 13.990 C 14.523 14.317,14.502 14.807,14.352 15.129 C 14.231 15.389,13.927 15.714,13.696 15.832 C 13.388 15.988,13.162 16.007,11.800 15.993 C 10.543 15.980,10.493 15.977,10.300 15.888 C 9.843 15.678,9.550 15.232,9.503 14.672 C 9.460 14.161,9.371 13.977,9.084 13.808 C 8.917 13.710,8.863 13.700,8.497 13.700 C 8.119 13.700,8.082 13.707,7.900 13.820 C 7.572 14.024,7.457 14.383,7.524 15.000 C 7.684 16.484,8.735 17.632,10.211 17.937 C 10.379 17.972,10.625 18.000,10.758 18.000 L 11.000 18.000 11.000 18.353 C 11.000 18.957,11.153 19.261,11.537 19.422 C 11.750 19.510,12.249 19.511,12.460 19.423 C 12.847 19.261,13.000 18.958,13.000 18.353 L 13.000 18.000 13.156 18.000 C 13.754 18.000,14.607 17.682,15.142 17.259 C 16.013 16.571,16.487 15.598,16.487 14.500 C 16.487 13.130,15.749 11.961,14.505 11.362 C 13.856 11.049,13.718 11.028,12.080 11.001 C 10.911 10.982,10.630 10.966,10.488 10.913 C 9.539 10.556,9.210 9.355,9.843 8.557 C 9.916 8.464,10.081 8.320,10.209 8.237 C 10.550 8.017,10.764 7.993,12.244 8.007 C 13.456 8.020,13.507 8.023,13.700 8.112 C 14.157 8.322,14.450 8.768,14.497 9.328 C 14.540 9.839,14.629 10.023,14.916 10.192 C 15.083 10.290,15.137 10.300,15.503 10.300 C 15.881 10.300,15.918 10.293,16.100 10.180 C 16.428 9.976,16.543 9.617,16.476 9.000 C 16.342 7.760,15.565 6.721,14.423 6.255 C 14.082 6.117,13.521 6.000,13.195 6.000 L 13.000 6.000 13.000 5.647 C 13.000 5.177,12.923 4.928,12.723 4.747 C 12.636 4.669,12.497 4.586,12.413 4.563 C 12.200 4.504,11.731 4.513,11.545 4.579 " stroke="none" fill-rule="evenodd" fill="black"></path></svg>