<svg width="24" height="24" viewBox="0 0 24 24" fill="none" xmlns="http://www.w3.org/2000/svg"><path d="M11.514 1.091 C 11.350 1.176,11.232 1.270,11.180 1.355 C 11.067 1.542,11.225 1.363,7.173 5.920 C 5.149 8.197,3.426 10.114,3.344 10.180 C 3.143 10.343,3.038 10.523,2.979 10.807 C 2.902 11.175,3.009 11.508,3.288 11.771 C 3.485 11.955,3.608 12.001,4.060 12.059 C 4.126 12.067,5.912 12.508,8.030 13.037 C 10.147 13.567,11.934 14.000,12.000 14.000 C 12.066 14.000,13.853 13.567,15.970 13.037 C 18.088 12.508,19.874 12.067,19.940 12.059 C 20.392 12.001,20.515 11.955,20.712 11.771 C 20.987 11.512,21.090 11.193,21.021 10.818 C 20.969 10.534,20.861 10.346,20.656 10.180 C 20.574 10.114,18.851 8.197,16.827 5.920 C 12.775 1.363,12.933 1.542,12.820 1.355 C 12.768 1.270,12.650 1.176,12.486 1.091 C 12.134 0.909,11.866 0.909,11.514 1.091 M11.000 6.430 L 11.000 8.221 8.971 8.728 C 7.854 9.006,6.937 9.231,6.932 9.226 C 6.924 9.217,10.970 4.645,10.990 4.642 C 10.995 4.641,11.000 5.446,11.000 6.430 M15.193 7.098 C 16.229 8.263,17.073 9.221,17.068 9.226 C 17.063 9.231,16.146 9.006,15.029 8.728 L 13.000 8.221 13.000 6.425 L 13.000 4.629 13.155 4.804 C 13.240 4.901,14.158 5.933,15.193 7.098 M13.910 10.508 C 14.950 10.767,15.800 10.989,15.800 11.000 C 15.800 11.011,14.945 11.234,13.900 11.495 L 12.000 11.969 10.100 11.495 C 9.055 11.234,8.200 11.011,8.200 11.000 C 8.200 10.980,11.842 10.052,11.960 10.043 C 11.993 10.040,12.870 10.250,13.910 10.508 M4.992 14.082 C 4.584 14.297,4.382 14.970,4.595 15.409 C 4.695 15.617,11.204 22.658,11.490 22.868 C 11.815 23.107,12.185 23.102,12.522 22.856 C 12.610 22.792,14.184 21.120,16.021 19.141 C 19.410 15.490,19.560 15.316,19.560 15.027 C 19.560 14.550,19.019 14.002,18.546 14.000 C 18.462 14.000,16.954 14.332,15.196 14.738 L 12.000 15.476 8.804 14.738 C 5.409 13.954,5.277 13.931,4.992 14.082 M10.249 17.126 C 11.113 17.327,11.901 17.491,12.000 17.491 C 12.099 17.491,12.926 17.318,13.837 17.106 C 14.748 16.894,15.499 16.726,15.505 16.732 C 15.521 16.748,12.032 20.500,12.000 20.500 C 11.980 20.500,10.081 18.468,8.585 16.845 L 8.460 16.709 8.569 16.735 C 8.628 16.749,9.384 16.925,10.249 17.126 " stroke="none" fill-rule="evenodd" fill="black"></path></svg>