<svg width="24" height="24" viewBox="0 0 24 24" fill="none" xmlns="http://www.w3.org/2000/svg"><path d="M10.900 2.576 C 9.235 2.852,8.053 3.663,7.388 4.984 C 6.976 5.802,6.798 6.945,6.933 7.903 C 7.046 8.704,7.286 9.325,7.899 10.400 C 8.094 10.741,8.349 11.207,8.466 11.436 C 8.674 11.840,8.891 12.430,8.854 12.490 C 8.844 12.507,8.249 12.520,7.532 12.520 C 6.619 12.520,6.180 12.535,6.066 12.569 C 5.848 12.634,5.616 12.871,5.557 13.088 C 5.498 13.308,5.498 13.692,5.557 13.912 C 5.615 14.124,5.857 14.376,6.067 14.444 C 6.171 14.477,6.656 14.498,7.570 14.510 C 8.313 14.519,8.920 14.539,8.920 14.553 C 8.919 14.568,8.876 14.769,8.824 15.000 C 8.462 16.597,7.580 18.075,6.174 19.440 C 5.709 19.891,5.609 20.010,5.564 20.160 C 5.499 20.377,5.497 20.686,5.559 20.915 C 5.617 21.133,5.862 21.379,6.088 21.448 C 6.356 21.529,17.617 21.524,17.897 21.443 C 18.286 21.330,18.495 20.990,18.491 20.479 C 18.486 20.033,18.340 19.763,18.024 19.616 L 17.820 19.521 13.330 19.520 C 10.861 19.520,8.840 19.510,8.840 19.498 C 8.840 19.486,8.981 19.275,9.154 19.028 C 9.769 18.152,10.221 17.263,10.535 16.311 C 10.710 15.783,10.920 14.872,10.920 14.644 L 10.920 14.524 13.110 14.512 C 15.539 14.499,15.464 14.507,15.751 14.229 C 15.983 14.004,16.065 13.513,15.940 13.092 C 15.868 12.852,15.645 12.627,15.413 12.563 C 15.314 12.535,14.498 12.520,13.097 12.520 L 10.933 12.520 10.860 12.190 C 10.685 11.405,10.400 10.743,9.737 9.580 C 9.270 8.761,9.110 8.425,9.006 8.052 C 8.702 6.955,9.037 5.677,9.775 5.120 C 10.029 4.929,10.487 4.714,10.840 4.622 C 11.189 4.530,12.168 4.494,12.600 4.558 C 13.405 4.675,14.173 4.988,14.681 5.405 C 15.164 5.802,15.437 5.881,15.780 5.725 C 16.167 5.549,16.552 4.999,16.509 4.682 C 16.461 4.322,16.154 3.963,15.547 3.556 C 14.908 3.128,14.217 2.847,13.326 2.653 C 12.933 2.568,12.731 2.550,12.040 2.538 C 11.481 2.528,11.118 2.540,10.900 2.576 " stroke="none" fill-rule="evenodd" fill="black"></path></svg>