<svg width="24" height="24" viewBox="0 0 24 24" fill="none" xmlns="http://www.w3.org/2000/svg"><path d="M11.614 1.057 C 11.377 1.131,11.212 1.261,11.109 1.453 C 11.029 1.603,11.019 1.689,11.007 2.310 L 10.993 3.000 10.415 3.000 C 8.951 3.000,8.058 3.257,7.068 3.963 C 6.067 4.677,5.364 5.771,5.093 7.040 C 4.992 7.511,4.992 8.489,5.093 8.960 C 5.523 10.967,6.994 12.452,9.000 12.901 C 9.206 12.947,9.566 12.975,10.150 12.989 L 11.000 13.009 11.000 16.009 L 11.000 19.009 10.210 18.990 C 9.536 18.974,9.379 18.958,9.140 18.882 C 8.174 18.573,7.401 17.799,7.132 16.869 C 7.083 16.698,7.025 16.343,7.003 16.082 C 6.959 15.531,6.881 15.334,6.649 15.182 C 6.198 14.887,5.426 14.979,5.170 15.358 C 5.026 15.572,4.989 15.781,5.011 16.240 C 5.124 18.516,6.730 20.393,9.000 20.901 C 9.206 20.947,9.566 20.975,10.150 20.989 L 11.000 21.009 11.000 21.614 C 11.000 21.948,11.019 22.285,11.041 22.365 C 11.148 22.750,11.437 22.962,11.896 22.991 C 12.381 23.022,12.699 22.882,12.880 22.558 C 12.974 22.391,12.981 22.338,12.994 21.694 L 13.008 21.009 13.854 20.989 C 14.983 20.962,15.468 20.851,16.286 20.433 C 17.630 19.748,18.580 18.489,18.907 16.960 C 19.008 16.489,19.008 15.511,18.907 15.040 C 18.625 13.721,17.863 12.576,16.800 11.874 C 15.809 11.218,15.005 11.000,13.582 11.000 L 13.000 11.000 13.000 7.995 L 13.000 4.991 13.770 5.010 C 14.433 5.027,14.584 5.043,14.861 5.126 C 15.812 5.413,16.598 6.199,16.869 7.134 C 16.921 7.315,16.975 7.652,16.995 7.922 C 17.023 8.299,17.049 8.428,17.125 8.565 C 17.286 8.856,17.575 9.000,18.000 9.000 C 18.428 9.000,18.713 8.856,18.880 8.558 C 18.972 8.394,18.980 8.340,18.979 7.880 C 18.978 6.314,18.128 4.752,16.800 3.874 C 15.810 3.219,15.004 3.000,13.586 3.000 L 13.008 3.000 12.993 2.310 C 12.976 1.541,12.930 1.378,12.678 1.199 C 12.414 1.010,11.957 0.950,11.614 1.057 M11.000 8.005 L 11.000 11.009 10.210 10.990 C 9.536 10.974,9.379 10.958,9.140 10.882 C 8.172 10.572,7.415 9.813,7.125 8.861 C 7.042 8.588,7.027 8.458,7.027 8.000 C 7.027 7.542,7.042 7.412,7.125 7.139 C 7.456 6.054,8.390 5.229,9.499 5.043 C 9.609 5.025,9.992 5.007,10.350 5.005 L 11.000 5.000 11.000 8.005 M14.861 13.126 C 15.812 13.413,16.584 14.185,16.875 15.139 C 16.958 15.412,16.973 15.542,16.973 16.000 C 16.973 16.458,16.958 16.588,16.875 16.861 C 16.585 17.813,15.828 18.572,14.860 18.882 C 14.621 18.958,14.464 18.974,13.790 18.990 L 13.000 19.009 13.000 16.000 L 13.000 12.991 13.770 13.010 C 14.433 13.027,14.584 13.043,14.861 13.126 " stroke="none" fill-rule="evenodd" fill="black"></path></svg>