<svg width="24" height="24" viewBox="0 0 24 24" fill="none" xmlns="http://www.w3.org/2000/svg"><path d="M11.280 1.023 C 11.203 1.032,10.951 1.059,10.720 1.083 C 9.527 1.210,8.337 1.558,7.180 2.120 C 6.045 2.671,5.193 3.285,4.238 4.239 C 3.277 5.198,2.643 6.080,2.097 7.220 C 0.301 10.968,0.728 15.286,3.226 18.633 C 3.701 19.269,4.753 20.316,5.400 20.797 C 9.364 23.745,14.666 23.734,18.637 20.770 C 19.246 20.316,20.316 19.246,20.770 18.637 C 23.744 14.652,23.744 9.348,20.770 5.363 C 20.316 4.755,19.247 3.686,18.640 3.235 C 17.045 2.049,15.365 1.360,13.423 1.096 C 13.000 1.038,11.574 0.990,11.280 1.023 M13.320 3.101 C 15.883 3.488,18.124 4.931,19.560 7.120 C 19.863 7.583,20.303 8.479,20.492 9.020 C 20.838 10.013,20.977 10.865,20.977 12.000 C 20.977 13.493,20.720 14.621,20.080 15.940 C 19.375 17.394,18.311 18.607,16.927 19.532 C 16.138 20.060,14.876 20.588,13.908 20.797 C 11.266 21.366,8.479 20.708,6.370 19.019 C 4.857 17.807,3.722 16.029,3.267 14.160 C 3.081 13.397,3.023 12.888,3.023 12.000 C 3.023 10.507,3.280 9.379,3.920 8.060 C 4.971 5.891,6.877 4.221,9.160 3.466 C 9.865 3.233,10.432 3.118,11.340 3.024 C 11.662 2.991,12.911 3.039,13.320 3.101 M8.042 5.572 C 7.846 5.635,7.613 5.882,7.557 6.088 C 7.532 6.183,7.511 6.368,7.511 6.500 C 7.511 6.632,7.532 6.817,7.557 6.912 C 7.615 7.125,7.858 7.377,8.067 7.442 C 8.159 7.471,8.689 7.501,9.400 7.519 C 10.139 7.538,10.640 7.567,10.740 7.598 C 11.064 7.699,11.440 7.929,11.652 8.158 C 11.825 8.346,12.160 8.884,12.160 8.976 C 12.160 8.989,11.288 9.000,10.221 9.000 C 8.552 9.000,8.256 9.009,8.091 9.064 C 7.699 9.195,7.509 9.499,7.510 9.998 C 7.510 10.347,7.583 10.556,7.771 10.751 C 8.004 10.992,8.079 11.000,10.227 11.000 C 11.290 11.000,12.160 11.011,12.160 11.024 C 12.160 11.037,12.094 11.175,12.012 11.329 C 11.729 11.868,11.332 12.206,10.770 12.389 C 10.478 12.484,10.392 12.492,9.320 12.516 C 8.250 12.540,8.170 12.547,8.015 12.629 C 7.706 12.793,7.466 13.181,7.462 13.523 C 7.458 13.947,7.401 13.893,10.622 16.529 C 12.278 17.885,13.609 18.946,13.699 18.982 C 14.053 19.125,14.432 19.017,14.718 18.693 C 14.944 18.436,15.040 18.216,15.040 17.955 C 15.040 17.571,14.996 17.526,12.986 15.881 C 11.982 15.059,11.168 14.378,11.178 14.368 C 11.188 14.358,11.324 14.307,11.481 14.254 C 12.840 13.797,13.789 12.719,14.198 11.170 L 14.243 11.000 14.974 11.000 C 15.816 11.000,16.029 10.958,16.229 10.751 C 16.418 10.556,16.486 10.355,16.486 9.997 C 16.486 9.491,16.303 9.196,15.909 9.064 C 15.761 9.015,15.549 9.000,14.980 9.000 L 14.243 9.000 14.198 8.830 C 14.105 8.477,13.955 8.068,13.821 7.803 L 13.683 7.528 14.731 7.509 C 15.900 7.489,16.011 7.469,16.242 7.238 C 16.411 7.069,16.494 6.815,16.491 6.479 C 16.486 6.033,16.340 5.763,16.024 5.616 L 15.820 5.521 12.000 5.524 C 9.340 5.527,8.138 5.542,8.042 5.572 " stroke="none" fill-rule="evenodd" fill="black"></path></svg>