<svg width="24" height="24" viewBox="0 0 24 24" fill="none" xmlns="http://www.w3.org/2000/svg"><path d="M5.268 2.496 C 4.776 2.678,4.402 3.161,4.455 3.546 C 4.468 3.642,4.513 3.788,4.556 3.870 C 4.598 3.953,5.813 5.473,7.256 7.249 C 8.699 9.024,9.880 10.487,9.880 10.499 C 9.880 10.510,8.949 10.520,7.810 10.520 C 6.474 10.520,5.686 10.535,5.587 10.563 C 5.355 10.627,5.132 10.852,5.060 11.092 C 4.935 11.513,5.017 12.004,5.249 12.229 C 5.540 12.511,5.408 12.499,8.350 12.512 L 11.000 12.524 11.000 13.522 L 11.000 14.520 8.870 14.520 C 7.492 14.520,6.686 14.535,6.587 14.563 C 6.355 14.627,6.132 14.852,6.060 15.092 C 5.935 15.513,6.017 16.004,6.249 16.229 C 6.535 16.506,6.466 16.499,8.850 16.512 L 11.000 16.524 11.000 18.615 C 11.000 20.936,11.006 20.993,11.249 21.229 C 11.442 21.416,11.647 21.487,11.997 21.488 C 12.348 21.490,12.556 21.418,12.751 21.229 C 12.994 20.993,13.000 20.936,13.000 18.615 L 13.000 16.524 15.150 16.512 C 17.534 16.499,17.465 16.506,17.751 16.229 C 17.983 16.004,18.065 15.513,17.940 15.092 C 17.868 14.852,17.645 14.627,17.413 14.563 C 17.314 14.535,16.508 14.520,15.130 14.520 L 13.000 14.520 13.000 13.522 L 13.000 12.524 15.650 12.512 C 18.592 12.499,18.460 12.511,18.751 12.229 C 18.983 12.004,19.065 11.513,18.940 11.092 C 18.868 10.852,18.645 10.627,18.413 10.563 C 18.314 10.535,17.526 10.520,16.190 10.520 C 15.052 10.520,14.120 10.510,14.120 10.499 C 14.120 10.487,15.301 9.024,16.744 7.249 C 18.187 5.473,19.402 3.953,19.444 3.870 C 19.487 3.788,19.533 3.640,19.546 3.541 C 19.611 3.065,19.018 2.467,18.476 2.463 C 18.044 2.460,18.154 2.341,14.952 6.281 C 13.352 8.250,12.024 9.860,12.000 9.860 C 11.976 9.860,10.648 8.250,9.048 6.281 C 6.805 3.521,6.099 2.677,5.960 2.592 C 5.739 2.456,5.474 2.419,5.268 2.496 " stroke="none" fill-rule="evenodd" fill="black"></path></svg>