<svg width="24" height="24" viewBox="0 0 24 24" fill="none" xmlns="http://www.w3.org/2000/svg"><path d="M11.280 1.023 C 11.203 1.032,10.951 1.059,10.720 1.083 C 9.527 1.210,8.337 1.558,7.180 2.120 C 6.045 2.671,5.193 3.285,4.238 4.239 C 3.277 5.198,2.643 6.080,2.097 7.220 C 0.301 10.968,0.728 15.286,3.226 18.633 C 3.701 19.269,4.753 20.316,5.400 20.797 C 9.364 23.745,14.666 23.734,18.637 20.770 C 19.246 20.316,20.316 19.246,20.770 18.637 C 23.744 14.652,23.744 9.348,20.770 5.363 C 20.316 4.755,19.247 3.686,18.640 3.235 C 17.045 2.049,15.365 1.360,13.423 1.096 C 13.000 1.038,11.574 0.990,11.280 1.023 M13.320 3.101 C 15.883 3.488,18.124 4.931,19.560 7.120 C 19.863 7.583,20.303 8.479,20.492 9.020 C 20.838 10.013,20.977 10.865,20.977 12.000 C 20.977 13.493,20.720 14.621,20.080 15.940 C 19.375 17.394,18.311 18.607,16.927 19.532 C 16.138 20.060,14.876 20.588,13.908 20.797 C 11.266 21.366,8.479 20.708,6.370 19.019 C 4.857 17.807,3.722 16.029,3.267 14.160 C 3.081 13.397,3.023 12.888,3.023 12.000 C 3.023 10.507,3.280 9.379,3.920 8.060 C 4.971 5.891,6.877 4.221,9.160 3.466 C 9.865 3.233,10.432 3.118,11.340 3.024 C 11.662 2.991,12.911 3.039,13.320 3.101 M11.654 5.577 C 10.238 5.846,9.276 6.764,8.974 8.135 C 8.897 8.483,8.887 9.288,8.956 9.620 C 9.044 10.047,9.206 10.490,9.455 10.980 C 9.589 11.244,9.705 11.473,9.713 11.490 C 9.720 11.507,9.505 11.520,9.233 11.520 C 8.647 11.520,8.486 11.559,8.277 11.747 C 7.919 12.071,7.904 12.895,8.249 13.229 C 8.470 13.443,8.635 13.487,9.293 13.511 L 9.887 13.532 9.861 13.676 C 9.719 14.457,8.937 16.023,8.325 16.750 C 8.011 17.122,7.931 17.473,8.060 17.908 C 8.130 18.143,8.341 18.359,8.585 18.445 C 8.711 18.490,9.341 18.500,12.000 18.500 C 15.586 18.500,15.438 18.510,15.725 18.251 C 15.982 18.018,16.072 17.536,15.940 17.092 C 15.868 16.852,15.645 16.627,15.413 16.563 C 15.314 16.535,14.496 16.520,13.090 16.520 C 11.897 16.520,10.920 16.505,10.920 16.486 C 10.920 16.467,11.027 16.227,11.158 15.952 C 11.444 15.348,11.724 14.533,11.844 13.953 L 11.932 13.527 13.116 13.512 C 14.140 13.499,14.322 13.488,14.460 13.427 C 14.698 13.321,14.874 13.131,14.941 12.904 C 15.065 12.486,14.982 11.992,14.751 11.774 C 14.503 11.539,14.522 11.542,13.145 11.520 L 11.870 11.500 11.779 11.229 C 11.729 11.080,11.543 10.674,11.367 10.327 C 10.955 9.515,10.905 9.343,10.929 8.823 C 10.944 8.491,10.965 8.384,11.051 8.216 C 11.291 7.746,11.747 7.521,12.467 7.520 C 13.154 7.520,13.687 7.693,14.154 8.068 C 14.643 8.463,15.010 8.457,15.450 8.048 C 15.815 7.708,15.926 7.303,15.755 6.937 C 15.601 6.610,15.031 6.172,14.399 5.896 C 13.813 5.640,13.379 5.552,12.620 5.536 C 12.159 5.527,11.848 5.540,11.654 5.577 " stroke="none" fill-rule="evenodd" fill="black"></path></svg>