<svg width="24" height="24" viewBox="0 0 24 24" fill="none" xmlns="http://www.w3.org/2000/svg"><path d="M9.180 1.039 C 8.968 1.094,8.862 1.149,8.752 1.266 C 8.552 1.478,8.511 1.645,8.489 2.348 L 8.469 2.996 6.804 3.009 C 4.982 3.022,4.985 3.022,4.752 3.267 C 4.584 3.443,4.513 3.658,4.512 3.997 C 4.510 4.348,4.582 4.556,4.771 4.751 C 4.962 4.948,5.194 5.000,5.887 5.000 L 6.480 5.000 6.480 11.996 L 6.480 18.992 5.810 19.009 C 5.081 19.028,4.949 19.060,4.752 19.267 C 4.584 19.443,4.513 19.658,4.512 19.997 C 4.510 20.348,4.582 20.556,4.771 20.751 C 4.999 20.987,5.111 21.000,6.882 21.000 L 8.470 21.000 8.489 21.650 C 8.510 22.370,8.549 22.521,8.771 22.751 C 9.090 23.081,9.910 23.081,10.229 22.751 C 10.449 22.524,10.489 22.370,10.511 21.650 L 10.531 21.000 11.500 21.000 L 12.470 21.000 12.489 21.650 C 12.510 22.370,12.549 22.521,12.771 22.751 C 13.090 23.081,13.910 23.081,14.229 22.751 C 14.449 22.524,14.489 22.369,14.511 21.655 L 14.531 21.011 15.115 20.988 C 15.982 20.954,16.550 20.809,17.286 20.433 C 18.630 19.748,19.580 18.489,19.907 16.960 C 20.008 16.489,20.008 15.511,19.907 15.040 C 19.624 13.715,18.867 12.582,17.787 11.863 L 17.434 11.629 17.633 11.424 C 18.239 10.802,18.706 9.899,18.907 8.960 C 18.960 8.714,18.980 8.448,18.980 8.000 C 18.980 7.101,18.838 6.506,18.433 5.713 C 17.714 4.304,16.255 3.257,14.735 3.060 L 14.531 3.034 14.512 2.367 C 14.490 1.631,14.441 1.443,14.215 1.233 C 13.871 0.915,13.070 0.933,12.752 1.267 C 12.552 1.477,12.511 1.645,12.489 2.350 L 12.469 3.000 11.500 3.000 L 10.531 3.000 10.511 2.349 C 10.490 1.631,10.439 1.440,10.215 1.234 C 10.000 1.036,9.533 0.948,9.180 1.039 M14.861 5.122 C 15.823 5.424,16.585 6.187,16.875 7.139 C 16.958 7.412,16.973 7.542,16.973 8.000 C 16.973 8.458,16.958 8.588,16.875 8.861 C 16.585 9.811,15.842 10.558,14.860 10.886 L 14.580 10.979 11.550 10.991 L 8.520 11.003 8.520 8.000 L 8.520 4.997 11.530 5.009 L 14.540 5.021 14.861 5.122 M15.861 13.122 C 16.824 13.425,17.585 14.187,17.875 15.139 C 17.958 15.412,17.973 15.542,17.973 16.000 C 17.973 16.458,17.958 16.588,17.875 16.861 C 17.585 17.811,16.843 18.557,15.860 18.886 L 15.580 18.980 12.050 18.991 L 8.520 19.003 8.520 16.000 L 8.520 12.997 12.030 13.009 L 15.540 13.021 15.861 13.122 " stroke="none" fill-rule="evenodd" fill="black"></path></svg>