<svg width="24" height="24" viewBox="0 0 24 24" fill="none" xmlns="http://www.w3.org/2000/svg"><path d="M12.283 2.583 C 11.253 2.715,10.265 3.015,9.326 3.481 C 7.739 4.269,6.566 5.295,5.586 6.753 C 5.250 7.252,4.796 8.136,4.606 8.660 L 4.490 8.980 3.574 9.000 C 2.689 9.019,2.651 9.023,2.459 9.122 C 2.119 9.297,1.978 9.606,2.009 10.104 C 2.038 10.563,2.250 10.852,2.635 10.959 C 2.715 10.981,3.059 11.000,3.400 11.000 L 4.020 11.000 4.020 12.000 L 4.020 13.000 3.416 13.000 C 2.772 13.000,2.542 13.042,2.322 13.199 C 2.139 13.329,2.030 13.573,2.009 13.900 C 1.978 14.381,2.119 14.699,2.442 14.880 C 2.614 14.977,2.650 14.981,3.555 15.000 L 4.490 15.020 4.606 15.340 C 4.670 15.516,4.846 15.912,4.997 16.220 C 5.793 17.842,7.074 19.223,8.666 20.176 C 9.752 20.826,11.118 21.286,12.420 21.442 C 12.937 21.503,14.069 21.503,14.580 21.442 C 16.431 21.219,18.261 20.429,19.603 19.275 C 20.176 18.781,20.197 18.262,19.663 17.742 C 19.410 17.494,19.236 17.424,18.937 17.449 C 18.704 17.468,18.583 17.538,17.963 18.015 C 17.077 18.697,15.869 19.210,14.694 19.402 C 11.844 19.869,8.915 18.603,7.308 16.211 C 7.067 15.853,6.643 15.101,6.641 15.030 C 6.640 15.013,8.120 15.000,9.930 15.000 C 12.011 15.000,13.273 14.985,13.365 14.959 C 13.586 14.898,13.770 14.755,13.880 14.558 C 13.967 14.402,13.980 14.332,13.979 14.000 C 13.978 13.567,13.898 13.355,13.678 13.199 C 13.396 12.998,13.436 13.000,9.634 13.000 L 6.082 13.000 6.051 12.890 C 6.012 12.747,6.012 11.253,6.051 11.110 L 6.082 11.000 9.651 11.000 C 11.918 11.000,13.273 10.985,13.365 10.959 C 13.586 10.898,13.770 10.755,13.880 10.558 C 13.967 10.402,13.980 10.332,13.979 10.000 C 13.978 9.567,13.898 9.355,13.678 9.199 C 13.398 8.999,13.414 9.000,9.914 9.000 C 8.113 9.000,6.640 8.986,6.641 8.970 C 6.643 8.901,7.063 8.154,7.298 7.800 C 7.849 6.973,8.693 6.159,9.540 5.639 C 10.791 4.871,12.034 4.521,13.500 4.522 C 15.272 4.523,16.795 5.056,18.207 6.168 C 18.601 6.478,18.781 6.567,19.020 6.567 C 19.260 6.567,19.451 6.473,19.682 6.242 C 20.044 5.880,20.139 5.491,19.953 5.129 C 19.756 4.747,18.706 3.987,17.669 3.477 C 16.679 2.991,15.611 2.677,14.552 2.562 C 14.029 2.505,12.797 2.517,12.283 2.583 " stroke="none" fill-rule="evenodd" fill="black"></path></svg>