<svg width="24" height="24" viewBox="0 0 24 24" fill="none" xmlns="http://www.w3.org/2000/svg"><path d="M2.202 1.044 C 1.745 1.133,1.350 1.445,1.144 1.880 L 1.020 2.140 1.020 4.500 L 1.020 6.860 1.144 7.120 C 1.301 7.450,1.550 7.699,1.880 7.856 L 2.140 7.980 4.500 7.980 L 6.860 7.980 7.120 7.856 C 7.450 7.699,7.699 7.450,7.856 7.120 L 7.980 6.860 7.980 4.500 L 7.980 2.140 7.856 1.880 C 7.643 1.433,7.251 1.132,6.765 1.041 C 6.500 0.991,2.458 0.994,2.202 1.044 M6.000 4.500 L 6.000 6.000 4.500 6.000 L 3.000 6.000 3.000 4.500 L 3.000 3.000 4.500 3.000 L 6.000 3.000 6.000 4.500 M10.545 3.578 C 10.202 3.702,10.000 4.044,10.000 4.500 C 10.000 4.952,10.184 5.268,10.540 5.428 C 10.690 5.496,10.979 5.501,15.263 5.520 L 19.826 5.540 20.022 5.661 C 20.143 5.736,20.264 5.857,20.339 5.978 L 20.460 6.174 20.460 8.259 C 20.460 10.562,20.477 10.398,20.205 10.694 C 19.980 10.938,19.860 10.967,18.962 11.000 C 18.073 11.032,17.950 11.059,17.752 11.267 C 17.584 11.443,17.513 11.658,17.512 11.997 C 17.510 12.512,17.711 12.829,18.116 12.947 C 18.399 13.029,19.788 13.001,20.220 12.904 C 20.910 12.750,21.642 12.229,22.016 11.627 C 22.434 10.955,22.482 10.684,22.508 8.860 C 22.532 7.199,22.484 6.135,22.363 5.668 C 22.159 4.879,21.602 4.202,20.860 3.839 C 20.214 3.524,20.579 3.545,15.360 3.533 C 11.450 3.524,10.675 3.531,10.545 3.578 M9.618 8.557 C 9.235 8.651,8.830 8.985,8.658 9.348 C 8.493 9.696,8.474 10.027,8.488 12.221 C 8.501 14.206,8.503 14.266,8.589 14.494 C 8.751 14.927,9.073 15.249,9.506 15.411 C 9.734 15.497,9.794 15.499,11.780 15.512 C 14.409 15.530,14.603 15.502,15.053 15.053 C 15.288 14.817,15.419 14.546,15.476 14.172 C 15.535 13.784,15.535 10.216,15.476 9.828 C 15.393 9.287,15.113 8.891,14.648 8.656 L 14.420 8.540 12.080 8.533 C 10.793 8.530,9.685 8.540,9.618 8.557 M13.480 12.020 L 13.480 13.520 12.000 13.520 L 10.520 13.520 10.520 12.020 L 10.520 10.520 12.000 10.520 L 13.480 10.520 13.480 12.020 M4.141 11.044 C 3.078 11.156,2.137 11.855,1.743 12.825 C 1.515 13.386,1.500 13.566,1.502 15.700 C 1.503 17.384,1.513 17.713,1.573 18.037 C 1.696 18.707,1.929 19.160,2.385 19.615 C 2.839 20.070,3.290 20.302,3.963 20.428 C 4.309 20.493,4.704 20.499,8.800 20.500 C 13.703 20.500,13.434 20.514,13.725 20.251 C 13.982 20.018,14.072 19.536,13.940 19.092 C 13.868 18.852,13.645 18.627,13.413 18.563 C 13.310 18.534,11.940 18.520,9.220 18.519 C 4.779 18.517,4.259 18.500,3.991 18.353 C 3.744 18.217,3.573 17.944,3.540 17.630 C 3.526 17.493,3.520 16.543,3.527 15.520 C 3.540 13.689,3.541 13.658,3.627 13.520 C 3.675 13.443,3.765 13.331,3.827 13.272 C 4.038 13.071,4.190 13.036,4.975 13.014 C 5.815 12.990,6.045 12.942,6.229 12.752 C 6.418 12.556,6.486 12.355,6.486 11.997 C 6.486 11.491,6.303 11.196,5.909 11.064 C 5.696 10.993,4.731 10.982,4.141 11.044 M17.202 16.044 C 16.745 16.133,16.350 16.445,16.144 16.880 L 16.020 17.140 16.020 19.500 L 16.020 21.860 16.144 22.120 C 16.301 22.450,16.550 22.699,16.880 22.856 L 17.140 22.980 19.500 22.980 L 21.860 22.980 22.120 22.856 C 22.450 22.699,22.699 22.450,22.856 22.120 L 22.980 21.860 22.980 19.500 L 22.980 17.140 22.856 16.880 C 22.643 16.433,22.251 16.132,21.765 16.041 C 21.500 15.991,17.458 15.994,17.202 16.044 M21.000 19.500 L 21.000 21.000 19.500 21.000 L 18.000 21.000 18.000 19.500 L 18.000 18.000 19.500 18.000 L 21.000 18.000 21.000 19.500 " stroke="none" fill-rule="evenodd" fill="black"></path></svg>