<svg width="24" height="24" viewBox="0 0 24 24" fill="none" xmlns="http://www.w3.org/2000/svg"><path d="M11.499 2.040 C 10.363 2.246,9.460 3.049,9.114 4.160 C 8.979 4.594,8.979 5.406,9.114 5.840 C 9.365 6.645,9.931 7.318,10.670 7.688 L 11.000 7.853 11.000 9.420 L 11.000 10.987 9.970 11.012 C 8.502 11.047,8.000 11.133,7.340 11.459 C 6.615 11.819,5.971 12.463,5.623 13.180 C 5.325 13.793,5.225 14.312,5.178 15.494 L 5.151 16.168 4.966 16.250 C 4.530 16.441,4.028 16.847,3.737 17.244 C 3.101 18.110,2.998 19.355,3.482 20.330 C 3.793 20.958,4.450 21.568,5.058 21.796 C 6.771 22.437,8.638 21.484,9.080 19.744 C 9.243 19.099,9.163 18.275,8.881 17.698 C 8.600 17.122,8.076 16.598,7.512 16.328 L 7.205 16.180 7.202 15.555 C 7.198 14.463,7.328 14.024,7.786 13.573 C 8.048 13.316,8.410 13.137,8.800 13.071 C 9.229 12.998,14.771 12.998,15.200 13.071 C 15.590 13.137,15.952 13.316,16.214 13.573 C 16.672 14.024,16.802 14.463,16.798 15.555 L 16.795 16.180 16.488 16.328 C 15.924 16.598,15.400 17.122,15.119 17.698 C 14.744 18.465,14.744 19.535,15.119 20.302 C 15.432 20.942,16.026 21.502,16.680 21.774 C 17.558 22.138,18.635 22.052,19.402 21.555 C 19.696 21.365,20.071 21.017,20.263 20.756 C 20.899 19.890,21.002 18.645,20.518 17.670 C 20.218 17.066,19.647 16.519,19.034 16.250 L 18.849 16.168 18.822 15.494 C 18.791 14.701,18.749 14.343,18.636 13.880 C 18.389 12.873,17.625 11.937,16.660 11.459 C 16.000 11.133,15.498 11.047,14.030 11.012 L 13.000 10.987 13.000 9.420 L 13.000 7.853 13.330 7.688 C 14.069 7.318,14.635 6.645,14.886 5.840 C 15.021 5.406,15.021 4.594,14.886 4.160 C 14.581 3.179,13.810 2.407,12.861 2.129 C 12.500 2.023,11.832 1.980,11.499 2.040 M12.310 4.061 C 12.688 4.173,13.000 4.598,13.000 5.001 C 13.000 5.331,12.784 5.696,12.484 5.872 C 12.328 5.963,12.254 5.980,12.000 5.980 C 11.746 5.980,11.672 5.963,11.516 5.872 C 10.935 5.530,10.833 4.774,11.304 4.303 C 11.583 4.024,11.916 3.944,12.310 4.061 M6.623 18.112 C 7.332 18.477,7.335 19.522,6.627 19.886 C 6.259 20.075,5.837 20.017,5.522 19.735 C 4.933 19.205,5.147 18.288,5.920 18.035 C 6.079 17.983,6.451 18.024,6.623 18.112 M18.263 18.112 C 18.608 18.290,18.808 18.615,18.808 18.998 C 18.808 19.304,18.707 19.528,18.478 19.735 C 17.837 20.311,16.842 19.864,16.842 19.000 C 16.842 18.550,17.117 18.180,17.560 18.035 C 17.719 17.983,18.091 18.024,18.263 18.112 " stroke="none" fill-rule="evenodd" fill="black"></path></svg>