<svg width="24" height="24" viewBox="0 0 24 24" fill="none" xmlns="http://www.w3.org/2000/svg"><path d="M8.554 3.043 C 7.945 3.125,7.319 3.447,6.876 3.907 C 6.533 4.264,1.608 10.834,1.469 11.120 C 1.335 11.396,1.240 11.762,1.240 12.000 C 1.240 12.238,1.335 12.604,1.469 12.880 C 1.600 13.151,6.519 19.721,6.857 20.076 C 7.290 20.532,7.844 20.828,8.480 20.943 C 8.722 20.987,9.744 20.997,13.760 20.999 C 19.303 21.000,19.535 20.991,20.320 20.755 C 21.422 20.423,22.423 19.422,22.755 18.320 C 22.990 17.540,23.000 17.284,23.000 12.000 C 23.000 6.716,22.990 6.460,22.755 5.680 C 22.424 4.581,21.465 3.622,20.320 3.246 C 19.653 3.027,19.727 3.030,14.060 3.018 C 11.166 3.012,8.701 3.024,8.554 3.043 M19.492 5.091 C 19.893 5.188,20.109 5.309,20.400 5.600 C 20.696 5.895,20.814 6.109,20.912 6.528 C 20.974 6.795,20.980 7.256,20.980 12.000 C 20.980 16.744,20.974 17.205,20.912 17.472 C 20.814 17.891,20.696 18.104,20.400 18.401 C 20.120 18.681,19.839 18.841,19.480 18.923 C 19.311 18.962,18.056 18.977,14.086 18.988 C 8.314 19.005,8.621 19.018,8.338 18.735 C 8.167 18.564,3.280 12.057,3.280 12.000 C 3.280 11.963,7.378 6.475,8.043 5.620 C 8.375 5.194,8.498 5.097,8.770 5.041 C 8.863 5.022,11.253 5.011,14.080 5.016 C 18.685 5.025,19.248 5.033,19.492 5.091 M10.626 8.045 C 10.257 8.239,9.951 8.673,9.951 9.000 C 9.951 9.333,10.056 9.467,11.353 10.770 L 12.577 12.000 11.353 13.230 C 10.056 14.533,9.951 14.667,9.951 15.000 C 9.951 15.477,10.523 16.049,11.000 16.049 C 11.333 16.049,11.467 15.944,12.770 14.647 L 14.000 13.423 15.230 14.647 C 16.533 15.944,16.667 16.049,17.000 16.049 C 17.477 16.049,18.049 15.477,18.049 15.000 C 18.049 14.667,17.944 14.533,16.647 13.230 L 15.423 12.000 16.647 10.770 C 17.452 9.961,17.901 9.479,17.960 9.363 C 18.137 9.011,18.048 8.646,17.701 8.299 C 17.361 7.958,16.980 7.868,16.628 8.045 C 16.523 8.098,15.999 8.588,15.230 9.353 L 14.000 10.577 12.770 9.353 C 12.001 8.588,11.477 8.098,11.372 8.045 C 11.152 7.934,10.835 7.934,10.626 8.045 " stroke="none" fill-rule="evenodd" fill="black"></path></svg>