<svg width="24" height="24" viewBox="0 0 24 24" fill="none" xmlns="http://www.w3.org/2000/svg"><path d="M8.380 2.002 C 6.769 2.025,6.736 2.030,6.380 2.272 C 6.219 2.382,1.862 7.558,1.477 8.097 C 1.252 8.412,1.160 8.674,1.160 9.000 C 1.160 9.307,1.249 9.582,1.432 9.844 C 1.517 9.965,3.702 12.601,6.288 15.702 C 9.897 20.030,11.035 21.370,11.185 21.467 C 11.417 21.619,11.744 21.720,12.000 21.720 C 12.256 21.720,12.583 21.619,12.815 21.467 C 12.964 21.370,14.108 20.023,17.711 15.703 C 20.297 12.603,22.482 9.967,22.567 9.845 C 22.934 9.321,22.934 8.679,22.567 8.154 C 22.392 7.906,17.855 2.457,17.736 2.354 C 17.598 2.234,17.282 2.086,17.069 2.042 C 16.833 1.994,10.830 1.966,8.380 2.002 M8.590 4.050 C 8.580 4.077,8.280 4.978,7.923 6.050 L 7.273 8.000 5.712 8.000 C 4.168 8.000,4.151 7.999,4.205 7.921 C 4.235 7.878,4.980 6.979,5.860 5.922 L 7.460 4.002 8.034 4.001 C 8.477 4.000,8.604 4.011,8.590 4.050 M13.923 5.950 C 14.280 7.022,14.580 7.923,14.590 7.950 C 14.605 7.990,14.070 8.000,12.000 8.000 C 9.930 8.000,9.395 7.990,9.410 7.950 C 9.420 7.923,9.720 7.022,10.077 5.950 L 10.727 4.000 12.000 4.000 L 13.273 4.000 13.923 5.950 M18.140 5.922 C 19.020 6.979,19.765 7.878,19.795 7.921 C 19.849 7.999,19.832 8.000,18.288 8.000 L 16.727 8.000 16.077 6.050 C 15.720 4.978,15.420 4.077,15.410 4.050 C 15.396 4.011,15.523 4.000,15.966 4.001 L 16.540 4.002 18.140 5.922 M8.408 13.217 C 9.019 14.975,9.515 16.419,9.508 16.425 C 9.496 16.437,4.243 10.147,4.188 10.053 C 4.161 10.008,4.412 10.001,5.725 10.010 L 7.295 10.020 8.408 13.217 M14.466 10.370 C 14.393 10.573,13.813 12.238,13.177 14.070 C 12.540 15.901,12.011 17.400,12.000 17.400 C 11.988 17.400,11.477 15.956,10.863 14.190 C 10.250 12.425,9.670 10.760,9.575 10.490 L 9.402 10.000 12.000 10.000 L 14.599 10.000 14.466 10.370 M19.812 10.054 C 19.757 10.146,14.504 16.437,14.492 16.425 C 14.482 16.416,16.540 10.469,16.679 10.103 L 16.718 10.000 18.281 10.000 C 19.580 10.000,19.839 10.009,19.812 10.054 " stroke="none" fill-rule="evenodd" fill="black"></path></svg>