<svg width="24" height="24" viewBox="0 0 24 24" fill="none" xmlns="http://www.w3.org/2000/svg"><path d="M8.380 1.002 C 6.769 1.025,6.736 1.030,6.380 1.272 C 6.134 1.440,1.478 7.035,1.313 7.360 C 1.194 7.596,1.182 7.653,1.181 7.981 C 1.179 8.625,0.842 8.213,6.140 14.047 C 8.723 16.892,10.941 19.306,11.069 19.411 C 11.621 19.870,12.379 19.870,12.931 19.411 C 13.059 19.306,15.277 16.892,17.860 14.047 C 23.159 8.212,22.821 8.625,22.818 7.981 C 22.817 7.667,22.802 7.589,22.702 7.382 C 22.621 7.215,21.887 6.305,20.200 4.282 C 18.887 2.708,17.779 1.390,17.736 1.354 C 17.598 1.234,17.282 1.086,17.069 1.042 C 16.833 0.994,10.830 0.966,8.380 1.002 M8.590 3.050 C 8.580 3.078,8.280 3.978,7.923 5.050 L 7.273 7.000 5.712 7.000 C 4.168 7.000,4.151 6.999,4.205 6.921 C 4.235 6.878,4.980 5.979,5.860 4.922 L 7.460 3.002 8.034 3.001 C 8.477 3.000,8.604 3.011,8.590 3.050 M13.923 4.950 C 14.280 6.022,14.580 6.923,14.590 6.950 C 14.605 6.990,14.070 7.000,12.000 7.000 C 9.930 7.000,9.395 6.990,9.410 6.950 C 9.420 6.923,9.720 6.022,10.077 4.950 L 10.727 3.000 12.000 3.000 L 13.273 3.000 13.923 4.950 M18.140 4.922 C 19.020 5.979,19.765 6.878,19.795 6.921 C 19.849 6.999,19.832 7.000,18.288 7.000 L 16.727 7.000 16.077 5.050 C 15.720 3.978,15.420 3.078,15.410 3.050 C 15.396 3.011,15.523 3.000,15.966 3.001 L 16.540 3.002 18.140 4.922 M7.320 9.013 C 7.320 9.020,7.806 10.301,8.400 11.860 C 8.994 13.418,9.475 14.698,9.469 14.705 C 9.458 14.715,4.793 9.600,4.427 9.177 L 4.274 9.000 5.797 9.000 C 6.635 9.000,7.320 9.006,7.320 9.013 M13.284 12.320 C 12.589 14.146,12.011 15.640,12.000 15.640 C 11.989 15.640,11.411 14.146,10.716 12.320 L 9.451 9.000 12.000 9.000 L 14.549 9.000 13.284 12.320 M19.573 9.177 C 19.207 9.600,14.542 14.715,14.531 14.705 C 14.525 14.698,15.006 13.418,15.600 11.860 C 16.194 10.301,16.680 9.020,16.680 9.013 C 16.680 9.006,17.365 9.000,18.203 9.000 L 19.726 9.000 19.573 9.177 M4.614 21.057 C 4.377 21.132,4.212 21.261,4.110 21.453 C 4.037 21.591,4.022 21.686,4.022 22.000 C 4.022 22.504,4.125 22.715,4.460 22.894 L 4.620 22.980 11.914 22.991 C 16.737 22.997,19.258 22.987,19.358 22.961 C 19.584 22.900,19.769 22.757,19.880 22.558 C 19.967 22.403,19.980 22.331,19.980 22.000 C 19.980 21.568,19.900 21.357,19.678 21.199 C 19.387 20.991,19.720 21.000,11.984 21.003 C 6.188 21.005,4.747 21.016,4.614 21.057 " stroke="none" fill-rule="evenodd" fill="black"></path></svg>