<svg width="24" height="24" viewBox="0 0 24 24" fill="none" xmlns="http://www.w3.org/2000/svg"><path d="M11.280 1.023 C 11.203 1.032,10.951 1.059,10.720 1.083 C 9.527 1.210,8.337 1.558,7.180 2.120 C 6.045 2.671,5.193 3.285,4.238 4.239 C 3.277 5.198,2.643 6.080,2.097 7.220 C 0.301 10.968,0.728 15.286,3.226 18.633 C 3.701 19.269,4.753 20.316,5.400 20.797 C 9.364 23.745,14.666 23.734,18.637 20.770 C 19.246 20.316,20.316 19.246,20.770 18.637 C 23.744 14.652,23.744 9.348,20.770 5.363 C 20.316 4.755,19.247 3.686,18.640 3.235 C 17.045 2.049,15.365 1.360,13.423 1.096 C 13.000 1.038,11.574 0.990,11.280 1.023 M13.320 3.101 C 15.883 3.488,18.124 4.931,19.560 7.120 C 19.863 7.583,20.303 8.479,20.492 9.020 C 20.838 10.013,20.977 10.865,20.977 12.000 C 20.977 13.493,20.720 14.621,20.080 15.940 C 19.375 17.394,18.311 18.607,16.927 19.532 C 16.138 20.060,14.876 20.588,13.908 20.797 C 11.266 21.366,8.479 20.708,6.370 19.019 C 4.857 17.807,3.722 16.029,3.267 14.160 C 3.081 13.397,3.023 12.888,3.023 12.000 C 3.023 10.507,3.280 9.379,3.920 8.060 C 4.971 5.891,6.877 4.221,9.160 3.466 C 9.865 3.233,10.432 3.118,11.340 3.024 C 11.662 2.991,12.911 3.039,13.320 3.101 M14.578 4.713 C 14.176 4.901,13.862 5.602,13.997 6.012 C 14.069 6.229,14.307 6.437,14.764 6.680 C 15.895 7.283,16.731 8.121,17.316 9.242 C 17.744 10.062,17.929 10.764,17.994 11.825 C 18.023 12.306,18.042 12.415,18.124 12.563 C 18.286 12.856,18.574 13.000,19.000 13.000 C 19.646 13.000,19.953 12.703,19.991 12.041 C 20.047 11.050,19.747 9.677,19.243 8.620 C 18.447 6.952,17.203 5.667,15.609 4.870 C 15.124 4.628,14.850 4.586,14.578 4.713 M11.358 8.061 C 10.230 8.237,9.143 8.974,8.569 9.953 C 7.320 12.083,8.233 14.785,10.512 15.704 C 12.558 16.528,14.877 15.538,15.704 13.488 C 16.090 12.530,16.090 11.469,15.705 10.516 C 15.172 9.197,14.001 8.269,12.605 8.058 C 12.144 7.989,11.816 7.990,11.358 8.061 M12.523 10.073 C 13.262 10.266,13.850 10.924,13.967 11.690 C 14.067 12.343,13.873 12.933,13.403 13.404 C 13.002 13.807,12.547 14.000,12.000 14.000 C 11.485 14.000,11.038 13.822,10.653 13.465 C 9.323 12.229,10.189 10.005,12.000 10.005 C 12.143 10.005,12.378 10.036,12.523 10.073 M4.649 11.037 C 4.437 11.091,4.208 11.268,4.113 11.450 C 3.952 11.761,3.972 12.674,4.162 13.611 C 4.401 14.793,5.009 16.075,5.791 17.044 C 6.349 17.735,7.341 18.578,7.975 18.900 C 8.435 19.134,8.787 19.075,9.096 18.714 C 9.487 18.257,9.541 17.768,9.236 17.422 C 9.173 17.350,8.945 17.173,8.731 17.028 C 7.769 16.383,7.101 15.619,6.599 14.594 C 6.237 13.855,6.068 13.168,6.004 12.171 C 5.960 11.497,5.895 11.335,5.594 11.148 C 5.439 11.053,5.354 11.030,5.094 11.018 C 4.921 11.010,4.721 11.018,4.649 11.037 " stroke="none" fill-rule="evenodd" fill="black"></path></svg>