<svg width="24" height="24" viewBox="0 0 24 24" fill="none" xmlns="http://www.w3.org/2000/svg"><path d="M2.614 2.057 C 2.377 2.131,2.212 2.261,2.109 2.453 C 2.035 2.592,2.020 2.684,2.020 3.000 C 2.020 3.331,2.033 3.403,2.120 3.558 C 2.230 3.755,2.414 3.898,2.635 3.959 C 2.835 4.015,21.165 4.015,21.365 3.959 C 21.586 3.898,21.770 3.755,21.880 3.558 C 21.967 3.402,21.980 3.332,21.979 3.000 C 21.978 2.567,21.898 2.355,21.678 2.199 C 21.385 1.990,21.877 2.000,11.984 2.003 C 4.546 2.005,2.748 2.015,2.614 2.057 M6.665 8.044 C 5.413 8.176,4.448 8.998,4.111 10.220 C 4.027 10.523,4.023 10.617,4.023 12.000 C 4.023 13.383,4.027 13.477,4.111 13.780 C 4.408 14.854,5.166 15.605,6.240 15.890 L 6.580 15.980 12.000 15.980 L 17.420 15.980 17.751 15.892 C 18.835 15.602,19.585 14.861,19.888 13.778 C 19.973 13.476,19.977 13.387,19.977 12.000 C 19.977 10.613,19.973 10.524,19.888 10.222 C 19.647 9.359,19.135 8.726,18.371 8.343 C 18.015 8.165,17.742 8.089,17.280 8.041 C 16.818 7.993,7.126 7.995,6.665 8.044 M17.440 10.114 C 17.680 10.239,17.768 10.325,17.883 10.551 C 17.980 10.739,17.980 10.746,17.980 12.000 L 17.980 13.260 17.881 13.454 C 17.772 13.667,17.615 13.818,17.400 13.916 C 17.274 13.974,16.735 13.980,12.000 13.980 C 7.265 13.980,6.726 13.974,6.600 13.916 C 6.383 13.817,6.215 13.656,6.117 13.454 C 6.034 13.282,6.026 13.201,6.010 12.305 C 5.988 11.112,6.028 10.662,6.175 10.440 C 6.335 10.199,6.556 10.071,6.873 10.038 C 7.020 10.022,9.417 10.012,12.200 10.015 L 17.260 10.020 17.440 10.114 M2.614 20.057 C 2.377 20.131,2.212 20.261,2.109 20.453 C 2.035 20.592,2.020 20.684,2.020 21.000 C 2.020 21.331,2.033 21.403,2.120 21.558 C 2.230 21.755,2.414 21.898,2.635 21.959 C 2.835 22.015,21.165 22.015,21.365 21.959 C 21.586 21.898,21.770 21.755,21.880 21.558 C 21.967 21.402,21.980 21.332,21.979 21.000 C 21.978 20.567,21.898 20.355,21.678 20.199 C 21.385 19.990,21.877 20.000,11.984 20.003 C 4.546 20.005,2.748 20.015,2.614 20.057 " stroke="none" fill-rule="evenodd" fill="black"></path></svg>