<svg width="24" height="24" viewBox="0 0 24 24" fill="none" xmlns="http://www.w3.org/2000/svg"><path d="M2.614 2.057 C 2.377 2.131,2.212 2.261,2.109 2.453 C 2.022 2.617,2.020 2.649,2.021 4.000 C 2.022 5.296,2.027 5.402,2.111 5.735 C 2.224 6.183,2.378 6.504,2.650 6.858 C 3.038 7.363,3.594 7.719,4.265 7.889 L 4.620 7.980 11.980 7.980 C 19.013 7.980,19.354 7.977,19.660 7.906 C 20.269 7.764,20.711 7.526,21.118 7.118 C 21.526 6.711,21.764 6.269,21.906 5.660 C 21.970 5.381,21.980 5.164,21.980 3.980 C 21.980 2.650,21.978 2.616,21.891 2.453 C 21.785 2.256,21.622 2.131,21.371 2.055 C 20.861 1.902,20.310 2.076,20.110 2.453 C 20.026 2.612,20.020 2.684,19.995 3.920 C 19.978 4.723,19.950 5.279,19.921 5.374 C 19.862 5.568,19.581 5.853,19.376 5.925 C 19.143 6.007,4.857 6.007,4.624 5.925 C 4.419 5.853,4.138 5.568,4.079 5.374 C 4.051 5.280,4.022 4.716,4.005 3.920 C 3.979 2.688,3.973 2.611,3.889 2.453 C 3.841 2.362,3.746 2.247,3.678 2.199 C 3.414 2.010,2.957 1.950,2.614 2.057 M2.614 11.055 C 2.220 11.184,2.039 11.437,2.009 11.900 C 1.978 12.381,2.119 12.699,2.442 12.880 C 2.597 12.967,2.669 12.980,3.000 12.980 C 3.312 12.980,3.408 12.964,3.540 12.894 C 3.866 12.718,4.000 12.459,4.000 12.000 C 4.000 11.357,3.713 11.048,3.083 11.016 C 2.893 11.006,2.718 11.021,2.614 11.055 M7.180 11.039 C 6.715 11.159,6.514 11.447,6.512 11.997 C 6.510 12.348,6.582 12.556,6.771 12.752 C 7.131 13.123,8.068 13.060,8.341 12.645 C 8.526 12.365,8.565 11.840,8.425 11.507 C 8.262 11.118,7.698 10.906,7.180 11.039 M11.614 11.055 C 11.220 11.184,11.039 11.437,11.009 11.900 C 10.978 12.381,11.119 12.699,11.442 12.880 C 11.597 12.967,11.669 12.980,12.000 12.980 C 12.312 12.980,12.408 12.964,12.540 12.894 C 12.866 12.718,13.000 12.459,13.000 12.000 C 13.000 11.357,12.713 11.048,12.083 11.016 C 11.893 11.006,11.718 11.021,11.614 11.055 M16.180 11.039 C 15.715 11.159,15.514 11.447,15.512 11.997 C 15.510 12.348,15.582 12.556,15.771 12.752 C 16.131 13.123,17.068 13.060,17.341 12.645 C 17.526 12.365,17.565 11.840,17.425 11.507 C 17.262 11.118,16.698 10.906,16.180 11.039 M20.614 11.055 C 20.220 11.184,20.039 11.437,20.009 11.900 C 19.978 12.381,20.119 12.699,20.442 12.880 C 20.597 12.967,20.669 12.980,21.000 12.980 C 21.312 12.980,21.408 12.964,21.540 12.894 C 21.866 12.718,22.000 12.459,22.000 12.000 C 22.000 11.357,21.713 11.048,21.083 11.016 C 20.893 11.006,20.718 11.021,20.614 11.055 M4.749 16.045 C 3.771 16.139,3.037 16.557,2.527 17.310 C 2.318 17.617,2.218 17.846,2.112 18.260 C 2.039 18.541,2.027 18.737,2.011 19.881 C 1.998 20.756,2.006 21.235,2.036 21.345 C 2.144 21.748,2.429 21.961,2.896 21.991 C 3.381 22.022,3.699 21.882,3.880 21.558 C 3.979 21.382,3.980 21.368,4.006 20.080 C 4.022 19.280,4.050 18.721,4.079 18.626 C 4.142 18.418,4.429 18.138,4.646 18.072 C 4.903 17.995,19.097 17.995,19.354 18.072 C 19.571 18.138,19.857 18.417,19.921 18.626 C 19.950 18.721,19.978 19.274,19.994 20.080 C 20.020 21.370,20.021 21.381,20.120 21.558 C 20.287 21.856,20.572 22.000,21.000 22.000 C 21.428 22.000,21.713 21.856,21.880 21.558 L 21.980 21.380 21.980 20.020 C 21.980 18.836,21.970 18.619,21.906 18.340 C 21.688 17.404,21.167 16.737,20.329 16.321 C 20.019 16.168,19.706 16.091,19.180 16.042 C 18.644 15.991,5.276 15.994,4.749 16.045 " stroke="none" fill-rule="evenodd" fill="black"></path></svg>