<svg width="24" height="24" viewBox="0 0 24 24" fill="none" xmlns="http://www.w3.org/2000/svg"><path d="M11.477 4.073 C 10.806 4.249,10.238 4.823,10.060 5.508 C 9.941 5.962,10.003 6.492,10.225 6.930 C 10.361 7.199,10.801 7.639,11.070 7.775 C 11.659 8.073,12.341 8.073,12.930 7.775 C 13.196 7.640,13.638 7.200,13.771 6.937 C 13.994 6.498,14.052 6.007,13.940 5.529 C 13.858 5.182,13.720 4.927,13.465 4.653 C 12.948 4.097,12.211 3.882,11.477 4.073 M3.614 11.057 C 3.377 11.131,3.212 11.261,3.109 11.453 C 3.035 11.592,3.020 11.684,3.020 12.000 C 3.020 12.331,3.033 12.403,3.120 12.558 C 3.230 12.755,3.414 12.898,3.635 12.959 C 3.835 13.015,20.165 13.015,20.365 12.959 C 20.586 12.898,20.770 12.755,20.880 12.558 C 20.967 12.402,20.980 12.332,20.979 12.000 C 20.978 11.567,20.898 11.355,20.678 11.199 C 20.386 10.990,20.799 11.000,11.984 11.003 C 5.367 11.005,3.748 11.015,3.614 11.057 M11.477 16.073 C 10.806 16.249,10.238 16.823,10.060 17.508 C 9.941 17.962,10.003 18.492,10.225 18.930 C 10.361 19.199,10.801 19.639,11.070 19.775 C 11.659 20.073,12.341 20.073,12.930 19.775 C 13.196 19.640,13.638 19.200,13.771 18.937 C 13.994 18.498,14.052 18.007,13.940 17.529 C 13.858 17.182,13.720 16.927,13.465 16.653 C 13.074 16.232,12.560 16.005,12.000 16.005 C 11.857 16.005,11.622 16.036,11.477 16.073 " stroke="none" fill-rule="evenodd" fill="black"></path></svg>