<svg width="24" height="24" viewBox="0 0 24 24" fill="none" xmlns="http://www.w3.org/2000/svg"><path d="M11.499 3.040 C 10.363 3.246,9.460 4.049,9.114 5.160 C 8.979 5.594,8.979 6.406,9.114 6.840 C 9.421 7.826,10.174 8.579,11.160 8.886 C 11.594 9.021,12.406 9.021,12.840 8.886 C 13.826 8.579,14.579 7.826,14.886 6.840 C 15.021 6.406,15.021 5.594,14.886 5.160 C 14.581 4.179,13.810 3.407,12.861 3.129 C 12.500 3.023,11.832 2.980,11.499 3.040 M12.310 5.061 C 12.688 5.173,13.000 5.598,13.000 6.001 C 13.000 6.331,12.784 6.696,12.484 6.872 C 12.328 6.963,12.254 6.980,12.000 6.980 C 11.746 6.980,11.672 6.963,11.516 6.872 C 10.935 6.530,10.833 5.774,11.304 5.303 C 11.583 5.024,11.916 4.944,12.310 5.061 M3.614 11.057 C 3.377 11.131,3.212 11.261,3.109 11.453 C 3.035 11.592,3.020 11.684,3.020 12.000 C 3.020 12.331,3.033 12.403,3.120 12.558 C 3.230 12.755,3.414 12.898,3.635 12.959 C 3.835 13.015,20.165 13.015,20.365 12.959 C 20.586 12.898,20.770 12.755,20.880 12.558 C 20.967 12.402,20.980 12.332,20.979 12.000 C 20.978 11.567,20.898 11.355,20.678 11.199 C 20.386 10.990,20.799 11.000,11.984 11.003 C 5.367 11.005,3.748 11.015,3.614 11.057 M11.499 15.040 C 10.363 15.246,9.460 16.049,9.114 17.160 C 8.979 17.594,8.979 18.406,9.114 18.840 C 9.421 19.826,10.174 20.579,11.160 20.886 C 11.412 20.964,11.547 20.979,12.000 20.979 C 12.453 20.979,12.588 20.964,12.840 20.886 C 13.826 20.579,14.579 19.826,14.886 18.840 C 15.021 18.406,15.021 17.594,14.886 17.160 C 14.581 16.179,13.810 15.407,12.861 15.129 C 12.500 15.023,11.832 14.980,11.499 15.040 M12.310 17.061 C 12.688 17.173,13.000 17.598,13.000 18.001 C 13.000 18.331,12.784 18.696,12.484 18.872 C 12.328 18.963,12.254 18.980,12.000 18.980 C 11.746 18.980,11.672 18.963,11.516 18.872 C 10.935 18.530,10.833 17.774,11.304 17.303 C 11.583 17.024,11.916 16.944,12.310 17.061 " stroke="none" fill-rule="evenodd" fill="black"></path></svg>