<svg width="24" height="24" viewBox="0 0 24 24" fill="none" xmlns="http://www.w3.org/2000/svg"><path d="M3.872 2.582 C 3.237 2.736,2.556 3.286,2.266 3.880 C 1.916 4.594,1.916 5.404,2.265 6.120 C 2.378 6.351,2.491 6.499,2.756 6.761 C 3.280 7.279,3.785 7.490,4.500 7.490 C 5.215 7.490,5.720 7.279,6.244 6.761 C 6.509 6.499,6.622 6.351,6.735 6.120 C 7.084 5.404,7.084 4.594,6.734 3.880 C 6.444 3.286,5.753 2.732,5.116 2.581 C 4.801 2.507,4.179 2.508,3.872 2.582 M9.614 4.057 C 9.377 4.131,9.212 4.261,9.109 4.453 C 9.035 4.592,9.020 4.684,9.020 5.000 C 9.020 5.331,9.033 5.403,9.120 5.558 C 9.230 5.755,9.414 5.898,9.635 5.959 C 9.834 6.015,21.166 6.015,21.365 5.959 C 21.586 5.898,21.770 5.755,21.880 5.558 C 21.967 5.402,21.980 5.332,21.979 5.000 C 21.978 4.567,21.898 4.355,21.678 4.199 C 21.389 3.993,21.604 4.000,15.484 4.003 C 10.919 4.005,9.747 4.016,9.614 4.057 M4.757 4.578 C 4.876 4.640,5.000 4.854,5.000 5.000 C 5.000 5.134,4.885 5.348,4.773 5.421 C 4.644 5.505,4.356 5.505,4.227 5.421 C 4.115 5.348,4.000 5.134,4.000 5.000 C 4.000 4.859,4.122 4.642,4.235 4.580 C 4.372 4.506,4.615 4.505,4.757 4.578 M3.872 9.582 C 3.237 9.736,2.556 10.286,2.266 10.880 C 1.916 11.594,1.916 12.404,2.265 13.120 C 2.378 13.351,2.491 13.499,2.756 13.761 C 3.280 14.279,3.785 14.490,4.500 14.490 C 5.215 14.490,5.720 14.279,6.244 13.761 C 6.509 13.499,6.622 13.351,6.735 13.120 C 7.084 12.404,7.084 11.594,6.734 10.880 C 6.444 10.286,5.753 9.732,5.116 9.581 C 4.801 9.507,4.179 9.508,3.872 9.582 M9.614 11.057 C 9.377 11.131,9.212 11.261,9.109 11.453 C 9.035 11.592,9.020 11.684,9.020 12.000 C 9.020 12.331,9.033 12.403,9.120 12.558 C 9.230 12.755,9.414 12.898,9.635 12.959 C 9.834 13.015,21.166 13.015,21.365 12.959 C 21.586 12.898,21.770 12.755,21.880 12.558 C 21.967 12.402,21.980 12.332,21.979 12.000 C 21.978 11.567,21.898 11.355,21.678 11.199 C 21.389 10.993,21.604 11.000,15.484 11.003 C 10.919 11.005,9.747 11.016,9.614 11.057 M4.757 11.578 C 4.876 11.640,5.000 11.854,5.000 12.000 C 5.000 12.134,4.885 12.348,4.773 12.421 C 4.718 12.457,4.595 12.487,4.500 12.487 C 4.405 12.487,4.282 12.457,4.227 12.421 C 4.115 12.348,4.000 12.134,4.000 12.000 C 4.000 11.859,4.122 11.642,4.235 11.580 C 4.372 11.506,4.615 11.505,4.757 11.578 M3.872 16.582 C 3.237 16.736,2.556 17.286,2.266 17.880 C 1.916 18.594,1.916 19.404,2.265 20.120 C 2.378 20.351,2.491 20.499,2.756 20.761 C 3.280 21.279,3.785 21.490,4.500 21.490 C 5.215 21.490,5.720 21.279,6.244 20.761 C 6.509 20.499,6.622 20.351,6.735 20.120 C 7.084 19.404,7.084 18.594,6.734 17.880 C 6.444 17.286,5.753 16.732,5.116 16.581 C 4.801 16.507,4.179 16.508,3.872 16.582 M9.614 18.057 C 9.377 18.131,9.212 18.261,9.109 18.453 C 9.035 18.592,9.020 18.684,9.020 19.000 C 9.020 19.331,9.033 19.403,9.120 19.558 C 9.230 19.755,9.414 19.898,9.635 19.959 C 9.834 20.015,21.166 20.015,21.365 19.959 C 21.586 19.898,21.770 19.755,21.880 19.558 C 21.967 19.402,21.980 19.332,21.979 19.000 C 21.978 18.567,21.898 18.355,21.678 18.199 C 21.389 17.993,21.604 18.000,15.484 18.003 C 10.919 18.005,9.747 18.016,9.614 18.057 M4.757 18.578 C 4.876 18.640,5.000 18.854,5.000 19.000 C 5.000 19.134,4.885 19.348,4.773 19.421 C 4.718 19.457,4.595 19.487,4.500 19.487 C 4.405 19.487,4.282 19.457,4.227 19.421 C 4.115 19.348,4.000 19.134,4.000 19.000 C 4.000 18.859,4.122 18.642,4.235 18.580 C 4.372 18.506,4.615 18.505,4.757 18.578 " stroke="none" fill-rule="evenodd" fill="black"></path></svg>