<svg width="24" height="24" viewBox="0 0 24 24" fill="none" xmlns="http://www.w3.org/2000/svg"><path d="M11.300 2.045 C 9.210 2.241,7.256 3.442,6.099 5.241 C 5.842 5.640,5.510 6.338,5.367 6.777 L 5.251 7.134 4.856 7.260 C 2.808 7.913,1.377 9.607,1.054 11.760 C 0.979 12.258,0.999 13.042,1.098 13.550 C 1.343 14.798,2.064 15.989,3.052 16.781 C 3.811 17.388,4.264 17.437,4.697 16.958 C 4.934 16.696,5.053 16.400,5.033 16.124 C 5.011 15.827,4.926 15.710,4.462 15.341 C 3.728 14.756,3.329 14.172,3.112 13.364 C 2.993 12.920,2.992 12.064,3.110 11.614 C 3.399 10.510,4.276 9.566,5.359 9.194 C 5.480 9.152,5.784 9.082,6.035 9.037 C 6.530 8.950,6.603 8.923,6.774 8.765 C 6.940 8.611,6.988 8.498,7.119 7.942 C 7.261 7.347,7.420 6.921,7.641 6.542 C 8.383 5.275,9.639 4.363,11.001 4.102 C 12.739 3.770,14.426 4.309,15.642 5.585 C 16.288 6.262,16.639 6.932,16.882 7.952 C 17.013 8.498,17.061 8.612,17.226 8.765 C 17.397 8.923,17.470 8.950,17.965 9.037 C 18.216 9.082,18.520 9.152,18.641 9.194 C 19.724 9.566,20.601 10.510,20.890 11.614 C 21.008 12.064,21.007 12.920,20.888 13.364 C 20.671 14.172,20.272 14.756,19.538 15.341 C 19.074 15.710,18.989 15.827,18.967 16.124 C 18.947 16.408,19.070 16.704,19.324 16.980 C 19.746 17.438,20.196 17.383,20.948 16.781 C 22.892 15.223,23.528 12.568,22.513 10.249 C 22.026 9.138,21.046 8.123,19.930 7.576 C 19.715 7.471,19.362 7.328,19.144 7.259 L 18.749 7.134 18.633 6.777 C 18.490 6.338,18.158 5.640,17.901 5.241 C 16.470 3.014,13.954 1.796,11.300 2.045 M11.614 11.057 C 11.377 11.131,11.212 11.261,11.109 11.453 L 11.020 11.620 11.009 15.098 L 10.998 18.575 9.769 17.352 C 9.001 16.588,8.477 16.098,8.372 16.045 C 8.020 15.868,7.639 15.958,7.299 16.299 C 6.952 16.646,6.863 17.011,7.040 17.363 C 7.101 17.484,7.766 18.182,9.134 19.561 C 10.237 20.673,11.174 21.634,11.216 21.696 C 11.318 21.850,11.761 22.049,12.000 22.049 C 12.239 22.049,12.682 21.850,12.784 21.696 C 12.826 21.634,13.763 20.673,14.866 19.561 C 16.234 18.182,16.899 17.484,16.960 17.363 C 17.137 17.011,17.048 16.646,16.701 16.299 C 16.361 15.958,15.980 15.868,15.628 16.045 C 15.523 16.098,15.000 16.588,14.231 17.352 L 13.002 18.575 12.991 15.097 L 12.980 11.620 12.891 11.453 C 12.842 11.362,12.746 11.247,12.678 11.199 C 12.414 11.010,11.957 10.950,11.614 11.057 " stroke="none" fill-rule="evenodd" fill="black"></path></svg>