<svg width="24" height="24" viewBox="0 0 24 24" fill="none" xmlns="http://www.w3.org/2000/svg"><path d="M11.614 2.057 C 11.377 2.131,11.212 2.261,11.109 2.453 L 11.020 2.620 11.009 8.599 L 10.999 14.577 8.769 12.353 C 7.294 10.881,6.483 10.100,6.372 10.044 C 6.020 9.868,5.639 9.959,5.299 10.299 C 4.952 10.646,4.863 11.010,5.040 11.363 C 5.102 11.487,6.029 12.445,8.134 14.561 C 9.787 16.223,11.174 17.633,11.216 17.696 C 11.318 17.850,11.761 18.049,12.000 18.049 C 12.239 18.049,12.682 17.850,12.784 17.696 C 12.826 17.633,14.213 16.223,15.866 14.561 C 17.971 12.445,18.898 11.487,18.960 11.363 C 19.137 11.010,19.048 10.646,18.701 10.299 C 18.361 9.959,17.980 9.868,17.628 10.044 C 17.517 10.100,16.706 10.881,15.231 12.353 L 13.001 14.577 12.991 8.599 L 12.980 2.620 12.891 2.453 C 12.842 2.362,12.746 2.247,12.678 2.199 C 12.414 2.010,11.957 1.950,11.614 2.057 M2.614 20.057 C 2.377 20.131,2.212 20.261,2.109 20.453 C 2.035 20.592,2.020 20.684,2.020 21.000 C 2.020 21.331,2.033 21.403,2.120 21.558 C 2.230 21.755,2.414 21.898,2.635 21.959 C 2.835 22.015,21.165 22.015,21.365 21.959 C 21.586 21.898,21.770 21.755,21.880 21.558 C 21.967 21.402,21.980 21.332,21.979 21.000 C 21.978 20.567,21.898 20.355,21.678 20.199 C 21.385 19.990,21.877 20.000,11.984 20.003 C 4.546 20.005,2.748 20.015,2.614 20.057 " stroke="none" fill-rule="evenodd" fill="black"></path></svg>