<svg width="24" height="24" viewBox="0 0 24 24" fill="none" xmlns="http://www.w3.org/2000/svg"><path d="M8.840 2.028 C 6.112 2.233,3.569 3.821,2.173 6.190 C 0.270 9.418,0.721 13.527,3.282 16.292 C 3.894 16.953,4.332 17.016,4.857 16.519 C 5.224 16.172,5.329 15.808,5.161 15.462 C 5.117 15.372,4.953 15.155,4.796 14.979 C 4.058 14.155,3.596 13.372,3.308 12.459 C 2.916 11.216,2.916 9.784,3.308 8.541 C 3.857 6.801,5.163 5.333,6.828 4.585 C 7.574 4.250,8.146 4.107,9.029 4.034 C 10.488 3.912,11.874 4.282,13.160 5.135 C 13.777 5.544,14.477 6.260,14.939 6.953 C 15.522 7.828,15.722 7.938,16.903 8.038 C 18.206 8.148,19.324 8.778,20.128 9.857 C 21.087 11.142,21.259 12.955,20.561 14.418 C 20.317 14.929,20.030 15.320,19.553 15.788 C 19.312 16.026,19.077 16.291,19.032 16.378 C 18.868 16.695,18.966 17.078,19.307 17.445 C 19.645 17.808,19.971 17.886,20.352 17.697 C 20.468 17.639,20.737 17.424,20.964 17.209 C 21.977 16.245,22.610 15.092,22.890 13.700 C 23.004 13.131,23.014 11.981,22.910 11.420 C 22.458 8.986,20.820 7.094,18.500 6.325 C 18.044 6.174,17.650 6.094,17.120 6.044 C 16.890 6.022,16.696 5.987,16.688 5.965 C 16.681 5.943,16.574 5.784,16.452 5.612 C 15.527 4.319,14.379 3.379,12.922 2.723 C 11.713 2.179,10.216 1.924,8.840 2.028 M11.614 11.057 C 11.377 11.131,11.212 11.261,11.109 11.453 L 11.020 11.620 11.009 15.098 L 10.998 18.575 9.769 17.352 C 9.001 16.588,8.477 16.098,8.372 16.045 C 8.020 15.868,7.639 15.958,7.299 16.299 C 6.952 16.646,6.863 17.011,7.040 17.363 C 7.101 17.484,7.766 18.182,9.134 19.561 C 10.237 20.673,11.174 21.634,11.216 21.696 C 11.318 21.850,11.761 22.049,12.000 22.049 C 12.239 22.049,12.682 21.850,12.784 21.696 C 12.826 21.634,13.763 20.673,14.866 19.561 C 16.234 18.182,16.899 17.484,16.960 17.363 C 17.137 17.011,17.048 16.646,16.701 16.299 C 16.361 15.958,15.980 15.868,15.628 16.045 C 15.523 16.098,15.000 16.588,14.231 17.352 L 13.002 18.575 12.991 15.097 L 12.980 11.620 12.891 11.453 C 12.842 11.362,12.746 11.247,12.678 11.199 C 12.414 11.010,11.957 10.950,11.614 11.057 " stroke="none" fill-rule="evenodd" fill="black"></path></svg>