<svg width="24" height="24" viewBox="0 0 24 24" fill="none" xmlns="http://www.w3.org/2000/svg"><path d="M11.280 1.023 C 11.203 1.032,10.951 1.059,10.720 1.083 C 9.527 1.210,8.337 1.558,7.180 2.120 C 6.045 2.671,5.193 3.285,4.238 4.239 C 3.277 5.198,2.643 6.080,2.097 7.220 C 0.301 10.968,0.728 15.286,3.226 18.633 C 3.701 19.269,4.753 20.316,5.400 20.797 C 9.364 23.745,14.666 23.734,18.637 20.770 C 19.246 20.316,20.316 19.246,20.770 18.637 C 23.744 14.652,23.744 9.348,20.770 5.363 C 20.316 4.755,19.247 3.686,18.640 3.235 C 17.045 2.049,15.365 1.360,13.423 1.096 C 13.000 1.038,11.574 0.990,11.280 1.023 M13.320 3.101 C 15.883 3.488,18.124 4.931,19.560 7.120 C 19.863 7.583,20.303 8.479,20.492 9.020 C 20.838 10.013,20.977 10.865,20.977 12.000 C 20.977 13.493,20.720 14.621,20.080 15.940 C 19.375 17.394,18.311 18.607,16.927 19.532 C 16.138 20.060,14.876 20.588,13.908 20.797 C 11.266 21.366,8.479 20.708,6.370 19.019 C 4.857 17.807,3.722 16.029,3.267 14.160 C 3.081 13.397,3.023 12.888,3.023 12.000 C 3.023 10.507,3.280 9.379,3.920 8.060 C 4.971 5.891,6.877 4.221,9.160 3.466 C 9.865 3.233,10.432 3.118,11.340 3.024 C 11.662 2.991,12.911 3.039,13.320 3.101 M11.614 7.057 C 11.377 7.131,11.212 7.261,11.109 7.453 L 11.020 7.620 11.009 10.598 L 10.998 13.575 9.769 12.352 C 9.000 11.588,8.477 11.098,8.372 11.045 C 8.020 10.868,7.639 10.958,7.299 11.299 C 6.952 11.646,6.863 12.011,7.040 12.363 C 7.101 12.484,7.766 13.182,9.134 14.561 C 10.237 15.673,11.174 16.634,11.216 16.696 C 11.318 16.850,11.761 17.049,12.000 17.049 C 12.239 17.049,12.682 16.850,12.784 16.696 C 12.826 16.634,13.763 15.673,14.866 14.561 C 16.234 13.182,16.899 12.484,16.960 12.363 C 17.137 12.011,17.048 11.646,16.701 11.299 C 16.361 10.958,15.980 10.868,15.628 11.045 C 15.523 11.098,15.000 11.587,14.231 12.352 L 13.002 13.575 12.991 10.597 L 12.980 7.620 12.891 7.453 C 12.842 7.362,12.746 7.247,12.678 7.199 C 12.414 7.010,11.957 6.950,11.614 7.057 " stroke="none" fill-rule="evenodd" fill="black"></path></svg>