<svg width="24" height="24" viewBox="0 0 24 24" fill="none" xmlns="http://www.w3.org/2000/svg"><path d="M8.139 1.739 C 7.478 1.890,6.222 2.577,5.220 3.336 C 4.808 3.648,3.959 4.473,3.551 4.960 C 3.128 5.463,2.547 6.341,2.225 6.960 C 0.282 10.704,0.668 15.205,3.226 18.633 C 3.701 19.269,4.753 20.316,5.400 20.797 C 9.364 23.745,14.666 23.734,18.637 20.770 C 19.246 20.316,20.316 19.246,20.770 18.637 C 23.600 14.845,23.750 9.815,21.149 5.900 C 20.574 5.034,19.730 4.103,18.952 3.477 C 18.492 3.108,17.605 2.513,17.333 2.393 C 16.957 2.226,16.550 2.311,16.299 2.608 C 16.112 2.829,15.960 3.195,15.960 3.422 C 15.960 3.775,16.093 3.927,16.831 4.415 C 18.285 5.378,19.292 6.495,20.037 7.970 C 20.695 9.271,20.975 10.473,20.976 12.000 C 20.978 13.490,20.721 14.620,20.080 15.940 C 19.375 17.394,18.311 18.607,16.927 19.532 C 16.138 20.060,14.876 20.588,13.908 20.797 C 11.266 21.366,8.479 20.708,6.370 19.019 C 4.857 17.807,3.722 16.029,3.267 14.160 C 3.080 13.393,3.023 12.888,3.024 12.000 C 3.025 10.512,3.286 9.350,3.898 8.100 C 4.812 6.235,6.139 4.891,8.000 3.947 L 8.540 3.673 8.980 3.688 C 9.415 3.702,9.424 3.705,9.780 3.891 C 10.465 4.249,10.745 4.550,10.906 5.102 C 10.970 5.320,10.977 5.692,10.990 9.460 L 11.004 13.580 9.772 12.355 C 9.002 11.589,8.477 11.098,8.372 11.045 C 8.020 10.868,7.639 10.958,7.299 11.299 C 6.952 11.646,6.863 12.011,7.040 12.363 C 7.101 12.484,7.766 13.182,9.134 14.561 C 10.237 15.673,11.174 16.634,11.216 16.696 C 11.318 16.850,11.761 17.049,12.000 17.049 C 12.239 17.049,12.682 16.850,12.784 16.696 C 12.826 16.634,13.763 15.673,14.866 14.561 C 16.234 13.182,16.899 12.484,16.960 12.363 C 17.137 12.011,17.048 11.646,16.701 11.299 C 16.361 10.958,15.980 10.868,15.628 11.045 C 15.523 11.098,15.000 11.587,14.232 12.351 L 13.004 13.573 12.990 9.376 C 12.975 5.298,12.972 5.170,12.891 4.815 C 12.610 3.581,11.971 2.791,10.717 2.126 C 10.509 2.017,10.187 1.878,10.000 1.818 C 9.698 1.721,9.588 1.707,9.020 1.696 C 8.578 1.687,8.305 1.701,8.139 1.739 " stroke="none" fill-rule="evenodd" fill="black"></path></svg>