<svg width="24" height="24" viewBox="0 0 24 24" fill="none" xmlns="http://www.w3.org/2000/svg"><path d="M11.614 2.057 C 11.377 2.131,11.212 2.261,11.109 2.453 L 11.020 2.620 11.009 7.598 L 10.999 12.577 9.269 10.853 C 8.147 9.734,7.481 9.099,7.372 9.044 C 7.020 8.868,6.639 8.959,6.299 9.299 C 5.952 9.646,5.863 10.010,6.040 10.363 C 6.101 10.486,6.897 11.313,8.634 13.061 C 10.012 14.448,11.174 15.634,11.216 15.696 C 11.318 15.850,11.761 16.049,12.000 16.049 C 12.239 16.049,12.682 15.850,12.784 15.696 C 12.826 15.634,13.988 14.448,15.366 13.061 C 17.103 11.313,17.899 10.486,17.960 10.363 C 18.137 10.010,18.048 9.646,17.701 9.299 C 17.361 8.959,16.980 8.868,16.628 9.044 C 16.519 9.099,15.853 9.734,14.731 10.853 L 13.002 12.576 12.991 7.598 L 12.980 2.620 12.891 2.453 C 12.842 2.362,12.746 2.247,12.678 2.199 C 12.414 2.010,11.957 1.950,11.614 2.057 M2.614 14.057 C 2.377 14.131,2.212 14.261,2.109 14.453 C 2.022 14.616,2.020 14.658,2.007 16.120 C 1.988 18.388,2.074 19.088,2.465 19.859 C 2.915 20.749,3.772 21.482,4.680 21.755 C 5.474 21.994,5.642 22.000,12.000 22.000 C 18.358 22.000,18.526 21.994,19.320 21.755 C 20.228 21.482,21.085 20.749,21.535 19.859 C 21.927 19.087,22.012 18.386,21.993 16.120 C 21.980 14.658,21.978 14.616,21.891 14.453 C 21.785 14.256,21.622 14.131,21.371 14.055 C 20.861 13.902,20.310 14.076,20.110 14.453 C 20.024 14.616,20.021 14.667,19.993 16.420 C 19.958 18.731,19.930 18.870,19.400 19.401 C 19.101 19.701,18.820 19.851,18.418 19.928 C 18.010 20.005,5.990 20.005,5.582 19.927 C 5.170 19.850,4.898 19.704,4.600 19.403 C 4.070 18.868,4.043 18.732,4.006 16.420 C 3.979 14.670,3.975 14.615,3.890 14.453 C 3.841 14.362,3.746 14.247,3.678 14.199 C 3.414 14.010,2.957 13.950,2.614 14.057 " stroke="none" fill-rule="evenodd" fill="black"></path></svg>