<svg width="24" height="24" viewBox="0 0 24 24" fill="none" xmlns="http://www.w3.org/2000/svg"><path d="M13.660 1.515 C 13.480 1.562,13.380 1.624,13.260 1.767 C 13.123 1.930,13.109 1.969,12.922 2.697 C 12.678 3.644,12.388 4.364,11.919 5.185 C 11.565 5.804,11.520 5.912,11.520 6.143 C 11.520 6.384,11.606 6.559,11.826 6.761 C 12.190 7.096,12.634 7.206,12.957 7.042 C 13.182 6.927,13.385 6.671,13.700 6.105 C 13.854 5.829,13.989 5.602,14.000 5.602 C 14.011 5.602,14.119 5.786,14.240 6.010 C 14.964 7.350,15.992 8.609,17.180 9.610 C 18.829 10.999,19.589 12.084,19.892 13.480 C 20.002 13.985,20.008 15.038,19.905 15.600 C 19.814 16.098,19.610 16.701,19.377 17.166 C 18.634 18.649,17.457 19.673,15.899 20.194 C 15.209 20.424,14.778 20.494,14.040 20.494 C 13.299 20.495,12.820 20.420,12.157 20.201 C 11.306 19.919,10.694 19.562,9.971 18.924 C 9.485 18.495,9.367 18.429,9.099 18.429 C 8.841 18.429,8.644 18.523,8.395 18.765 C 8.063 19.088,7.962 19.443,8.104 19.783 C 8.184 19.975,8.598 20.407,9.040 20.759 C 10.262 21.732,11.716 22.317,13.314 22.478 C 14.723 22.620,16.166 22.348,17.540 21.681 C 19.150 20.900,20.429 19.602,21.221 17.945 C 21.784 16.768,22.035 15.567,21.988 14.280 C 21.962 13.551,21.860 12.979,21.640 12.320 C 21.124 10.778,20.232 9.564,18.620 8.213 C 17.379 7.173,16.483 6.043,15.802 4.660 C 15.449 3.944,15.269 3.453,15.074 2.680 C 14.888 1.943,14.802 1.790,14.480 1.632 C 14.244 1.516,13.866 1.462,13.660 1.515 M6.814 3.800 C 6.364 3.894,6.139 4.130,6.002 4.650 C 5.852 5.221,5.756 5.488,5.559 5.887 C 5.182 6.646,4.742 7.193,3.960 7.873 C 2.689 8.977,2.082 10.128,2.011 11.565 C 1.985 12.109,2.036 12.517,2.206 13.119 C 2.445 13.965,2.855 14.656,3.499 15.303 C 4.467 16.275,5.641 16.764,7.000 16.764 C 8.357 16.764,9.534 16.273,10.501 15.303 C 11.423 14.378,11.924 13.251,11.987 11.960 C 12.063 10.424,11.425 9.104,9.985 7.818 C 9.222 7.136,8.857 6.685,8.485 5.961 C 8.264 5.533,8.187 5.321,7.957 4.513 C 7.865 4.186,7.713 3.960,7.520 3.860 C 7.374 3.785,7.026 3.755,6.814 3.800 M7.140 7.630 C 7.473 8.158,7.954 8.684,8.808 9.455 C 9.390 9.979,9.726 10.472,9.905 11.062 C 9.991 11.346,10.004 12.158,9.927 12.440 C 9.712 13.223,9.206 13.914,8.522 14.355 C 7.673 14.904,6.327 14.904,5.478 14.355 C 4.934 14.004,4.452 13.435,4.228 12.880 C 4.053 12.447,4.023 12.284,4.025 11.760 C 4.027 11.334,4.042 11.214,4.130 10.949 C 4.338 10.316,4.588 10.003,5.693 8.984 C 6.181 8.535,6.544 8.118,6.821 7.688 C 6.908 7.552,6.989 7.441,7.000 7.440 C 7.011 7.440,7.074 7.526,7.140 7.630 " stroke="none" fill-rule="evenodd" fill="black"></path></svg>