<svg width="24" height="24" viewBox="0 0 24 24" fill="none" xmlns="http://www.w3.org/2000/svg"><path d="M18.611 1.204 C 18.216 1.241,17.771 1.358,17.416 1.519 C 16.825 1.787,16.665 1.929,14.291 4.294 L 12.002 6.575 11.511 6.096 C 10.970 5.568,10.801 5.461,10.500 5.461 C 10.245 5.461,10.033 5.565,9.788 5.809 C 9.451 6.144,9.362 6.485,9.520 6.833 C 9.568 6.938,9.791 7.202,10.087 7.504 L 10.576 8.002 7.274 11.311 C 5.458 13.131,3.851 14.772,3.703 14.958 C 2.985 15.859,2.429 16.875,1.921 18.215 C 1.548 19.199,1.071 21.122,1.013 21.876 C 0.966 22.484,1.154 22.800,1.643 22.938 C 1.958 23.026,2.213 23.008,3.060 22.837 C 5.226 22.400,7.177 21.632,8.520 20.688 C 9.121 20.265,9.534 19.872,12.689 16.725 L 15.998 13.424 16.489 13.905 C 17.004 14.408,17.236 14.560,17.493 14.560 C 17.954 14.560,18.562 13.954,18.559 13.497 C 18.558 13.223,18.427 13.020,17.913 12.496 L 17.425 11.998 19.706 9.709 C 22.060 7.346,22.202 7.187,22.480 6.592 C 22.827 5.851,22.916 4.860,22.707 4.060 C 22.225 2.217,20.518 1.027,18.611 1.204 M19.624 3.286 C 20.632 3.657,21.097 4.812,20.637 5.800 C 20.526 6.038,20.327 6.249,18.258 8.320 L 16.001 10.580 14.710 9.290 L 13.420 7.999 15.680 5.742 C 17.795 3.629,17.958 3.476,18.214 3.356 C 18.649 3.154,19.190 3.127,19.624 3.286 M13.300 10.720 L 14.580 12.001 11.240 15.334 C 9.141 17.428,7.783 18.753,7.585 18.900 C 6.766 19.504,5.732 20.011,4.560 20.382 C 4.058 20.542,3.270 20.764,3.258 20.750 C 3.245 20.735,3.386 20.196,3.523 19.740 C 3.940 18.348,4.562 17.083,5.253 16.220 C 5.412 16.021,11.961 9.440,12.000 9.440 C 12.011 9.440,12.596 10.016,13.300 10.720 " stroke="none" fill-rule="evenodd" fill="black"></path></svg>