<svg width="24" height="24" viewBox="0 0 24 24" fill="none" xmlns="http://www.w3.org/2000/svg"><path d="M11.640 1.042 C 11.325 1.183,8.940 3.641,7.276 5.540 C 5.581 7.474,4.420 9.053,3.863 10.178 C 3.169 11.581,2.869 13.381,3.059 15.008 C 3.373 17.691,4.817 20.034,7.080 21.531 C 9.691 23.259,13.107 23.472,15.940 22.084 C 20.187 20.003,22.095 15.065,20.354 10.660 C 19.666 8.921,17.146 5.766,13.541 2.131 C 12.474 1.056,12.350 0.962,12.000 0.962 C 11.901 0.962,11.739 0.998,11.640 1.042 M12.872 4.310 C 15.490 7.026,17.458 9.420,18.219 10.815 C 18.549 11.421,18.814 12.250,18.924 13.020 C 18.990 13.482,18.990 14.517,18.924 14.980 C 18.487 18.047,16.126 20.424,13.020 20.926 C 12.607 20.992,11.393 20.992,10.980 20.926 C 7.873 20.424,5.513 18.047,5.076 14.980 C 5.010 14.517,5.010 13.482,5.076 13.020 C 5.184 12.266,5.452 11.420,5.766 10.841 C 6.362 9.744,7.711 8.019,9.599 5.940 C 10.419 5.036,11.953 3.440,12.000 3.440 C 12.018 3.440,12.411 3.831,12.872 4.310 " stroke="none" fill-rule="evenodd" fill="black"></path></svg>