<svg version="1.1" xmlns="http://www.w3.org/2000/svg" width="32" height="32" viewBox="0 0 32 32"><path d="M0.000 15.412 L 0.000 22.933 3.587 22.933 C 7.596 22.933,8.166 22.900,9.014 22.616 C 9.766 22.364,10.178 22.088,10.964 21.307 C 12.205 20.074,12.857 18.869,13.183 17.201 C 13.340 16.400,13.340 15.167,13.183 14.292 C 12.698 11.589,11.059 9.492,8.441 8.224 L 7.813 7.920 3.907 7.906 L 0.000 7.891 0.000 15.412 M13.067 9.680 L 13.067 11.467 15.255 11.467 L 17.444 11.467 17.407 17.201 L 17.369 22.935 19.418 22.921 L 21.467 22.907 21.480 17.213 L 21.494 11.520 22.254 11.513 C 22.671 11.509,23.577 11.491,24.267 11.473 L 25.520 11.440 25.534 9.667 L 25.548 7.893 19.307 7.893 L 13.067 7.893 13.067 9.680 M27.915 9.555 C 27.390 10.468,26.952 11.236,26.942 11.261 C 26.932 11.286,27.278 11.307,27.710 11.307 L 28.496 11.307 28.475 17.107 L 28.453 22.907 30.227 22.921 L 32.000 22.935 32.000 15.414 L 32.000 7.893 30.435 7.893 L 28.869 7.893 27.915 9.555 M7.395 11.787 C 8.596 12.267,9.411 13.164,9.710 14.334 C 9.836 14.827,9.848 15.670,9.735 16.205 C 9.464 17.496,8.605 18.579,7.401 19.148 L 7.067 19.307 5.293 19.307 L 3.520 19.307 3.520 15.467 L 3.520 11.627 5.258 11.627 L 6.996 11.627 7.395 11.787 " stroke="none" fill-rule="evenodd" fill="black"></path></svg>