<svg width="24" height="24" viewBox="0 0 24 24" fill="none" xmlns="http://www.w3.org/2000/svg"><path d="M17.450 1.922 C 16.941 2.013,16.483 2.224,16.060 2.563 C 15.714 2.839,2.722 15.860,2.546 16.107 C 2.367 16.357,2.191 16.735,2.093 17.082 C 2.029 17.311,2.020 17.511,2.020 18.860 L 2.020 20.380 2.120 20.558 C 2.233 20.760,2.417 20.900,2.653 20.963 C 2.760 20.992,3.293 21.001,4.257 20.989 C 5.864 20.970,5.913 20.963,6.500 20.680 C 6.729 20.570,6.934 20.424,7.220 20.167 C 7.440 19.970,10.511 16.913,14.044 13.374 C 18.381 9.030,20.517 6.863,20.620 6.703 C 20.982 6.143,21.145 5.523,21.107 4.842 C 21.095 4.610,21.055 4.312,21.019 4.180 C 20.741 3.156,19.841 2.256,18.820 1.981 C 18.531 1.904,17.742 1.869,17.450 1.922 M18.494 4.001 C 18.716 4.112,18.882 4.280,19.007 4.520 C 19.129 4.755,19.137 5.219,19.023 5.460 C 18.927 5.664,5.906 18.714,5.640 18.873 C 5.465 18.977,5.440 18.980,4.726 18.993 L 3.992 19.006 4.007 18.273 C 4.019 17.660,4.034 17.517,4.095 17.400 C 4.179 17.238,17.188 4.200,17.406 4.059 C 17.486 4.007,17.612 3.946,17.686 3.924 C 17.894 3.860,18.286 3.897,18.494 4.001 M20.580 17.076 C 20.446 17.153,20.183 17.408,19.787 17.845 C 19.461 18.205,19.095 18.576,18.975 18.669 C 18.566 18.984,18.018 19.077,17.506 18.919 C 17.209 18.827,16.994 18.678,16.560 18.262 C 16.215 17.932,16.014 17.787,15.620 17.589 C 14.180 16.862,12.493 17.164,11.349 18.352 C 11.045 18.668,10.951 18.852,10.951 19.128 C 10.951 19.580,11.566 20.163,12.037 20.159 C 12.216 20.158,12.462 20.016,12.756 19.746 C 12.916 19.600,13.161 19.426,13.310 19.352 C 13.562 19.228,13.604 19.220,14.000 19.220 C 14.397 19.220,14.437 19.228,14.693 19.353 C 14.882 19.447,15.092 19.608,15.389 19.887 C 16.017 20.477,16.615 20.796,17.354 20.937 C 18.417 21.138,19.606 20.803,20.418 20.074 C 20.829 19.704,21.888 18.513,21.970 18.328 C 22.127 17.972,22.049 17.645,21.732 17.329 C 21.350 16.946,20.955 16.860,20.580 17.076 " stroke="none" fill-rule="evenodd" fill="black"></path></svg>