<svg width="24" height="24" viewBox="0 0 24 24" fill="none" xmlns="http://www.w3.org/2000/svg"><path d="M19.450 0.922 C 18.942 1.013,18.483 1.224,18.060 1.562 C 17.715 1.838,7.723 11.859,7.546 12.107 C 7.372 12.350,7.195 12.727,7.098 13.061 C 7.039 13.262,7.025 13.528,7.011 14.743 C 6.999 15.707,7.008 16.240,7.037 16.347 C 7.100 16.583,7.240 16.767,7.442 16.880 L 7.620 16.980 9.140 16.980 C 10.846 16.979,10.892 16.974,11.500 16.681 C 11.729 16.570,11.934 16.424,12.220 16.167 C 12.440 15.970,14.836 13.588,17.543 10.874 C 20.831 7.580,22.518 5.861,22.620 5.703 C 22.982 5.143,23.145 4.523,23.107 3.842 C 23.095 3.610,23.055 3.312,23.019 3.180 C 22.741 2.156,21.841 1.256,20.820 0.981 C 20.531 0.904,19.742 0.869,19.450 0.922 M20.494 3.001 C 20.716 3.112,20.882 3.280,21.007 3.520 C 21.129 3.755,21.137 4.219,21.023 4.460 C 20.928 4.664,10.905 14.714,10.640 14.873 C 10.465 14.977,10.440 14.980,9.726 14.993 L 8.992 15.006 9.007 14.273 C 9.019 13.660,9.034 13.517,9.095 13.400 C 9.180 13.237,19.188 3.200,19.406 3.059 C 19.486 3.007,19.612 2.946,19.686 2.924 C 19.894 2.860,20.286 2.897,20.494 3.001 M4.920 3.041 C 4.153 3.092,3.673 3.205,3.180 3.451 C 2.089 3.996,1.357 4.961,1.124 6.160 C 1.013 6.729,1.000 7.455,1.000 13.000 C 1.000 19.358,1.006 19.526,1.245 20.320 C 1.577 21.422,2.578 22.423,3.680 22.755 C 4.474 22.994,4.642 23.000,11.000 23.000 C 17.358 23.000,17.526 22.994,18.320 22.755 C 19.422 22.423,20.425 21.421,20.755 20.320 C 20.984 19.555,21.007 19.112,20.992 15.620 L 20.980 12.620 20.891 12.453 C 20.689 12.076,20.138 11.902,19.629 12.055 C 19.378 12.131,19.215 12.256,19.109 12.453 L 19.020 12.620 18.996 15.920 C 18.969 19.477,18.967 19.510,18.752 19.952 C 18.626 20.211,18.190 20.638,17.918 20.768 C 17.466 20.985,17.627 20.980,11.000 20.980 C 4.383 20.980,4.538 20.985,4.082 20.771 C 3.812 20.643,3.377 20.217,3.248 19.952 C 3.198 19.849,3.126 19.633,3.088 19.472 C 3.025 19.203,3.020 18.687,3.020 13.000 C 3.020 7.313,3.025 6.797,3.088 6.528 C 3.126 6.367,3.198 6.151,3.248 6.048 C 3.366 5.806,3.806 5.366,4.048 5.248 C 4.489 5.033,4.523 5.031,8.080 5.005 C 11.354 4.980,11.381 4.979,11.540 4.894 C 11.874 4.715,11.978 4.504,11.979 4.000 C 11.980 3.668,11.967 3.598,11.880 3.442 C 11.816 3.328,11.709 3.219,11.583 3.142 L 11.386 3.020 8.383 3.015 C 6.731 3.013,5.173 3.024,4.920 3.041 " stroke="none" fill-rule="evenodd" fill="black"></path></svg>