<svg width="24" height="24" viewBox="0 0 24 24" fill="none" xmlns="http://www.w3.org/2000/svg"><path d="M17.450 1.922 C 16.941 2.013,16.483 2.224,16.060 2.563 C 15.714 2.839,2.722 15.860,2.546 16.107 C 2.367 16.357,2.191 16.735,2.093 17.082 C 2.029 17.311,2.020 17.511,2.020 18.860 L 2.020 20.380 2.120 20.558 C 2.233 20.760,2.417 20.900,2.653 20.963 C 2.760 20.992,3.293 21.001,4.257 20.989 C 5.864 20.970,5.913 20.963,6.500 20.680 C 6.729 20.570,6.934 20.424,7.220 20.167 C 7.440 19.970,10.511 16.913,14.044 13.374 C 18.381 9.030,20.517 6.863,20.620 6.703 C 20.982 6.143,21.145 5.523,21.107 4.842 C 21.095 4.610,21.055 4.312,21.019 4.180 C 20.741 3.156,19.841 2.256,18.820 1.981 C 18.531 1.904,17.742 1.869,17.450 1.922 M18.494 4.001 C 18.716 4.112,18.882 4.280,19.007 4.520 C 19.129 4.755,19.137 5.219,19.023 5.460 C 18.927 5.664,5.906 18.714,5.640 18.873 C 5.465 18.977,5.440 18.980,4.726 18.993 L 3.992 19.006 4.007 18.273 C 4.019 17.660,4.034 17.517,4.095 17.400 C 4.179 17.238,17.188 4.200,17.406 4.059 C 17.486 4.007,17.612 3.946,17.686 3.924 C 17.894 3.860,18.286 3.897,18.494 4.001 M11.614 19.057 C 11.377 19.131,11.212 19.261,11.109 19.453 C 11.035 19.592,11.020 19.684,11.020 20.000 C 11.020 20.331,11.033 20.403,11.120 20.558 C 11.230 20.755,11.414 20.898,11.635 20.959 C 11.834 21.014,21.166 21.014,21.365 20.959 C 21.586 20.898,21.770 20.755,21.880 20.558 C 21.967 20.402,21.980 20.332,21.979 20.000 C 21.978 19.567,21.898 19.355,21.678 19.199 C 21.392 18.995,21.526 19.000,16.484 19.003 C 12.740 19.005,11.746 19.016,11.614 19.057 " stroke="none" fill-rule="evenodd" fill="black"></path></svg>