<svg width="24" height="24" viewBox="0 0 24 24" fill="none" xmlns="http://www.w3.org/2000/svg"><path d="M4.614 8.057 C 4.377 8.131,4.212 8.261,4.109 8.453 C 4.035 8.592,4.020 8.684,4.020 9.000 C 4.020 9.331,4.033 9.403,4.120 9.558 C 4.230 9.755,4.414 9.898,4.635 9.959 C 4.835 10.015,19.165 10.015,19.365 9.959 C 19.586 9.898,19.770 9.755,19.880 9.558 C 19.967 9.402,19.980 9.332,19.979 9.000 C 19.978 8.567,19.898 8.355,19.678 8.199 C 19.387 7.991,19.720 8.000,11.984 8.003 C 6.188 8.005,4.747 8.016,4.614 8.057 M4.614 14.057 C 4.377 14.131,4.212 14.261,4.109 14.453 C 4.035 14.592,4.020 14.684,4.020 15.000 C 4.020 15.331,4.033 15.403,4.120 15.558 C 4.230 15.755,4.414 15.898,4.635 15.959 C 4.835 16.015,19.165 16.015,19.365 15.959 C 19.586 15.898,19.770 15.755,19.880 15.558 C 19.967 15.402,19.980 15.332,19.979 15.000 C 19.978 14.567,19.898 14.355,19.678 14.199 C 19.387 13.991,19.720 14.000,11.984 14.003 C 6.188 14.005,4.747 14.016,4.614 14.057 " stroke="none" fill-rule="evenodd" fill="black"></path></svg>