<svg width="24" height="24" viewBox="0 0 24 24" fill="none" xmlns="http://www.w3.org/2000/svg"><path d="M18.620 4.046 C 18.524 4.096,17.679 4.908,16.519 6.064 L 14.578 8.000 9.695 8.000 C 4.462 8.000,4.608 7.995,4.322 8.199 C 4.100 8.357,4.020 8.568,4.020 9.000 C 4.020 9.331,4.033 9.403,4.120 9.558 C 4.230 9.755,4.414 9.898,4.635 9.959 C 4.728 9.985,6.191 10.000,8.680 10.000 L 12.580 10.000 10.580 12.000 L 8.580 14.000 6.697 14.000 C 4.689 14.000,4.589 14.008,4.322 14.199 C 4.100 14.357,4.020 14.568,4.020 15.000 C 4.020 15.331,4.033 15.403,4.120 15.558 C 4.230 15.755,4.414 15.898,4.635 15.959 C 4.715 15.981,5.184 16.000,5.679 16.000 L 6.577 16.000 5.353 17.230 C 4.548 18.039,4.099 18.521,4.040 18.637 C 3.863 18.989,3.952 19.354,4.299 19.701 C 4.646 20.048,5.011 20.137,5.363 19.960 C 5.484 19.899,6.148 19.265,7.481 17.936 L 9.422 16.000 14.321 16.000 C 17.479 16.000,19.271 15.985,19.365 15.959 C 19.586 15.898,19.770 15.755,19.880 15.558 C 19.967 15.402,19.980 15.332,19.979 15.000 C 19.978 14.567,19.898 14.355,19.678 14.199 C 19.395 13.997,19.461 14.000,15.304 14.000 L 11.420 14.000 13.420 12.000 L 15.420 10.000 17.320 10.000 C 18.469 10.000,19.277 9.984,19.365 9.959 C 19.586 9.898,19.770 9.755,19.880 9.558 C 19.967 9.402,19.980 9.332,19.979 9.000 C 19.978 8.567,19.898 8.355,19.678 8.199 C 19.439 8.028,19.243 8.000,18.305 8.000 L 17.423 8.000 18.647 6.770 C 19.452 5.961,19.901 5.479,19.960 5.363 C 20.137 5.011,20.048 4.646,19.701 4.299 C 19.361 3.959,18.967 3.867,18.620 4.046 " stroke="none" fill-rule="evenodd" fill="black"></path></svg>