<svg width="24" height="24" viewBox="0 0 24 24" fill="none" xmlns="http://www.w3.org/2000/svg"><path d="M17.719 1.999 L 14.658 2.020 14.459 2.122 C 14.119 2.297,13.978 2.606,14.009 3.104 C 14.038 3.563,14.250 3.852,14.635 3.959 C 14.723 3.984,15.531 4.000,16.680 4.000 L 18.580 4.000 11.300 11.280 L 4.020 18.560 4.000 16.590 C 3.980 14.649,3.979 14.618,3.891 14.453 C 3.785 14.256,3.622 14.131,3.371 14.055 C 2.862 13.902,2.311 14.076,2.109 14.453 L 2.020 14.620 1.993 17.780 C 1.979 19.518,1.965 20.999,1.963 21.071 C 1.960 21.223,2.152 21.669,2.265 21.768 C 2.390 21.879,2.792 22.041,2.931 22.037 C 3.002 22.035,4.482 22.021,6.220 22.007 C 9.202 21.982,9.388 21.976,9.520 21.905 C 9.876 21.715,9.978 21.514,9.978 21.000 C 9.978 20.567,9.899 20.356,9.678 20.199 C 9.411 20.008,9.311 20.000,7.304 20.000 L 5.420 20.000 12.700 12.720 L 19.980 5.440 20.000 7.410 L 20.020 9.380 20.120 9.558 C 20.287 9.856,20.572 10.000,21.000 10.000 C 21.428 10.000,21.713 9.856,21.880 9.558 L 21.980 9.380 22.007 6.220 C 22.022 4.482,22.035 3.001,22.037 2.929 C 22.041 2.744,21.835 2.310,21.696 2.212 C 21.467 2.052,21.198 1.960,20.985 1.969 C 20.872 1.974,19.402 1.988,17.719 1.999 " stroke="none" fill-rule="evenodd" fill="black"></path></svg>