<svg width="24" height="24" viewBox="0 0 24 24" fill="none" xmlns="http://www.w3.org/2000/svg"><path d="M17.719 1.999 L 14.658 2.020 14.459 2.122 C 14.119 2.297,13.978 2.606,14.009 3.104 C 14.038 3.563,14.250 3.852,14.635 3.959 C 14.723 3.984,15.530 4.000,16.679 4.000 L 18.578 4.000 16.353 6.230 C 14.811 7.776,14.101 8.514,14.040 8.637 C 13.863 8.990,13.952 9.354,14.299 9.701 C 14.646 10.048,15.010 10.137,15.363 9.960 C 15.486 9.899,16.224 9.189,17.770 7.647 L 20.000 5.422 20.000 7.321 C 20.000 8.470,20.016 9.277,20.041 9.365 C 20.148 9.750,20.437 9.962,20.896 9.991 C 21.381 10.022,21.699 9.882,21.880 9.558 L 21.980 9.380 22.007 6.220 C 22.022 4.482,22.035 3.001,22.037 2.929 C 22.041 2.744,21.835 2.310,21.696 2.212 C 21.467 2.052,21.198 1.960,20.985 1.969 C 20.872 1.974,19.402 1.988,17.719 1.999 M5.920 2.042 C 5.667 2.058,5.343 2.092,5.200 2.118 C 4.027 2.326,2.999 3.086,2.465 4.141 C 2.225 4.613,2.109 5.072,2.041 5.820 C 1.987 6.399,1.987 10.173,2.041 10.365 C 2.148 10.750,2.437 10.962,2.896 10.991 C 3.381 11.022,3.699 10.882,3.880 10.558 L 3.980 10.380 4.006 8.080 C 4.034 5.619,4.046 5.462,4.248 5.048 C 4.366 4.806,4.806 4.366,5.048 4.248 C 5.463 4.046,5.618 4.034,8.080 4.006 C 10.330 3.981,10.383 3.978,10.540 3.894 C 10.875 3.715,10.978 3.504,10.978 3.000 C 10.978 2.567,10.899 2.356,10.678 2.199 C 10.409 2.007,10.316 2.000,8.284 2.006 C 7.237 2.009,6.173 2.025,5.920 2.042 M20.614 13.057 C 20.377 13.131,20.212 13.261,20.109 13.453 C 20.021 13.618,20.020 13.643,19.994 15.920 C 19.966 18.382,19.954 18.537,19.752 18.952 C 19.627 19.210,19.190 19.638,18.920 19.767 C 18.516 19.961,18.372 19.972,15.939 19.997 L 13.658 20.020 13.459 20.122 C 13.119 20.297,12.978 20.606,13.009 21.104 C 13.038 21.563,13.250 21.852,13.635 21.959 C 13.827 22.013,17.601 22.013,18.180 21.959 C 18.928 21.891,19.387 21.775,19.858 21.536 C 20.749 21.084,21.483 20.227,21.755 19.320 C 21.972 18.597,22.008 18.036,21.993 15.620 C 21.980 13.640,21.979 13.618,21.891 13.453 C 21.842 13.362,21.746 13.247,21.678 13.199 C 21.414 13.010,20.957 12.950,20.614 13.057 M8.620 14.046 C 8.523 14.096,7.579 15.008,6.232 16.352 L 4.004 18.575 3.992 16.597 C 3.980 14.640,3.979 14.618,3.891 14.453 C 3.785 14.256,3.622 14.131,3.371 14.055 C 2.862 13.902,2.311 14.076,2.109 14.453 L 2.020 14.620 1.993 17.780 C 1.979 19.518,1.965 20.998,1.963 21.069 C 1.959 21.208,2.121 21.610,2.232 21.735 C 2.331 21.848,2.777 22.040,2.929 22.037 C 3.001 22.035,4.482 22.021,6.220 22.007 C 9.349 21.980,9.382 21.979,9.540 21.894 C 9.875 21.715,9.978 21.504,9.978 21.000 C 9.978 20.567,9.899 20.356,9.678 20.199 C 9.411 20.008,9.311 20.000,7.304 20.000 L 5.422 20.000 7.647 17.770 C 9.189 16.224,9.899 15.486,9.960 15.363 C 10.137 15.010,10.048 14.646,9.701 14.299 C 9.361 13.959,8.967 13.867,8.620 14.046 " stroke="none" fill-rule="evenodd" fill="black"></path></svg>