<svg width="24" height="24" viewBox="0 0 24 24" fill="none" xmlns="http://www.w3.org/2000/svg"><path d="M2.541 2.083 C 2.423 2.139,2.294 2.211,2.256 2.243 C 2.152 2.328,1.960 2.779,1.963 2.929 C 1.965 3.001,1.979 4.482,1.993 6.220 L 2.020 9.380 2.120 9.558 C 2.287 9.856,2.572 10.000,3.000 10.000 C 3.428 10.000,3.713 9.856,3.880 9.558 L 3.980 9.380 3.992 7.403 L 4.004 5.425 6.232 7.648 C 7.777 9.190,8.514 9.899,8.637 9.960 C 8.990 10.137,9.354 10.048,9.701 9.701 C 10.048 9.354,10.137 8.990,9.960 8.637 C 9.899 8.514,9.189 7.776,7.647 6.230 L 5.422 4.000 7.321 4.000 C 8.470 4.000,9.277 3.984,9.365 3.959 C 9.586 3.898,9.770 3.755,9.880 3.558 C 9.967 3.402,9.980 3.332,9.979 3.000 C 9.978 2.685,9.963 2.591,9.888 2.450 C 9.784 2.252,9.574 2.102,9.320 2.043 C 9.204 2.016,7.998 1.997,5.948 1.990 L 2.757 1.980 2.541 2.083 M17.719 1.999 L 14.658 2.020 14.459 2.122 C 14.119 2.297,13.978 2.606,14.009 3.104 C 14.038 3.563,14.250 3.852,14.635 3.959 C 14.723 3.984,15.530 4.000,16.679 4.000 L 18.578 4.000 16.353 6.230 C 14.811 7.776,14.101 8.514,14.040 8.637 C 13.863 8.990,13.952 9.354,14.299 9.701 C 14.646 10.048,15.010 10.137,15.363 9.960 C 15.486 9.899,16.224 9.189,17.770 7.647 L 20.000 5.422 20.000 7.321 C 20.000 8.470,20.016 9.277,20.041 9.365 C 20.148 9.750,20.437 9.962,20.896 9.991 C 21.381 10.022,21.699 9.882,21.880 9.558 L 21.980 9.380 22.007 6.220 C 22.022 4.482,22.035 3.001,22.037 2.929 C 22.041 2.744,21.835 2.310,21.696 2.212 C 21.467 2.052,21.198 1.960,20.985 1.969 C 20.872 1.974,19.402 1.988,17.719 1.999 M8.620 14.046 C 8.523 14.096,7.579 15.008,6.232 16.352 L 4.004 18.575 3.992 16.597 C 3.980 14.640,3.979 14.618,3.891 14.453 C 3.785 14.256,3.622 14.131,3.371 14.055 C 2.862 13.902,2.311 14.076,2.109 14.453 L 2.020 14.620 1.993 17.780 C 1.979 19.518,1.965 20.998,1.963 21.069 C 1.959 21.208,2.121 21.610,2.232 21.735 C 2.331 21.848,2.777 22.040,2.929 22.037 C 3.001 22.035,4.482 22.021,6.220 22.007 C 9.349 21.980,9.382 21.979,9.540 21.894 C 9.875 21.715,9.978 21.504,9.978 21.000 C 9.978 20.567,9.899 20.356,9.678 20.199 C 9.411 20.008,9.311 20.000,7.304 20.000 L 5.422 20.000 7.647 17.770 C 9.189 16.224,9.899 15.486,9.960 15.363 C 10.137 15.010,10.048 14.646,9.701 14.299 C 9.361 13.959,8.967 13.867,8.620 14.046 M14.626 14.045 C 14.420 14.154,14.146 14.433,14.038 14.644 C 13.924 14.868,13.924 15.132,14.040 15.363 C 14.101 15.486,14.811 16.224,16.353 17.770 L 18.578 20.000 16.696 20.000 C 14.689 20.000,14.589 20.008,14.322 20.199 C 14.139 20.329,14.030 20.573,14.009 20.900 C 13.978 21.381,14.119 21.699,14.442 21.880 L 14.620 21.980 17.780 22.007 C 19.518 22.021,20.999 22.035,21.071 22.037 C 21.223 22.040,21.669 21.848,21.768 21.735 C 21.878 21.610,22.041 21.208,22.037 21.069 C 22.035 20.998,22.022 19.518,22.007 17.780 L 21.980 14.620 21.889 14.450 C 21.724 14.140,21.329 13.970,20.874 14.011 C 20.439 14.051,20.141 14.274,20.041 14.635 C 20.016 14.723,20.000 15.530,20.000 16.679 L 20.000 18.578 17.770 16.353 C 16.295 14.881,15.483 14.100,15.372 14.044 C 15.152 13.934,14.835 13.935,14.626 14.045 " stroke="none" fill-rule="evenodd" fill="black"></path></svg>