<svg width="24" height="24" viewBox="0 0 24 24" fill="none" xmlns="http://www.w3.org/2000/svg"><path d="M2.541 2.083 C 2.423 2.139,2.294 2.211,2.256 2.243 C 2.152 2.328,1.960 2.779,1.963 2.929 C 1.965 3.001,1.978 4.257,1.993 5.720 L 2.020 8.380 2.120 8.558 C 2.287 8.856,2.572 9.000,3.000 9.000 C 3.428 9.000,3.713 8.856,3.880 8.558 L 3.980 8.380 3.992 6.903 L 4.005 5.427 5.732 7.149 C 6.908 8.321,7.517 8.900,7.637 8.960 C 7.989 9.137,8.354 9.048,8.701 8.701 C 9.048 8.354,9.137 7.989,8.960 7.637 C 8.900 7.517,8.321 6.908,7.147 5.730 L 5.422 4.000 6.821 4.000 C 7.635 4.000,8.281 3.983,8.365 3.959 C 8.586 3.898,8.770 3.755,8.880 3.558 C 8.967 3.402,8.980 3.332,8.979 3.000 C 8.978 2.685,8.963 2.591,8.888 2.450 C 8.784 2.252,8.574 2.102,8.320 2.043 C 8.207 2.017,7.137 1.997,5.448 1.991 L 2.757 1.980 2.541 2.083 M18.219 1.999 L 15.658 2.020 15.459 2.122 C 15.119 2.297,14.978 2.606,15.009 3.104 C 15.038 3.563,15.250 3.852,15.635 3.959 C 15.719 3.983,16.365 4.000,17.179 4.000 L 18.578 4.000 16.853 5.730 C 15.679 6.908,15.100 7.517,15.040 7.637 C 14.863 7.989,14.952 8.354,15.299 8.701 C 15.646 9.048,16.011 9.137,16.363 8.960 C 16.483 8.900,17.092 8.321,18.270 7.147 L 20.000 5.422 20.000 6.821 C 20.000 7.635,20.017 8.281,20.041 8.365 C 20.148 8.750,20.437 8.962,20.896 8.991 C 21.381 9.022,21.699 8.882,21.880 8.558 L 21.980 8.380 22.007 5.720 C 22.022 4.257,22.036 3.001,22.037 2.929 C 22.041 2.743,21.834 2.310,21.696 2.212 C 21.467 2.052,21.198 1.960,20.985 1.969 C 20.872 1.974,19.627 1.988,18.219 1.999 M7.620 15.046 C 7.525 15.095,6.753 15.833,5.732 16.851 L 4.005 18.573 3.992 17.097 C 3.980 15.658,3.978 15.616,3.891 15.453 C 3.785 15.256,3.622 15.131,3.371 15.055 C 2.862 14.902,2.311 15.076,2.109 15.453 C 2.020 15.619,2.020 15.631,1.993 18.280 C 1.978 19.743,1.965 20.999,1.963 21.071 C 1.960 21.224,2.153 21.669,2.265 21.768 C 2.390 21.878,2.792 22.041,2.931 22.037 C 3.002 22.035,4.257 22.022,5.720 22.007 C 8.212 21.982,8.389 21.975,8.520 21.905 C 8.876 21.715,8.978 21.514,8.978 21.000 C 8.978 20.567,8.899 20.356,8.678 20.199 C 8.421 20.015,8.275 20.000,6.805 20.000 L 5.422 20.000 7.147 18.270 C 8.321 17.092,8.900 16.483,8.960 16.363 C 9.137 16.011,9.048 15.646,8.701 15.299 C 8.361 14.959,7.967 14.867,7.620 15.046 M15.626 15.045 C 15.420 15.154,15.146 15.433,15.038 15.644 C 14.924 15.868,14.924 16.133,15.040 16.363 C 15.100 16.483,15.679 17.092,16.853 18.270 L 18.578 20.000 17.195 20.000 C 15.725 20.000,15.579 20.015,15.322 20.199 C 15.139 20.329,15.030 20.573,15.009 20.900 C 14.978 21.381,15.119 21.699,15.442 21.880 L 15.620 21.980 18.280 22.007 C 19.743 22.022,20.999 22.035,21.071 22.037 C 21.224 22.040,21.669 21.847,21.768 21.735 C 21.878 21.610,22.041 21.208,22.037 21.069 C 22.036 20.998,22.022 19.743,22.007 18.280 L 21.980 15.620 21.889 15.450 C 21.724 15.140,21.329 14.970,20.874 15.011 C 20.439 15.051,20.141 15.274,20.041 15.635 C 20.017 15.719,20.000 16.365,20.000 17.179 L 20.000 18.578 18.270 16.853 C 17.147 15.734,16.481 15.099,16.372 15.044 C 16.152 14.934,15.835 14.935,15.626 15.045 " stroke="none" fill-rule="evenodd" fill="black"></path></svg>