<svg width="24" height="24" viewBox="0 0 24 24" fill="none" xmlns="http://www.w3.org/2000/svg"><path d="M17.719 1.999 L 14.658 2.020 14.459 2.122 C 14.119 2.297,13.978 2.606,14.009 3.104 C 14.038 3.563,14.250 3.852,14.635 3.959 C 14.723 3.984,15.530 4.000,16.679 4.000 L 18.578 4.000 16.353 6.230 C 14.811 7.776,14.101 8.514,14.040 8.637 C 13.863 8.990,13.952 9.354,14.299 9.701 C 14.646 10.048,15.010 10.137,15.363 9.960 C 15.486 9.899,16.224 9.189,17.770 7.647 L 20.000 5.422 20.000 7.321 C 20.000 8.470,20.016 9.277,20.041 9.365 C 20.148 9.750,20.437 9.962,20.896 9.991 C 21.381 10.022,21.699 9.882,21.880 9.558 L 21.980 9.380 22.007 6.220 C 22.022 4.482,22.035 3.001,22.037 2.929 C 22.041 2.744,21.835 2.310,21.696 2.212 C 21.467 2.052,21.198 1.960,20.985 1.969 C 20.872 1.974,19.402 1.988,17.719 1.999 M5.749 3.045 C 4.967 3.120,4.402 3.371,3.890 3.870 C 3.507 4.245,3.263 4.679,3.110 5.260 C 3.030 5.564,3.025 5.697,3.010 7.886 C 3.000 9.437,3.009 10.244,3.037 10.350 C 3.144 10.748,3.431 10.961,3.896 10.991 C 4.381 11.022,4.699 10.882,4.880 10.558 L 4.980 10.380 5.004 8.080 C 5.021 6.429,5.041 5.737,5.077 5.626 C 5.140 5.428,5.428 5.140,5.626 5.077 C 5.737 5.041,6.424 5.021,8.080 5.004 C 10.332 4.980,10.383 4.978,10.540 4.894 C 10.875 4.715,10.978 4.504,10.978 4.000 C 10.978 3.567,10.899 3.356,10.678 3.199 C 10.407 3.006,10.325 3.000,8.144 3.005 C 7.020 3.008,5.942 3.026,5.749 3.045 M19.614 13.057 C 19.377 13.131,19.212 13.261,19.109 13.453 C 19.021 13.619,19.020 13.640,18.996 15.920 C 18.980 17.469,18.958 18.266,18.927 18.360 C 18.860 18.566,18.666 18.780,18.450 18.886 L 18.260 18.980 15.959 19.000 L 13.658 19.020 13.459 19.122 C 13.119 19.297,12.978 19.606,13.009 20.104 C 13.039 20.570,13.252 20.856,13.651 20.963 C 13.758 20.992,14.555 21.001,16.115 20.990 C 18.299 20.975,18.437 20.969,18.740 20.890 C 19.320 20.738,19.726 20.510,20.118 20.118 C 20.526 19.711,20.764 19.269,20.906 18.660 C 20.974 18.367,20.980 18.139,20.980 15.980 L 20.980 13.620 20.891 13.453 C 20.842 13.362,20.746 13.247,20.678 13.199 C 20.414 13.010,19.957 12.950,19.614 13.057 M8.620 14.046 C 8.523 14.096,7.579 15.008,6.232 16.352 L 4.004 18.575 3.992 16.597 C 3.980 14.640,3.979 14.618,3.891 14.453 C 3.785 14.256,3.622 14.131,3.371 14.055 C 2.862 13.902,2.311 14.076,2.109 14.453 L 2.020 14.620 1.993 17.780 C 1.979 19.518,1.965 20.998,1.963 21.069 C 1.959 21.208,2.121 21.610,2.232 21.735 C 2.331 21.848,2.777 22.040,2.929 22.037 C 3.001 22.035,4.482 22.021,6.220 22.007 C 9.349 21.980,9.382 21.979,9.540 21.894 C 9.875 21.715,9.978 21.504,9.978 21.000 C 9.978 20.567,9.899 20.356,9.678 20.199 C 9.411 20.008,9.311 20.000,7.304 20.000 L 5.422 20.000 7.647 17.770 C 9.189 16.224,9.899 15.486,9.960 15.363 C 10.137 15.010,10.048 14.646,9.701 14.299 C 9.361 13.959,8.967 13.867,8.620 14.046 " stroke="none" fill-rule="evenodd" fill="black"></path></svg>