<svg width="24" height="24" viewBox="0 0 24 24" fill="none" xmlns="http://www.w3.org/2000/svg"><path d="M2.626 2.045 C 2.420 2.154,2.146 2.433,2.038 2.644 C 1.924 2.868,1.924 3.133,2.040 3.363 C 2.100 3.482,2.629 4.042,3.664 5.080 L 5.198 6.621 4.949 6.820 C 4.598 7.102,3.563 8.141,3.137 8.640 C 2.361 9.550,1.494 10.795,1.290 11.296 C 1.170 11.589,1.129 12.078,1.196 12.402 C 1.256 12.689,1.430 13.031,1.806 13.600 C 3.424 16.046,5.617 18.039,7.817 19.059 C 10.709 20.402,13.942 20.293,16.766 18.759 L 17.136 18.558 18.798 20.215 C 19.926 21.339,20.517 21.900,20.637 21.960 C 20.989 22.137,21.354 22.048,21.701 21.701 C 22.048 21.354,22.137 20.989,21.960 20.637 C 21.851 20.420,20.398 18.953,10.740 9.314 C 5.774 4.357,3.488 2.102,3.372 2.044 C 3.152 1.934,2.834 1.935,2.626 2.045 M11.180 4.041 C 10.148 4.132,9.834 4.311,9.743 4.862 C 9.706 5.083,9.809 5.556,9.936 5.748 C 10.151 6.072,10.419 6.137,11.196 6.053 C 12.778 5.881,14.435 6.233,15.900 7.053 C 16.859 7.589,17.627 8.183,18.543 9.098 C 19.335 9.888,19.870 10.535,20.466 11.422 L 20.855 12.001 20.469 12.570 C 20.257 12.884,19.918 13.347,19.717 13.600 C 19.332 14.083,19.161 14.383,19.160 14.575 C 19.159 14.931,19.438 15.313,19.848 15.518 C 20.321 15.754,20.633 15.641,21.114 15.059 C 21.791 14.241,22.525 13.157,22.710 12.704 C 22.829 12.411,22.872 11.917,22.804 11.602 C 22.738 11.295,22.567 10.958,22.185 10.386 C 19.798 6.812,16.651 4.574,13.340 4.098 C 12.832 4.025,11.700 3.995,11.180 4.041 M8.498 10.069 C 8.465 10.119,8.375 10.316,8.299 10.506 C 7.470 12.561,8.457 14.873,10.516 15.705 C 11.230 15.994,12.024 16.070,12.757 15.921 C 13.132 15.844,13.740 15.627,13.931 15.502 C 14.020 15.444,14.044 15.464,14.840 16.260 C 15.289 16.709,15.648 17.085,15.638 17.094 C 15.549 17.178,14.517 17.584,14.060 17.714 C 12.852 18.059,11.391 18.084,10.200 17.782 C 8.472 17.344,7.018 16.461,5.457 14.902 C 4.663 14.109,4.126 13.460,3.534 12.578 L 3.145 11.999 3.531 11.428 C 4.285 10.313,5.295 9.162,6.196 8.390 L 6.613 8.034 7.585 9.005 C 8.533 9.953,8.556 9.980,8.498 10.069 M11.298 12.718 C 11.957 13.378,12.484 13.930,12.468 13.945 C 12.416 13.997,11.819 14.010,11.596 13.963 C 11.221 13.885,10.896 13.705,10.602 13.410 C 10.283 13.089,10.102 12.746,10.036 12.334 C 9.991 12.057,10.016 11.520,10.073 11.520 C 10.088 11.520,10.640 12.059,11.298 12.718 " stroke="none" fill-rule="evenodd" fill="black"></path></svg>