<svg width="24" height="24" viewBox="0 0 24 24" fill="none" xmlns="http://www.w3.org/2000/svg"><path d="M11.280 1.023 C 11.203 1.032,10.951 1.059,10.720 1.083 C 9.527 1.210,8.337 1.558,7.180 2.120 C 6.045 2.671,5.193 3.285,4.238 4.239 C 3.277 5.198,2.643 6.080,2.097 7.220 C 0.301 10.968,0.728 15.286,3.226 18.633 C 3.701 19.269,4.753 20.316,5.400 20.797 C 9.364 23.745,14.666 23.734,18.637 20.770 C 19.246 20.316,20.316 19.246,20.770 18.637 C 23.744 14.652,23.744 9.348,20.770 5.363 C 20.316 4.755,19.247 3.686,18.640 3.235 C 17.045 2.049,15.365 1.360,13.423 1.096 C 13.000 1.038,11.574 0.990,11.280 1.023 M13.320 3.101 C 15.883 3.488,18.124 4.931,19.560 7.120 C 19.863 7.583,20.303 8.479,20.492 9.020 C 20.838 10.013,20.977 10.865,20.977 12.000 C 20.977 13.493,20.720 14.621,20.080 15.940 C 19.375 17.394,18.311 18.607,16.927 19.532 C 16.138 20.060,14.876 20.588,13.908 20.797 C 11.266 21.366,8.479 20.708,6.370 19.019 C 4.857 17.807,3.722 16.029,3.267 14.160 C 3.081 13.397,3.023 12.888,3.023 12.000 C 3.023 10.507,3.280 9.379,3.920 8.060 C 4.971 5.891,6.877 4.221,9.160 3.466 C 9.865 3.233,10.432 3.118,11.340 3.024 C 11.662 2.991,12.911 3.039,13.320 3.101 M14.516 7.577 C 13.466 7.979,13.167 9.277,13.945 10.055 C 14.528 10.638,15.472 10.638,16.055 10.055 C 16.781 9.330,16.577 8.126,15.650 7.657 C 15.455 7.558,15.370 7.541,15.042 7.532 C 14.789 7.525,14.611 7.540,14.516 7.577 M7.614 8.057 C 7.377 8.131,7.212 8.261,7.109 8.453 C 7.035 8.592,7.020 8.684,7.020 9.000 C 7.020 9.331,7.033 9.403,7.120 9.558 C 7.230 9.755,7.414 9.898,7.635 9.959 C 7.826 10.012,10.174 10.012,10.365 9.959 C 10.586 9.898,10.770 9.755,10.880 9.558 C 10.967 9.402,10.980 9.332,10.979 9.000 C 10.978 8.687,10.962 8.591,10.890 8.453 C 10.786 8.256,10.623 8.131,10.371 8.055 C 10.117 7.979,7.859 7.981,7.614 8.057 M7.654 13.057 C 7.222 13.258,6.960 13.598,6.960 13.959 C 6.960 14.227,7.069 14.448,7.381 14.814 C 8.077 15.630,9.208 16.381,10.240 16.714 C 10.915 16.932,11.230 16.980,12.000 16.980 C 12.770 16.980,13.085 16.932,13.760 16.714 C 14.542 16.462,15.357 15.989,16.046 15.387 C 17.100 14.465,17.304 13.833,16.718 13.303 C 16.346 12.967,15.899 12.870,15.584 13.057 C 15.494 13.111,15.271 13.317,15.089 13.515 C 14.496 14.163,13.769 14.627,12.980 14.865 C 12.655 14.963,12.559 14.974,12.000 14.974 C 11.441 14.974,11.345 14.963,11.020 14.865 C 10.231 14.627,9.504 14.163,8.911 13.515 C 8.729 13.317,8.506 13.111,8.416 13.057 C 8.200 12.928,7.930 12.928,7.654 13.057 " stroke="none" fill-rule="evenodd" fill="black"></path></svg>