<svg width="24" height="24" viewBox="0 0 24 24" fill="none" xmlns="http://www.w3.org/2000/svg"><path d="M5.920 2.041 C 5.151 2.092,4.672 2.205,4.180 2.451 C 3.089 2.996,2.357 3.961,2.124 5.160 C 2.013 5.729,2.000 6.455,2.000 12.000 C 2.000 18.358,2.006 18.526,2.245 19.320 C 2.577 20.422,3.578 21.423,4.680 21.755 C 5.474 21.994,5.642 22.000,12.000 22.000 C 18.358 22.000,18.526 21.994,19.320 21.755 C 20.422 21.423,21.423 20.422,21.755 19.320 C 21.994 18.526,22.000 18.358,22.000 12.000 C 22.000 5.642,21.994 5.474,21.755 4.680 C 21.424 3.581,20.465 2.622,19.320 2.246 C 18.644 2.024,18.800 2.029,12.340 2.019 C 9.062 2.014,6.173 2.024,5.920 2.041 M18.492 4.091 C 18.894 4.188,19.109 4.309,19.400 4.600 C 19.696 4.895,19.814 5.109,19.912 5.528 C 19.975 5.797,19.980 6.313,19.980 12.000 C 19.980 17.687,19.975 18.203,19.912 18.472 C 19.814 18.891,19.696 19.104,19.400 19.401 C 19.101 19.701,18.820 19.851,18.418 19.928 C 18.010 20.005,5.990 20.005,5.582 19.927 C 5.170 19.850,4.898 19.704,4.600 19.403 C 4.303 19.104,4.186 18.890,4.088 18.472 C 4.025 18.203,4.020 17.687,4.020 12.000 C 4.020 6.313,4.025 5.797,4.088 5.528 C 4.175 5.155,4.294 4.918,4.520 4.667 C 4.883 4.262,5.282 4.091,5.980 4.039 C 6.200 4.023,9.044 4.013,12.300 4.018 C 17.643 4.024,18.247 4.032,18.492 4.091 M7.180 7.039 C 6.860 7.121,6.656 7.300,6.554 7.587 C 6.479 7.800,6.477 9.665,6.552 9.912 C 6.621 10.140,6.866 10.382,7.088 10.442 C 7.520 10.559,8.007 10.473,8.240 10.240 C 8.472 10.008,8.500 9.846,8.500 8.720 C 8.500 7.624,8.474 7.485,8.230 7.251 C 8.005 7.037,7.547 6.945,7.180 7.039 M12.180 7.039 C 11.868 7.119,11.698 7.259,11.573 7.540 C 11.509 7.683,11.499 7.887,11.481 9.506 C 11.461 11.239,11.457 11.315,11.380 11.400 C 11.261 11.531,11.127 11.586,10.864 11.612 C 10.259 11.672,9.967 12.044,10.009 12.704 C 10.050 13.354,10.418 13.635,11.166 13.588 C 12.141 13.526,13.032 12.842,13.363 11.902 C 13.502 11.506,13.527 11.082,13.513 9.349 C 13.501 7.767,13.497 7.693,13.415 7.520 C 13.305 7.286,13.146 7.143,12.909 7.064 C 12.709 6.997,12.386 6.986,12.180 7.039 M16.180 7.039 C 15.860 7.121,15.656 7.300,15.554 7.587 C 15.479 7.800,15.477 9.665,15.552 9.912 C 15.621 10.140,15.866 10.382,16.088 10.442 C 16.520 10.559,17.007 10.473,17.240 10.240 C 17.472 10.008,17.500 9.846,17.500 8.720 C 17.500 7.624,17.474 7.485,17.230 7.251 C 17.005 7.037,16.547 6.945,16.180 7.039 M8.371 14.219 C 8.027 14.369,7.641 14.887,7.641 15.200 C 7.641 15.432,7.806 15.718,8.105 16.002 C 9.851 17.662,12.440 18.021,14.558 16.896 C 15.226 16.541,15.981 15.912,16.159 15.563 C 16.337 15.212,16.249 14.846,15.901 14.499 C 15.666 14.264,15.451 14.160,15.200 14.160 C 14.946 14.160,14.757 14.253,14.453 14.531 C 13.775 15.149,13.031 15.479,12.169 15.543 C 11.746 15.575,11.313 15.515,10.820 15.357 C 10.363 15.211,9.956 14.971,9.500 14.578 C 9.302 14.407,9.082 14.244,9.011 14.214 C 8.846 14.145,8.536 14.147,8.371 14.219 " stroke="none" fill-rule="evenodd" fill="black"></path></svg>