<svg version="1.1" xmlns="http://www.w3.org/2000/svg" width="27" height="32" viewBox="0 0 27 32"><path d="M1.073 2.358 C 0.618 2.520,0.339 2.770,0.139 3.195 L 0.022 3.442 0.022 15.998 L 0.022 28.554 0.171 28.855 C 0.332 29.183,0.562 29.411,0.897 29.576 L 1.103 29.677 7.886 29.689 L 14.670 29.701 14.659 24.402 L 14.647 19.102 12.859 19.091 L 11.070 19.079 11.070 17.009 L 11.070 14.940 12.870 14.940 L 14.670 14.940 14.670 13.039 C 14.671 10.991,14.698 10.633,14.912 9.900 C 15.150 9.083,15.513 8.460,16.082 7.894 C 16.883 7.097,17.873 6.635,19.102 6.485 C 19.806 6.399,21.720 6.433,22.888 6.553 L 23.176 6.583 23.164 8.433 L 23.152 10.282 21.712 10.310 C 20.167 10.339,19.995 10.362,19.602 10.593 C 19.377 10.724,19.159 11.027,19.047 11.360 C 18.983 11.553,18.969 11.840,18.956 13.264 L 18.940 14.940 20.967 14.940 C 22.559 14.940,22.995 14.952,22.996 14.996 C 22.997 15.027,22.881 15.959,22.738 17.066 L 22.480 19.080 20.712 19.080 L 18.945 19.080 18.945 24.390 L 18.945 29.700 22.566 29.700 C 26.135 29.700,26.190 29.699,26.440 29.605 C 26.579 29.553,26.762 29.450,26.846 29.376 L 27.000 29.241 27.000 15.996 L 27.000 2.752 26.831 2.612 C 26.738 2.536,26.555 2.433,26.425 2.384 C 26.189 2.296,26.036 2.295,13.712 2.297 C 3.566 2.299,1.207 2.310,1.073 2.358 " stroke="none" fill-rule="evenodd" fill="black"></path></svg>