<svg width="24" height="24" viewBox="0 0 24 24" fill="none" xmlns="http://www.w3.org/2000/svg"><path d="M11.280 1.023 C 11.203 1.032,10.951 1.059,10.720 1.083 C 9.527 1.210,8.337 1.558,7.180 2.120 C 6.045 2.671,5.193 3.285,4.238 4.239 C 3.277 5.198,2.643 6.080,2.097 7.220 C 0.301 10.968,0.728 15.286,3.226 18.633 C 3.701 19.269,4.753 20.316,5.400 20.797 C 9.364 23.745,14.666 23.734,18.637 20.770 C 19.246 20.316,20.316 19.246,20.770 18.637 C 23.744 14.652,23.744 9.348,20.770 5.363 C 20.316 4.755,19.247 3.686,18.640 3.235 C 17.045 2.049,15.365 1.360,13.423 1.096 C 13.000 1.038,11.574 0.990,11.280 1.023 M13.320 3.101 C 15.883 3.488,18.124 4.931,19.560 7.120 C 19.863 7.583,20.303 8.479,20.492 9.020 C 20.838 10.013,20.977 10.865,20.977 12.000 C 20.977 13.493,20.720 14.621,20.080 15.940 C 19.375 17.394,18.311 18.607,16.927 19.532 C 16.138 20.060,14.876 20.588,13.908 20.797 C 11.266 21.366,8.479 20.708,6.370 19.019 C 4.857 17.807,3.722 16.029,3.267 14.160 C 3.081 13.397,3.023 12.888,3.023 12.000 C 3.023 10.507,3.280 9.379,3.920 8.060 C 4.971 5.891,6.877 4.221,9.160 3.466 C 9.865 3.233,10.432 3.118,11.340 3.024 C 11.662 2.991,12.911 3.039,13.320 3.101 M6.652 8.283 C 6.077 8.568,5.823 9.098,6.033 9.574 C 6.124 9.779,6.536 10.230,6.835 10.451 C 7.736 11.117,8.950 11.172,9.940 10.591 C 10.280 10.392,10.833 9.849,10.953 9.597 C 11.188 9.104,10.965 8.619,10.353 8.292 C 10.151 8.184,9.867 8.171,9.655 8.260 C 9.577 8.292,9.383 8.445,9.225 8.598 C 8.918 8.895,8.729 9.000,8.500 9.000 C 8.275 9.000,8.110 8.908,7.775 8.598 C 7.604 8.439,7.405 8.284,7.333 8.254 C 7.141 8.174,6.847 8.187,6.652 8.283 M13.652 8.283 C 13.077 8.568,12.823 9.098,13.033 9.574 C 13.124 9.779,13.536 10.230,13.835 10.451 C 14.736 11.117,15.950 11.172,16.940 10.591 C 17.280 10.392,17.833 9.849,17.953 9.597 C 18.188 9.104,17.965 8.619,17.353 8.292 C 17.151 8.184,16.867 8.171,16.655 8.260 C 16.577 8.292,16.383 8.445,16.225 8.598 C 15.918 8.895,15.729 9.000,15.500 9.000 C 15.275 9.000,15.110 8.908,14.775 8.598 C 14.604 8.439,14.405 8.284,14.333 8.254 C 14.141 8.174,13.847 8.187,13.652 8.283 M7.654 13.057 C 7.222 13.258,6.960 13.598,6.960 13.959 C 6.960 14.227,7.069 14.448,7.381 14.814 C 8.077 15.630,9.208 16.381,10.240 16.714 C 10.915 16.932,11.230 16.980,12.000 16.980 C 12.770 16.980,13.085 16.932,13.760 16.714 C 14.542 16.462,15.357 15.989,16.046 15.387 C 17.100 14.465,17.304 13.833,16.718 13.303 C 16.346 12.967,15.899 12.870,15.584 13.057 C 15.494 13.111,15.271 13.317,15.089 13.515 C 14.496 14.163,13.769 14.627,12.980 14.865 C 12.655 14.963,12.559 14.974,12.000 14.974 C 11.441 14.974,11.345 14.963,11.020 14.865 C 10.231 14.627,9.504 14.163,8.911 13.515 C 8.729 13.317,8.506 13.111,8.416 13.057 C 8.200 12.928,7.930 12.928,7.654 13.057 " stroke="none" fill-rule="evenodd" fill="black"></path></svg>