<svg width="24" height="24" viewBox="0 0 24 24" fill="none" xmlns="http://www.w3.org/2000/svg"><path d="M14.580 1.505 C 13.022 1.623,11.733 2.133,10.540 3.103 C 10.342 3.264,8.873 4.706,7.275 6.308 C 4.484 9.106,4.365 9.232,4.225 9.520 C 4.145 9.685,4.062 9.917,4.040 10.035 C 3.990 10.307,3.989 18.065,4.039 18.320 L 4.075 18.500 2.602 19.980 C 1.615 20.972,1.100 21.519,1.040 21.637 C 0.863 21.989,0.952 22.354,1.299 22.701 C 1.646 23.048,2.011 23.137,2.363 22.960 C 2.481 22.900,3.028 22.385,4.020 21.398 L 5.500 19.925 5.680 19.961 C 5.935 20.011,13.693 20.010,13.965 19.960 C 14.083 19.938,14.315 19.854,14.480 19.774 C 14.762 19.637,14.896 19.514,16.700 17.733 C 17.756 16.690,18.669 15.788,18.729 15.729 C 19.426 15.034,20.829 13.563,20.987 13.360 C 22.096 11.939,22.641 10.157,22.487 8.454 C 22.318 6.585,21.602 5.150,20.113 3.696 C 19.007 2.616,17.928 1.993,16.633 1.685 C 16.051 1.547,15.112 1.465,14.580 1.505 M15.486 3.522 C 16.473 3.622,17.359 3.980,18.112 4.583 C 18.508 4.901,19.328 5.745,19.567 6.080 C 20.817 7.839,20.817 10.148,19.568 11.920 C 19.468 12.063,18.980 12.590,18.485 13.090 L 17.585 14.000 14.503 14.000 L 11.421 14.000 14.147 11.270 C 16.058 9.356,16.898 8.487,16.961 8.363 C 17.137 8.010,17.048 7.646,16.701 7.299 C 16.361 6.959,15.980 6.868,15.628 7.044 C 15.491 7.113,12.223 10.325,8.252 14.292 C 8.204 14.341,7.678 14.875,7.083 15.480 L 6.000 16.580 6.000 13.499 L 6.000 10.418 8.930 7.495 C 12.080 4.353,12.121 4.317,12.885 3.966 C 13.438 3.711,13.897 3.583,14.460 3.524 C 14.924 3.476,15.026 3.475,15.486 3.522 M14.580 17.000 L 13.581 18.000 10.501 18.000 L 7.421 18.000 8.420 17.000 L 9.419 16.000 12.499 16.000 L 15.579 16.000 14.580 17.000 " stroke="none" fill-rule="evenodd" fill="black"></path></svg>