<svg width="24" height="24" viewBox="0 0 24 24" fill="none" xmlns="http://www.w3.org/2000/svg"><path d="M6.920 1.040 C 6.150 1.092,5.672 1.205,5.180 1.451 C 4.089 1.996,3.357 2.961,3.124 4.160 C 3.012 4.738,3.000 5.470,3.000 12.000 C 3.000 19.433,3.002 19.515,3.245 20.320 C 3.577 21.422,4.578 22.423,5.680 22.755 C 6.460 22.990,6.716 23.000,12.000 23.000 C 17.284 23.000,17.540 22.990,18.320 22.755 C 19.422 22.423,20.423 21.422,20.755 20.320 C 20.998 19.515,21.000 19.433,21.000 12.000 C 21.000 4.567,20.998 4.485,20.755 3.680 C 20.424 2.581,19.465 1.622,18.320 1.246 C 17.657 1.028,17.701 1.030,12.340 1.019 C 9.612 1.014,7.173 1.023,6.920 1.040 M17.492 3.091 C 17.893 3.188,18.109 3.309,18.400 3.600 C 18.696 3.895,18.814 4.109,18.912 4.528 C 18.975 4.798,18.980 5.370,18.980 12.000 C 18.980 18.630,18.975 19.202,18.912 19.472 C 18.814 19.891,18.696 20.104,18.400 20.401 C 18.101 20.701,17.820 20.851,17.418 20.928 C 17.011 21.004,6.989 21.004,6.582 20.927 C 6.170 20.850,5.898 20.704,5.600 20.403 C 5.303 20.104,5.186 19.890,5.088 19.472 C 5.025 19.202,5.020 18.630,5.020 12.000 C 5.020 5.370,5.025 4.798,5.088 4.528 C 5.175 4.155,5.294 3.918,5.520 3.667 C 5.883 3.262,6.281 3.091,6.980 3.039 C 7.200 3.023,9.594 3.013,12.300 3.018 C 16.701 3.025,17.249 3.033,17.492 3.091 M11.614 7.057 C 11.377 7.131,11.212 7.261,11.109 7.453 L 11.020 7.620 11.009 12.914 C 11.002 16.393,11.013 18.259,11.039 18.358 C 11.144 18.747,11.434 18.961,11.896 18.991 C 12.381 19.022,12.699 18.882,12.880 18.558 L 12.980 18.380 12.980 13.000 L 12.980 7.620 12.891 7.453 C 12.842 7.362,12.746 7.247,12.678 7.199 C 12.414 7.010,11.957 6.950,11.614 7.057 M15.614 11.057 C 15.377 11.131,15.212 11.261,15.109 11.453 L 15.020 11.620 15.009 14.912 C 15.002 17.060,15.012 18.257,15.039 18.356 C 15.144 18.747,15.434 18.961,15.896 18.991 C 16.381 19.022,16.699 18.882,16.880 18.558 L 16.980 18.380 16.980 15.000 L 16.980 11.620 16.891 11.453 C 16.842 11.362,16.746 11.247,16.678 11.199 C 16.414 11.010,15.957 10.950,15.614 11.057 M7.614 13.057 C 7.377 13.131,7.212 13.261,7.109 13.453 C 7.020 13.619,7.020 13.629,7.009 15.911 C 7.001 17.392,7.012 18.256,7.039 18.355 C 7.144 18.747,7.433 18.961,7.896 18.991 C 8.381 19.022,8.699 18.882,8.880 18.558 L 8.980 18.380 8.980 16.000 L 8.980 13.620 8.891 13.453 C 8.842 13.362,8.746 13.247,8.678 13.199 C 8.414 13.010,7.957 12.950,7.614 13.057 " stroke="none" fill-rule="evenodd" fill="black"></path></svg>