<svg width="24" height="24" viewBox="0 0 24 24" fill="none" xmlns="http://www.w3.org/2000/svg"><path d="M6.920 1.040 C 6.150 1.092,5.672 1.205,5.180 1.451 C 4.089 1.996,3.357 2.961,3.124 4.160 C 3.012 4.738,3.000 5.470,3.000 12.000 C 3.000 18.530,3.012 19.262,3.124 19.840 C 3.311 20.806,3.822 21.623,4.599 22.199 C 5.223 22.662,5.825 22.868,6.820 22.959 C 7.401 23.013,12.172 23.013,12.365 22.959 C 12.586 22.898,12.770 22.755,12.880 22.558 C 12.967 22.402,12.980 22.332,12.979 22.000 C 12.977 21.469,12.851 21.245,12.455 21.071 C 12.368 21.033,11.671 21.015,9.560 20.998 C 6.597 20.973,6.501 20.967,6.080 20.769 C 5.812 20.643,5.376 20.216,5.248 19.952 C 5.198 19.849,5.126 19.633,5.088 19.472 C 5.025 19.202,5.020 18.630,5.020 12.000 C 5.020 5.370,5.025 4.798,5.088 4.528 C 5.186 4.109,5.304 3.895,5.600 3.600 C 5.895 3.304,6.109 3.186,6.528 3.088 C 6.795 3.026,7.256 3.020,12.000 3.020 C 16.744 3.020,17.205 3.026,17.472 3.088 C 17.633 3.126,17.849 3.198,17.952 3.248 C 18.194 3.366,18.634 3.806,18.752 4.048 C 18.973 4.502,18.970 4.450,18.996 8.820 C 19.022 13.262,19.007 13.005,19.265 13.248 C 19.445 13.417,19.659 13.487,19.997 13.488 C 20.348 13.490,20.556 13.418,20.751 13.229 C 21.007 12.982,21.000 13.096,21.000 8.983 C 21.000 4.789,20.984 4.439,20.755 3.680 C 20.424 2.581,19.465 1.622,18.320 1.246 C 17.657 1.028,17.701 1.030,12.340 1.019 C 9.612 1.014,7.173 1.023,6.920 1.040 M20.680 15.523 C 20.544 15.584,20.020 16.083,18.519 17.582 C 17.430 18.670,16.522 19.560,16.501 19.560 C 16.480 19.560,16.129 19.228,15.721 18.822 C 15.258 18.362,14.923 18.061,14.831 18.022 C 14.645 17.944,14.360 17.942,14.180 18.018 C 13.831 18.163,13.441 18.683,13.441 19.000 C 13.441 19.316,13.575 19.484,14.826 20.728 C 15.652 21.550,16.068 21.936,16.177 21.981 C 16.389 22.070,16.646 22.063,16.850 21.964 C 17.096 21.845,21.892 17.040,21.982 16.823 C 22.129 16.469,22.022 16.104,21.678 15.782 C 21.320 15.447,21.020 15.370,20.680 15.523 " stroke="none" fill-rule="evenodd" fill="black"></path></svg>