<svg width="24" height="24" viewBox="0 0 24 24" fill="none" xmlns="http://www.w3.org/2000/svg"><path d="M6.920 1.040 C 6.150 1.092,5.672 1.205,5.180 1.451 C 4.089 1.996,3.357 2.961,3.124 4.160 C 3.012 4.738,3.000 5.470,3.000 12.000 C 3.000 19.433,3.002 19.515,3.245 20.320 C 3.577 21.422,4.578 22.423,5.680 22.755 C 6.361 22.960,6.897 23.000,8.983 23.000 C 10.901 23.000,10.999 22.989,11.229 22.751 C 11.417 22.557,11.486 22.355,11.486 22.000 C 11.486 21.656,11.418 21.445,11.248 21.267 C 11.014 21.021,11.050 21.025,8.820 20.998 C 7.435 20.981,6.703 20.957,6.540 20.923 C 6.158 20.843,5.886 20.693,5.600 20.403 C 5.303 20.104,5.186 19.890,5.088 19.472 C 5.025 19.202,5.020 18.630,5.020 12.000 C 5.020 5.370,5.025 4.798,5.088 4.528 C 5.186 4.109,5.304 3.895,5.600 3.600 C 5.895 3.304,6.109 3.186,6.528 3.088 C 6.795 3.026,7.256 3.020,12.000 3.020 C 16.744 3.020,17.205 3.026,17.472 3.088 C 17.633 3.126,17.849 3.198,17.952 3.248 C 18.194 3.366,18.634 3.806,18.752 4.048 C 18.962 4.478,18.968 4.571,18.995 7.580 L 19.020 10.380 19.120 10.558 C 19.287 10.856,19.572 11.000,20.000 11.000 C 20.428 11.000,20.713 10.856,20.880 10.558 L 20.980 10.380 20.993 7.880 C 21.007 4.926,20.979 4.427,20.755 3.680 C 20.426 2.582,19.465 1.622,18.320 1.246 C 17.657 1.028,17.701 1.030,12.340 1.019 C 9.612 1.014,7.173 1.023,6.920 1.040 M7.614 6.057 C 7.377 6.131,7.212 6.261,7.109 6.453 C 7.035 6.592,7.020 6.684,7.020 7.000 C 7.020 7.331,7.033 7.403,7.120 7.558 C 7.230 7.755,7.414 7.898,7.635 7.959 C 7.833 8.014,16.167 8.014,16.365 7.959 C 16.586 7.898,16.770 7.755,16.880 7.558 C 16.967 7.402,16.980 7.332,16.979 7.000 C 16.978 6.567,16.898 6.355,16.678 6.199 C 16.393 5.996,16.487 6.000,11.984 6.003 C 8.651 6.005,7.746 6.016,7.614 6.057 M7.614 10.057 C 7.377 10.131,7.212 10.261,7.109 10.453 C 7.035 10.592,7.020 10.684,7.020 11.000 C 7.020 11.331,7.033 11.403,7.120 11.558 C 7.230 11.755,7.414 11.898,7.635 11.959 C 7.832 12.014,13.168 12.014,13.365 11.959 C 13.586 11.898,13.770 11.755,13.880 11.558 C 13.967 11.402,13.980 11.332,13.979 11.000 C 13.978 10.567,13.898 10.355,13.678 10.199 C 13.401 10.002,13.373 10.000,10.484 10.003 C 8.382 10.005,7.743 10.017,7.614 10.057 M16.768 12.599 C 16.026 12.799,15.359 13.358,15.016 14.067 C 14.822 14.468,14.762 14.799,14.761 15.462 L 14.760 16.023 14.543 16.069 C 14.192 16.143,13.883 16.316,13.597 16.599 C 13.075 17.117,13.001 17.415,13.001 19.000 C 13.001 20.584,13.075 20.881,13.597 21.403 C 13.896 21.702,14.173 21.853,14.581 21.939 C 14.993 22.027,20.007 22.027,20.419 21.940 C 20.818 21.855,21.102 21.699,21.401 21.401 C 21.925 20.876,21.999 20.582,21.999 19.000 C 21.999 17.418,21.926 17.124,21.401 16.599 C 21.118 16.316,20.810 16.143,20.461 16.070 L 20.249 16.025 20.232 15.343 C 20.216 14.734,20.203 14.628,20.110 14.367 C 19.959 13.941,19.779 13.662,19.440 13.321 C 19.106 12.986,18.751 12.761,18.360 12.633 C 17.976 12.508,17.168 12.491,16.768 12.599 M7.614 14.057 C 7.377 14.131,7.212 14.261,7.109 14.453 C 7.035 14.592,7.020 14.684,7.020 15.000 C 7.020 15.331,7.033 15.403,7.120 15.558 C 7.230 15.755,7.414 15.898,7.635 15.959 C 7.722 15.983,8.470 16.000,9.500 16.000 C 10.530 16.000,11.278 15.983,11.365 15.959 C 11.586 15.898,11.770 15.755,11.880 15.558 C 11.967 15.402,11.980 15.332,11.979 15.000 C 11.978 14.687,11.962 14.591,11.890 14.453 C 11.786 14.256,11.623 14.131,11.371 14.055 C 11.114 13.978,7.862 13.980,7.614 14.057 M17.837 14.590 C 17.913 14.629,18.030 14.729,18.097 14.814 C 18.218 14.965,18.220 14.976,18.233 15.484 L 18.246 16.000 17.500 16.000 L 16.754 16.000 16.767 15.484 C 16.780 14.976,16.782 14.965,16.903 14.814 C 17.063 14.613,17.252 14.520,17.500 14.520 C 17.611 14.520,17.761 14.551,17.837 14.590 M20.000 19.000 L 20.000 20.000 17.500 20.000 L 15.000 20.000 15.000 19.000 L 15.000 18.000 17.500 18.000 L 20.000 18.000 20.000 19.000 " stroke="none" fill-rule="evenodd" fill="black"></path></svg>