<svg width="24" height="24" viewBox="0 0 24 24" fill="none" xmlns="http://www.w3.org/2000/svg"><path d="M6.920 1.040 C 6.150 1.092,5.672 1.205,5.180 1.451 C 4.089 1.996,3.357 2.961,3.124 4.160 C 3.012 4.738,3.000 5.470,3.000 12.000 C 3.000 18.530,3.012 19.262,3.124 19.840 C 3.311 20.806,3.822 21.623,4.599 22.199 C 5.223 22.662,5.825 22.868,6.820 22.959 C 7.409 23.014,14.169 23.014,14.365 22.959 C 14.586 22.898,14.770 22.755,14.880 22.558 C 14.967 22.402,14.980 22.332,14.979 22.000 C 14.977 21.469,14.852 21.247,14.455 21.071 C 14.366 21.031,13.497 21.015,10.560 20.998 C 6.518 20.975,6.517 20.975,6.080 20.769 C 5.812 20.643,5.376 20.216,5.248 19.952 C 5.198 19.849,5.126 19.633,5.088 19.472 C 5.025 19.202,5.020 18.630,5.020 12.000 C 5.020 5.370,5.025 4.798,5.088 4.528 C 5.186 4.109,5.304 3.895,5.600 3.600 C 5.895 3.304,6.109 3.186,6.528 3.088 C 6.795 3.026,7.256 3.020,12.000 3.020 C 16.744 3.020,17.205 3.026,17.472 3.088 C 17.633 3.126,17.849 3.198,17.952 3.248 C 18.194 3.366,18.634 3.806,18.752 4.048 C 18.971 4.498,18.970 4.477,18.996 8.540 C 19.022 12.672,19.008 12.446,19.265 12.688 C 19.447 12.858,19.664 12.930,20.000 12.930 C 20.347 12.930,20.557 12.857,20.751 12.669 C 21.005 12.423,21.000 12.508,21.000 8.703 C 21.000 4.809,20.982 4.432,20.755 3.680 C 20.424 2.581,19.465 1.622,18.320 1.246 C 17.657 1.028,17.701 1.030,12.340 1.019 C 9.612 1.014,7.173 1.023,6.920 1.040 M14.614 16.057 C 14.377 16.131,14.212 16.261,14.109 16.453 C 14.035 16.592,14.020 16.684,14.020 17.000 C 14.020 17.331,14.033 17.403,14.120 17.558 C 14.230 17.755,14.414 17.898,14.635 17.959 C 14.832 18.014,21.168 18.014,21.365 17.959 C 21.586 17.898,21.770 17.755,21.880 17.558 C 21.967 17.402,21.980 17.332,21.979 17.000 C 21.978 16.567,21.898 16.355,21.678 16.199 C 21.398 15.999,21.411 16.000,17.984 16.003 C 15.472 16.005,14.744 16.017,14.614 16.057 " stroke="none" fill-rule="evenodd" fill="black"></path></svg>