<svg width="24" height="24" viewBox="0 0 24 24" fill="none" xmlns="http://www.w3.org/2000/svg"><path d="M6.920 1.040 C 6.150 1.092,5.672 1.205,5.180 1.451 C 4.089 1.996,3.357 2.961,3.124 4.160 C 3.012 4.738,3.000 5.470,3.000 12.000 C 3.000 19.433,3.002 19.515,3.245 20.320 C 3.577 21.422,4.578 22.423,5.680 22.755 C 6.408 22.974,6.857 23.000,9.983 23.000 C 12.997 23.000,12.987 23.001,13.229 22.751 C 13.417 22.557,13.486 22.355,13.486 22.000 C 13.486 21.656,13.418 21.445,13.248 21.267 C 13.004 21.011,13.159 21.023,9.820 20.998 C 6.577 20.973,6.506 20.969,6.080 20.769 C 5.812 20.643,5.376 20.216,5.248 19.952 C 5.198 19.849,5.126 19.633,5.088 19.472 C 5.025 19.202,5.020 18.630,5.020 12.000 C 5.020 5.370,5.025 4.798,5.088 4.528 C 5.186 4.109,5.304 3.895,5.600 3.600 C 5.895 3.304,6.109 3.186,6.528 3.088 C 6.795 3.026,7.256 3.020,12.000 3.020 C 16.744 3.020,17.205 3.026,17.472 3.088 C 17.891 3.186,18.105 3.304,18.400 3.600 C 18.899 4.099,18.956 4.339,18.994 6.100 C 19.021 7.365,19.022 7.382,19.120 7.558 C 19.287 7.856,19.572 8.000,20.000 8.000 C 20.428 8.000,20.713 7.856,20.880 7.558 C 20.978 7.383,20.980 7.360,20.993 6.380 C 21.016 4.676,20.901 3.862,20.535 3.141 C 20.088 2.259,19.268 1.557,18.320 1.246 C 17.657 1.028,17.701 1.030,12.340 1.019 C 9.612 1.014,7.173 1.023,6.920 1.040 M7.614 6.057 C 7.377 6.131,7.212 6.261,7.109 6.453 C 7.035 6.592,7.020 6.684,7.020 7.000 C 7.020 7.331,7.033 7.403,7.120 7.558 C 7.230 7.755,7.414 7.898,7.635 7.959 C 7.833 8.014,16.167 8.014,16.365 7.959 C 16.586 7.898,16.770 7.755,16.880 7.558 C 16.967 7.402,16.980 7.332,16.979 7.000 C 16.978 6.567,16.898 6.355,16.678 6.199 C 16.393 5.996,16.487 6.000,11.984 6.003 C 8.651 6.005,7.746 6.016,7.614 6.057 M7.614 10.057 C 7.377 10.131,7.212 10.261,7.109 10.453 C 7.035 10.592,7.020 10.684,7.020 11.000 C 7.020 11.331,7.033 11.403,7.120 11.558 C 7.230 11.755,7.414 11.898,7.635 11.959 C 7.725 11.984,8.716 12.000,10.243 12.000 C 12.972 12.000,12.990 11.999,13.229 11.751 C 13.418 11.556,13.486 11.355,13.486 10.997 C 13.486 10.491,13.303 10.196,12.909 10.064 C 12.741 10.008,12.408 10.000,10.249 10.003 C 8.340 10.005,7.742 10.017,7.614 10.057 M18.960 10.062 C 18.606 10.138,18.107 10.393,17.835 10.636 C 17.542 10.898,17.265 11.308,17.129 11.681 L 17.020 11.980 17.009 15.091 C 17.001 17.140,17.011 18.253,17.039 18.354 C 17.144 18.747,17.433 18.961,17.896 18.991 C 18.381 19.022,18.699 18.882,18.880 18.558 L 18.980 18.380 19.000 15.360 C 19.022 12.076,19.010 12.226,19.253 12.078 C 19.415 11.979,19.585 11.979,19.748 12.078 C 20.011 12.239,20.000 12.096,19.999 15.288 C 19.999 18.440,19.994 18.516,19.772 18.931 C 19.625 19.208,19.191 19.643,18.930 19.775 C 18.349 20.070,17.658 20.073,17.088 19.784 C 16.822 19.649,16.494 19.344,16.312 19.063 C 16.016 18.605,16.025 18.696,16.002 16.020 C 15.980 13.621,15.980 13.620,15.889 13.450 C 15.724 13.140,15.329 12.970,14.874 13.011 C 14.439 13.051,14.141 13.274,14.041 13.635 C 14.016 13.724,14.000 14.661,14.000 16.074 C 14.000 18.234,14.005 18.391,14.083 18.773 C 14.357 20.118,15.249 21.195,16.512 21.704 C 17.231 21.994,18.023 22.070,18.757 21.921 C 20.387 21.588,21.589 20.384,21.922 18.751 C 22.000 18.369,22.002 18.232,21.991 15.167 L 21.980 11.980 21.869 11.680 C 21.430 10.486,20.192 9.798,18.960 10.062 M7.614 14.057 C 7.377 14.131,7.212 14.261,7.109 14.453 C 7.035 14.592,7.020 14.684,7.020 15.000 C 7.020 15.331,7.033 15.403,7.120 15.558 C 7.230 15.755,7.414 15.898,7.635 15.959 C 7.723 15.984,8.551 16.000,9.743 16.000 C 11.924 16.000,11.995 15.993,12.229 15.751 C 12.418 15.556,12.486 15.355,12.486 14.997 C 12.486 14.491,12.303 14.196,11.909 14.064 C 11.743 14.009,11.450 14.000,9.749 14.003 C 8.251 14.005,7.740 14.018,7.614 14.057 " stroke="none" fill-rule="evenodd" fill="black"></path></svg>