<svg width="24" height="24" viewBox="0 0 24 24" fill="none" xmlns="http://www.w3.org/2000/svg"><path d="M6.920 1.042 C 6.155 1.091,5.674 1.204,5.180 1.451 C 4.089 1.996,3.357 2.961,3.124 4.160 C 3.012 4.738,3.000 5.470,3.000 12.000 C 3.000 19.433,3.002 19.515,3.245 20.320 C 3.577 21.422,4.578 22.423,5.680 22.755 C 6.460 22.990,6.716 23.000,12.000 23.000 C 17.284 23.000,17.540 22.990,18.320 22.755 C 19.422 22.423,20.425 21.421,20.755 20.320 C 20.999 19.506,21.006 19.309,20.992 13.160 L 20.980 7.700 20.873 7.520 C 20.812 7.417,19.428 6.005,17.653 4.233 C 14.633 1.220,14.534 1.125,14.323 1.063 C 14.131 1.008,13.708 1.001,10.743 1.006 C 8.893 1.009,7.173 1.025,6.920 1.042 M13.001 5.070 C 13.001 7.322,13.014 7.481,13.227 7.919 C 13.366 8.205,13.795 8.634,14.081 8.773 C 14.519 8.986,14.677 8.999,16.932 8.999 L 19.004 9.000 18.989 14.110 C 18.973 19.665,18.980 19.483,18.752 19.952 C 18.626 20.211,18.190 20.638,17.918 20.768 C 17.471 20.983,17.547 20.980,12.000 20.980 C 6.462 20.980,6.533 20.983,6.082 20.771 C 5.812 20.643,5.377 20.217,5.248 19.952 C 5.198 19.849,5.126 19.633,5.088 19.472 C 5.025 19.202,5.020 18.630,5.020 12.000 C 5.020 5.370,5.025 4.798,5.088 4.528 C 5.175 4.155,5.294 3.918,5.520 3.667 C 5.884 3.261,6.283 3.090,6.980 3.040 C 7.200 3.025,8.645 3.009,10.190 3.006 L 13.000 3.000 13.001 5.070 M16.300 5.720 L 17.580 7.000 16.290 7.000 L 15.000 7.000 15.000 5.720 C 15.000 5.016,15.005 4.440,15.010 4.440 C 15.016 4.440,15.596 5.016,16.300 5.720 M11.560 10.024 C 10.294 10.181,9.235 10.760,8.475 11.711 C 7.017 13.537,7.233 16.244,8.963 17.814 C 10.373 19.093,12.318 19.353,14.058 18.494 L 14.416 18.317 14.958 18.857 C 15.680 19.576,15.899 19.672,16.340 19.465 C 16.569 19.358,16.896 19.027,16.986 18.812 C 17.070 18.610,17.062 18.350,16.964 18.150 C 16.916 18.051,16.657 17.756,16.345 17.444 L 15.808 16.909 15.945 16.659 C 16.584 15.497,16.668 14.042,16.167 12.812 C 15.600 11.418,14.382 10.407,12.903 10.102 C 12.584 10.036,11.822 9.992,11.560 10.024 M12.720 12.102 C 13.103 12.216,13.404 12.404,13.742 12.740 C 14.264 13.259,14.479 13.771,14.479 14.500 C 14.479 15.226,14.265 15.737,13.742 16.264 C 13.501 16.506,13.345 16.624,13.120 16.734 C 12.600 16.989,12.029 17.059,11.460 16.940 C 10.577 16.755,9.786 15.984,9.580 15.110 C 9.505 14.790,9.505 14.210,9.580 13.890 C 9.793 12.989,10.620 12.206,11.534 12.041 C 11.816 11.990,12.453 12.023,12.720 12.102 " stroke="none" fill-rule="evenodd" fill="black"></path></svg>