<svg width="24" height="24" viewBox="0 0 24 24" fill="none" xmlns="http://www.w3.org/2000/svg"><path d="M7.460 1.046 C 6.007 1.230,4.708 2.280,4.237 3.651 C 4.076 4.119,4.000 4.613,4.000 5.198 C 4.000 5.970,4.122 6.248,4.537 6.422 C 4.750 6.510,5.249 6.511,5.460 6.423 C 5.867 6.253,6.000 5.966,6.000 5.259 C 6.000 4.490,6.165 4.032,6.599 3.599 C 6.883 3.315,7.124 3.176,7.506 3.078 C 7.798 3.004,7.961 3.000,10.776 3.002 C 12.406 3.003,13.870 3.019,14.029 3.037 C 14.228 3.060,14.417 3.117,14.629 3.218 C 14.932 3.361,14.997 3.422,17.288 5.712 C 19.578 8.003,19.639 8.068,19.782 8.371 C 19.893 8.605,19.939 8.765,19.967 9.023 C 19.989 9.225,19.998 11.376,19.989 14.292 C 19.976 18.684,19.967 19.250,19.909 19.492 C 19.812 19.893,19.691 20.109,19.400 20.401 C 19.120 20.681,18.839 20.841,18.480 20.923 C 18.173 20.993,7.976 21.027,7.620 20.959 C 7.244 20.887,6.892 20.699,6.618 20.423 C 6.163 19.965,6.000 19.521,6.000 18.741 C 6.000 18.171,5.935 17.939,5.723 17.747 C 5.536 17.578,5.351 17.520,5.000 17.520 C 4.649 17.520,4.464 17.578,4.277 17.748 C 4.033 17.968,3.985 18.187,4.011 18.977 C 4.027 19.495,4.052 19.698,4.136 20.020 C 4.464 21.276,5.449 22.350,6.651 22.763 C 7.355 23.005,7.214 23.000,12.715 23.000 C 18.305 23.000,18.536 22.991,19.320 22.755 C 20.422 22.423,21.425 21.421,21.755 20.320 C 21.998 19.509,22.007 19.272,21.991 13.620 C 21.977 8.651,21.977 8.618,21.891 8.300 C 21.753 7.784,21.550 7.348,21.249 6.920 C 21.029 6.606,16.860 2.404,16.325 1.956 C 15.701 1.435,14.998 1.129,14.229 1.043 C 13.759 0.991,7.875 0.993,7.460 1.046 M4.680 8.523 C 4.547 8.583,4.128 8.974,3.066 10.032 C 1.562 11.529,1.440 11.677,1.441 12.000 C 1.442 12.316,1.546 12.443,3.032 13.934 C 4.528 15.436,4.677 15.559,5.000 15.559 C 5.213 15.559,5.519 15.395,5.732 15.165 C 5.956 14.925,6.047 14.733,6.047 14.500 C 6.047 14.177,5.963 14.067,4.909 13.010 L 3.902 12.000 4.909 10.990 C 5.597 10.300,5.937 9.930,5.981 9.823 C 6.129 9.469,6.023 9.104,5.678 8.782 C 5.320 8.447,5.020 8.370,4.680 8.523 M8.691 8.519 C 8.462 8.622,8.142 8.929,8.038 9.143 C 7.937 9.353,7.929 9.609,8.019 9.823 C 8.063 9.930,8.403 10.300,9.091 10.990 L 10.098 12.000 9.091 13.010 C 8.037 14.067,7.953 14.177,7.953 14.500 C 7.953 14.733,8.044 14.925,8.268 15.165 C 8.481 15.395,8.787 15.559,9.000 15.559 C 9.323 15.559,9.472 15.436,10.968 13.934 C 12.454 12.443,12.558 12.316,12.559 12.000 C 12.560 11.677,12.438 11.529,10.934 10.032 C 9.443 8.547,9.315 8.442,9.000 8.442 C 8.923 8.442,8.784 8.476,8.691 8.519 " stroke="none" fill-rule="evenodd" fill="black"></path></svg>