<svg width="24" height="24" viewBox="0 0 24 24" fill="none" xmlns="http://www.w3.org/2000/svg"><path d="M6.920 1.040 C 6.150 1.092,5.672 1.205,5.180 1.451 C 4.089 1.996,3.357 2.961,3.124 4.160 C 3.012 4.738,3.000 5.470,3.000 12.000 C 3.000 18.530,3.012 19.262,3.124 19.840 C 3.311 20.806,3.822 21.623,4.599 22.199 C 5.223 22.662,5.825 22.868,6.820 22.959 C 7.401 23.013,12.172 23.013,12.365 22.959 C 12.586 22.898,12.770 22.755,12.880 22.558 C 12.967 22.402,12.980 22.332,12.979 22.000 C 12.977 21.469,12.851 21.245,12.455 21.071 C 12.368 21.033,11.671 21.015,9.560 20.998 C 6.597 20.973,6.501 20.967,6.080 20.769 C 5.812 20.643,5.376 20.216,5.248 19.952 C 5.198 19.849,5.126 19.633,5.088 19.472 C 5.025 19.202,5.020 18.630,5.020 12.000 C 5.020 5.370,5.025 4.798,5.088 4.528 C 5.186 4.109,5.304 3.895,5.600 3.600 C 5.895 3.304,6.109 3.186,6.528 3.088 C 6.795 3.026,7.256 3.020,12.000 3.020 C 16.744 3.020,17.205 3.026,17.472 3.088 C 17.633 3.126,17.849 3.198,17.952 3.248 C 18.194 3.366,18.634 3.806,18.752 4.048 C 18.962 4.478,18.968 4.571,18.995 7.580 L 19.020 10.380 19.120 10.558 C 19.287 10.856,19.572 11.000,20.000 11.000 C 20.428 11.000,20.713 10.856,20.880 10.558 L 20.980 10.380 20.993 7.880 C 21.007 4.926,20.979 4.427,20.755 3.680 C 20.426 2.582,19.465 1.622,18.320 1.246 C 17.657 1.028,17.701 1.030,12.340 1.019 C 9.612 1.014,7.173 1.023,6.920 1.040 M14.780 13.026 C 14.284 13.106,13.801 13.316,13.350 13.648 C 11.932 14.694,11.580 16.628,12.542 18.085 C 12.885 18.605,14.451 20.132,16.008 21.468 C 16.924 22.253,17.094 22.242,18.145 21.330 C 19.602 20.066,20.994 18.721,21.353 18.231 C 21.571 17.934,21.768 17.537,21.886 17.160 C 21.966 16.904,21.979 16.778,21.978 16.300 C 21.976 15.672,21.924 15.418,21.697 14.926 C 21.291 14.047,20.472 13.359,19.518 13.095 C 19.331 13.044,19.122 13.025,18.760 13.026 C 18.170 13.029,17.793 13.114,17.303 13.355 L 16.987 13.511 16.743 13.378 C 16.354 13.165,15.852 13.037,15.340 13.021 C 15.098 13.013,14.846 13.015,14.780 13.026 M15.726 15.110 C 15.826 15.154,16.030 15.302,16.181 15.438 C 16.526 15.750,16.775 15.880,17.029 15.879 C 17.259 15.879,17.401 15.799,17.804 15.444 C 18.181 15.114,18.378 15.025,18.741 15.023 C 19.092 15.022,19.392 15.155,19.639 15.424 C 19.892 15.698,19.977 15.918,19.976 16.300 C 19.976 16.704,19.882 16.901,19.464 17.369 C 19.176 17.691,18.179 18.636,17.388 19.336 L 16.995 19.683 16.628 19.356 C 15.105 17.999,14.295 17.178,14.117 16.810 C 13.991 16.551,13.988 16.066,14.110 15.793 C 14.258 15.464,14.562 15.185,14.915 15.053 C 15.107 14.981,15.497 15.008,15.726 15.110 " stroke="none" fill-rule="evenodd" fill="black"></path></svg>