<svg width="24" height="24" viewBox="0 0 24 24" fill="none" xmlns="http://www.w3.org/2000/svg"><path d="M6.920 1.042 C 6.155 1.091,5.674 1.204,5.180 1.451 C 4.089 1.996,3.357 2.961,3.124 4.160 C 3.012 4.738,3.000 5.470,3.000 12.000 C 3.000 19.433,3.002 19.515,3.245 20.320 C 3.577 21.422,4.578 22.423,5.680 22.755 C 6.460 22.990,6.716 23.000,12.000 23.000 C 17.284 23.000,17.540 22.990,18.320 22.755 C 19.422 22.423,20.425 21.421,20.755 20.320 C 20.998 19.508,21.007 19.273,20.991 13.620 C 20.978 9.010,20.971 8.600,20.907 8.360 C 20.796 7.951,20.596 7.362,20.559 7.340 C 20.541 7.328,20.423 7.171,20.298 6.989 C 20.128 6.744,19.467 6.058,17.705 4.295 C 15.458 2.048,15.030 1.653,14.584 1.411 C 14.374 1.297,13.583 1.082,13.227 1.043 C 12.792 0.994,7.667 0.993,6.920 1.042 M12.875 3.025 L 13.000 3.050 13.001 5.095 C 13.001 7.320,13.014 7.482,13.227 7.919 C 13.366 8.205,13.795 8.634,14.081 8.773 C 14.518 8.986,14.679 8.999,16.908 8.999 L 18.955 9.000 18.980 9.170 C 18.994 9.264,18.998 11.563,18.990 14.280 C 18.973 19.648,18.980 19.485,18.752 19.952 C 18.626 20.211,18.190 20.638,17.918 20.768 C 17.471 20.983,17.547 20.980,12.000 20.980 C 6.462 20.980,6.533 20.983,6.082 20.771 C 5.812 20.643,5.377 20.217,5.248 19.952 C 5.198 19.849,5.126 19.633,5.088 19.472 C 5.025 19.202,5.020 18.630,5.020 12.000 C 5.020 5.370,5.025 4.798,5.088 4.528 C 5.175 4.155,5.294 3.918,5.520 3.667 C 5.884 3.261,6.283 3.090,6.980 3.040 C 7.482 3.005,12.705 2.991,12.875 3.025 M16.300 5.720 L 17.580 7.000 16.290 7.000 L 15.000 7.000 15.000 5.720 C 15.000 5.016,15.005 4.440,15.010 4.440 C 15.016 4.440,15.596 5.016,16.300 5.720 M7.614 12.057 C 7.377 12.131,7.212 12.261,7.109 12.453 C 7.035 12.592,7.020 12.684,7.020 13.000 C 7.020 13.331,7.033 13.403,7.120 13.558 C 7.230 13.755,7.414 13.898,7.635 13.959 C 7.833 14.014,16.167 14.014,16.365 13.959 C 16.586 13.898,16.770 13.755,16.880 13.558 C 16.967 13.402,16.980 13.332,16.979 13.000 C 16.978 12.567,16.898 12.355,16.678 12.199 C 16.393 11.996,16.487 12.000,11.984 12.003 C 8.651 12.005,7.746 12.016,7.614 12.057 M7.614 16.057 C 7.377 16.131,7.212 16.261,7.109 16.453 C 7.035 16.592,7.020 16.684,7.020 17.000 C 7.020 17.331,7.033 17.403,7.120 17.558 C 7.230 17.755,7.414 17.898,7.635 17.959 C 7.832 18.014,14.168 18.014,14.365 17.959 C 14.586 17.898,14.770 17.755,14.880 17.558 C 14.967 17.402,14.980 17.332,14.979 17.000 C 14.978 16.567,14.898 16.355,14.678 16.199 C 14.398 15.999,14.411 16.000,10.984 16.003 C 8.472 16.005,7.744 16.017,7.614 16.057 " stroke="none" fill-rule="evenodd" fill="black"></path></svg>