<svg width="24" height="24" viewBox="0 0 24 24" fill="none" xmlns="http://www.w3.org/2000/svg"><path d="M6.920 1.042 C 6.155 1.091,5.674 1.204,5.180 1.451 C 4.089 1.996,3.357 2.961,3.124 4.160 C 3.012 4.738,3.000 5.470,3.000 12.000 C 3.000 19.433,3.002 19.515,3.245 20.320 C 3.577 21.422,4.578 22.423,5.680 22.755 C 6.460 22.990,6.716 23.000,12.000 23.000 C 17.284 23.000,17.540 22.990,18.320 22.755 C 19.422 22.423,20.425 21.421,20.755 20.320 C 20.999 19.506,21.006 19.309,20.992 13.160 L 20.980 7.700 20.873 7.520 C 20.812 7.417,19.428 6.005,17.653 4.233 C 14.633 1.220,14.534 1.125,14.323 1.063 C 14.131 1.008,13.708 1.001,10.743 1.006 C 8.893 1.009,7.173 1.025,6.920 1.042 M13.001 5.070 C 13.001 7.322,13.014 7.481,13.227 7.919 C 13.366 8.205,13.795 8.634,14.081 8.773 C 14.519 8.986,14.677 8.999,16.932 8.999 L 19.004 9.000 18.989 14.110 C 18.973 19.665,18.980 19.483,18.752 19.952 C 18.626 20.211,18.190 20.638,17.918 20.768 C 17.471 20.983,17.547 20.980,12.000 20.980 C 6.462 20.980,6.533 20.983,6.082 20.771 C 5.812 20.643,5.377 20.217,5.248 19.952 C 5.198 19.849,5.126 19.633,5.088 19.472 C 5.025 19.202,5.020 18.630,5.020 12.000 C 5.020 5.370,5.025 4.798,5.088 4.528 C 5.175 4.155,5.294 3.918,5.520 3.667 C 5.884 3.261,6.283 3.090,6.980 3.040 C 7.200 3.025,8.645 3.009,10.190 3.006 L 13.000 3.000 13.001 5.070 M16.300 5.720 L 17.580 7.000 16.290 7.000 L 15.000 7.000 15.000 5.720 C 15.000 5.016,15.005 4.440,15.010 4.440 C 15.016 4.440,15.596 5.016,16.300 5.720 M9.171 11.019 C 8.968 11.108,8.637 11.440,8.535 11.660 C 8.305 12.150,8.392 12.301,9.596 13.500 C 10.126 14.028,10.560 14.478,10.560 14.500 C 10.560 14.522,10.126 14.972,9.596 15.500 C 8.587 16.504,8.441 16.694,8.441 17.000 C 8.441 17.213,8.605 17.519,8.835 17.732 C 9.075 17.956,9.267 18.047,9.500 18.047 C 9.823 18.047,9.933 17.963,10.990 16.909 L 12.000 15.902 13.010 16.909 C 14.067 17.963,14.177 18.047,14.500 18.047 C 14.733 18.047,14.925 17.956,15.165 17.732 C 15.395 17.519,15.559 17.213,15.559 17.000 C 15.559 16.694,15.413 16.504,14.404 15.500 C 13.874 14.972,13.440 14.522,13.440 14.500 C 13.440 14.478,13.874 14.028,14.404 13.500 C 15.413 12.496,15.559 12.306,15.559 12.000 C 15.559 11.683,15.169 11.163,14.820 11.018 C 14.640 10.942,14.355 10.944,14.169 11.022 C 14.072 11.062,13.668 11.435,13.010 12.091 L 12.000 13.098 10.990 12.091 C 10.332 11.435,9.928 11.062,9.831 11.022 C 9.648 10.946,9.343 10.944,9.171 11.019 " stroke="none" fill-rule="evenodd" fill="black"></path></svg>