<svg width="24" height="24" viewBox="0 0 24 24" fill="none" xmlns="http://www.w3.org/2000/svg"><path d="M12.180 1.037 C 11.709 1.166,11.514 1.447,11.512 2.000 C 11.509 2.532,11.741 2.869,12.167 2.956 C 12.301 2.984,13.283 3.005,14.800 3.015 C 17.401 3.031,17.526 3.041,17.952 3.248 C 18.194 3.366,18.634 3.806,18.752 4.048 C 18.802 4.151,18.874 4.367,18.912 4.528 C 18.975 4.798,18.980 5.370,18.980 12.000 C 18.980 18.630,18.975 19.202,18.912 19.472 C 18.814 19.891,18.696 20.104,18.400 20.401 C 18.101 20.701,17.820 20.851,17.418 20.928 C 17.011 21.004,6.989 21.004,6.582 20.927 C 6.170 20.850,5.898 20.704,5.600 20.403 C 5.085 19.882,5.042 19.689,5.015 17.760 C 4.991 16.085,4.975 15.975,4.723 15.748 C 4.536 15.578,4.351 15.520,4.000 15.520 C 3.649 15.520,3.464 15.578,3.277 15.747 C 3.019 15.980,3.000 16.104,3.000 17.517 C 3.000 19.090,3.051 19.678,3.245 20.320 C 3.577 21.422,4.578 22.423,5.680 22.755 C 6.460 22.990,6.716 23.000,12.000 23.000 C 17.284 23.000,17.540 22.990,18.320 22.755 C 19.422 22.423,20.423 21.422,20.755 20.320 C 20.998 19.515,21.000 19.433,21.000 12.000 C 21.000 4.567,20.998 4.485,20.755 3.680 C 20.424 2.581,19.464 1.621,18.320 1.246 C 17.721 1.049,17.431 1.031,14.780 1.017 C 13.416 1.010,12.246 1.019,12.180 1.037 M6.960 2.062 C 6.606 2.138,6.107 2.393,5.835 2.636 C 5.542 2.898,5.265 3.308,5.129 3.681 L 5.020 3.980 5.009 7.091 C 5.001 9.140,5.011 10.253,5.039 10.354 C 5.144 10.747,5.433 10.961,5.896 10.991 C 6.381 11.022,6.699 10.882,6.880 10.558 L 6.980 10.380 7.000 7.360 C 7.022 4.076,7.010 4.226,7.253 4.078 C 7.415 3.979,7.585 3.979,7.748 4.078 C 8.011 4.239,8.000 4.096,7.999 7.288 C 7.999 10.440,7.994 10.516,7.772 10.931 C 7.625 11.208,7.191 11.643,6.930 11.775 C 6.349 12.070,5.658 12.073,5.088 11.784 C 4.822 11.649,4.494 11.344,4.312 11.063 C 4.016 10.605,4.025 10.696,4.002 8.020 C 3.980 5.621,3.980 5.620,3.889 5.450 C 3.724 5.140,3.329 4.970,2.874 5.011 C 2.439 5.051,2.141 5.274,2.041 5.635 C 2.016 5.724,2.000 6.661,2.000 8.074 C 2.000 10.234,2.005 10.391,2.083 10.773 C 2.357 12.118,3.249 13.195,4.512 13.704 C 5.231 13.994,6.023 14.070,6.757 13.921 C 8.387 13.588,9.589 12.384,9.922 10.751 C 10.000 10.369,10.002 10.232,9.991 7.167 L 9.980 3.980 9.869 3.680 C 9.430 2.486,8.192 1.798,6.960 2.062 " stroke="none" fill-rule="evenodd" fill="black"></path></svg>