<svg width="24" height="24" viewBox="0 0 24 24" fill="none" xmlns="http://www.w3.org/2000/svg"><path d="M6.920 1.040 C 6.150 1.092,5.672 1.205,5.180 1.451 C 4.089 1.996,3.357 2.961,3.124 4.160 C 3.012 4.738,3.000 5.470,3.000 12.000 C 3.000 18.530,3.012 19.262,3.124 19.840 C 3.311 20.806,3.822 21.623,4.599 22.199 C 5.223 22.662,5.825 22.868,6.820 22.959 C 7.401 23.013,12.172 23.013,12.365 22.959 C 12.586 22.898,12.770 22.755,12.880 22.558 C 12.967 22.402,12.980 22.332,12.979 22.000 C 12.977 21.469,12.851 21.245,12.455 21.071 C 12.368 21.033,11.671 21.015,9.560 20.998 C 6.597 20.973,6.501 20.967,6.080 20.769 C 5.812 20.643,5.376 20.216,5.248 19.952 C 5.198 19.849,5.126 19.633,5.088 19.472 C 5.025 19.202,5.020 18.630,5.020 12.000 C 5.020 5.370,5.025 4.798,5.088 4.528 C 5.186 4.109,5.304 3.895,5.600 3.600 C 5.895 3.304,6.109 3.186,6.528 3.088 C 6.795 3.026,7.256 3.020,12.000 3.020 C 16.744 3.020,17.205 3.026,17.472 3.088 C 17.633 3.126,17.849 3.198,17.952 3.248 C 18.194 3.366,18.634 3.806,18.752 4.048 C 18.965 4.484,18.969 4.548,18.995 7.820 C 19.022 11.156,19.011 11.009,19.265 11.248 C 19.445 11.417,19.659 11.487,19.997 11.488 C 20.348 11.490,20.556 11.418,20.751 11.229 C 21.001 10.987,21.000 10.997,21.000 7.983 C 21.000 4.857,20.974 4.408,20.755 3.680 C 20.424 2.581,19.465 1.622,18.320 1.246 C 17.657 1.028,17.701 1.030,12.340 1.019 C 9.612 1.014,7.173 1.023,6.920 1.040 M17.614 14.057 C 17.377 14.131,17.212 14.261,17.109 14.453 C 17.024 14.613,17.020 14.668,17.008 15.810 L 16.996 17.000 15.904 17.000 C 14.744 17.000,14.570 17.022,14.322 17.199 C 14.100 17.357,14.020 17.568,14.020 18.000 C 14.020 18.331,14.033 18.403,14.120 18.558 C 14.230 18.755,14.414 18.898,14.635 18.959 C 14.716 18.982,15.270 19.000,15.890 19.000 L 17.000 19.000 17.000 20.110 C 17.000 20.730,17.018 21.284,17.041 21.365 C 17.148 21.750,17.437 21.962,17.896 21.991 C 18.381 22.022,18.699 21.882,18.880 21.558 C 18.979 21.381,18.980 21.374,18.993 20.190 L 19.005 19.000 20.113 19.000 C 20.731 19.000,21.284 18.982,21.365 18.959 C 21.586 18.898,21.770 18.755,21.880 18.558 C 21.967 18.402,21.980 18.332,21.979 18.000 C 21.978 17.567,21.898 17.355,21.678 17.199 C 21.430 17.022,21.256 17.000,20.096 17.000 L 19.005 17.000 18.993 15.810 C 18.981 14.669,18.976 14.613,18.891 14.453 C 18.842 14.362,18.746 14.247,18.678 14.199 C 18.414 14.010,17.957 13.950,17.614 14.057 " stroke="none" fill-rule="evenodd" fill="black"></path></svg>