<svg width="24" height="24" viewBox="0 0 24 24" fill="none" xmlns="http://www.w3.org/2000/svg"><path d="M6.920 1.040 C 6.150 1.092,5.672 1.205,5.180 1.451 C 4.089 1.996,3.357 2.961,3.124 4.160 C 3.012 4.738,3.000 5.470,3.000 12.000 C 3.000 19.433,3.002 19.515,3.245 20.320 C 3.577 21.422,4.578 22.423,5.680 22.755 C 6.408 22.974,6.857 23.000,9.983 23.000 C 12.997 23.000,12.987 23.001,13.229 22.751 C 13.417 22.557,13.486 22.355,13.486 22.000 C 13.486 21.656,13.418 21.445,13.248 21.267 C 13.004 21.011,13.159 21.023,9.820 20.998 C 6.577 20.973,6.506 20.969,6.080 20.769 C 5.812 20.643,5.376 20.216,5.248 19.952 C 5.198 19.849,5.126 19.633,5.088 19.472 C 5.025 19.202,5.020 18.630,5.020 12.000 C 5.020 5.370,5.025 4.798,5.088 4.528 C 5.186 4.109,5.304 3.895,5.600 3.600 C 5.895 3.304,6.109 3.186,6.528 3.088 C 6.795 3.026,7.256 3.020,12.000 3.020 C 16.744 3.020,17.205 3.026,17.472 3.088 C 17.633 3.126,17.849 3.198,17.952 3.248 C 18.194 3.366,18.634 3.806,18.752 4.048 C 18.973 4.502,18.970 4.450,18.996 8.820 C 19.022 13.262,19.007 13.005,19.265 13.248 C 19.445 13.417,19.659 13.487,19.997 13.488 C 20.348 13.490,20.556 13.418,20.751 13.229 C 21.007 12.982,21.000 13.096,21.000 8.983 C 21.000 4.789,20.984 4.439,20.755 3.680 C 20.424 2.581,19.465 1.622,18.320 1.246 C 17.657 1.028,17.701 1.030,12.340 1.019 C 9.612 1.014,7.173 1.023,6.920 1.040 M17.614 15.057 C 17.377 15.131,17.212 15.261,17.109 15.453 C 17.021 15.618,17.020 15.640,17.009 17.596 L 16.997 19.572 16.269 18.852 C 15.856 18.443,15.467 18.094,15.372 18.045 C 15.021 17.868,14.640 17.958,14.299 18.299 C 13.952 18.646,13.863 19.011,14.040 19.363 C 14.099 19.480,14.635 20.051,15.635 21.062 C 16.463 21.899,17.174 22.634,17.216 22.697 C 17.318 22.850,17.762 23.049,18.000 23.049 C 18.238 23.049,18.682 22.850,18.784 22.697 C 18.826 22.634,19.537 21.899,20.365 21.062 C 21.365 20.051,21.901 19.480,21.960 19.363 C 22.137 19.011,22.048 18.646,21.701 18.299 C 21.360 17.958,20.979 17.868,20.628 18.045 C 20.533 18.094,20.144 18.443,19.732 18.851 L 19.004 19.572 18.992 17.596 C 18.980 15.640,18.979 15.618,18.891 15.453 C 18.842 15.362,18.746 15.247,18.678 15.199 C 18.414 15.010,17.957 14.950,17.614 15.057 " stroke="none" fill-rule="evenodd" fill="black"></path></svg>