<svg width="24" height="24" viewBox="0 0 24 24" fill="none" xmlns="http://www.w3.org/2000/svg"><path d="M6.920 1.040 C 6.150 1.092,5.672 1.205,5.180 1.451 C 4.089 1.996,3.357 2.961,3.124 4.160 C 3.012 4.738,3.000 5.470,3.000 12.000 C 3.000 18.530,3.012 19.262,3.124 19.840 C 3.311 20.806,3.822 21.623,4.599 22.199 C 5.223 22.662,5.825 22.868,6.820 22.959 C 7.401 23.013,12.172 23.013,12.365 22.959 C 12.586 22.898,12.770 22.755,12.880 22.558 C 12.967 22.402,12.980 22.332,12.979 22.000 C 12.977 21.469,12.851 21.245,12.455 21.071 C 12.368 21.033,11.671 21.015,9.560 20.998 C 6.597 20.973,6.501 20.967,6.080 20.769 C 5.812 20.643,5.376 20.216,5.248 19.952 C 5.198 19.849,5.126 19.633,5.088 19.472 C 5.025 19.202,5.020 18.630,5.020 12.000 C 5.020 5.370,5.025 4.798,5.088 4.528 C 5.186 4.109,5.304 3.895,5.600 3.600 C 5.895 3.304,6.109 3.186,6.528 3.088 C 6.795 3.026,7.256 3.020,12.000 3.020 C 16.744 3.020,17.205 3.026,17.472 3.088 C 17.633 3.126,17.849 3.198,17.952 3.248 C 18.194 3.366,18.634 3.806,18.752 4.048 C 18.971 4.499,18.970 4.474,18.996 8.580 L 19.020 12.380 19.120 12.558 C 19.287 12.856,19.572 13.000,20.000 13.000 C 20.428 13.000,20.713 12.856,20.880 12.558 L 20.980 12.380 20.992 8.880 C 21.007 4.849,20.989 4.459,20.755 3.680 C 20.426 2.582,19.465 1.622,18.320 1.246 C 17.657 1.028,17.701 1.030,12.340 1.019 C 9.612 1.014,7.173 1.023,6.920 1.040 M15.626 15.045 C 15.257 15.239,14.951 15.673,14.951 16.000 C 14.951 16.323,15.068 16.478,16.103 17.520 L 17.077 18.500 16.103 19.480 C 15.068 20.522,14.951 20.677,14.951 21.000 C 14.951 21.477,15.523 22.049,16.000 22.049 C 16.323 22.049,16.478 21.932,17.520 20.897 L 18.500 19.923 19.480 20.897 C 20.522 21.932,20.677 22.049,21.000 22.049 C 21.477 22.049,22.049 21.477,22.049 21.000 C 22.049 20.677,21.932 20.522,20.897 19.480 L 19.923 18.500 20.897 17.520 C 21.518 16.895,21.903 16.476,21.960 16.363 C 22.137 16.011,22.048 15.646,21.701 15.299 C 21.360 14.958,20.979 14.868,20.628 15.045 C 20.527 15.096,20.072 15.515,19.480 16.103 L 18.500 17.077 17.520 16.103 C 16.927 15.514,16.474 15.096,16.372 15.045 C 16.152 14.934,15.835 14.934,15.626 15.045 " stroke="none" fill-rule="evenodd" fill="black"></path></svg>