<svg width="24" height="24" viewBox="0 0 24 24" fill="none" xmlns="http://www.w3.org/2000/svg"><path d="M6.920 1.042 C 6.155 1.091,5.674 1.204,5.180 1.451 C 4.089 1.996,3.357 2.961,3.124 4.160 C 3.012 4.738,3.000 5.470,3.000 12.000 C 3.000 19.433,3.002 19.515,3.245 20.320 C 3.577 21.422,4.578 22.423,5.680 22.755 C 6.460 22.990,6.716 23.000,12.000 23.000 C 17.284 23.000,17.540 22.990,18.320 22.755 C 19.422 22.423,20.425 21.421,20.755 20.320 C 20.999 19.506,21.006 19.309,20.992 13.160 L 20.980 7.700 20.873 7.520 C 20.812 7.417,19.428 6.005,17.653 4.233 C 14.633 1.220,14.534 1.125,14.323 1.063 C 14.131 1.008,13.708 1.001,10.743 1.006 C 8.893 1.009,7.173 1.025,6.920 1.042 M13.001 5.070 C 13.001 7.322,13.014 7.481,13.227 7.919 C 13.366 8.205,13.795 8.634,14.081 8.773 C 14.519 8.986,14.677 8.999,16.932 8.999 L 19.004 9.000 18.989 14.110 C 18.973 19.665,18.980 19.483,18.752 19.952 C 18.626 20.211,18.190 20.638,17.918 20.768 C 17.471 20.983,17.547 20.980,12.000 20.980 C 6.462 20.980,6.533 20.983,6.082 20.771 C 5.812 20.643,5.377 20.217,5.248 19.952 C 5.198 19.849,5.126 19.633,5.088 19.472 C 5.025 19.202,5.020 18.630,5.020 12.000 C 5.020 5.370,5.025 4.798,5.088 4.528 C 5.175 4.155,5.294 3.918,5.520 3.667 C 5.884 3.261,6.283 3.090,6.980 3.040 C 7.200 3.025,8.645 3.009,10.190 3.006 L 13.000 3.000 13.001 5.070 M16.300 5.720 L 17.580 7.000 16.290 7.000 L 15.000 7.000 15.000 5.720 C 15.000 5.016,15.005 4.440,15.010 4.440 C 15.016 4.440,15.596 5.016,16.300 5.720 M9.780 10.026 C 9.284 10.106,8.801 10.316,8.350 10.648 C 6.932 11.694,6.580 13.628,7.542 15.085 C 7.885 15.605,9.451 17.132,11.008 18.468 C 11.924 19.253,12.094 19.242,13.145 18.330 C 14.602 17.066,15.994 15.721,16.353 15.231 C 16.571 14.934,16.768 14.537,16.886 14.160 C 16.966 13.904,16.979 13.778,16.978 13.300 C 16.976 12.672,16.924 12.418,16.697 11.926 C 16.291 11.047,15.472 10.359,14.518 10.095 C 14.331 10.044,14.122 10.025,13.760 10.026 C 13.170 10.029,12.793 10.114,12.303 10.355 L 11.987 10.511 11.743 10.378 C 11.354 10.165,10.852 10.037,10.340 10.021 C 10.098 10.013,9.846 10.015,9.780 10.026 M10.726 12.110 C 10.826 12.154,11.030 12.302,11.181 12.438 C 11.526 12.750,11.775 12.880,12.029 12.879 C 12.259 12.879,12.401 12.799,12.804 12.444 C 13.181 12.114,13.378 12.025,13.741 12.023 C 14.092 12.022,14.392 12.155,14.639 12.424 C 14.892 12.698,14.977 12.918,14.976 13.300 C 14.976 13.704,14.882 13.901,14.464 14.369 C 14.176 14.691,13.179 15.636,12.388 16.336 L 11.995 16.683 11.628 16.356 C 10.105 14.999,9.295 14.178,9.117 13.810 C 8.991 13.551,8.988 13.066,9.110 12.793 C 9.258 12.464,9.562 12.185,9.915 12.053 C 10.107 11.981,10.497 12.008,10.726 12.110 " stroke="none" fill-rule="evenodd" fill="black"></path></svg>