<svg width="24" height="24" viewBox="0 0 24 24" fill="none" xmlns="http://www.w3.org/2000/svg"><path d="M6.920 1.040 C 6.150 1.092,5.672 1.205,5.180 1.451 C 4.089 1.996,3.357 2.961,3.124 4.160 C 3.012 4.738,3.000 5.470,3.000 12.000 C 3.000 18.530,3.012 19.262,3.124 19.840 C 3.311 20.806,3.822 21.623,4.599 22.199 C 5.223 22.662,5.825 22.868,6.820 22.959 C 7.409 23.014,14.169 23.014,14.365 22.959 C 14.586 22.898,14.770 22.755,14.880 22.558 C 14.967 22.402,14.980 22.332,14.979 22.000 C 14.977 21.469,14.852 21.247,14.455 21.071 C 14.366 21.031,13.497 21.015,10.560 20.998 C 6.518 20.975,6.517 20.975,6.080 20.769 C 5.812 20.643,5.376 20.216,5.248 19.952 C 5.198 19.849,5.126 19.633,5.088 19.472 C 5.025 19.202,5.020 18.630,5.020 12.000 C 5.020 5.370,5.025 4.798,5.088 4.528 C 5.186 4.109,5.304 3.895,5.600 3.600 C 5.895 3.304,6.109 3.186,6.528 3.088 C 6.795 3.026,7.256 3.020,12.000 3.020 C 16.744 3.020,17.205 3.026,17.472 3.088 C 17.633 3.126,17.849 3.198,17.952 3.248 C 18.194 3.366,18.634 3.806,18.752 4.048 C 18.959 4.474,18.969 4.599,18.985 7.200 C 18.995 8.717,19.016 9.699,19.044 9.833 C 19.130 10.257,19.462 10.486,19.994 10.488 C 20.348 10.490,20.555 10.419,20.751 10.229 C 20.996 9.992,21.000 9.948,21.000 7.483 C 21.000 4.880,20.968 4.387,20.755 3.680 C 20.424 2.581,19.465 1.622,18.320 1.246 C 17.657 1.028,17.701 1.030,12.340 1.019 C 9.612 1.014,7.173 1.023,6.920 1.040 M7.614 6.057 C 7.377 6.131,7.212 6.261,7.109 6.453 C 7.035 6.592,7.020 6.684,7.020 7.000 C 7.020 7.331,7.033 7.403,7.120 7.558 C 7.230 7.755,7.414 7.898,7.635 7.959 C 7.833 8.014,16.167 8.014,16.365 7.959 C 16.586 7.898,16.770 7.755,16.880 7.558 C 16.967 7.402,16.980 7.332,16.979 7.000 C 16.978 6.567,16.898 6.355,16.678 6.199 C 16.393 5.996,16.487 6.000,11.984 6.003 C 8.651 6.005,7.746 6.016,7.614 6.057 M7.614 10.057 C 7.377 10.131,7.212 10.261,7.109 10.453 C 7.035 10.592,7.020 10.684,7.020 11.000 C 7.020 11.331,7.033 11.403,7.120 11.558 C 7.230 11.755,7.414 11.898,7.635 11.959 C 7.832 12.014,14.168 12.014,14.365 11.959 C 14.586 11.898,14.770 11.755,14.880 11.558 C 14.967 11.402,14.980 11.332,14.979 11.000 C 14.978 10.567,14.898 10.355,14.678 10.199 C 14.398 9.999,14.411 10.000,10.984 10.003 C 8.472 10.005,7.744 10.017,7.614 10.057 M17.920 12.579 C 16.894 12.818,16.027 13.538,15.637 14.473 C 15.469 14.877,15.441 15.200,15.552 15.450 C 15.697 15.778,16.145 16.015,16.627 16.018 C 16.998 16.021,17.164 15.889,17.410 15.399 C 17.724 14.772,18.072 14.520,18.620 14.520 C 18.944 14.520,19.195 14.610,19.418 14.807 C 19.756 15.104,19.929 15.561,19.834 15.904 C 19.742 16.237,19.107 16.733,18.427 17.003 C 17.986 17.178,17.804 17.306,17.689 17.520 C 17.554 17.774,17.579 18.138,17.757 18.500 C 17.965 18.922,18.264 19.084,18.691 19.005 C 19.369 18.880,20.488 18.233,21.065 17.633 C 21.830 16.838,22.062 15.785,21.705 14.734 C 21.326 13.620,20.427 12.813,19.312 12.583 C 18.945 12.508,18.235 12.506,17.920 12.579 M7.614 14.057 C 7.377 14.131,7.212 14.261,7.109 14.453 C 7.035 14.592,7.020 14.684,7.020 15.000 C 7.020 15.331,7.033 15.403,7.120 15.558 C 7.230 15.755,7.414 15.898,7.635 15.959 C 7.826 16.012,10.174 16.012,10.365 15.959 C 10.586 15.898,10.770 15.755,10.880 15.558 C 10.967 15.402,10.980 15.332,10.979 15.000 C 10.978 14.687,10.962 14.591,10.890 14.453 C 10.786 14.256,10.623 14.131,10.371 14.055 C 10.117 13.979,7.859 13.981,7.614 14.057 M18.254 20.055 C 18.162 20.085,18.033 20.148,17.967 20.195 C 17.621 20.441,17.541 21.224,17.819 21.645 C 18.092 22.060,19.029 22.123,19.389 21.752 C 19.577 21.557,19.646 21.355,19.646 21.000 C 19.646 20.534,19.485 20.233,19.160 20.093 C 18.963 20.009,18.459 19.987,18.254 20.055 " stroke="none" fill-rule="evenodd" fill="black"></path></svg>