<svg width="24" height="24" viewBox="0 0 24 24" fill="none" xmlns="http://www.w3.org/2000/svg"><path d="M6.920 1.042 C 6.155 1.091,5.674 1.204,5.180 1.451 C 4.089 1.996,3.357 2.961,3.124 4.160 C 3.012 4.738,3.000 5.470,3.000 12.000 C 3.000 19.433,3.002 19.515,3.245 20.320 C 3.577 21.422,4.578 22.423,5.680 22.755 C 6.460 22.990,6.716 23.000,12.000 23.000 C 17.284 23.000,17.540 22.990,18.320 22.755 C 19.422 22.423,20.425 21.421,20.755 20.320 C 20.999 19.506,21.006 19.309,20.992 13.160 L 20.980 7.700 20.873 7.520 C 20.812 7.417,19.428 6.005,17.653 4.233 C 14.633 1.220,14.534 1.125,14.323 1.063 C 14.131 1.008,13.708 1.001,10.743 1.006 C 8.893 1.009,7.173 1.025,6.920 1.042 M13.001 5.070 C 13.001 7.322,13.014 7.481,13.227 7.919 C 13.366 8.205,13.795 8.634,14.081 8.773 C 14.519 8.986,14.677 8.999,16.932 8.999 L 19.004 9.000 18.989 14.110 C 18.973 19.665,18.980 19.483,18.752 19.952 C 18.626 20.211,18.190 20.638,17.918 20.768 C 17.471 20.983,17.547 20.980,12.000 20.980 C 6.462 20.980,6.533 20.983,6.082 20.771 C 5.812 20.643,5.377 20.217,5.248 19.952 C 5.198 19.849,5.126 19.633,5.088 19.472 C 5.025 19.202,5.020 18.630,5.020 12.000 C 5.020 5.370,5.025 4.798,5.088 4.528 C 5.175 4.155,5.294 3.918,5.520 3.667 C 5.884 3.261,6.283 3.090,6.980 3.040 C 7.200 3.025,8.645 3.009,10.190 3.006 L 13.000 3.000 13.001 5.070 M16.300 5.720 L 17.580 7.000 16.290 7.000 L 15.000 7.000 15.000 5.720 C 15.000 5.016,15.005 4.440,15.010 4.440 C 15.016 4.440,15.596 5.016,16.300 5.720 M11.614 11.057 C 11.377 11.131,11.212 11.261,11.109 11.453 C 11.024 11.613,11.020 11.668,11.008 12.810 L 10.996 14.000 9.904 14.000 C 8.744 14.000,8.570 14.022,8.322 14.199 C 8.100 14.357,8.020 14.568,8.020 15.000 C 8.020 15.331,8.033 15.403,8.120 15.558 C 8.230 15.755,8.414 15.898,8.635 15.959 C 8.716 15.982,9.270 16.000,9.890 16.000 L 11.000 16.000 11.000 17.110 C 11.000 17.730,11.018 18.284,11.041 18.365 C 11.148 18.750,11.437 18.962,11.896 18.991 C 12.381 19.022,12.699 18.882,12.880 18.558 C 12.979 18.381,12.980 18.374,12.993 17.190 L 13.005 16.000 14.113 16.000 C 14.731 16.000,15.284 15.982,15.365 15.959 C 15.586 15.898,15.770 15.755,15.880 15.558 C 15.967 15.402,15.980 15.332,15.979 15.000 C 15.978 14.567,15.898 14.355,15.678 14.199 C 15.430 14.022,15.256 14.000,14.096 14.000 L 13.005 14.000 12.993 12.810 C 12.981 11.669,12.976 11.613,12.891 11.453 C 12.842 11.362,12.746 11.247,12.678 11.199 C 12.414 11.010,11.957 10.950,11.614 11.057 " stroke="none" fill-rule="evenodd" fill="black"></path></svg>