<svg width="24" height="24" viewBox="0 0 24 24" fill="none" xmlns="http://www.w3.org/2000/svg"><path d="M10.260 1.002 C 6.485 1.029,6.312 1.039,5.680 1.246 C 4.355 1.681,3.392 2.778,3.124 4.160 C 3.012 4.738,3.000 5.470,3.000 12.000 C 3.000 19.433,3.002 19.515,3.245 20.320 C 3.577 21.422,4.578 22.423,5.680 22.755 C 6.460 22.990,6.716 23.000,12.000 23.000 C 16.561 23.000,17.282 22.985,17.840 22.876 C 19.413 22.571,20.611 21.365,20.876 19.820 C 20.898 19.688,20.929 19.526,20.945 19.460 C 20.960 19.394,20.986 16.802,21.003 13.700 C 21.020 10.598,21.035 8.001,21.036 7.929 C 21.042 7.703,20.834 7.307,20.635 7.168 C 20.442 7.033,14.902 1.482,14.790 1.312 C 14.681 1.146,14.245 0.958,13.990 0.968 C 13.874 0.973,12.196 0.988,10.260 1.002 M13.009 5.690 L 13.020 8.380 13.120 8.558 C 13.230 8.755,13.414 8.898,13.635 8.959 C 13.725 8.984,14.766 9.000,16.392 9.000 L 19.004 9.000 18.989 14.110 C 18.973 19.665,18.980 19.483,18.752 19.952 C 18.626 20.211,18.190 20.638,17.918 20.768 C 17.471 20.983,17.547 20.980,12.000 20.980 C 6.462 20.980,6.533 20.983,6.082 20.771 C 5.812 20.643,5.377 20.217,5.248 19.952 C 5.198 19.849,5.126 19.633,5.088 19.472 C 5.025 19.202,5.020 18.630,5.020 12.000 C 5.020 5.370,5.025 4.798,5.088 4.528 C 5.175 4.155,5.294 3.918,5.520 3.667 C 5.884 3.261,6.283 3.090,6.980 3.040 C 7.200 3.025,8.644 3.009,10.189 3.006 L 12.998 3.000 13.009 5.690 M16.300 5.720 L 17.580 7.000 16.290 7.000 L 15.000 7.000 15.000 5.720 C 15.000 5.016,15.005 4.440,15.010 4.440 C 15.016 4.440,15.596 5.016,16.300 5.720 M11.580 10.022 C 11.536 10.032,11.401 10.061,11.280 10.085 C 11.076 10.125,8.671 10.960,8.506 11.048 C 8.466 11.069,8.364 11.149,8.279 11.226 C 8.000 11.477,7.993 11.535,8.009 13.368 C 8.023 14.887,8.029 14.998,8.113 15.300 C 8.315 16.026,8.741 16.707,9.405 17.364 C 9.957 17.911,10.772 18.504,11.396 18.813 C 11.691 18.958,11.768 18.980,12.000 18.980 C 12.232 18.980,12.309 18.958,12.604 18.813 C 13.235 18.500,14.057 17.900,14.603 17.354 C 15.275 16.683,15.685 16.025,15.887 15.300 C 15.971 14.998,15.977 14.887,15.991 13.368 C 16.003 11.962,15.997 11.731,15.940 11.560 C 15.869 11.346,15.643 11.111,15.417 11.016 C 15.143 10.902,13.130 10.192,12.860 10.115 C 12.590 10.038,11.769 9.979,11.580 10.022 M13.160 12.328 L 13.980 12.621 13.991 13.601 C 14.001 14.482,13.994 14.606,13.922 14.842 C 13.766 15.356,13.267 15.956,12.563 16.476 C 12.084 16.830,12.027 16.856,11.887 16.784 C 11.432 16.549,10.603 15.794,10.324 15.362 C 10.028 14.903,9.997 14.728,10.009 13.601 L 10.020 12.623 10.720 12.369 C 12.004 11.903,11.974 11.904,13.160 12.328 " stroke="none" fill-rule="evenodd" fill="black"></path></svg>