<svg width="24" height="24" viewBox="0 0 24 24" fill="none" xmlns="http://www.w3.org/2000/svg"><path d="M10.260 1.002 C 6.485 1.029,6.312 1.039,5.680 1.246 C 4.355 1.681,3.392 2.778,3.124 4.160 C 3.012 4.738,3.000 5.470,3.000 12.000 C 3.000 19.433,3.002 19.515,3.245 20.320 C 3.577 21.422,4.578 22.423,5.680 22.755 C 6.460 22.990,6.716 23.000,12.000 23.000 C 16.561 23.000,17.282 22.985,17.840 22.876 C 19.413 22.571,20.611 21.365,20.876 19.820 C 20.898 19.688,20.929 19.526,20.945 19.460 C 20.960 19.394,20.986 16.802,21.003 13.700 C 21.020 10.598,21.035 8.001,21.036 7.929 C 21.042 7.703,20.834 7.307,20.635 7.168 C 20.442 7.033,14.902 1.482,14.790 1.312 C 14.681 1.146,14.245 0.958,13.990 0.968 C 13.874 0.973,12.196 0.988,10.260 1.002 M13.009 5.690 L 13.020 8.380 13.120 8.558 C 13.230 8.755,13.414 8.898,13.635 8.959 C 13.725 8.984,14.766 9.000,16.392 9.000 L 19.004 9.000 18.989 14.110 C 18.973 19.665,18.980 19.483,18.752 19.952 C 18.626 20.211,18.190 20.638,17.918 20.768 C 17.471 20.983,17.547 20.980,12.000 20.980 C 6.462 20.980,6.533 20.983,6.082 20.771 C 5.812 20.643,5.377 20.217,5.248 19.952 C 5.198 19.849,5.126 19.633,5.088 19.472 C 5.025 19.202,5.020 18.630,5.020 12.000 C 5.020 5.370,5.025 4.798,5.088 4.528 C 5.175 4.155,5.294 3.918,5.520 3.667 C 5.884 3.261,6.283 3.090,6.980 3.040 C 7.200 3.025,8.644 3.009,10.189 3.006 L 12.998 3.000 13.009 5.690 M16.300 5.720 L 17.580 7.000 16.290 7.000 L 15.000 7.000 15.000 5.720 C 15.000 5.016,15.005 4.440,15.010 4.440 C 15.016 4.440,15.596 5.016,16.300 5.720 M11.380 9.566 C 11.270 9.587,11.009 9.686,10.800 9.787 C 10.480 9.942,10.366 10.025,10.076 10.315 C 9.699 10.693,9.500 11.011,9.359 11.460 C 9.289 11.683,9.266 11.872,9.250 12.385 L 9.230 13.030 9.005 13.079 C 8.533 13.182,8.018 13.568,7.768 14.008 C 7.527 14.431,7.503 14.607,7.501 15.980 C 7.500 17.337,7.515 17.466,7.732 17.915 C 7.983 18.434,8.577 18.868,9.160 18.959 C 9.508 19.013,14.492 19.013,14.840 18.959 C 15.605 18.840,16.250 18.229,16.445 17.440 C 16.523 17.128,16.523 14.872,16.445 14.560 C 16.264 13.827,15.676 13.227,14.995 13.079 L 14.770 13.030 14.750 12.385 C 14.734 11.872,14.711 11.683,14.641 11.460 C 14.500 11.011,14.301 10.693,13.924 10.315 C 13.634 10.024,13.521 9.942,13.200 9.788 C 12.991 9.687,12.713 9.586,12.583 9.563 C 12.300 9.512,11.660 9.514,11.380 9.566 M12.377 11.616 C 12.652 11.777,12.733 11.975,12.753 12.530 L 12.770 13.000 12.000 13.000 L 11.230 13.000 11.248 12.510 C 11.264 12.091,11.279 11.998,11.357 11.870 C 11.561 11.533,12.034 11.415,12.377 11.616 M14.480 16.000 L 14.480 17.000 12.000 17.000 L 9.520 17.000 9.520 16.000 L 9.520 15.000 12.000 15.000 L 14.480 15.000 14.480 16.000 " stroke="none" fill-rule="evenodd" fill="black"></path></svg>