<svg width="24" height="24" viewBox="0 0 24 24" fill="none" xmlns="http://www.w3.org/2000/svg"><path d="M6.920 1.040 C 6.150 1.092,5.672 1.205,5.180 1.451 C 4.089 1.996,3.357 2.961,3.124 4.160 C 3.012 4.738,3.000 5.470,3.000 12.000 C 3.000 19.433,3.002 19.515,3.245 20.320 C 3.577 21.422,4.578 22.423,5.680 22.755 C 6.387 22.968,6.880 23.000,9.483 23.000 C 11.948 23.000,11.992 22.996,12.229 22.751 C 12.417 22.557,12.486 22.355,12.486 22.000 C 12.486 21.656,12.418 21.445,12.248 21.267 C 12.008 21.015,12.104 21.024,9.320 20.998 C 6.615 20.972,6.495 20.964,6.080 20.769 C 5.812 20.643,5.376 20.216,5.248 19.952 C 5.198 19.849,5.126 19.633,5.088 19.472 C 5.025 19.202,5.020 18.630,5.020 12.000 C 5.020 5.370,5.025 4.798,5.088 4.528 C 5.186 4.109,5.304 3.895,5.600 3.600 C 5.895 3.304,6.109 3.186,6.528 3.088 C 6.795 3.026,7.256 3.020,12.000 3.020 C 16.744 3.020,17.205 3.026,17.472 3.088 C 17.633 3.126,17.849 3.198,17.952 3.248 C 18.194 3.366,18.634 3.806,18.752 4.048 C 18.965 4.484,18.969 4.548,18.995 7.820 C 19.022 11.156,19.011 11.009,19.265 11.248 C 19.445 11.417,19.659 11.487,19.997 11.488 C 20.348 11.490,20.556 11.418,20.751 11.229 C 21.001 10.987,21.000 10.997,21.000 7.983 C 21.000 4.857,20.974 4.408,20.755 3.680 C 20.424 2.581,19.465 1.622,18.320 1.246 C 17.657 1.028,17.701 1.030,12.340 1.019 C 9.612 1.014,7.173 1.023,6.920 1.040 M7.614 6.057 C 7.377 6.131,7.212 6.261,7.109 6.453 C 7.035 6.592,7.020 6.684,7.020 7.000 C 7.020 7.331,7.033 7.403,7.120 7.558 C 7.230 7.755,7.414 7.898,7.635 7.959 C 7.833 8.014,16.167 8.014,16.365 7.959 C 16.586 7.898,16.770 7.755,16.880 7.558 C 16.967 7.402,16.980 7.332,16.979 7.000 C 16.978 6.567,16.898 6.355,16.678 6.199 C 16.393 5.996,16.487 6.000,11.984 6.003 C 8.651 6.005,7.746 6.016,7.614 6.057 M7.614 10.057 C 7.377 10.131,7.212 10.261,7.109 10.453 C 7.035 10.592,7.020 10.684,7.020 11.000 C 7.020 11.331,7.033 11.403,7.120 11.558 C 7.230 11.755,7.414 11.898,7.635 11.959 C 7.832 12.014,14.168 12.014,14.365 11.959 C 14.586 11.898,14.770 11.755,14.880 11.558 C 14.967 11.402,14.980 11.332,14.979 11.000 C 14.978 10.567,14.898 10.355,14.678 10.199 C 14.398 9.999,14.411 10.000,10.984 10.003 C 8.472 10.005,7.744 10.017,7.614 10.057 M17.277 13.558 C 15.817 13.825,14.611 14.720,13.972 16.010 C 13.656 16.648,13.513 17.271,13.513 18.000 C 13.513 20.211,15.074 22.052,17.280 22.442 C 17.639 22.505,18.438 22.496,18.804 22.425 C 19.306 22.328,20.181 21.992,20.338 21.838 C 20.361 21.815,20.582 22.004,20.918 22.335 C 21.216 22.628,21.540 22.909,21.637 22.959 C 21.988 23.137,22.353 23.049,22.701 22.701 C 23.049 22.353,23.137 21.988,22.959 21.637 C 22.909 21.540,22.628 21.216,22.335 20.918 C 22.004 20.582,21.815 20.361,21.838 20.338 C 21.992 20.181,22.328 19.306,22.425 18.804 C 22.496 18.438,22.505 17.639,22.442 17.280 C 22.296 16.454,21.925 15.664,21.405 15.070 C 20.804 14.383,20.041 13.903,19.159 13.658 C 18.836 13.568,18.683 13.550,18.120 13.538 C 17.757 13.531,17.378 13.540,17.277 13.558 M7.614 14.057 C 7.377 14.131,7.212 14.261,7.109 14.453 C 7.035 14.592,7.020 14.684,7.020 15.000 C 7.020 15.331,7.033 15.403,7.120 15.558 C 7.230 15.755,7.414 15.898,7.635 15.959 C 7.826 16.012,10.174 16.012,10.365 15.959 C 10.586 15.898,10.770 15.755,10.880 15.558 C 10.967 15.402,10.980 15.332,10.979 15.000 C 10.978 14.687,10.962 14.591,10.890 14.453 C 10.786 14.256,10.623 14.131,10.371 14.055 C 10.117 13.979,7.859 13.981,7.614 14.057 M18.817 15.633 C 19.521 15.888,20.103 16.469,20.370 17.183 C 20.446 17.388,20.458 17.499,20.458 18.000 C 20.458 18.501,20.446 18.612,20.370 18.817 C 20.140 19.432,19.659 19.974,19.110 20.235 C 18.695 20.432,18.446 20.490,18.000 20.490 C 17.554 20.490,17.305 20.432,16.890 20.235 C 16.339 19.973,15.851 19.422,15.634 18.817 C 15.526 18.518,15.488 17.830,15.559 17.470 C 15.730 16.598,16.497 15.796,17.371 15.575 C 17.699 15.492,18.520 15.525,18.817 15.633 " stroke="none" fill-rule="evenodd" fill="black"></path></svg>