<svg width="24" height="24" viewBox="0 0 24 24" fill="none" xmlns="http://www.w3.org/2000/svg"><path d="M6.920 1.042 C 6.155 1.091,5.674 1.204,5.180 1.451 C 4.089 1.996,3.357 2.961,3.124 4.160 C 3.012 4.738,3.000 5.470,3.000 12.000 C 3.000 19.433,3.002 19.515,3.245 20.320 C 3.577 21.422,4.578 22.423,5.680 22.755 C 6.460 22.990,6.716 23.000,12.000 23.000 C 17.284 23.000,17.540 22.990,18.320 22.755 C 19.422 22.423,20.425 21.421,20.755 20.320 C 20.999 19.506,21.006 19.309,20.992 13.160 L 20.980 7.700 20.873 7.520 C 20.812 7.417,19.428 6.005,17.653 4.233 C 14.633 1.220,14.534 1.125,14.323 1.063 C 14.131 1.008,13.708 1.001,10.743 1.006 C 8.893 1.009,7.173 1.025,6.920 1.042 M13.001 5.070 C 13.001 7.322,13.014 7.481,13.227 7.919 C 13.366 8.205,13.795 8.634,14.081 8.773 C 14.519 8.986,14.677 8.999,16.932 8.999 L 19.004 9.000 18.989 14.110 C 18.973 19.665,18.980 19.483,18.752 19.952 C 18.626 20.211,18.190 20.638,17.918 20.768 C 17.471 20.983,17.547 20.980,12.000 20.980 C 6.462 20.980,6.533 20.983,6.082 20.771 C 5.812 20.643,5.377 20.217,5.248 19.952 C 5.198 19.849,5.126 19.633,5.088 19.472 C 5.025 19.202,5.020 18.630,5.020 12.000 C 5.020 5.370,5.025 4.798,5.088 4.528 C 5.175 4.155,5.294 3.918,5.520 3.667 C 5.884 3.261,6.283 3.090,6.980 3.040 C 7.200 3.025,8.645 3.009,10.190 3.006 L 13.000 3.000 13.001 5.070 M16.300 5.720 L 17.580 7.000 16.290 7.000 L 15.000 7.000 15.000 5.720 C 15.000 5.016,15.005 4.440,15.010 4.440 C 15.016 4.440,15.596 5.016,16.300 5.720 M11.614 11.057 C 11.377 11.131,11.212 11.261,11.109 11.453 C 11.021 11.618,11.020 11.640,11.009 13.596 L 10.997 15.572 10.269 14.852 C 9.856 14.443,9.467 14.094,9.372 14.045 C 9.021 13.868,8.640 13.958,8.299 14.299 C 7.952 14.646,7.863 15.011,8.040 15.363 C 8.099 15.480,8.635 16.051,9.635 17.062 C 10.463 17.899,11.174 18.634,11.216 18.697 C 11.318 18.850,11.762 19.049,12.000 19.049 C 12.238 19.049,12.682 18.850,12.784 18.697 C 12.826 18.634,13.537 17.899,14.365 17.062 C 15.365 16.051,15.901 15.480,15.960 15.363 C 16.137 15.011,16.048 14.646,15.701 14.299 C 15.360 13.958,14.979 13.868,14.628 14.045 C 14.533 14.094,14.144 14.443,13.732 14.851 L 13.004 15.572 12.992 13.596 C 12.980 11.640,12.979 11.618,12.891 11.453 C 12.842 11.362,12.746 11.247,12.678 11.199 C 12.414 11.010,11.957 10.950,11.614 11.057 " stroke="none" fill-rule="evenodd" fill="black"></path></svg>