<svg width="24" height="24" viewBox="0 0 24 24" fill="none" xmlns="http://www.w3.org/2000/svg"><path d="M10.870 1.042 C 8.438 1.295,6.366 2.115,4.420 3.595 C 3.925 3.972,2.639 5.241,2.528 5.462 C 2.289 5.939,2.449 6.386,2.987 6.743 C 3.268 6.929,3.578 6.974,3.804 6.860 C 3.879 6.822,4.228 6.508,4.580 6.163 C 4.932 5.817,5.373 5.413,5.559 5.263 C 6.995 4.113,8.766 3.361,10.669 3.091 C 11.311 3.001,12.689 3.001,13.331 3.091 C 15.234 3.361,17.005 4.113,18.441 5.263 C 18.627 5.413,19.068 5.817,19.420 6.163 C 19.772 6.508,20.121 6.822,20.196 6.860 C 20.422 6.974,20.732 6.929,21.013 6.743 C 21.415 6.476,21.640 6.088,21.580 5.765 C 21.526 5.479,21.382 5.291,20.686 4.600 C 19.662 3.584,18.794 2.951,17.585 2.341 C 16.248 1.666,15.097 1.306,13.620 1.098 C 13.095 1.024,11.377 0.989,10.870 1.042 M11.380 4.064 C 9.826 4.182,8.410 4.592,7.140 5.291 C 5.168 6.376,3.628 8.043,2.716 10.080 C 1.891 11.925,1.657 13.931,1.984 16.380 C 2.068 17.008,2.235 17.833,2.317 18.020 C 2.422 18.260,2.674 18.468,2.901 18.502 C 3.359 18.571,3.893 18.379,4.090 18.074 C 4.228 17.860,4.237 17.553,4.120 16.951 C 3.988 16.264,3.925 15.739,3.875 14.912 C 3.801 13.679,3.913 12.752,4.264 11.680 C 5.233 8.720,7.799 6.572,10.874 6.143 C 11.137 6.106,11.603 6.080,12.000 6.080 C 13.297 6.080,14.356 6.315,15.500 6.857 C 16.326 7.249,16.962 7.692,17.654 8.359 C 19.085 9.740,19.917 11.467,20.118 13.474 C 20.175 14.038,20.170 14.373,20.100 14.670 C 19.858 15.698,18.852 16.400,17.847 16.244 C 17.185 16.141,16.728 15.845,16.365 15.283 C 16.164 14.971,16.094 14.697,16.042 14.013 C 15.992 13.345,15.880 12.918,15.624 12.409 C 14.816 10.801,13.069 9.914,11.316 10.220 C 9.782 10.489,8.566 11.577,8.092 13.108 C 7.985 13.451,7.983 13.486,7.984 14.420 C 7.985 15.475,8.040 15.924,8.281 16.828 C 8.915 19.213,10.400 21.286,12.464 22.670 C 12.912 22.970,13.074 23.040,13.326 23.040 C 13.575 23.040,13.787 22.934,13.981 22.711 C 14.342 22.296,14.421 21.798,14.174 21.491 C 14.045 21.330,13.938 21.245,13.376 20.851 C 11.638 19.632,10.446 17.723,10.060 15.540 C 10.025 15.342,9.986 14.910,9.973 14.580 C 9.947 13.914,9.988 13.659,10.185 13.271 C 10.326 12.991,10.801 12.522,11.081 12.387 C 11.716 12.078,12.512 12.115,13.079 12.479 C 13.361 12.660,13.713 13.056,13.848 13.344 C 13.976 13.619,14.018 13.837,14.078 14.540 C 14.130 15.144,14.230 15.512,14.481 16.022 C 15.192 17.467,16.741 18.367,18.340 18.266 C 20.119 18.153,21.562 16.965,22.049 15.211 C 22.125 14.938,22.136 14.796,22.136 14.060 C 22.137 13.165,22.084 12.680,21.901 11.900 C 20.934 7.798,17.549 4.720,13.373 4.143 C 12.927 4.081,11.759 4.035,11.380 4.064 M10.964 7.182 C 8.124 7.625,5.863 9.646,5.126 12.402 C 4.710 13.956,4.864 16.225,5.525 18.267 C 5.774 19.036,5.970 19.509,6.350 20.253 C 6.683 20.906,7.272 21.828,7.484 22.028 C 7.652 22.186,7.870 22.280,8.069 22.280 C 8.397 22.279,8.935 21.908,9.085 21.580 C 9.234 21.255,9.177 21.042,8.775 20.414 C 7.742 18.799,7.208 17.335,6.979 15.491 C 6.897 14.835,6.898 13.802,6.980 13.340 C 7.308 11.494,8.634 9.964,10.410 9.382 C 11.431 9.048,12.415 9.034,13.460 9.340 C 15.365 9.897,16.833 11.633,17.040 13.571 C 17.061 13.774,17.097 14.111,17.119 14.319 C 17.166 14.772,17.272 14.960,17.568 15.112 C 17.817 15.240,18.339 15.249,18.605 15.129 C 18.992 14.955,19.101 14.716,19.092 14.060 C 19.043 10.604,16.477 7.702,13.007 7.181 C 12.513 7.107,11.441 7.107,10.964 7.182 M11.740 13.238 C 11.421 13.298,11.234 13.428,11.094 13.685 C 11.032 13.799,11.020 13.909,11.022 14.380 C 11.025 15.196,11.155 15.911,11.441 16.680 C 12.477 19.459,15.122 21.320,18.038 21.320 C 18.652 21.320,18.901 21.274,19.111 21.122 C 19.310 20.978,19.407 20.770,19.431 20.438 C 19.466 19.946,19.280 19.549,18.942 19.395 C 18.812 19.336,18.678 19.322,18.270 19.321 C 17.623 19.320,17.083 19.239,16.543 19.062 C 14.852 18.508,13.591 17.159,13.163 15.446 C 13.074 15.089,13.049 14.907,13.004 14.278 C 12.968 13.785,12.914 13.625,12.727 13.451 C 12.668 13.397,12.565 13.330,12.497 13.301 C 12.333 13.233,11.940 13.200,11.740 13.238 " stroke="none" fill-rule="evenodd" fill="black"></path></svg>