<svg width="24" height="24" viewBox="0 0 24 24" fill="none" xmlns="http://www.w3.org/2000/svg"><path d="M11.340 2.025 C 10.559 2.088,9.698 2.269,9.000 2.517 C 8.461 2.709,7.484 3.186,7.274 3.359 C 7.091 3.510,6.960 3.774,6.960 3.991 C 6.960 4.392,7.311 4.929,7.660 5.062 C 7.928 5.164,8.123 5.119,8.729 4.815 C 10.189 4.082,11.547 3.862,13.120 4.102 C 15.590 4.479,17.717 6.241,18.573 8.620 C 18.900 9.527,18.981 10.076,18.977 11.360 C 18.971 13.326,18.721 15.221,18.197 17.273 C 18.088 17.703,18.000 18.138,18.000 18.251 C 18.000 18.657,18.238 18.934,18.711 19.081 C 19.124 19.208,19.415 19.170,19.656 18.958 C 19.825 18.810,19.922 18.584,20.096 17.935 C 20.638 15.921,20.934 13.838,20.987 11.680 C 21.023 10.176,20.912 9.305,20.538 8.169 C 19.485 4.966,16.678 2.607,13.320 2.101 C 12.905 2.039,11.728 1.993,11.340 2.025 M4.693 6.016 C 4.445 6.128,4.249 6.389,3.941 7.016 C 3.301 8.320,3.066 9.305,2.999 10.965 C 2.934 12.593,2.757 13.419,2.193 14.718 C 1.959 15.258,1.920 15.484,2.017 15.738 C 2.190 16.190,2.925 16.516,3.380 16.342 C 3.631 16.246,3.799 16.030,4.036 15.498 C 4.657 14.104,4.933 12.851,5.001 11.120 C 5.061 9.594,5.227 8.904,5.816 7.729 C 6.119 7.124,6.164 6.927,6.062 6.661 C 5.885 6.195,5.107 5.829,4.693 6.016 M11.400 6.044 C 9.761 6.229,8.261 7.290,7.526 8.785 C 7.168 9.512,7.051 10.025,7.000 11.100 C 6.917 12.809,6.782 13.663,6.394 14.940 C 6.162 15.701,5.686 16.763,5.235 17.529 C 4.749 18.353,4.683 18.567,4.818 18.888 C 4.954 19.213,5.504 19.569,5.871 19.569 C 6.084 19.569,6.327 19.465,6.467 19.314 C 6.593 19.179,7.045 18.428,7.341 17.865 C 8.050 16.514,8.574 14.928,8.815 13.400 C 8.916 12.765,8.962 12.248,8.999 11.334 C 9.039 10.350,9.079 10.142,9.320 9.660 C 9.685 8.933,10.361 8.362,11.139 8.125 C 11.412 8.042,11.542 8.027,12.000 8.027 C 12.458 8.027,12.588 8.042,12.861 8.125 C 13.813 8.415,14.576 9.177,14.878 10.139 C 14.974 10.445,14.978 10.502,14.974 11.380 C 14.971 11.925,14.942 12.561,14.902 12.940 C 14.783 14.075,14.779 14.280,14.870 14.487 C 15.022 14.831,15.450 15.027,15.967 14.990 C 16.503 14.952,16.715 14.679,16.817 13.900 C 16.931 13.019,16.976 12.320,16.978 11.360 C 16.980 10.558,16.967 10.318,16.907 10.040 C 16.576 8.491,15.600 7.219,14.213 6.525 C 13.352 6.095,12.397 5.932,11.400 6.044 M11.649 10.039 C 11.440 10.089,11.209 10.266,11.114 10.450 C 11.047 10.579,11.022 10.707,11.012 10.980 C 10.940 12.853,10.796 13.941,10.439 15.313 C 10.054 16.793,9.363 18.452,8.637 19.640 C 8.193 20.366,8.118 20.642,8.278 20.957 C 8.452 21.297,8.944 21.610,9.307 21.611 C 9.714 21.612,9.906 21.431,10.420 20.560 C 11.432 18.847,12.230 16.739,12.637 14.700 C 12.871 13.528,13.029 11.909,12.992 11.050 C 12.971 10.564,12.893 10.352,12.678 10.199 C 12.432 10.024,11.999 9.956,11.649 10.039 M14.720 16.045 C 14.581 16.100,14.406 16.273,14.321 16.440 C 14.282 16.517,14.176 16.824,14.085 17.122 C 13.786 18.106,13.479 18.898,12.975 19.988 C 12.620 20.754,12.577 20.965,12.718 21.256 C 12.824 21.474,13.044 21.658,13.353 21.785 C 13.763 21.954,14.143 21.879,14.389 21.581 C 14.644 21.271,15.390 19.547,15.801 18.316 C 16.107 17.400,16.214 16.983,16.189 16.799 C 16.141 16.445,15.918 16.204,15.509 16.065 C 15.298 15.993,14.876 15.983,14.720 16.045 " stroke="none" fill-rule="evenodd" fill="black"></path></svg>