<svg width="24" height="24" viewBox="0 0 24 24" fill="none" xmlns="http://www.w3.org/2000/svg"><path d="M11.100 1.041 C 9.628 1.161,8.308 1.541,6.966 2.228 C 6.325 2.557,6.138 2.689,5.996 2.912 C 5.777 3.259,5.878 3.743,6.253 4.136 C 6.482 4.377,6.703 4.466,6.965 4.424 C 7.047 4.411,7.443 4.233,7.847 4.028 C 9.280 3.300,10.430 3.023,12.020 3.023 C 13.493 3.024,14.628 3.283,15.940 3.920 C 17.753 4.799,19.201 6.247,20.080 8.060 C 20.662 9.259,20.934 10.357,20.985 11.714 C 21.011 12.414,21.068 12.654,21.248 12.829 C 21.443 13.017,21.645 13.086,22.000 13.086 C 22.507 13.086,22.827 12.889,22.941 12.504 C 23.053 12.127,23.000 11.036,22.820 10.038 C 22.518 8.358,21.824 6.775,20.770 5.363 C 20.316 4.755,19.247 3.686,18.640 3.235 C 17.045 2.049,15.360 1.358,13.423 1.096 C 12.872 1.022,11.684 0.994,11.100 1.041 M11.540 5.026 C 10.804 5.084,10.250 5.200,9.620 5.427 C 7.709 6.115,6.187 7.615,5.456 9.530 C 4.984 10.766,4.877 12.226,5.164 13.480 C 5.366 14.359,5.563 14.802,5.849 15.014 C 6.114 15.210,6.777 15.105,7.117 14.813 C 7.430 14.545,7.471 14.250,7.279 13.642 C 6.968 12.655,6.928 11.672,7.161 10.760 C 7.448 9.640,8.155 8.612,9.100 7.939 C 10.425 6.996,12.013 6.765,13.642 7.279 C 14.104 7.425,14.327 7.432,14.564 7.308 C 14.863 7.151,15.121 6.660,15.119 6.254 C 15.117 5.939,14.898 5.639,14.565 5.494 C 13.779 5.152,12.484 4.951,11.540 5.026 M2.966 5.982 C 2.717 6.109,2.605 6.251,2.289 6.840 C 0.475 10.220,0.587 14.384,2.582 17.685 C 3.802 19.703,5.781 21.379,7.938 22.222 C 9.041 22.652,9.694 22.782,9.986 22.628 C 10.296 22.465,10.497 22.052,10.499 21.577 C 10.501 21.070,10.289 20.871,9.500 20.640 C 7.925 20.179,6.665 19.407,5.479 18.176 C 4.154 16.801,3.337 15.082,3.076 13.120 C 3.012 12.634,3.011 11.282,3.075 10.840 C 3.238 9.716,3.502 8.883,4.009 7.883 C 4.426 7.061,4.472 6.915,4.397 6.650 C 4.300 6.303,3.808 5.934,3.389 5.894 C 3.216 5.877,3.143 5.893,2.966 5.982 M17.400 8.937 C 16.885 9.079,16.602 9.386,16.602 9.800 C 16.601 9.899,16.655 10.150,16.721 10.358 C 17.167 11.773,17.058 13.128,16.398 14.353 C 15.552 15.923,13.994 16.905,12.209 16.990 C 11.649 17.016,11.171 16.954,10.540 16.774 C 9.900 16.590,9.761 16.574,9.543 16.657 C 9.226 16.778,8.981 17.149,8.901 17.629 C 8.851 17.930,9.004 18.246,9.285 18.423 C 9.610 18.628,10.525 18.874,11.292 18.962 C 11.783 19.019,12.590 18.994,13.120 18.905 C 16.101 18.407,18.407 16.101,18.905 13.120 C 18.993 12.593,19.019 11.783,18.963 11.292 C 18.872 10.492,18.596 9.507,18.383 9.225 C 18.152 8.919,17.819 8.821,17.400 8.937 M11.614 9.057 C 11.377 9.131,11.212 9.261,11.109 9.453 C 11.020 9.619,11.020 9.629,11.009 11.911 C 11.001 13.392,11.012 14.256,11.039 14.355 C 11.144 14.747,11.433 14.961,11.896 14.991 C 12.381 15.022,12.699 14.882,12.880 14.558 L 12.980 14.380 12.980 12.000 L 12.980 9.620 12.891 9.453 C 12.842 9.362,12.746 9.247,12.678 9.199 C 12.414 9.010,11.957 8.950,11.614 9.057 M20.361 15.925 C 20.151 16.008,19.995 16.176,19.726 16.610 C 19.359 17.201,19.131 17.511,18.699 18.004 C 17.712 19.128,16.247 20.084,14.810 20.540 C 13.918 20.823,13.881 20.839,13.717 21.003 C 13.536 21.184,13.462 21.417,13.495 21.701 C 13.546 22.133,13.743 22.486,14.014 22.628 C 14.309 22.783,14.986 22.647,16.080 22.212 C 18.140 21.394,19.904 19.957,21.177 18.060 C 21.697 17.285,21.829 16.913,21.703 16.582 C 21.530 16.130,20.774 15.760,20.361 15.925 " stroke="none" fill-rule="evenodd" fill="black"></path></svg>