<svg width="24" height="24" viewBox="0 0 24 24" fill="none" xmlns="http://www.w3.org/2000/svg"><path d="M11.180 1.041 C 10.085 1.138,9.077 1.418,8.101 1.898 C 7.073 2.403,6.478 2.858,6.416 3.185 C 6.312 3.742,6.863 4.476,7.389 4.479 C 7.571 4.480,7.808 4.378,8.186 4.135 C 8.963 3.635,9.877 3.271,10.757 3.113 C 11.312 3.013,12.417 2.994,12.980 3.075 C 16.027 3.515,18.422 5.871,18.904 8.900 C 18.944 9.154,18.977 9.725,18.994 10.464 L 19.021 11.628 19.141 11.822 C 19.319 12.110,19.556 12.220,20.000 12.220 C 20.445 12.220,20.681 12.110,20.860 11.821 L 20.980 11.627 20.993 10.623 C 21.013 9.123,20.901 8.271,20.538 7.169 C 19.485 3.966,16.676 1.605,13.320 1.101 C 12.804 1.024,11.718 0.993,11.180 1.041 M11.081 4.583 C 9.032 4.957,7.417 6.353,6.778 8.304 C 6.522 9.084,6.504 9.284,6.502 11.340 C 6.500 12.771,6.512 13.220,6.554 13.359 C 6.790 14.140,8.194 14.156,8.442 13.379 C 8.479 13.265,8.501 12.670,8.520 11.260 C 8.550 9.081,8.547 9.107,8.839 8.500 C 9.310 7.522,10.244 6.784,11.274 6.578 C 11.684 6.496,12.532 6.515,12.900 6.616 C 13.032 6.651,13.362 6.789,13.633 6.920 C 14.186 7.189,14.344 7.228,14.602 7.160 C 14.841 7.097,15.164 6.762,15.277 6.458 C 15.434 6.040,15.357 5.696,15.051 5.443 C 14.651 5.112,13.620 4.695,12.920 4.582 C 12.454 4.506,11.498 4.507,11.081 4.583 M3.900 6.532 C 3.678 6.657,3.518 6.945,3.367 7.488 C 3.023 8.721,3.001 8.991,3.000 12.000 C 3.000 14.608,3.023 15.043,3.202 15.880 C 3.861 18.947,6.093 21.472,9.060 22.508 C 9.803 22.767,10.127 22.756,10.423 22.459 C 10.720 22.162,10.851 21.534,10.684 21.208 C 10.549 20.946,10.391 20.839,9.900 20.680 C 8.001 20.063,6.573 18.820,5.700 17.024 C 5.304 16.209,5.125 15.571,5.043 14.680 C 4.988 14.089,4.987 9.902,5.041 9.354 C 5.093 8.833,5.175 8.409,5.324 7.905 C 5.388 7.687,5.440 7.428,5.440 7.327 C 5.440 7.107,5.321 6.855,5.155 6.724 C 4.801 6.445,4.212 6.355,3.900 6.532 M11.614 9.057 C 11.377 9.131,11.212 9.261,11.109 9.453 C 11.020 9.619,11.020 9.629,11.009 11.911 C 11.001 13.392,11.012 14.256,11.039 14.355 C 11.144 14.747,11.433 14.961,11.896 14.991 C 12.381 15.022,12.699 14.882,12.880 14.558 L 12.980 14.380 12.980 12.000 L 12.980 9.620 12.891 9.453 C 12.842 9.362,12.746 9.247,12.678 9.199 C 12.414 9.010,11.957 8.950,11.614 9.057 M16.180 10.079 C 15.868 10.159,15.698 10.300,15.573 10.580 C 15.510 10.723,15.500 10.945,15.477 12.720 C 15.456 14.435,15.443 14.732,15.383 14.939 C 15.040 16.112,14.059 17.084,12.918 17.381 C 12.363 17.525,11.660 17.525,11.100 17.380 C 10.968 17.346,10.627 17.206,10.342 17.070 C 9.919 16.868,9.787 16.823,9.622 16.823 C 9.355 16.823,9.108 16.961,8.912 17.220 C 8.519 17.740,8.559 18.258,9.020 18.607 C 9.455 18.937,10.353 19.294,11.070 19.422 C 11.527 19.504,12.392 19.505,12.886 19.424 C 14.898 19.096,16.583 17.648,17.222 15.696 C 17.479 14.913,17.496 14.718,17.498 12.640 C 17.500 10.570,17.498 10.547,17.230 10.291 C 17.005 10.077,16.547 9.985,16.180 10.079 M19.369 15.326 C 19.019 15.387,18.862 15.572,18.657 16.166 C 17.967 18.167,16.593 19.651,14.680 20.460 C 14.108 20.702,13.927 20.819,13.809 21.021 C 13.594 21.391,13.801 22.143,14.193 22.418 C 14.520 22.647,14.909 22.577,15.880 22.114 C 17.358 21.409,18.597 20.327,19.538 18.920 C 20.059 18.140,20.681 16.666,20.679 16.215 C 20.677 15.741,20.342 15.420,19.754 15.329 C 19.636 15.311,19.463 15.310,19.369 15.326 " stroke="none" fill-rule="evenodd" fill="black"></path></svg>