<svg width="24" height="24" viewBox="0 0 24 24" fill="none" xmlns="http://www.w3.org/2000/svg"><path d="M4.686 2.040 C 4.102 2.127,3.567 2.491,3.269 3.003 C 3.212 3.100,3.128 3.315,3.083 3.479 C 3.000 3.777,3.000 3.812,3.000 12.499 C 3.000 18.218,3.014 21.270,3.041 21.365 C 3.148 21.750,3.437 21.962,3.896 21.991 C 4.381 22.022,4.699 21.882,4.880 21.558 L 4.980 21.380 4.991 17.690 L 5.002 14.000 8.493 14.000 L 11.983 14.000 12.048 14.342 C 12.136 14.806,12.281 15.087,12.597 15.403 C 12.896 15.702,13.173 15.853,13.581 15.939 C 13.995 16.027,20.005 16.027,20.419 15.940 C 20.818 15.855,21.102 15.699,21.401 15.401 C 21.699 15.102,21.855 14.818,21.940 14.419 C 22.028 14.002,22.028 5.998,21.939 5.581 C 21.791 4.881,21.332 4.364,20.635 4.112 L 20.380 4.020 17.198 4.008 L 14.016 3.996 13.952 3.656 C 13.873 3.241,13.736 2.951,13.488 2.676 C 13.261 2.423,12.978 2.236,12.635 2.112 L 12.380 2.020 8.640 2.014 C 6.583 2.011,4.804 2.023,4.686 2.040 M12.000 8.000 L 12.000 12.000 8.500 12.000 L 5.000 12.000 5.000 8.000 L 5.000 4.000 8.500 4.000 L 12.000 4.000 12.000 8.000 M20.000 10.000 L 20.000 14.000 17.000 14.000 L 14.000 14.000 14.000 10.000 L 14.000 6.000 17.000 6.000 L 20.000 6.000 20.000 10.000 " stroke="none" fill-rule="evenodd" fill="black"></path></svg>