<svg width="24" height="24" viewBox="0 0 24 24" fill="none" xmlns="http://www.w3.org/2000/svg"><path d="M6.960 1.041 C 5.148 1.197,3.540 1.815,3.129 2.514 L 3.020 2.700 2.995 8.820 C 2.981 12.186,2.969 14.967,2.969 15.000 C 2.969 15.033,2.980 16.707,2.994 18.720 L 3.020 22.380 3.120 22.558 C 3.287 22.856,3.572 23.000,4.000 23.000 C 4.428 23.000,4.713 22.856,4.880 22.558 L 4.980 22.380 4.991 18.953 L 5.002 15.526 5.271 15.425 C 6.041 15.134,6.750 15.026,7.880 15.025 C 8.622 15.025,8.750 15.035,9.220 15.134 C 9.840 15.265,10.373 15.439,11.500 15.881 C 13.111 16.511,13.809 16.730,14.780 16.906 C 15.327 17.006,16.880 17.006,17.590 16.907 C 19.140 16.691,20.511 16.098,20.870 15.486 L 20.980 15.300 20.980 8.960 L 20.980 2.620 20.889 2.450 C 20.628 1.960,19.896 1.861,19.353 2.242 C 18.713 2.691,17.739 2.940,16.440 2.987 C 15.129 3.035,14.385 2.866,12.340 2.059 C 10.867 1.478,10.070 1.236,9.180 1.099 C 8.687 1.023,7.524 0.993,6.960 1.041 M9.240 3.141 C 9.837 3.264,10.374 3.440,11.500 3.881 C 13.111 4.511,13.809 4.730,14.780 4.906 C 15.324 5.005,16.881 5.006,17.580 4.908 C 18.010 4.848,18.745 4.690,18.930 4.619 C 18.996 4.593,19.000 4.843,19.000 9.531 L 19.000 14.471 18.745 14.574 C 18.147 14.813,17.363 14.954,16.440 14.987 C 15.129 15.035,14.385 14.866,12.340 14.059 C 10.008 13.139,8.808 12.905,7.100 13.036 C 6.301 13.098,5.415 13.249,5.063 13.384 C 5.006 13.406,5.000 12.952,5.000 8.468 L 5.000 3.527 5.271 3.424 C 5.676 3.269,6.249 3.135,6.720 3.084 C 6.951 3.059,7.203 3.032,7.280 3.023 C 7.357 3.014,7.717 3.014,8.080 3.022 C 8.588 3.034,8.855 3.061,9.240 3.141 " stroke="none" fill-rule="evenodd" fill="black"></path></svg>