<svg width="24" height="24" viewBox="0 0 24 24" fill="none" xmlns="http://www.w3.org/2000/svg"><path d="M3.614 1.057 C 3.377 1.131,3.212 1.261,3.109 1.453 C 3.026 1.610,3.019 1.689,2.991 2.780 C 2.975 3.418,2.966 4.003,2.971 4.080 C 2.981 4.237,2.984 14.701,2.973 14.920 C 2.970 14.997,2.979 16.707,2.993 18.720 L 3.020 22.380 3.120 22.558 C 3.287 22.856,3.572 23.000,4.000 23.000 C 4.428 23.000,4.713 22.856,4.880 22.558 L 4.980 22.380 4.991 18.953 L 5.002 15.526 5.271 15.425 C 6.041 15.134,6.750 15.026,7.880 15.025 C 8.622 15.025,8.750 15.035,9.220 15.134 C 9.840 15.265,10.373 15.439,11.500 15.881 C 13.111 16.511,13.809 16.730,14.780 16.906 C 15.327 17.006,16.880 17.006,17.590 16.907 C 19.140 16.691,20.511 16.098,20.870 15.486 L 20.980 15.300 20.980 9.460 L 20.980 3.620 20.889 3.450 C 20.628 2.960,19.896 2.861,19.353 3.242 C 18.713 3.691,17.739 3.940,16.440 3.987 C 15.129 4.035,14.385 3.866,12.340 3.059 C 10.008 2.139,8.808 1.905,7.100 2.036 C 6.306 2.097,5.415 2.249,5.069 2.382 C 5.022 2.400,5.007 2.332,4.992 2.012 C 4.970 1.566,4.885 1.346,4.678 1.199 C 4.414 1.010,3.957 0.950,3.614 1.057 M9.240 4.141 C 9.837 4.264,10.374 4.440,11.500 4.881 C 13.111 5.511,13.809 5.730,14.780 5.906 C 15.324 6.005,16.881 6.006,17.580 5.908 C 18.010 5.848,18.745 5.690,18.930 5.619 C 18.996 5.593,19.000 5.819,19.000 10.031 L 19.000 14.471 18.745 14.574 C 18.147 14.813,17.363 14.954,16.440 14.987 C 15.129 15.035,14.385 14.866,12.340 14.059 C 10.008 13.139,8.808 12.905,7.100 13.036 C 6.301 13.098,5.415 13.249,5.063 13.384 C 5.006 13.406,5.000 12.997,5.000 8.968 L 5.000 4.527 5.271 4.424 C 5.676 4.269,6.249 4.135,6.720 4.084 C 6.951 4.059,7.203 4.032,7.280 4.023 C 7.357 4.014,7.717 4.014,8.080 4.022 C 8.588 4.034,8.855 4.061,9.240 4.141 " stroke="none" fill-rule="evenodd" fill="black"></path></svg>