<svg width="24" height="24" viewBox="0 0 24 24" fill="none" xmlns="http://www.w3.org/2000/svg"><path d="M3.614 2.057 C 3.377 2.131,3.212 2.261,3.109 2.453 L 3.020 2.620 3.010 11.914 C 3.003 18.056,3.013 21.260,3.040 21.358 C 3.144 21.747,3.435 21.962,3.896 21.991 C 4.381 22.022,4.699 21.882,4.880 21.558 L 4.980 21.380 4.991 17.691 L 5.002 14.001 12.711 13.991 C 20.164 13.980,20.427 13.977,20.629 13.904 C 20.940 13.792,21.268 13.507,21.431 13.208 C 21.548 12.995,21.572 12.906,21.590 12.619 C 21.608 12.333,21.597 12.243,21.520 12.031 C 21.470 11.893,20.927 10.940,20.314 9.913 C 19.701 8.885,19.200 8.024,19.200 7.999 C 19.200 7.974,19.667 7.176,20.237 6.225 C 21.629 3.902,21.623 3.914,21.590 3.378 C 21.573 3.106,21.546 3.006,21.438 2.801 C 21.219 2.391,20.831 2.119,20.354 2.042 C 19.944 1.975,3.829 1.990,3.614 2.057 M19.200 4.024 C 19.200 4.037,18.785 4.738,18.278 5.583 C 17.124 7.505,17.101 7.554,17.101 8.000 C 17.101 8.446,17.124 8.495,18.278 10.417 C 18.785 11.262,19.200 11.963,19.200 11.976 C 19.200 11.989,16.005 12.000,12.100 12.000 L 5.000 12.000 5.000 8.000 L 5.000 4.000 12.100 4.000 C 16.005 4.000,19.200 4.011,19.200 4.024 " stroke="none" fill-rule="evenodd" fill="black"></path></svg>