<svg width="24" height="24" viewBox="0 0 24 24" fill="none" xmlns="http://www.w3.org/2000/svg"><path d="M12.665 1.056 C 12.580 1.088,12.450 1.165,12.376 1.227 C 12.141 1.425,2.922 12.526,2.782 12.780 C 2.434 13.409,2.524 14.087,3.017 14.554 C 3.503 15.013,3.358 14.998,7.443 14.999 L 10.865 15.000 10.431 18.450 C 9.956 22.218,9.949 22.319,10.138 22.604 C 10.275 22.812,10.588 22.962,10.943 22.990 C 11.163 23.008,11.227 22.996,11.417 22.903 C 11.625 22.801,11.889 22.493,16.323 17.172 C 18.900 14.079,21.079 11.441,21.165 11.308 C 21.365 10.998,21.420 10.810,21.417 10.440 C 21.416 10.199,21.393 10.091,21.302 9.889 C 21.151 9.556,20.830 9.257,20.478 9.120 L 20.220 9.020 16.678 9.009 L 13.135 8.997 13.569 5.549 C 14.044 1.782,14.051 1.681,13.862 1.396 C 13.663 1.095,13.038 0.917,12.665 1.056 M11.278 7.682 C 11.096 9.126,11.001 10.020,11.012 10.163 C 11.043 10.523,11.184 10.747,11.480 10.905 C 11.613 10.976,11.801 10.981,15.235 11.000 L 18.850 11.020 15.655 14.854 C 13.898 16.963,12.455 18.663,12.449 18.633 C 12.442 18.602,12.565 17.560,12.722 16.318 C 12.922 14.729,13.000 13.992,12.984 13.830 C 12.946 13.445,12.788 13.218,12.455 13.071 C 12.366 13.031,11.536 13.016,8.745 13.000 L 5.150 12.980 8.345 9.146 C 10.102 7.037,11.545 5.337,11.551 5.367 C 11.558 5.398,11.435 6.440,11.278 7.682 " stroke="none" fill-rule="evenodd" fill="black"></path></svg>