<svg width="24" height="24" viewBox="0 0 24 24" fill="none" xmlns="http://www.w3.org/2000/svg"><path d="M12.660 1.017 C 12.594 1.046,12.473 1.131,12.391 1.205 C 12.113 1.457,9.713 4.376,9.616 4.580 C 9.437 4.956,9.518 5.280,9.875 5.612 C 10.396 6.097,10.867 6.076,11.340 5.546 C 11.598 5.257,11.590 5.226,11.477 6.100 C 11.382 6.828,11.389 7.116,11.505 7.342 C 11.662 7.646,12.086 7.825,12.567 7.790 C 12.934 7.764,13.129 7.637,13.268 7.333 C 13.357 7.140,13.409 6.801,13.687 4.606 C 13.881 3.070,13.997 2.021,13.985 1.895 C 13.951 1.520,13.766 1.273,13.353 1.052 C 13.156 0.947,12.851 0.931,12.660 1.017 M2.626 2.045 C 2.420 2.154,2.146 2.433,2.038 2.644 C 1.924 2.868,1.924 3.132,2.040 3.363 C 2.101 3.486,2.819 4.232,4.386 5.803 L 6.644 8.066 4.780 10.303 C 3.754 11.533,2.855 12.648,2.782 12.780 C 2.434 13.408,2.524 14.087,3.017 14.554 C 3.503 15.013,3.358 14.998,7.443 14.999 L 10.865 15.000 10.431 18.450 C 9.956 22.218,9.949 22.319,10.138 22.604 C 10.275 22.812,10.588 22.962,10.943 22.990 C 11.163 23.008,11.227 22.996,11.417 22.903 C 11.623 22.803,11.785 22.618,13.849 20.140 L 16.060 17.484 18.260 19.678 C 19.783 21.196,20.515 21.899,20.637 21.960 C 20.990 22.137,21.354 22.048,21.701 21.701 C 22.047 21.355,22.136 20.990,21.961 20.637 C 21.839 20.392,3.616 2.165,3.372 2.044 C 3.152 1.934,2.834 1.935,2.626 2.045 M15.257 9.055 C 14.897 9.170,14.706 9.421,14.657 9.843 C 14.601 10.318,14.776 10.722,15.107 10.885 C 15.299 10.980,15.308 10.980,17.075 11.000 L 18.850 11.020 18.265 11.720 C 17.943 12.105,17.640 12.501,17.590 12.600 C 17.481 12.819,17.475 13.121,17.576 13.315 C 17.749 13.644,18.265 14.000,18.568 14.000 C 18.770 14.000,19.032 13.873,19.210 13.689 C 19.502 13.387,21.066 11.475,21.194 11.264 C 21.468 10.813,21.502 10.337,21.294 9.874 C 21.152 9.556,20.824 9.254,20.478 9.121 L 20.220 9.021 17.820 9.012 C 15.938 9.005,15.385 9.015,15.257 9.055 M9.960 12.990 C 9.080 12.996,7.638 12.996,6.755 12.990 L 5.150 12.980 6.605 11.232 L 8.060 9.484 9.810 11.232 L 11.560 12.980 9.960 12.990 M14.608 16.101 C 14.496 16.287,12.458 18.677,12.449 18.633 C 12.439 18.584,12.876 14.975,12.944 14.545 L 12.969 14.390 13.802 15.222 C 14.307 15.727,14.625 16.073,14.608 16.101 " stroke="none" fill-rule="evenodd" fill="black"></path></svg>