<svg width="24" height="24" viewBox="0 0 24 24" fill="none" xmlns="http://www.w3.org/2000/svg"><path d="M6.620 4.046 C 6.525 4.095,5.652 4.932,4.460 6.118 C 3.360 7.213,2.399 8.150,2.324 8.201 C 2.149 8.321,1.951 8.745,1.951 9.000 C 1.951 9.239,2.150 9.682,2.304 9.784 C 2.366 9.826,3.327 10.763,4.439 11.866 C 5.818 13.234,6.516 13.899,6.637 13.960 C 6.989 14.137,7.354 14.048,7.701 13.701 C 8.048 13.354,8.137 12.989,7.960 12.637 C 7.901 12.521,7.451 12.039,6.646 11.229 L 5.421 9.998 11.260 10.009 L 17.100 10.021 17.405 10.108 C 18.182 10.329,18.949 10.877,19.396 11.533 C 19.595 11.824,19.826 12.344,19.906 12.680 C 20.004 13.091,20.004 13.909,19.906 14.320 C 19.760 14.933,19.388 15.571,18.915 16.023 C 18.465 16.451,18.028 16.705,17.420 16.890 C 17.149 16.973,17.053 16.977,14.399 16.998 L 11.658 17.020 11.459 17.122 C 11.119 17.297,10.978 17.606,11.009 18.104 C 11.038 18.563,11.250 18.852,11.635 18.959 C 11.725 18.984,12.745 19.000,14.330 19.000 C 17.079 19.000,17.304 18.987,18.001 18.784 C 18.694 18.583,19.199 18.333,19.763 17.915 C 22.210 16.101,22.724 12.676,20.915 10.237 C 19.993 8.994,18.621 8.210,17.072 8.042 C 16.818 8.015,14.723 8.000,11.053 8.000 L 5.423 8.000 6.647 6.770 C 7.452 5.961,7.901 5.479,7.960 5.363 C 8.137 5.011,8.048 4.646,7.701 4.299 C 7.361 3.959,6.967 3.867,6.620 4.046 " stroke="none" fill-rule="evenodd" fill="black"></path></svg>