<svg width="24" height="24" viewBox="0 0 24 24" fill="none" xmlns="http://www.w3.org/2000/svg"><path d="M16.626 4.045 C 16.257 4.239,15.951 4.673,15.951 5.000 C 15.951 5.333,16.056 5.467,17.353 6.770 L 18.577 8.000 12.947 8.000 C 9.277 8.000,7.182 8.015,6.928 8.042 C 5.633 8.183,4.502 8.729,3.579 9.659 C 1.483 11.771,1.480 15.201,3.573 17.333 C 4.443 18.220,5.496 18.756,6.729 18.941 C 7.041 18.988,7.632 19.000,9.670 19.000 C 11.255 19.000,12.275 18.984,12.365 18.959 C 12.586 18.898,12.770 18.755,12.880 18.558 C 12.967 18.402,12.980 18.332,12.979 18.000 C 12.977 17.469,12.852 17.246,12.455 17.071 C 12.367 17.032,11.691 17.015,9.600 16.998 C 6.948 16.977,6.851 16.973,6.580 16.890 C 5.362 16.518,4.431 15.581,4.111 14.405 C 3.992 13.968,3.992 13.032,4.111 12.595 C 4.373 11.632,5.061 10.809,5.995 10.342 C 6.157 10.261,6.427 10.155,6.595 10.108 L 6.900 10.021 12.740 10.009 L 18.579 9.998 17.354 11.229 C 16.549 12.039,16.099 12.521,16.040 12.637 C 15.863 12.989,15.952 13.354,16.299 13.701 C 16.646 14.048,17.011 14.137,17.363 13.960 C 17.484 13.899,18.182 13.234,19.561 11.866 C 20.673 10.763,21.634 9.826,21.696 9.784 C 21.850 9.682,22.049 9.239,22.049 9.000 C 22.049 8.745,21.851 8.321,21.676 8.201 C 21.601 8.150,20.640 7.213,19.540 6.118 C 18.232 4.817,17.482 4.099,17.372 4.044 C 17.152 3.934,16.835 3.935,16.626 4.045 " stroke="none" fill-rule="evenodd" fill="black"></path></svg>