<svg version="1.1" xmlns="http://www.w3.org/2000/svg" width="24" height="24" viewBox="0 0 24 24"><path d="M11.503 2.042 C 10.534 2.205,9.600 2.948,9.233 3.850 C 8.680 5.210,9.157 6.714,10.396 7.514 C 10.533 7.603,10.726 7.706,10.826 7.744 L 11.006 7.813 10.993 8.758 L 10.980 9.702 10.849 9.968 C 10.684 10.303,10.369 10.601,10.050 10.722 C 9.899 10.779,9.669 10.820,9.380 10.841 C 8.813 10.882,8.468 10.964,8.057 11.157 C 7.642 11.351,7.409 11.510,7.085 11.818 C 6.540 12.336,6.176 13.021,6.042 13.777 C 6.019 13.908,6.000 14.505,6.000 15.103 L 6.000 16.192 5.870 16.237 C 5.630 16.321,5.200 16.603,4.939 16.847 C 4.036 17.691,3.760 18.986,4.234 20.151 C 4.375 20.497,4.548 20.755,4.856 21.074 C 5.703 21.953,6.926 22.228,8.075 21.798 C 8.789 21.531,9.478 20.859,9.767 20.150 C 10.240 18.987,9.963 17.691,9.061 16.847 C 8.799 16.602,8.369 16.321,8.127 16.237 L 7.994 16.190 8.007 15.085 C 8.019 14.031,8.024 13.971,8.112 13.780 C 8.250 13.478,8.393 13.292,8.596 13.145 C 8.879 12.941,9.096 12.874,9.594 12.836 C 10.499 12.767,11.158 12.508,11.789 11.973 L 11.998 11.795 12.239 11.996 C 12.873 12.523,13.696 12.834,14.471 12.839 C 14.942 12.841,15.458 13.091,15.692 13.429 C 15.749 13.512,15.838 13.670,15.888 13.780 C 15.976 13.971,15.981 14.031,15.993 15.085 L 16.006 16.190 15.873 16.237 C 15.631 16.321,15.201 16.602,14.939 16.847 C 14.036 17.691,13.760 18.986,14.234 20.151 C 14.375 20.497,14.548 20.755,14.856 21.074 C 15.703 21.953,16.926 22.228,18.075 21.798 C 18.789 21.531,19.478 20.859,19.767 20.150 C 20.240 18.987,19.963 17.691,19.061 16.847 C 18.800 16.603,18.370 16.321,18.130 16.237 L 18.000 16.192 18.000 15.103 C 18.000 14.505,17.981 13.908,17.958 13.777 C 17.824 13.021,17.460 12.336,16.915 11.818 C 16.591 11.510,16.358 11.351,15.943 11.157 C 15.532 10.964,15.187 10.882,14.620 10.841 C 14.331 10.820,14.101 10.779,13.950 10.722 C 13.631 10.601,13.316 10.303,13.151 9.968 L 13.020 9.702 13.007 8.758 L 12.994 7.813 13.174 7.744 C 13.274 7.706,13.467 7.603,13.604 7.514 C 14.843 6.714,15.320 5.210,14.767 3.850 C 14.259 2.603,12.842 1.818,11.503 2.042 M12.340 4.066 C 12.701 4.189,13.000 4.604,13.000 4.980 C 13.000 5.232,12.881 5.521,12.705 5.697 C 12.310 6.092,11.692 6.094,11.299 5.701 C 10.907 5.309,10.908 4.690,11.300 4.298 C 11.577 4.020,11.957 3.936,12.340 4.066 M7.340 18.066 C 7.701 18.189,8.000 18.604,8.000 18.980 C 8.000 19.232,7.881 19.521,7.705 19.697 C 7.310 20.092,6.692 20.094,6.299 19.701 C 5.907 19.309,5.908 18.690,6.300 18.298 C 6.577 18.020,6.957 17.936,7.340 18.066 M17.340 18.066 C 17.701 18.189,18.000 18.604,18.000 18.980 C 18.000 19.232,17.881 19.521,17.705 19.697 C 17.310 20.092,16.692 20.094,16.299 19.701 C 15.907 19.309,15.908 18.690,16.300 18.298 C 16.577 18.020,16.957 17.936,17.340 18.066 " stroke="none" fill-rule="evenodd" fill="black"></path></svg>