<svg width="24" height="24" viewBox="0 0 24 24" fill="none" xmlns="http://www.w3.org/2000/svg"><path d="M3.749 2.044 C 2.963 2.122,2.401 2.372,1.890 2.870 C 1.508 3.243,1.265 3.675,1.108 4.260 L 1.022 4.580 1.009 11.100 C 0.994 18.398,0.996 18.491,1.245 19.320 C 1.575 20.421,2.578 21.423,3.680 21.755 C 4.485 21.998,4.567 22.000,12.000 22.000 C 19.433 22.000,19.515 21.998,20.320 21.755 C 21.422 21.423,22.423 20.422,22.755 19.320 C 22.984 18.561,23.000 18.212,23.000 14.000 C 23.000 9.788,22.984 9.439,22.755 8.680 C 22.424 7.581,21.464 6.621,20.320 6.246 C 19.708 6.045,19.457 6.030,16.438 6.011 L 13.616 5.992 13.064 4.886 C 12.760 4.278,12.428 3.638,12.326 3.465 C 11.930 2.794,11.244 2.288,10.440 2.074 C 10.221 2.016,4.299 1.989,3.749 2.044 M10.164 4.086 C 10.425 4.204,10.569 4.401,10.970 5.187 C 11.185 5.607,11.360 5.962,11.360 5.975 C 11.360 5.989,9.479 6.000,7.180 6.000 L 3.000 6.000 3.000 5.630 C 3.001 5.024,3.063 4.610,3.179 4.434 C 3.333 4.202,3.547 4.080,3.866 4.041 C 4.017 4.024,5.463 4.011,7.080 4.014 C 9.711 4.019,10.035 4.027,10.164 4.086 M19.492 8.091 C 19.894 8.188,20.110 8.309,20.400 8.600 C 20.696 8.895,20.814 9.109,20.912 9.528 C 20.974 9.794,20.980 10.199,20.980 14.000 C 20.980 18.557,20.984 18.476,20.752 18.952 C 20.626 19.211,20.190 19.638,19.918 19.768 C 19.463 19.987,19.707 19.980,12.000 19.980 C 4.304 19.980,4.541 19.986,4.082 19.771 C 3.812 19.643,3.377 19.217,3.248 18.952 C 3.020 18.483,3.027 18.665,3.011 13.109 L 2.996 7.997 11.108 8.011 C 18.478 8.024,19.245 8.031,19.492 8.091 M10.900 9.045 C 9.431 9.229,8.051 10.245,7.421 11.609 C 6.787 12.981,6.883 14.574,7.677 15.864 C 8.151 16.634,8.928 17.299,9.754 17.643 C 10.998 18.161,12.439 18.099,13.595 17.477 L 13.890 17.318 14.456 17.872 C 15.086 18.489,15.250 18.587,15.584 18.550 C 15.995 18.503,16.511 17.978,16.550 17.565 C 16.581 17.249,16.464 17.060,15.851 16.436 L 15.317 15.891 15.476 15.596 C 16.048 14.534,16.151 13.242,15.759 12.071 C 15.077 10.034,13.056 8.776,10.900 9.045 M12.020 11.060 C 12.741 11.211,13.395 11.713,13.715 12.362 C 14.087 13.118,14.090 13.878,13.723 14.620 C 13.439 15.195,12.932 15.646,12.320 15.868 C 12.052 15.965,11.965 15.976,11.500 15.976 C 11.035 15.976,10.948 15.965,10.680 15.868 C 10.068 15.646,9.561 15.195,9.277 14.620 C 8.347 12.740,9.972 10.631,12.020 11.060 " stroke="none" fill-rule="evenodd" fill="black"></path></svg>