<svg width="24" height="24" viewBox="0 0 24 24" fill="none" xmlns="http://www.w3.org/2000/svg"><path d="M3.749 2.044 C 2.963 2.122,2.401 2.372,1.890 2.870 C 1.508 3.243,1.265 3.675,1.108 4.260 L 1.022 4.580 1.009 11.100 C 0.994 18.398,0.996 18.491,1.245 19.320 C 1.575 20.421,2.578 21.423,3.680 21.755 C 4.485 21.998,4.567 22.000,12.000 22.000 C 19.433 22.000,19.515 21.998,20.320 21.755 C 21.422 21.423,22.423 20.422,22.755 19.320 C 22.984 18.561,23.000 18.212,23.000 14.000 C 23.000 9.788,22.984 9.439,22.755 8.680 C 22.424 7.581,21.464 6.621,20.320 6.246 C 19.708 6.045,19.457 6.030,16.438 6.011 L 13.616 5.992 13.064 4.886 C 12.760 4.278,12.428 3.638,12.326 3.465 C 11.930 2.794,11.244 2.288,10.440 2.074 C 10.221 2.016,4.299 1.989,3.749 2.044 M10.164 4.086 C 10.425 4.204,10.569 4.401,10.970 5.187 C 11.185 5.607,11.360 5.962,11.360 5.975 C 11.360 5.989,9.479 6.000,7.180 6.000 L 3.000 6.000 3.000 5.630 C 3.001 5.024,3.063 4.610,3.179 4.434 C 3.333 4.202,3.547 4.080,3.866 4.041 C 4.017 4.024,5.463 4.011,7.080 4.014 C 9.711 4.019,10.035 4.027,10.164 4.086 M19.492 8.091 C 19.894 8.188,20.110 8.309,20.400 8.600 C 20.696 8.895,20.814 9.109,20.912 9.528 C 20.974 9.794,20.980 10.199,20.980 14.000 C 20.980 18.557,20.984 18.476,20.752 18.952 C 20.626 19.211,20.190 19.638,19.918 19.768 C 19.463 19.987,19.707 19.980,12.000 19.980 C 4.304 19.980,4.541 19.986,4.082 19.771 C 3.812 19.643,3.377 19.217,3.248 18.952 C 3.020 18.483,3.027 18.665,3.011 13.109 L 2.996 7.997 11.108 8.011 C 18.478 8.024,19.245 8.031,19.492 8.091 M11.533 9.282 C 10.756 9.378,9.910 9.861,9.418 10.490 C 8.880 11.177,8.691 11.942,8.964 12.325 C 9.210 12.672,9.963 12.885,10.308 12.707 C 10.486 12.614,10.670 12.382,10.788 12.100 C 10.929 11.764,11.112 11.557,11.406 11.400 C 11.630 11.281,11.694 11.265,11.964 11.265 C 12.215 11.265,12.309 11.285,12.493 11.375 C 13.088 11.666,13.378 12.384,13.087 12.842 C 12.882 13.164,12.469 13.449,11.752 13.764 C 11.112 14.044,10.960 14.214,10.960 14.652 C 10.960 15.072,11.196 15.535,11.486 15.683 C 11.902 15.895,12.692 15.651,13.644 15.016 C 14.797 14.246,15.312 13.291,15.196 12.141 C 15.104 11.234,14.618 10.406,13.856 9.857 C 13.215 9.396,12.349 9.181,11.533 9.282 M11.640 16.797 C 11.180 16.937,10.970 17.285,11.009 17.838 C 11.048 18.377,11.279 18.646,11.777 18.731 C 12.268 18.815,12.713 18.647,12.886 18.310 C 12.992 18.104,13.031 17.621,12.962 17.368 C 12.895 17.118,12.676 16.894,12.428 16.820 C 12.216 16.757,11.811 16.745,11.640 16.797 " stroke="none" fill-rule="evenodd" fill="black"></path></svg>