<svg width="24" height="24" viewBox="0 0 24 24" fill="none" xmlns="http://www.w3.org/2000/svg"><path d="M3.749 2.044 C 2.963 2.122,2.401 2.372,1.890 2.870 C 1.508 3.243,1.265 3.675,1.108 4.260 L 1.022 4.580 1.009 11.100 C 0.994 18.398,0.996 18.491,1.245 19.320 C 1.575 20.421,2.578 21.423,3.680 21.755 C 4.485 21.998,4.567 22.000,12.000 22.000 C 19.433 22.000,19.515 21.998,20.320 21.755 C 21.422 21.423,22.423 20.422,22.755 19.320 C 22.984 18.561,23.000 18.212,23.000 14.000 C 23.000 9.788,22.984 9.439,22.755 8.680 C 22.424 7.581,21.464 6.621,20.320 6.246 C 19.708 6.045,19.457 6.030,16.438 6.011 L 13.616 5.992 13.064 4.886 C 12.760 4.278,12.428 3.638,12.326 3.465 C 11.930 2.794,11.244 2.288,10.440 2.074 C 10.221 2.016,4.299 1.989,3.749 2.044 M10.164 4.086 C 10.425 4.204,10.569 4.401,10.970 5.187 C 11.185 5.607,11.360 5.962,11.360 5.975 C 11.360 5.989,9.479 6.000,7.180 6.000 L 3.000 6.000 3.000 5.630 C 3.001 5.024,3.063 4.610,3.179 4.434 C 3.333 4.202,3.547 4.080,3.866 4.041 C 4.017 4.024,5.463 4.011,7.080 4.014 C 9.711 4.019,10.035 4.027,10.164 4.086 M19.492 8.091 C 19.894 8.188,20.110 8.309,20.400 8.600 C 20.696 8.895,20.814 9.109,20.912 9.528 C 20.974 9.794,20.980 10.199,20.980 14.000 C 20.980 18.557,20.984 18.476,20.752 18.952 C 20.626 19.211,20.190 19.638,19.918 19.768 C 19.463 19.987,19.707 19.980,12.000 19.980 C 4.304 19.980,4.541 19.986,4.082 19.771 C 3.812 19.643,3.377 19.217,3.248 18.952 C 3.020 18.483,3.027 18.665,3.011 13.109 L 2.996 7.997 11.108 8.011 C 18.478 8.024,19.245 8.031,19.492 8.091 M11.614 10.057 C 11.377 10.131,11.212 10.261,11.109 10.453 C 11.021 10.618,11.020 10.640,11.009 12.596 L 10.997 14.572 10.269 13.852 C 9.856 13.443,9.467 13.094,9.372 13.045 C 9.021 12.868,8.640 12.958,8.299 13.299 C 7.952 13.646,7.863 14.011,8.040 14.363 C 8.099 14.480,8.635 15.051,9.635 16.062 C 10.463 16.899,11.174 17.634,11.216 17.697 C 11.318 17.850,11.762 18.049,12.000 18.049 C 12.238 18.049,12.682 17.850,12.784 17.697 C 12.826 17.634,13.537 16.899,14.365 16.062 C 15.365 15.051,15.901 14.480,15.960 14.363 C 16.137 14.011,16.048 13.646,15.701 13.299 C 15.360 12.958,14.979 12.868,14.628 13.045 C 14.533 13.094,14.144 13.443,13.732 13.851 L 13.004 14.572 12.992 12.596 C 12.980 10.640,12.979 10.618,12.891 10.453 C 12.842 10.362,12.746 10.247,12.678 10.199 C 12.414 10.010,11.957 9.950,11.614 10.057 " stroke="none" fill-rule="evenodd" fill="black"></path></svg>