<svg width="24" height="24" viewBox="0 0 24 24" fill="none" xmlns="http://www.w3.org/2000/svg"><path d="M3.749 2.044 C 2.963 2.122,2.401 2.372,1.890 2.870 C 1.508 3.243,1.265 3.675,1.108 4.260 L 1.022 4.580 1.009 11.100 C 0.994 18.398,0.996 18.491,1.245 19.320 C 1.575 20.421,2.578 21.423,3.680 21.755 C 4.485 21.998,4.567 22.000,12.000 22.000 C 19.433 22.000,19.515 21.998,20.320 21.755 C 21.422 21.423,22.423 20.422,22.755 19.320 C 22.984 18.561,23.000 18.212,23.000 14.000 C 23.000 9.788,22.984 9.439,22.755 8.680 C 22.424 7.581,21.464 6.621,20.320 6.246 C 19.708 6.045,19.457 6.030,16.438 6.011 L 13.616 5.992 13.064 4.886 C 12.760 4.278,12.428 3.638,12.326 3.465 C 11.930 2.794,11.244 2.288,10.440 2.074 C 10.221 2.016,4.299 1.989,3.749 2.044 M10.164 4.086 C 10.425 4.204,10.569 4.401,10.970 5.187 C 11.185 5.607,11.360 5.962,11.360 5.975 C 11.360 5.989,9.479 6.000,7.180 6.000 L 3.000 6.000 3.000 5.630 C 3.001 5.024,3.063 4.610,3.179 4.434 C 3.333 4.202,3.547 4.080,3.866 4.041 C 4.017 4.024,5.463 4.011,7.080 4.014 C 9.711 4.019,10.035 4.027,10.164 4.086 M19.492 8.091 C 19.894 8.188,20.110 8.309,20.400 8.600 C 20.696 8.895,20.814 9.109,20.912 9.528 C 20.974 9.794,20.980 10.199,20.980 14.000 C 20.980 18.557,20.984 18.476,20.752 18.952 C 20.626 19.211,20.190 19.638,19.918 19.768 C 19.463 19.987,19.707 19.980,12.000 19.980 C 4.304 19.980,4.541 19.986,4.082 19.771 C 3.812 19.643,3.377 19.217,3.248 18.952 C 3.020 18.483,3.027 18.665,3.011 13.109 L 2.996 7.997 11.108 8.011 C 18.478 8.024,19.245 8.031,19.492 8.091 M9.680 10.523 C 9.547 10.583,9.128 10.974,8.066 12.032 C 6.562 13.529,6.440 13.677,6.441 14.000 C 6.442 14.316,6.546 14.443,8.032 15.934 C 9.528 17.436,9.677 17.559,10.000 17.559 C 10.213 17.559,10.519 17.395,10.732 17.165 C 10.956 16.925,11.047 16.733,11.047 16.500 C 11.047 16.177,10.963 16.067,9.909 15.010 L 8.902 14.000 9.909 12.990 C 10.597 12.300,10.937 11.930,10.981 11.823 C 11.129 11.469,11.023 11.104,10.678 10.782 C 10.320 10.447,10.020 10.370,9.680 10.523 M13.691 10.519 C 13.462 10.622,13.142 10.929,13.038 11.143 C 12.937 11.353,12.929 11.609,13.019 11.823 C 13.063 11.930,13.403 12.300,14.091 12.990 L 15.098 14.000 14.091 15.010 C 13.037 16.067,12.953 16.177,12.953 16.500 C 12.953 16.733,13.044 16.925,13.268 17.165 C 13.481 17.395,13.787 17.559,14.000 17.559 C 14.323 17.559,14.472 17.436,15.968 15.934 C 17.454 14.443,17.558 14.316,17.559 14.000 C 17.560 13.677,17.438 13.529,15.934 12.032 C 14.443 10.547,14.315 10.442,14.000 10.442 C 13.923 10.442,13.784 10.476,13.691 10.519 " stroke="none" fill-rule="evenodd" fill="black"></path></svg>