<svg width="24" height="24" viewBox="0 0 24 24" fill="none" xmlns="http://www.w3.org/2000/svg"><path d="M4.545 0.579 C 4.204 0.700,4.000 1.045,4.000 1.497 C 4.001 1.913,3.978 1.887,6.876 4.780 C 8.352 6.254,9.560 7.473,9.560 7.490 C 9.560 7.506,8.476 7.520,7.150 7.520 C 5.592 7.520,4.687 7.535,4.589 7.562 C 4.506 7.585,4.373 7.662,4.293 7.732 C 4.005 7.985,4.023 7.737,3.995 11.800 C 3.981 13.813,3.967 15.505,3.964 15.560 C 3.954 15.759,4.121 16.113,4.290 16.250 C 4.378 16.321,6.036 17.958,7.975 19.886 C 11.822 23.711,11.578 23.497,12.064 23.490 C 12.353 23.486,12.572 23.403,12.751 23.229 C 13.003 22.985,13.000 23.033,13.000 19.614 L 13.000 16.523 16.150 16.512 C 19.651 16.499,19.457 16.514,19.751 16.229 C 19.993 15.995,20.072 15.465,19.918 15.120 C 19.855 14.981,19.213 14.316,17.131 12.232 L 14.424 9.524 16.862 9.512 C 19.567 9.499,19.462 9.509,19.751 9.229 C 20.007 8.982,20.000 9.094,20.000 5.000 C 20.000 0.842,20.011 1.007,19.723 0.747 C 19.636 0.669,19.497 0.586,19.413 0.563 C 19.308 0.534,16.994 0.521,11.980 0.522 C 5.891 0.523,4.675 0.533,4.545 0.579 M18.000 5.020 L 18.000 7.520 15.211 7.520 L 12.421 7.520 9.921 5.020 L 7.420 2.520 12.710 2.520 L 18.000 2.520 18.000 5.020 M14.090 11.990 C 15.448 13.348,16.560 14.473,16.560 14.490 C 16.560 14.506,14.184 14.520,11.280 14.520 L 6.000 14.520 6.000 12.020 L 6.000 9.520 8.810 9.520 L 11.620 9.520 14.090 11.990 M11.000 18.300 C 11.000 19.279,10.995 20.080,10.990 20.080 C 10.984 20.080,10.179 19.279,9.200 18.300 L 7.420 16.520 9.210 16.520 L 11.000 16.520 11.000 18.300 " stroke="none" fill-rule="evenodd" fill="black"></path></svg>