<svg version="1.1" xmlns="http://www.w3.org/2000/svg" width="32" height="32" viewBox="0 0 32 32"><path d="M13.813 0.088 C 13.813 0.139,13.726 0.162,13.507 0.166 C 13.030 0.174,12.986 0.182,13.000 0.253 C 13.012 0.316,12.694 0.352,12.406 0.322 C 12.351 0.316,12.288 0.338,12.268 0.372 C 12.247 0.405,12.105 0.434,11.951 0.435 C 11.735 0.436,11.679 0.454,11.701 0.512 C 11.723 0.568,11.680 0.587,11.532 0.588 C 11.423 0.589,11.287 0.625,11.230 0.668 C 11.173 0.711,11.071 0.747,11.003 0.747 C 10.935 0.747,10.880 0.768,10.880 0.794 C 10.880 0.820,10.802 0.854,10.707 0.870 C 10.331 0.932,10.027 1.035,10.027 1.101 C 10.027 1.141,9.993 1.157,9.945 1.139 C 9.900 1.121,9.815 1.150,9.757 1.202 C 9.699 1.255,9.579 1.298,9.490 1.298 C 9.378 1.298,9.337 1.319,9.356 1.369 C 9.382 1.437,9.327 1.462,9.188 1.444 C 9.152 1.440,9.066 1.473,8.997 1.518 C 8.928 1.563,8.855 1.584,8.836 1.565 C 8.816 1.545,8.800 1.569,8.800 1.618 C 8.800 1.707,8.749 1.727,8.573 1.709 C 8.520 1.704,8.480 1.736,8.480 1.783 C 8.480 1.838,8.431 1.867,8.341 1.867 C 8.239 1.867,8.210 1.888,8.233 1.947 C 8.252 1.996,8.232 2.027,8.183 2.027 C 8.139 2.027,8.001 2.080,7.878 2.146 C 7.754 2.211,7.617 2.265,7.573 2.266 C 7.529 2.266,7.495 2.291,7.497 2.320 C 7.501 2.382,7.288 2.560,7.209 2.560 C 7.179 2.560,7.081 2.622,6.991 2.698 C 6.901 2.774,6.785 2.843,6.733 2.852 C 6.682 2.860,6.646 2.894,6.653 2.927 C 6.661 2.960,6.631 2.987,6.587 2.987 C 6.543 2.987,6.507 3.023,6.507 3.067 C 6.507 3.117,6.456 3.147,6.370 3.147 C 6.250 3.147,6.080 3.251,6.080 3.324 C 6.080 3.389,5.711 3.708,5.657 3.690 C 5.590 3.668,5.245 4.001,5.267 4.067 C 5.274 4.089,5.252 4.107,5.219 4.107 C 5.139 4.107,4.107 5.139,4.107 5.219 C 4.107 5.252,4.069 5.280,4.024 5.280 C 3.978 5.280,3.954 5.301,3.970 5.328 C 3.986 5.354,3.941 5.390,3.870 5.408 C 3.753 5.437,3.634 5.625,3.695 5.686 C 3.724 5.715,3.413 6.028,3.272 6.112 C 3.218 6.144,3.166 6.236,3.156 6.316 C 3.139 6.463,2.978 6.667,2.880 6.667 C 2.851 6.667,2.827 6.698,2.827 6.735 C 2.827 6.842,2.631 7.200,2.593 7.162 C 2.575 7.144,2.560 7.170,2.560 7.219 C 2.560 7.269,2.524 7.324,2.480 7.341 C 2.436 7.358,2.400 7.405,2.400 7.446 C 2.400 7.487,2.365 7.520,2.322 7.520 C 2.277 7.520,2.255 7.552,2.271 7.593 C 2.287 7.633,2.263 7.703,2.219 7.747 C 2.174 7.792,2.108 7.924,2.071 8.041 C 2.029 8.177,1.979 8.245,1.936 8.228 C 1.890 8.211,1.867 8.249,1.867 8.341 C 1.867 8.431,1.838 8.480,1.783 8.480 C 1.736 8.480,1.704 8.520,1.709 8.573 C 1.727 8.749,1.707 8.800,1.618 8.800 C 1.569 8.800,1.545 8.816,1.565 8.836 C 1.584 8.855,1.562 8.929,1.516 9.000 C 1.470 9.071,1.445 9.162,1.461 9.203 C 1.477 9.245,1.442 9.304,1.382 9.336 C 1.313 9.373,1.285 9.427,1.305 9.488 C 1.322 9.542,1.289 9.642,1.228 9.720 C 1.168 9.795,1.120 9.892,1.120 9.936 C 1.120 9.980,1.082 10.030,1.037 10.047 C 0.991 10.065,0.968 10.104,0.987 10.134 C 1.024 10.194,0.892 10.704,0.770 10.968 C 0.728 11.060,0.693 11.174,0.693 11.221 C 0.693 11.268,0.669 11.307,0.640 11.307 C 0.611 11.307,0.587 11.403,0.587 11.520 C 0.587 11.668,0.564 11.733,0.511 11.733 C 0.457 11.733,0.436 11.803,0.436 11.985 C 0.436 12.124,0.410 12.246,0.378 12.256 C 0.344 12.268,0.320 12.427,0.320 12.644 C 0.320 12.911,0.302 13.010,0.253 13.000 C 0.182 12.986,0.174 13.045,0.165 13.613 C 0.161 13.889,0.142 13.973,0.083 13.973 C 0.017 13.973,0.006 14.270,0.005 16.000 C 0.003 17.725,0.015 18.027,0.080 18.027 C 0.139 18.027,0.159 18.134,0.171 18.520 C 0.183 18.880,0.205 19.010,0.253 19.000 C 0.302 18.990,0.320 19.090,0.320 19.360 C 0.320 19.565,0.343 19.733,0.371 19.733 C 0.398 19.733,0.428 19.859,0.437 20.013 C 0.448 20.202,0.475 20.289,0.520 20.280 C 0.564 20.271,0.587 20.338,0.587 20.480 C 0.587 20.597,0.608 20.693,0.633 20.693 C 0.659 20.693,0.695 20.789,0.714 20.907 C 0.733 21.024,0.772 21.120,0.801 21.120 C 0.830 21.120,0.853 21.170,0.853 21.230 C 0.853 21.291,0.876 21.383,0.904 21.436 C 0.932 21.488,0.965 21.623,0.976 21.736 C 0.988 21.849,1.025 21.951,1.059 21.962 C 1.092 21.973,1.120 22.018,1.120 22.063 C 1.120 22.107,1.168 22.205,1.228 22.280 C 1.291 22.361,1.322 22.457,1.304 22.515 C 1.284 22.577,1.304 22.626,1.356 22.646 C 1.402 22.664,1.440 22.724,1.440 22.780 C 1.440 22.836,1.462 22.923,1.489 22.974 C 1.517 23.025,1.552 23.110,1.569 23.163 C 1.586 23.217,1.623 23.245,1.653 23.227 C 1.708 23.193,1.726 23.259,1.709 23.427 C 1.704 23.480,1.736 23.520,1.783 23.520 C 1.838 23.520,1.867 23.569,1.867 23.659 C 1.867 23.752,1.890 23.789,1.937 23.771 C 1.983 23.754,2.030 23.824,2.075 23.976 C 2.113 24.104,2.169 24.216,2.200 24.227 C 2.231 24.237,2.262 24.304,2.268 24.376 C 2.274 24.448,2.307 24.501,2.340 24.493 C 2.373 24.486,2.400 24.517,2.400 24.562 C 2.400 24.607,2.436 24.657,2.480 24.674 C 2.524 24.691,2.560 24.742,2.560 24.788 C 2.560 24.834,2.575 24.856,2.594 24.837 C 2.626 24.806,2.771 25.070,2.847 25.297 C 2.865 25.350,2.903 25.378,2.933 25.360 C 2.962 25.342,2.987 25.362,2.987 25.404 C 2.987 25.447,3.021 25.495,3.063 25.511 C 3.105 25.527,3.147 25.605,3.156 25.685 C 3.166 25.764,3.218 25.856,3.272 25.888 C 3.448 25.993,3.711 26.280,3.690 26.344 C 3.664 26.422,3.833 26.613,3.928 26.613 C 3.968 26.613,3.994 26.643,3.987 26.680 C 3.979 26.717,4.003 26.741,4.040 26.733 C 4.077 26.726,4.107 26.757,4.107 26.802 C 4.107 26.847,4.143 26.897,4.187 26.914 C 4.231 26.931,4.267 26.965,4.267 26.989 C 4.267 27.062,5.134 27.893,5.210 27.893 C 5.248 27.893,5.274 27.911,5.267 27.933 C 5.239 28.019,5.571 28.326,5.665 28.302 C 5.717 28.288,5.761 28.292,5.762 28.312 C 5.766 28.407,6.247 28.853,6.345 28.853 C 6.407 28.853,6.470 28.889,6.487 28.933 C 6.504 28.977,6.552 29.013,6.592 29.013 C 6.633 29.013,6.661 29.031,6.653 29.053 C 6.646 29.075,6.653 29.093,6.668 29.093 C 6.684 29.093,6.802 29.171,6.932 29.267 C 7.062 29.362,7.196 29.440,7.231 29.440 C 7.267 29.440,7.309 29.476,7.326 29.520 C 7.343 29.564,7.393 29.600,7.438 29.600 C 7.483 29.600,7.514 29.630,7.507 29.667 C 7.499 29.703,7.526 29.726,7.567 29.718 C 7.607 29.709,7.679 29.738,7.727 29.781 C 7.821 29.866,8.109 29.996,8.173 29.982 C 8.195 29.977,8.213 30.009,8.213 30.053 C 8.213 30.103,8.264 30.133,8.347 30.133 C 8.432 30.133,8.480 30.163,8.480 30.217 C 8.480 30.264,8.520 30.296,8.573 30.291 C 8.747 30.273,8.800 30.293,8.800 30.376 C 8.800 30.422,8.820 30.447,8.845 30.432 C 8.870 30.416,8.936 30.438,8.992 30.480 C 9.048 30.522,9.145 30.557,9.209 30.558 C 9.272 30.559,9.334 30.587,9.345 30.621 C 9.356 30.655,9.433 30.689,9.515 30.698 C 9.597 30.707,9.706 30.751,9.757 30.797 C 9.807 30.843,9.878 30.880,9.915 30.880 C 9.951 30.880,10.017 30.916,10.061 30.960 C 10.105 31.004,10.198 31.040,10.267 31.040 C 10.337 31.040,10.409 31.064,10.427 31.093 C 10.445 31.123,10.516 31.147,10.585 31.147 C 10.655 31.147,10.719 31.172,10.730 31.202 C 10.740 31.233,10.853 31.269,10.982 31.281 C 11.111 31.294,11.260 31.344,11.313 31.392 C 11.370 31.444,11.463 31.470,11.542 31.454 C 11.623 31.439,11.685 31.457,11.702 31.501 C 11.717 31.540,11.784 31.574,11.851 31.575 C 11.919 31.576,12.039 31.579,12.120 31.581 C 12.201 31.583,12.267 31.608,12.267 31.636 C 12.267 31.664,12.321 31.683,12.387 31.678 C 12.721 31.651,13.013 31.684,13.000 31.747 C 12.991 31.794,13.113 31.822,13.413 31.844 C 13.648 31.860,13.816 31.879,13.787 31.884 C 13.757 31.890,13.769 31.917,13.812 31.945 C 13.856 31.973,14.779 31.995,15.958 31.996 C 17.744 31.997,18.027 31.986,18.027 31.918 C 18.027 31.858,18.104 31.839,18.360 31.835 C 18.940 31.827,19.014 31.816,19.000 31.747 C 18.991 31.703,19.057 31.678,19.187 31.676 C 19.297 31.673,19.435 31.665,19.493 31.657 C 19.552 31.650,19.752 31.625,19.937 31.603 C 20.146 31.578,20.285 31.534,20.303 31.488 C 20.319 31.445,20.406 31.413,20.508 31.413 C 20.605 31.413,20.692 31.390,20.702 31.361 C 20.712 31.332,20.800 31.300,20.898 31.289 C 20.997 31.278,21.094 31.242,21.115 31.209 C 21.135 31.175,21.224 31.140,21.312 31.131 C 21.400 31.121,21.502 31.094,21.539 31.071 C 21.577 31.048,21.690 31.027,21.790 31.024 C 21.902 31.021,21.973 30.992,21.973 30.949 C 21.973 30.911,22.018 30.880,22.073 30.880 C 22.129 30.880,22.203 30.844,22.240 30.800 C 22.277 30.756,22.351 30.720,22.407 30.720 C 22.462 30.720,22.554 30.673,22.612 30.615 C 22.671 30.556,22.754 30.523,22.799 30.541 C 22.845 30.558,22.920 30.540,22.968 30.500 C 23.016 30.461,23.093 30.428,23.141 30.427 C 23.188 30.427,23.221 30.397,23.213 30.360 C 23.200 30.292,23.258 30.273,23.427 30.291 C 23.480 30.296,23.520 30.264,23.520 30.217 C 23.520 30.163,23.568 30.133,23.653 30.133 C 23.736 30.133,23.787 30.103,23.787 30.053 C 23.787 30.009,23.805 29.977,23.827 29.981 C 23.916 29.998,24.207 29.854,24.236 29.777 C 24.254 29.730,24.302 29.709,24.350 29.727 C 24.400 29.747,24.496 29.693,24.601 29.586 C 24.694 29.491,24.788 29.419,24.809 29.426 C 24.831 29.433,24.924 29.370,25.016 29.285 C 25.129 29.182,25.219 29.142,25.294 29.162 C 25.381 29.184,25.397 29.171,25.371 29.102 C 25.352 29.053,25.361 29.013,25.391 29.013 C 25.421 29.013,25.503 28.951,25.574 28.874 C 25.656 28.785,25.736 28.746,25.790 28.767 C 25.848 28.790,25.886 28.766,25.904 28.694 C 25.920 28.635,25.950 28.587,25.971 28.587 C 25.993 28.587,26.103 28.497,26.215 28.388 C 26.328 28.278,26.449 28.188,26.485 28.188 C 26.520 28.187,26.611 28.121,26.685 28.040 C 26.760 27.959,26.848 27.893,26.881 27.893 C 26.913 27.893,26.925 27.869,26.906 27.840 C 26.888 27.810,26.913 27.771,26.961 27.752 C 27.067 27.712,27.733 27.045,27.733 26.980 C 27.733 26.954,27.769 26.933,27.813 26.933 C 27.857 26.933,27.893 26.908,27.893 26.877 C 27.893 26.846,27.970 26.751,28.064 26.665 C 28.157 26.580,28.219 26.494,28.200 26.476 C 28.182 26.457,28.261 26.347,28.377 26.230 C 28.492 26.114,28.587 25.995,28.587 25.966 C 28.587 25.937,28.609 25.928,28.637 25.945 C 28.690 25.978,28.815 25.793,28.771 25.749 C 28.757 25.735,28.806 25.658,28.879 25.579 C 28.953 25.500,29.013 25.412,29.013 25.384 C 29.013 25.356,29.043 25.339,29.080 25.347 C 29.117 25.354,29.147 25.318,29.147 25.268 C 29.148 25.217,29.214 25.100,29.294 25.009 C 29.374 24.918,29.427 24.822,29.412 24.797 C 29.396 24.772,29.432 24.726,29.492 24.694 C 29.551 24.662,29.600 24.601,29.600 24.558 C 29.600 24.515,29.630 24.486,29.667 24.493 C 29.703 24.501,29.726 24.474,29.718 24.433 C 29.709 24.393,29.736 24.321,29.778 24.273 C 29.819 24.226,29.885 24.097,29.924 23.987 C 29.963 23.877,30.026 23.787,30.064 23.787 C 30.102 23.787,30.133 23.727,30.133 23.653 C 30.133 23.570,30.164 23.520,30.213 23.520 C 30.267 23.520,30.293 23.467,30.293 23.360 C 30.293 23.260,30.319 23.205,30.360 23.213 C 30.400 23.221,30.426 23.170,30.425 23.084 C 30.424 23.005,30.448 22.945,30.478 22.951 C 30.509 22.956,30.534 22.905,30.535 22.837 C 30.535 22.770,30.571 22.693,30.614 22.666 C 30.658 22.639,30.698 22.554,30.704 22.476 C 30.710 22.398,30.755 22.290,30.804 22.236 C 30.853 22.182,30.879 22.102,30.863 22.059 C 30.845 22.012,30.867 21.973,30.917 21.963 C 30.965 21.954,31.011 21.877,31.024 21.787 C 31.075 21.414,31.151 21.123,31.207 21.089 C 31.232 21.073,31.253 21.004,31.253 20.934 C 31.253 20.864,31.289 20.772,31.333 20.728 C 31.377 20.684,31.413 20.562,31.413 20.457 C 31.413 20.333,31.437 20.271,31.480 20.280 C 31.527 20.289,31.547 20.205,31.547 19.993 C 31.547 19.775,31.565 19.700,31.613 19.719 C 31.663 19.738,31.680 19.647,31.680 19.366 C 31.680 19.091,31.698 18.990,31.747 19.000 C 31.818 19.014,31.826 18.955,31.835 18.387 C 31.839 18.108,31.858 18.027,31.918 18.027 C 31.987 18.027,31.996 17.081,31.996 10.531 C 31.996 3.999,31.986 3.031,31.918 3.005 C 31.871 2.987,31.840 2.904,31.840 2.797 C 31.840 2.689,31.806 2.600,31.755 2.571 C 31.701 2.541,31.669 2.452,31.669 2.332 C 31.669 2.218,31.639 2.129,31.596 2.112 C 31.555 2.097,31.536 2.047,31.553 2.002 C 31.571 1.955,31.549 1.907,31.499 1.888 C 31.452 1.870,31.413 1.822,31.413 1.781 C 31.413 1.740,31.376 1.707,31.330 1.707 C 31.278 1.707,31.253 1.669,31.263 1.605 C 31.273 1.547,31.217 1.446,31.133 1.368 C 31.053 1.293,30.987 1.207,30.987 1.176 C 30.987 1.145,30.966 1.120,30.942 1.120 C 30.917 1.120,30.810 1.036,30.704 0.933 C 30.598 0.831,30.474 0.747,30.428 0.747 C 30.381 0.747,30.330 0.711,30.313 0.667 C 30.296 0.623,30.248 0.587,30.208 0.587 C 30.167 0.587,30.133 0.548,30.133 0.500 C 30.133 0.440,30.101 0.423,30.023 0.443 C 29.956 0.461,29.902 0.442,29.884 0.396 C 29.866 0.349,29.779 0.320,29.653 0.320 C 29.523 0.320,29.441 0.292,29.421 0.240 C 29.402 0.190,29.320 0.160,29.206 0.160 C 29.105 0.160,29.012 0.130,29.000 0.093 C 28.966 -0.009,13.813 -0.015,13.813 0.088 M21.721 9.489 C 21.743 9.572,21.794 9.590,22.004 9.587 C 22.155 9.584,22.269 9.608,22.282 9.645 C 22.293 9.679,22.358 9.707,22.425 9.707 C 22.493 9.707,22.562 9.742,22.579 9.786 C 22.596 9.829,22.644 9.851,22.687 9.835 C 22.733 9.817,22.789 9.850,22.823 9.914 C 22.859 9.980,22.913 10.011,22.963 9.991 C 23.016 9.971,23.111 10.037,23.233 10.180 C 23.341 10.306,23.469 10.400,23.532 10.400 C 23.653 10.400,23.782 10.539,23.785 10.672 C 23.786 10.719,23.895 10.855,24.027 10.975 C 24.159 11.095,24.267 11.231,24.267 11.277 C 24.267 11.323,24.319 11.413,24.383 11.477 C 24.448 11.541,24.515 11.679,24.533 11.783 C 24.552 11.889,24.595 11.967,24.630 11.960 C 24.667 11.952,24.693 12.010,24.693 12.102 C 24.693 12.188,24.718 12.266,24.749 12.276 C 24.779 12.286,24.809 12.433,24.816 12.603 C 24.823 12.773,24.852 12.929,24.881 12.949 C 24.960 13.006,24.952 17.645,24.872 17.676 C 24.833 17.690,24.818 17.801,24.831 17.977 C 24.842 18.130,24.836 18.240,24.817 18.221 C 24.737 18.141,24.649 18.308,24.678 18.484 C 24.703 18.640,24.694 18.664,24.620 18.635 C 24.554 18.610,24.533 18.634,24.533 18.741 C 24.533 18.817,24.510 18.880,24.481 18.880 C 24.425 18.880,24.260 19.230,24.281 19.303 C 24.288 19.326,24.143 19.495,23.959 19.679 C 23.775 19.863,23.584 20.083,23.534 20.167 C 23.484 20.251,23.402 20.320,23.352 20.320 C 23.302 20.320,23.246 20.366,23.228 20.421 C 23.207 20.490,23.163 20.514,23.091 20.495 C 23.033 20.480,22.987 20.494,22.987 20.527 C 22.987 20.560,22.951 20.587,22.907 20.587 C 22.863 20.587,22.827 20.609,22.827 20.636 C 22.827 20.664,22.773 20.703,22.707 20.724 C 22.641 20.744,22.572 20.784,22.553 20.813 C 22.535 20.841,22.451 20.870,22.367 20.877 C 22.282 20.883,22.207 20.911,22.199 20.938 C 22.178 21.010,21.917 21.068,21.776 21.033 C 21.699 21.013,21.644 21.029,21.626 21.076 C 21.602 21.138,20.666 21.147,15.586 21.132 C 11.712 21.120,9.524 21.095,9.434 21.060 C 9.357 21.031,9.263 20.948,9.225 20.876 C 9.187 20.805,9.123 20.747,9.084 20.747 C 9.014 20.747,8.991 20.655,9.012 20.459 C 9.018 20.404,8.996 20.342,8.964 20.323 C 8.924 20.298,8.896 19.223,8.871 16.808 C 8.838 13.512,8.841 13.332,8.929 13.366 C 9.010 13.397,9.021 13.369,9.013 13.141 C 8.994 12.595,9.013 12.373,9.076 12.387 C 9.113 12.394,9.147 12.323,9.156 12.217 C 9.166 12.117,9.203 11.997,9.240 11.951 C 9.361 11.798,9.444 11.623,9.416 11.578 C 9.401 11.554,9.437 11.491,9.495 11.439 C 9.553 11.386,9.600 11.299,9.600 11.245 C 9.600 11.191,9.625 11.147,9.654 11.147 C 9.684 11.147,9.736 11.087,9.770 11.013 C 9.803 10.940,9.853 10.880,9.880 10.880 C 9.907 10.880,10.005 10.792,10.098 10.685 C 10.191 10.577,10.312 10.451,10.368 10.405 C 10.423 10.358,10.506 10.278,10.553 10.227 C 10.599 10.175,10.694 10.133,10.764 10.133 C 10.855 10.133,10.883 10.111,10.861 10.053 C 10.842 10.005,10.861 9.973,10.908 9.973 C 10.951 9.973,10.987 9.955,10.987 9.932 C 10.987 9.894,11.374 9.757,11.568 9.726 C 11.609 9.719,11.660 9.686,11.681 9.651 C 11.703 9.616,11.789 9.584,11.873 9.580 C 11.958 9.575,12.063 9.548,12.107 9.519 C 12.157 9.486,13.912 9.456,16.773 9.439 C 19.296 9.424,21.435 9.406,21.527 9.399 C 21.653 9.390,21.701 9.412,21.721 9.489 M11.864 12.772 C 11.807 12.815,11.723 12.851,11.678 12.852 C 11.569 12.854,11.460 13.140,11.445 13.465 C 11.434 13.709,11.449 13.746,11.637 13.930 C 11.748 14.039,11.840 14.152,11.840 14.181 C 11.840 14.214,13.658 14.233,16.907 14.233 C 20.377 14.233,21.973 14.215,21.973 14.177 C 21.973 14.147,22.033 14.075,22.107 14.017 C 22.180 13.959,22.240 13.878,22.240 13.836 C 22.240 13.794,22.269 13.766,22.305 13.773 C 22.347 13.782,22.376 13.689,22.388 13.501 C 22.402 13.283,22.384 13.191,22.311 13.110 C 22.258 13.051,22.213 12.976,22.211 12.942 C 22.209 12.908,22.188 12.838,22.165 12.787 C 22.124 12.699,21.828 12.693,17.044 12.693 C 12.663 12.693,11.953 12.704,11.864 12.772 M11.810 16.597 C 11.640 16.639,11.577 16.688,11.523 16.819 C 11.358 17.214,11.508 17.735,11.816 17.839 C 11.903 17.869,11.998 17.925,12.029 17.964 C 12.143 18.110,18.293 18.113,18.293 17.968 C 18.293 17.941,18.131 17.916,17.933 17.911 L 17.573 17.902 18.000 17.869 C 18.236 17.850,18.457 17.857,18.493 17.884 C 18.530 17.911,18.563 17.918,18.567 17.900 C 18.570 17.882,18.579 17.843,18.587 17.813 C 18.594 17.784,18.603 17.737,18.607 17.708 C 18.610 17.680,18.653 17.672,18.701 17.690 C 18.774 17.718,18.783 17.700,18.754 17.582 C 18.728 17.481,18.737 17.443,18.786 17.453 C 18.880 17.472,18.904 17.103,18.818 16.949 C 18.781 16.882,18.757 16.806,18.764 16.780 C 18.772 16.754,18.740 16.691,18.693 16.640 C 18.614 16.553,18.385 16.546,15.318 16.545 C 13.273 16.544,11.944 16.564,11.810 16.597 " stroke="none" fill-rule="evenodd" fill="black"></path></svg>