<svg width="24" height="24" viewBox="0 0 24 24" fill="none" xmlns="http://www.w3.org/2000/svg"><path d="M7.860 4.040 C 6.339 4.105,5.478 4.320,4.587 4.855 C 4.063 5.170,3.746 5.421,3.338 5.846 C 2.375 6.850,1.931 7.863,1.722 9.539 C 1.567 10.779,1.185 15.983,1.223 16.349 C 1.327 17.372,1.702 18.185,2.383 18.859 C 2.892 19.363,3.473 19.692,4.200 19.887 C 4.478 19.961,4.645 19.978,5.120 19.979 C 5.811 19.980,6.200 19.896,6.795 19.617 C 7.443 19.312,7.794 19.007,8.608 18.039 C 9.056 17.506,9.179 17.394,9.503 17.225 C 9.895 17.020,10.104 17.001,12.000 17.001 C 13.896 17.001,14.105 17.020,14.497 17.225 C 14.823 17.396,14.930 17.495,15.474 18.134 C 16.279 19.079,16.545 19.307,17.213 19.620 C 17.801 19.896,18.192 19.980,18.880 19.978 C 19.312 19.977,19.531 19.958,19.740 19.903 C 21.187 19.522,22.225 18.539,22.620 17.176 C 22.816 16.501,22.817 16.355,22.640 13.873 C 22.457 11.301,22.383 10.390,22.298 9.680 C 22.090 7.929,21.650 6.887,20.692 5.880 C 20.240 5.404,19.874 5.119,19.283 4.782 C 18.603 4.394,17.894 4.189,16.840 4.076 C 16.337 4.023,8.954 3.992,7.860 4.040 M15.960 6.038 C 17.181 6.091,17.755 6.211,18.335 6.535 C 19.161 6.998,19.849 7.845,20.077 8.682 C 20.292 9.467,20.343 9.936,20.599 13.476 C 20.783 16.006,20.792 16.331,20.686 16.671 C 20.428 17.499,19.621 18.046,18.740 17.989 C 18.088 17.947,17.756 17.738,17.089 16.948 C 16.491 16.239,16.231 15.975,15.905 15.742 C 15.553 15.491,14.967 15.220,14.538 15.111 C 14.187 15.022,14.137 15.020,12.000 15.020 C 9.863 15.020,9.813 15.022,9.462 15.111 C 9.032 15.221,8.447 15.491,8.092 15.744 C 7.761 15.981,7.504 16.242,6.909 16.948 C 6.251 17.730,5.915 17.945,5.280 17.989 C 4.591 18.037,3.994 17.758,3.579 17.194 C 3.334 16.861,3.240 16.553,3.240 16.080 C 3.240 15.684,3.512 11.775,3.622 10.600 C 3.786 8.836,3.978 8.205,4.575 7.458 C 4.716 7.282,4.960 7.036,5.118 6.910 C 5.876 6.306,6.533 6.101,7.900 6.042 C 8.889 5.999,14.998 5.996,15.960 6.038 M7.649 8.039 C 7.442 8.088,7.209 8.266,7.111 8.450 C 7.029 8.604,7.019 8.685,7.007 9.306 L 6.994 9.992 6.304 10.006 C 5.615 10.020,5.613 10.020,5.417 10.142 C 5.111 10.331,5.020 10.528,5.020 11.000 C 5.020 11.331,5.033 11.403,5.120 11.558 C 5.230 11.755,5.414 11.898,5.635 11.959 C 5.715 11.981,6.055 12.000,6.390 12.000 L 7.000 12.000 7.000 12.610 C 7.000 12.945,7.019 13.285,7.041 13.365 C 7.102 13.586,7.245 13.770,7.442 13.880 C 7.598 13.967,7.668 13.980,8.000 13.979 C 8.505 13.977,8.717 13.873,8.893 13.540 C 8.967 13.399,8.979 13.297,8.993 12.694 L 9.008 12.008 9.694 11.993 C 10.264 11.980,10.404 11.965,10.520 11.904 C 10.875 11.717,10.978 11.514,10.978 11.000 C 10.978 10.686,10.963 10.591,10.890 10.453 C 10.702 10.098,10.423 10.000,9.598 10.000 L 9.008 10.000 8.993 9.310 C 8.976 8.541,8.930 8.378,8.678 8.199 C 8.432 8.024,7.999 7.956,7.649 8.039 M17.649 9.037 C 17.263 9.136,17.039 9.438,17.009 9.900 C 16.978 10.381,17.119 10.699,17.442 10.880 C 17.597 10.967,17.669 10.980,18.000 10.980 C 18.312 10.980,18.408 10.964,18.540 10.894 C 18.866 10.718,19.000 10.459,19.000 10.000 C 19.000 9.356,18.712 9.047,18.083 9.017 C 17.916 9.009,17.721 9.018,17.649 9.037 M14.649 11.037 C 14.263 11.136,14.039 11.438,14.009 11.900 C 13.978 12.381,14.119 12.699,14.442 12.880 C 14.597 12.967,14.669 12.980,15.000 12.980 C 15.312 12.980,15.408 12.964,15.540 12.894 C 15.866 12.718,16.000 12.459,16.000 12.000 C 16.000 11.356,15.712 11.047,15.083 11.017 C 14.916 11.009,14.721 11.018,14.649 11.037 " stroke="none" fill-rule="evenodd" fill="black"></path></svg>