<svg width="24" height="24" viewBox="0 0 24 24" fill="none" xmlns="http://www.w3.org/2000/svg"><path d="M3.749 5.045 C 2.967 5.120,2.402 5.371,1.890 5.870 C 1.491 6.260,1.236 6.731,1.094 7.340 C 1.024 7.642,1.020 7.911,1.020 12.020 L 1.020 16.380 1.111 16.735 C 1.281 17.406,1.637 17.962,2.142 18.350 C 2.495 18.621,2.816 18.775,3.265 18.889 L 3.620 18.980 11.980 18.980 C 19.988 18.980,20.353 18.977,20.660 18.906 C 21.459 18.720,22.041 18.327,22.486 17.671 C 22.685 17.378,22.807 17.084,22.906 16.660 C 22.976 16.358,22.980 16.089,22.980 12.000 C 22.980 7.911,22.976 7.642,22.906 7.340 C 22.688 6.404,22.167 5.737,21.329 5.321 C 21.019 5.168,20.706 5.091,20.180 5.042 C 19.643 4.991,4.277 4.994,3.749 5.045 M20.374 7.074 C 20.586 7.146,20.863 7.432,20.928 7.646 C 21.005 7.901,21.005 16.099,20.928 16.354 C 20.863 16.567,20.591 16.849,20.376 16.925 C 20.143 17.007,3.857 17.007,3.624 16.925 C 3.422 16.854,3.140 16.571,3.075 16.374 C 3.009 16.175,2.974 8.513,3.037 7.950 C 3.102 7.365,3.340 7.104,3.866 7.042 C 4.017 7.024,7.758 7.012,12.180 7.016 C 18.671 7.021,20.250 7.032,20.374 7.074 M7.614 9.057 C 7.377 9.131,7.212 9.261,7.109 9.453 C 7.029 9.603,7.019 9.689,7.007 10.310 L 6.993 11.000 6.403 11.000 C 5.577 11.000,5.299 11.097,5.109 11.453 C 5.035 11.592,5.020 11.684,5.020 12.000 C 5.020 12.331,5.033 12.403,5.120 12.558 C 5.230 12.755,5.414 12.898,5.635 12.959 C 5.715 12.981,6.055 13.000,6.390 13.000 L 7.000 13.000 7.000 13.610 C 7.000 13.945,7.019 14.285,7.041 14.365 C 7.148 14.750,7.437 14.962,7.896 14.991 C 8.381 15.022,8.699 14.882,8.880 14.558 C 8.974 14.391,8.981 14.338,8.994 13.690 L 9.008 13.000 9.614 13.000 C 9.947 13.000,10.285 12.981,10.365 12.959 C 10.586 12.898,10.770 12.755,10.880 12.558 C 10.967 12.402,10.980 12.332,10.979 12.000 C 10.978 11.687,10.962 11.591,10.890 11.453 C 10.702 11.098,10.423 11.000,9.598 11.000 L 9.008 11.000 8.993 10.310 C 8.976 9.541,8.930 9.378,8.678 9.199 C 8.414 9.010,7.957 8.950,7.614 9.057 M17.614 10.055 C 17.220 10.184,17.039 10.437,17.009 10.900 C 16.978 11.381,17.119 11.699,17.442 11.880 C 17.597 11.967,17.669 11.980,18.000 11.980 C 18.312 11.980,18.408 11.964,18.540 11.894 C 18.866 11.718,19.000 11.459,19.000 11.000 C 19.000 10.357,18.713 10.048,18.083 10.016 C 17.893 10.006,17.718 10.021,17.614 10.055 M14.614 12.055 C 14.220 12.184,14.039 12.437,14.009 12.900 C 13.978 13.381,14.119 13.699,14.442 13.880 C 14.597 13.967,14.669 13.980,15.000 13.980 C 15.312 13.980,15.408 13.964,15.540 13.894 C 15.866 13.718,16.000 13.459,16.000 13.000 C 16.000 12.357,15.713 12.048,15.083 12.016 C 14.893 12.006,14.718 12.021,14.614 12.055 " stroke="none" fill-rule="evenodd" fill="black"></path></svg>