<svg width="24" height="24" viewBox="0 0 24 24" fill="none" xmlns="http://www.w3.org/2000/svg"><path d="M11.400 7.044 C 9.761 7.229,8.261 8.290,7.526 9.785 C 7.359 10.124,7.183 10.608,7.139 10.850 L 7.111 11.000 4.462 11.000 C 1.633 11.000,1.598 11.002,1.322 11.199 C 1.102 11.355,1.022 11.567,1.021 12.000 C 1.020 12.332,1.033 12.402,1.120 12.558 C 1.230 12.755,1.414 12.898,1.635 12.959 C 1.726 12.984,2.783 13.000,4.446 13.000 L 7.111 13.000 7.139 13.150 C 7.183 13.392,7.359 13.876,7.526 14.215 C 8.203 15.592,9.486 16.574,11.040 16.907 C 11.511 17.008,12.489 17.008,12.960 16.907 C 14.207 16.640,15.295 15.946,16.034 14.948 C 16.382 14.476,16.775 13.624,16.861 13.150 L 16.889 13.000 19.554 13.000 C 21.217 13.000,22.274 12.984,22.365 12.959 C 22.586 12.898,22.770 12.755,22.880 12.558 C 22.967 12.402,22.980 12.332,22.979 12.000 C 22.978 11.567,22.898 11.355,22.678 11.199 C 22.402 11.002,22.367 11.000,19.540 11.000 L 16.893 11.000 16.842 10.773 C 16.660 9.961,16.116 9.031,15.452 8.396 C 14.365 7.358,12.912 6.874,11.400 7.044 M12.861 9.129 C 13.804 9.405,14.584 10.183,14.875 11.139 C 14.958 11.412,14.973 11.542,14.973 12.000 C 14.973 12.458,14.958 12.588,14.875 12.861 C 14.588 13.803,13.845 14.555,12.887 14.872 C 12.620 14.961,12.508 14.974,12.020 14.977 C 11.539 14.980,11.418 14.967,11.160 14.886 C 10.180 14.580,9.417 13.821,9.125 12.861 C 9.044 12.595,9.027 12.451,9.025 12.020 C 9.022 11.408,9.081 11.137,9.320 10.660 C 9.746 9.812,10.552 9.212,11.499 9.040 C 11.832 8.980,12.500 9.023,12.861 9.129 " stroke="none" fill-rule="evenodd" fill="black"></path></svg>