<svg width="24" height="24" viewBox="0 0 24 24" fill="none" xmlns="http://www.w3.org/2000/svg"><path d="M5.358 2.061 C 3.731 2.315,2.417 3.584,2.083 5.227 C 1.700 7.105,2.756 9.031,4.540 9.711 C 4.716 9.778,4.891 9.843,4.930 9.855 C 4.996 9.876,5.000 10.183,5.000 15.549 C 5.000 19.225,5.015 21.271,5.041 21.365 C 5.148 21.750,5.437 21.962,5.896 21.991 C 6.381 22.022,6.699 21.882,6.880 21.558 L 6.980 21.380 6.991 15.628 C 7.001 10.212,7.005 9.876,7.071 9.855 C 8.341 9.451,9.237 8.646,9.704 7.488 C 10.090 6.530,10.090 5.469,9.705 4.516 C 9.172 3.197,8.001 2.269,6.605 2.058 C 6.144 1.989,5.816 1.990,5.358 2.061 M6.523 4.073 C 7.262 4.266,7.850 4.924,7.967 5.690 C 8.029 6.098,7.967 6.522,7.793 6.880 C 7.638 7.198,7.227 7.625,6.930 7.775 C 6.492 7.997,5.962 8.059,5.508 7.940 C 4.823 7.762,4.249 7.194,4.073 6.523 C 3.683 5.028,5.028 3.683,6.523 4.073 M12.614 5.056 C 12.376 5.132,12.212 5.262,12.109 5.453 C 12.035 5.592,12.020 5.684,12.020 6.000 C 12.020 6.331,12.033 6.403,12.120 6.558 C 12.230 6.755,12.414 6.898,12.635 6.959 C 12.721 6.983,13.452 7.000,14.443 7.000 C 16.363 7.000,16.399 7.005,16.697 7.304 C 17.013 7.620,17.002 7.475,16.990 11.014 L 16.980 14.126 16.720 14.217 C 15.824 14.531,15.024 15.177,14.569 15.953 C 13.320 18.083,14.233 20.785,16.512 21.704 C 18.558 22.528,20.877 21.538,21.704 19.488 C 22.560 17.365,21.464 14.983,19.280 14.217 L 19.020 14.126 19.000 10.773 L 18.979 7.420 18.886 7.140 C 18.558 6.158,17.817 5.420,16.861 5.123 C 16.540 5.023,16.538 5.023,14.660 5.013 C 13.181 5.005,12.744 5.014,12.614 5.056 M18.523 16.073 C 19.262 16.266,19.850 16.924,19.967 17.690 C 20.067 18.343,19.873 18.933,19.403 19.404 C 19.002 19.807,18.547 20.000,18.000 20.000 C 17.485 20.000,17.038 19.822,16.653 19.465 C 15.323 18.229,16.189 16.005,18.000 16.005 C 18.143 16.005,18.378 16.036,18.523 16.073 " stroke="none" fill-rule="evenodd" fill="black"></path></svg>