<svg width="24" height="24" viewBox="0 0 24 24" fill="none" xmlns="http://www.w3.org/2000/svg"><path d="M5.143 4.044 C 3.513 4.282,2.199 5.488,1.819 7.096 C 1.787 7.230,1.617 8.780,1.441 10.540 C 1.265 12.300,1.091 13.970,1.055 14.252 C 0.887 15.555,1.158 16.738,1.868 17.812 C 2.113 18.182,2.818 18.887,3.188 19.132 C 3.743 19.499,4.375 19.764,5.041 19.907 C 5.511 20.008,6.489 20.008,6.959 19.907 C 7.625 19.764,8.257 19.499,8.812 19.132 C 9.182 18.887,9.887 18.182,10.132 17.812 C 10.603 17.099,10.897 16.278,10.983 15.435 L 11.010 15.170 11.164 15.124 C 11.491 15.026,11.987 14.988,12.341 15.033 C 12.528 15.058,12.751 15.098,12.836 15.124 L 12.990 15.170 13.017 15.435 C 13.103 16.284,13.393 17.094,13.868 17.812 C 14.113 18.182,14.818 18.887,15.188 19.132 C 15.743 19.499,16.375 19.764,17.041 19.907 C 17.511 20.008,18.489 20.008,18.959 19.907 C 19.625 19.764,20.257 19.499,20.812 19.132 C 21.182 18.887,21.887 18.182,22.132 17.812 C 22.841 16.740,23.112 15.552,22.945 14.252 C 22.909 13.970,22.735 12.300,22.559 10.540 C 22.383 8.780,22.213 7.230,22.181 7.096 C 21.838 5.643,20.727 4.504,19.295 4.137 C 18.814 4.013,17.995 3.962,17.694 4.036 C 17.251 4.146,17.041 4.412,17.009 4.900 C 16.978 5.379,17.119 5.701,17.438 5.877 C 17.588 5.960,17.692 5.978,18.157 6.004 C 18.740 6.037,19.012 6.106,19.319 6.299 C 19.567 6.456,19.818 6.699,19.959 6.919 C 20.200 7.294,20.237 7.475,20.403 9.119 C 20.490 9.967,20.560 10.671,20.560 10.685 C 20.560 10.698,20.429 10.641,20.269 10.557 C 19.444 10.125,18.475 9.940,17.530 10.036 C 16.791 10.110,16.286 10.263,15.644 10.605 C 14.717 11.099,13.966 11.877,13.507 12.818 C 13.421 12.995,13.344 13.147,13.337 13.155 C 13.330 13.163,13.166 13.136,12.972 13.096 C 12.485 12.995,11.515 12.995,11.028 13.096 C 10.834 13.136,10.670 13.163,10.662 13.155 C 10.655 13.147,10.575 12.991,10.486 12.808 C 10.020 11.861,9.283 11.099,8.356 10.605 C 7.714 10.263,7.209 10.110,6.470 10.036 C 5.525 9.940,4.556 10.125,3.731 10.557 C 3.571 10.641,3.440 10.698,3.440 10.685 C 3.440 10.404,3.771 7.527,3.820 7.380 C 4.017 6.792,4.483 6.321,5.073 6.114 C 5.228 6.060,5.471 6.025,5.840 6.004 C 6.539 5.964,6.711 5.886,6.904 5.520 C 7.018 5.305,7.009 4.679,6.890 4.453 C 6.716 4.123,6.405 3.997,5.784 4.005 C 5.562 4.008,5.274 4.025,5.143 4.044 M6.861 12.129 C 7.804 12.405,8.584 13.183,8.875 14.139 C 8.958 14.412,8.973 14.542,8.973 15.000 C 8.973 15.458,8.958 15.588,8.875 15.861 C 8.588 16.803,7.845 17.555,6.887 17.872 C 6.620 17.961,6.508 17.974,6.020 17.977 C 5.539 17.980,5.418 17.967,5.160 17.886 C 4.180 17.580,3.417 16.821,3.125 15.861 C 3.045 15.596,3.028 15.457,3.029 15.060 C 3.031 14.457,3.110 14.074,3.319 13.660 C 3.748 12.810,4.553 12.212,5.499 12.040 C 5.832 11.980,6.500 12.023,6.861 12.129 M18.861 12.129 C 19.628 12.353,20.311 12.928,20.681 13.660 C 20.890 14.074,20.969 14.457,20.971 15.060 C 20.972 15.457,20.955 15.596,20.875 15.861 C 20.589 16.802,19.845 17.555,18.887 17.872 C 18.620 17.961,18.508 17.974,18.020 17.977 C 17.539 17.980,17.418 17.967,17.160 17.886 C 16.180 17.580,15.418 16.822,15.125 15.861 C 15.042 15.588,15.027 15.458,15.027 15.000 C 15.027 14.542,15.042 14.412,15.125 14.139 C 15.456 13.054,16.371 12.245,17.499 12.040 C 17.832 11.980,18.500 12.023,18.861 12.129 " stroke="none" fill-rule="evenodd" fill="black"></path></svg>