<svg width="24" height="24" viewBox="0 0 24 24" fill="none" xmlns="http://www.w3.org/2000/svg"><path d="M11.280 1.023 C 11.203 1.032,10.951 1.059,10.720 1.083 C 8.832 1.283,6.991 2.023,5.360 3.235 C 4.751 3.688,3.684 4.755,3.226 5.367 C 0.728 8.715,0.301 13.031,2.097 16.780 C 2.642 17.918,3.276 18.800,4.238 19.763 C 5.552 21.078,6.930 21.924,8.661 22.477 C 9.672 22.801,10.527 22.947,11.640 22.986 C 14.155 23.076,16.575 22.309,18.637 20.770 C 19.246 20.316,20.316 19.246,20.770 18.637 C 23.172 15.419,23.669 11.285,22.093 7.632 L 21.874 7.124 21.942 6.692 C 22.229 4.863,21.358 2.904,19.800 1.874 C 19.019 1.357,18.382 1.128,17.470 1.036 C 16.733 0.961,16.001 1.053,15.284 1.309 C 14.989 1.415,14.988 1.415,14.724 1.348 C 13.901 1.139,13.171 1.046,12.186 1.024 C 11.765 1.015,11.357 1.014,11.280 1.023 M12.530 3.026 L 12.952 3.052 12.810 3.272 C 12.317 4.043,12.049 4.900,12.012 5.820 C 11.955 7.220,12.529 8.587,13.825 10.140 C 14.422 10.856,16.407 12.847,16.637 12.961 C 16.868 13.075,17.132 13.075,17.363 12.961 C 17.482 12.902,17.895 12.516,18.620 11.787 C 19.533 10.868,19.921 10.446,20.585 9.646 L 20.669 9.544 20.752 9.904 C 20.924 10.649,20.977 11.145,20.977 12.000 C 20.977 13.493,20.720 14.621,20.080 15.940 C 19.205 17.746,17.798 19.160,15.980 20.061 C 14.740 20.676,13.370 21.000,12.010 21.000 L 11.520 21.000 11.520 20.423 L 11.520 19.847 12.731 18.433 C 13.397 17.656,13.980 16.957,14.027 16.880 C 14.354 16.346,14.271 15.600,13.834 15.137 C 13.677 14.972,13.364 14.775,12.190 14.103 L 10.740 13.274 9.800 11.627 C 8.806 9.887,8.695 9.730,8.319 9.540 C 7.924 9.339,7.862 9.340,5.480 9.555 C 4.281 9.663,3.295 9.747,3.288 9.741 C 3.281 9.734,3.359 9.480,3.460 9.175 C 4.746 5.304,8.473 2.778,12.530 3.026 M17.861 3.129 C 18.804 3.405,19.585 4.185,19.875 5.139 C 19.954 5.402,19.972 5.550,19.974 5.960 C 19.976 6.239,19.957 6.522,19.931 6.600 C 19.695 7.313,19.510 7.696,19.166 8.180 C 18.840 8.640,18.299 9.261,17.670 9.900 L 17.001 10.580 16.349 9.920 C 15.054 8.606,14.439 7.747,14.132 6.820 C 14.040 6.539,14.026 6.436,14.027 5.980 C 14.027 5.544,14.043 5.408,14.125 5.139 C 14.455 4.054,15.371 3.245,16.499 3.040 C 16.832 2.980,17.500 3.023,17.861 3.129 M16.493 4.617 C 16.061 4.818,15.799 5.197,15.769 5.665 C 15.742 6.074,15.830 6.313,16.116 6.602 C 16.639 7.133,17.361 7.134,17.883 6.603 C 18.141 6.341,18.240 6.107,18.240 5.754 C 18.240 5.274,17.951 4.824,17.509 4.618 C 17.216 4.482,16.785 4.481,16.493 4.617 M8.237 12.940 C 8.933 14.162,9.146 14.503,9.322 14.680 C 9.495 14.855,9.785 15.039,10.730 15.575 C 11.385 15.946,11.920 16.263,11.920 16.278 C 11.920 16.294,11.434 16.872,10.840 17.563 C 10.226 18.278,9.718 18.906,9.662 19.020 C 9.535 19.277,9.481 19.627,9.480 20.190 C 9.480 20.438,9.473 20.640,9.464 20.640 C 9.355 20.640,8.487 20.292,8.020 20.060 C 7.091 19.601,6.404 19.112,5.684 18.400 C 4.031 16.765,3.058 14.537,3.027 12.315 L 3.020 11.783 5.060 11.596 C 6.182 11.493,7.161 11.411,7.236 11.414 C 7.371 11.420,7.373 11.422,8.237 12.940 " stroke="none" fill-rule="evenodd" fill="black"></path></svg>