<svg width="24" height="24" viewBox="0 0 24 24" fill="none" xmlns="http://www.w3.org/2000/svg"><path d="M17.980 1.767 C 17.683 1.877,17.340 2.206,17.218 2.499 C 17.074 2.842,17.181 3.133,17.623 3.606 C 18.234 4.259,18.688 4.896,19.060 5.622 C 20.456 8.344,20.271 11.657,18.582 14.194 C 16.939 16.661,14.166 18.091,11.220 17.988 C 9.540 17.929,7.947 17.397,6.598 16.443 L 6.234 16.186 6.774 15.646 L 7.314 15.106 7.447 15.206 C 8.010 15.628,8.925 16.051,9.760 16.276 C 10.815 16.560,12.185 16.560,13.240 16.276 C 14.508 15.935,15.534 15.346,16.440 14.440 C 17.779 13.101,18.485 11.396,18.485 9.500 C 18.485 7.462,17.649 5.604,16.126 4.259 C 14.847 3.128,13.229 2.520,11.500 2.520 C 10.075 2.520,8.784 2.909,7.609 3.692 C 6.184 4.643,5.183 6.054,4.724 7.760 C 4.440 8.815,4.440 10.185,4.724 11.240 C 4.949 12.075,5.372 12.990,5.794 13.552 L 5.893 13.685 3.832 15.752 C 1.681 17.911,1.600 18.005,1.600 18.333 C 1.600 18.784,2.212 19.400,2.660 19.400 C 2.955 19.400,3.146 19.259,4.000 18.415 L 4.820 17.604 5.080 17.808 C 6.305 18.767,7.883 19.487,9.440 19.795 C 9.822 19.870,10.111 19.911,10.770 19.981 L 11.000 20.006 11.000 20.503 L 11.000 21.000 8.906 21.000 C 6.674 21.000,6.592 21.006,6.322 21.199 C 6.100 21.357,6.020 21.568,6.020 22.000 C 6.020 22.331,6.033 22.403,6.120 22.558 C 6.230 22.755,6.414 22.898,6.635 22.959 C 6.834 23.015,17.166 23.015,17.365 22.959 C 17.586 22.898,17.770 22.755,17.880 22.558 C 17.967 22.402,17.980 22.332,17.979 22.000 C 17.978 21.567,17.898 21.355,17.678 21.199 C 17.408 21.006,17.326 21.000,15.094 21.000 L 13.000 21.000 13.000 20.450 L 13.000 19.900 13.476 19.810 C 15.526 19.423,17.422 18.416,18.919 16.919 C 20.548 15.290,21.547 13.289,21.907 10.932 C 22.004 10.304,22.003 8.703,21.907 8.080 C 21.649 6.409,21.130 5.039,20.249 3.697 C 19.762 2.956,18.883 1.964,18.593 1.828 C 18.401 1.738,18.130 1.711,17.980 1.767 M12.640 4.638 C 14.252 5.041,15.506 6.112,16.115 7.604 C 16.396 8.293,16.458 8.634,16.458 9.500 C 16.458 10.367,16.397 10.707,16.114 11.400 C 15.665 12.499,14.788 13.445,13.720 13.982 C 13.394 14.145,12.757 14.353,12.365 14.423 C 11.913 14.504,11.081 14.503,10.620 14.421 C 8.933 14.120,7.484 12.933,6.860 11.342 C 6.599 10.678,6.542 10.347,6.542 9.500 C 6.542 8.837,6.554 8.692,6.635 8.366 C 6.883 7.372,7.352 6.555,8.064 5.879 C 8.710 5.265,9.490 4.845,10.360 4.643 C 10.859 4.528,10.880 4.526,11.620 4.540 C 12.149 4.550,12.376 4.571,12.640 4.638 " stroke="none" fill-rule="evenodd" fill="black"></path></svg>