<svg width="24" height="24" viewBox="0 0 24 24" fill="none" xmlns="http://www.w3.org/2000/svg"><path d="M11.280 1.023 C 11.203 1.032,10.951 1.059,10.720 1.083 C 8.827 1.285,6.992 2.021,5.360 3.235 C 4.751 3.688,3.684 4.755,3.226 5.367 C 1.683 7.435,0.927 9.833,1.014 12.380 C 1.093 14.674,1.832 16.765,3.226 18.633 C 3.701 19.269,4.753 20.316,5.400 20.797 C 7.086 22.051,9.024 22.786,11.104 22.962 C 11.730 23.015,12.700 22.994,12.929 22.923 C 13.353 22.791,13.575 22.330,13.477 21.782 C 13.414 21.428,13.284 21.229,13.033 21.104 C 12.834 21.005,12.795 21.000,12.162 21.000 C 10.606 21.000,9.266 20.693,7.980 20.042 C 6.772 19.431,5.800 18.648,4.991 17.635 C 4.498 17.017,3.970 16.174,4.011 16.069 C 4.035 16.009,4.887 15.520,4.969 15.520 C 5.001 15.520,5.845 15.674,6.844 15.863 C 8.297 16.137,8.710 16.202,8.912 16.187 C 9.402 16.152,9.921 15.789,10.151 15.322 L 10.260 15.100 10.272 13.307 L 10.283 11.514 11.188 9.968 C 11.685 9.118,12.126 8.345,12.168 8.251 C 12.343 7.855,12.334 7.379,12.142 7.000 C 12.092 6.901,11.501 6.037,10.828 5.081 C 10.022 3.936,9.620 3.332,9.652 3.315 C 9.721 3.277,10.438 3.133,10.860 3.073 C 11.394 2.997,12.719 3.008,13.280 3.094 C 14.269 3.245,15.047 3.486,15.940 3.920 C 16.440 4.162,17.272 4.663,17.234 4.698 C 17.227 4.706,17.072 4.821,16.891 4.955 C 15.395 6.061,14.675 7.421,14.803 8.898 C 14.895 9.947,15.360 10.881,16.219 11.740 C 16.602 12.122,16.712 12.207,17.060 12.386 C 17.999 12.869,19.215 13.204,20.739 13.400 C 21.091 13.445,21.587 13.485,21.841 13.489 C 22.249 13.495,22.325 13.485,22.492 13.404 C 22.883 13.215,22.998 12.904,22.999 12.040 C 23.003 7.806,20.607 3.959,16.820 2.120 C 15.702 1.577,14.668 1.265,13.423 1.096 C 13.000 1.038,11.574 0.990,11.280 1.023 M8.955 5.900 L 10.205 7.679 9.334 9.170 C 8.855 9.989,8.422 10.759,8.372 10.880 C 8.284 11.095,8.282 11.135,8.281 12.590 C 8.280 13.575,8.266 14.080,8.239 14.080 C 8.217 14.080,7.476 13.945,6.592 13.780 C 5.709 13.615,4.918 13.480,4.835 13.480 C 4.532 13.480,4.289 13.568,3.780 13.861 L 3.262 14.159 3.213 13.945 C 3.009 13.045,2.956 11.620,3.094 10.720 C 3.246 9.729,3.487 8.953,3.920 8.060 C 4.632 6.592,5.769 5.307,7.121 4.443 C 7.307 4.324,7.496 4.204,7.540 4.175 C 7.584 4.147,7.639 4.123,7.663 4.122 C 7.686 4.121,8.267 4.921,8.955 5.900 M19.065 6.430 C 19.839 7.412,20.442 8.645,20.733 9.840 C 20.844 10.297,20.960 11.021,20.960 11.261 L 20.960 11.411 20.730 11.384 C 19.947 11.294,18.688 10.956,18.103 10.679 C 17.758 10.515,17.413 10.172,17.154 9.734 C 16.529 8.677,16.728 7.717,17.760 6.819 C 18.034 6.580,18.704 6.120,18.777 6.120 C 18.801 6.120,18.930 6.260,19.065 6.430 M13.220 12.667 C 12.743 12.866,12.533 13.152,12.570 13.553 C 12.586 13.722,13.002 14.863,14.200 18.020 C 15.084 20.352,15.835 22.314,15.868 22.380 C 16.045 22.730,16.443 22.960,16.875 22.960 C 17.064 22.960,17.140 22.939,17.275 22.848 C 17.367 22.786,17.483 22.674,17.534 22.598 C 17.585 22.522,17.937 21.683,18.316 20.733 L 19.006 19.006 20.733 18.316 C 22.355 17.668,22.471 17.615,22.646 17.443 C 23.039 17.054,23.066 16.313,22.695 16.051 C 22.472 15.895,22.222 15.795,18.060 14.217 C 13.510 12.491,13.584 12.515,13.220 12.667 M17.299 16.066 C 18.310 16.450,19.143 16.770,19.150 16.777 C 19.158 16.784,18.835 16.922,18.433 17.083 C 17.827 17.326,17.675 17.403,17.539 17.539 C 17.403 17.675,17.326 17.827,17.083 18.433 C 16.922 18.835,16.784 19.158,16.777 19.150 C 16.770 19.143,16.450 18.310,16.066 17.299 C 15.682 16.287,15.354 15.425,15.337 15.383 C 15.311 15.319,15.319 15.311,15.383 15.337 C 15.425 15.354,16.287 15.682,17.299 16.066 " stroke="none" fill-rule="evenodd" fill="black"></path></svg>