<svg width="24" height="24" viewBox="0 0 24 24" fill="none" xmlns="http://www.w3.org/2000/svg"><path d="M18.326 1.381 C 17.993 1.526,17.681 1.881,17.598 2.212 C 17.518 2.528,17.611 2.713,18.146 3.308 C 18.931 4.179,19.402 4.852,19.849 5.740 C 20.408 6.850,20.722 7.847,20.905 9.100 C 21.003 9.767,21.003 11.233,20.905 11.900 C 20.561 14.252,19.560 16.269,17.921 17.916 C 16.302 19.542,14.284 20.550,11.932 20.907 C 11.383 20.990,9.746 21.004,9.220 20.929 C 7.591 20.697,6.141 20.176,4.880 19.369 C 4.508 19.131,3.840 18.639,3.840 18.602 C 3.840 18.589,4.153 18.267,4.536 17.884 C 5.004 17.417,5.248 17.200,5.282 17.221 C 5.310 17.238,5.467 17.349,5.631 17.467 C 6.456 18.059,7.624 18.572,8.661 18.799 C 12.894 19.725,17.136 17.342,18.534 13.254 C 19.451 10.571,18.991 7.659,17.290 5.390 C 16.902 4.872,16.136 4.104,15.631 3.727 C 14.474 2.862,13.199 2.324,11.755 2.093 C 11.183 2.001,9.817 2.001,9.245 2.093 C 7.386 2.391,5.805 3.193,4.499 4.499 C 3.116 5.880,2.293 7.574,2.058 9.520 C 1.814 11.541,2.371 13.749,3.533 15.369 C 3.651 15.533,3.761 15.690,3.778 15.717 C 3.798 15.750,3.476 16.103,2.831 16.753 C 1.769 17.825,1.667 17.964,1.602 18.429 C 1.534 18.906,1.700 19.348,2.089 19.734 C 2.875 20.512,4.352 21.473,5.540 21.979 C 8.592 23.279,11.974 23.337,15.043 22.140 C 17.296 21.262,19.248 19.740,20.688 17.740 C 21.649 16.404,22.383 14.724,22.735 13.055 C 22.932 12.118,22.976 11.658,22.976 10.500 C 22.976 9.342,22.932 8.882,22.735 7.945 C 22.323 5.990,21.449 4.158,20.185 2.600 C 19.791 2.114,19.164 1.489,18.982 1.401 C 18.787 1.306,18.517 1.298,18.326 1.381 M11.100 4.042 C 11.880 4.116,12.471 4.271,13.171 4.585 C 15.659 5.702,17.191 8.295,16.964 11.005 C 16.893 11.854,16.740 12.452,16.409 13.180 C 15.512 15.151,13.757 16.506,11.580 16.910 C 11.085 17.002,9.915 17.002,9.420 16.910 C 7.523 16.558,5.962 15.499,4.960 13.884 C 3.847 12.090,3.705 9.789,4.585 7.828 C 5.719 5.305,8.341 3.780,11.100 4.042 " stroke="none" fill-rule="evenodd" fill="black"></path></svg>