<svg width="24" height="24" viewBox="0 0 24 24" fill="none" xmlns="http://www.w3.org/2000/svg"><path d="M11.560 2.636 C 11.210 2.750,1.505 7.621,1.341 7.765 C 1.157 7.926,1.002 8.228,0.972 8.483 C 0.941 8.744,1.038 8.993,1.243 9.178 C 1.339 9.265,1.908 9.574,2.700 9.970 L 4.000 10.619 4.000 13.540 C 4.000 15.376,4.016 16.556,4.042 16.720 C 4.127 17.247,4.430 17.721,4.868 18.011 C 5.233 18.253,11.177 21.219,11.469 21.305 C 11.765 21.392,12.236 21.392,12.532 21.305 C 12.880 21.203,18.933 18.165,19.221 17.948 C 19.615 17.651,19.878 17.213,19.958 16.720 C 19.984 16.556,20.000 15.376,20.000 13.539 L 20.000 10.619 21.248 9.999 C 21.958 9.647,22.563 9.321,22.651 9.243 C 22.843 9.072,22.997 8.776,23.028 8.517 C 23.059 8.256,22.962 8.007,22.758 7.823 C 22.577 7.659,12.757 2.730,12.401 2.624 C 12.124 2.542,11.837 2.546,11.560 2.636 M15.880 6.560 C 17.992 7.616,19.720 8.490,19.720 8.501 C 19.720 8.513,19.454 8.650,19.130 8.805 C 18.805 8.960,18.477 9.122,18.400 9.164 C 18.323 9.207,16.852 9.947,15.130 10.810 L 12.000 12.380 8.870 10.810 C 7.148 9.947,5.677 9.207,5.600 9.164 C 5.523 9.122,5.194 8.960,4.870 8.805 C 4.545 8.650,4.280 8.513,4.280 8.501 C 4.280 8.472,11.927 4.645,11.990 4.642 C 12.018 4.641,13.768 5.504,15.880 6.560 M8.690 12.965 C 10.148 13.694,11.437 14.324,11.556 14.365 C 11.675 14.406,11.875 14.440,12.000 14.440 C 12.125 14.440,12.325 14.406,12.444 14.365 C 12.563 14.324,13.852 13.694,15.310 12.965 C 16.767 12.236,17.969 11.640,17.980 11.640 C 17.991 11.640,18.000 12.707,18.000 14.010 L 18.000 16.380 15.000 17.880 L 12.000 19.380 9.000 17.880 L 6.000 16.380 6.000 14.010 C 6.000 12.707,6.009 11.640,6.020 11.640 C 6.031 11.640,7.233 12.236,8.690 12.965 " stroke="none" fill-rule="evenodd" fill="black"></path></svg>