<svg width="24" height="24" viewBox="0 0 24 24" fill="none" xmlns="http://www.w3.org/2000/svg"><path d="M11.560 2.636 C 11.210 2.750,1.505 7.621,1.341 7.765 C 1.034 8.034,0.889 8.523,1.017 8.857 C 1.122 9.132,1.334 9.287,2.200 9.720 L 3.000 10.120 3.001 13.490 C 3.001 17.146,3.003 17.171,3.222 17.603 C 3.367 17.889,3.725 18.256,4.019 18.421 C 4.398 18.632,11.108 21.696,11.420 21.801 C 11.798 21.927,12.202 21.927,12.580 21.801 C 12.892 21.696,19.602 18.632,19.981 18.421 C 20.275 18.256,20.633 17.889,20.778 17.603 C 20.997 17.171,20.999 17.146,20.999 13.490 L 21.000 10.120 21.770 9.736 C 22.194 9.525,22.600 9.295,22.674 9.226 C 22.850 9.060,22.999 8.761,23.028 8.517 C 23.059 8.256,22.962 8.007,22.758 7.823 C 22.577 7.659,12.757 2.730,12.401 2.624 C 12.124 2.542,11.837 2.546,11.560 2.636 M15.882 6.561 C 17.995 7.617,19.713 8.499,19.699 8.521 C 19.686 8.542,19.643 8.560,19.603 8.560 C 19.564 8.560,19.463 8.606,19.380 8.663 C 19.296 8.719,18.727 9.016,18.115 9.323 L 17.001 9.880 14.598 8.680 L 12.195 7.480 11.936 7.480 C 11.789 7.480,11.629 7.505,11.568 7.537 C 11.298 7.678,11.014 8.129,10.972 8.483 C 10.941 8.744,11.038 8.993,11.243 9.178 C 11.342 9.268,12.014 9.627,13.060 10.150 C 13.973 10.606,14.720 10.989,14.720 11.000 C 14.720 11.012,14.108 11.327,13.360 11.700 L 11.999 12.379 8.435 10.600 C 6.475 9.621,4.780 8.761,4.667 8.690 C 4.555 8.619,4.432 8.560,4.394 8.560 C 4.356 8.560,4.314 8.542,4.301 8.521 C 4.278 8.484,11.885 4.647,11.990 4.642 C 12.018 4.641,13.769 5.504,15.882 6.561 M11.556 14.365 C 11.832 14.460,12.168 14.460,12.444 14.365 C 12.563 14.324,13.402 13.919,14.310 13.465 C 15.217 13.011,15.969 12.640,15.980 12.640 C 15.991 12.640,16.000 13.105,16.000 13.673 C 16.000 14.840,16.028 15.015,16.249 15.229 C 16.442 15.416,16.647 15.487,16.997 15.488 C 17.348 15.490,17.556 15.418,17.751 15.229 C 17.986 15.002,18.000 14.884,18.000 13.162 L 18.000 11.619 18.500 11.369 L 19.000 11.120 19.000 13.900 L 19.000 16.679 18.810 16.774 C 18.385 16.987,12.043 19.880,12.000 19.880 C 11.957 19.880,5.615 16.987,5.190 16.774 L 5.000 16.679 5.000 13.899 L 5.000 11.120 8.170 12.705 C 9.914 13.577,11.437 14.324,11.556 14.365 " stroke="none" fill-rule="evenodd" fill="black"></path></svg>