<svg width="24" height="24" viewBox="0 0 24 24" fill="none" xmlns="http://www.w3.org/2000/svg"><path d="M2.614 2.055 C 2.220 2.184,2.039 2.437,2.009 2.900 C 1.978 3.381,2.119 3.699,2.442 3.880 C 2.597 3.967,2.669 3.980,3.000 3.980 C 3.312 3.980,3.408 3.964,3.540 3.894 C 3.866 3.718,4.000 3.459,4.000 3.000 C 4.000 2.357,3.713 2.048,3.083 2.016 C 2.893 2.006,2.718 2.021,2.614 2.055 M7.180 2.039 C 6.715 2.159,6.514 2.447,6.512 2.997 C 6.510 3.348,6.582 3.556,6.771 3.752 C 7.131 4.123,8.068 4.060,8.341 3.645 C 8.526 3.365,8.565 2.840,8.425 2.507 C 8.262 2.118,7.698 1.906,7.180 2.039 M11.614 2.055 C 11.220 2.184,11.039 2.437,11.009 2.900 C 10.978 3.381,11.119 3.699,11.442 3.880 C 11.597 3.967,11.669 3.980,12.000 3.980 C 12.312 3.980,12.408 3.964,12.540 3.894 C 12.866 3.718,13.000 3.459,13.000 3.000 C 13.000 2.357,12.713 2.048,12.083 2.016 C 11.893 2.006,11.718 2.021,11.614 2.055 M16.180 2.039 C 15.715 2.159,15.514 2.447,15.512 2.997 C 15.510 3.348,15.582 3.556,15.771 3.752 C 16.131 4.123,17.068 4.060,17.341 3.645 C 17.526 3.365,17.565 2.840,17.425 2.507 C 17.262 2.118,16.698 1.906,16.180 2.039 M20.614 2.055 C 20.220 2.184,20.039 2.437,20.009 2.900 C 19.978 3.381,20.119 3.699,20.442 3.880 C 20.597 3.967,20.669 3.980,21.000 3.980 C 21.312 3.980,21.408 3.964,21.540 3.894 C 21.866 3.718,22.000 3.459,22.000 3.000 C 22.000 2.357,21.713 2.048,21.083 2.016 C 20.893 2.006,20.718 2.021,20.614 2.055 M2.545 6.579 C 2.203 6.701,2.000 7.044,2.000 7.500 C 2.000 8.148,2.344 8.486,3.007 8.488 C 3.429 8.490,3.710 8.360,3.870 8.087 C 3.970 7.917,3.980 7.864,3.980 7.500 C 3.980 7.136,3.970 7.083,3.871 6.914 C 3.709 6.640,3.449 6.519,3.022 6.522 C 2.845 6.523,2.630 6.548,2.545 6.579 M11.545 6.579 C 11.203 6.701,11.000 7.044,11.000 7.500 C 11.000 8.148,11.344 8.486,12.007 8.488 C 12.429 8.490,12.710 8.360,12.870 8.087 C 12.970 7.917,12.980 7.864,12.980 7.500 C 12.980 7.136,12.970 7.083,12.871 6.914 C 12.709 6.640,12.449 6.519,12.022 6.522 C 11.845 6.523,11.630 6.548,11.545 6.579 M20.545 6.579 C 20.203 6.701,20.000 7.044,20.000 7.500 C 20.000 8.148,20.344 8.486,21.007 8.488 C 21.429 8.490,21.710 8.360,21.870 8.087 C 21.970 7.917,21.980 7.864,21.980 7.500 C 21.980 7.136,21.970 7.083,21.871 6.914 C 21.709 6.640,21.449 6.519,21.022 6.522 C 20.845 6.523,20.630 6.548,20.545 6.579 M2.614 11.055 C 2.220 11.184,2.039 11.437,2.009 11.900 C 1.978 12.381,2.119 12.699,2.442 12.880 C 2.597 12.967,2.669 12.980,3.000 12.980 C 3.312 12.980,3.408 12.964,3.540 12.894 C 3.866 12.718,4.000 12.459,4.000 12.000 C 4.000 11.357,3.713 11.048,3.083 11.016 C 2.893 11.006,2.718 11.021,2.614 11.055 M7.180 11.039 C 6.715 11.159,6.514 11.447,6.512 11.997 C 6.510 12.348,6.582 12.556,6.771 12.752 C 7.131 13.123,8.068 13.060,8.341 12.645 C 8.526 12.365,8.565 11.840,8.425 11.507 C 8.262 11.118,7.698 10.906,7.180 11.039 M11.614 11.055 C 11.220 11.184,11.039 11.437,11.009 11.900 C 10.978 12.381,11.119 12.699,11.442 12.880 C 11.597 12.967,11.669 12.980,12.000 12.980 C 12.312 12.980,12.408 12.964,12.540 12.894 C 12.866 12.718,13.000 12.459,13.000 12.000 C 13.000 11.357,12.713 11.048,12.083 11.016 C 11.893 11.006,11.718 11.021,11.614 11.055 M16.180 11.039 C 15.715 11.159,15.514 11.447,15.512 11.997 C 15.510 12.348,15.582 12.556,15.771 12.752 C 16.131 13.123,17.068 13.060,17.341 12.645 C 17.526 12.365,17.565 11.840,17.425 11.507 C 17.262 11.118,16.698 10.906,16.180 11.039 M20.614 11.055 C 20.220 11.184,20.039 11.437,20.009 11.900 C 19.978 12.381,20.119 12.699,20.442 12.880 C 20.597 12.967,20.669 12.980,21.000 12.980 C 21.312 12.980,21.408 12.964,21.540 12.894 C 21.866 12.718,22.000 12.459,22.000 12.000 C 22.000 11.357,21.713 11.048,21.083 11.016 C 20.893 11.006,20.718 11.021,20.614 11.055 M2.545 15.579 C 2.203 15.701,2.000 16.044,2.000 16.500 C 2.000 17.148,2.344 17.486,3.007 17.488 C 3.429 17.490,3.710 17.360,3.870 17.087 C 3.970 16.917,3.980 16.864,3.980 16.500 C 3.980 16.136,3.970 16.083,3.871 15.914 C 3.709 15.640,3.449 15.519,3.022 15.522 C 2.845 15.523,2.630 15.548,2.545 15.579 M11.545 15.579 C 11.203 15.701,11.000 16.044,11.000 16.500 C 11.000 17.148,11.344 17.486,12.007 17.488 C 12.429 17.490,12.710 17.360,12.870 17.087 C 12.970 16.917,12.980 16.864,12.980 16.500 C 12.980 16.136,12.970 16.083,12.871 15.914 C 12.709 15.640,12.449 15.519,12.022 15.522 C 11.845 15.523,11.630 15.548,11.545 15.579 M20.545 15.579 C 20.203 15.701,20.000 16.044,20.000 16.500 C 20.000 17.148,20.344 17.486,21.007 17.488 C 21.429 17.490,21.710 17.360,21.870 17.087 C 21.970 16.917,21.980 16.864,21.980 16.500 C 21.980 16.136,21.970 16.083,21.871 15.914 C 21.709 15.640,21.449 15.519,21.022 15.522 C 20.845 15.523,20.630 15.548,20.545 15.579 M2.614 20.057 C 2.377 20.131,2.212 20.261,2.109 20.453 C 2.035 20.592,2.020 20.684,2.020 21.000 C 2.020 21.331,2.033 21.403,2.120 21.558 C 2.230 21.755,2.414 21.898,2.635 21.959 C 2.835 22.015,21.165 22.015,21.365 21.959 C 21.586 21.898,21.770 21.755,21.880 21.558 C 21.967 21.402,21.980 21.332,21.979 21.000 C 21.978 20.567,21.898 20.355,21.678 20.199 C 21.385 19.990,21.877 20.000,11.984 20.003 C 4.546 20.005,2.748 20.015,2.614 20.057 " stroke="none" fill-rule="evenodd" fill="black"></path></svg>