<svg width="24" height="24" viewBox="0 0 24 24" fill="none" xmlns="http://www.w3.org/2000/svg"><path d="M4.749 2.045 C 3.771 2.139,3.037 2.557,2.527 3.310 C 2.319 3.616,2.219 3.844,2.111 4.260 C 2.033 4.556,2.026 4.715,2.010 6.384 C 1.999 7.598,2.008 8.240,2.037 8.348 C 2.144 8.748,2.430 8.961,2.896 8.991 C 3.381 9.022,3.699 8.882,3.880 8.558 L 3.980 8.380 4.005 6.580 C 4.022 5.351,4.045 4.731,4.078 4.626 C 4.140 4.428,4.428 4.140,4.626 4.078 C 4.732 4.044,5.346 4.021,6.580 4.005 C 8.319 3.981,8.385 3.977,8.540 3.894 C 8.875 3.715,8.978 3.504,8.978 3.000 C 8.978 2.567,8.899 2.356,8.678 2.199 C 8.415 2.012,8.290 2.000,6.644 2.005 C 5.795 2.008,4.942 2.026,4.749 2.045 M15.614 2.057 C 15.223 2.180,15.039 2.436,15.009 2.900 C 14.978 3.381,15.119 3.699,15.442 3.880 L 15.620 3.980 17.420 4.005 C 18.654 4.021,19.268 4.044,19.374 4.078 C 19.572 4.140,19.860 4.428,19.922 4.626 C 19.956 4.732,19.979 5.346,19.995 6.580 L 20.020 8.380 20.120 8.558 C 20.287 8.856,20.572 9.000,21.000 9.000 C 21.428 9.000,21.713 8.856,21.880 8.558 L 21.980 8.380 21.980 6.520 C 21.980 4.848,21.972 4.628,21.906 4.340 C 21.688 3.404,21.167 2.737,20.329 2.321 C 19.792 2.055,19.256 1.999,17.260 2.003 C 16.163 2.005,15.737 2.019,15.614 2.057 M11.614 6.057 C 11.377 6.131,11.212 6.261,11.109 6.453 C 11.021 6.619,11.020 6.633,11.009 8.810 L 10.997 11.000 8.905 11.000 C 6.674 11.000,6.592 11.006,6.322 11.199 C 6.100 11.357,6.020 11.568,6.020 12.000 C 6.020 12.331,6.033 12.403,6.120 12.558 C 6.230 12.755,6.414 12.898,6.635 12.959 C 6.724 12.984,7.600 13.000,8.890 13.000 L 11.000 13.000 11.000 15.110 C 11.000 16.400,11.016 17.276,11.041 17.365 C 11.148 17.750,11.437 17.962,11.896 17.991 C 12.381 18.022,12.699 17.882,12.880 17.558 L 12.980 17.380 12.992 15.190 L 13.003 13.000 15.112 13.000 C 16.401 13.000,17.276 12.984,17.365 12.959 C 17.586 12.898,17.770 12.755,17.880 12.558 C 17.967 12.402,17.980 12.332,17.979 12.000 C 17.978 11.567,17.898 11.355,17.678 11.199 C 17.408 11.006,17.326 11.000,15.095 11.000 L 13.003 11.000 12.992 8.810 C 12.980 6.633,12.979 6.619,12.891 6.453 C 12.842 6.362,12.746 6.247,12.678 6.199 C 12.414 6.010,11.957 5.950,11.614 6.057 M2.614 15.057 C 2.377 15.131,2.212 15.261,2.109 15.453 C 2.021 15.619,2.020 15.632,2.020 17.500 C 2.020 19.320,2.023 19.391,2.111 19.735 C 2.225 20.184,2.379 20.505,2.650 20.858 C 3.033 21.356,3.591 21.716,4.244 21.885 C 4.559 21.967,4.694 21.973,6.383 21.990 C 7.605 22.001,8.238 21.993,8.347 21.964 C 8.583 21.900,8.767 21.760,8.880 21.558 C 8.967 21.402,8.980 21.332,8.979 21.000 C 8.977 20.469,8.850 20.243,8.455 20.072 C 8.371 20.036,7.851 20.016,6.540 20.001 C 4.754 19.980,4.738 19.979,4.550 19.886 C 4.333 19.780,4.139 19.565,4.074 19.360 C 4.046 19.271,4.020 18.559,4.004 17.420 C 3.980 15.661,3.977 15.616,3.891 15.453 C 3.842 15.362,3.746 15.247,3.678 15.199 C 3.414 15.010,2.957 14.950,2.614 15.057 M20.614 15.057 C 20.377 15.131,20.212 15.261,20.109 15.453 C 20.022 15.616,20.019 15.659,19.995 17.420 C 19.980 18.566,19.955 19.271,19.926 19.360 C 19.861 19.565,19.667 19.780,19.450 19.886 C 19.261 19.979,19.247 19.980,17.459 20.000 L 15.658 20.020 15.459 20.122 C 15.119 20.297,14.978 20.606,15.009 21.104 C 15.039 21.571,15.252 21.856,15.653 21.964 C 15.762 21.993,16.395 22.001,17.617 21.990 C 19.280 21.974,19.445 21.966,19.740 21.889 C 20.152 21.782,20.384 21.681,20.679 21.481 C 21.323 21.044,21.722 20.451,21.906 19.660 C 21.972 19.372,21.980 19.152,21.980 17.480 C 21.980 15.633,21.979 15.619,21.891 15.453 C 21.842 15.362,21.746 15.247,21.678 15.199 C 21.414 15.010,20.957 14.950,20.614 15.057 " stroke="none" fill-rule="evenodd" fill="black"></path></svg>