<svg width="24" height="24" viewBox="0 0 24 24" fill="none" xmlns="http://www.w3.org/2000/svg"><path d="M2.614 2.055 C 2.220 2.184,2.039 2.437,2.009 2.900 C 1.978 3.381,2.119 3.699,2.442 3.880 C 2.597 3.967,2.669 3.980,3.000 3.980 C 3.312 3.980,3.408 3.964,3.540 3.894 C 3.866 3.718,4.000 3.459,4.000 3.000 C 4.000 2.357,3.713 2.048,3.083 2.016 C 2.893 2.006,2.718 2.021,2.614 2.055 M7.180 2.039 C 6.715 2.159,6.514 2.447,6.512 2.997 C 6.510 3.348,6.582 3.556,6.771 3.752 C 7.131 4.123,8.068 4.060,8.341 3.645 C 8.526 3.365,8.565 2.840,8.425 2.507 C 8.262 2.118,7.698 1.906,7.180 2.039 M11.614 2.055 C 11.220 2.184,11.039 2.437,11.009 2.900 C 10.978 3.381,11.119 3.699,11.442 3.880 C 11.597 3.967,11.669 3.980,12.000 3.980 C 12.312 3.980,12.408 3.964,12.540 3.894 C 12.866 3.718,13.000 3.459,13.000 3.000 C 13.000 2.357,12.713 2.048,12.083 2.016 C 11.893 2.006,11.718 2.021,11.614 2.055 M16.180 2.039 C 15.715 2.159,15.514 2.447,15.512 2.997 C 15.510 3.348,15.582 3.556,15.771 3.752 C 16.131 4.123,17.068 4.060,17.341 3.645 C 17.526 3.365,17.565 2.840,17.425 2.507 C 17.262 2.118,16.698 1.906,16.180 2.039 M20.614 2.057 C 20.377 2.131,20.212 2.261,20.109 2.453 L 20.020 2.620 20.010 11.914 C 20.003 18.056,20.013 21.260,20.040 21.358 C 20.144 21.747,20.435 21.962,20.896 21.991 C 21.381 22.022,21.699 21.882,21.880 21.558 L 21.980 21.380 21.980 12.000 L 21.980 2.620 21.891 2.453 C 21.842 2.362,21.746 2.247,21.678 2.199 C 21.414 2.010,20.957 1.950,20.614 2.057 M2.545 6.579 C 2.203 6.701,2.000 7.044,2.000 7.500 C 2.000 8.148,2.344 8.486,3.007 8.488 C 3.429 8.490,3.710 8.360,3.870 8.087 C 3.970 7.917,3.980 7.864,3.980 7.500 C 3.980 7.136,3.970 7.083,3.871 6.914 C 3.709 6.640,3.449 6.519,3.022 6.522 C 2.845 6.523,2.630 6.548,2.545 6.579 M11.545 6.579 C 11.203 6.701,11.000 7.044,11.000 7.500 C 11.000 8.148,11.344 8.486,12.007 8.488 C 12.429 8.490,12.710 8.360,12.870 8.087 C 12.970 7.917,12.980 7.864,12.980 7.500 C 12.980 7.136,12.970 7.083,12.871 6.914 C 12.709 6.640,12.449 6.519,12.022 6.522 C 11.845 6.523,11.630 6.548,11.545 6.579 M2.614 11.055 C 2.220 11.184,2.039 11.437,2.009 11.900 C 1.978 12.381,2.119 12.699,2.442 12.880 C 2.597 12.967,2.669 12.980,3.000 12.980 C 3.312 12.980,3.408 12.964,3.540 12.894 C 3.866 12.718,4.000 12.459,4.000 12.000 C 4.000 11.357,3.713 11.048,3.083 11.016 C 2.893 11.006,2.718 11.021,2.614 11.055 M7.180 11.039 C 6.715 11.159,6.514 11.447,6.512 11.997 C 6.510 12.348,6.582 12.556,6.771 12.752 C 7.131 13.123,8.068 13.060,8.341 12.645 C 8.526 12.365,8.565 11.840,8.425 11.507 C 8.262 11.118,7.698 10.906,7.180 11.039 M11.614 11.055 C 11.220 11.184,11.039 11.437,11.009 11.900 C 10.978 12.381,11.119 12.699,11.442 12.880 C 11.597 12.967,11.669 12.980,12.000 12.980 C 12.312 12.980,12.408 12.964,12.540 12.894 C 12.866 12.718,13.000 12.459,13.000 12.000 C 13.000 11.357,12.713 11.048,12.083 11.016 C 11.893 11.006,11.718 11.021,11.614 11.055 M16.180 11.039 C 15.715 11.159,15.514 11.447,15.512 11.997 C 15.510 12.348,15.582 12.556,15.771 12.752 C 16.131 13.123,17.068 13.060,17.341 12.645 C 17.526 12.365,17.565 11.840,17.425 11.507 C 17.262 11.118,16.698 10.906,16.180 11.039 M2.545 15.579 C 2.203 15.701,2.000 16.044,2.000 16.500 C 2.000 17.148,2.344 17.486,3.007 17.488 C 3.429 17.490,3.710 17.360,3.870 17.087 C 3.970 16.917,3.980 16.864,3.980 16.500 C 3.980 16.136,3.970 16.083,3.871 15.914 C 3.709 15.640,3.449 15.519,3.022 15.522 C 2.845 15.523,2.630 15.548,2.545 15.579 M11.545 15.579 C 11.203 15.701,11.000 16.044,11.000 16.500 C 11.000 17.148,11.344 17.486,12.007 17.488 C 12.429 17.490,12.710 17.360,12.870 17.087 C 12.970 16.917,12.980 16.864,12.980 16.500 C 12.980 16.136,12.970 16.083,12.871 15.914 C 12.709 15.640,12.449 15.519,12.022 15.522 C 11.845 15.523,11.630 15.548,11.545 15.579 M2.614 20.055 C 2.220 20.184,2.039 20.437,2.009 20.900 C 1.978 21.381,2.119 21.699,2.442 21.880 C 2.597 21.967,2.669 21.980,3.000 21.980 C 3.312 21.980,3.408 21.964,3.540 21.894 C 3.866 21.718,4.000 21.459,4.000 21.000 C 4.000 20.357,3.713 20.048,3.083 20.016 C 2.893 20.006,2.718 20.021,2.614 20.055 M7.180 20.039 C 6.715 20.159,6.514 20.447,6.512 20.997 C 6.510 21.348,6.582 21.556,6.771 21.752 C 7.131 22.123,8.068 22.060,8.341 21.645 C 8.526 21.365,8.565 20.840,8.425 20.507 C 8.262 20.118,7.698 19.906,7.180 20.039 M11.614 20.055 C 11.220 20.184,11.039 20.437,11.009 20.900 C 10.978 21.381,11.119 21.699,11.442 21.880 C 11.597 21.967,11.669 21.980,12.000 21.980 C 12.312 21.980,12.408 21.964,12.540 21.894 C 12.866 21.718,13.000 21.459,13.000 21.000 C 13.000 20.357,12.713 20.048,12.083 20.016 C 11.893 20.006,11.718 20.021,11.614 20.055 M16.180 20.039 C 15.715 20.159,15.514 20.447,15.512 20.997 C 15.510 21.348,15.582 21.556,15.771 21.752 C 16.131 22.123,17.068 22.060,17.341 21.645 C 17.526 21.365,17.565 20.840,17.425 20.507 C 17.262 20.118,16.698 19.906,16.180 20.039 " stroke="none" fill-rule="evenodd" fill="black"></path></svg>