<svg width="24" height="24" viewBox="0 0 24 24" fill="none" xmlns="http://www.w3.org/2000/svg"><path d="M4.749 2.045 C 3.771 2.139,3.037 2.557,2.527 3.310 C 2.319 3.616,2.219 3.844,2.111 4.260 C 2.033 4.556,2.026 4.715,2.010 6.384 C 1.999 7.598,2.008 8.240,2.037 8.348 C 2.144 8.748,2.430 8.961,2.896 8.991 C 3.381 9.022,3.699 8.882,3.880 8.558 L 3.980 8.380 4.005 6.580 C 4.022 5.351,4.045 4.731,4.078 4.626 C 4.140 4.428,4.428 4.140,4.626 4.078 C 4.732 4.044,5.346 4.021,6.580 4.005 C 8.319 3.981,8.385 3.977,8.540 3.894 C 8.875 3.715,8.978 3.504,8.978 3.000 C 8.978 2.567,8.899 2.356,8.678 2.199 C 8.415 2.012,8.290 2.000,6.644 2.005 C 5.795 2.008,4.942 2.026,4.749 2.045 M15.614 2.057 C 15.223 2.180,15.039 2.436,15.009 2.900 C 14.978 3.381,15.119 3.699,15.442 3.880 L 15.620 3.980 17.420 4.005 C 18.654 4.021,19.268 4.044,19.374 4.078 C 19.572 4.140,19.860 4.428,19.922 4.626 C 19.956 4.732,19.979 5.346,19.995 6.580 L 20.020 8.380 20.120 8.558 C 20.287 8.856,20.572 9.000,21.000 9.000 C 21.428 9.000,21.713 8.856,21.880 8.558 L 21.980 8.380 21.980 6.520 C 21.980 4.848,21.972 4.628,21.906 4.340 C 21.688 3.404,21.167 2.737,20.329 2.321 C 19.792 2.055,19.256 1.999,17.260 2.003 C 16.163 2.005,15.737 2.019,15.614 2.057 M11.400 7.044 C 9.761 7.229,8.261 8.290,7.526 9.785 C 7.158 10.533,7.020 11.136,7.020 12.000 C 7.020 12.670,7.078 13.044,7.268 13.600 C 7.846 15.291,9.253 16.525,11.040 16.907 C 11.511 17.008,12.489 17.008,12.960 16.907 C 14.488 16.580,15.748 15.630,16.433 14.288 C 16.838 13.494,16.980 12.899,16.980 12.000 C 16.980 11.101,16.838 10.506,16.433 9.713 C 15.794 8.461,14.604 7.510,13.240 7.162 C 12.669 7.016,12.019 6.974,11.400 7.044 M12.861 9.129 C 13.804 9.405,14.584 10.183,14.875 11.139 C 14.958 11.412,14.973 11.542,14.973 12.000 C 14.973 12.458,14.958 12.588,14.875 12.861 C 14.588 13.803,13.845 14.555,12.887 14.872 C 12.620 14.961,12.508 14.974,12.020 14.977 C 11.539 14.980,11.418 14.967,11.160 14.886 C 10.180 14.580,9.418 13.822,9.125 12.861 C 9.042 12.588,9.027 12.458,9.027 12.000 C 9.027 11.542,9.042 11.412,9.125 11.139 C 9.456 10.054,10.371 9.245,11.499 9.040 C 11.832 8.980,12.500 9.023,12.861 9.129 M2.614 15.057 C 2.377 15.131,2.212 15.261,2.109 15.453 C 2.021 15.619,2.020 15.632,2.020 17.500 C 2.020 19.320,2.023 19.391,2.111 19.735 C 2.225 20.184,2.379 20.505,2.650 20.858 C 3.033 21.356,3.591 21.716,4.244 21.885 C 4.559 21.967,4.694 21.973,6.383 21.990 C 7.605 22.001,8.238 21.993,8.347 21.964 C 8.583 21.900,8.767 21.760,8.880 21.558 C 8.967 21.402,8.980 21.332,8.979 21.000 C 8.977 20.469,8.850 20.243,8.455 20.072 C 8.371 20.036,7.851 20.016,6.540 20.001 C 4.754 19.980,4.738 19.979,4.550 19.886 C 4.333 19.780,4.139 19.565,4.074 19.360 C 4.046 19.271,4.020 18.559,4.004 17.420 C 3.980 15.661,3.977 15.616,3.891 15.453 C 3.842 15.362,3.746 15.247,3.678 15.199 C 3.414 15.010,2.957 14.950,2.614 15.057 M20.614 15.057 C 20.377 15.131,20.212 15.261,20.109 15.453 C 20.022 15.616,20.019 15.659,19.995 17.420 C 19.980 18.566,19.955 19.271,19.926 19.360 C 19.861 19.565,19.667 19.780,19.450 19.886 C 19.261 19.979,19.247 19.980,17.459 20.000 L 15.658 20.020 15.459 20.122 C 15.119 20.297,14.978 20.606,15.009 21.104 C 15.039 21.571,15.252 21.856,15.653 21.964 C 15.762 21.993,16.395 22.001,17.617 21.990 C 19.280 21.974,19.445 21.966,19.740 21.889 C 20.152 21.782,20.384 21.681,20.679 21.481 C 21.323 21.044,21.722 20.451,21.906 19.660 C 21.972 19.372,21.980 19.152,21.980 17.480 C 21.980 15.633,21.979 15.619,21.891 15.453 C 21.842 15.362,21.746 15.247,21.678 15.199 C 21.414 15.010,20.957 14.950,20.614 15.057 " stroke="none" fill-rule="evenodd" fill="black"></path></svg>