<svg width="24" height="24" viewBox="0 0 24 24" fill="none" xmlns="http://www.w3.org/2000/svg"><path d="M5.920 2.041 C 5.151 2.092,4.672 2.205,4.180 2.451 C 3.089 2.996,2.357 3.961,2.124 5.160 C 2.013 5.729,2.000 6.455,2.000 12.000 C 2.000 18.358,2.006 18.526,2.245 19.320 C 2.577 20.422,3.578 21.423,4.680 21.755 C 5.474 21.994,5.642 22.000,12.000 22.000 C 18.358 22.000,18.526 21.994,19.320 21.755 C 20.422 21.423,21.423 20.422,21.755 19.320 C 21.994 18.526,22.000 18.358,22.000 12.000 C 22.000 5.642,21.994 5.474,21.755 4.680 C 21.424 3.581,20.465 2.622,19.320 2.246 C 18.644 2.024,18.800 2.029,12.340 2.019 C 9.062 2.014,6.173 2.024,5.920 2.041 M18.492 4.091 C 18.894 4.188,19.109 4.309,19.400 4.600 C 19.696 4.895,19.814 5.109,19.912 5.528 C 19.975 5.797,19.980 6.313,19.980 12.000 C 19.980 17.687,19.975 18.203,19.912 18.472 C 19.814 18.891,19.696 19.104,19.400 19.401 C 19.101 19.701,18.820 19.851,18.418 19.928 C 18.010 20.005,5.990 20.005,5.582 19.927 C 5.170 19.850,4.898 19.704,4.600 19.403 C 4.303 19.104,4.186 18.890,4.088 18.472 C 4.025 18.203,4.020 17.687,4.020 12.000 C 4.020 6.313,4.025 5.797,4.088 5.528 C 4.175 5.155,4.294 4.918,4.520 4.667 C 4.883 4.262,5.282 4.091,5.980 4.039 C 6.200 4.023,9.044 4.013,12.300 4.018 C 17.643 4.024,18.247 4.032,18.492 4.091 M11.545 6.579 C 11.203 6.701,11.000 7.044,11.000 7.500 C 11.000 8.148,11.344 8.486,12.007 8.488 C 12.429 8.490,12.710 8.360,12.870 8.087 C 12.970 7.917,12.980 7.864,12.980 7.500 C 12.980 7.136,12.970 7.083,12.871 6.914 C 12.709 6.640,12.449 6.519,12.022 6.522 C 11.845 6.523,11.630 6.548,11.545 6.579 M7.180 11.039 C 6.715 11.159,6.514 11.447,6.512 11.997 C 6.510 12.348,6.582 12.556,6.771 12.752 C 7.131 13.123,8.068 13.060,8.341 12.645 C 8.526 12.365,8.565 11.840,8.425 11.507 C 8.262 11.118,7.698 10.906,7.180 11.039 M11.614 11.055 C 11.220 11.184,11.039 11.437,11.009 11.900 C 10.978 12.381,11.119 12.699,11.442 12.880 C 11.597 12.967,11.669 12.980,12.000 12.980 C 12.312 12.980,12.408 12.964,12.540 12.894 C 12.866 12.718,13.000 12.459,13.000 12.000 C 13.000 11.357,12.713 11.048,12.083 11.016 C 11.893 11.006,11.718 11.021,11.614 11.055 M16.180 11.039 C 15.715 11.159,15.514 11.447,15.512 11.997 C 15.510 12.348,15.582 12.556,15.771 12.752 C 16.131 13.123,17.068 13.060,17.341 12.645 C 17.526 12.365,17.565 11.840,17.425 11.507 C 17.262 11.118,16.698 10.906,16.180 11.039 M11.545 15.579 C 11.203 15.701,11.000 16.044,11.000 16.500 C 11.000 17.148,11.344 17.486,12.007 17.488 C 12.429 17.490,12.710 17.360,12.870 17.087 C 12.970 16.917,12.980 16.864,12.980 16.500 C 12.980 16.136,12.970 16.083,12.871 15.914 C 12.709 15.640,12.449 15.519,12.022 15.522 C 11.845 15.523,11.630 15.548,11.545 15.579 " stroke="none" fill-rule="evenodd" fill="black"></path></svg>