<svg width="24" height="24" viewBox="0 0 24 24" fill="none" xmlns="http://www.w3.org/2000/svg"><path d="M7.614 2.057 C 7.377 2.131,7.212 2.261,7.109 2.453 C 7.021 2.619,7.020 2.633,7.009 4.810 L 6.997 7.000 5.405 7.000 C 3.710 7.000,3.584 7.012,3.322 7.199 C 3.100 7.357,3.020 7.568,3.020 8.000 C 3.020 8.331,3.033 8.403,3.120 8.558 C 3.230 8.755,3.414 8.898,3.635 8.959 C 3.721 8.983,4.435 9.000,5.390 9.000 L 7.000 9.000 7.000 12.000 L 7.000 15.000 5.406 15.000 C 3.710 15.000,3.584 15.012,3.322 15.199 C 3.100 15.357,3.020 15.568,3.020 16.000 C 3.020 16.331,3.033 16.403,3.120 16.558 C 3.230 16.755,3.414 16.898,3.635 16.959 C 3.721 16.983,4.435 17.000,5.390 17.000 L 7.000 17.000 7.000 19.110 C 7.000 20.400,7.016 21.276,7.041 21.365 C 7.148 21.750,7.437 21.962,7.896 21.991 C 8.381 22.022,8.699 21.882,8.880 21.558 L 8.980 21.380 8.992 19.190 L 9.003 17.000 12.002 17.000 L 15.000 17.000 15.000 19.110 C 15.000 20.400,15.016 21.276,15.041 21.365 C 15.148 21.750,15.437 21.962,15.896 21.991 C 16.381 22.022,16.699 21.882,16.880 21.558 L 16.980 21.380 16.992 19.190 L 17.003 17.000 18.612 17.000 C 19.566 17.000,20.279 16.983,20.365 16.959 C 20.586 16.898,20.770 16.755,20.880 16.558 C 20.967 16.402,20.980 16.332,20.979 16.000 C 20.978 15.567,20.898 15.355,20.678 15.199 C 20.416 15.012,20.290 15.000,18.594 15.000 L 17.000 15.000 17.000 12.000 L 17.000 9.000 18.610 9.000 C 19.565 9.000,20.279 8.983,20.365 8.959 C 20.586 8.898,20.770 8.755,20.880 8.558 C 20.967 8.402,20.980 8.332,20.979 8.000 C 20.978 7.567,20.898 7.355,20.678 7.199 C 20.416 7.012,20.290 7.000,18.595 7.000 L 17.003 7.000 16.992 4.810 C 16.980 2.620,16.980 2.620,16.889 2.450 C 16.724 2.140,16.329 1.970,15.874 2.011 C 15.439 2.051,15.141 2.274,15.041 2.635 C 15.016 2.724,15.000 3.600,15.000 4.890 L 15.000 7.000 12.002 7.000 L 9.003 7.000 8.992 4.810 C 8.980 2.633,8.979 2.619,8.891 2.453 C 8.842 2.362,8.746 2.247,8.678 2.199 C 8.414 2.010,7.957 1.950,7.614 2.057 M15.000 12.000 L 15.000 15.000 12.000 15.000 L 9.000 15.000 9.000 12.000 L 9.000 9.000 12.000 9.000 L 15.000 9.000 15.000 12.000 " stroke="none" fill-rule="evenodd" fill="black"></path></svg>