<svg width="24" height="24" viewBox="0 0 24 24" fill="none" xmlns="http://www.w3.org/2000/svg"><path d="M9.040 2.064 C 8.857 2.143,8.730 2.265,8.632 2.456 C 8.576 2.565,8.443 3.265,8.187 4.804 L 7.821 6.997 5.480 7.009 C 2.910 7.021,2.994 7.013,2.752 7.267 C 2.584 7.443,2.513 7.658,2.512 7.997 C 2.510 8.348,2.582 8.556,2.771 8.751 C 3.007 8.995,3.064 9.000,5.387 9.000 C 6.538 9.000,7.480 9.009,7.480 9.021 C 7.480 9.057,6.521 14.814,6.500 14.908 L 6.479 14.997 4.310 15.008 C 1.928 15.021,1.992 15.015,1.752 15.267 C 1.584 15.443,1.513 15.658,1.512 15.997 C 1.510 16.348,1.582 16.556,1.771 16.751 C 2.005 16.992,2.079 17.000,4.230 17.000 C 6.054 17.000,6.164 17.004,6.145 17.070 C 6.134 17.108,5.976 18.042,5.794 19.145 L 5.463 21.151 5.532 21.372 C 5.651 21.748,5.954 21.948,6.463 21.988 C 6.786 22.014,6.981 21.964,7.163 21.812 C 7.402 21.610,7.428 21.507,7.814 19.194 L 8.180 17.000 11.173 17.000 C 14.004 17.000,14.164 17.004,14.145 17.070 C 14.134 17.108,13.976 18.042,13.794 19.145 L 13.463 21.151 13.532 21.372 C 13.651 21.748,13.954 21.948,14.463 21.988 C 14.786 22.014,14.981 21.964,15.163 21.812 C 15.402 21.610,15.428 21.507,15.814 19.194 L 16.180 17.000 17.943 17.000 C 19.905 17.000,19.998 16.990,20.229 16.751 C 20.418 16.556,20.486 16.355,20.486 15.997 C 20.486 15.491,20.303 15.196,19.909 15.064 C 19.746 15.010,19.477 15.000,18.119 15.000 C 17.239 15.000,16.520 14.991,16.520 14.979 C 16.520 14.943,17.479 9.185,17.501 9.090 L 17.522 9.000 19.114 9.000 C 20.889 9.000,21.001 8.987,21.229 8.751 C 21.418 8.556,21.486 8.355,21.486 7.997 C 21.486 7.491,21.303 7.196,20.909 7.064 C 20.747 7.010,20.490 7.000,19.276 7.000 C 17.922 7.000,17.836 6.996,17.855 6.930 C 17.866 6.891,18.024 5.958,18.206 4.855 L 18.537 2.849 18.467 2.626 C 18.378 2.344,18.170 2.156,17.846 2.065 C 17.418 1.945,17.035 1.999,16.807 2.212 C 16.597 2.407,16.563 2.552,16.186 4.806 L 15.820 7.000 12.827 7.000 C 9.996 7.000,9.836 6.996,9.855 6.930 C 9.866 6.891,10.024 5.958,10.206 4.855 L 10.537 2.849 10.467 2.626 C 10.416 2.464,10.354 2.367,10.237 2.267 C 9.957 2.027,9.358 1.926,9.040 2.064 M15.480 9.021 C 15.480 9.057,14.521 14.815,14.499 14.910 L 14.478 15.000 11.499 15.000 C 9.861 15.000,8.520 14.991,8.520 14.979 C 8.520 14.943,9.479 9.185,9.501 9.090 L 9.522 9.000 12.501 9.000 C 14.139 9.000,15.480 9.009,15.480 9.021 " stroke="none" fill-rule="evenodd" fill="black"></path></svg>