<svg width="24" height="24" viewBox="0 0 24 24" fill="none" xmlns="http://www.w3.org/2000/svg"><path d="M3.614 3.057 C 3.377 3.131,3.212 3.261,3.109 3.453 C 3.035 3.592,3.020 3.684,3.020 4.000 C 3.020 4.331,3.033 4.403,3.120 4.558 C 3.230 4.755,3.414 4.898,3.635 4.959 C 3.715 4.981,4.054 5.000,4.390 5.000 L 5.000 5.000 5.000 12.000 L 5.000 19.000 4.406 19.000 C 3.577 19.000,3.300 19.097,3.109 19.453 C 3.035 19.592,3.020 19.684,3.020 20.000 C 3.020 20.331,3.033 20.403,3.120 20.558 C 3.230 20.755,3.414 20.898,3.635 20.959 C 3.831 21.014,8.169 21.014,8.365 20.959 C 8.586 20.898,8.770 20.755,8.880 20.558 C 8.967 20.402,8.980 20.332,8.979 20.000 C 8.978 19.687,8.962 19.591,8.890 19.453 C 8.702 19.097,8.424 19.000,7.594 19.000 L 7.000 19.000 7.000 16.000 L 7.000 13.000 12.000 13.000 L 17.000 13.000 17.000 16.000 L 17.000 19.000 16.406 19.000 C 15.577 19.000,15.300 19.097,15.109 19.453 C 15.035 19.592,15.020 19.684,15.020 20.000 C 15.020 20.331,15.033 20.403,15.120 20.558 C 15.230 20.755,15.414 20.898,15.635 20.959 C 15.831 21.014,20.169 21.014,20.365 20.959 C 20.586 20.898,20.770 20.755,20.880 20.558 C 20.967 20.402,20.980 20.332,20.979 20.000 C 20.978 19.687,20.962 19.591,20.890 19.453 C 20.702 19.097,20.424 19.000,19.594 19.000 L 19.000 19.000 19.000 12.000 L 19.000 5.000 19.610 5.000 C 19.945 5.000,20.285 4.981,20.365 4.959 C 20.586 4.898,20.770 4.755,20.880 4.558 C 20.967 4.402,20.980 4.332,20.979 4.000 C 20.978 3.567,20.898 3.355,20.678 3.199 C 20.407 3.005,20.333 3.000,18.000 3.000 C 15.667 3.000,15.593 3.005,15.322 3.199 C 15.100 3.357,15.020 3.568,15.020 4.000 C 15.020 4.331,15.033 4.403,15.120 4.558 C 15.230 4.755,15.414 4.898,15.635 4.959 C 15.715 4.981,16.055 5.000,16.390 5.000 L 17.000 5.000 17.000 8.000 L 17.000 11.000 12.000 11.000 L 7.000 11.000 7.000 8.000 L 7.000 5.000 7.610 5.000 C 7.946 5.000,8.285 4.981,8.365 4.959 C 8.586 4.898,8.770 4.755,8.880 4.558 C 8.967 4.402,8.980 4.332,8.979 4.000 C 8.978 3.567,8.898 3.355,8.678 3.199 C 8.406 3.005,8.336 3.000,5.984 3.003 C 4.293 3.005,3.741 3.017,3.614 3.057 " stroke="none" fill-rule="evenodd" fill="black"></path></svg>