<svg width="24" height="24" viewBox="0 0 24 24" fill="none" xmlns="http://www.w3.org/2000/svg"><path d="M3.614 3.057 C 3.377 3.131,3.212 3.261,3.109 3.453 C 3.035 3.592,3.020 3.684,3.020 4.000 C 3.020 4.331,3.033 4.403,3.120 4.558 C 3.230 4.755,3.414 4.898,3.635 4.959 C 3.715 4.981,4.054 5.000,4.390 5.000 L 5.000 5.000 5.000 12.000 L 5.000 19.000 4.406 19.000 C 3.577 19.000,3.300 19.097,3.109 19.453 C 3.035 19.592,3.020 19.684,3.020 20.000 C 3.020 20.331,3.033 20.403,3.120 20.558 C 3.230 20.755,3.414 20.898,3.635 20.959 C 3.728 20.985,5.211 21.000,7.743 21.000 C 12.120 21.000,11.981 21.008,12.229 20.751 C 12.418 20.556,12.486 20.355,12.486 19.997 C 12.486 19.491,12.303 19.196,11.909 19.064 C 11.767 19.017,11.560 19.000,11.119 19.000 L 10.520 19.000 10.520 16.000 L 10.520 13.000 13.760 13.000 L 17.000 13.000 17.000 16.000 L 17.000 19.000 16.406 19.000 C 15.577 19.000,15.300 19.097,15.109 19.453 C 15.035 19.592,15.020 19.684,15.020 20.000 C 15.020 20.331,15.033 20.403,15.120 20.558 C 15.230 20.755,15.414 20.898,15.635 20.959 C 15.831 21.014,20.169 21.014,20.365 20.959 C 20.586 20.898,20.770 20.755,20.880 20.558 C 20.967 20.402,20.980 20.332,20.979 20.000 C 20.978 19.687,20.962 19.591,20.890 19.453 C 20.702 19.097,20.424 19.000,19.594 19.000 L 19.000 19.000 19.000 12.000 L 19.000 5.000 19.610 5.000 C 19.945 5.000,20.285 4.981,20.365 4.959 C 20.586 4.898,20.770 4.755,20.880 4.558 C 20.967 4.402,20.980 4.332,20.979 4.000 C 20.978 3.567,20.898 3.355,20.678 3.199 C 20.407 3.005,20.333 3.000,18.000 3.000 C 15.667 3.000,15.593 3.005,15.322 3.199 C 15.100 3.357,15.020 3.568,15.020 4.000 C 15.020 4.331,15.033 4.403,15.120 4.558 C 15.230 4.755,15.414 4.898,15.635 4.959 C 15.715 4.981,16.055 5.000,16.390 5.000 L 17.000 5.000 17.000 8.000 L 17.000 11.000 13.760 11.000 L 10.520 11.000 10.520 8.000 L 10.520 5.000 11.113 5.000 C 11.806 5.000,12.038 4.948,12.229 4.751 C 12.418 4.556,12.486 4.355,12.486 3.997 C 12.486 3.491,12.303 3.196,11.909 3.064 C 11.738 3.007,11.283 3.000,7.749 3.003 C 4.609 3.005,3.745 3.016,3.614 3.057 M8.480 12.000 L 8.480 19.000 7.740 19.000 L 7.000 19.000 7.000 12.000 L 7.000 5.000 7.740 5.000 L 8.480 5.000 8.480 12.000 " stroke="none" fill-rule="evenodd" fill="black"></path></svg>