<svg width="24" height="24" viewBox="0 0 24 24" fill="none" xmlns="http://www.w3.org/2000/svg"><path d="M11.280 2.023 C 11.203 2.032,10.951 2.059,10.720 2.083 C 8.832 2.283,6.991 3.023,5.360 4.235 C 4.751 4.688,3.684 5.755,3.226 6.367 C 1.976 8.042,1.220 10.001,1.043 12.020 C 0.988 12.645,0.986 17.169,1.041 17.365 C 1.148 17.750,1.437 17.962,1.896 17.991 C 2.381 18.022,2.699 17.882,2.880 17.558 L 2.980 17.380 3.004 14.740 C 3.030 11.894,3.037 11.785,3.267 10.840 C 3.566 9.610,4.173 8.384,4.987 7.369 C 6.206 5.847,7.963 4.724,9.840 4.267 C 10.603 4.081,11.112 4.023,12.000 4.023 C 13.493 4.023,14.621 4.280,15.940 4.920 C 18.328 6.077,20.111 8.280,20.733 10.840 C 20.963 11.786,20.971 11.894,20.996 14.740 L 21.020 17.380 21.120 17.558 C 21.287 17.856,21.572 18.000,22.000 18.000 C 22.428 18.000,22.713 17.856,22.880 17.558 L 22.980 17.380 22.993 15.020 C 23.001 13.484,22.990 12.464,22.960 12.100 C 22.790 10.025,22.044 8.070,20.770 6.363 C 20.316 5.755,19.247 4.686,18.640 4.235 C 17.045 3.049,15.365 2.360,13.423 2.096 C 13.000 2.038,11.574 1.990,11.280 2.023 M6.873 12.060 C 6.136 12.200,5.468 12.565,4.958 13.105 C 4.562 13.525,4.318 13.949,4.131 14.548 L 4.020 14.900 4.020 17.000 L 4.020 19.100 4.131 19.452 C 4.594 20.930,5.809 21.902,7.300 21.987 C 8.322 22.046,9.223 21.698,9.960 20.960 C 10.516 20.404,10.836 19.786,10.959 19.031 C 11.012 18.700,11.012 15.300,10.959 14.969 C 10.736 13.596,9.713 12.466,8.378 12.118 C 7.959 12.009,7.280 11.983,6.873 12.060 M15.873 12.060 C 15.136 12.200,14.468 12.565,13.958 13.105 C 13.562 13.525,13.318 13.949,13.131 14.548 L 13.020 14.900 13.020 17.000 L 13.020 19.100 13.131 19.452 C 13.594 20.930,14.809 21.902,16.300 21.987 C 17.322 22.046,18.223 21.698,18.960 20.960 C 19.516 20.404,19.836 19.786,19.959 19.031 C 20.012 18.700,20.012 15.300,19.959 14.969 C 19.736 13.596,18.713 12.466,17.378 12.118 C 16.959 12.009,16.280 11.983,15.873 12.060 M8.119 14.143 C 8.415 14.278,8.727 14.592,8.867 14.896 L 8.980 15.140 8.980 17.000 L 8.980 18.860 8.867 19.104 C 8.724 19.413,8.415 19.721,8.100 19.868 C 7.893 19.965,7.810 19.980,7.500 19.980 C 7.190 19.980,7.107 19.965,6.900 19.868 C 6.585 19.721,6.276 19.413,6.133 19.104 L 6.020 18.860 6.020 17.000 L 6.020 15.140 6.132 14.900 C 6.329 14.477,6.750 14.129,7.174 14.039 C 7.441 13.982,7.870 14.030,8.119 14.143 M17.119 14.143 C 17.415 14.278,17.727 14.592,17.867 14.896 L 17.980 15.140 17.980 17.000 L 17.980 18.860 17.867 19.104 C 17.724 19.413,17.415 19.721,17.100 19.868 C 16.893 19.965,16.810 19.980,16.500 19.980 C 16.190 19.980,16.107 19.965,15.900 19.868 C 15.585 19.721,15.276 19.413,15.133 19.104 L 15.020 18.860 15.020 17.000 L 15.020 15.140 15.132 14.900 C 15.329 14.477,15.750 14.129,16.174 14.039 C 16.441 13.982,16.870 14.030,17.119 14.143 " stroke="none" fill-rule="evenodd" fill="black"></path></svg>