<svg width="24" height="24" viewBox="0 0 24 24" fill="none" xmlns="http://www.w3.org/2000/svg"><path d="M11.740 1.056 C 10.687 1.211,9.792 1.649,8.979 2.409 C 8.812 2.565,8.593 2.799,8.493 2.930 C 8.366 3.094,8.290 3.160,8.245 3.146 C 8.209 3.134,8.018 3.068,7.820 2.999 C 6.736 2.620,5.463 2.615,4.431 2.986 C 2.322 3.743,0.894 5.971,1.012 8.320 C 1.087 9.808,1.798 11.244,2.923 12.181 C 3.361 12.545,4.000 12.976,4.860 13.487 C 5.423 13.822,5.795 14.033,6.840 14.610 L 7.100 14.753 7.254 15.367 C 7.694 17.112,9.096 21.638,9.360 22.161 C 9.422 22.282,9.564 22.468,9.677 22.573 C 10.157 23.022,10.490 23.052,11.860 22.766 C 15.961 21.912,18.814 21.148,19.899 20.613 C 21.459 19.843,22.525 18.463,22.885 16.748 C 22.998 16.212,23.005 15.348,22.902 14.800 C 22.392 12.096,20.261 10.364,17.600 10.491 C 17.347 10.503,17.109 10.525,17.071 10.541 C 17.019 10.561,16.991 10.541,16.961 10.462 C 16.939 10.404,16.873 10.256,16.815 10.134 L 16.710 9.911 17.034 9.245 C 17.586 8.112,17.770 7.410,17.771 6.440 C 17.771 5.799,17.693 5.309,17.498 4.725 C 17.213 3.873,16.836 3.269,16.183 2.618 C 15.402 1.840,14.509 1.351,13.436 1.117 C 12.977 1.017,12.197 0.989,11.740 1.056 M13.180 3.100 C 13.523 3.192,14.176 3.519,14.484 3.753 C 15.182 4.283,15.647 5.130,15.762 6.083 C 15.835 6.678,15.723 7.314,15.432 7.966 L 15.313 8.232 15.066 8.061 C 14.553 7.704,13.878 7.421,13.231 7.293 C 12.768 7.201,11.814 7.202,11.341 7.295 C 10.550 7.451,9.820 7.752,9.162 8.193 C 8.769 8.457,8.143 9.059,7.846 9.460 C 7.359 10.115,6.842 11.447,6.839 12.053 C 6.838 12.321,6.813 12.316,6.134 11.920 C 4.732 11.102,4.022 10.570,3.662 10.065 C 3.208 9.427,3.024 8.838,3.024 8.020 C 3.025 7.394,3.089 7.099,3.341 6.568 C 3.871 5.448,4.660 4.849,5.770 4.723 C 6.535 4.637,7.277 4.826,8.011 5.296 C 8.399 5.544,8.778 5.621,9.051 5.506 C 9.234 5.430,9.439 5.187,9.642 4.805 C 9.864 4.388,10.170 4.000,10.490 3.727 C 10.794 3.468,11.438 3.146,11.820 3.063 C 12.162 2.988,12.830 3.006,13.180 3.100 M13.171 9.333 C 13.342 9.388,13.603 9.504,13.751 9.592 C 14.044 9.766,14.560 10.216,14.560 10.298 C 14.560 10.326,14.633 10.431,14.722 10.532 C 14.936 10.776,15.132 11.210,15.262 11.728 C 15.504 12.697,15.861 12.925,16.723 12.665 C 17.239 12.510,17.564 12.467,18.057 12.491 C 19.479 12.558,20.542 13.489,20.902 14.980 C 21.001 15.391,20.992 16.127,20.885 16.540 C 20.779 16.943,20.506 17.501,20.246 17.844 C 19.594 18.706,18.707 19.095,15.660 19.856 C 14.241 20.210,11.235 20.880,11.063 20.880 C 11.022 20.880,10.911 20.590,10.685 19.890 C 9.717 16.891,9.109 14.747,9.040 14.093 C 9.021 13.914,8.978 13.713,8.944 13.647 C 8.910 13.582,8.860 13.321,8.834 13.068 C 8.722 11.992,9.022 11.095,9.758 10.310 C 10.312 9.718,10.965 9.379,11.820 9.238 C 12.180 9.178,12.828 9.224,13.171 9.333 " stroke="none" fill-rule="evenodd" fill="black"></path></svg>