<svg width="24" height="24" viewBox="0 0 24 24" fill="none" xmlns="http://www.w3.org/2000/svg"><path d="M7.980 1.027 C 7.769 1.057,7.471 1.168,7.242 1.303 C 7.084 1.397,6.196 2.260,4.172 4.287 C 1.715 6.749,1.310 7.170,1.224 7.360 C 0.992 7.869,1.000 7.713,1.000 12.000 C 1.000 16.286,0.992 16.131,1.224 16.640 C 1.310 16.830,1.715 17.252,4.232 19.768 C 6.748 22.285,7.170 22.690,7.360 22.776 C 7.869 23.008,7.714 23.000,12.000 23.000 C 16.286 23.000,16.131 23.008,16.640 22.776 C 16.830 22.690,17.252 22.285,19.768 19.768 C 22.285 17.252,22.690 16.830,22.776 16.640 C 23.008 16.131,23.000 16.286,23.000 12.000 C 23.000 7.713,23.008 7.869,22.776 7.360 C 22.690 7.170,22.285 6.749,19.828 4.287 C 16.926 1.381,16.816 1.280,16.340 1.098 C 16.148 1.024,15.981 1.021,12.120 1.016 C 9.909 1.013,8.046 1.018,7.980 1.027 M18.370 5.630 L 21.000 8.260 21.000 12.000 L 21.000 15.740 18.370 18.370 L 15.740 21.000 12.000 21.000 L 8.260 21.000 5.630 18.370 L 3.000 15.740 3.000 12.000 L 3.000 8.260 5.630 5.630 L 8.260 3.000 12.000 3.000 L 15.740 3.000 18.370 5.630 M11.300 6.042 C 10.776 6.123,10.157 6.374,9.640 6.715 C 8.747 7.304,7.966 8.590,8.087 9.274 C 8.147 9.619,8.441 9.864,8.938 9.987 C 9.167 10.043,9.239 10.046,9.395 10.005 C 9.662 9.934,9.883 9.701,10.041 9.327 C 10.199 8.950,10.341 8.741,10.592 8.515 C 11.209 7.960,12.025 7.847,12.800 8.210 C 13.148 8.373,13.544 8.773,13.714 9.133 C 13.856 9.434,13.940 9.886,13.902 10.143 C 13.806 10.781,12.995 11.477,11.739 12.000 C 11.012 12.302,10.815 12.565,10.920 13.097 C 11.053 13.772,11.459 14.110,12.008 14.002 C 12.590 13.887,13.617 13.370,14.292 12.851 C 15.449 11.961,15.970 10.971,15.908 9.781 C 15.855 8.770,15.469 7.907,14.742 7.175 C 14.219 6.648,13.619 6.306,12.889 6.117 C 12.530 6.024,11.672 5.984,11.300 6.042 M11.614 16.055 C 11.220 16.184,11.039 16.437,11.009 16.900 C 10.978 17.381,11.119 17.699,11.442 17.880 C 11.597 17.967,11.669 17.980,12.000 17.980 C 12.312 17.980,12.408 17.964,12.540 17.894 C 12.866 17.718,13.000 17.459,13.000 17.000 C 13.000 16.357,12.713 16.048,12.083 16.016 C 11.893 16.006,11.718 16.021,11.614 16.055 " stroke="none" fill-rule="evenodd" fill="black"></path></svg>