<svg width="24" height="24" viewBox="0 0 24 24" fill="none" xmlns="http://www.w3.org/2000/svg"><path d="M11.280 1.023 C 11.203 1.032,10.951 1.059,10.720 1.083 C 9.527 1.210,8.337 1.558,7.180 2.120 C 6.045 2.671,5.193 3.285,4.238 4.239 C 3.277 5.198,2.643 6.080,2.097 7.220 C 0.301 10.968,0.728 15.286,3.226 18.633 C 3.701 19.269,4.753 20.316,5.400 20.797 C 9.364 23.745,14.666 23.734,18.637 20.770 C 19.246 20.316,20.316 19.246,20.770 18.637 C 23.744 14.652,23.744 9.348,20.770 5.363 C 20.316 4.755,19.247 3.686,18.640 3.235 C 17.045 2.049,15.365 1.360,13.423 1.096 C 13.000 1.038,11.574 0.990,11.280 1.023 M13.320 3.101 C 15.883 3.488,18.124 4.931,19.560 7.120 C 19.863 7.583,20.303 8.479,20.492 9.020 C 20.838 10.013,20.977 10.865,20.977 12.000 C 20.977 13.493,20.720 14.621,20.080 15.940 C 19.375 17.394,18.311 18.607,16.927 19.532 C 16.138 20.060,14.876 20.588,13.908 20.797 C 11.266 21.366,8.479 20.708,6.370 19.019 C 4.857 17.807,3.722 16.029,3.267 14.160 C 3.081 13.397,3.023 12.888,3.023 12.000 C 3.023 10.507,3.280 9.379,3.920 8.060 C 4.971 5.891,6.877 4.221,9.160 3.466 C 9.865 3.233,10.432 3.118,11.340 3.024 C 11.662 2.991,12.911 3.039,13.320 3.101 M11.300 6.042 C 10.776 6.123,10.157 6.374,9.640 6.715 C 8.747 7.304,7.966 8.590,8.087 9.274 C 8.147 9.619,8.441 9.864,8.938 9.987 C 9.167 10.043,9.239 10.046,9.395 10.005 C 9.662 9.934,9.883 9.701,10.041 9.327 C 10.199 8.950,10.341 8.741,10.592 8.515 C 11.209 7.960,12.025 7.847,12.800 8.210 C 13.148 8.373,13.544 8.773,13.714 9.133 C 13.856 9.434,13.940 9.886,13.902 10.143 C 13.806 10.781,12.995 11.477,11.739 12.000 C 11.012 12.302,10.815 12.565,10.920 13.097 C 11.053 13.772,11.459 14.110,12.008 14.002 C 12.590 13.887,13.617 13.370,14.292 12.851 C 15.449 11.961,15.970 10.971,15.908 9.781 C 15.855 8.770,15.469 7.907,14.742 7.175 C 14.219 6.648,13.619 6.306,12.889 6.117 C 12.530 6.024,11.672 5.984,11.300 6.042 M11.614 16.055 C 11.220 16.184,11.039 16.437,11.009 16.900 C 10.978 17.381,11.119 17.699,11.442 17.880 C 11.597 17.967,11.669 17.980,12.000 17.980 C 12.312 17.980,12.408 17.964,12.540 17.894 C 12.866 17.718,13.000 17.459,13.000 17.000 C 13.000 16.357,12.713 16.048,12.083 16.016 C 11.893 16.006,11.718 16.021,11.614 16.055 " stroke="none" fill-rule="evenodd" fill="black"></path></svg>