<svg width="24" height="24" viewBox="0 0 24 24" fill="none" xmlns="http://www.w3.org/2000/svg"><path d="M11.419 1.241 C 11.167 1.321,3.165 5.742,2.836 5.983 C 2.414 6.292,2.159 6.676,2.058 7.155 C 1.974 7.548,1.974 16.452,2.058 16.845 C 2.171 17.381,2.492 17.813,3.018 18.139 C 3.538 18.461,11.086 22.636,11.314 22.729 C 11.504 22.805,11.614 22.820,12.000 22.820 C 12.386 22.820,12.496 22.805,12.686 22.729 C 12.914 22.636,20.462 18.461,20.982 18.139 C 21.322 17.928,21.633 17.609,21.779 17.322 C 22.002 16.881,21.999 16.969,21.999 12.000 C 21.999 7.036,22.002 7.118,21.781 6.681 C 21.657 6.438,21.424 6.173,21.164 5.983 C 20.808 5.722,12.833 1.321,12.568 1.239 C 12.233 1.136,11.748 1.137,11.419 1.241 M16.004 5.370 L 19.980 7.580 19.990 11.985 C 19.998 15.479,19.990 16.398,19.950 16.431 C 19.869 16.497,12.039 20.840,12.000 20.840 C 11.961 20.840,4.131 16.497,4.050 16.431 C 4.010 16.398,4.002 15.479,4.010 11.985 L 4.020 7.580 7.996 5.370 C 10.184 4.154,11.985 3.160,12.000 3.160 C 12.015 3.160,13.816 4.154,16.004 5.370 M11.300 6.042 C 10.776 6.123,10.157 6.374,9.640 6.715 C 8.747 7.304,7.966 8.590,8.087 9.274 C 8.147 9.619,8.441 9.864,8.938 9.987 C 9.167 10.043,9.239 10.046,9.395 10.005 C 9.662 9.934,9.883 9.701,10.041 9.327 C 10.199 8.950,10.341 8.741,10.592 8.515 C 11.209 7.960,12.025 7.847,12.800 8.210 C 13.148 8.373,13.544 8.773,13.714 9.133 C 13.856 9.434,13.940 9.886,13.902 10.143 C 13.806 10.781,12.995 11.477,11.739 12.000 C 11.012 12.302,10.815 12.565,10.920 13.097 C 11.053 13.772,11.459 14.110,12.008 14.002 C 12.590 13.887,13.617 13.370,14.292 12.851 C 15.449 11.961,15.970 10.971,15.908 9.781 C 15.855 8.770,15.469 7.907,14.742 7.175 C 14.219 6.648,13.619 6.306,12.889 6.117 C 12.530 6.024,11.672 5.984,11.300 6.042 M11.614 16.055 C 11.220 16.184,11.039 16.437,11.009 16.900 C 10.978 17.381,11.119 17.699,11.442 17.880 C 11.597 17.967,11.669 17.980,12.000 17.980 C 12.312 17.980,12.408 17.964,12.540 17.894 C 12.866 17.718,13.000 17.459,13.000 17.000 C 13.000 16.357,12.713 16.048,12.083 16.016 C 11.893 16.006,11.718 16.021,11.614 16.055 " stroke="none" fill-rule="evenodd" fill="black"></path></svg>