<svg width="24" height="24" viewBox="0 0 24 24" fill="none" xmlns="http://www.w3.org/2000/svg"><path d="M2.614 1.057 C 2.377 1.131,2.212 1.261,2.109 1.453 L 2.020 1.620 2.010 11.915 C 2.003 18.722,2.013 22.260,2.040 22.359 C 2.144 22.747,2.435 22.962,2.896 22.991 C 3.381 23.022,3.699 22.882,3.880 22.558 C 3.977 22.385,3.980 22.356,3.993 21.451 L 4.006 20.522 12.153 20.510 C 19.600 20.498,20.318 20.491,20.515 20.431 C 21.193 20.222,21.659 19.781,21.895 19.124 C 21.971 18.915,21.977 18.783,21.991 17.188 C 22.000 16.088,21.990 15.372,21.962 15.188 C 21.858 14.492,21.356 13.878,20.687 13.626 C 20.477 13.547,20.370 13.540,19.230 13.528 L 18.000 13.515 18.000 11.967 C 18.000 11.116,17.981 10.303,17.959 10.160 C 17.854 9.490,17.343 8.873,16.687 8.626 C 16.477 8.547,16.370 8.540,15.230 8.528 L 14.000 8.515 14.000 6.967 C 14.000 6.116,13.981 5.303,13.959 5.160 C 13.854 4.490,13.344 3.875,12.687 3.626 C 12.461 3.540,12.445 3.540,8.233 3.529 L 4.006 3.518 3.993 2.569 C 3.981 1.678,3.974 1.610,3.891 1.453 C 3.842 1.362,3.746 1.247,3.678 1.199 C 3.414 1.010,2.957 0.950,2.614 1.057 M12.000 7.020 L 12.000 8.520 8.000 8.520 L 4.000 8.520 4.000 7.020 L 4.000 5.520 8.000 5.520 L 12.000 5.520 12.000 7.020 M16.000 12.020 L 16.000 13.520 10.000 13.520 L 4.000 13.520 4.000 12.020 L 4.000 10.520 10.000 10.520 L 16.000 10.520 16.000 12.020 M20.000 16.995 L 20.000 18.470 19.875 18.495 C 19.806 18.509,16.206 18.520,11.875 18.520 L 4.000 18.520 4.000 17.020 L 4.000 15.520 12.000 15.520 L 20.000 15.520 20.000 16.995 " stroke="none" fill-rule="evenodd" fill="black"></path></svg>