<svg width="24" height="24" viewBox="0 0 24 24" fill="none" xmlns="http://www.w3.org/2000/svg"><path d="M2.614 1.057 C 2.377 1.131,2.212 1.261,2.109 1.453 L 2.020 1.620 2.010 11.915 C 2.003 18.722,2.013 22.260,2.040 22.359 C 2.144 22.747,2.435 22.962,2.896 22.991 C 3.381 23.022,3.699 22.882,3.880 22.558 C 3.977 22.385,3.980 22.356,3.993 21.452 L 4.006 20.524 8.153 20.510 C 11.841 20.497,12.324 20.488,12.515 20.430 C 13.189 20.225,13.658 19.782,13.895 19.124 C 13.971 18.916,13.977 18.783,13.991 17.213 L 14.005 15.526 17.153 15.510 C 19.899 15.496,20.327 15.485,20.515 15.429 C 21.187 15.228,21.658 14.782,21.895 14.124 C 21.971 13.915,21.977 13.783,21.991 12.188 C 22.000 11.088,21.990 10.372,21.962 10.188 C 21.858 9.492,21.356 8.878,20.687 8.626 C 20.477 8.547,20.370 8.540,19.230 8.528 L 18.000 8.515 18.000 6.967 C 18.000 6.116,17.981 5.303,17.959 5.160 C 17.854 4.490,17.344 3.875,16.687 3.626 L 16.460 3.540 10.233 3.529 L 4.006 3.519 3.993 2.569 C 3.981 1.678,3.974 1.610,3.891 1.453 C 3.842 1.362,3.746 1.247,3.678 1.199 C 3.414 1.010,2.957 0.950,2.614 1.057 M16.000 7.020 L 16.000 8.520 10.000 8.520 L 4.000 8.520 4.000 7.020 L 4.000 5.520 10.000 5.520 L 16.000 5.520 16.000 7.020 M20.000 11.995 L 20.000 13.470 19.875 13.495 C 19.806 13.509,16.206 13.520,11.875 13.520 L 4.000 13.520 4.000 12.020 L 4.000 10.520 12.000 10.520 L 20.000 10.520 20.000 11.995 M12.000 16.995 L 12.000 18.470 11.875 18.495 C 11.806 18.509,10.006 18.520,7.875 18.520 L 4.000 18.520 4.000 17.020 L 4.000 15.520 8.000 15.520 L 12.000 15.520 12.000 16.995 " stroke="none" fill-rule="evenodd" fill="black"></path></svg>