<svg width="24" height="24" viewBox="0 0 24 24" fill="none" xmlns="http://www.w3.org/2000/svg"><path d="M3.614 1.057 C 3.377 1.131,3.212 1.261,3.109 1.453 C 3.035 1.592,3.020 1.684,3.020 2.000 C 3.020 2.331,3.033 2.403,3.120 2.558 C 3.230 2.755,3.414 2.898,3.635 2.959 C 3.715 2.981,4.054 3.000,4.390 3.000 L 5.000 3.000 5.000 4.391 C 5.000 5.156,5.019 5.932,5.042 6.114 C 5.114 6.693,5.365 7.358,5.692 7.840 C 5.946 8.214,6.478 8.696,8.410 10.307 C 9.505 11.220,10.400 11.982,10.400 12.000 C 10.400 12.018,9.540 12.749,8.490 13.623 C 6.465 15.310,6.015 15.715,5.740 16.100 C 5.377 16.608,5.119 17.268,5.042 17.886 C 5.019 18.068,5.000 18.844,5.000 19.609 L 5.000 21.000 4.406 21.000 C 3.577 21.000,3.300 21.097,3.109 21.453 C 3.035 21.592,3.020 21.684,3.020 22.000 C 3.020 22.331,3.033 22.403,3.120 22.558 C 3.230 22.755,3.414 22.898,3.635 22.959 C 3.835 23.015,20.165 23.015,20.365 22.959 C 20.586 22.898,20.770 22.755,20.880 22.558 C 20.967 22.402,20.980 22.332,20.979 22.000 C 20.978 21.687,20.962 21.591,20.890 21.453 C 20.702 21.097,20.424 21.000,19.594 21.000 L 19.000 21.000 19.000 19.609 C 19.000 18.844,18.981 18.068,18.958 17.886 C 18.881 17.268,18.623 16.608,18.260 16.100 C 17.985 15.715,17.535 15.310,15.510 13.623 C 14.460 12.749,13.600 12.018,13.600 12.000 C 13.600 11.982,14.495 11.220,15.590 10.307 C 17.522 8.696,18.054 8.214,18.308 7.840 C 18.635 7.358,18.886 6.693,18.958 6.114 C 18.981 5.932,19.000 5.156,19.000 4.391 L 19.000 3.000 19.610 3.000 C 19.945 3.000,20.285 2.981,20.365 2.959 C 20.586 2.898,20.770 2.755,20.880 2.558 C 20.967 2.402,20.980 2.332,20.979 2.000 C 20.978 1.567,20.898 1.355,20.678 1.199 C 20.386 0.990,20.799 1.000,11.984 1.003 C 5.367 1.005,3.748 1.015,3.614 1.057 M16.997 4.250 C 16.994 5.871,16.974 6.074,16.782 6.463 C 16.672 6.686,16.558 6.837,16.347 7.041 C 16.052 7.325,12.044 10.680,12.000 10.680 C 11.955 10.680,7.946 7.322,7.646 7.033 C 7.421 6.817,7.318 6.680,7.209 6.451 C 7.026 6.065,7.006 5.849,7.003 4.250 L 7.000 3.000 12.000 3.000 L 17.000 3.000 16.997 4.250 M14.042 15.002 C 16.450 17.008,16.581 17.130,16.782 17.537 C 16.974 17.926,16.994 18.129,16.997 19.750 L 17.000 21.000 12.000 21.000 L 7.000 21.000 7.003 19.750 C 7.006 18.151,7.026 17.935,7.209 17.549 C 7.318 17.320,7.421 17.183,7.646 16.967 C 7.946 16.678,11.955 13.320,12.000 13.320 C 12.014 13.320,12.933 14.077,14.042 15.002 " stroke="none" fill-rule="evenodd" fill="black"></path></svg>