<svg width="24" height="24" viewBox="0 0 24 24" fill="none" xmlns="http://www.w3.org/2000/svg"><path d="M5.686 1.041 C 5.070 1.132,4.487 1.551,4.222 2.093 C 4.008 2.529,3.993 2.725,4.011 4.800 C 4.025 6.463,4.035 6.730,4.097 6.939 C 4.196 7.277,4.373 7.652,4.547 7.893 C 4.629 8.007,5.569 8.977,6.636 10.050 L 8.576 12.000 6.636 13.950 C 5.569 15.023,4.629 15.993,4.547 16.107 C 4.373 16.348,4.196 16.723,4.097 17.061 C 4.035 17.270,4.025 17.537,4.011 19.200 C 3.993 21.284,4.008 21.468,4.227 21.919 C 4.366 22.205,4.795 22.634,5.081 22.773 C 5.562 23.007,5.308 22.999,12.000 22.999 C 18.700 22.999,18.443 23.007,18.919 22.771 C 19.203 22.630,19.630 22.203,19.771 21.919 C 19.992 21.473,20.007 21.288,19.989 19.200 C 19.975 17.537,19.965 17.270,19.903 17.061 C 19.804 16.723,19.627 16.348,19.453 16.107 C 19.371 15.993,18.431 15.023,17.364 13.950 L 15.424 12.000 17.364 10.050 C 18.431 8.977,19.371 8.007,19.453 7.893 C 19.627 7.652,19.804 7.277,19.903 6.939 C 19.965 6.730,19.975 6.463,19.989 4.800 C 20.003 3.189,19.996 2.855,19.943 2.601 C 19.793 1.882,19.341 1.367,18.635 1.112 L 18.380 1.020 12.140 1.015 C 8.708 1.011,5.804 1.023,5.686 1.041 M17.992 4.730 C 17.981 6.328,17.974 6.471,17.905 6.600 C 17.864 6.677,16.944 7.631,15.860 8.720 C 14.558 10.028,13.835 10.784,13.731 10.947 C 13.322 11.583,13.322 12.417,13.731 13.053 C 13.835 13.216,14.558 13.972,15.860 15.280 C 16.944 16.369,17.864 17.323,17.905 17.400 C 17.974 17.529,17.981 17.672,17.992 19.270 L 18.004 21.000 12.000 21.000 L 5.996 21.000 6.008 19.270 C 6.019 17.672,6.026 17.529,6.095 17.400 C 6.136 17.323,7.056 16.369,8.140 15.280 C 9.442 13.972,10.165 13.216,10.269 13.053 C 10.678 12.417,10.678 11.583,10.269 10.947 C 10.165 10.784,9.442 10.028,8.140 8.720 C 7.056 7.631,6.136 6.677,6.095 6.600 C 6.026 6.471,6.019 6.328,6.008 4.730 L 5.996 3.000 12.000 3.000 L 18.004 3.000 17.992 4.730 M8.545 17.579 C 8.320 17.659,8.128 17.863,8.059 18.096 C 7.928 18.536,8.019 19.019,8.275 19.251 C 8.562 19.510,8.414 19.500,12.000 19.500 C 15.586 19.500,15.438 19.510,15.725 19.251 C 15.982 19.018,16.072 18.536,15.940 18.092 C 15.868 17.852,15.645 17.627,15.413 17.563 C 15.311 17.534,14.174 17.521,11.980 17.522 C 9.294 17.523,8.672 17.534,8.545 17.579 " stroke="none" fill-rule="evenodd" fill="black"></path></svg>