<svg width="24" height="24" viewBox="0 0 24 24" fill="none" xmlns="http://www.w3.org/2000/svg"><path d="M13.340 3.024 C 12.026 3.160,11.091 3.415,10.060 3.918 C 8.244 4.804,6.840 6.202,5.939 8.020 C 5.023 9.867,4.767 11.964,5.236 13.786 C 5.866 16.236,7.930 18.247,10.380 18.800 C 10.933 18.925,10.938 18.929,10.600 18.970 C 10.226 19.015,9.331 18.981,8.880 18.905 C 6.359 18.482,4.282 16.758,3.427 14.380 C 3.167 13.657,3.103 13.333,3.022 12.314 C 2.977 11.754,2.948 11.573,2.882 11.444 C 2.581 10.855,1.446 10.853,1.121 11.442 C 0.868 11.900,1.031 13.519,1.461 14.831 C 2.208 17.109,3.877 19.014,6.060 20.084 C 8.548 21.302,11.452 21.302,13.940 20.084 C 16.776 18.695,18.645 15.991,18.963 12.820 C 19.018 12.271,18.992 11.395,18.906 10.880 C 18.528 8.633,17.131 6.747,15.090 5.726 C 14.542 5.452,13.515 5.120,13.215 5.120 C 13.131 5.120,13.115 5.109,13.150 5.074 C 13.215 5.009,14.527 5.010,14.980 5.075 C 17.549 5.447,19.701 7.196,20.573 9.620 C 20.835 10.347,20.899 10.677,20.977 11.687 C 21.023 12.294,21.045 12.420,21.126 12.566 C 21.286 12.856,21.576 13.000,22.000 13.000 C 22.426 13.000,22.714 12.856,22.876 12.563 C 23.131 12.101,22.970 10.479,22.538 9.169 C 21.485 5.966,18.680 3.608,15.320 3.101 C 14.911 3.039,13.662 2.991,13.340 3.024 M12.552 7.043 C 14.413 7.246,16.001 8.479,16.680 10.248 C 17.092 11.320,17.085 12.720,16.663 13.793 C 16.120 15.174,14.991 16.256,13.600 16.732 C 13.044 16.922,12.670 16.980,12.000 16.980 C 11.330 16.980,10.956 16.922,10.400 16.732 C 8.808 16.188,7.580 14.864,7.161 13.240 C 6.920 12.307,6.983 11.125,7.320 10.248 C 8.146 8.096,10.274 6.793,12.552 7.043 M11.477 10.073 C 10.806 10.249,10.238 10.823,10.060 11.508 C 9.941 11.962,10.003 12.492,10.225 12.930 C 10.361 13.199,10.801 13.639,11.070 13.775 C 11.659 14.073,12.341 14.073,12.930 13.775 C 13.196 13.640,13.638 13.200,13.771 12.937 C 13.994 12.498,14.052 12.007,13.940 11.529 C 13.858 11.182,13.720 10.927,13.465 10.653 C 13.074 10.232,12.560 10.005,12.000 10.005 C 11.857 10.005,11.622 10.036,11.477 10.073 " stroke="none" fill-rule="evenodd" fill="black"></path></svg>