<svg width="24" height="24" viewBox="0 0 24 24" fill="none" xmlns="http://www.w3.org/2000/svg"><path d="M10.720 2.025 C 6.320 2.242,3.055 3.405,2.243 5.045 C 1.598 6.346,2.269 7.651,4.040 8.540 C 5.395 9.221,7.248 9.676,9.600 9.908 C 10.595 10.005,13.405 10.005,14.400 9.908 C 17.174 9.635,19.324 9.029,20.639 8.149 C 22.177 7.120,22.437 5.548,21.263 4.379 C 20.078 3.198,17.643 2.394,14.360 2.099 C 13.694 2.040,11.380 1.992,10.720 2.025 M13.380 4.041 C 15.749 4.169,17.637 4.567,18.985 5.221 C 19.391 5.418,19.565 5.529,19.755 5.709 C 19.890 5.837,20.000 5.964,20.000 5.991 C 20.000 6.063,19.730 6.350,19.535 6.483 C 18.579 7.141,16.663 7.664,14.320 7.907 C 13.381 8.004,10.619 8.004,9.680 7.907 C 7.374 7.668,5.533 7.174,4.540 6.529 C 4.292 6.369,4.000 6.077,4.000 5.991 C 4.000 5.964,4.110 5.837,4.245 5.709 C 4.822 5.160,6.409 4.585,8.120 4.305 C 9.742 4.039,11.616 3.945,13.380 4.041 M4.076 10.720 C 3.801 10.865,3.510 11.303,3.452 11.659 C 3.388 12.057,3.728 12.423,4.532 12.816 C 6.280 13.673,8.984 14.159,12.000 14.159 C 15.016 14.159,17.720 13.673,19.468 12.816 C 20.484 12.318,20.717 11.948,20.423 11.298 C 20.230 10.872,19.923 10.640,19.551 10.640 C 19.366 10.640,19.261 10.679,18.759 10.931 C 17.882 11.373,17.038 11.633,15.760 11.855 C 14.537 12.068,13.402 12.160,12.000 12.160 C 10.596 12.160,9.458 12.067,8.240 11.855 C 6.946 11.628,6.113 11.372,5.241 10.932 C 4.726 10.672,4.638 10.640,4.441 10.642 C 4.304 10.643,4.165 10.672,4.076 10.720 M5.620 15.446 C 5.336 15.550,5.086 15.911,4.998 16.343 C 4.896 16.847,5.126 17.173,5.742 17.397 C 6.849 17.798,8.258 18.088,9.880 18.247 C 10.609 18.319,13.391 18.319,14.120 18.247 C 15.742 18.088,17.151 17.798,18.258 17.397 C 18.874 17.173,19.104 16.847,19.002 16.343 C 18.875 15.716,18.484 15.350,18.011 15.415 C 17.912 15.429,17.585 15.519,17.283 15.616 C 16.394 15.903,15.293 16.117,14.040 16.248 C 13.720 16.281,12.984 16.300,12.000 16.300 C 11.016 16.300,10.280 16.281,9.960 16.248 C 8.702 16.117,7.606 15.903,6.706 15.613 C 6.109 15.421,5.812 15.375,5.620 15.446 M7.018 19.579 C 6.804 19.687,6.666 19.857,6.573 20.128 C 6.361 20.741,6.544 21.203,7.076 21.403 C 7.541 21.577,8.833 21.806,10.040 21.928 C 10.705 21.995,13.295 21.995,13.960 21.928 C 15.167 21.806,16.459 21.577,16.924 21.403 C 17.205 21.297,17.415 21.092,17.481 20.857 C 17.564 20.562,17.474 20.114,17.274 19.818 C 17.165 19.656,16.842 19.480,16.656 19.480 C 16.585 19.480,16.231 19.542,15.869 19.619 C 13.435 20.132,10.565 20.132,8.131 19.619 C 7.769 19.542,7.415 19.480,7.344 19.480 C 7.274 19.480,7.127 19.525,7.018 19.579 " stroke="none" fill-rule="evenodd" fill="black"></path></svg>