<svg width="24" height="24" viewBox="0 0 24 24" fill="none" xmlns="http://www.w3.org/2000/svg"><path d="M2.614 3.057 C 2.377 3.131,2.212 3.261,2.109 3.453 C 2.035 3.592,2.020 3.684,2.020 4.000 C 2.020 4.331,2.033 4.403,2.120 4.558 C 2.230 4.755,2.414 4.898,2.635 4.959 C 2.835 5.015,21.165 5.015,21.365 4.959 C 21.586 4.898,21.770 4.755,21.880 4.558 C 21.967 4.402,21.980 4.332,21.979 4.000 C 21.978 3.567,21.898 3.355,21.678 3.199 C 21.385 2.990,21.877 3.000,11.984 3.003 C 4.546 3.005,2.748 3.015,2.614 3.057 M5.614 7.057 C 5.377 7.131,5.212 7.261,5.109 7.453 C 5.035 7.592,5.020 7.684,5.020 8.000 C 5.020 8.331,5.033 8.403,5.120 8.558 C 5.230 8.755,5.414 8.898,5.635 8.959 C 5.835 9.015,20.165 9.015,20.365 8.959 C 20.586 8.898,20.770 8.755,20.880 8.558 C 20.967 8.402,20.980 8.332,20.979 8.000 C 20.978 7.567,20.898 7.355,20.678 7.199 C 20.387 6.991,20.720 7.000,12.984 7.003 C 7.188 7.005,5.747 7.016,5.614 7.057 M8.614 11.057 C 8.377 11.131,8.212 11.261,8.109 11.453 C 8.035 11.592,8.020 11.684,8.020 12.000 C 8.020 12.331,8.033 12.403,8.120 12.558 C 8.230 12.755,8.414 12.898,8.635 12.959 C 8.834 13.014,18.166 13.014,18.365 12.959 C 18.586 12.898,18.770 12.755,18.880 12.558 C 18.967 12.402,18.980 12.332,18.979 12.000 C 18.978 11.567,18.898 11.355,18.678 11.199 C 18.392 10.995,18.526 11.000,13.484 11.003 C 9.740 11.005,8.746 11.016,8.614 11.057 M7.614 15.057 C 7.377 15.131,7.212 15.261,7.109 15.453 C 7.035 15.592,7.020 15.684,7.020 16.000 C 7.020 16.331,7.033 16.403,7.120 16.558 C 7.230 16.755,7.414 16.898,7.635 16.959 C 7.833 17.014,15.167 17.014,15.365 16.959 C 15.586 16.898,15.770 16.755,15.880 16.558 C 15.967 16.402,15.980 16.332,15.979 16.000 C 15.978 15.567,15.898 15.355,15.678 15.199 C 15.395 14.997,15.449 15.000,11.484 15.003 C 8.561 15.005,7.745 15.016,7.614 15.057 M11.614 19.057 C 11.377 19.131,11.212 19.261,11.109 19.453 C 11.035 19.592,11.020 19.684,11.020 20.000 C 11.020 20.331,11.033 20.403,11.120 20.558 C 11.230 20.755,11.414 20.898,11.635 20.959 C 11.832 21.014,17.168 21.014,17.365 20.959 C 17.586 20.898,17.770 20.755,17.880 20.558 C 17.967 20.402,17.980 20.332,17.979 20.000 C 17.978 19.567,17.898 19.355,17.678 19.199 C 17.401 19.002,17.373 19.000,14.484 19.003 C 12.382 19.005,11.743 19.017,11.614 19.057 " stroke="none" fill-rule="evenodd" fill="black"></path></svg>