<svg width="24" height="24" viewBox="0 0 24 24" fill="none" xmlns="http://www.w3.org/2000/svg"><path d="M18.530 1.085 C 18.392 1.152,18.248 1.254,18.210 1.311 C 18.171 1.369,17.463 2.101,16.635 2.938 C 15.635 3.949,15.099 4.520,15.040 4.637 C 14.863 4.989,14.952 5.354,15.299 5.701 C 15.646 6.048,16.012 6.137,16.363 5.959 C 16.469 5.905,16.832 5.580,17.270 5.147 L 18.000 4.425 18.000 6.322 C 18.000 7.470,18.016 8.277,18.041 8.365 C 18.148 8.750,18.437 8.962,18.896 8.991 C 19.381 9.022,19.699 8.882,19.880 8.558 L 19.980 8.380 19.992 6.404 L 20.004 4.428 20.732 5.149 C 21.168 5.581,21.531 5.905,21.637 5.959 C 21.988 6.137,22.354 6.048,22.701 5.701 C 23.048 5.354,23.137 4.989,22.960 4.637 C 22.901 4.520,22.365 3.949,21.365 2.938 C 20.537 2.101,19.829 1.369,19.790 1.311 C 19.752 1.254,19.604 1.151,19.460 1.083 C 19.113 0.919,18.873 0.920,18.530 1.085 M4.920 1.042 C 4.667 1.058,4.343 1.092,4.200 1.118 C 3.027 1.326,1.999 2.086,1.465 3.141 C 1.225 3.613,1.109 4.072,1.041 4.820 C 0.987 5.403,0.987 18.633,1.041 19.170 C 1.062 19.384,1.097 19.732,1.117 19.941 C 1.142 20.201,1.180 20.364,1.234 20.451 C 1.278 20.522,1.379 20.705,1.459 20.858 C 2.020 21.930,2.981 22.647,4.160 22.876 C 4.738 22.988,5.470 23.000,12.000 23.000 C 19.433 23.000,19.515 22.998,20.320 22.755 C 21.422 22.423,22.425 21.421,22.755 20.320 C 22.989 19.541,23.007 19.151,22.992 15.120 L 22.980 11.620 22.891 11.453 C 22.689 11.076,22.138 10.902,21.629 11.055 C 21.378 11.131,21.215 11.256,21.109 11.453 L 21.020 11.620 20.996 15.420 C 20.970 19.526,20.971 19.501,20.752 19.952 C 20.624 20.215,20.190 20.637,19.909 20.772 C 19.692 20.877,19.070 21.004,19.020 20.954 C 19.008 20.941,18.981 20.742,18.961 20.510 C 18.861 19.373,18.413 18.395,17.604 17.548 C 16.974 16.889,16.171 16.410,15.310 16.179 C 14.687 16.012,14.040 15.994,9.480 16.010 C 4.956 16.027,5.129 16.019,4.441 16.245 C 4.091 16.361,3.541 16.632,3.241 16.836 L 2.996 17.003 3.011 10.892 C 3.026 4.233,3.016 4.524,3.248 4.048 C 3.366 3.806,3.806 3.366,4.048 3.248 C 4.499 3.029,4.474 3.030,8.580 3.004 C 12.190 2.981,12.387 2.976,12.520 2.905 C 12.876 2.715,12.978 2.514,12.978 2.000 C 12.978 1.567,12.899 1.356,12.678 1.199 C 12.396 0.998,12.428 1.000,8.784 1.006 C 6.912 1.009,5.173 1.025,4.920 1.042 M9.100 4.586 C 7.789 4.823,6.565 5.635,5.822 6.761 C 5.150 7.780,4.870 9.071,5.061 10.262 C 5.599 13.603,9.169 15.457,12.213 13.977 C 13.037 13.576,13.807 12.864,14.294 12.053 C 15.267 10.432,15.221 8.343,14.178 6.761 C 13.424 5.618,12.200 4.815,10.860 4.583 C 10.414 4.505,9.539 4.507,9.100 4.586 M10.677 6.579 C 11.730 6.801,12.655 7.714,12.925 8.800 C 12.996 9.086,12.996 9.914,12.925 10.200 C 12.657 11.278,11.754 12.176,10.689 12.424 C 10.340 12.506,9.660 12.506,9.311 12.424 C 8.425 12.218,7.674 11.598,7.282 10.749 C 7.070 10.291,7.021 10.056,7.021 9.500 C 7.021 8.944,7.070 8.709,7.282 8.251 C 7.671 7.409,8.443 6.769,9.293 6.582 C 9.630 6.508,10.332 6.507,10.677 6.579 M14.804 18.109 C 15.113 18.206,15.489 18.387,15.729 18.554 C 15.921 18.688,16.343 19.114,16.475 19.307 C 16.745 19.703,16.943 20.281,16.971 20.751 L 16.985 21.003 10.863 20.988 C 6.112 20.977,4.691 20.963,4.520 20.923 C 4.035 20.812,3.574 20.487,3.323 20.079 L 3.202 19.882 3.341 19.615 C 3.765 18.801,4.590 18.197,5.485 18.044 C 5.609 18.023,7.565 18.011,10.120 18.017 C 14.459 18.026,14.545 18.028,14.804 18.109 " stroke="none" fill-rule="evenodd" fill="black"></path></svg>