<svg width="24" height="24" viewBox="0 0 24 24" fill="none" xmlns="http://www.w3.org/2000/svg"><path d="M5.920 2.041 C 5.151 2.092,4.672 2.205,4.180 2.451 C 3.089 2.996,2.357 3.961,2.124 5.160 C 2.013 5.729,2.000 6.455,2.000 12.000 C 2.000 18.358,2.006 18.526,2.245 19.320 C 2.577 20.422,3.578 21.423,4.680 21.755 C 5.474 21.994,5.642 22.000,12.000 22.000 C 18.358 22.000,18.526 21.994,19.320 21.755 C 20.422 21.423,21.423 20.422,21.755 19.320 C 21.994 18.526,22.000 18.358,22.000 12.000 C 22.000 5.642,21.994 5.474,21.755 4.680 C 21.424 3.581,20.465 2.622,19.320 2.246 C 18.644 2.024,18.800 2.029,12.340 2.019 C 9.062 2.014,6.173 2.024,5.920 2.041 M18.492 4.091 C 18.894 4.188,19.109 4.309,19.400 4.600 C 19.696 4.895,19.814 5.109,19.912 5.528 C 19.975 5.797,19.980 6.313,19.980 12.000 C 19.980 17.687,19.975 18.203,19.912 18.472 C 19.814 18.891,19.696 19.104,19.400 19.401 C 19.101 19.701,18.820 19.851,18.418 19.928 C 18.010 20.005,5.990 20.005,5.582 19.927 C 5.170 19.850,4.898 19.704,4.600 19.403 C 4.303 19.104,4.186 18.890,4.088 18.472 C 4.025 18.203,4.020 17.687,4.020 12.000 C 4.020 6.313,4.025 5.797,4.088 5.528 C 4.175 5.155,4.294 4.918,4.520 4.667 C 4.883 4.262,5.282 4.091,5.980 4.039 C 6.200 4.023,9.044 4.013,12.300 4.018 C 17.643 4.024,18.247 4.032,18.492 4.091 M13.400 6.477 C 13.144 6.527,12.841 6.725,12.663 6.959 C 12.570 7.080,12.112 7.715,11.645 8.370 C 11.178 9.025,10.786 9.560,10.773 9.560 C 10.760 9.560,10.471 9.352,10.130 9.098 C 9.789 8.844,9.436 8.598,9.345 8.551 C 9.139 8.443,8.796 8.435,8.611 8.533 C 8.313 8.690,8.188 8.895,6.611 11.791 C 5.752 13.369,5.027 14.730,5.000 14.815 C 4.888 15.168,5.018 15.523,5.348 15.761 C 5.702 16.016,5.252 16.000,12.035 16.000 C 16.055 16.000,18.271 15.985,18.365 15.959 C 18.583 15.899,18.770 15.756,18.871 15.572 C 18.986 15.363,19.030 14.953,18.960 14.736 C 18.891 14.523,14.343 6.946,14.167 6.751 C 13.946 6.507,13.699 6.418,13.400 6.477 M14.855 11.706 C 15.595 12.942,16.200 13.964,16.200 13.976 C 16.200 13.989,14.285 14.000,11.943 14.000 L 7.687 14.000 8.488 12.530 C 8.928 11.722,9.300 11.048,9.314 11.032 C 9.328 11.017,9.592 11.195,9.900 11.427 C 10.208 11.659,10.550 11.892,10.660 11.944 C 11.007 12.109,11.337 12.061,11.614 11.805 C 11.677 11.747,12.107 11.172,12.569 10.526 C 13.256 9.566,13.418 9.362,13.459 9.406 C 13.487 9.436,14.115 10.471,14.855 11.706 " stroke="none" fill-rule="evenodd" fill="black"></path></svg>