<svg width="24" height="24" viewBox="0 0 24 24" fill="none" xmlns="http://www.w3.org/2000/svg"><path d="M2.614 3.057 C 2.377 3.131,2.212 3.261,2.109 3.453 C 2.035 3.592,2.020 3.684,2.020 4.000 C 2.020 4.331,2.033 4.403,2.120 4.558 C 2.230 4.755,2.414 4.898,2.635 4.959 C 2.835 5.015,21.165 5.015,21.365 4.959 C 21.586 4.898,21.770 4.755,21.880 4.558 C 21.967 4.402,21.980 4.332,21.979 4.000 C 21.978 3.567,21.898 3.355,21.678 3.199 C 21.385 2.990,21.877 3.000,11.984 3.003 C 4.546 3.005,2.748 3.015,2.614 3.057 M3.686 7.040 C 2.869 7.162,2.233 7.765,2.061 8.581 C 1.973 8.995,1.973 15.005,2.061 15.419 C 2.147 15.827,2.298 16.104,2.597 16.403 C 2.896 16.702,3.173 16.853,3.581 16.939 C 3.995 17.027,10.005 17.027,10.419 16.940 C 10.818 16.855,11.102 16.699,11.401 16.401 C 11.699 16.102,11.855 15.818,11.940 15.419 C 12.027 15.005,12.027 8.995,11.939 8.581 C 11.791 7.881,11.332 7.364,10.635 7.112 L 10.380 7.020 7.140 7.014 C 5.358 7.011,3.804 7.023,3.686 7.040 M14.760 8.280 C 14.497 8.327,14.388 8.378,14.247 8.519 C 13.920 8.846,13.922 9.644,14.250 9.988 C 14.497 10.247,14.393 10.240,18.000 10.240 C 21.607 10.240,21.503 10.247,21.750 9.988 C 22.085 9.637,22.080 8.838,21.740 8.508 C 21.479 8.255,21.609 8.264,18.120 8.255 C 16.371 8.251,14.859 8.262,14.760 8.280 M10.000 12.000 L 10.000 15.000 7.000 15.000 L 4.000 15.000 4.000 12.000 L 4.000 9.000 7.000 9.000 L 10.000 9.000 10.000 12.000 M14.640 13.797 C 14.180 13.937,13.970 14.285,14.009 14.838 C 14.045 15.337,14.262 15.622,14.680 15.717 C 14.926 15.773,21.074 15.773,21.320 15.717 C 21.575 15.659,21.782 15.502,21.889 15.286 C 21.963 15.134,21.980 15.034,21.980 14.740 C 21.980 14.430,21.966 14.355,21.880 14.202 C 21.770 14.005,21.586 13.862,21.365 13.801 C 21.194 13.753,14.795 13.750,14.640 13.797 M2.614 19.057 C 2.377 19.131,2.212 19.261,2.109 19.453 C 2.035 19.592,2.020 19.684,2.020 20.000 C 2.020 20.331,2.033 20.403,2.120 20.558 C 2.230 20.755,2.414 20.898,2.635 20.959 C 2.835 21.015,21.165 21.015,21.365 20.959 C 21.586 20.898,21.770 20.755,21.880 20.558 C 21.967 20.402,21.980 20.332,21.979 20.000 C 21.978 19.567,21.898 19.355,21.678 19.199 C 21.385 18.990,21.877 19.000,11.984 19.003 C 4.546 19.005,2.748 19.015,2.614 19.057 " stroke="none" fill-rule="evenodd" fill="black"></path></svg>