<svg width="24" height="24" viewBox="0 0 24 24" fill="none" xmlns="http://www.w3.org/2000/svg"><path d="M2.614 3.057 C 2.377 3.131,2.212 3.261,2.109 3.453 C 2.035 3.592,2.020 3.684,2.020 4.000 C 2.020 4.331,2.033 4.403,2.120 4.558 C 2.230 4.755,2.414 4.898,2.635 4.959 C 2.835 5.015,21.165 5.015,21.365 4.959 C 21.586 4.898,21.770 4.755,21.880 4.558 C 21.967 4.402,21.980 4.332,21.979 4.000 C 21.978 3.567,21.898 3.355,21.678 3.199 C 21.385 2.990,21.877 3.000,11.984 3.003 C 4.546 3.005,2.748 3.015,2.614 3.057 M13.686 7.040 C 12.869 7.162,12.233 7.765,12.061 8.581 C 11.973 8.995,11.973 15.005,12.061 15.419 C 12.147 15.827,12.298 16.104,12.597 16.403 C 12.896 16.702,13.173 16.853,13.581 16.939 C 13.995 17.027,20.005 17.027,20.419 16.940 C 20.818 16.855,21.102 16.699,21.401 16.401 C 21.699 16.102,21.855 15.818,21.940 15.419 C 22.027 15.005,22.027 8.995,21.939 8.581 C 21.791 7.881,21.332 7.364,20.635 7.112 L 20.380 7.020 17.140 7.014 C 15.358 7.011,13.804 7.023,13.686 7.040 M2.760 8.280 C 2.497 8.327,2.388 8.378,2.247 8.519 C 1.920 8.846,1.922 9.644,2.250 9.988 C 2.497 10.247,2.393 10.240,6.000 10.240 C 9.607 10.240,9.503 10.247,9.750 9.988 C 10.085 9.637,10.080 8.838,9.740 8.508 C 9.479 8.255,9.609 8.264,6.120 8.255 C 4.371 8.251,2.859 8.262,2.760 8.280 M20.000 12.000 L 20.000 15.000 17.000 15.000 L 14.000 15.000 14.000 12.000 L 14.000 9.000 17.000 9.000 L 20.000 9.000 20.000 12.000 M2.640 13.797 C 2.180 13.937,1.970 14.285,2.009 14.838 C 2.045 15.337,2.262 15.622,2.680 15.717 C 2.926 15.773,9.074 15.773,9.320 15.717 C 9.575 15.659,9.782 15.502,9.889 15.286 C 9.963 15.134,9.980 15.034,9.980 14.740 C 9.980 14.430,9.966 14.355,9.880 14.202 C 9.770 14.005,9.586 13.862,9.365 13.801 C 9.194 13.753,2.795 13.750,2.640 13.797 M2.614 19.057 C 2.377 19.131,2.212 19.261,2.109 19.453 C 2.035 19.592,2.020 19.684,2.020 20.000 C 2.020 20.331,2.033 20.403,2.120 20.558 C 2.230 20.755,2.414 20.898,2.635 20.959 C 2.835 21.015,21.165 21.015,21.365 20.959 C 21.586 20.898,21.770 20.755,21.880 20.558 C 21.967 20.402,21.980 20.332,21.979 20.000 C 21.978 19.567,21.898 19.355,21.678 19.199 C 21.385 18.990,21.877 19.000,11.984 19.003 C 4.546 19.005,2.748 19.015,2.614 19.057 " stroke="none" fill-rule="evenodd" fill="black"></path></svg>