<svg width="24" height="24" viewBox="0 0 24 24" fill="none" xmlns="http://www.w3.org/2000/svg"><path d="M18.530 1.085 C 18.392 1.152,18.248 1.254,18.210 1.311 C 18.171 1.369,17.463 2.101,16.635 2.938 C 15.635 3.949,15.099 4.520,15.040 4.637 C 14.863 4.989,14.952 5.354,15.299 5.701 C 15.646 6.048,16.012 6.137,16.363 5.959 C 16.469 5.905,16.832 5.580,17.270 5.147 L 18.000 4.425 18.000 6.322 C 18.000 7.470,18.016 8.277,18.041 8.365 C 18.148 8.750,18.437 8.962,18.896 8.991 C 19.381 9.022,19.699 8.882,19.880 8.558 L 19.980 8.380 19.992 6.404 L 20.004 4.428 20.732 5.149 C 21.168 5.581,21.531 5.905,21.637 5.959 C 21.988 6.137,22.354 6.048,22.701 5.701 C 23.048 5.354,23.137 4.989,22.960 4.637 C 22.901 4.520,22.365 3.949,21.365 2.938 C 20.537 2.101,19.829 1.369,19.790 1.311 C 19.752 1.254,19.604 1.151,19.460 1.083 C 19.113 0.919,18.873 0.920,18.530 1.085 M5.920 2.042 C 5.155 2.091,4.674 2.204,4.180 2.451 C 3.089 2.996,2.357 3.961,2.124 5.160 C 2.013 5.729,2.000 6.455,2.000 12.000 C 2.000 18.358,2.006 18.526,2.245 19.320 C 2.518 20.228,3.251 21.085,4.141 21.535 C 4.613 21.775,5.072 21.891,5.820 21.959 C 6.412 22.014,18.013 22.014,18.489 21.959 C 19.083 21.891,19.732 21.648,20.270 21.292 C 20.566 21.097,21.097 20.566,21.292 20.270 C 21.661 19.713,21.895 19.073,21.965 18.433 C 21.991 18.188,22.001 17.528,21.990 16.727 C 21.973 15.554,21.963 15.393,21.890 15.160 C 21.706 14.577,21.477 14.200,21.072 13.818 C 20.681 13.450,17.239 10.702,17.029 10.591 C 16.703 10.419,16.497 10.357,16.176 10.333 C 15.684 10.296,15.264 10.423,14.837 10.736 C 14.546 10.950,5.400 19.281,5.196 19.519 L 5.011 19.733 4.868 19.645 C 4.672 19.524,4.359 19.173,4.248 18.949 C 4.198 18.848,4.126 18.633,4.088 18.472 C 4.025 18.203,4.020 17.687,4.020 12.000 C 4.020 6.313,4.025 5.797,4.088 5.528 C 4.126 5.367,4.198 5.151,4.248 5.048 C 4.366 4.806,4.806 4.366,5.048 4.248 C 5.494 4.031,5.499 4.030,9.320 4.004 C 13.209 3.978,13.007 3.991,13.248 3.735 C 13.419 3.553,13.486 3.344,13.486 2.997 C 13.486 2.491,13.303 2.196,12.909 2.064 C 12.739 2.007,12.355 2.001,9.549 2.006 C 7.806 2.009,6.173 2.025,5.920 2.042 M7.808 5.581 C 6.875 5.784,5.969 6.601,5.668 7.510 C 5.220 8.866,5.724 10.282,6.933 11.060 C 7.822 11.632,9.178 11.632,10.067 11.060 C 11.275 10.282,11.780 8.866,11.332 7.511 C 11.028 6.591,10.122 5.780,9.174 5.579 C 8.834 5.507,8.143 5.508,7.808 5.581 M9.023 7.662 C 9.306 7.836,9.454 8.094,9.474 8.446 C 9.487 8.683,9.474 8.751,9.379 8.945 C 9.030 9.658,8.000 9.669,7.631 8.963 C 7.372 8.468,7.558 7.869,8.049 7.622 C 8.230 7.530,8.300 7.517,8.544 7.528 C 8.776 7.539,8.863 7.563,9.023 7.662 M17.897 13.804 C 19.942 15.443,19.774 15.298,19.888 15.520 C 19.979 15.697,19.980 15.720,19.977 16.960 C 19.975 17.710,19.956 18.310,19.930 18.444 C 19.795 19.121,19.253 19.709,18.580 19.907 C 18.357 19.973,17.967 19.979,12.960 19.990 C 8.362 20.001,7.589 19.995,7.640 19.947 C 7.673 19.916,9.491 18.266,11.680 16.279 C 13.869 14.292,15.747 12.587,15.852 12.489 C 16.025 12.330,16.052 12.318,16.112 12.370 C 16.150 12.402,16.953 13.047,17.897 13.804 " stroke="none" fill-rule="evenodd" fill="black"></path></svg>