<svg width="24" height="24" viewBox="0 0 24 24" fill="none" xmlns="http://www.w3.org/2000/svg"><path d="M4.920 1.042 C 4.667 1.058,4.343 1.092,4.200 1.118 C 3.027 1.326,1.999 2.086,1.465 3.141 C 1.225 3.613,1.109 4.072,1.041 4.820 C 0.987 5.403,0.987 18.633,1.041 19.170 C 1.062 19.384,1.097 19.732,1.117 19.941 C 1.142 20.201,1.180 20.364,1.234 20.451 C 1.278 20.522,1.379 20.705,1.459 20.858 C 2.020 21.930,2.981 22.647,4.160 22.876 C 4.738 22.988,5.470 23.000,12.000 23.000 C 19.433 23.000,19.515 22.998,20.320 22.755 C 21.422 22.423,22.425 21.421,22.755 20.320 C 22.989 19.541,23.007 19.151,22.992 15.120 L 22.980 11.620 22.891 11.453 C 22.689 11.076,22.138 10.902,21.629 11.055 C 21.378 11.131,21.215 11.256,21.109 11.453 L 21.020 11.620 20.996 15.420 C 20.970 19.526,20.971 19.501,20.752 19.952 C 20.624 20.215,20.190 20.637,19.909 20.772 C 19.692 20.877,19.070 21.004,19.020 20.954 C 19.008 20.941,18.981 20.742,18.961 20.510 C 18.861 19.373,18.413 18.395,17.604 17.548 C 16.974 16.889,16.171 16.410,15.310 16.179 C 14.687 16.012,14.040 15.994,9.480 16.010 C 4.956 16.027,5.129 16.019,4.441 16.245 C 4.091 16.361,3.541 16.632,3.241 16.836 L 2.996 17.003 3.011 10.892 C 3.026 4.233,3.016 4.524,3.248 4.048 C 3.366 3.806,3.806 3.366,4.048 3.248 C 4.499 3.029,4.474 3.030,8.580 3.004 C 12.190 2.981,12.387 2.976,12.520 2.905 C 12.876 2.715,12.978 2.514,12.978 2.000 C 12.978 1.567,12.899 1.356,12.678 1.199 C 12.396 0.998,12.428 1.000,8.784 1.006 C 6.912 1.009,5.173 1.025,4.920 1.042 M16.260 1.487 C 15.822 1.651,15.439 2.129,15.441 2.509 C 15.443 2.820,15.560 2.973,16.590 4.009 L 17.576 5.000 16.590 5.991 C 15.554 7.033,15.442 7.180,15.442 7.500 C 15.442 7.727,15.564 7.968,15.798 8.202 C 16.150 8.554,16.484 8.641,16.837 8.474 C 16.964 8.413,17.321 8.088,18.010 7.406 L 18.999 6.424 20.010 7.426 C 21.118 8.524,21.212 8.592,21.584 8.550 C 21.995 8.503,22.511 7.978,22.550 7.565 C 22.584 7.212,22.493 7.087,21.405 5.990 L 20.424 5.000 21.405 4.010 C 22.491 2.915,22.584 2.787,22.551 2.438 C 22.502 1.934,21.836 1.367,21.397 1.455 C 21.114 1.511,20.947 1.646,19.990 2.595 L 19.000 3.576 18.010 2.595 C 17.388 1.979,16.961 1.587,16.862 1.541 C 16.664 1.450,16.417 1.428,16.260 1.487 M9.100 4.586 C 7.789 4.823,6.565 5.635,5.822 6.761 C 5.150 7.780,4.870 9.071,5.061 10.262 C 5.599 13.603,9.169 15.457,12.213 13.977 C 13.037 13.576,13.807 12.864,14.294 12.053 C 15.267 10.432,15.221 8.343,14.178 6.761 C 13.424 5.618,12.200 4.815,10.860 4.583 C 10.414 4.505,9.539 4.507,9.100 4.586 M10.677 6.579 C 11.730 6.801,12.655 7.714,12.925 8.800 C 12.996 9.086,12.996 9.914,12.925 10.200 C 12.657 11.278,11.754 12.176,10.689 12.424 C 10.340 12.506,9.660 12.506,9.311 12.424 C 8.425 12.218,7.674 11.598,7.282 10.749 C 7.070 10.291,7.021 10.056,7.021 9.500 C 7.021 8.944,7.070 8.709,7.282 8.251 C 7.671 7.409,8.443 6.769,9.293 6.582 C 9.630 6.508,10.332 6.507,10.677 6.579 M14.804 18.109 C 15.113 18.206,15.489 18.387,15.729 18.554 C 15.921 18.688,16.343 19.114,16.475 19.307 C 16.745 19.703,16.943 20.281,16.971 20.751 L 16.985 21.003 10.863 20.988 C 6.112 20.977,4.691 20.963,4.520 20.923 C 4.035 20.812,3.574 20.487,3.323 20.079 L 3.202 19.882 3.341 19.615 C 3.765 18.801,4.590 18.197,5.485 18.044 C 5.609 18.023,7.565 18.011,10.120 18.017 C 14.459 18.026,14.545 18.028,14.804 18.109 " stroke="none" fill-rule="evenodd" fill="black"></path></svg>