<svg width="24" height="24" viewBox="0 0 24 24" fill="none" xmlns="http://www.w3.org/2000/svg"><path d="M5.920 2.041 C 5.151 2.092,4.672 2.205,4.180 2.451 C 3.089 2.996,2.357 3.961,2.124 5.160 C 2.013 5.729,2.000 6.455,2.000 12.000 C 2.000 18.358,2.006 18.526,2.245 19.320 C 2.577 20.422,3.578 21.423,4.680 21.755 C 5.474 21.994,5.642 22.000,12.000 22.000 C 18.358 22.000,18.526 21.994,19.320 21.755 C 20.422 21.423,21.423 20.422,21.755 19.320 C 21.994 18.526,22.000 18.358,22.000 12.000 C 22.000 5.642,21.994 5.474,21.755 4.680 C 21.424 3.581,20.465 2.622,19.320 2.246 C 18.644 2.024,18.800 2.029,12.340 2.019 C 9.062 2.014,6.173 2.024,5.920 2.041 M18.492 4.091 C 18.894 4.188,19.109 4.309,19.400 4.600 C 19.696 4.895,19.814 5.109,19.912 5.528 C 19.975 5.797,19.980 6.313,19.980 12.000 C 19.980 17.687,19.975 18.203,19.912 18.472 C 19.814 18.891,19.696 19.104,19.400 19.401 C 19.101 19.701,18.820 19.851,18.418 19.928 C 18.010 20.005,5.990 20.005,5.582 19.927 C 5.170 19.850,4.898 19.704,4.600 19.403 C 4.303 19.104,4.186 18.890,4.088 18.472 C 4.025 18.203,4.020 17.687,4.020 12.000 C 4.020 6.313,4.025 5.797,4.088 5.528 C 4.175 5.155,4.294 4.918,4.520 4.667 C 4.883 4.262,5.282 4.091,5.980 4.039 C 6.200 4.023,9.044 4.013,12.300 4.018 C 17.643 4.024,18.247 4.032,18.492 4.091 M11.614 7.055 C 11.220 7.184,11.039 7.437,11.009 7.900 C 10.978 8.381,11.119 8.699,11.442 8.880 C 11.597 8.967,11.669 8.980,12.000 8.980 C 12.312 8.980,12.408 8.964,12.540 8.894 C 12.866 8.718,13.000 8.459,13.000 8.000 C 13.000 7.357,12.713 7.048,12.083 7.016 C 11.893 7.006,11.718 7.021,11.614 7.055 M11.614 11.057 C 11.377 11.131,11.212 11.261,11.109 11.453 C 11.020 11.619,11.020 11.629,11.009 13.911 C 11.001 15.392,11.012 16.256,11.039 16.355 C 11.144 16.747,11.433 16.961,11.896 16.991 C 12.381 17.022,12.699 16.882,12.880 16.558 L 12.980 16.380 12.980 14.000 L 12.980 11.620 12.891 11.453 C 12.842 11.362,12.746 11.247,12.678 11.199 C 12.414 11.010,11.957 10.950,11.614 11.057 " stroke="none" fill-rule="evenodd" fill="black"></path></svg>