<svg width="24" height="24" viewBox="0 0 24 24" fill="none" xmlns="http://www.w3.org/2000/svg"><path d="M12.199 3.000 L 9.658 3.020 9.459 3.122 C 9.144 3.284,9.000 3.560,9.000 4.000 C 9.000 4.428,9.144 4.713,9.442 4.880 L 9.620 4.980 11.584 5.000 L 13.548 5.020 10.926 12.010 L 8.305 19.000 6.559 19.000 C 4.699 19.000,4.587 19.010,4.322 19.199 C 4.100 19.357,4.020 19.568,4.020 20.000 C 4.020 20.331,4.033 20.403,4.120 20.558 C 4.232 20.758,4.416 20.900,4.644 20.961 C 4.852 21.017,14.150 21.017,14.358 20.961 C 14.584 20.900,14.768 20.757,14.880 20.558 C 14.967 20.402,14.980 20.332,14.979 20.000 C 14.977 19.469,14.852 19.247,14.455 19.071 C 14.369 19.033,13.848 19.015,12.396 19.000 L 10.452 18.980 13.074 11.990 L 15.695 5.000 17.457 5.000 C 18.515 5.000,19.278 4.983,19.365 4.959 C 19.586 4.898,19.770 4.755,19.880 4.558 C 19.967 4.402,19.980 4.332,19.979 4.000 C 19.978 3.685,19.963 3.591,19.888 3.450 C 19.784 3.252,19.575 3.102,19.320 3.042 C 19.103 2.991,15.818 2.972,12.199 3.000 " stroke="none" fill-rule="evenodd" fill="black"></path></svg>