<svg width="24" height="24" viewBox="0 0 24 24" fill="none" xmlns="http://www.w3.org/2000/svg"><path d="M11.100 3.000 C 8.954 3.023,8.988 3.019,8.752 3.267 C 8.584 3.443,8.513 3.658,8.512 3.997 C 8.510 4.348,8.582 4.556,8.771 4.751 C 8.992 4.979,9.141 5.000,10.552 5.000 C 11.733 5.000,11.807 5.004,11.781 5.070 C 11.766 5.109,10.595 8.227,9.180 12.000 C 7.765 15.773,6.594 18.890,6.580 18.927 C 6.556 18.988,6.433 18.996,5.347 19.009 C 4.030 19.024,3.975 19.033,3.752 19.267 C 3.584 19.443,3.513 19.658,3.512 19.997 C 3.510 20.502,3.711 20.826,4.099 20.942 C 4.401 21.033,14.597 21.032,14.901 20.942 C 15.290 20.826,15.486 20.509,15.486 19.997 C 15.486 19.491,15.303 19.196,14.909 19.064 C 14.749 19.011,14.505 19.000,13.454 19.000 C 12.268 19.000,12.193 18.996,12.219 18.930 C 12.234 18.892,13.405 15.773,14.820 12.000 C 16.235 8.227,17.406 5.109,17.421 5.070 C 17.446 5.006,17.539 5.000,18.577 5.000 C 19.848 5.000,20.012 4.975,20.229 4.751 C 20.418 4.556,20.486 4.355,20.486 3.997 C 20.486 3.486,20.301 3.191,19.900 3.063 C 19.725 3.007,19.293 2.998,16.380 2.989 C 14.554 2.984,12.178 2.989,11.100 3.000 M15.281 5.030 C 15.281 5.046,14.106 8.196,12.671 12.029 L 10.060 18.999 9.390 18.999 C 9.021 19.000,8.720 18.987,8.719 18.970 C 8.719 18.953,9.894 15.804,11.329 11.971 L 13.940 5.001 14.610 5.001 C 14.978 5.000,15.280 5.014,15.281 5.030 " stroke="none" fill-rule="evenodd" fill="black"></path></svg>