<svg version="1.1" xmlns="http://www.w3.org/2000/svg" width="32" height="32" viewBox="0 0 32 32"><path d="M13.947 0.112 C 11.467 0.547,9.823 1.105,8.073 2.104 C 5.092 3.807,2.662 6.518,1.332 9.624 C 0.785 10.902,0.310 12.509,0.149 13.627 C 0.054 14.290,0.054 17.716,0.150 18.373 C 0.401 20.103,1.167 22.282,2.085 23.881 C 3.804 26.876,6.325 29.178,9.423 30.583 C 11.783 31.654,13.632 32.002,16.560 31.929 C 18.724 31.875,19.958 31.638,21.760 30.929 C 24.633 29.800,27.207 27.799,28.992 25.307 C 30.110 23.747,31.011 21.828,31.490 19.989 C 31.842 18.639,31.947 17.724,31.947 16.000 C 31.947 14.276,31.842 13.361,31.490 12.011 C 30.119 6.748,26.176 2.547,20.975 0.809 C 19.681 0.377,18.849 0.218,17.307 0.107 C 16.414 0.043,14.321 0.046,13.947 0.112 M20.096 8.211 C 20.804 8.286,21.563 8.536,22.533 9.014 C 23.390 9.436,23.869 9.811,24.586 10.622 C 25.706 11.887,26.202 13.000,26.348 14.567 C 26.492 16.120,26.206 17.436,25.450 18.710 C 24.784 19.830,23.769 20.780,22.622 21.356 C 21.867 21.735,20.616 22.078,19.980 22.081 C 19.859 22.081,19.733 22.099,19.700 22.121 C 19.658 22.148,19.632 22.590,19.615 23.520 C 19.590 24.967,19.551 25.203,19.315 25.329 C 19.001 25.497,18.740 25.329,15.959 23.159 L 14.772 22.232 13.373 22.184 C 11.770 22.128,11.270 22.074,10.643 21.893 C 8.137 21.166,6.276 19.154,5.722 16.570 C 5.593 15.970,5.594 14.607,5.723 13.962 C 6.184 11.664,7.773 9.615,9.794 8.713 C 10.665 8.324,11.149 8.231,12.654 8.160 C 13.898 8.101,19.412 8.139,20.096 8.211 M11.073 14.265 C 10.417 14.499,10.119 15.462,10.541 15.984 C 10.845 16.360,11.066 16.498,11.401 16.522 C 11.851 16.555,12.147 16.457,12.401 16.193 C 12.845 15.732,12.861 15.051,12.442 14.561 C 12.154 14.225,11.552 14.095,11.073 14.265 M15.416 14.303 C 15.052 14.493,14.865 14.764,14.837 15.140 C 14.776 15.989,15.253 16.535,16.053 16.532 C 16.534 16.530,17.001 16.177,17.123 15.722 C 17.223 15.350,17.167 14.872,16.998 14.650 C 16.737 14.307,16.564 14.222,16.084 14.200 C 15.713 14.182,15.621 14.196,15.416 14.303 M19.916 14.288 C 19.200 14.613,19.035 15.607,19.599 16.193 C 20.313 16.934,21.647 16.383,21.652 15.345 C 21.654 14.864,21.436 14.525,20.987 14.313 C 20.656 14.158,20.225 14.147,19.916 14.288 " stroke="none" fill-rule="evenodd" fill="black"></path></svg>