<svg version="1.1" xmlns="http://www.w3.org/2000/svg" width="32" height="32" viewBox="0 0 32 32"><path d="M8.880 5.462 C 8.178 5.624,7.637 5.920,7.158 6.402 C 6.787 6.776,6.550 7.175,6.336 7.790 L 6.160 8.293 6.133 15.822 L 6.107 23.351 5.944 23.582 C 5.550 24.143,4.813 24.254,4.298 23.830 C 3.921 23.519,3.923 23.530,3.893 21.573 L 3.867 19.813 3.730 19.547 C 3.335 18.780,2.342 18.615,1.742 19.216 C 1.613 19.345,1.490 19.533,1.452 19.660 C 1.354 19.987,1.362 23.062,1.462 23.582 C 1.783 25.253,3.044 26.369,4.743 26.488 C 5.578 26.546,6.394 26.320,7.050 25.850 C 7.694 25.388,8.112 24.774,8.382 23.893 L 8.505 23.493 8.532 16.027 C 8.558 9.200,8.568 8.546,8.649 8.400 C 9.076 7.628,10.138 7.569,10.587 8.293 L 10.747 8.552 10.775 16.102 C 10.802 23.178,10.810 23.673,10.900 23.971 C 11.231 25.067,11.836 25.801,12.773 26.244 C 13.843 26.749,15.078 26.721,16.133 26.169 C 16.579 25.935,17.204 25.298,17.451 24.826 C 17.558 24.620,17.701 24.272,17.767 24.052 C 17.887 23.657,17.889 23.613,17.918 19.787 L 17.947 15.920 18.095 15.668 C 18.409 15.134,19.101 14.953,19.635 15.266 C 19.772 15.347,19.940 15.503,20.009 15.613 L 20.133 15.813 20.160 20.721 L 20.187 25.630 20.323 25.894 C 20.495 26.229,20.821 26.480,21.190 26.562 C 21.715 26.680,22.269 26.411,22.547 25.904 C 22.634 25.745,22.640 25.396,22.640 20.720 C 22.640 16.074,22.633 15.681,22.545 15.360 C 22.189 14.064,21.272 13.148,20.000 12.821 C 19.533 12.701,18.596 12.703,18.133 12.825 C 16.927 13.142,16.026 14.062,15.667 15.345 C 15.554 15.749,15.550 15.861,15.522 19.600 C 15.490 23.880,15.516 23.607,15.115 23.937 C 14.554 24.400,13.729 24.226,13.400 23.575 L 13.280 23.337 13.278 16.135 C 13.277 11.960,13.256 8.771,13.227 8.547 C 13.039 7.100,12.176 6.018,10.853 5.570 C 10.330 5.393,9.399 5.342,8.880 5.462 M26.465 12.828 C 25.680 12.998,24.871 13.569,24.435 14.260 C 24.174 14.673,24.085 14.880,23.932 15.436 C 23.814 15.863,23.813 15.901,23.814 19.707 C 23.815 23.523,23.816 23.549,23.935 23.970 C 24.140 24.698,24.395 25.147,24.877 25.632 C 25.558 26.316,26.290 26.611,27.307 26.612 C 28.873 26.612,30.011 25.715,30.464 24.122 C 30.562 23.778,30.582 23.567,30.584 22.898 L 30.587 22.090 30.427 21.862 C 30.037 21.308,29.222 21.228,28.729 21.696 C 28.447 21.964,28.406 22.103,28.374 22.911 C 28.348 23.572,28.328 23.692,28.211 23.920 C 27.979 24.370,27.401 24.556,26.894 24.345 C 26.639 24.238,26.521 24.129,26.381 23.867 C 26.272 23.662,26.266 23.575,26.250 21.827 L 26.234 20.000 28.423 20.000 L 30.613 20.000 30.613 17.987 C 30.612 16.213,30.600 15.914,30.510 15.479 C 30.159 13.778,28.918 12.740,27.253 12.752 C 27.004 12.754,26.649 12.788,26.465 12.828 M27.751 15.006 C 27.973 15.099,28.194 15.361,28.264 15.615 C 28.296 15.728,28.320 16.407,28.320 17.187 L 28.320 18.560 27.276 18.560 L 26.232 18.560 26.249 17.133 C 26.266 15.792,26.274 15.694,26.381 15.493 C 26.515 15.246,26.691 15.068,26.880 14.993 C 27.075 14.915,27.550 14.922,27.751 15.006 " stroke="none" fill-rule="evenodd" fill="black"></path></svg>