<svg width="24" height="24" viewBox="0 0 24 24" fill="none" xmlns="http://www.w3.org/2000/svg"><path d="M14.540 2.023 C 13.715 2.102,13.250 2.200,12.620 2.427 C 10.210 3.295,8.491 5.395,8.075 7.980 C 8.006 8.408,8.006 9.647,8.075 10.094 L 8.129 10.448 5.250 13.334 C 2.484 16.107,2.365 16.232,2.225 16.520 C 2.145 16.685,2.062 16.917,2.040 17.035 C 2.018 17.154,2.000 17.901,2.001 18.695 C 2.001 20.271,2.025 20.504,2.227 20.919 C 2.366 21.205,2.795 21.634,3.081 21.773 C 3.506 21.980,3.710 21.999,5.540 21.999 C 6.544 21.999,7.278 21.983,7.365 21.959 C 7.586 21.898,7.770 21.755,7.880 21.558 C 7.974 21.391,7.981 21.338,7.994 20.690 L 8.008 20.000 8.614 20.000 C 8.947 20.000,9.285 19.981,9.365 19.959 C 9.586 19.898,9.770 19.755,9.880 19.558 C 9.974 19.391,9.981 19.338,9.994 18.693 L 10.008 18.007 10.654 17.993 C 11.188 17.982,11.324 17.966,11.440 17.905 C 11.517 17.864,12.024 17.390,12.566 16.851 L 13.552 15.871 13.906 15.925 C 14.352 15.994,15.591 15.994,16.020 15.925 C 19.108 15.429,21.428 13.109,21.926 10.020 C 21.954 9.844,21.977 9.385,21.977 9.000 C 21.977 8.056,21.876 7.462,21.573 6.620 C 20.715 4.237,18.581 2.473,16.102 2.098 C 15.726 2.041,14.813 1.997,14.540 2.023 M15.552 4.043 C 17.413 4.246,19.001 5.479,19.680 7.248 C 20.092 8.320,20.085 9.720,19.663 10.793 C 19.206 11.955,18.310 12.936,17.212 13.476 C 16.268 13.940,15.390 14.075,14.179 13.940 C 13.476 13.863,13.209 13.873,12.873 13.992 C 12.516 14.118,12.317 14.279,11.417 15.167 L 10.575 16.000 9.694 16.000 C 8.757 16.000,8.561 16.028,8.322 16.199 C 8.254 16.247,8.158 16.362,8.109 16.453 C 8.029 16.603,8.019 16.689,8.007 17.310 L 7.993 18.000 7.403 18.000 C 6.577 18.000,6.299 18.097,6.109 18.453 C 6.029 18.603,6.019 18.689,6.007 19.310 L 5.993 20.000 4.997 20.000 L 4.000 20.000 4.000 18.711 L 4.000 17.422 6.834 14.581 C 8.393 13.018,9.721 11.659,9.786 11.560 C 10.006 11.223,10.119 10.872,10.120 10.520 C 10.120 10.399,10.090 10.030,10.053 9.700 C 9.899 8.318,10.189 7.153,10.955 6.080 C 11.996 4.621,13.747 3.845,15.552 4.043 M14.649 6.036 C 14.263 6.136,14.039 6.438,14.009 6.900 C 13.965 7.591,14.248 7.929,14.933 7.999 C 15.340 8.041,15.503 8.105,15.699 8.301 C 15.894 8.496,15.956 8.653,16.003 9.067 C 16.081 9.756,16.324 9.978,17.000 9.978 C 17.504 9.978,17.715 9.875,17.894 9.540 C 18.021 9.304,18.016 8.584,17.885 8.160 C 17.583 7.181,16.809 6.405,15.861 6.129 C 15.513 6.028,14.871 5.979,14.649 6.036 " stroke="none" fill-rule="evenodd" fill="black"></path></svg>