<svg width="24" height="24" viewBox="0 0 24 24" fill="none" xmlns="http://www.w3.org/2000/svg"><path d="M3.749 5.045 C 2.967 5.120,2.402 5.371,1.890 5.870 C 1.491 6.260,1.236 6.731,1.094 7.340 C 1.024 7.642,1.020 7.911,1.020 12.020 L 1.020 16.380 1.111 16.735 C 1.281 17.406,1.637 17.962,2.142 18.350 C 2.495 18.621,2.816 18.775,3.265 18.889 L 3.620 18.980 11.980 18.980 C 19.988 18.980,20.353 18.977,20.660 18.906 C 21.459 18.720,22.041 18.327,22.486 17.671 C 22.685 17.378,22.807 17.084,22.906 16.660 C 22.976 16.358,22.980 16.089,22.980 12.000 C 22.980 7.911,22.976 7.642,22.906 7.340 C 22.688 6.404,22.167 5.737,21.329 5.321 C 21.019 5.168,20.706 5.091,20.180 5.042 C 19.643 4.991,4.277 4.994,3.749 5.045 M20.374 7.074 C 20.586 7.146,20.863 7.432,20.928 7.646 C 21.005 7.901,21.005 16.099,20.928 16.354 C 20.863 16.567,20.591 16.849,20.376 16.925 C 20.143 17.007,3.857 17.007,3.624 16.925 C 3.422 16.854,3.140 16.571,3.075 16.374 C 3.009 16.175,2.974 8.513,3.037 7.950 C 3.102 7.365,3.340 7.104,3.866 7.042 C 4.017 7.024,7.758 7.012,12.180 7.016 C 18.671 7.021,20.250 7.032,20.374 7.074 M5.614 9.055 C 5.220 9.184,5.039 9.437,5.009 9.900 C 4.978 10.381,5.119 10.699,5.442 10.880 C 5.597 10.967,5.669 10.980,6.000 10.980 C 6.312 10.980,6.408 10.964,6.540 10.894 C 6.866 10.718,7.000 10.459,7.000 10.000 C 7.000 9.357,6.713 9.048,6.083 9.016 C 5.893 9.006,5.718 9.021,5.614 9.055 M9.614 9.055 C 9.220 9.184,9.039 9.437,9.009 9.900 C 8.978 10.381,9.119 10.699,9.442 10.880 C 9.597 10.967,9.669 10.980,10.000 10.980 C 10.312 10.980,10.408 10.964,10.540 10.894 C 10.866 10.718,11.000 10.459,11.000 10.000 C 11.000 9.357,10.713 9.048,10.083 9.016 C 9.893 9.006,9.718 9.021,9.614 9.055 M13.614 9.055 C 13.220 9.184,13.039 9.437,13.009 9.900 C 12.978 10.381,13.119 10.699,13.442 10.880 C 13.597 10.967,13.669 10.980,14.000 10.980 C 14.312 10.980,14.408 10.964,14.540 10.894 C 14.866 10.718,15.000 10.459,15.000 10.000 C 15.000 9.357,14.713 9.048,14.083 9.016 C 13.893 9.006,13.718 9.021,13.614 9.055 M17.614 9.055 C 17.220 9.184,17.039 9.437,17.009 9.900 C 16.978 10.381,17.119 10.699,17.442 10.880 C 17.597 10.967,17.669 10.980,18.000 10.980 C 18.312 10.980,18.408 10.964,18.540 10.894 C 18.866 10.718,19.000 10.459,19.000 10.000 C 19.000 9.357,18.713 9.048,18.083 9.016 C 17.893 9.006,17.718 9.021,17.614 9.055 M6.545 13.579 C 6.095 13.739,5.884 14.316,6.060 14.908 C 6.130 15.143,6.341 15.359,6.585 15.445 C 6.713 15.491,7.647 15.500,12.000 15.500 C 17.781 15.500,17.432 15.515,17.725 15.251 C 17.982 15.018,18.072 14.536,17.940 14.092 C 17.868 13.852,17.645 13.627,17.413 13.563 C 17.309 13.534,15.584 13.521,11.980 13.522 C 7.593 13.523,6.674 13.533,6.545 13.579 " stroke="none" fill-rule="evenodd" fill="black"></path></svg>