<svg version="1.1" xmlns="http://www.w3.org/2000/svg" width="20" height="20" viewBox="0 0 20 20"><path d="M13.500 2.477 L 13.417 2.519 13.430 3.710 C 13.437 4.364,13.437 4.901,13.430 4.902 C 13.423 4.903,12.699 5.028,11.823 5.180 C 10.827 5.353,10.212 5.474,10.183 5.503 C 10.145 5.543,10.155 5.646,10.249 6.173 C 10.310 6.515,10.370 6.811,10.382 6.831 C 10.394 6.851,10.437 6.867,10.477 6.867 C 10.517 6.867,11.202 6.754,11.998 6.617 C 12.794 6.480,13.448 6.371,13.452 6.376 C 13.455 6.380,13.468 6.833,13.481 7.383 L 13.504 8.383 13.235 8.463 C 12.324 8.734,11.394 9.401,10.844 10.177 C 10.311 10.931,10.051 11.741,10.053 12.650 C 10.054 13.236,10.118 13.537,10.340 14.000 C 10.452 14.234,10.529 14.336,10.779 14.587 C 11.036 14.843,11.133 14.915,11.400 15.045 C 11.838 15.260,12.152 15.335,12.700 15.357 C 13.771 15.399,14.716 15.044,15.675 14.239 C 16.521 13.529,17.407 12.291,17.951 11.057 C 18.046 10.841,18.131 10.658,18.139 10.650 C 18.172 10.617,18.433 11.164,18.506 11.417 C 18.573 11.650,18.583 11.754,18.581 12.250 C 18.580 12.727,18.568 12.867,18.502 13.133 C 18.342 13.789,18.017 14.488,17.607 15.064 C 17.329 15.455,16.756 16.056,16.393 16.337 C 16.076 16.584,15.967 16.684,15.967 16.729 C 15.967 16.792,16.638 17.584,16.718 17.614 C 16.785 17.640,16.830 17.624,16.990 17.514 C 17.499 17.167,18.334 16.364,18.705 15.867 C 20.047 14.066,20.368 12.045,19.561 10.483 C 18.827 9.066,17.197 8.204,15.241 8.201 L 14.832 8.200 14.841 7.160 L 14.850 6.120 15.367 6.032 C 17.913 5.597,18.348 5.516,18.408 5.467 C 18.472 5.415,18.472 5.408,18.366 4.849 C 18.307 4.538,18.239 4.262,18.214 4.236 C 18.175 4.195,17.952 4.219,16.576 4.414 C 15.700 4.539,14.942 4.648,14.892 4.658 L 14.800 4.675 14.800 3.607 C 14.800 2.680,14.793 2.531,14.748 2.486 C 14.704 2.442,14.601 2.433,14.139 2.434 C 13.757 2.434,13.557 2.448,13.500 2.477 M3.574 5.792 C 3.526 5.834,3.016 7.403,1.753 11.395 C 0.789 14.444,0.008 16.953,0.019 16.970 C 0.049 17.020,1.857 17.009,1.890 16.958 C 1.904 16.935,2.142 16.174,2.418 15.267 L 2.920 13.617 4.670 13.608 L 6.420 13.599 6.911 15.216 C 7.181 16.105,7.416 16.870,7.433 16.916 L 7.465 17.000 8.399 17.000 C 9.215 17.000,9.333 16.994,9.333 16.949 C 9.333 16.830,5.824 5.814,5.774 5.775 C 5.734 5.744,5.462 5.733,4.681 5.733 C 3.738 5.733,3.634 5.739,3.574 5.792 M5.397 9.570 C 5.783 10.975,6.100 12.141,6.100 12.162 C 6.100 12.190,5.716 12.200,4.667 12.200 C 3.878 12.200,3.233 12.192,3.233 12.183 C 3.233 12.162,4.628 7.101,4.651 7.037 C 4.661 7.011,4.674 6.996,4.681 7.004 C 4.688 7.011,5.010 8.166,5.397 9.570 M15.873 9.483 C 16.293 9.538,16.636 9.628,16.864 9.741 C 17.004 9.811,17.017 9.828,17.027 9.954 C 17.065 10.474,15.961 12.342,15.069 13.267 L 14.796 13.550 14.815 12.286 C 14.825 11.591,14.833 10.665,14.833 10.228 L 14.833 9.433 15.165 9.433 C 15.347 9.433,15.666 9.456,15.873 9.483 M13.550 11.058 C 13.564 11.805,13.577 12.768,13.579 13.198 L 13.583 13.978 13.417 14.022 C 12.923 14.152,12.335 14.141,11.998 13.996 C 11.790 13.906,11.590 13.686,11.510 13.456 C 11.461 13.314,11.450 13.180,11.452 12.700 C 11.454 12.163,11.461 12.093,11.545 11.819 C 11.774 11.073,12.223 10.455,12.840 10.038 C 12.988 9.938,13.455 9.700,13.503 9.700 C 13.516 9.700,13.537 10.311,13.550 11.058 " stroke="none" fill-rule="evenodd" fill="black"></path></svg>