<svg width="24" height="24" viewBox="0 0 24 24" fill="none" xmlns="http://www.w3.org/2000/svg"><path d="M11.560 3.636 C 11.210 3.750,1.505 8.621,1.341 8.765 C 1.157 8.926,1.002 9.228,0.972 9.483 C 0.941 9.744,1.038 9.993,1.243 10.178 C 1.350 10.274,2.992 11.116,6.370 12.805 C 9.104 14.172,11.437 15.324,11.556 15.365 C 11.832 15.460,12.168 15.460,12.444 15.365 C 12.843 15.228,22.532 10.360,22.674 10.226 C 22.850 10.060,22.999 9.761,23.028 9.517 C 23.059 9.256,22.962 9.007,22.758 8.823 C 22.577 8.659,12.757 3.730,12.401 3.624 C 12.124 3.542,11.837 3.546,11.560 3.636 M15.882 7.561 C 17.995 8.617,19.715 9.495,19.705 9.511 C 19.695 9.527,17.957 10.404,15.843 11.460 L 12.000 13.380 8.157 11.460 C 6.043 10.404,4.305 9.527,4.295 9.511 C 4.276 9.481,11.903 5.646,11.990 5.642 C 12.018 5.641,13.769 6.504,15.882 7.561 M1.580 13.526 C 1.300 13.681,1.014 14.131,0.972 14.483 C 0.941 14.744,1.038 14.993,1.243 15.178 C 1.350 15.274,2.992 16.116,6.370 17.805 C 9.104 19.172,11.437 20.324,11.556 20.365 C 11.832 20.460,12.168 20.460,12.444 20.365 C 12.563 20.324,14.896 19.172,17.630 17.805 C 21.008 16.116,22.650 15.274,22.757 15.178 C 22.962 14.993,23.059 14.744,23.028 14.483 C 22.986 14.129,22.702 13.678,22.432 13.537 C 22.373 13.505,22.211 13.479,22.072 13.478 L 21.820 13.476 16.910 15.928 L 12.000 18.379 7.090 15.928 L 2.180 13.476 1.920 13.479 C 1.777 13.481,1.624 13.502,1.580 13.526 " stroke="none" fill-rule="evenodd" fill="black"></path></svg>