<svg width="24" height="24" viewBox="0 0 24 24" fill="none" xmlns="http://www.w3.org/2000/svg"><path d="M11.560 3.636 C 11.210 3.750,1.505 8.621,1.341 8.765 C 1.157 8.926,1.002 9.228,0.972 9.483 C 0.941 9.744,1.038 9.993,1.243 10.178 C 1.342 10.268,2.014 10.627,3.060 11.150 C 3.973 11.606,4.720 11.989,4.720 12.000 C 4.720 12.011,3.972 12.394,3.058 12.852 C 2.028 13.368,1.337 13.737,1.240 13.824 C 1.038 14.007,0.941 14.257,0.972 14.517 C 1.001 14.761,1.150 15.060,1.326 15.226 C 1.468 15.360,11.157 20.228,11.556 20.365 C 11.832 20.460,12.168 20.460,12.444 20.365 C 12.563 20.324,14.896 19.172,17.630 17.805 C 21.008 16.116,22.650 15.274,22.757 15.178 C 22.962 14.993,23.059 14.744,23.028 14.483 C 22.998 14.227,22.843 13.926,22.659 13.765 C 22.579 13.694,21.786 13.273,20.897 12.828 C 20.007 12.384,19.280 12.011,19.280 12.000 C 19.280 11.988,20.004 11.619,20.888 11.180 C 21.836 10.708,22.559 10.324,22.651 10.243 C 22.843 10.072,22.997 9.776,23.028 9.517 C 23.059 9.256,22.962 9.007,22.758 8.823 C 22.577 8.659,12.757 3.730,12.401 3.624 C 12.124 3.542,11.837 3.546,11.560 3.636 M15.880 7.560 C 17.992 8.616,19.720 9.489,19.720 9.500 C 19.720 9.536,16.863 10.949,16.732 10.978 C 16.662 10.993,16.532 11.058,16.443 11.122 C 16.354 11.187,15.318 11.721,14.141 12.309 L 12.000 13.380 9.859 12.309 C 8.682 11.721,7.646 11.187,7.557 11.122 C 7.468 11.058,7.338 10.993,7.268 10.978 C 7.137 10.949,4.280 9.536,4.280 9.500 C 4.280 9.472,11.929 5.645,11.990 5.642 C 12.018 5.641,13.768 6.504,15.880 7.560 M9.170 14.205 C 10.364 14.802,11.437 15.324,11.556 15.365 C 11.675 15.406,11.875 15.440,12.000 15.440 C 12.125 15.440,12.325 15.406,12.444 15.365 C 12.563 15.324,13.637 14.802,14.830 14.205 L 17.000 13.120 18.362 13.801 C 19.111 14.175,19.715 14.495,19.705 14.511 C 19.695 14.527,17.957 15.404,15.843 16.460 L 12.000 18.380 8.157 16.460 C 6.043 15.404,4.305 14.527,4.295 14.511 C 4.282 14.490,6.899 13.142,6.990 13.122 C 6.996 13.121,7.977 13.608,9.170 14.205 " stroke="none" fill-rule="evenodd" fill="black"></path></svg>