<svg width="24" height="24" viewBox="0 0 24 24" fill="none" xmlns="http://www.w3.org/2000/svg"><path d="M11.500 1.153 C 11.150 1.285,1.460 6.148,1.330 6.258 C 1.162 6.399,1.000 6.740,0.972 7.012 C 0.943 7.297,1.059 7.555,1.295 7.728 C 1.386 7.794,3.728 8.981,6.500 10.366 C 11.922 13.074,11.767 13.005,12.230 12.924 C 12.409 12.892,13.582 12.323,17.501 10.366 C 20.274 8.982,22.600 7.801,22.669 7.743 C 22.838 7.601,23.000 7.261,23.028 6.988 C 23.057 6.703,22.941 6.445,22.705 6.272 C 22.614 6.206,20.269 5.016,17.493 3.628 L 12.445 1.104 12.073 1.091 C 11.782 1.081,11.656 1.095,11.500 1.153 M15.860 5.050 C 17.983 6.111,19.720 6.989,19.720 7.000 C 19.720 7.011,17.983 7.889,15.860 8.950 L 12.000 10.880 8.140 8.950 C 6.017 7.889,4.280 7.011,4.280 7.000 C 4.280 6.985,11.936 3.134,11.990 3.122 C 11.995 3.121,13.737 3.988,15.860 5.050 M1.570 11.042 C 1.263 11.198,1.015 11.603,0.972 12.016 C 0.943 12.297,1.061 12.556,1.295 12.728 C 1.386 12.794,3.728 13.981,6.500 15.366 C 10.420 17.324,11.591 17.892,11.770 17.924 C 12.233 18.005,12.078 18.074,17.500 15.366 C 20.272 13.981,22.614 12.794,22.705 12.728 C 22.938 12.557,23.057 12.296,23.028 12.020 C 22.985 11.601,22.728 11.189,22.416 11.038 C 22.030 10.851,22.301 10.734,16.890 13.437 L 12.000 15.880 7.110 13.436 C 2.594 11.179,2.202 10.991,1.980 10.974 C 1.787 10.959,1.706 10.972,1.570 11.042 M1.570 16.042 C 1.263 16.198,1.015 16.603,0.972 17.016 C 0.943 17.297,1.061 17.556,1.295 17.728 C 1.386 17.794,3.728 18.981,6.500 20.366 C 10.420 22.324,11.591 22.892,11.770 22.924 C 12.233 23.005,12.078 23.074,17.500 20.366 C 20.272 18.981,22.614 17.794,22.705 17.728 C 22.938 17.557,23.057 17.296,23.028 17.020 C 22.985 16.601,22.728 16.189,22.416 16.038 C 22.030 15.851,22.301 15.734,16.890 18.437 L 12.000 20.880 7.110 18.436 C 2.594 16.179,2.202 15.991,1.980 15.974 C 1.787 15.959,1.706 15.972,1.570 16.042 " stroke="none" fill-rule="evenodd" fill="black"></path></svg>