<svg width="24" height="24" viewBox="0 0 24 24" fill="none" xmlns="http://www.w3.org/2000/svg"><path d="M11.500 6.153 C 11.174 6.276,1.475 11.141,1.295 11.272 C 1.059 11.445,0.943 11.703,0.972 11.988 C 1.000 12.261,1.162 12.601,1.331 12.743 C 1.400 12.801,3.726 13.982,6.499 15.366 C 10.418 17.323,11.591 17.892,11.770 17.924 C 12.233 18.005,12.078 18.074,17.500 15.366 C 20.272 13.981,22.614 12.794,22.705 12.728 C 22.941 12.555,23.057 12.297,23.028 12.012 C 23.000 11.739,22.838 11.399,22.669 11.257 C 22.600 11.199,20.271 10.015,17.494 8.627 L 12.445 6.104 12.073 6.091 C 11.782 6.081,11.656 6.095,11.500 6.153 M15.860 10.050 C 17.983 11.111,19.720 11.989,19.720 12.000 C 19.720 12.011,17.983 12.889,15.860 13.950 L 12.000 15.880 8.140 13.950 C 6.017 12.889,4.280 12.011,4.280 12.000 C 4.280 11.985,11.936 8.134,11.990 8.122 C 11.995 8.121,13.737 8.988,15.860 10.050 " stroke="none" fill-rule="evenodd" fill="black"></path></svg>