<svg width="24" height="24" viewBox="0 0 24 24" fill="none" xmlns="http://www.w3.org/2000/svg"><path d="M11.500 1.153 C 11.150 1.285,1.460 6.148,1.330 6.258 C 1.162 6.399,1.000 6.740,0.972 7.012 C 0.943 7.297,1.059 7.555,1.295 7.728 C 1.386 7.794,2.193 8.215,3.090 8.664 C 3.986 9.113,4.720 9.489,4.720 9.500 C 4.720 9.511,3.986 9.887,3.090 10.336 C 2.193 10.785,1.386 11.206,1.295 11.272 C 1.059 11.445,0.943 11.703,0.972 11.988 C 1.000 12.260,1.162 12.601,1.329 12.742 C 1.398 12.800,2.189 13.215,3.087 13.664 C 3.985 14.113,4.720 14.489,4.720 14.500 C 4.720 14.511,3.986 14.887,3.090 15.336 C 2.193 15.785,1.386 16.206,1.295 16.272 C 1.059 16.445,0.943 16.703,0.972 16.988 C 1.000 17.261,1.162 17.601,1.331 17.743 C 1.400 17.801,3.726 18.982,6.499 20.366 C 10.418 22.323,11.591 22.892,11.770 22.924 C 12.233 23.005,12.078 23.074,17.500 20.366 C 20.272 18.981,22.614 17.794,22.705 17.728 C 22.941 17.555,23.057 17.297,23.028 17.012 C 23.000 16.740,22.838 16.399,22.671 16.258 C 22.602 16.200,21.811 15.785,20.913 15.336 C 20.015 14.887,19.280 14.511,19.280 14.500 C 19.280 14.489,20.014 14.113,20.910 13.664 C 21.806 13.215,22.614 12.794,22.705 12.728 C 22.941 12.555,23.057 12.297,23.028 12.012 C 23.000 11.740,22.838 11.399,22.671 11.258 C 22.602 11.200,21.811 10.785,20.913 10.336 C 20.015 9.887,19.280 9.511,19.280 9.500 C 19.280 9.489,20.015 9.113,20.913 8.664 C 21.811 8.215,22.602 7.800,22.671 7.742 C 22.838 7.601,23.000 7.260,23.028 6.988 C 23.057 6.703,22.941 6.445,22.705 6.272 C 22.614 6.206,20.269 5.016,17.493 3.628 L 12.445 1.104 12.073 1.091 C 11.782 1.081,11.656 1.095,11.500 1.153 M15.860 5.050 C 17.983 6.111,19.720 6.989,19.720 7.000 C 19.720 7.034,16.789 8.475,16.673 8.498 C 16.614 8.510,16.515 8.563,16.453 8.615 C 16.391 8.667,15.364 9.198,14.170 9.795 L 12.000 10.880 9.830 9.795 C 8.637 9.198,7.609 8.667,7.547 8.615 C 7.485 8.563,7.386 8.510,7.327 8.498 C 7.211 8.475,4.280 7.034,4.280 7.000 C 4.280 6.985,11.935 3.135,11.990 3.122 C 11.995 3.121,13.737 3.988,15.860 5.050 M9.289 11.761 C 11.722 12.973,11.792 13.001,12.230 12.923 C 12.402 12.893,13.031 12.598,14.730 11.752 L 17.001 10.621 18.360 11.300 C 19.108 11.674,19.720 11.988,19.720 12.000 C 19.720 12.034,16.790 13.475,16.673 13.498 C 16.614 13.510,16.515 13.563,16.453 13.615 C 16.391 13.667,15.364 14.198,14.170 14.795 L 12.000 15.880 9.830 14.795 C 8.636 14.198,7.609 13.667,7.547 13.615 C 7.485 13.563,7.386 13.510,7.327 13.498 C 7.210 13.475,4.280 12.034,4.280 12.000 C 4.280 11.972,6.927 10.645,6.989 10.642 C 7.015 10.641,8.050 11.145,9.289 11.761 M9.289 16.761 C 11.722 17.973,11.792 18.001,12.230 17.923 C 12.402 17.893,13.031 17.598,14.730 16.752 L 17.001 15.621 18.360 16.300 C 19.108 16.674,19.720 16.988,19.720 17.000 C 19.720 17.011,17.983 17.889,15.860 18.950 L 12.000 20.880 8.140 18.950 C 6.017 17.889,4.280 17.011,4.280 17.000 C 4.280 16.972,6.928 15.645,6.989 15.642 C 7.015 15.641,8.050 16.145,9.289 16.761 " stroke="none" fill-rule="evenodd" fill="black"></path></svg>