<svg width="24" height="24" viewBox="0 0 24 24" fill="none" xmlns="http://www.w3.org/2000/svg"><path d="M2.992 1.590 C 2.581 1.743,2.288 2.037,2.111 2.474 L 2.020 2.700 2.009 6.354 C 2.002 8.723,2.012 10.087,2.038 10.230 C 2.230 11.267,3.192 11.770,4.138 11.327 C 4.287 11.257,5.335 10.499,6.793 9.404 C 9.488 7.383,9.495 7.376,9.617 6.842 C 9.694 6.501,9.694 6.499,9.617 6.158 C 9.495 5.623,9.487 5.616,6.791 3.594 C 5.282 2.463,4.283 1.740,4.120 1.663 C 3.792 1.508,3.297 1.476,2.992 1.590 M11.649 3.039 C 11.441 3.089,11.209 3.266,11.111 3.450 C 11.034 3.593,11.020 3.680,11.021 4.000 C 11.023 4.505,11.126 4.715,11.460 4.894 L 11.620 4.980 16.500 4.980 C 21.191 4.980,21.385 4.977,21.520 4.905 C 21.875 4.715,21.977 4.514,21.979 4.000 C 21.980 3.668,21.967 3.598,21.880 3.442 C 21.816 3.328,21.709 3.219,21.583 3.142 L 21.386 3.020 16.583 3.014 C 13.941 3.010,11.721 3.022,11.649 3.039 M7.272 6.459 C 7.314 6.497,6.993 6.756,5.662 7.754 L 4.000 9.000 4.000 6.500 L 4.000 3.999 5.610 5.205 C 6.495 5.868,7.243 6.432,7.272 6.459 M11.760 8.280 C 11.497 8.327,11.388 8.378,11.247 8.519 C 10.907 8.859,10.929 9.695,11.287 10.029 C 11.522 10.248,11.332 10.240,16.500 10.240 C 21.668 10.240,21.478 10.248,21.713 10.029 C 22.078 9.688,22.093 8.851,21.740 8.508 C 21.473 8.249,21.758 8.263,16.620 8.255 C 14.046 8.251,11.859 8.263,11.760 8.280 M2.640 13.797 C 2.180 13.937,1.970 14.285,2.009 14.838 C 2.045 15.337,2.262 15.622,2.680 15.717 C 2.930 15.774,21.070 15.774,21.320 15.717 C 21.575 15.659,21.782 15.502,21.889 15.286 C 21.963 15.134,21.980 15.034,21.980 14.740 C 21.980 14.430,21.966 14.355,21.880 14.202 C 21.770 14.005,21.586 13.862,21.365 13.801 C 21.193 13.753,2.796 13.750,2.640 13.797 M2.614 19.057 C 2.377 19.131,2.212 19.261,2.109 19.453 C 2.035 19.592,2.020 19.684,2.020 20.000 C 2.020 20.331,2.033 20.403,2.120 20.558 C 2.230 20.755,2.414 20.898,2.635 20.959 C 2.835 21.015,21.165 21.015,21.365 20.959 C 21.586 20.898,21.770 20.755,21.880 20.558 C 21.967 20.402,21.980 20.332,21.979 20.000 C 21.978 19.567,21.898 19.355,21.678 19.199 C 21.385 18.990,21.877 19.000,11.984 19.003 C 4.546 19.005,2.748 19.015,2.614 19.057 " stroke="none" fill-rule="evenodd" fill="black"></path></svg>