<svg width="24" height="24" viewBox="0 0 24 24" fill="none" xmlns="http://www.w3.org/2000/svg"><path d="M2.614 3.057 C 2.377 3.131,2.212 3.261,2.109 3.453 C 2.035 3.592,2.020 3.684,2.020 4.000 C 2.020 4.331,2.033 4.403,2.120 4.558 C 2.230 4.755,2.414 4.898,2.635 4.959 C 2.835 5.015,21.165 5.015,21.365 4.959 C 21.586 4.898,21.770 4.755,21.880 4.558 C 21.967 4.402,21.980 4.332,21.979 4.000 C 21.978 3.567,21.898 3.355,21.678 3.199 C 21.385 2.990,21.877 3.000,11.984 3.003 C 4.546 3.005,2.748 3.015,2.614 3.057 M2.992 7.190 C 2.581 7.343,2.288 7.637,2.111 8.074 L 2.020 8.300 2.009 11.954 C 2.002 14.323,2.012 15.687,2.038 15.830 C 2.230 16.867,3.192 17.370,4.138 16.927 C 4.287 16.857,5.335 16.099,6.793 15.004 C 9.488 12.983,9.495 12.976,9.617 12.442 C 9.694 12.101,9.694 12.099,9.617 11.758 C 9.495 11.223,9.487 11.216,6.791 9.194 C 5.282 8.063,4.283 7.340,4.120 7.263 C 3.792 7.108,3.297 7.076,2.992 7.190 M11.760 8.280 C 11.498 8.327,11.388 8.378,11.247 8.519 C 10.920 8.846,10.922 9.644,11.250 9.988 C 11.502 10.253,11.238 10.240,16.500 10.240 C 21.762 10.240,21.498 10.253,21.750 9.988 C 22.085 9.637,22.080 8.838,21.740 8.508 C 21.473 8.249,21.757 8.263,16.620 8.255 C 14.046 8.251,11.859 8.263,11.760 8.280 M7.272 12.059 C 7.314 12.097,6.993 12.356,5.662 13.354 L 4.000 14.600 4.000 12.100 L 4.000 9.599 5.610 10.805 C 6.495 11.468,7.243 12.032,7.272 12.059 M11.640 13.797 C 11.180 13.937,10.970 14.285,11.009 14.838 C 11.045 15.337,11.262 15.622,11.680 15.717 C 11.928 15.774,21.072 15.773,21.320 15.717 C 21.575 15.659,21.782 15.502,21.889 15.286 C 21.963 15.134,21.980 15.034,21.980 14.740 C 21.980 14.430,21.966 14.355,21.880 14.202 C 21.770 14.005,21.586 13.862,21.365 13.801 C 21.193 13.753,11.796 13.750,11.640 13.797 M2.614 19.057 C 2.377 19.131,2.212 19.261,2.109 19.453 C 2.035 19.592,2.020 19.684,2.020 20.000 C 2.020 20.331,2.033 20.403,2.120 20.558 C 2.230 20.755,2.414 20.898,2.635 20.959 C 2.835 21.015,21.165 21.015,21.365 20.959 C 21.586 20.898,21.770 20.755,21.880 20.558 C 21.967 20.402,21.980 20.332,21.979 20.000 C 21.978 19.567,21.898 19.355,21.678 19.199 C 21.385 18.990,21.877 19.000,11.984 19.003 C 4.546 19.005,2.748 19.015,2.614 19.057 " stroke="none" fill-rule="evenodd" fill="black"></path></svg>