<svg width="24" height="24" viewBox="0 0 24 24" fill="none" xmlns="http://www.w3.org/2000/svg"><path d="M6.614 2.057 C 6.377 2.131,6.212 2.261,6.109 2.453 C 6.035 2.592,6.020 2.684,6.020 3.000 C 6.020 3.331,6.033 3.403,6.120 3.558 C 6.230 3.755,6.414 3.898,6.635 3.959 C 6.724 3.984,7.600 4.000,8.890 4.000 L 11.000 4.000 11.000 9.110 C 11.000 12.410,11.015 14.271,11.041 14.365 C 11.148 14.750,11.437 14.962,11.896 14.991 C 12.381 15.022,12.699 14.882,12.880 14.558 L 12.980 14.380 12.991 9.190 L 13.001 4.000 15.111 4.000 C 16.400 4.000,17.276 3.984,17.365 3.959 C 17.586 3.898,17.770 3.755,17.880 3.558 C 17.967 3.402,17.980 3.332,17.979 3.000 C 17.978 2.567,17.898 2.355,17.678 2.199 C 17.390 1.994,17.565 2.000,11.984 2.003 C 7.830 2.005,6.746 2.016,6.614 2.057 M4.620 14.046 C 4.528 14.094,3.826 14.758,2.960 15.618 C 2.135 16.438,1.399 17.150,1.324 17.201 C 1.149 17.321,0.951 17.745,0.951 18.000 C 0.951 18.238,1.150 18.682,1.303 18.784 C 1.366 18.826,2.101 19.537,2.938 20.365 C 3.949 21.365,4.520 21.901,4.637 21.960 C 4.989 22.137,5.354 22.048,5.701 21.701 C 6.048 21.354,6.137 20.988,5.959 20.637 C 5.905 20.531,5.580 20.168,5.147 19.730 L 4.425 19.000 12.000 19.000 L 19.575 19.000 18.853 19.730 C 18.420 20.168,18.095 20.531,18.041 20.637 C 17.863 20.988,17.952 21.354,18.299 21.701 C 18.646 22.048,19.011 22.137,19.363 21.960 C 19.480 21.901,20.051 21.365,21.062 20.365 C 21.899 19.537,22.634 18.826,22.697 18.784 C 22.850 18.682,23.049 18.238,23.049 18.000 C 23.049 17.745,22.851 17.321,22.676 17.201 C 22.601 17.150,21.865 16.438,21.040 15.618 C 20.085 14.670,19.479 14.098,19.372 14.044 C 19.020 13.868,18.639 13.959,18.299 14.299 C 17.952 14.646,17.863 15.012,18.041 15.363 C 18.095 15.469,18.420 15.832,18.853 16.270 L 19.575 17.000 12.000 17.000 L 4.425 17.000 5.147 16.270 C 5.580 15.832,5.905 15.469,5.959 15.363 C 6.137 15.012,6.048 14.646,5.701 14.299 C 5.361 13.959,4.967 13.867,4.620 14.046 " stroke="none" fill-rule="evenodd" fill="black"></path></svg>