<svg width="24" height="24" viewBox="0 0 24 24" fill="none" xmlns="http://www.w3.org/2000/svg"><path d="M2.614 2.057 C 2.377 2.131,2.212 2.261,2.109 2.453 L 2.020 2.620 2.010 11.914 C 2.003 18.056,2.013 21.260,2.040 21.358 C 2.144 21.747,2.435 21.962,2.896 21.991 C 3.381 22.022,3.699 21.882,3.880 21.558 L 3.980 21.380 3.980 12.000 L 3.980 2.620 3.891 2.453 C 3.842 2.362,3.746 2.247,3.678 2.199 C 3.414 2.010,2.957 1.950,2.614 2.057 M20.614 2.057 C 20.377 2.131,20.212 2.261,20.109 2.453 L 20.020 2.620 20.010 11.914 C 20.003 18.056,20.013 21.260,20.040 21.358 C 20.144 21.747,20.435 21.962,20.896 21.991 C 21.381 22.022,21.699 21.882,21.880 21.558 L 21.980 21.380 21.980 12.000 L 21.980 2.620 21.891 2.453 C 21.842 2.362,21.746 2.247,21.678 2.199 C 21.414 2.010,20.957 1.950,20.614 2.057 M11.473 5.815 C 11.169 5.940,10.956 6.115,10.770 6.394 C 10.624 6.613,6.191 16.305,6.034 16.749 C 5.850 17.268,6.051 17.673,6.617 17.923 C 7.046 18.112,7.441 18.051,7.694 17.757 C 7.781 17.654,8.112 16.973,8.644 15.800 L 9.460 14.001 12.000 14.001 L 14.540 14.001 15.356 15.800 C 15.888 16.973,16.219 17.654,16.306 17.757 C 16.559 18.051,16.954 18.112,17.383 17.923 C 17.949 17.673,18.150 17.268,17.966 16.749 C 17.809 16.305,13.376 6.613,13.230 6.394 C 12.933 5.951,12.515 5.722,12.000 5.722 C 11.777 5.722,11.642 5.746,11.473 5.815 M12.814 10.210 C 13.246 11.162,13.600 11.954,13.600 11.970 C 13.600 11.987,12.880 12.000,12.000 12.000 C 11.120 12.000,10.400 11.987,10.400 11.970 C 10.400 11.912,11.973 8.480,12.000 8.480 C 12.015 8.480,12.381 9.258,12.814 10.210 " stroke="none" fill-rule="evenodd" fill="black"></path></svg>