<svg width="24" height="24" viewBox="0 0 24 24" fill="none" xmlns="http://www.w3.org/2000/svg"><path d="M7.959 1.054 C 7.669 1.117,7.408 1.274,7.200 1.509 C 7.073 1.653,6.476 2.811,4.757 6.246 C 3.507 8.747,2.447 10.901,2.402 11.035 C 2.196 11.646,2.393 12.303,2.896 12.679 C 3.314 12.992,3.159 12.978,6.325 13.000 L 9.150 13.020 7.816 17.460 C 6.844 20.697,6.483 21.954,6.482 22.100 C 6.482 22.213,6.515 22.373,6.558 22.468 C 6.750 22.891,7.469 23.128,7.912 22.914 C 8.047 22.849,9.562 21.301,14.410 16.274 C 17.887 12.668,20.815 9.614,20.918 9.487 C 21.627 8.603,21.354 7.496,20.331 7.109 C 20.102 7.022,20.071 7.021,16.776 7.001 L 13.453 6.980 14.345 4.600 C 14.835 3.292,15.248 2.152,15.262 2.067 C 15.329 1.672,15.146 1.340,14.746 1.128 L 14.540 1.020 11.360 1.013 C 9.009 1.008,8.122 1.018,7.959 1.054 M12.781 3.070 C 12.766 3.109,12.365 4.175,11.890 5.440 C 11.254 7.132,11.021 7.798,11.009 7.960 C 10.977 8.376,11.132 8.707,11.442 8.880 L 11.620 8.980 15.123 9.000 L 18.626 9.020 14.164 13.648 C 11.710 16.193,9.695 18.268,9.687 18.260 C 9.678 18.251,10.080 16.880,10.581 15.212 C 11.365 12.597,11.490 12.146,11.487 11.932 C 11.481 11.530,11.311 11.235,11.000 11.087 C 10.874 11.027,10.557 11.019,7.750 11.009 C 6.040 11.003,4.640 10.989,4.640 10.979 C 4.640 10.969,5.535 9.169,6.630 6.980 L 8.620 3.000 10.714 3.000 C 12.693 3.000,12.807 3.004,12.781 3.070 " stroke="none" fill-rule="evenodd" fill="black"></path></svg>