<svg width="24" height="24" viewBox="0 0 24 24" fill="none" xmlns="http://www.w3.org/2000/svg"><path d="M11.614 1.057 C 11.377 1.131,11.212 1.261,11.109 1.453 C 11.027 1.606,11.019 1.684,11.007 2.405 C 10.999 2.880,11.011 3.252,11.037 3.349 C 11.144 3.748,11.430 3.961,11.896 3.991 C 12.381 4.022,12.699 3.882,12.880 3.558 C 12.978 3.383,12.980 3.364,12.980 2.500 C 12.980 1.667,12.975 1.611,12.891 1.453 C 12.842 1.362,12.746 1.247,12.678 1.199 C 12.414 1.010,11.957 0.950,11.614 1.057 M4.660 3.887 C 4.222 4.051,3.839 4.529,3.841 4.909 C 3.843 5.189,3.978 5.393,4.512 5.923 C 5.080 6.486,5.252 6.587,5.584 6.550 C 5.995 6.503,6.511 5.978,6.550 5.565 C 6.581 5.250,6.463 5.056,5.904 4.497 C 5.633 4.227,5.350 3.982,5.262 3.941 C 5.064 3.850,4.817 3.828,4.660 3.887 M18.860 3.887 C 18.794 3.912,18.668 3.981,18.580 4.041 C 18.323 4.217,17.605 4.981,17.519 5.169 C 17.361 5.518,17.452 5.856,17.798 6.202 C 18.150 6.554,18.486 6.641,18.837 6.472 C 19.058 6.366,19.829 5.627,20.005 5.353 C 20.251 4.968,20.193 4.599,19.826 4.226 C 19.509 3.904,19.151 3.778,18.860 3.887 M11.540 5.023 C 10.715 5.102,10.250 5.200,9.620 5.427 C 7.452 6.207,5.779 8.052,5.223 10.275 C 5.064 10.908,5.023 11.264,5.023 12.000 C 5.023 12.736,5.064 13.092,5.223 13.725 C 5.699 15.629,7.057 17.337,8.794 18.217 L 8.993 18.318 9.009 19.449 C 9.025 20.491,9.033 20.602,9.117 20.860 C 9.435 21.840,10.184 22.582,11.160 22.886 C 11.594 23.021,12.406 23.021,12.840 22.886 C 13.816 22.582,14.565 21.840,14.883 20.860 C 14.967 20.602,14.975 20.491,14.991 19.449 L 15.007 18.318 15.206 18.217 C 16.733 17.443,17.983 16.018,18.573 14.380 C 18.876 13.538,18.977 12.944,18.977 12.000 C 18.977 11.056,18.876 10.462,18.573 9.620 C 17.715 7.237,15.581 5.473,13.102 5.098 C 12.726 5.041,11.813 4.997,11.540 5.023 M12.552 7.043 C 14.413 7.246,16.001 8.479,16.680 10.248 C 17.092 11.320,17.085 12.720,16.663 13.793 C 16.206 14.956,15.309 15.937,14.212 16.476 C 12.808 17.165,11.191 17.164,9.785 16.474 C 8.676 15.930,7.774 14.933,7.320 13.752 C 6.915 12.699,6.915 11.301,7.320 10.248 C 8.146 8.096,10.274 6.793,12.552 7.043 M1.614 11.057 C 1.377 11.131,1.212 11.261,1.109 11.453 C 1.035 11.592,1.020 11.684,1.020 12.000 C 1.020 12.331,1.033 12.403,1.120 12.558 C 1.230 12.755,1.414 12.898,1.635 12.959 C 1.823 13.012,3.177 13.012,3.365 12.959 C 3.586 12.898,3.770 12.755,3.880 12.558 C 3.967 12.402,3.980 12.332,3.979 12.000 C 3.978 11.687,3.962 11.591,3.890 11.453 C 3.786 11.256,3.623 11.131,3.371 11.055 C 3.126 10.982,1.851 10.983,1.614 11.057 M20.614 11.057 C 20.377 11.131,20.212 11.261,20.109 11.453 C 20.035 11.592,20.020 11.684,20.020 12.000 C 20.020 12.331,20.033 12.403,20.120 12.558 C 20.230 12.755,20.414 12.898,20.635 12.959 C 20.823 13.012,22.177 13.012,22.365 12.959 C 22.586 12.898,22.770 12.755,22.880 12.558 C 22.967 12.402,22.980 12.332,22.979 12.000 C 22.978 11.687,22.962 11.591,22.890 11.453 C 22.786 11.256,22.623 11.131,22.371 11.055 C 22.126 10.982,20.851 10.983,20.614 11.057 M12.000 18.980 C 12.363 18.980,12.737 18.966,12.830 18.950 L 13.000 18.919 13.000 19.513 C 13.000 20.356,12.896 20.630,12.484 20.872 C 12.328 20.963,12.254 20.980,12.000 20.980 C 11.746 20.980,11.672 20.963,11.516 20.872 C 11.415 20.813,11.284 20.700,11.225 20.623 C 11.035 20.374,11.000 20.205,11.000 19.534 L 11.000 18.919 11.170 18.950 C 11.263 18.966,11.637 18.980,12.000 18.980 " stroke="none" fill-rule="evenodd" fill="black"></path></svg>