<svg width="24" height="24" viewBox="0 0 24 24" fill="none" xmlns="http://www.w3.org/2000/svg"><path d="M11.207 1.043 C 9.656 1.193,8.096 1.846,6.900 2.847 C 5.985 3.612,5.307 4.477,4.800 5.529 C 3.602 8.009,3.758 10.879,5.218 13.234 C 5.845 14.246,6.867 15.264,7.805 15.813 L 7.990 15.922 8.011 16.691 C 8.027 17.297,8.049 17.528,8.116 17.780 C 8.394 18.833,9.154 19.595,10.220 19.889 C 10.523 19.973,10.617 19.977,12.000 19.977 C 13.380 19.977,13.477 19.972,13.772 19.890 C 14.852 19.587,15.602 18.837,15.884 17.778 C 15.951 17.527,15.973 17.298,15.989 16.691 L 16.010 15.922 16.195 15.815 C 16.565 15.601,17.269 15.039,17.649 14.654 C 20.073 12.199,20.685 8.602,19.200 5.529 C 18.693 4.477,18.015 3.612,17.100 2.847 C 15.482 1.493,13.338 0.837,11.207 1.043 M12.564 3.039 C 14.921 3.269,16.913 4.837,17.671 7.060 C 18.200 8.611,18.071 10.312,17.316 11.758 C 16.736 12.869,15.930 13.683,14.800 14.301 C 14.316 14.565,14.224 14.640,14.108 14.860 C 14.030 15.008,14.021 15.105,13.997 16.144 C 13.972 17.220,13.967 17.277,13.876 17.459 C 13.772 17.667,13.615 17.818,13.400 17.916 C 13.281 17.970,13.069 17.980,12.000 17.980 C 10.762 17.980,10.737 17.978,10.551 17.887 C 10.447 17.836,10.314 17.737,10.255 17.667 C 10.044 17.417,10.031 17.341,10.003 16.140 C 9.969 14.692,9.986 14.731,9.200 14.301 C 8.626 13.987,8.209 13.683,7.802 13.280 C 5.657 11.156,5.406 7.820,7.209 5.400 C 7.316 5.257,7.551 4.989,7.731 4.805 C 9.008 3.503,10.757 2.864,12.564 3.039 M9.614 9.057 C 9.377 9.131,9.212 9.261,9.109 9.453 C 9.035 9.592,9.020 9.684,9.020 10.000 C 9.020 10.331,9.033 10.403,9.120 10.558 C 9.230 10.755,9.414 10.898,9.635 10.959 C 9.715 10.981,10.055 11.000,10.390 11.000 L 11.000 11.000 11.000 13.610 C 11.000 15.235,11.016 16.275,11.041 16.365 C 11.148 16.750,11.437 16.962,11.896 16.991 C 12.381 17.022,12.699 16.882,12.880 16.558 L 12.980 16.380 12.991 13.690 L 13.003 11.000 13.611 11.000 C 13.946 11.000,14.285 10.981,14.365 10.959 C 14.586 10.898,14.770 10.755,14.880 10.558 C 14.967 10.402,14.980 10.332,14.979 10.000 C 14.978 9.567,14.898 9.355,14.678 9.199 C 14.406 9.005,14.336 9.000,11.984 9.003 C 10.293 9.005,9.741 9.017,9.614 9.057 M9.180 21.039 C 8.715 21.159,8.514 21.447,8.512 21.997 C 8.510 22.501,8.711 22.827,9.096 22.941 C 9.391 23.029,14.609 23.029,14.904 22.941 C 15.290 22.827,15.486 22.508,15.486 21.997 C 15.486 21.491,15.303 21.196,14.909 21.064 C 14.740 21.008,14.391 21.000,12.009 21.004 C 10.519 21.006,9.246 21.022,9.180 21.039 " stroke="none" fill-rule="evenodd" fill="black"></path></svg>