<svg width="24" height="24" viewBox="0 0 24 24" fill="none" xmlns="http://www.w3.org/2000/svg"><path d="M11.614 1.057 C 11.377 1.131,11.212 1.261,11.109 1.453 C 11.027 1.606,11.019 1.684,11.007 2.405 C 10.999 2.880,11.011 3.252,11.037 3.349 C 11.144 3.748,11.430 3.961,11.896 3.991 C 12.381 4.022,12.699 3.882,12.880 3.558 C 12.978 3.383,12.980 3.364,12.980 2.500 C 12.980 1.667,12.975 1.611,12.891 1.453 C 12.842 1.362,12.746 1.247,12.678 1.199 C 12.414 1.010,11.957 0.950,11.614 1.057 M4.660 3.887 C 4.222 4.051,3.839 4.529,3.841 4.909 C 3.843 5.189,3.978 5.393,4.512 5.923 C 5.080 6.486,5.252 6.587,5.584 6.550 C 5.995 6.503,6.511 5.978,6.550 5.565 C 6.581 5.250,6.463 5.056,5.904 4.497 C 5.633 4.227,5.350 3.982,5.262 3.941 C 5.064 3.850,4.817 3.828,4.660 3.887 M18.860 3.887 C 18.794 3.912,18.668 3.981,18.580 4.041 C 18.323 4.217,17.605 4.981,17.519 5.169 C 17.361 5.518,17.452 5.856,17.798 6.202 C 18.150 6.554,18.486 6.641,18.837 6.472 C 19.058 6.366,19.829 5.627,20.005 5.353 C 20.251 4.968,20.193 4.599,19.826 4.226 C 19.509 3.904,19.151 3.778,18.860 3.887 M11.540 5.023 C 10.715 5.102,10.250 5.200,9.620 5.427 C 7.452 6.207,5.779 8.052,5.223 10.275 C 5.061 10.918,5.022 11.263,5.023 12.040 C 5.023 13.223,5.215 14.040,5.741 15.100 C 6.114 15.851,6.457 16.335,7.024 16.909 L 7.468 17.359 7.493 18.809 C 7.511 19.780,7.538 20.359,7.575 20.560 C 7.823 21.885,8.805 22.788,10.180 22.956 C 10.649 23.013,13.351 23.013,13.820 22.956 C 15.229 22.784,16.233 21.827,16.440 20.459 C 16.463 20.305,16.493 19.545,16.507 18.769 L 16.532 17.359 16.976 16.909 C 17.543 16.335,17.886 15.851,18.259 15.100 C 18.785 14.040,18.977 13.223,18.977 12.040 C 18.978 11.055,18.881 10.474,18.573 9.620 C 17.715 7.237,15.581 5.473,13.102 5.098 C 12.726 5.041,11.813 4.997,11.540 5.023 M12.552 7.043 C 14.413 7.246,16.001 8.479,16.680 10.248 C 16.822 10.616,16.917 11.050,16.966 11.556 C 17.131 13.239,16.431 14.842,15.043 15.960 C 14.799 16.157,14.694 16.273,14.610 16.440 L 14.500 16.660 14.479 18.480 C 14.464 19.743,14.443 20.333,14.411 20.408 C 14.328 20.598,14.082 20.833,13.887 20.908 C 13.717 20.973,13.544 20.980,12.000 20.980 C 10.456 20.980,10.283 20.973,10.113 20.908 C 9.918 20.833,9.672 20.598,9.589 20.408 C 9.557 20.333,9.536 19.743,9.521 18.480 C 9.496 16.349,9.517 16.456,9.058 16.057 C 8.213 15.323,7.868 14.899,7.497 14.140 C 6.999 13.120,6.874 11.871,7.160 10.763 C 7.783 8.350,10.072 6.771,12.552 7.043 M1.614 11.057 C 1.377 11.131,1.212 11.261,1.109 11.453 C 1.035 11.592,1.020 11.684,1.020 12.000 C 1.020 12.331,1.033 12.403,1.120 12.558 C 1.230 12.755,1.414 12.898,1.635 12.959 C 1.823 13.012,3.177 13.012,3.365 12.959 C 3.586 12.898,3.770 12.755,3.880 12.558 C 3.967 12.402,3.980 12.332,3.979 12.000 C 3.978 11.687,3.962 11.591,3.890 11.453 C 3.786 11.256,3.623 11.131,3.371 11.055 C 3.126 10.982,1.851 10.983,1.614 11.057 M20.614 11.057 C 20.377 11.131,20.212 11.261,20.109 11.453 C 20.035 11.592,20.020 11.684,20.020 12.000 C 20.020 12.331,20.033 12.403,20.120 12.558 C 20.230 12.755,20.414 12.898,20.635 12.959 C 20.823 13.012,22.177 13.012,22.365 12.959 C 22.586 12.898,22.770 12.755,22.880 12.558 C 22.967 12.402,22.980 12.332,22.979 12.000 C 22.978 11.687,22.962 11.591,22.890 11.453 C 22.786 11.256,22.623 11.131,22.371 11.055 C 22.126 10.982,20.851 10.983,20.614 11.057 M9.545 12.579 C 9.460 12.609,9.329 12.693,9.254 12.766 C 8.919 13.091,8.916 13.907,9.249 14.229 C 9.476 14.449,9.630 14.489,10.350 14.511 L 11.000 14.531 11.000 16.618 C 11.000 18.935,11.006 18.994,11.249 19.229 C 11.442 19.416,11.647 19.487,11.997 19.488 C 12.348 19.490,12.556 19.418,12.751 19.229 C 12.994 18.994,13.000 18.935,13.000 16.618 L 13.000 14.530 13.650 14.511 C 14.370 14.490,14.521 14.451,14.751 14.229 C 14.983 14.004,15.065 13.513,14.940 13.092 C 14.868 12.852,14.645 12.627,14.413 12.563 C 14.313 12.535,13.469 12.521,11.980 12.522 C 10.145 12.523,9.670 12.534,9.545 12.579 " stroke="none" fill-rule="evenodd" fill="black"></path></svg>