<svg width="24" height="24" viewBox="0 0 24 24" fill="none" xmlns="http://www.w3.org/2000/svg"><path d="M2.614 2.057 C 2.377 2.131,2.212 2.261,2.109 2.453 L 2.020 2.620 2.010 11.371 C 1.998 20.938,1.987 20.425,2.227 20.919 C 2.366 21.205,2.795 21.634,3.081 21.773 C 3.569 22.010,3.070 21.999,12.540 21.999 C 18.234 21.999,21.270 21.986,21.365 21.959 C 21.586 21.898,21.770 21.755,21.880 21.558 C 21.967 21.402,21.980 21.332,21.979 21.000 C 21.978 20.567,21.898 20.355,21.678 20.199 C 21.386 19.990,21.827 20.000,12.594 20.000 L 4.001 20.000 3.990 11.310 L 3.980 2.620 3.891 2.453 C 3.842 2.362,3.746 2.247,3.678 2.199 C 3.414 2.010,2.957 1.950,2.614 2.057 M6.650 7.039 C 6.557 7.081,6.394 7.202,6.289 7.308 C 5.814 7.784,5.837 8.215,6.367 8.784 C 8.114 10.659,10.273 12.943,10.453 13.107 C 10.863 13.481,11.426 13.597,11.929 13.411 C 12.055 13.365,12.888 12.947,13.780 12.483 C 14.672 12.020,15.419 11.640,15.440 11.640 C 15.460 11.640,16.289 12.508,17.283 13.570 C 19.312 15.739,19.448 15.877,19.657 15.976 C 20.075 16.174,20.657 15.914,20.935 15.403 C 21.070 15.154,21.080 14.923,20.968 14.668 C 20.885 14.481,20.819 14.408,18.257 11.680 C 16.530 9.840,16.401 9.716,16.090 9.600 C 15.802 9.492,15.380 9.484,15.100 9.580 C 14.990 9.618,14.162 10.032,13.260 10.501 C 12.357 10.970,11.601 11.360,11.579 11.367 C 11.557 11.374,10.650 10.432,9.565 9.274 C 8.103 7.715,7.541 7.141,7.400 7.064 C 7.167 6.937,6.894 6.928,6.650 7.039 " stroke="none" fill-rule="evenodd" fill="black"></path></svg>