<svg width="24" height="24" viewBox="0 0 24 24" fill="none" xmlns="http://www.w3.org/2000/svg"><path d="M2.614 2.057 C 2.377 2.131,2.212 2.261,2.109 2.453 C 2.035 2.592,2.020 2.684,2.020 3.000 C 2.020 3.331,2.033 3.403,2.120 3.558 C 2.230 3.755,2.414 3.898,2.635 3.959 C 2.835 4.015,21.165 4.015,21.365 3.959 C 21.586 3.898,21.770 3.755,21.880 3.558 C 21.967 3.402,21.980 3.332,21.979 3.000 C 21.978 2.567,21.898 2.355,21.678 2.199 C 21.385 1.990,21.877 2.000,11.984 2.003 C 4.546 2.005,2.748 2.015,2.614 2.057 M11.473 5.815 C 11.169 5.940,10.956 6.115,10.770 6.394 C 10.624 6.613,6.191 16.305,6.034 16.749 C 5.850 17.268,6.051 17.673,6.617 17.923 C 7.046 18.112,7.441 18.051,7.694 17.757 C 7.781 17.654,8.112 16.973,8.644 15.800 L 9.460 14.001 12.000 14.001 L 14.540 14.001 15.356 15.800 C 15.888 16.973,16.219 17.654,16.306 17.757 C 16.559 18.051,16.954 18.112,17.383 17.923 C 17.949 17.673,18.150 17.268,17.966 16.749 C 17.809 16.305,13.376 6.613,13.230 6.394 C 12.933 5.951,12.515 5.722,12.000 5.722 C 11.777 5.722,11.642 5.746,11.473 5.815 M12.814 10.210 C 13.246 11.162,13.600 11.954,13.600 11.970 C 13.600 11.987,12.880 12.000,12.000 12.000 C 11.120 12.000,10.400 11.987,10.400 11.970 C 10.400 11.912,11.973 8.480,12.000 8.480 C 12.015 8.480,12.381 9.258,12.814 10.210 M2.614 20.057 C 2.377 20.131,2.212 20.261,2.109 20.453 C 2.035 20.592,2.020 20.684,2.020 21.000 C 2.020 21.331,2.033 21.403,2.120 21.558 C 2.230 21.755,2.414 21.898,2.635 21.959 C 2.835 22.015,21.165 22.015,21.365 21.959 C 21.586 21.898,21.770 21.755,21.880 21.558 C 21.967 21.402,21.980 21.332,21.979 21.000 C 21.978 20.567,21.898 20.355,21.678 20.199 C 21.385 19.990,21.877 20.000,11.984 20.003 C 4.546 20.005,2.748 20.015,2.614 20.057 " stroke="none" fill-rule="evenodd" fill="black"></path></svg>