<svg version="1.1" xmlns="http://www.w3.org/2000/svg" width="32" height="32" viewBox="0 0 32 32"><path d="M14.640 0.085 C 14.552 0.097,14.252 0.133,13.973 0.165 C 8.268 0.816,3.151 4.839,1.072 10.305 C 0.356 12.189,0.039 13.935,0.039 16.000 C 0.039 18.164,0.396 20.025,1.185 21.973 C 4.085 29.136,11.658 33.195,19.235 31.649 C 20.698 31.350,22.365 30.737,23.658 30.020 C 29.940 26.541,33.135 19.476,31.591 12.480 C 31.418 11.694,30.952 10.275,30.631 9.556 C 29.788 7.668,28.807 6.247,27.308 4.743 C 25.931 3.362,24.701 2.477,23.013 1.652 C 21.990 1.152,21.054 0.808,19.968 0.531 C 18.622 0.187,17.891 0.098,16.240 0.079 C 15.448 0.070,14.728 0.073,14.640 0.085 M17.151 6.243 C 21.507 6.667,25.021 9.416,25.875 13.067 C 26.031 13.735,26.072 15.321,25.949 15.973 C 25.784 16.848,25.346 17.864,24.742 18.776 C 24.165 19.647,22.560 21.156,20.848 22.438 C 19.837 23.194,17.409 24.871,16.757 25.264 C 15.902 25.778,15.304 25.957,15.075 25.767 C 14.944 25.658,14.964 25.509,15.207 24.788 C 15.446 24.076,15.523 23.539,15.415 23.337 C 15.300 23.121,14.999 23.001,14.347 22.911 C 10.924 22.439,8.006 20.487,6.667 17.773 C 5.802 16.021,5.690 13.880,6.370 12.082 C 7.577 8.890,10.965 6.580,14.960 6.224 C 15.449 6.180,16.608 6.191,17.151 6.243 M9.174 13.189 C 8.916 13.319,8.908 13.385,8.907 15.477 C 8.907 16.646,8.928 17.489,8.960 17.572 C 9.062 17.842,9.263 17.875,10.694 17.857 C 11.879 17.841,11.999 17.831,12.101 17.738 C 12.265 17.590,12.251 17.318,12.073 17.177 C 11.942 17.074,11.864 17.067,10.899 17.067 L 9.867 17.067 9.867 15.341 C 9.867 14.216,9.846 13.557,9.808 13.446 C 9.752 13.286,9.530 13.119,9.376 13.121 C 9.338 13.121,9.247 13.152,9.174 13.189 M13.145 13.169 C 12.877 13.282,12.880 13.256,12.880 15.527 C 12.880 17.600,12.883 17.653,12.990 17.760 C 13.050 17.821,13.184 17.884,13.287 17.901 C 13.437 17.925,13.506 17.904,13.631 17.797 L 13.787 17.663 13.787 15.526 C 13.787 13.460,13.783 13.386,13.680 13.283 C 13.555 13.158,13.299 13.103,13.145 13.169 M15.220 13.196 C 14.875 13.348,14.880 13.311,14.880 15.497 C 14.880 16.760,14.901 17.536,14.937 17.640 C 15.046 17.954,15.482 18.002,15.666 17.722 C 15.748 17.597,15.763 17.396,15.787 16.170 L 15.813 14.762 16.291 15.501 C 17.866 17.935,17.854 17.920,18.241 17.920 C 18.476 17.920,18.611 17.833,18.698 17.624 C 18.810 17.356,18.808 13.680,18.696 13.411 C 18.610 13.207,18.414 13.101,18.212 13.152 C 17.955 13.216,17.948 13.256,17.920 14.873 L 17.893 16.397 16.949 14.959 C 16.429 14.167,15.937 13.444,15.855 13.350 C 15.680 13.150,15.451 13.095,15.220 13.196 M20.187 13.262 C 19.956 13.312,19.838 13.411,19.787 13.596 C 19.728 13.808,19.722 17.334,19.780 17.542 C 19.800 17.613,19.883 17.721,19.965 17.782 C 20.108 17.889,20.176 17.893,21.602 17.893 C 23.054 17.893,23.093 17.891,23.205 17.779 C 23.342 17.642,23.353 17.438,23.233 17.255 L 23.146 17.122 21.933 17.108 L 20.720 17.093 20.705 16.440 L 20.690 15.787 21.761 15.787 C 22.826 15.787,22.832 15.786,22.962 15.656 C 23.121 15.497,23.129 15.343,22.987 15.200 C 22.887 15.100,22.809 15.093,21.787 15.093 L 20.693 15.093 20.693 14.533 L 20.693 13.973 21.779 13.973 C 22.430 13.973,22.931 13.950,23.032 13.915 C 23.332 13.810,23.332 13.390,23.032 13.285 C 22.871 13.229,20.430 13.209,20.187 13.262 " stroke="none" fill-rule="evenodd" fill="black"></path></svg>