<svg width="24" height="24" viewBox="0 0 24 24" fill="none" xmlns="http://www.w3.org/2000/svg"><path d="M5.920 2.041 C 5.151 2.092,4.672 2.205,4.180 2.451 C 3.089 2.996,2.357 3.961,2.124 5.160 C 2.014 5.723,2.000 6.450,1.999 11.480 C 1.999 14.351,1.983 16.766,1.964 16.846 C 1.945 16.927,1.945 17.080,1.962 17.186 C 1.980 17.293,2.013 17.660,2.036 18.001 C 2.079 18.654,2.117 18.894,2.245 19.320 C 2.575 20.421,3.578 21.423,4.680 21.755 C 5.474 21.994,5.642 22.000,12.000 22.000 C 18.358 22.000,18.526 21.994,19.320 21.755 C 20.422 21.423,21.423 20.422,21.755 19.320 C 21.994 18.526,22.000 18.358,22.000 12.000 C 22.000 5.642,21.994 5.474,21.755 4.680 C 21.424 3.581,20.465 2.622,19.320 2.246 C 18.644 2.024,18.800 2.029,12.340 2.019 C 9.062 2.014,6.173 2.024,5.920 2.041 M18.492 4.091 C 18.894 4.188,19.109 4.309,19.400 4.600 C 19.696 4.895,19.814 5.109,19.912 5.528 C 19.975 5.797,19.980 6.313,19.980 12.000 C 19.980 17.687,19.975 18.203,19.912 18.472 C 19.814 18.891,19.696 19.104,19.400 19.401 C 19.101 19.701,18.820 19.851,18.418 19.928 C 18.010 20.005,5.990 20.005,5.582 19.927 C 5.170 19.850,4.898 19.704,4.600 19.403 C 4.193 18.993,4.072 18.657,4.026 17.818 L 4.004 17.415 6.001 15.419 L 7.998 13.422 9.049 14.465 C 9.977 15.386,10.133 15.524,10.379 15.644 C 10.630 15.766,10.693 15.780,11.000 15.780 C 11.306 15.780,11.370 15.766,11.621 15.645 C 11.879 15.520,12.057 15.353,13.950 13.466 L 16.000 11.422 16.000 12.321 C 16.000 12.815,16.019 13.285,16.041 13.365 C 16.148 13.750,16.437 13.962,16.896 13.991 C 17.381 14.022,17.699 13.882,17.880 13.558 L 17.980 13.380 18.008 11.220 C 18.023 10.032,18.036 9.001,18.038 8.929 C 18.041 8.744,17.834 8.310,17.696 8.211 C 17.374 7.983,17.453 7.989,15.025 7.998 C 12.660 8.007,12.582 8.013,12.322 8.199 C 12.100 8.357,12.020 8.568,12.020 9.000 C 12.020 9.331,12.033 9.403,12.120 9.558 C 12.230 9.755,12.414 9.898,12.635 9.959 C 12.715 9.981,13.185 10.000,13.680 10.000 L 14.580 10.000 12.791 11.789 L 11.002 13.578 9.951 12.538 C 9.243 11.837,8.835 11.463,8.700 11.392 C 8.271 11.166,7.730 11.166,7.300 11.392 C 7.158 11.466,6.648 11.945,5.548 13.038 L 3.996 14.580 4.011 10.180 C 4.025 6.286,4.034 5.749,4.092 5.508 C 4.177 5.152,4.298 4.913,4.520 4.667 C 4.883 4.262,5.282 4.091,5.980 4.039 C 6.200 4.023,9.044 4.013,12.300 4.018 C 17.643 4.024,18.247 4.032,18.492 4.091 " stroke="none" fill-rule="evenodd" fill="black"></path></svg>