<svg width="24" height="24" viewBox="0 0 24 24" fill="none" xmlns="http://www.w3.org/2000/svg"><path d="M2.614 2.057 C 2.377 2.131,2.212 2.261,2.109 2.453 L 2.020 2.620 2.010 11.371 C 1.998 20.938,1.987 20.425,2.227 20.919 C 2.366 21.205,2.795 21.634,3.081 21.773 C 3.569 22.010,3.070 21.999,12.540 21.999 C 18.234 21.999,21.270 21.986,21.365 21.959 C 21.586 21.898,21.770 21.755,21.880 21.558 C 21.967 21.402,21.980 21.332,21.979 21.000 C 21.978 20.567,21.898 20.355,21.678 20.199 C 21.386 19.990,21.827 20.000,12.594 20.000 L 4.001 20.000 3.990 11.310 L 3.980 2.620 3.891 2.453 C 3.842 2.362,3.746 2.247,3.678 2.199 C 3.414 2.010,2.957 1.950,2.614 2.057 M19.595 7.065 C 19.463 7.138,18.834 7.782,17.430 9.279 L 15.451 11.390 13.796 10.529 C 12.885 10.055,12.041 9.632,11.920 9.589 C 11.418 9.409,10.855 9.526,10.453 9.893 C 10.273 10.057,8.114 12.341,6.367 14.216 C 6.076 14.528,5.953 14.767,5.953 15.020 C 5.953 15.567,6.655 16.149,7.173 16.033 C 7.259 16.013,7.404 15.945,7.495 15.881 C 7.586 15.817,8.524 14.839,9.580 13.706 C 10.636 12.573,11.522 11.645,11.549 11.643 C 11.576 11.642,12.328 12.020,13.220 12.483 C 14.112 12.947,14.945 13.365,15.071 13.411 C 15.574 13.597,16.137 13.481,16.547 13.107 C 16.743 12.928,18.357 11.222,20.315 9.125 C 20.923 8.473,21.047 8.280,21.047 7.978 C 21.047 7.643,20.725 7.215,20.340 7.036 C 20.107 6.928,19.821 6.939,19.595 7.065 " stroke="none" fill-rule="evenodd" fill="black"></path></svg>