<svg width="24" height="24" viewBox="0 0 24 24" fill="none" xmlns="http://www.w3.org/2000/svg"><path d="M2.614 2.057 C 2.377 2.131,2.212 2.261,2.109 2.453 L 2.020 2.620 2.010 11.371 C 1.998 20.938,1.987 20.425,2.227 20.919 C 2.366 21.205,2.795 21.634,3.081 21.773 C 3.569 22.010,3.070 21.999,12.540 21.999 C 18.234 21.999,21.270 21.986,21.365 21.959 C 21.586 21.898,21.770 21.755,21.880 21.558 C 21.967 21.402,21.980 21.332,21.979 21.000 C 21.978 20.567,21.898 20.355,21.678 20.199 C 21.386 19.990,21.827 20.000,12.594 20.000 L 4.001 20.000 3.990 11.310 L 3.980 2.620 3.891 2.453 C 3.842 2.362,3.746 2.247,3.678 2.199 C 3.414 2.010,2.957 1.950,2.614 2.057 M6.626 6.045 C 6.420 6.154,6.146 6.433,6.038 6.644 C 5.924 6.867,5.924 7.132,6.039 7.363 C 6.101 7.487,6.869 8.281,8.614 10.025 C 10.933 12.343,11.119 12.519,11.379 12.645 C 11.629 12.766,11.694 12.780,12.000 12.780 C 12.307 12.780,12.370 12.766,12.621 12.644 C 12.867 12.524,13.023 12.386,13.951 11.465 L 15.002 10.422 16.791 12.211 L 18.580 14.000 17.696 14.000 C 16.757 14.000,16.561 14.028,16.322 14.199 C 16.139 14.329,16.030 14.573,16.009 14.900 C 15.978 15.381,16.119 15.699,16.442 15.880 L 16.620 15.980 18.780 16.007 C 19.968 16.023,20.999 16.036,21.071 16.037 C 21.224 16.040,21.669 15.847,21.768 15.735 C 21.878 15.611,22.041 15.209,22.038 15.069 C 22.036 14.998,22.023 13.968,22.008 12.780 C 21.980 10.637,21.979 10.619,21.889 10.450 C 21.724 10.140,21.329 9.970,20.874 10.011 C 20.439 10.051,20.141 10.274,20.041 10.635 C 20.019 10.715,20.000 11.184,20.000 11.679 L 20.000 12.577 17.950 10.537 C 16.460 9.053,15.845 8.468,15.700 8.391 C 15.269 8.166,14.729 8.166,14.300 8.392 C 14.165 8.463,13.758 8.837,13.049 9.537 L 11.999 10.577 9.769 8.353 C 8.294 6.881,7.483 6.100,7.372 6.044 C 7.152 5.934,6.835 5.935,6.626 6.045 " stroke="none" fill-rule="evenodd" fill="black"></path></svg>