<svg width="24" height="24" viewBox="0 0 24 24" fill="none" xmlns="http://www.w3.org/2000/svg"><path d="M2.614 2.057 C 2.377 2.131,2.212 2.261,2.109 2.453 L 2.020 2.620 2.010 11.371 C 1.998 20.938,1.987 20.425,2.227 20.919 C 2.366 21.205,2.795 21.634,3.081 21.773 C 3.569 22.010,3.070 21.999,12.540 21.999 C 18.234 21.999,21.270 21.986,21.365 21.959 C 21.586 21.898,21.770 21.755,21.880 21.558 C 21.967 21.402,21.980 21.332,21.979 21.000 C 21.978 20.567,21.898 20.355,21.678 20.199 C 21.386 19.990,21.827 20.000,12.594 20.000 L 4.001 20.000 3.990 11.310 L 3.980 2.620 3.891 2.453 C 3.842 2.362,3.746 2.247,3.678 2.199 C 3.414 2.010,2.957 1.950,2.614 2.057 M18.719 5.999 L 16.658 6.020 16.459 6.122 C 16.119 6.297,15.978 6.606,16.009 7.104 C 16.038 7.563,16.250 7.852,16.635 7.959 C 16.715 7.981,17.185 8.000,17.680 8.000 L 18.580 8.000 16.791 9.789 L 15.002 11.578 13.951 10.538 C 13.243 9.837,12.835 9.463,12.700 9.392 C 12.272 9.166,11.732 9.166,11.300 9.391 C 11.025 9.535,6.169 14.377,6.039 14.637 C 5.864 14.990,5.953 15.355,6.299 15.701 C 6.646 16.048,7.010 16.137,7.363 15.960 C 7.486 15.899,8.224 15.189,9.770 13.647 L 11.999 11.423 13.050 12.465 C 13.977 13.386,14.133 13.524,14.379 13.644 C 14.630 13.766,14.693 13.780,15.000 13.780 C 15.306 13.780,15.370 13.766,15.621 13.645 C 15.879 13.520,16.057 13.353,17.950 11.466 L 20.000 9.422 20.000 10.321 C 20.000 10.815,20.019 11.285,20.041 11.365 C 20.148 11.750,20.437 11.962,20.896 11.991 C 21.381 12.022,21.699 11.882,21.880 11.558 L 21.980 11.380 22.008 9.220 C 22.023 8.032,22.036 7.001,22.038 6.929 C 22.041 6.743,21.834 6.310,21.696 6.212 C 21.468 6.052,21.198 5.960,20.985 5.969 C 20.872 5.974,19.852 5.987,18.719 5.999 " stroke="none" fill-rule="evenodd" fill="black"></path></svg>