<svg width="24" height="24" viewBox="0 0 24 24" fill="none" xmlns="http://www.w3.org/2000/svg"><path d="M15.560 1.804 C 14.490 1.923,13.495 2.328,12.580 3.016 C 12.109 3.370,10.434 5.055,10.326 5.283 C 10.218 5.513,10.217 5.751,10.323 5.977 C 10.421 6.186,10.780 6.539,10.978 6.622 C 11.178 6.705,11.454 6.695,11.652 6.595 C 11.752 6.545,12.199 6.137,12.760 5.583 C 13.780 4.576,14.101 4.328,14.720 4.069 C 15.260 3.843,15.610 3.779,16.280 3.784 C 16.767 3.787,16.922 3.804,17.244 3.890 C 18.648 4.264,19.736 5.351,20.109 6.753 C 20.196 7.079,20.213 7.232,20.216 7.720 C 20.221 8.391,20.157 8.741,19.930 9.280 C 19.665 9.914,19.428 10.221,18.419 11.240 C 17.862 11.803,17.455 12.247,17.405 12.348 C 17.305 12.546,17.295 12.822,17.378 13.022 C 17.461 13.220,17.814 13.579,18.023 13.677 C 18.250 13.784,18.489 13.782,18.716 13.672 C 19.076 13.498,20.789 11.741,21.208 11.117 C 22.573 9.082,22.581 6.462,21.228 4.432 C 19.989 2.572,17.794 1.555,15.560 1.804 M15.260 7.487 C 15.194 7.512,15.068 7.582,14.980 7.643 C 14.892 7.704,13.189 9.389,11.195 11.387 C 7.236 15.354,7.403 15.167,7.450 15.584 C 7.495 15.984,8.016 16.505,8.416 16.550 C 8.834 16.597,8.638 16.772,12.688 12.725 C 15.571 9.845,16.415 8.980,16.477 8.840 C 16.637 8.484,16.550 8.146,16.212 7.809 C 15.905 7.503,15.544 7.381,15.260 7.487 M5.280 10.326 C 5.157 10.386,4.804 10.710,4.158 11.356 C 3.061 12.456,2.752 12.844,2.391 13.574 C 1.652 15.069,1.561 16.798,2.140 18.336 C 3.396 21.672,7.232 23.188,10.426 21.609 C 11.158 21.248,11.547 20.938,12.644 19.842 C 13.642 18.846,13.760 18.690,13.760 18.367 C 13.760 18.275,13.723 18.120,13.677 18.023 C 13.579 17.814,13.220 17.461,13.022 17.378 C 12.821 17.294,12.546 17.305,12.348 17.405 C 12.249 17.455,11.802 17.862,11.260 18.397 C 10.110 19.530,9.943 19.661,9.301 19.927 C 8.740 20.160,8.438 20.217,7.760 20.218 C 7.208 20.218,7.097 20.206,6.749 20.110 C 5.325 19.715,4.265 18.652,3.890 17.244 C 3.804 16.922,3.787 16.767,3.784 16.280 C 3.779 15.610,3.843 15.260,4.069 14.720 C 4.328 14.101,4.576 13.780,5.583 12.760 C 6.137 12.199,6.545 11.752,6.595 11.652 C 6.694 11.455,6.705 11.178,6.622 10.980 C 6.540 10.781,6.213 10.448,5.992 10.336 C 5.755 10.216,5.517 10.213,5.280 10.326 " stroke="none" fill-rule="evenodd" fill="black"></path></svg>