<svg width="24" height="24" viewBox="0 0 24 24" fill="none" xmlns="http://www.w3.org/2000/svg"><path d="M17.719 1.999 L 14.658 2.020 14.459 2.122 C 14.119 2.297,13.978 2.606,14.009 3.104 C 14.038 3.563,14.250 3.852,14.635 3.959 C 14.723 3.984,15.530 4.000,16.680 4.000 L 18.579 4.000 14.853 7.730 C 12.206 10.380,11.102 11.511,11.039 11.637 C 10.863 11.990,10.952 12.355,11.299 12.701 C 11.645 13.048,12.010 13.137,12.363 12.961 C 12.489 12.898,13.620 11.794,16.270 9.147 L 20.000 5.421 20.000 7.320 C 20.000 8.470,20.016 9.277,20.041 9.365 C 20.148 9.750,20.437 9.962,20.896 9.991 C 21.381 10.022,21.699 9.882,21.880 9.558 L 21.980 9.380 22.007 6.220 C 22.022 4.482,22.035 3.001,22.037 2.929 C 22.041 2.744,21.835 2.310,21.696 2.212 C 21.467 2.052,21.198 1.960,20.985 1.969 C 20.872 1.974,19.402 1.988,17.719 1.999 M5.920 2.042 C 5.155 2.091,4.674 2.204,4.180 2.451 C 3.089 2.996,2.357 3.961,2.124 5.160 C 2.013 5.729,2.000 6.455,2.000 12.000 C 2.000 18.358,2.006 18.526,2.245 19.320 C 2.577 20.422,3.578 21.423,4.680 21.755 C 5.474 21.994,5.642 22.000,12.000 22.000 C 18.358 22.000,18.526 21.994,19.320 21.755 C 20.422 21.423,21.425 20.421,21.755 19.320 C 21.972 18.597,22.008 18.036,21.993 15.620 C 21.980 13.640,21.979 13.618,21.891 13.453 C 21.689 13.076,21.138 12.902,20.629 13.055 C 20.378 13.131,20.215 13.256,20.109 13.453 C 20.021 13.618,20.020 13.643,19.994 15.920 C 19.966 18.382,19.954 18.537,19.752 18.952 C 19.626 19.211,19.190 19.638,18.918 19.768 C 18.466 19.985,18.627 19.980,12.000 19.980 C 5.383 19.980,5.538 19.985,5.082 19.771 C 4.812 19.643,4.377 19.217,4.248 18.952 C 4.198 18.849,4.126 18.633,4.088 18.472 C 4.025 18.203,4.020 17.687,4.020 12.000 C 4.020 6.313,4.025 5.797,4.088 5.528 C 4.126 5.367,4.198 5.151,4.248 5.048 C 4.366 4.806,4.806 4.366,5.048 4.248 C 5.463 4.046,5.618 4.034,8.080 4.006 C 10.330 3.981,10.383 3.978,10.540 3.894 C 10.875 3.715,10.978 3.504,10.978 3.000 C 10.978 2.567,10.899 2.356,10.678 2.199 C 10.409 2.007,10.316 2.000,8.284 2.006 C 7.237 2.009,6.173 2.025,5.920 2.042 " stroke="none" fill-rule="evenodd" fill="black"></path></svg>