<svg width="24" height="24" viewBox="0 0 24 24" fill="none" xmlns="http://www.w3.org/2000/svg"><path d="M6.380 6.043 C 3.784 6.299,1.681 8.215,1.114 10.840 C 0.984 11.446,0.984 12.554,1.114 13.160 C 1.638 15.587,3.402 17.352,5.840 17.887 C 6.243 17.976,6.331 17.980,8.000 17.980 C 9.669 17.980,9.757 17.976,10.160 17.887 C 10.391 17.836,10.742 17.739,10.940 17.672 C 13.302 16.863,14.958 14.610,14.976 12.180 C 14.980 11.673,14.972 11.604,14.891 11.453 C 14.689 11.076,14.138 10.902,13.629 11.055 C 13.181 11.190,13.045 11.408,12.996 12.074 C 12.937 12.863,12.844 13.230,12.557 13.804 C 12.014 14.892,10.989 15.670,9.773 15.917 C 9.410 15.991,9.224 16.000,8.000 16.000 C 6.776 16.000,6.590 15.991,6.227 15.917 C 4.566 15.579,3.309 14.265,3.058 12.605 C 2.986 12.121,2.986 11.879,3.058 11.395 C 3.280 9.926,4.324 8.690,5.755 8.203 C 6.116 8.081,6.703 8.001,7.243 8.000 C 7.798 8.000,8.050 7.936,8.229 7.751 C 8.418 7.556,8.486 7.355,8.486 6.997 C 8.486 6.491,8.303 6.196,7.909 6.064 C 7.700 5.994,6.973 5.984,6.380 6.043 M14.380 6.043 C 11.457 6.331,9.157 8.763,9.013 11.718 C 8.980 12.394,9.085 12.682,9.438 12.876 C 9.644 12.990,10.089 13.033,10.344 12.965 C 10.794 12.843,10.948 12.602,11.002 11.932 C 11.070 11.098,11.159 10.756,11.464 10.160 C 11.829 9.446,12.446 8.829,13.160 8.464 C 13.942 8.064,14.330 8.000,16.000 8.000 C 17.670 8.000,18.058 8.064,18.840 8.464 C 19.739 8.924,20.462 9.771,20.797 10.755 C 20.897 11.050,21.000 11.680,21.000 12.000 C 21.000 12.322,20.897 12.951,20.796 13.245 C 20.416 14.354,19.607 15.231,18.545 15.684 C 18.048 15.896,17.690 15.963,16.880 15.998 C 16.080 16.032,15.945 16.064,15.752 16.267 C 15.584 16.443,15.513 16.658,15.512 16.997 C 15.510 17.513,15.711 17.829,16.118 17.947 C 16.431 18.038,17.618 17.999,18.180 17.880 C 20.582 17.370,22.366 15.580,22.885 13.160 C 23.015 12.554,23.015 11.446,22.885 10.840 C 22.626 9.631,22.109 8.660,21.269 7.805 C 20.258 6.775,19.009 6.180,17.564 6.039 C 17.109 5.995,14.838 5.997,14.380 6.043 " stroke="none" fill-rule="evenodd" fill="black"></path></svg>