<svg width="24" height="24" viewBox="0 0 24 24" fill="none" xmlns="http://www.w3.org/2000/svg"><path d="M6.380 6.043 C 3.784 6.299,1.681 8.215,1.114 10.840 C 0.984 11.446,0.984 12.554,1.114 13.160 C 1.636 15.578,3.402 17.351,5.820 17.883 C 6.181 17.962,6.364 17.973,7.702 17.989 C 8.701 18.001,9.237 17.993,9.346 17.964 C 9.583 17.900,9.767 17.761,9.880 17.558 C 9.967 17.402,9.980 17.332,9.979 17.000 C 9.978 16.567,9.898 16.355,9.678 16.199 C 9.424 16.017,9.268 16.000,7.910 16.000 C 6.777 16.000,6.587 15.991,6.227 15.917 C 4.566 15.579,3.309 14.265,3.058 12.605 C 2.986 12.121,2.986 11.879,3.058 11.395 C 3.280 9.926,4.324 8.690,5.755 8.203 C 6.228 8.042,6.692 8.001,8.000 8.000 C 8.693 8.000,9.283 7.982,9.365 7.959 C 9.586 7.898,9.770 7.755,9.880 7.558 C 9.967 7.402,9.980 7.332,9.979 7.000 C 9.978 6.567,9.898 6.355,9.678 6.199 C 9.423 6.017,9.269 6.000,7.944 6.005 C 7.260 6.008,6.556 6.025,6.380 6.043 M15.431 6.041 C 14.981 6.117,14.453 6.500,14.228 6.913 C 14.011 7.310,14.000 7.429,14.000 9.288 L 14.000 11.000 10.906 11.000 C 7.599 11.000,7.601 11.000,7.322 11.199 C 7.100 11.357,7.020 11.568,7.020 12.000 C 7.020 12.331,7.033 12.403,7.120 12.558 C 7.230 12.755,7.414 12.898,7.635 12.959 C 7.726 12.985,8.930 13.000,10.890 13.000 L 14.000 13.000 14.000 14.712 C 14.000 16.536,14.012 16.671,14.205 17.049 C 14.335 17.305,14.702 17.665,14.967 17.797 C 15.353 17.990,15.545 18.011,16.718 17.989 C 17.605 17.972,17.846 17.954,18.180 17.882 C 20.594 17.358,22.366 15.581,22.885 13.160 C 23.015 12.554,23.015 11.446,22.885 10.840 C 22.626 9.631,22.109 8.660,21.269 7.805 C 20.258 6.775,19.009 6.180,17.564 6.039 C 17.107 5.995,15.699 5.996,15.431 6.041 M17.605 8.058 C 19.074 8.280,20.310 9.324,20.797 10.755 C 20.897 11.050,21.000 11.680,21.000 12.000 C 21.000 13.365,20.213 14.747,19.047 15.431 C 18.335 15.849,17.707 16.000,16.684 16.000 L 16.000 16.000 16.000 14.500 L 16.000 13.000 17.110 13.000 C 17.730 13.000,18.284 12.982,18.365 12.959 C 18.586 12.898,18.770 12.755,18.880 12.558 C 18.967 12.402,18.980 12.332,18.979 12.000 C 18.978 11.567,18.898 11.355,18.678 11.199 C 18.430 11.022,18.256 11.000,17.094 11.000 L 16.000 11.000 16.000 9.500 L 16.000 8.000 16.610 8.000 C 16.945 8.000,17.393 8.027,17.605 8.058 " stroke="none" fill-rule="evenodd" fill="black"></path></svg>