<svg width="24" height="24" viewBox="0 0 24 24" fill="none" xmlns="http://www.w3.org/2000/svg"><path d="M16.060 1.138 C 15.355 1.257,15.000 1.366,14.403 1.646 C 13.649 1.999,13.303 2.265,12.139 3.390 C 11.555 3.955,11.007 4.508,10.922 4.619 C 10.583 5.060,10.627 5.463,11.062 5.891 C 11.283 6.109,11.542 6.240,11.750 6.239 C 12.059 6.237,12.211 6.120,13.297 5.047 C 14.387 3.970,14.650 3.752,15.180 3.488 C 16.213 2.974,17.475 2.942,18.529 3.404 C 19.351 3.764,20.061 4.417,20.466 5.187 C 20.820 5.860,20.939 6.411,20.909 7.238 C 20.892 7.709,20.868 7.888,20.782 8.178 C 20.655 8.607,20.392 9.125,20.123 9.480 C 20.015 9.623,19.155 10.507,18.213 11.444 C 16.401 13.246,16.228 13.393,15.601 13.665 C 15.026 13.914,14.735 13.972,14.040 13.976 C 13.355 13.980,13.079 13.933,12.530 13.717 C 11.909 13.474,11.378 13.084,10.901 12.522 C 10.538 12.094,10.337 11.960,10.056 11.960 C 9.696 11.961,9.209 12.270,9.037 12.606 C 8.935 12.805,8.937 13.112,9.041 13.333 C 9.248 13.773,10.118 14.639,10.770 15.053 C 12.569 16.196,14.782 16.309,16.696 15.355 C 17.505 14.952,17.711 14.776,19.704 12.783 C 21.705 10.783,21.872 10.587,22.287 9.770 C 23.325 7.723,23.108 5.300,21.721 3.440 C 21.484 3.122,20.947 2.587,20.600 2.323 C 19.866 1.765,19.048 1.386,18.168 1.198 C 17.667 1.090,16.534 1.058,16.060 1.138 M9.160 8.062 C 7.939 8.233,6.872 8.744,5.911 9.617 C 5.088 10.364,2.463 13.050,2.213 13.400 C 1.552 14.326,1.172 15.356,1.085 16.463 C 0.873 19.152,2.461 21.625,5.004 22.563 C 5.681 22.812,6.289 22.919,7.040 22.919 C 8.378 22.919,9.523 22.548,10.600 21.766 C 11.019 21.463,13.098 19.390,13.204 19.171 C 13.376 18.816,13.274 18.435,12.918 18.102 C 12.687 17.886,12.439 17.762,12.240 17.762 C 11.943 17.762,11.781 17.887,10.722 18.934 C 10.160 19.490,9.578 20.037,9.429 20.149 C 9.091 20.403,8.606 20.642,8.139 20.785 C 7.804 20.888,7.732 20.895,7.060 20.895 C 6.391 20.895,6.315 20.887,5.980 20.786 C 5.170 20.541,4.464 20.074,3.962 19.453 C 3.533 18.923,3.279 18.377,3.138 17.680 C 3.037 17.182,3.074 16.308,3.216 15.828 C 3.332 15.437,3.530 15.022,3.771 14.660 C 3.948 14.395,7.159 11.143,7.524 10.859 C 7.988 10.498,8.542 10.232,9.120 10.093 C 9.341 10.040,9.573 10.022,10.000 10.023 C 10.731 10.025,11.118 10.113,11.745 10.419 C 12.292 10.686,12.691 10.998,13.095 11.475 C 13.462 11.906,13.663 12.040,13.944 12.040 C 14.304 12.039,14.791 11.730,14.963 11.394 C 15.072 11.181,15.064 10.885,14.943 10.646 C 14.698 10.162,13.849 9.329,13.191 8.926 C 11.941 8.162,10.558 7.865,9.160 8.062 " stroke="none" fill-rule="evenodd" fill="black"></path></svg>