<svg width="24" height="24" viewBox="0 0 24 24" fill="none" xmlns="http://www.w3.org/2000/svg"><path d="M6.380 6.043 C 3.784 6.299,1.681 8.215,1.114 10.840 C 0.984 11.446,0.984 12.554,1.114 13.160 C 1.636 15.578,3.402 17.351,5.820 17.883 C 6.181 17.962,6.364 17.973,7.702 17.989 C 8.701 18.001,9.237 17.993,9.346 17.964 C 9.583 17.900,9.767 17.761,9.880 17.558 C 9.967 17.402,9.980 17.332,9.979 17.000 C 9.978 16.567,9.898 16.355,9.678 16.199 C 9.424 16.017,9.268 16.000,7.910 16.000 C 6.777 16.000,6.587 15.991,6.227 15.917 C 4.566 15.579,3.309 14.265,3.058 12.605 C 2.986 12.121,2.986 11.879,3.058 11.395 C 3.280 9.926,4.324 8.690,5.755 8.203 C 6.228 8.042,6.692 8.001,8.000 8.000 C 8.693 8.000,9.283 7.982,9.365 7.959 C 9.586 7.898,9.770 7.755,9.880 7.558 C 9.967 7.402,9.980 7.332,9.979 7.000 C 9.978 6.567,9.898 6.355,9.678 6.199 C 9.423 6.017,9.269 6.000,7.944 6.005 C 7.260 6.008,6.556 6.025,6.380 6.043 M14.614 6.057 C 14.377 6.131,14.212 6.261,14.109 6.453 C 14.035 6.592,14.020 6.684,14.020 7.000 C 14.020 7.331,14.033 7.403,14.120 7.558 C 14.230 7.755,14.414 7.898,14.635 7.959 C 14.717 7.982,15.307 8.000,16.000 8.000 C 17.670 8.001,18.058 8.064,18.840 8.464 C 19.739 8.924,20.462 9.771,20.797 10.755 C 20.897 11.050,21.000 11.680,21.000 12.000 C 21.000 12.322,20.897 12.951,20.796 13.245 C 20.321 14.632,19.195 15.628,17.773 15.917 C 17.413 15.991,17.223 16.000,16.090 16.000 C 14.732 16.000,14.576 16.017,14.322 16.199 C 14.100 16.357,14.020 16.568,14.020 17.000 C 14.020 17.331,14.033 17.403,14.120 17.558 C 14.233 17.761,14.417 17.900,14.654 17.964 C 14.763 17.993,15.299 18.001,16.298 17.989 C 17.930 17.969,18.147 17.943,18.940 17.672 C 20.954 16.982,22.426 15.298,22.885 13.160 C 23.015 12.554,23.015 11.446,22.885 10.840 C 22.626 9.631,22.109 8.660,21.269 7.805 C 20.258 6.775,19.009 6.180,17.564 6.039 C 16.966 5.981,14.815 5.994,14.614 6.057 M6.614 11.057 C 6.377 11.131,6.212 11.261,6.109 11.453 C 6.035 11.592,6.020 11.684,6.020 12.000 C 6.020 12.331,6.033 12.403,6.120 12.558 C 6.230 12.755,6.414 12.898,6.635 12.959 C 6.834 13.015,17.166 13.015,17.365 12.959 C 17.586 12.898,17.770 12.755,17.880 12.558 C 17.967 12.402,17.980 12.332,17.979 12.000 C 17.978 11.567,17.898 11.355,17.678 11.199 C 17.390 10.994,17.565 11.000,11.984 11.003 C 7.830 11.005,6.746 11.016,6.614 11.057 " stroke="none" fill-rule="evenodd" fill="black"></path></svg>