<svg width="24" height="24" viewBox="0 0 24 24" fill="none" xmlns="http://www.w3.org/2000/svg"><path d="M8.614 1.057 C 8.377 1.131,8.212 1.261,8.109 1.453 C 8.023 1.614,8.020 1.665,8.008 2.908 C 8.000 3.720,8.011 4.254,8.038 4.352 C 8.144 4.747,8.432 4.961,8.896 4.991 C 9.381 5.022,9.699 4.882,9.880 4.558 L 9.980 4.380 9.980 3.000 C 9.980 1.650,9.978 1.616,9.891 1.453 C 9.842 1.362,9.746 1.247,9.678 1.199 C 9.414 1.010,8.957 0.950,8.614 1.057 M16.500 2.081 C 15.901 2.131,15.250 2.313,14.719 2.579 C 14.109 2.885,13.848 3.105,12.469 4.476 C 11.560 5.380,11.091 5.875,11.035 5.989 C 10.858 6.356,10.967 6.730,11.356 7.090 C 11.671 7.381,11.913 7.452,12.255 7.352 C 12.393 7.312,12.636 7.091,13.720 6.020 C 15.006 4.750,15.315 4.486,15.748 4.295 C 16.473 3.974,17.554 3.995,18.246 4.342 C 19.047 4.744,19.629 5.447,19.846 6.274 C 19.940 6.634,19.958 7.331,19.882 7.693 C 19.813 8.020,19.636 8.431,19.436 8.727 C 19.341 8.867,18.701 9.549,17.997 10.260 C 17.128 11.137,16.709 11.589,16.664 11.695 C 16.520 12.041,16.626 12.382,16.983 12.719 C 17.325 13.043,17.638 13.125,17.983 12.981 C 18.184 12.898,20.580 10.521,20.941 10.048 C 21.253 9.638,21.606 8.939,21.743 8.460 C 22.157 7.006,21.929 5.522,21.098 4.275 C 20.412 3.244,19.276 2.460,18.067 2.182 C 17.841 2.130,16.948 2.028,16.880 2.046 C 16.869 2.049,16.698 2.065,16.500 2.081 M3.260 2.487 C 2.822 2.651,2.439 3.129,2.441 3.509 C 2.443 3.818,2.564 3.979,3.492 4.908 C 4.436 5.852,4.580 5.957,4.917 5.959 C 5.149 5.960,5.380 5.845,5.613 5.613 C 5.956 5.269,6.042 4.926,5.877 4.560 C 5.771 4.326,4.096 2.648,3.862 2.541 C 3.664 2.450,3.417 2.428,3.260 2.487 M1.614 8.057 C 1.377 8.131,1.212 8.261,1.109 8.453 C 1.035 8.592,1.020 8.684,1.020 9.000 C 1.020 9.331,1.033 9.403,1.120 9.558 C 1.230 9.755,1.414 9.898,1.635 9.959 C 1.826 10.012,4.174 10.012,4.365 9.959 C 4.586 9.898,4.770 9.755,4.880 9.558 C 4.967 9.402,4.980 9.332,4.979 9.000 C 4.978 8.687,4.962 8.591,4.890 8.453 C 4.786 8.256,4.623 8.131,4.371 8.055 C 4.117 7.979,1.859 7.981,1.614 8.057 M5.979 11.043 C 5.775 11.150,3.390 13.520,3.077 13.927 C 2.323 14.907,1.946 16.234,2.079 17.440 C 2.210 18.636,2.690 19.648,3.521 20.479 C 4.380 21.337,5.397 21.809,6.640 21.925 C 7.226 21.980,7.847 21.918,8.460 21.743 C 8.939 21.606,9.638 21.253,10.048 20.941 C 10.521 20.580,12.898 18.184,12.981 17.983 C 13.063 17.787,13.065 17.537,12.986 17.348 C 12.837 16.992,12.320 16.600,12.000 16.601 C 11.692 16.602,11.549 16.717,10.221 18.034 C 9.516 18.732,8.836 19.371,8.710 19.454 C 8.176 19.803,7.726 19.935,7.060 19.936 C 6.683 19.937,6.513 19.918,6.268 19.848 C 5.419 19.606,4.743 19.043,4.342 18.246 C 3.995 17.554,3.974 16.473,4.295 15.748 C 4.486 15.315,4.750 15.006,6.020 13.720 C 7.347 12.377,7.400 12.311,7.400 12.000 C 7.400 11.690,7.052 11.211,6.706 11.043 C 6.481 10.934,6.188 10.934,5.979 11.043 M19.614 14.057 C 19.377 14.131,19.212 14.261,19.109 14.453 C 19.035 14.592,19.020 14.684,19.020 15.000 C 19.020 15.331,19.033 15.403,19.120 15.558 C 19.230 15.755,19.414 15.898,19.635 15.959 C 19.826 16.012,22.174 16.012,22.365 15.959 C 22.586 15.898,22.770 15.755,22.880 15.558 C 22.967 15.402,22.980 15.332,22.979 15.000 C 22.978 14.687,22.962 14.591,22.890 14.453 C 22.786 14.256,22.623 14.131,22.371 14.055 C 22.117 13.979,19.859 13.981,19.614 14.057 M18.736 18.121 C 18.524 18.226,18.222 18.530,18.120 18.740 C 18.076 18.831,18.040 18.985,18.041 19.083 C 18.043 19.423,18.146 19.562,19.112 20.524 C 20.110 21.518,20.215 21.591,20.584 21.550 C 20.839 21.521,21.176 21.283,21.380 20.986 C 21.524 20.775,21.540 20.728,21.540 20.505 C 21.540 20.296,21.521 20.228,21.412 20.059 C 21.216 19.753,19.652 18.220,19.437 18.122 C 19.209 18.019,18.944 18.018,18.736 18.121 M14.614 19.057 C 14.377 19.131,14.212 19.261,14.109 19.453 C 14.023 19.614,14.020 19.665,14.008 20.908 C 14.000 21.720,14.011 22.254,14.038 22.352 C 14.144 22.747,14.432 22.961,14.896 22.991 C 15.381 23.022,15.699 22.882,15.880 22.558 L 15.980 22.380 15.980 21.000 C 15.980 19.650,15.978 19.616,15.891 19.453 C 15.842 19.362,15.746 19.247,15.678 19.199 C 15.414 19.010,14.957 18.950,14.614 19.057 " stroke="none" fill-rule="evenodd" fill="black"></path></svg>