<svg width="24" height="24" viewBox="0 0 24 24" fill="none" xmlns="http://www.w3.org/2000/svg"><path d="M3.477 4.073 C 2.806 4.249,2.238 4.823,2.060 5.508 C 1.941 5.962,2.003 6.492,2.225 6.930 C 2.361 7.199,2.801 7.639,3.070 7.775 C 3.659 8.073,4.341 8.073,4.930 7.775 C 5.196 7.640,5.638 7.200,5.771 6.937 C 5.994 6.498,6.052 6.007,5.940 5.529 C 5.858 5.182,5.720 4.927,5.465 4.653 C 4.948 4.097,4.211 3.882,3.477 4.073 M8.614 5.057 C 8.377 5.131,8.212 5.261,8.109 5.453 C 8.035 5.592,8.020 5.684,8.020 6.000 C 8.020 6.331,8.033 6.403,8.120 6.558 C 8.230 6.755,8.414 6.898,8.635 6.959 C 8.834 7.015,21.166 7.015,21.365 6.959 C 21.586 6.898,21.770 6.755,21.880 6.558 C 21.967 6.402,21.980 6.332,21.979 6.000 C 21.978 5.567,21.898 5.355,21.678 5.199 C 21.388 4.992,21.642 5.000,14.984 5.003 C 10.009 5.005,8.747 5.016,8.614 5.057 M3.477 10.073 C 3.130 10.164,2.802 10.366,2.535 10.653 C 2.178 11.038,2.000 11.485,2.000 12.000 C 2.000 12.546,2.193 13.001,2.596 13.404 C 2.741 13.550,2.955 13.716,3.070 13.775 C 3.659 14.073,4.341 14.073,4.930 13.775 C 5.196 13.640,5.638 13.200,5.771 12.937 C 6.161 12.168,6.043 11.275,5.471 10.659 C 5.074 10.232,4.563 10.005,4.000 10.005 C 3.857 10.005,3.622 10.036,3.477 10.073 M8.614 11.057 C 8.377 11.131,8.212 11.261,8.109 11.453 C 8.035 11.592,8.020 11.684,8.020 12.000 C 8.020 12.331,8.033 12.403,8.120 12.558 C 8.230 12.755,8.414 12.898,8.635 12.959 C 8.834 13.015,21.166 13.015,21.365 12.959 C 21.586 12.898,21.770 12.755,21.880 12.558 C 21.967 12.402,21.980 12.332,21.979 12.000 C 21.978 11.567,21.898 11.355,21.678 11.199 C 21.388 10.992,21.642 11.000,14.984 11.003 C 10.009 11.005,8.747 11.016,8.614 11.057 M3.477 16.073 C 3.130 16.164,2.802 16.366,2.535 16.653 C 2.178 17.038,2.000 17.485,2.000 18.000 C 2.000 18.546,2.193 19.001,2.596 19.404 C 2.999 19.807,3.454 20.000,4.000 20.000 C 4.546 20.000,5.001 19.807,5.404 19.404 C 5.920 18.889,6.106 18.236,5.940 17.529 C 5.858 17.182,5.720 16.927,5.465 16.653 C 5.074 16.232,4.560 16.005,4.000 16.005 C 3.857 16.005,3.622 16.036,3.477 16.073 M8.614 17.057 C 8.377 17.131,8.212 17.261,8.109 17.453 C 8.035 17.592,8.020 17.684,8.020 18.000 C 8.020 18.331,8.033 18.403,8.120 18.558 C 8.230 18.755,8.414 18.898,8.635 18.959 C 8.834 19.015,21.166 19.015,21.365 18.959 C 21.586 18.898,21.770 18.755,21.880 18.558 C 21.967 18.402,21.980 18.332,21.979 18.000 C 21.978 17.567,21.898 17.355,21.678 17.199 C 21.388 16.992,21.642 17.000,14.984 17.003 C 10.009 17.005,8.747 17.016,8.614 17.057 " stroke="none" fill-rule="evenodd" fill="black"></path></svg>