<svg width="24" height="24" viewBox="0 0 24 24" fill="none" xmlns="http://www.w3.org/2000/svg"><path d="M11.760 1.280 C 11.497 1.327,11.388 1.378,11.247 1.519 C 11.011 1.755,10.995 1.893,11.008 3.586 C 11.020 5.087,11.021 5.102,11.115 5.293 C 11.234 5.534,11.431 5.668,11.754 5.728 C 12.257 5.822,12.712 5.644,12.889 5.286 C 12.978 5.104,12.980 5.070,12.992 3.586 C 13.005 1.870,12.991 1.751,12.738 1.506 C 12.539 1.313,12.119 1.216,11.760 1.280 M4.773 4.242 C 4.571 4.343,4.218 4.707,4.138 4.898 C 4.057 5.092,4.067 5.347,4.163 5.560 C 4.270 5.797,6.660 8.190,6.900 8.301 C 7.103 8.395,7.419 8.397,7.595 8.304 C 7.793 8.199,8.071 7.930,8.191 7.724 C 8.320 7.505,8.331 7.218,8.221 6.980 C 8.110 6.740,5.717 4.350,5.480 4.243 C 5.248 4.138,4.985 4.138,4.773 4.242 M18.320 4.446 C 18.061 4.570,16.394 6.235,16.283 6.480 C 16.121 6.840,16.195 7.152,16.526 7.502 C 16.760 7.750,17.011 7.880,17.250 7.879 C 17.580 7.877,17.728 7.768,18.668 6.828 C 19.603 5.892,19.717 5.739,19.719 5.418 C 19.721 5.081,19.371 4.612,18.988 4.438 C 18.767 4.338,18.541 4.340,18.320 4.446 M1.857 11.056 C 1.440 11.187,1.261 11.471,1.261 12.000 C 1.261 12.543,1.435 12.814,1.869 12.945 C 2.137 13.025,5.863 13.025,6.131 12.945 C 6.558 12.816,6.738 12.543,6.739 12.020 C 6.739 11.630,6.682 11.456,6.491 11.265 C 6.231 11.004,6.186 11.000,3.983 11.003 C 2.508 11.005,1.979 11.018,1.857 11.056 M19.420 11.036 C 18.971 11.151,18.760 11.459,18.760 12.000 C 18.760 12.507,18.951 12.816,19.340 12.938 C 19.520 12.995,19.707 13.003,20.586 12.992 C 21.555 12.981,21.630 12.975,21.780 12.894 C 22.106 12.718,22.240 12.459,22.240 12.000 C 22.240 11.541,22.106 11.282,21.780 11.106 C 21.629 11.025,21.561 11.020,20.580 11.013 C 20.008 11.009,19.486 11.019,19.420 11.036 M7.400 15.283 C 7.159 15.391,4.092 18.453,3.960 18.716 C 3.785 19.067,3.875 19.437,4.219 19.781 C 4.559 20.121,4.940 20.212,5.292 20.036 C 5.548 19.908,8.611 16.836,8.717 16.600 C 8.877 16.245,8.806 15.931,8.489 15.592 C 8.140 15.220,7.772 15.115,7.400 15.283 M17.574 16.718 C 17.309 16.781,16.934 17.104,16.776 17.405 C 16.681 17.586,16.682 17.900,16.777 18.100 C 16.893 18.341,17.894 19.325,18.139 19.437 C 18.478 19.593,18.816 19.500,19.158 19.158 C 19.376 18.940,19.520 18.662,19.520 18.460 C 19.520 18.184,19.373 17.965,18.804 17.398 C 18.505 17.100,18.197 16.827,18.120 16.793 C 17.935 16.709,17.729 16.681,17.574 16.718 M11.614 17.057 C 11.377 17.131,11.212 17.261,11.109 17.453 C 11.020 17.619,11.020 17.629,11.009 19.911 C 11.001 21.392,11.012 22.256,11.039 22.355 C 11.144 22.747,11.433 22.961,11.896 22.991 C 12.381 23.022,12.699 22.882,12.880 22.558 L 12.980 22.380 12.980 20.000 L 12.980 17.620 12.891 17.453 C 12.842 17.362,12.746 17.247,12.678 17.199 C 12.414 17.010,11.957 16.950,11.614 17.057 " stroke="none" fill-rule="evenodd" fill="black"></path></svg>