<svg width="24" height="24" viewBox="0 0 24 24" fill="none" xmlns="http://www.w3.org/2000/svg"><path d="M11.614 1.057 C 11.377 1.131,11.212 1.261,11.109 1.453 C 11.020 1.619,11.020 1.629,11.009 3.911 C 11.001 5.392,11.012 6.256,11.039 6.355 C 11.144 6.747,11.433 6.961,11.896 6.991 C 12.381 7.022,12.699 6.882,12.880 6.558 L 12.980 6.380 12.980 4.000 L 12.980 1.620 12.891 1.453 C 12.842 1.362,12.746 1.247,12.678 1.199 C 12.414 1.010,11.957 0.950,11.614 1.057 M4.546 4.045 C 4.343 4.152,4.066 4.432,3.963 4.635 C 3.853 4.849,3.854 5.151,3.964 5.372 C 4.092 5.628,7.164 8.691,7.400 8.797 C 7.762 8.960,8.133 8.862,8.466 8.513 C 8.796 8.168,8.877 7.835,8.717 7.480 C 8.611 7.244,5.548 4.172,5.292 4.044 C 5.072 3.934,4.755 3.935,4.546 4.045 M18.700 4.046 C 18.605 4.095,17.892 4.775,16.952 5.714 C 15.277 7.387,15.203 7.476,15.201 7.825 C 15.200 8.055,15.293 8.255,15.511 8.488 C 15.860 8.860,16.228 8.965,16.600 8.797 C 16.836 8.691,19.908 5.628,20.036 5.372 C 20.212 5.020,20.121 4.639,19.781 4.299 C 19.441 3.959,19.047 3.867,18.700 4.046 M1.614 11.057 C 1.377 11.131,1.212 11.261,1.109 11.453 C 1.035 11.592,1.020 11.684,1.020 12.000 C 1.020 12.331,1.033 12.403,1.120 12.558 C 1.230 12.755,1.414 12.898,1.635 12.959 C 1.831 13.014,6.169 13.014,6.365 12.959 C 6.586 12.898,6.770 12.755,6.880 12.558 C 6.967 12.402,6.980 12.332,6.979 12.000 C 6.978 11.567,6.898 11.355,6.678 11.199 C 6.406 11.005,6.336 11.000,3.984 11.003 C 2.293 11.005,1.741 11.017,1.614 11.057 M17.614 11.057 C 17.377 11.131,17.212 11.261,17.109 11.453 C 17.035 11.592,17.020 11.684,17.020 12.000 C 17.020 12.331,17.033 12.403,17.120 12.558 C 17.230 12.755,17.414 12.898,17.635 12.959 C 17.831 13.014,22.169 13.014,22.365 12.959 C 22.586 12.898,22.770 12.755,22.880 12.558 C 22.967 12.402,22.980 12.332,22.979 12.000 C 22.978 11.567,22.898 11.355,22.678 11.199 C 22.406 11.005,22.336 11.000,19.984 11.003 C 18.293 11.005,17.741 11.017,17.614 11.057 M7.400 15.283 C 7.159 15.391,4.092 18.453,3.960 18.716 C 3.785 19.067,3.875 19.437,4.219 19.781 C 4.559 20.121,4.940 20.212,5.292 20.036 C 5.548 19.908,8.611 16.836,8.717 16.600 C 8.877 16.245,8.806 15.931,8.489 15.592 C 8.140 15.220,7.772 15.115,7.400 15.283 M15.879 15.298 C 15.659 15.413,15.347 15.738,15.262 15.941 C 15.178 16.143,15.185 16.384,15.283 16.600 C 15.389 16.836,18.452 19.908,18.708 20.036 C 19.060 20.212,19.441 20.121,19.781 19.781 C 20.121 19.441,20.212 19.060,20.036 18.708 C 19.908 18.452,16.836 15.389,16.600 15.283 C 16.360 15.175,16.105 15.180,15.879 15.298 M11.614 17.057 C 11.377 17.131,11.212 17.261,11.109 17.453 C 11.020 17.619,11.020 17.629,11.009 19.911 C 11.001 21.392,11.012 22.256,11.039 22.355 C 11.144 22.747,11.433 22.961,11.896 22.991 C 12.381 23.022,12.699 22.882,12.880 22.558 L 12.980 22.380 12.980 20.000 L 12.980 17.620 12.891 17.453 C 12.842 17.362,12.746 17.247,12.678 17.199 C 12.414 17.010,11.957 16.950,11.614 17.057 " stroke="none" fill-rule="evenodd" fill="black"></path></svg>