<svg width="24" height="24" viewBox="0 0 24 24" fill="none" xmlns="http://www.w3.org/2000/svg"><path d="M11.380 2.043 C 8.792 2.298,6.688 4.208,6.118 6.820 C 6.042 7.168,6.028 7.381,6.011 8.463 L 5.992 9.707 5.769 9.983 C 3.837 12.384,3.458 15.694,4.800 18.471 C 5.197 19.294,5.611 19.886,6.259 20.554 C 6.951 21.270,7.648 21.775,8.526 22.199 C 11.317 23.547,14.624 23.164,17.040 21.211 C 17.394 20.925,18.067 20.239,18.326 19.900 C 19.581 18.257,20.176 16.166,19.958 14.168 C 19.792 12.652,19.174 11.156,18.231 9.983 L 18.008 9.707 17.989 8.463 C 17.972 7.381,17.958 7.168,17.882 6.820 C 17.621 5.622,17.102 4.654,16.269 3.805 C 14.978 2.490,13.230 1.860,11.380 2.043 M12.605 4.058 C 14.074 4.280,15.310 5.324,15.797 6.755 C 15.886 7.017,15.999 7.669,16.000 7.920 L 16.000 8.061 15.493 7.813 C 13.296 6.739,10.704 6.739,8.507 7.813 L 8.000 8.061 8.000 7.920 C 8.001 7.669,8.114 7.017,8.203 6.755 C 8.444 6.048,8.937 5.337,9.490 4.899 C 10.402 4.178,11.475 3.888,12.605 4.058 M12.564 9.039 C 13.693 9.149,14.717 9.542,15.580 10.197 C 15.894 10.435,16.576 11.116,16.805 11.420 C 17.974 12.974,18.305 15.082,17.671 16.940 C 16.988 18.944,15.291 20.428,13.160 20.885 C 12.810 20.960,12.617 20.975,12.000 20.975 C 11.383 20.975,11.190 20.960,10.840 20.885 C 8.941 20.478,7.451 19.319,6.590 17.580 C 5.932 16.251,5.832 14.517,6.329 13.060 C 6.523 12.490,6.836 11.897,7.195 11.420 C 7.424 11.116,8.106 10.435,8.420 10.197 C 9.585 9.313,11.082 8.895,12.564 9.039 M11.614 13.057 C 11.377 13.131,11.212 13.261,11.109 13.453 C 11.023 13.614,11.020 13.665,11.008 14.908 C 11.000 15.720,11.011 16.254,11.038 16.352 C 11.144 16.747,11.432 16.961,11.896 16.991 C 12.381 17.022,12.699 16.882,12.880 16.558 L 12.980 16.380 12.980 15.000 C 12.980 13.650,12.978 13.616,12.891 13.453 C 12.842 13.362,12.746 13.247,12.678 13.199 C 12.414 13.010,11.957 12.950,11.614 13.057 " stroke="none" fill-rule="evenodd" fill="black"></path></svg>