<svg version="1.1" xmlns="http://www.w3.org/2000/svg" width="16" height="16" viewBox="0 0 16 16"><path d="M7.547 0.027 C 7.075 0.084,6.636 0.215,6.227 0.420 C 5.107 0.981,4.358 1.955,4.074 3.218 C 4.017 3.471,4.015 3.539,4.006 5.247 L 3.997 7.013 3.400 7.013 C 2.860 7.013,2.788 7.019,2.654 7.069 C 2.359 7.179,2.130 7.428,2.042 7.735 C 2.004 7.868,2.000 8.260,2.006 11.561 L 2.013 15.240 2.088 15.400 C 2.186 15.610,2.391 15.816,2.597 15.911 L 2.760 15.987 8.000 15.987 L 13.240 15.987 13.403 15.911 C 13.609 15.816,13.814 15.610,13.912 15.400 L 13.987 15.240 13.994 11.561 C 14.000 8.260,13.996 7.868,13.958 7.735 C 13.870 7.428,13.641 7.179,13.346 7.069 C 13.212 7.019,13.140 7.013,12.600 7.013 L 12.003 7.013 11.994 5.247 C 11.985 3.539,11.983 3.471,11.926 3.218 C 11.554 1.560,10.315 0.352,8.694 0.065 C 8.411 0.015,7.812 -0.005,7.547 0.027 M8.377 2.041 C 8.530 2.070,8.688 2.125,8.879 2.218 C 9.123 2.336,9.188 2.383,9.402 2.598 C 9.617 2.812,9.664 2.877,9.782 3.121 C 9.998 3.567,10.000 3.585,10.000 5.430 L 10.000 7.013 7.999 7.013 L 5.997 7.013 6.007 5.327 C 6.017 3.429,6.006 3.547,6.230 3.093 C 6.336 2.880,6.394 2.802,6.598 2.599 C 7.094 2.105,7.699 1.915,8.377 2.041 M8.431 11.101 C 8.608 11.188,8.833 11.417,8.915 11.593 C 8.963 11.698,8.973 11.768,8.973 12.000 C 8.973 12.251,8.966 12.295,8.901 12.428 C 8.531 13.180,7.469 13.180,7.099 12.428 C 7.034 12.295,7.027 12.251,7.027 12.000 C 7.027 11.667,7.071 11.545,7.269 11.334 C 7.504 11.082,7.682 11.010,8.041 11.021 C 8.241 11.027,8.309 11.041,8.431 11.101 " stroke="none" fill-rule="evenodd" fill="black"></path></svg>