<svg width="24" height="24" viewBox="0 0 24 24" fill="none" xmlns="http://www.w3.org/2000/svg"><path d="M11.380 2.040 C 8.764 2.321,6.681 4.215,6.119 6.820 C 6.049 7.143,6.028 7.405,6.011 8.184 L 5.990 9.147 5.705 9.239 C 4.545 9.610,3.579 10.568,3.245 11.680 C 3.032 12.388,3.000 12.880,3.000 15.500 C 3.000 18.120,3.032 18.612,3.245 19.320 C 3.577 20.422,4.578 21.423,5.680 21.755 C 6.460 21.990,6.716 22.000,12.000 22.000 C 17.284 22.000,17.540 21.990,18.320 21.755 C 19.422 21.423,20.423 20.422,20.755 19.320 C 20.968 18.612,21.000 18.120,21.000 15.500 C 21.000 12.880,20.968 12.388,20.755 11.680 C 20.424 10.581,19.465 9.622,18.320 9.246 C 17.665 9.031,17.664 9.031,12.650 9.012 L 8.000 8.995 8.000 8.387 C 8.001 7.388,8.114 6.844,8.464 6.160 C 8.924 5.261,9.771 4.538,10.756 4.203 C 11.667 3.893,12.872 3.971,13.716 4.393 C 14.604 4.838,15.150 5.386,15.615 6.302 C 15.940 6.941,16.237 7.122,16.743 6.990 C 17.196 6.871,17.509 6.606,17.604 6.264 C 17.713 5.870,17.187 4.817,16.468 3.990 C 15.678 3.082,14.315 2.318,13.094 2.101 C 12.660 2.024,11.810 1.993,11.380 2.040 M17.492 11.091 C 17.893 11.188,18.109 11.309,18.400 11.600 C 18.697 11.896,18.814 12.110,18.911 12.528 C 18.971 12.787,18.979 13.126,18.979 15.500 C 18.979 18.406,18.972 18.499,18.752 18.952 C 18.626 19.211,18.190 19.638,17.918 19.768 C 17.471 19.983,17.547 19.980,12.000 19.980 C 6.462 19.980,6.533 19.983,6.082 19.771 C 5.812 19.643,5.377 19.217,5.248 18.952 C 5.028 18.499,5.021 18.406,5.021 15.500 C 5.021 13.126,5.029 12.787,5.089 12.528 C 5.175 12.156,5.294 11.919,5.520 11.667 C 5.883 11.262,6.281 11.091,6.980 11.039 C 7.200 11.023,9.594 11.013,12.300 11.018 C 16.701 11.025,17.249 11.033,17.492 11.091 M11.545 13.579 C 11.320 13.659,11.128 13.863,11.059 14.096 C 10.974 14.384,10.974 16.616,11.059 16.904 C 11.173 17.287,11.493 17.486,11.997 17.488 C 12.501 17.490,12.827 17.289,12.941 16.904 C 13.027 16.613,13.026 14.383,12.940 14.092 C 12.868 13.852,12.645 13.627,12.413 13.563 C 12.200 13.504,11.731 13.513,11.545 13.579 " stroke="none" fill-rule="evenodd" fill="black"></path></svg>