<svg width="24" height="24" viewBox="0 0 24 24" fill="none" xmlns="http://www.w3.org/2000/svg"><path d="M11.380 2.040 C 8.764 2.322,6.688 4.207,6.118 6.820 C 6.042 7.168,6.028 7.381,6.011 8.463 L 5.992 9.707 5.769 9.983 C 4.826 11.156,4.208 12.652,4.042 14.168 C 3.824 16.166,4.419 18.257,5.674 19.900 C 5.933 20.239,6.606 20.925,6.960 21.211 C 9.083 22.927,11.903 23.444,14.500 22.595 C 15.728 22.193,16.820 21.506,17.741 20.554 C 18.389 19.886,18.803 19.294,19.200 18.471 C 20.265 16.267,20.265 13.733,19.200 11.529 C 18.693 10.477,18.015 9.612,17.100 8.847 C 15.532 7.535,13.442 6.869,11.410 7.032 C 10.329 7.119,9.433 7.360,8.507 7.813 L 8.000 8.061 8.000 7.920 C 8.001 7.669,8.114 7.017,8.203 6.755 C 8.538 5.771,9.261 4.924,10.160 4.464 C 10.626 4.225,10.942 4.125,11.459 4.050 C 12.235 3.938,13.013 4.062,13.740 4.414 C 14.251 4.662,14.695 5.007,15.080 5.457 C 15.466 5.908,15.661 6.040,15.944 6.040 C 16.304 6.039,16.791 5.730,16.963 5.394 C 17.066 5.193,17.063 4.888,16.957 4.663 C 16.911 4.565,16.734 4.318,16.562 4.113 C 15.723 3.109,14.477 2.377,13.164 2.117 C 12.716 2.028,11.838 1.990,11.380 2.040 M12.564 9.039 C 14.921 9.269,16.913 10.837,17.671 13.060 C 18.168 14.517,18.068 16.251,17.410 17.580 C 16.550 19.316,15.056 20.478,13.160 20.885 C 12.810 20.960,12.617 20.975,12.000 20.975 C 11.383 20.975,11.190 20.960,10.840 20.885 C 8.941 20.478,7.451 19.319,6.590 17.580 C 5.932 16.251,5.832 14.517,6.329 13.060 C 6.618 12.212,7.080 11.470,7.731 10.805 C 9.008 9.503,10.757 8.864,12.564 9.039 M11.614 13.057 C 11.377 13.131,11.212 13.261,11.109 13.453 C 11.023 13.614,11.020 13.665,11.008 14.908 C 11.000 15.720,11.011 16.254,11.038 16.352 C 11.144 16.747,11.432 16.961,11.896 16.991 C 12.381 17.022,12.699 16.882,12.880 16.558 L 12.980 16.380 12.980 15.000 C 12.980 13.650,12.978 13.616,12.891 13.453 C 12.842 13.362,12.746 13.247,12.678 13.199 C 12.414 13.010,11.957 12.950,11.614 13.057 " stroke="none" fill-rule="evenodd" fill="black"></path></svg>