<svg width="24" height="24" viewBox="0 0 24 24" fill="none" xmlns="http://www.w3.org/2000/svg"><path d="M5.202 2.443 C 3.887 2.678,2.643 3.760,2.244 5.017 C 2.015 5.739,2.020 5.589,2.020 12.000 C 2.020 18.411,2.015 18.261,2.244 18.983 C 2.572 20.016,3.473 20.953,4.530 21.361 C 5.251 21.640,5.933 21.671,7.560 21.501 C 9.449 21.304,9.827 21.248,10.279 21.097 C 11.557 20.670,12.518 19.644,12.868 18.332 C 12.960 17.988,12.973 17.859,12.977 17.280 C 12.980 16.647,12.976 16.613,12.880 16.442 C 12.816 16.328,12.709 16.219,12.583 16.142 C 12.399 16.028,12.361 16.020,12.000 16.020 C 11.639 16.020,11.601 16.028,11.417 16.142 C 11.098 16.339,11.032 16.502,10.996 17.177 C 10.966 17.756,10.932 17.901,10.739 18.283 C 10.594 18.569,10.197 18.954,9.904 19.093 C 9.566 19.253,9.311 19.300,8.040 19.438 C 5.871 19.673,5.602 19.672,5.096 19.422 C 4.585 19.169,4.234 18.735,4.091 18.177 C 4.025 17.918,4.020 17.522,4.020 12.020 C 4.020 6.539,4.025 6.120,4.091 5.840 C 4.226 5.267,4.570 4.838,5.108 4.572 L 5.417 4.420 6.118 4.423 C 6.649 4.426,7.133 4.463,8.105 4.574 C 8.811 4.655,9.477 4.747,9.585 4.779 C 10.044 4.916,10.538 5.320,10.746 5.732 C 10.929 6.092,10.965 6.251,10.998 6.821 C 11.039 7.544,11.113 7.710,11.480 7.904 C 11.679 8.009,12.321 8.009,12.520 7.904 C 12.717 7.800,12.796 7.724,12.894 7.540 C 12.972 7.394,12.980 7.322,12.977 6.720 C 12.973 6.141,12.960 6.012,12.868 5.668 C 12.506 4.313,11.470 3.249,10.131 2.858 C 9.297 2.614,5.863 2.325,5.202 2.443 M15.626 6.045 C 15.420 6.154,15.146 6.433,15.038 6.644 C 14.924 6.868,14.924 7.133,15.040 7.363 C 15.100 7.483,15.679 8.092,16.853 9.269 L 18.576 10.998 13.595 11.009 L 8.614 11.020 8.417 11.142 C 8.291 11.219,8.184 11.328,8.120 11.442 C 8.032 11.598,8.020 11.667,8.021 12.000 C 8.023 12.514,8.125 12.716,8.480 12.905 C 8.614 12.977,8.823 12.980,13.598 12.991 L 18.576 13.002 16.853 14.731 C 15.679 15.908,15.100 16.517,15.040 16.637 C 14.863 16.989,14.952 17.354,15.299 17.701 C 15.646 18.048,16.010 18.137,16.363 17.960 C 16.486 17.899,17.313 17.103,19.061 15.366 C 20.448 13.988,21.634 12.826,21.696 12.784 C 21.850 12.682,22.049 12.239,22.049 12.000 C 22.049 11.744,21.851 11.321,21.676 11.201 C 21.601 11.150,20.415 9.988,19.040 8.618 C 17.379 6.964,16.483 6.100,16.372 6.044 C 16.152 5.934,15.835 5.935,15.626 6.045 " stroke="none" fill-rule="evenodd" fill="black"></path></svg>