<svg width="24" height="24" viewBox="0 0 24 24" fill="none" xmlns="http://www.w3.org/2000/svg"><path d="M14.614 2.055 C 14.220 2.184,14.039 2.437,14.009 2.900 C 13.978 3.381,14.119 3.699,14.442 3.880 L 14.620 3.980 16.420 4.007 C 18.731 4.042,18.870 4.070,19.400 4.600 C 19.696 4.895,19.814 5.109,19.912 5.528 C 19.975 5.797,19.980 6.313,19.980 12.000 C 19.980 17.687,19.975 18.203,19.912 18.472 C 19.814 18.891,19.696 19.104,19.400 19.401 C 19.112 19.689,18.830 19.846,18.460 19.922 C 18.303 19.954,17.607 19.980,16.439 19.996 L 14.658 20.020 14.459 20.122 C 14.119 20.297,13.978 20.606,14.009 21.104 C 14.038 21.563,14.250 21.852,14.635 21.959 C 14.826 22.012,17.605 22.012,18.180 21.959 C 18.928 21.891,19.387 21.775,19.859 21.535 C 20.749 21.085,21.482 20.228,21.755 19.320 C 21.994 18.526,22.000 18.358,22.000 12.000 C 22.000 5.642,21.994 5.474,21.755 4.680 C 21.424 3.581,20.464 2.621,19.320 2.246 C 18.776 2.067,18.367 2.034,16.520 2.016 C 15.121 2.003,14.747 2.011,14.614 2.055 M9.626 6.045 C 9.420 6.154,9.146 6.433,9.038 6.644 C 8.924 6.868,8.924 7.133,9.040 7.363 C 9.100 7.483,9.679 8.092,10.853 9.270 L 12.578 11.000 7.695 11.000 C 2.462 11.000,2.608 10.995,2.322 11.199 C 2.100 11.357,2.020 11.568,2.020 12.000 C 2.020 12.331,2.033 12.403,2.120 12.558 C 2.230 12.755,2.414 12.898,2.635 12.959 C 2.729 12.985,4.520 13.000,7.679 13.000 L 12.578 13.000 10.853 14.730 C 9.679 15.908,9.100 16.517,9.040 16.637 C 8.863 16.989,8.952 17.354,9.299 17.701 C 9.646 18.048,10.010 18.137,10.363 17.960 C 10.486 17.899,11.313 17.103,13.061 15.366 C 14.448 13.988,15.634 12.826,15.696 12.784 C 15.850 12.682,16.049 12.239,16.049 12.000 C 16.049 11.744,15.851 11.321,15.676 11.201 C 15.601 11.150,14.415 9.988,13.040 8.618 C 11.379 6.964,10.483 6.100,10.372 6.044 C 10.152 5.934,9.835 5.935,9.626 6.045 " stroke="none" fill-rule="evenodd" fill="black"></path></svg>