<svg width="24" height="24" viewBox="0 0 24 24" fill="none" xmlns="http://www.w3.org/2000/svg"><path d="M8.516 2.043 C 7.673 2.127,6.816 2.545,6.181 3.181 C 5.548 3.814,5.140 4.648,5.041 5.511 C 4.989 5.963,4.989 7.178,5.041 7.365 C 5.148 7.750,5.437 7.962,5.896 7.991 C 6.380 8.022,6.700 7.881,6.877 7.561 C 6.969 7.395,6.976 7.331,7.007 6.474 C 7.037 5.647,7.049 5.538,7.139 5.299 C 7.349 4.740,7.728 4.362,8.310 4.128 L 8.580 4.020 13.380 4.020 C 17.766 4.020,18.205 4.026,18.472 4.088 C 18.891 4.186,19.105 4.304,19.400 4.600 C 19.696 4.895,19.814 5.109,19.912 5.528 C 19.975 5.797,19.980 6.313,19.980 12.000 C 19.980 17.687,19.975 18.203,19.912 18.472 C 19.874 18.633,19.802 18.849,19.752 18.952 C 19.626 19.211,19.190 19.638,18.918 19.768 C 18.473 19.982,18.517 19.980,13.380 19.980 C 8.842 19.980,8.610 19.977,8.400 19.905 C 7.793 19.700,7.359 19.285,7.138 18.699 C 7.049 18.462,7.036 18.350,7.006 17.529 C 6.977 16.711,6.965 16.603,6.886 16.450 C 6.727 16.142,6.330 15.970,5.874 16.011 C 5.439 16.051,5.141 16.274,5.041 16.635 C 4.989 16.822,4.989 18.037,5.041 18.489 C 5.190 19.795,6.019 20.966,7.220 21.570 C 7.606 21.764,8.097 21.912,8.511 21.959 C 8.982 22.013,17.593 22.013,18.180 21.959 C 18.928 21.891,19.387 21.775,19.859 21.535 C 20.749 21.085,21.482 20.228,21.755 19.320 C 21.994 18.526,22.000 18.358,22.000 12.000 C 22.000 5.642,21.994 5.474,21.755 4.680 C 21.424 3.581,20.465 2.622,19.320 2.246 C 18.661 2.029,18.677 2.030,13.580 2.019 C 10.984 2.013,8.705 2.024,8.516 2.043 M11.626 7.045 C 11.257 7.239,10.951 7.673,10.951 8.000 C 10.951 8.333,11.056 8.467,12.353 9.770 L 13.577 11.000 8.195 11.000 C 2.423 11.000,2.610 10.994,2.322 11.199 C 2.100 11.357,2.020 11.568,2.020 12.000 C 2.020 12.331,2.033 12.403,2.120 12.558 C 2.230 12.755,2.414 12.898,2.635 12.959 C 2.729 12.985,4.685 13.000,8.179 13.000 L 13.577 13.000 12.353 14.230 C 11.548 15.039,11.099 15.521,11.040 15.637 C 10.863 15.989,10.952 16.354,11.299 16.701 C 11.646 17.048,12.011 17.137,12.363 16.960 C 12.484 16.899,13.182 16.234,14.561 14.866 C 15.673 13.763,16.634 12.826,16.696 12.784 C 16.850 12.682,17.049 12.239,17.049 12.000 C 17.049 11.745,16.851 11.321,16.676 11.201 C 16.601 11.150,15.640 10.213,14.540 9.118 C 13.232 7.817,12.482 7.099,12.372 7.044 C 12.152 6.934,11.835 6.935,11.626 7.045 " stroke="none" fill-rule="evenodd" fill="black"></path></svg>