<svg width="24" height="24" viewBox="0 0 24 24" fill="none" xmlns="http://www.w3.org/2000/svg"><path d="M5.940 2.026 C 4.916 2.088,4.270 2.309,3.562 2.843 C 2.816 3.405,2.320 4.194,2.105 5.160 C 2.020 5.539,2.020 5.564,2.020 12.000 C 2.020 18.436,2.020 18.461,2.105 18.840 C 2.311 19.762,2.774 20.527,3.464 21.084 C 4.130 21.621,4.768 21.874,5.675 21.960 C 6.224 22.012,9.034 22.011,9.489 21.959 C 10.795 21.810,11.966 20.981,12.570 19.780 C 12.909 19.105,13.017 18.480,12.993 17.328 C 12.979 16.693,12.969 16.603,12.890 16.453 C 12.786 16.256,12.623 16.131,12.371 16.055 C 11.861 15.902,11.307 16.077,11.112 16.453 C 11.034 16.603,11.022 16.712,10.993 17.532 C 10.963 18.385,10.955 18.460,10.855 18.712 C 10.618 19.308,10.205 19.700,9.600 19.905 C 9.398 19.974,9.229 19.980,7.540 19.980 C 5.897 19.980,5.672 19.972,5.440 19.909 C 4.760 19.722,4.214 19.144,4.070 18.460 C 4.031 18.273,4.020 16.846,4.020 12.000 C 4.020 5.316,4.014 5.520,4.227 5.080 C 4.366 4.795,4.795 4.366,5.080 4.227 C 5.481 4.033,5.640 4.020,7.600 4.021 L 9.420 4.022 9.690 4.129 C 10.269 4.359,10.628 4.717,10.855 5.288 C 10.955 5.540,10.963 5.614,10.992 6.468 C 11.021 7.333,11.028 7.389,11.121 7.558 C 11.286 7.856,11.572 8.000,12.000 8.000 C 12.428 8.000,12.713 7.856,12.880 7.558 C 12.974 7.390,12.981 7.340,12.994 6.672 C 13.001 6.282,12.988 5.784,12.964 5.566 C 12.866 4.658,12.468 3.829,11.819 3.181 C 11.157 2.519,10.332 2.128,9.411 2.041 C 9.032 2.005,6.477 1.994,5.940 2.026 M15.626 6.045 C 15.420 6.154,15.146 6.433,15.038 6.644 C 14.924 6.868,14.924 7.133,15.040 7.363 C 15.100 7.483,15.679 8.092,16.853 9.270 L 18.578 11.000 13.695 11.000 C 8.462 11.000,8.608 10.995,8.322 11.199 C 8.100 11.357,8.020 11.568,8.020 12.000 C 8.020 12.331,8.033 12.403,8.120 12.558 C 8.230 12.755,8.414 12.898,8.635 12.959 C 8.729 12.985,10.520 13.000,13.679 13.000 L 18.578 13.000 16.853 14.730 C 15.679 15.908,15.100 16.517,15.040 16.637 C 14.863 16.989,14.952 17.354,15.299 17.701 C 15.646 18.048,16.010 18.137,16.363 17.960 C 16.486 17.899,17.313 17.103,19.061 15.366 C 20.448 13.988,21.634 12.826,21.696 12.784 C 21.850 12.682,22.049 12.239,22.049 12.000 C 22.049 11.744,21.851 11.321,21.676 11.201 C 21.601 11.150,20.415 9.988,19.040 8.618 C 17.379 6.964,16.483 6.100,16.372 6.044 C 16.152 5.934,15.835 5.935,15.626 6.045 " stroke="none" fill-rule="evenodd" fill="black"></path></svg>