<svg width="24" height="24" viewBox="0 0 24 24" fill="none" xmlns="http://www.w3.org/2000/svg"><path d="M11.100 1.041 C 7.615 1.326,4.422 3.289,2.625 6.254 C 2.202 6.951,2.186 7.270,2.553 7.636 C 2.911 7.994,3.417 8.135,3.743 7.968 C 3.951 7.862,4.002 7.800,4.453 7.115 C 5.388 5.696,6.564 4.654,8.057 3.920 C 9.352 3.284,10.492 3.025,12.000 3.024 C 13.490 3.022,14.620 3.279,15.940 3.920 C 17.753 4.799,19.201 6.247,20.080 8.060 C 20.720 9.379,20.977 10.507,20.977 12.000 C 20.977 13.493,20.720 14.621,20.080 15.940 C 19.205 17.746,17.798 19.160,15.980 20.061 C 14.634 20.729,13.194 21.041,11.700 20.989 C 10.368 20.943,9.247 20.664,8.060 20.082 C 6.555 19.344,5.398 18.315,4.423 16.844 C 4.196 16.501,3.975 16.189,3.933 16.152 C 3.811 16.042,3.577 15.960,3.387 15.960 C 3.145 15.960,2.687 16.193,2.501 16.410 C 2.193 16.769,2.222 17.082,2.625 17.746 C 4.575 20.963,8.183 22.998,11.940 22.999 C 14.385 23.001,16.666 22.241,18.637 20.770 C 19.246 20.316,20.316 19.246,20.770 18.637 C 23.744 14.652,23.744 9.348,20.770 5.363 C 20.316 4.755,19.247 3.686,18.640 3.235 C 17.045 2.049,15.360 1.358,13.423 1.096 C 12.872 1.022,11.684 0.994,11.100 1.041 M11.626 7.045 C 11.257 7.239,10.951 7.673,10.951 8.000 C 10.951 8.333,11.056 8.467,12.353 9.770 L 13.577 11.000 8.195 11.000 C 2.423 11.000,2.610 10.994,2.322 11.199 C 2.100 11.357,2.020 11.568,2.020 12.000 C 2.020 12.331,2.033 12.403,2.120 12.558 C 2.230 12.755,2.414 12.898,2.635 12.959 C 2.729 12.985,4.685 13.000,8.179 13.000 L 13.577 13.000 12.353 14.230 C 11.548 15.039,11.099 15.521,11.040 15.637 C 10.863 15.989,10.952 16.354,11.299 16.701 C 11.646 17.048,12.011 17.137,12.363 16.960 C 12.484 16.899,13.182 16.234,14.561 14.866 C 15.673 13.763,16.634 12.826,16.696 12.784 C 16.850 12.682,17.049 12.239,17.049 12.000 C 17.049 11.745,16.851 11.321,16.676 11.201 C 16.601 11.150,15.640 10.213,14.540 9.118 C 13.232 7.817,12.482 7.099,12.372 7.044 C 12.152 6.934,11.835 6.935,11.626 7.045 " stroke="none" fill-rule="evenodd" fill="black"></path></svg>