<svg width="24" height="24" viewBox="0 0 24 24" fill="none" xmlns="http://www.w3.org/2000/svg"><path d="M17.360 1.504 C 17.283 1.514,16.977 1.549,16.680 1.583 C 15.273 1.744,8.300 2.692,8.000 2.763 C 7.813 2.807,7.480 2.930,7.260 3.036 C 6.058 3.613,5.233 4.740,5.039 6.072 C 4.971 6.537,5.003 7.338,5.097 7.520 C 5.280 7.873,5.486 7.978,6.000 7.978 C 6.310 7.978,6.410 7.962,6.540 7.893 C 6.889 7.709,6.963 7.535,7.004 6.801 C 7.050 5.965,7.142 5.713,7.564 5.263 C 7.834 4.973,8.210 4.756,8.569 4.683 C 8.844 4.627,16.031 3.669,17.020 3.557 C 17.519 3.501,17.920 3.477,18.189 3.489 C 18.561 3.505,18.625 3.520,18.894 3.653 C 19.107 3.759,19.258 3.871,19.429 4.055 C 19.719 4.365,19.825 4.575,19.913 5.009 C 19.973 5.310,19.979 5.951,19.979 12.000 C 19.979 18.049,19.973 18.690,19.913 18.991 C 19.825 19.425,19.719 19.635,19.429 19.945 C 19.256 20.130,19.108 20.241,18.887 20.350 C 18.602 20.491,18.559 20.501,18.142 20.514 C 17.894 20.522,17.445 20.499,17.120 20.463 C 15.795 20.313,8.683 19.352,8.480 19.295 C 7.829 19.111,7.264 18.564,7.083 17.940 C 7.057 17.852,7.021 17.519,7.004 17.199 C 6.966 16.533,6.902 16.348,6.649 16.182 C 6.199 15.887,5.426 15.979,5.170 16.358 C 5.034 16.559,5.000 16.736,5.000 17.245 C 5.000 18.487,5.373 19.389,6.238 20.240 C 6.765 20.758,7.346 21.085,8.040 21.254 C 8.312 21.321,15.597 22.303,16.880 22.446 C 17.869 22.557,18.657 22.535,19.172 22.383 C 19.851 22.183,20.383 21.857,20.881 21.335 C 21.570 20.614,21.864 19.876,21.959 18.636 C 22.012 17.937,22.013 6.049,21.959 5.360 C 21.860 4.071,21.522 3.272,20.772 2.556 C 20.390 2.191,20.181 2.045,19.750 1.839 C 19.223 1.587,18.882 1.515,18.140 1.500 C 17.788 1.493,17.437 1.495,17.360 1.504 M11.626 7.045 C 11.257 7.239,10.951 7.673,10.951 8.000 C 10.951 8.333,11.056 8.467,12.353 9.770 L 13.577 11.000 8.195 11.000 C 2.423 11.000,2.610 10.994,2.322 11.199 C 2.100 11.357,2.020 11.568,2.020 12.000 C 2.020 12.331,2.033 12.403,2.120 12.558 C 2.230 12.755,2.414 12.898,2.635 12.959 C 2.729 12.985,4.685 13.000,8.179 13.000 L 13.577 13.000 12.353 14.230 C 11.548 15.039,11.099 15.521,11.040 15.637 C 10.863 15.989,10.952 16.354,11.299 16.701 C 11.646 17.048,12.011 17.137,12.363 16.960 C 12.484 16.899,13.182 16.234,14.561 14.866 C 15.673 13.763,16.634 12.826,16.696 12.784 C 16.850 12.682,17.049 12.239,17.049 12.000 C 17.049 11.745,16.851 11.321,16.676 11.201 C 16.601 11.150,15.640 10.213,14.540 9.118 C 13.232 7.817,12.482 7.099,12.372 7.044 C 12.152 6.934,11.835 6.935,11.626 7.045 " stroke="none" fill-rule="evenodd" fill="black"></path></svg>