<svg width="24" height="24" viewBox="0 0 24 24" fill="none" xmlns="http://www.w3.org/2000/svg"><path d="M9.800 2.044 C 7.981 2.218,6.275 2.903,4.821 4.041 C 4.343 4.415,3.488 5.276,3.111 5.763 C 1.757 7.508,1.001 9.744,1.001 12.000 C 1.001 13.633,1.376 15.195,2.119 16.660 C 3.078 18.551,4.687 20.145,6.540 21.039 C 8.454 21.964,10.517 22.222,12.611 21.798 C 13.290 21.661,14.194 21.339,14.895 20.984 C 15.834 20.509,16.071 20.262,16.029 19.801 C 15.995 19.422,15.718 19.002,15.394 18.837 C 15.097 18.685,14.918 18.723,14.219 19.084 C 12.712 19.864,11.270 20.140,9.743 19.940 C 6.158 19.470,3.411 16.529,3.041 12.766 C 2.732 9.626,4.323 6.493,6.996 4.981 C 8.841 3.936,11.002 3.724,13.020 4.390 C 13.262 4.470,13.773 4.694,14.156 4.888 C 14.749 5.188,14.880 5.240,15.047 5.240 C 15.311 5.240,15.468 5.166,15.667 4.950 C 15.933 4.661,16.017 4.466,16.018 4.137 C 16.020 3.886,16.007 3.837,15.906 3.705 C 15.843 3.622,15.708 3.493,15.606 3.418 C 15.312 3.201,14.270 2.704,13.693 2.505 C 12.507 2.098,11.044 1.924,9.800 2.044 M17.626 7.045 C 17.257 7.239,16.951 7.673,16.951 8.000 C 16.951 8.333,17.056 8.467,18.353 9.770 L 19.577 11.000 14.195 11.000 C 8.423 11.000,8.610 10.994,8.322 11.199 C 8.100 11.357,8.020 11.568,8.020 12.000 C 8.020 12.331,8.033 12.403,8.120 12.558 C 8.230 12.755,8.414 12.898,8.635 12.959 C 8.729 12.985,10.685 13.000,14.179 13.000 L 19.577 13.000 18.353 14.230 C 17.548 15.039,17.099 15.521,17.040 15.637 C 16.863 15.989,16.952 16.354,17.299 16.701 C 17.646 17.048,18.011 17.137,18.363 16.960 C 18.484 16.899,19.182 16.234,20.561 14.866 C 21.673 13.763,22.634 12.826,22.696 12.784 C 22.850 12.682,23.049 12.239,23.049 12.000 C 23.049 11.745,22.851 11.321,22.676 11.201 C 22.601 11.150,21.640 10.213,20.540 9.118 C 19.232 7.817,18.482 7.099,18.372 7.044 C 18.152 6.934,17.835 6.935,17.626 7.045 " stroke="none" fill-rule="evenodd" fill="black"></path></svg>