<svg width="24" height="24" viewBox="0 0 24 24" fill="none" xmlns="http://www.w3.org/2000/svg"><path d="M5.920 2.042 C 5.155 2.091,4.674 2.204,4.180 2.451 C 3.089 2.996,2.357 3.961,2.124 5.160 C 2.013 5.729,2.000 6.455,2.000 12.000 C 2.000 18.358,2.006 18.526,2.245 19.320 C 2.518 20.228,3.251 21.085,4.141 21.535 C 4.613 21.775,5.072 21.891,5.820 21.959 C 6.395 22.012,9.174 22.012,9.365 21.959 C 9.586 21.898,9.770 21.755,9.880 21.558 C 9.967 21.402,9.980 21.332,9.979 21.000 C 9.977 20.469,9.849 20.242,9.455 20.072 C 9.373 20.037,8.835 20.016,7.560 19.997 C 6.401 19.981,5.696 19.954,5.540 19.922 C 5.159 19.844,4.887 19.693,4.600 19.403 C 4.303 19.104,4.186 18.890,4.088 18.472 C 4.025 18.203,4.020 17.687,4.020 12.000 C 4.020 6.313,4.025 5.797,4.088 5.528 C 4.186 5.109,4.304 4.895,4.600 4.600 C 5.130 4.070,5.269 4.042,7.580 4.007 C 9.311 3.980,9.386 3.976,9.540 3.894 C 9.874 3.716,9.978 3.504,9.978 3.000 C 9.978 2.567,9.899 2.356,9.678 2.199 C 9.418 2.014,9.280 2.000,7.784 2.006 C 7.012 2.009,6.173 2.025,5.920 2.042 M15.626 6.045 C 15.420 6.154,15.146 6.433,15.038 6.644 C 14.924 6.868,14.924 7.133,15.040 7.363 C 15.100 7.483,15.679 8.092,16.853 9.270 L 18.578 11.000 13.695 11.000 C 8.462 11.000,8.608 10.995,8.322 11.199 C 8.100 11.357,8.020 11.568,8.020 12.000 C 8.020 12.331,8.033 12.403,8.120 12.558 C 8.230 12.755,8.414 12.898,8.635 12.959 C 8.729 12.985,10.520 13.000,13.679 13.000 L 18.578 13.000 16.853 14.730 C 15.679 15.908,15.100 16.517,15.040 16.637 C 14.863 16.989,14.952 17.354,15.299 17.701 C 15.646 18.048,16.010 18.137,16.363 17.960 C 16.486 17.899,17.313 17.103,19.061 15.366 C 20.448 13.988,21.634 12.826,21.696 12.784 C 21.850 12.682,22.049 12.239,22.049 12.000 C 22.049 11.744,21.851 11.321,21.676 11.201 C 21.601 11.150,20.415 9.988,19.040 8.618 C 17.379 6.964,16.483 6.100,16.372 6.044 C 16.152 5.934,15.835 5.935,15.626 6.045 " stroke="none" fill-rule="evenodd" fill="black"></path></svg>