<svg width="24" height="24" viewBox="0 0 24 24" fill="none" xmlns="http://www.w3.org/2000/svg"><path d="M6.920 1.040 C 6.150 1.092,5.672 1.205,5.180 1.451 C 4.089 1.996,3.357 2.961,3.124 4.160 C 3.013 4.729,3.000 5.455,3.000 11.000 C 3.000 16.545,3.013 17.271,3.124 17.840 C 3.311 18.806,3.822 19.623,4.599 20.199 C 5.191 20.638,5.854 20.876,6.676 20.944 L 7.000 20.972 7.000 21.596 C 7.000 21.939,7.019 22.285,7.041 22.365 C 7.148 22.750,7.437 22.962,7.896 22.991 C 8.381 23.022,8.699 22.882,8.880 22.558 C 8.974 22.391,8.981 22.338,8.994 21.690 L 9.008 21.000 12.004 21.000 L 15.000 21.000 15.000 21.610 C 15.000 21.946,15.019 22.285,15.041 22.365 C 15.148 22.750,15.437 22.962,15.896 22.991 C 16.381 23.022,16.699 22.882,16.880 22.558 C 16.974 22.390,16.981 22.339,16.994 21.675 L 17.008 20.971 17.328 20.944 C 18.373 20.857,19.229 20.464,19.883 19.772 C 20.565 19.050,20.851 18.362,20.959 17.180 C 21.014 16.585,21.014 5.415,20.959 4.820 C 20.891 4.072,20.775 3.613,20.535 3.141 C 20.088 2.259,19.268 1.557,18.320 1.246 C 17.657 1.028,17.701 1.030,12.340 1.019 C 9.612 1.014,7.173 1.023,6.920 1.040 M17.492 3.091 C 17.893 3.188,18.109 3.309,18.400 3.600 C 18.696 3.895,18.814 4.109,18.912 4.528 C 18.975 4.797,18.980 5.313,18.980 11.000 C 18.980 16.687,18.975 17.203,18.912 17.472 C 18.814 17.891,18.696 18.104,18.400 18.401 C 18.101 18.701,17.820 18.851,17.418 18.928 C 17.011 19.004,6.989 19.004,6.582 18.927 C 6.170 18.850,5.898 18.704,5.600 18.403 C 5.303 18.104,5.186 17.890,5.088 17.472 C 5.025 17.203,5.020 16.687,5.020 11.000 C 5.020 5.313,5.025 4.797,5.088 4.528 C 5.175 4.155,5.294 3.918,5.520 3.667 C 5.883 3.262,6.281 3.091,6.980 3.039 C 7.200 3.023,9.594 3.013,12.300 3.018 C 16.701 3.025,17.249 3.033,17.492 3.091 M9.180 6.039 C 8.860 6.121,8.656 6.300,8.554 6.587 C 8.473 6.815,8.474 15.186,8.555 15.415 C 8.641 15.659,8.857 15.870,9.092 15.940 C 9.536 16.072,10.018 15.982,10.251 15.725 C 10.513 15.435,10.500 15.683,10.500 11.000 C 10.500 6.256,10.515 6.524,10.230 6.251 C 10.005 6.037,9.547 5.945,9.180 6.039 M14.180 6.039 C 13.952 6.098,13.855 6.153,13.732 6.293 C 13.489 6.569,13.500 6.354,13.500 11.000 C 13.500 15.683,13.487 15.435,13.749 15.725 C 14.084 16.095,14.916 16.095,15.251 15.725 C 15.513 15.435,15.500 15.683,15.500 11.000 C 15.500 6.256,15.515 6.524,15.230 6.251 C 15.005 6.037,14.547 5.945,14.180 6.039 " stroke="none" fill-rule="evenodd" fill="black"></path></svg>