<svg width="24" height="24" viewBox="0 0 24 24" fill="none" xmlns="http://www.w3.org/2000/svg"><path d="M14.614 1.057 C 14.377 1.131,14.212 1.261,14.109 1.453 C 14.023 1.614,14.020 1.665,14.008 2.908 C 14.000 3.720,14.011 4.254,14.038 4.352 C 14.144 4.747,14.432 4.961,14.896 4.991 C 15.381 5.022,15.699 4.882,15.880 4.558 L 15.980 4.380 15.980 3.000 C 15.980 1.650,15.978 1.616,15.891 1.453 C 15.842 1.362,15.746 1.247,15.678 1.199 C 15.414 1.010,14.957 0.950,14.614 1.057 M10.626 4.045 C 10.420 4.154,10.146 4.433,10.038 4.644 C 9.924 4.868,9.924 5.133,10.040 5.363 C 10.160 5.602,11.598 7.040,11.837 7.160 C 12.189 7.337,12.554 7.248,12.901 6.901 C 13.248 6.554,13.337 6.189,13.160 5.837 C 13.043 5.605,11.602 4.160,11.372 4.044 C 11.152 3.934,10.835 3.934,10.626 4.045 M18.620 4.046 C 18.395 4.163,16.952 5.615,16.840 5.837 C 16.663 6.189,16.752 6.554,17.099 6.901 C 17.446 7.248,17.811 7.337,18.163 7.160 C 18.402 7.040,19.840 5.602,19.960 5.363 C 20.137 5.011,20.048 4.646,19.701 4.299 C 19.361 3.959,18.967 3.867,18.620 4.046 M7.614 8.057 C 7.377 8.131,7.212 8.261,7.109 8.453 C 7.035 8.592,7.020 8.684,7.020 9.000 C 7.020 9.331,7.033 9.403,7.120 9.558 C 7.230 9.755,7.414 9.898,7.635 9.959 C 7.826 10.012,10.174 10.012,10.365 9.959 C 10.586 9.898,10.770 9.755,10.880 9.558 C 10.967 9.402,10.980 9.332,10.979 9.000 C 10.978 8.687,10.962 8.591,10.890 8.453 C 10.786 8.256,10.623 8.131,10.371 8.055 C 10.117 7.979,7.859 7.981,7.614 8.057 M19.614 8.057 C 19.377 8.131,19.212 8.261,19.109 8.453 C 19.035 8.592,19.020 8.684,19.020 9.000 C 19.020 9.331,19.033 9.403,19.120 9.558 C 19.230 9.755,19.414 9.898,19.635 9.959 C 19.826 10.012,22.174 10.012,22.365 9.959 C 22.586 9.898,22.770 9.755,22.880 9.558 C 22.967 9.402,22.980 9.332,22.979 9.000 C 22.978 8.687,22.962 8.591,22.890 8.453 C 22.786 8.256,22.623 8.131,22.371 8.055 C 22.117 7.979,19.859 7.981,19.614 8.057 M17.426 10.845 C 17.057 11.039,16.751 11.473,16.751 11.800 C 16.751 12.115,16.874 12.285,17.694 13.106 C 18.173 13.584,18.527 13.904,18.637 13.960 C 18.989 14.137,19.354 14.048,19.701 13.701 C 20.048 13.354,20.137 12.989,19.960 12.637 C 19.843 12.405,18.402 10.960,18.172 10.844 C 17.952 10.734,17.635 10.734,17.426 10.845 M11.620 11.046 C 11.382 11.168,2.155 20.405,2.039 20.637 C 1.864 20.990,1.953 21.355,2.299 21.701 C 2.645 22.047,3.010 22.136,3.363 21.961 C 3.614 21.835,12.835 12.614,12.961 12.363 C 13.136 12.010,13.047 11.645,12.701 11.299 C 12.362 10.959,11.968 10.867,11.620 11.046 M14.614 13.057 C 14.377 13.131,14.212 13.261,14.109 13.453 C 14.023 13.614,14.020 13.665,14.008 14.908 C 14.000 15.720,14.011 16.254,14.038 16.352 C 14.144 16.747,14.432 16.961,14.896 16.991 C 15.381 17.022,15.699 16.882,15.880 16.558 L 15.980 16.380 15.980 15.000 C 15.980 13.650,15.978 13.616,15.891 13.453 C 15.842 13.362,15.746 13.247,15.678 13.199 C 15.414 13.010,14.957 12.950,14.614 13.057 " stroke="none" fill-rule="evenodd" fill="black"></path></svg>