<svg width="24" height="24" viewBox="0 0 24 24" fill="none" xmlns="http://www.w3.org/2000/svg"><path d="M14.599 1.059 C 14.390 1.126,14.176 1.318,14.085 1.520 C 13.986 1.737,13.967 3.548,14.060 3.867 C 14.187 4.302,14.488 4.491,15.052 4.489 C 15.431 4.487,15.718 4.346,15.870 4.087 L 15.980 3.900 15.992 2.828 C 16.003 1.931,15.994 1.724,15.941 1.564 C 15.873 1.358,15.739 1.209,15.524 1.100 C 15.337 1.006,14.833 0.983,14.599 1.059 M9.565 3.051 C 9.308 3.182,9.017 3.519,8.934 3.782 C 8.869 3.990,8.869 4.011,8.938 4.230 C 9.004 4.442,9.067 4.518,9.733 5.190 C 10.666 6.133,10.886 6.249,11.338 6.037 C 11.552 5.936,11.886 5.611,11.984 5.408 C 12.077 5.215,12.075 4.902,11.980 4.700 C 11.873 4.471,10.553 3.159,10.317 3.047 C 10.076 2.932,9.794 2.934,9.565 3.051 M19.640 3.047 C 19.406 3.161,18.085 4.476,17.980 4.700 C 17.885 4.902,17.883 5.215,17.976 5.408 C 18.074 5.611,18.408 5.936,18.622 6.037 C 19.074 6.249,19.294 6.133,20.227 5.190 C 20.893 4.518,20.956 4.442,21.022 4.230 C 21.091 4.011,21.091 3.990,21.026 3.782 C 20.942 3.516,20.649 3.179,20.390 3.049 C 20.157 2.933,19.878 2.932,19.640 3.047 M13.010 6.979 C 12.733 7.057,12.549 7.154,12.259 7.374 C 12.128 7.473,9.740 9.838,6.954 12.627 C 3.361 16.225,1.842 17.772,1.730 17.947 C 1.322 18.585,1.322 19.417,1.731 20.053 C 1.941 20.381,3.619 22.059,3.947 22.269 C 4.583 22.678,5.415 22.678,6.053 22.270 C 6.228 22.158,7.770 20.644,11.353 17.066 C 14.132 14.291,16.492 11.912,16.597 11.780 C 16.942 11.349,17.079 10.985,17.079 10.500 C 17.079 10.016,16.943 9.653,16.599 9.220 C 16.311 8.858,14.809 7.396,14.571 7.245 C 14.456 7.173,14.267 7.077,14.151 7.032 C 13.873 6.924,13.300 6.898,13.010 6.979 M20.180 8.036 C 19.731 8.151,19.520 8.459,19.520 9.000 C 19.520 9.459,19.654 9.718,19.980 9.894 C 20.130 9.975,20.205 9.981,21.174 9.992 C 22.053 10.003,22.240 9.995,22.420 9.938 C 22.809 9.816,23.000 9.507,23.000 9.000 C 23.000 8.541,22.866 8.282,22.540 8.106 C 22.389 8.025,22.321 8.020,21.340 8.013 C 20.768 8.009,20.246 8.019,20.180 8.036 M14.040 11.540 L 13.000 12.580 12.210 11.790 L 11.420 11.000 12.460 9.960 L 13.499 8.920 14.290 9.710 L 15.080 10.500 14.040 11.540 M18.565 12.051 C 18.308 12.182,18.017 12.519,17.934 12.782 C 17.869 12.990,17.869 13.011,17.938 13.230 C 18.004 13.442,18.067 13.518,18.733 14.190 C 19.666 15.133,19.886 15.249,20.338 15.037 C 20.552 14.936,20.886 14.611,20.984 14.408 C 21.084 14.200,21.076 13.901,20.963 13.680 C 20.834 13.429,19.558 12.162,19.317 12.047 C 19.076 11.932,18.794 11.933,18.565 12.051 M10.800 13.220 L 11.580 14.000 8.290 17.290 L 5.000 20.580 4.210 19.790 L 3.420 19.000 6.700 15.720 C 8.504 13.916,9.989 12.440,10.000 12.440 C 10.012 12.440,10.372 12.791,10.800 13.220 " stroke="none" fill-rule="evenodd" fill="black"></path></svg>