<svg width="24" height="24" viewBox="0 0 24 24" fill="none" xmlns="http://www.w3.org/2000/svg"><path d="M4.920 3.041 C 4.152 3.092,3.672 3.205,3.180 3.451 C 2.066 4.008,1.312 5.020,1.119 6.220 C 1.095 6.374,1.056 6.570,1.034 6.657 C 0.980 6.862,0.988 16.609,1.042 17.197 C 1.149 18.360,1.439 19.054,2.117 19.772 C 2.654 20.341,3.356 20.720,4.160 20.876 C 4.738 20.988,5.470 21.000,12.000 21.000 C 18.530 21.000,19.262 20.988,19.840 20.876 C 20.644 20.720,21.346 20.341,21.883 19.772 C 22.561 19.054,22.851 18.360,22.958 17.197 C 23.012 16.609,23.020 6.862,22.966 6.657 C 22.944 6.570,22.905 6.374,22.881 6.220 C 22.658 4.839,21.668 3.689,20.320 3.246 C 19.635 3.021,19.900 3.028,12.340 3.019 C 8.512 3.014,5.173 3.024,4.920 3.041 M19.492 5.091 C 20.001 5.214,20.400 5.491,20.663 5.902 C 20.772 6.072,20.942 6.513,20.910 6.543 C 20.816 6.628,12.661 12.308,12.495 12.404 C 12.294 12.521,12.223 12.540,12.000 12.540 C 11.777 12.540,11.706 12.521,11.505 12.404 C 11.339 12.308,3.184 6.628,3.090 6.543 C 3.057 6.513,3.229 6.072,3.339 5.902 C 3.701 5.345,4.170 5.099,4.980 5.039 C 5.200 5.023,8.494 5.013,12.300 5.017 C 18.585 5.024,19.245 5.031,19.492 5.091 M10.056 13.851 C 10.880 14.403,11.264 14.539,12.000 14.539 C 12.736 14.539,13.120 14.403,13.944 13.851 C 14.206 13.675,15.902 12.494,17.713 11.226 L 21.005 8.920 20.989 13.070 C 20.972 17.568,20.976 17.493,20.752 17.952 C 20.626 18.211,20.190 18.638,19.918 18.768 C 19.463 18.987,19.707 18.980,12.000 18.980 C 4.304 18.980,4.541 18.986,4.082 18.771 C 3.812 18.643,3.377 18.217,3.248 17.952 C 3.024 17.493,3.028 17.568,3.011 13.070 L 2.995 8.920 6.287 11.226 C 8.098 12.494,9.794 13.675,10.056 13.851 " stroke="none" fill-rule="evenodd" fill="black"></path></svg>