<svg width="24" height="24" viewBox="0 0 24 24" fill="none" xmlns="http://www.w3.org/2000/svg"><path d="M8.580 1.054 C 8.470 1.106,8.326 1.192,8.260 1.247 C 8.194 1.302,6.629 2.209,4.782 3.263 C 2.934 4.317,1.370 5.224,1.306 5.278 C 1.241 5.332,1.146 5.467,1.095 5.578 L 1.001 5.780 1.000 13.963 C 1.000 23.160,0.971 22.346,1.313 22.726 C 1.594 23.038,1.865 23.112,2.240 22.980 C 2.334 22.947,3.893 22.073,5.705 21.037 L 9.000 19.154 12.030 20.882 C 13.697 21.833,15.124 22.660,15.201 22.720 C 15.764 23.156,16.325 23.150,16.800 22.702 C 16.877 22.629,18.240 21.703,19.830 20.644 C 22.877 18.614,22.854 18.631,22.959 18.260 C 22.992 18.143,23.000 15.877,22.992 9.860 L 22.980 1.620 22.891 1.453 C 22.785 1.256,22.622 1.131,22.371 1.055 C 22.136 0.985,21.893 0.985,21.690 1.056 C 21.602 1.087,20.286 1.942,18.765 2.956 C 17.245 3.970,15.980 4.800,15.955 4.800 C 15.891 4.800,9.885 1.366,9.740 1.247 C 9.390 0.957,8.946 0.883,8.580 1.054 M8.000 10.572 L 8.000 17.423 5.590 18.799 C 4.264 19.555,3.139 20.200,3.090 20.232 L 3.000 20.289 3.000 13.435 L 3.001 6.580 5.490 5.154 C 6.860 4.369,7.985 3.726,7.990 3.724 C 7.995 3.722,8.000 6.803,8.000 10.572 M15.000 13.435 L 15.000 20.289 14.910 20.232 C 14.861 20.200,13.736 19.555,12.410 18.799 L 10.000 17.423 10.000 10.574 L 10.000 3.726 12.500 5.153 L 14.999 6.580 15.000 13.435 M21.000 10.673 L 21.000 17.467 19.110 18.726 C 18.070 19.419,17.171 20.018,17.110 20.058 L 17.000 20.129 17.000 13.331 L 17.000 6.533 18.990 5.207 C 20.085 4.477,20.984 3.880,20.990 3.880 C 20.996 3.880,21.000 6.937,21.000 10.673 " stroke="none" fill-rule="evenodd" fill="black"></path></svg>