<svg width="24" height="24" viewBox="0 0 24 24" fill="none" xmlns="http://www.w3.org/2000/svg"><path d="M11.614 2.057 C 11.298 2.156,11.129 2.331,11.035 2.658 C 10.983 2.835,10.988 17.166,11.039 17.357 C 11.144 17.747,11.434 17.961,11.896 17.991 C 12.381 18.022,12.699 17.882,12.880 17.558 L 12.980 17.380 12.991 14.240 L 13.002 11.099 15.529 9.740 C 16.919 8.992,18.162 8.310,18.292 8.224 C 18.611 8.013,18.820 7.739,18.925 7.392 C 19.125 6.734,18.876 6.111,18.241 5.681 C 17.701 5.316,12.444 2.104,12.305 2.055 C 12.114 1.987,11.834 1.988,11.614 2.057 M14.831 5.919 C 15.739 6.477,16.468 6.946,16.451 6.962 C 16.412 6.997,13.163 8.746,13.069 8.782 C 13.004 8.807,13.000 8.680,13.000 6.800 L 13.000 4.791 13.090 4.848 C 13.139 4.879,13.923 5.361,14.831 5.919 M7.480 12.464 C 5.035 12.982,3.079 13.942,1.987 15.159 C 1.279 15.948,0.961 16.764,1.013 17.658 C 1.042 18.156,1.116 18.438,1.339 18.900 C 1.563 19.363,1.811 19.687,2.310 20.165 C 5.070 22.811,12.044 23.792,17.480 22.299 C 19.305 21.798,20.751 21.065,21.690 20.165 C 22.189 19.687,22.437 19.363,22.661 18.900 C 22.877 18.453,22.956 18.162,22.986 17.700 C 23.121 15.638,21.204 13.815,17.834 12.801 C 17.244 12.624,16.353 12.414,16.027 12.376 C 15.423 12.305,14.998 12.751,15.001 13.455 C 15.003 13.997,15.229 14.217,15.953 14.381 C 16.642 14.537,17.605 14.811,18.060 14.980 C 19.396 15.479,20.510 16.264,20.843 16.940 C 20.961 17.180,20.980 17.258,20.978 17.504 C 20.977 17.749,20.957 17.829,20.839 18.062 C 20.571 18.590,19.904 19.150,19.011 19.597 C 15.281 21.465,8.719 21.465,4.989 19.597 C 4.094 19.149,3.426 18.589,3.162 18.065 C 2.872 17.491,3.008 16.949,3.584 16.372 C 4.075 15.881,5.016 15.325,5.940 14.980 C 6.395 14.811,7.358 14.537,8.047 14.381 C 8.771 14.217,8.997 13.997,8.999 13.455 C 9.001 12.803,8.622 12.352,8.080 12.363 C 8.003 12.365,7.733 12.410,7.480 12.464 " stroke="none" fill-rule="evenodd" fill="black"></path></svg>