<svg width="24" height="24" viewBox="0 0 24 24" fill="none" xmlns="http://www.w3.org/2000/svg"><path d="M11.614 1.057 C 11.377 1.131,11.212 1.261,11.109 1.453 C 11.028 1.605,11.019 1.687,11.007 2.345 L 10.994 3.069 10.758 3.094 C 9.665 3.208,8.136 3.774,7.120 4.440 C 5.723 5.357,4.668 6.544,3.940 8.020 C 3.509 8.894,3.230 9.764,3.108 10.620 L 3.056 10.980 2.357 11.000 C 1.706 11.019,1.644 11.027,1.459 11.122 C 1.144 11.284,1.000 11.560,1.000 12.000 C 1.000 12.428,1.144 12.713,1.442 12.880 C 1.609 12.974,1.666 12.981,2.338 13.000 L 3.056 13.020 3.108 13.380 C 3.317 14.835,3.993 16.377,4.960 17.604 C 5.286 18.016,5.924 18.660,6.341 18.997 C 7.556 19.976,9.148 20.681,10.620 20.892 L 10.980 20.944 11.000 21.662 C 11.019 22.334,11.026 22.391,11.120 22.558 C 11.287 22.856,11.572 23.000,12.000 23.000 C 12.428 23.000,12.713 22.856,12.880 22.558 C 12.973 22.392,12.981 22.333,13.000 21.662 L 13.020 20.944 13.380 20.892 C 14.851 20.681,16.445 19.975,17.657 18.998 C 19.365 17.620,20.588 15.497,20.892 13.380 L 20.944 13.020 21.662 12.999 C 22.294 12.981,22.399 12.969,22.540 12.894 C 22.875 12.716,22.978 12.504,22.978 12.000 C 22.978 11.572,22.899 11.356,22.686 11.204 C 22.466 11.048,22.347 11.025,21.642 11.002 L 20.944 10.980 20.892 10.620 C 20.681 9.151,19.975 7.555,19.001 6.347 C 18.448 5.661,17.658 4.951,16.880 4.440 C 15.870 3.777,14.331 3.208,13.242 3.094 L 13.007 3.069 12.993 2.345 C 12.979 1.691,12.969 1.604,12.890 1.453 C 12.841 1.362,12.746 1.247,12.678 1.199 C 12.414 1.010,11.957 0.950,11.614 1.057 M13.102 5.098 C 16.099 5.551,18.491 7.985,18.924 11.020 C 18.990 11.483,18.990 12.517,18.924 12.980 C 18.487 16.047,16.126 18.424,13.020 18.926 C 12.607 18.992,11.393 18.992,10.980 18.926 C 7.873 18.424,5.513 16.047,5.076 12.980 C 4.967 12.217,5.022 11.093,5.205 10.340 C 5.753 8.084,7.433 6.214,9.620 5.427 C 10.250 5.200,10.715 5.102,11.540 5.023 C 11.813 4.997,12.726 5.041,13.102 5.098 M11.358 8.061 C 10.230 8.237,9.143 8.974,8.569 9.953 C 7.320 12.083,8.233 14.785,10.512 15.704 C 12.558 16.528,14.877 15.538,15.704 13.488 C 16.090 12.530,16.090 11.469,15.705 10.516 C 15.172 9.197,14.001 8.269,12.605 8.058 C 12.144 7.989,11.816 7.990,11.358 8.061 M12.523 10.073 C 13.262 10.266,13.850 10.924,13.967 11.690 C 14.067 12.343,13.873 12.933,13.403 13.404 C 13.002 13.807,12.547 14.000,12.000 14.000 C 11.485 14.000,11.038 13.822,10.653 13.465 C 9.323 12.229,10.189 10.005,12.000 10.005 C 12.143 10.005,12.378 10.036,12.523 10.073 " stroke="none" fill-rule="evenodd" fill="black"></path></svg>