<svg width="24" height="24" viewBox="0 0 24 24" fill="none" xmlns="http://www.w3.org/2000/svg"><path d="M11.358 2.061 C 9.731 2.315,8.417 3.584,8.083 5.227 C 7.700 7.105,8.756 9.031,10.540 9.711 C 10.716 9.778,10.892 9.843,10.930 9.855 C 10.996 9.876,11.000 10.088,11.000 13.549 C 11.000 15.885,11.015 17.273,11.041 17.365 C 11.148 17.750,11.437 17.962,11.896 17.991 C 12.381 18.022,12.699 17.882,12.880 17.558 L 12.980 17.380 12.991 13.628 C 13.001 10.117,13.006 9.875,13.071 9.855 C 14.340 9.452,15.237 8.645,15.704 7.488 C 16.090 6.530,16.090 5.469,15.705 4.516 C 15.172 3.197,14.001 2.269,12.605 2.058 C 12.144 1.989,11.816 1.990,11.358 2.061 M12.523 4.073 C 13.262 4.266,13.850 4.924,13.967 5.690 C 14.029 6.098,13.967 6.522,13.793 6.880 C 13.638 7.198,13.227 7.625,12.930 7.775 C 12.492 7.997,11.962 8.059,11.508 7.940 C 10.823 7.762,10.249 7.194,10.073 6.523 C 9.683 5.028,11.028 3.683,12.523 4.073 M7.480 12.464 C 5.035 12.982,3.079 13.942,1.987 15.159 C 1.279 15.948,0.961 16.764,1.013 17.658 C 1.042 18.156,1.116 18.438,1.339 18.900 C 1.563 19.363,1.811 19.687,2.310 20.165 C 5.070 22.811,12.044 23.792,17.480 22.299 C 19.305 21.798,20.751 21.065,21.690 20.165 C 22.189 19.687,22.437 19.363,22.661 18.900 C 22.877 18.453,22.956 18.162,22.986 17.700 C 23.121 15.638,21.204 13.815,17.834 12.801 C 17.244 12.624,16.353 12.414,16.027 12.376 C 15.423 12.305,14.998 12.751,15.001 13.455 C 15.003 13.997,15.229 14.217,15.953 14.381 C 16.642 14.537,17.605 14.811,18.060 14.980 C 19.396 15.479,20.510 16.264,20.843 16.940 C 20.961 17.180,20.980 17.258,20.978 17.504 C 20.977 17.749,20.957 17.829,20.839 18.062 C 20.571 18.590,19.904 19.150,19.011 19.597 C 15.281 21.465,8.719 21.465,4.989 19.597 C 4.094 19.149,3.426 18.589,3.162 18.065 C 2.872 17.491,3.008 16.949,3.584 16.372 C 4.075 15.881,5.016 15.325,5.940 14.980 C 6.395 14.811,7.358 14.537,8.047 14.381 C 8.771 14.217,8.997 13.997,8.999 13.455 C 9.001 12.803,8.622 12.352,8.080 12.363 C 8.003 12.365,7.733 12.410,7.480 12.464 " stroke="none" fill-rule="evenodd" fill="black"></path></svg>