<svg width="24" height="24" viewBox="0 0 24 24" fill="none" xmlns="http://www.w3.org/2000/svg"><path d="M17.719 1.999 L 14.658 2.020 14.459 2.122 C 14.119 2.297,13.978 2.606,14.009 3.104 C 14.038 3.563,14.250 3.852,14.635 3.959 C 14.723 3.984,15.530 4.000,16.679 4.000 L 18.579 4.000 15.853 6.730 C 13.942 8.644,13.102 9.513,13.039 9.637 C 12.863 9.990,12.952 10.354,13.299 10.701 C 13.646 11.048,14.010 11.137,14.363 10.961 C 14.487 10.898,15.356 10.058,17.270 8.147 L 20.000 5.421 20.000 7.321 C 20.000 8.470,20.016 9.277,20.041 9.365 C 20.148 9.750,20.437 9.962,20.896 9.991 C 21.381 10.022,21.699 9.882,21.880 9.558 L 21.980 9.380 22.007 6.220 C 22.022 4.482,22.035 3.001,22.037 2.929 C 22.041 2.744,21.835 2.310,21.696 2.212 C 21.467 2.052,21.198 1.960,20.985 1.969 C 20.872 1.974,19.402 1.988,17.719 1.999 M9.620 13.046 C 9.522 13.097,8.404 14.182,6.732 15.852 L 4.004 18.575 3.992 16.598 C 3.980 14.640,3.979 14.618,3.891 14.453 C 3.785 14.256,3.622 14.131,3.371 14.055 C 2.862 13.902,2.311 14.076,2.109 14.453 L 2.020 14.620 1.993 17.780 C 1.979 19.518,1.965 20.998,1.963 21.069 C 1.959 21.208,2.121 21.610,2.232 21.735 C 2.331 21.848,2.777 22.040,2.929 22.037 C 3.001 22.035,4.482 22.021,6.220 22.007 C 9.349 21.980,9.382 21.979,9.540 21.894 C 9.875 21.715,9.978 21.504,9.978 21.000 C 9.978 20.567,9.899 20.356,9.678 20.199 C 9.411 20.008,9.311 20.000,7.304 20.000 L 5.421 20.000 8.147 17.270 C 10.058 15.356,10.898 14.487,10.961 14.363 C 11.137 14.010,11.048 13.646,10.701 13.299 C 10.361 12.959,9.967 12.867,9.620 13.046 " stroke="none" fill-rule="evenodd" fill="black"></path></svg>