<svg width="24" height="24" viewBox="0 0 24 24" fill="none" xmlns="http://www.w3.org/2000/svg"><path d="M5.920 2.042 C 5.155 2.091,4.674 2.204,4.180 2.451 C 3.089 2.996,2.357 3.961,2.124 5.160 C 2.005 5.769,1.947 8.027,2.041 8.365 C 2.148 8.750,2.437 8.962,2.896 8.991 C 3.381 9.022,3.700 8.882,3.879 8.558 C 3.977 8.383,3.978 8.362,4.006 7.100 C 4.045 5.337,4.101 5.098,4.600 4.600 C 5.098 4.101,5.338 4.044,7.100 4.005 C 8.293 3.979,8.391 3.971,8.540 3.893 C 8.874 3.717,8.978 3.505,8.978 3.000 C 8.978 2.686,8.963 2.591,8.890 2.453 C 8.786 2.256,8.623 2.131,8.371 2.055 C 8.169 1.994,6.769 1.987,5.920 2.042 M15.614 2.054 C 15.219 2.185,15.039 2.437,15.009 2.900 C 14.978 3.381,15.119 3.700,15.442 3.880 C 15.618 3.978,15.635 3.979,16.900 4.006 C 18.661 4.044,18.901 4.101,19.400 4.600 C 19.899 5.099,19.956 5.339,19.994 7.100 C 20.021 8.365,20.022 8.382,20.120 8.558 C 20.287 8.856,20.572 9.000,21.000 9.000 C 21.428 9.000,21.713 8.856,21.880 8.558 C 21.978 8.383,21.980 8.360,21.993 7.380 C 22.016 5.676,21.901 4.862,21.535 4.141 C 21.088 3.259,20.267 2.557,19.320 2.246 C 18.838 2.088,18.333 2.038,17.020 2.018 C 16.034 2.003,15.746 2.010,15.614 2.054 M2.614 15.057 C 2.377 15.131,2.212 15.261,2.109 15.453 C 2.025 15.611,2.019 15.676,2.007 16.620 C 1.985 18.327,2.099 19.138,2.464 19.858 C 2.999 20.913,3.979 21.647,5.160 21.876 C 5.769 21.995,8.027 22.053,8.365 21.959 C 8.586 21.898,8.770 21.755,8.880 21.558 C 8.967 21.402,8.980 21.332,8.979 21.000 C 8.978 20.572,8.898 20.355,8.686 20.204 C 8.449 20.035,8.375 20.026,7.060 19.997 C 6.349 19.981,5.673 19.947,5.540 19.921 C 5.162 19.845,4.888 19.694,4.600 19.403 C 4.101 18.899,4.045 18.663,4.005 16.900 C 3.977 15.695,3.971 15.610,3.889 15.453 C 3.841 15.362,3.746 15.247,3.678 15.199 C 3.414 15.010,2.957 14.950,2.614 15.057 M20.614 15.057 C 20.376 15.132,20.212 15.261,20.111 15.453 C 20.028 15.611,20.022 15.691,19.995 16.900 C 19.956 18.662,19.899 18.901,19.400 19.401 C 19.111 19.690,18.828 19.847,18.460 19.921 C 18.324 19.948,17.664 19.980,16.939 19.994 C 15.666 20.020,15.656 20.021,15.459 20.122 C 15.119 20.297,14.978 20.606,15.009 21.104 C 15.038 21.563,15.250 21.852,15.635 21.959 C 15.973 22.053,18.231 21.995,18.840 21.876 C 20.021 21.647,21.001 20.913,21.536 19.858 C 21.901 19.138,22.016 18.323,21.993 16.620 C 21.981 15.676,21.975 15.611,21.891 15.453 C 21.842 15.362,21.746 15.247,21.678 15.199 C 21.414 15.010,20.957 14.950,20.614 15.057 " stroke="none" fill-rule="evenodd" fill="black"></path></svg>