<svg version="1.1" xmlns="http://www.w3.org/2000/svg" width="32" height="32" viewBox="0 0 32 32"><path d="M24.667 2.456 C 20.632 5.164,15.717 7.220,10.580 8.347 C 10.454 8.375,10.454 8.372,10.296 9.493 C 10.106 10.833,10.058 11.627,10.058 13.413 C 10.058 15.400,10.156 16.664,10.432 18.253 C 10.472 18.478,10.378 18.439,11.493 18.694 C 15.938 19.709,20.932 21.864,24.674 24.382 L 25.374 24.853 26.600 24.853 C 27.910 24.853,28.247 24.816,28.634 24.627 C 28.948 24.473,29.569 23.858,29.860 23.413 C 30.863 21.879,31.569 19.325,31.902 16.027 C 31.995 15.099,31.995 11.728,31.902 10.800 C 31.682 8.619,31.357 7.011,30.827 5.473 C 30.244 3.785,29.425 2.587,28.580 2.187 L 28.240 2.027 26.773 2.027 L 25.307 2.027 24.667 2.456 M27.416 3.884 C 27.996 4.253,28.620 5.324,29.087 6.750 C 30.208 10.175,30.331 15.170,29.390 19.018 C 28.921 20.935,28.146 22.480,27.425 22.937 C 27.002 23.206,26.761 23.138,26.277 22.615 C 25.293 21.552,24.543 19.293,24.179 16.293 C 24.038 15.138,24.038 11.689,24.179 10.533 C 24.586 7.179,25.499 4.707,26.633 3.885 C 26.900 3.691,27.113 3.691,27.416 3.884 M7.398 8.854 C 6.138 9.016,5.190 9.067,3.432 9.067 L 1.733 9.067 0.867 10.550 L -0.000 12.034 -0.000 13.415 L 0.000 14.795 0.862 16.271 L 1.725 17.746 3.809 17.776 C 5.752 17.803,6.658 17.860,7.838 18.026 C 8.028 18.053,8.190 18.067,8.200 18.058 C 8.210 18.048,8.193 17.887,8.164 17.700 C 7.933 16.241,7.823 13.048,7.943 11.331 C 8.005 10.459,8.127 9.279,8.193 8.920 C 8.211 8.825,8.205 8.750,8.179 8.753 C 8.154 8.757,7.802 8.803,7.398 8.854 M26.733 9.880 C 26.438 10.185,26.182 10.854,25.992 11.813 C 25.857 12.493,25.857 14.332,25.991 15.013 C 26.196 16.051,26.461 16.709,26.793 17.000 C 27.014 17.194,27.138 17.182,27.337 16.946 C 27.851 16.336,28.162 15.002,28.162 13.413 C 28.162 12.071,27.953 10.960,27.561 10.225 C 27.273 9.684,27.023 9.580,26.733 9.880 M7.520 19.333 C 7.520 19.377,9.940 28.904,10.054 29.307 C 10.192 29.800,10.639 30.084,11.083 29.962 C 11.419 29.870,14.993 28.427,15.123 28.331 C 15.308 28.194,15.467 27.878,15.466 27.646 C 15.466 27.416,15.526 27.534,13.048 22.929 L 11.511 20.072 9.609 19.707 C 8.563 19.507,7.665 19.332,7.614 19.319 C 7.562 19.305,7.520 19.312,7.520 19.333 " stroke="none" fill-rule="evenodd" fill="black"></path></svg>