<svg width="24" height="24" viewBox="0 0 24 24" fill="none" xmlns="http://www.w3.org/2000/svg"><path d="M2.545 7.579 C 2.095 7.739,1.884 8.316,2.060 8.908 C 2.130 9.143,2.341 9.359,2.585 9.445 C 2.817 9.527,21.183 9.527,21.415 9.445 C 21.786 9.314,22.000 8.968,22.000 8.500 C 22.000 8.029,21.770 7.662,21.413 7.563 C 21.307 7.534,18.404 7.521,11.980 7.522 C 4.190 7.523,2.675 7.532,2.545 7.579 M2.545 14.579 C 2.095 14.739,1.884 15.316,2.060 15.908 C 2.130 16.143,2.341 16.359,2.585 16.445 C 2.817 16.527,21.183 16.527,21.415 16.445 C 21.786 16.314,22.000 15.968,22.000 15.500 C 22.000 15.029,21.770 14.662,21.413 14.563 C 21.307 14.534,18.404 14.521,11.980 14.522 C 4.190 14.523,2.675 14.532,2.545 14.579 " stroke="none" fill-rule="evenodd" fill="black"></path></svg>