<svg width="24" height="24" viewBox="0 0 24 24" fill="none" xmlns="http://www.w3.org/2000/svg"><path d="M2.614 5.057 C 2.377 5.131,2.212 5.261,2.109 5.453 C 2.035 5.592,2.020 5.684,2.020 6.000 C 2.020 6.331,2.033 6.403,2.120 6.558 C 2.230 6.755,2.414 6.898,2.635 6.959 C 2.835 7.015,21.165 7.015,21.365 6.959 C 21.586 6.898,21.770 6.755,21.880 6.558 C 21.967 6.402,21.980 6.332,21.979 6.000 C 21.978 5.567,21.898 5.355,21.678 5.199 C 21.385 4.990,21.877 5.000,11.984 5.003 C 4.546 5.005,2.748 5.015,2.614 5.057 M2.614 11.057 C 2.377 11.131,2.212 11.261,2.109 11.453 C 2.035 11.592,2.020 11.684,2.020 12.000 C 2.020 12.331,2.033 12.403,2.120 12.558 C 2.230 12.755,2.414 12.898,2.635 12.959 C 2.835 13.015,21.165 13.015,21.365 12.959 C 21.586 12.898,21.770 12.755,21.880 12.558 C 21.967 12.402,21.980 12.332,21.979 12.000 C 21.978 11.567,21.898 11.355,21.678 11.199 C 21.385 10.990,21.877 11.000,11.984 11.003 C 4.546 11.005,2.748 11.015,2.614 11.057 M8.614 17.057 C 8.377 17.131,8.212 17.261,8.109 17.453 C 8.035 17.592,8.020 17.684,8.020 18.000 C 8.020 18.331,8.033 18.403,8.120 18.558 C 8.230 18.755,8.414 18.898,8.635 18.959 C 8.834 19.015,21.166 19.015,21.365 18.959 C 21.586 18.898,21.770 18.755,21.880 18.558 C 21.967 18.402,21.980 18.332,21.979 18.000 C 21.978 17.567,21.898 17.355,21.678 17.199 C 21.388 16.992,21.642 17.000,14.984 17.003 C 10.009 17.005,8.747 17.016,8.614 17.057 " stroke="none" fill-rule="evenodd" fill="black"></path></svg>