<svg width="24" height="24" viewBox="0 0 24 24" fill="none" xmlns="http://www.w3.org/2000/svg"><path d="M5.920 2.041 C 5.667 2.058,5.343 2.092,5.200 2.118 C 4.027 2.326,2.999 3.086,2.465 4.141 C 2.225 4.613,2.109 5.072,2.041 5.820 C 1.987 6.407,1.987 15.018,2.041 15.489 C 2.190 16.795,3.019 17.966,4.220 18.570 C 4.705 18.814,5.436 18.997,5.930 19.000 C 5.995 19.000,6.000 19.074,6.000 19.995 C 6.000 20.542,6.018 21.085,6.040 21.202 C 6.237 22.237,7.240 22.745,8.166 22.277 C 8.292 22.214,9.183 21.531,10.147 20.760 C 12.016 19.266,12.240 19.116,12.720 19.041 C 12.874 19.017,13.952 19.000,15.360 19.000 C 18.126 19.000,18.606 18.970,19.320 18.755 C 20.422 18.423,21.423 17.422,21.755 16.320 C 21.987 15.549,22.000 15.248,22.000 10.500 C 22.000 5.752,21.987 5.451,21.755 4.680 C 21.424 3.581,20.465 2.622,19.320 2.246 C 18.644 2.024,18.800 2.029,12.340 2.019 C 9.062 2.014,6.173 2.024,5.920 2.041 M18.492 4.091 C 18.894 4.188,19.109 4.309,19.400 4.600 C 19.696 4.895,19.814 5.109,19.912 5.528 C 19.974 5.795,19.980 6.228,19.980 10.500 C 19.980 15.608,19.986 15.472,19.752 15.952 C 19.627 16.210,19.190 16.638,18.920 16.767 C 18.516 16.961,18.432 16.966,15.360 17.000 C 12.389 17.033,12.316 17.037,11.800 17.206 C 11.177 17.410,10.986 17.539,9.273 18.905 L 8.005 19.915 7.993 18.768 C 7.981 17.670,7.976 17.613,7.891 17.453 C 7.799 17.282,7.656 17.157,7.455 17.075 C 7.388 17.047,6.974 17.015,6.460 16.997 C 5.726 16.972,5.541 16.953,5.346 16.884 C 4.772 16.681,4.366 16.284,4.128 15.690 L 4.020 15.420 4.020 10.620 C 4.020 6.234,4.026 5.795,4.088 5.528 C 4.175 5.155,4.294 4.918,4.520 4.667 C 4.883 4.262,5.282 4.091,5.980 4.039 C 6.200 4.023,9.044 4.013,12.300 4.018 C 17.643 4.024,18.247 4.032,18.492 4.091 M9.171 7.019 C 8.968 7.108,8.637 7.440,8.535 7.660 C 8.305 8.150,8.392 8.301,9.596 9.500 C 10.126 10.028,10.560 10.478,10.560 10.500 C 10.560 10.522,10.126 10.972,9.596 11.500 C 8.587 12.504,8.441 12.694,8.441 13.000 C 8.441 13.213,8.605 13.519,8.835 13.732 C 9.075 13.956,9.267 14.047,9.500 14.047 C 9.823 14.047,9.933 13.963,10.990 12.909 L 12.000 11.902 13.010 12.909 C 14.067 13.963,14.177 14.047,14.500 14.047 C 14.733 14.047,14.925 13.956,15.165 13.732 C 15.395 13.519,15.559 13.213,15.559 13.000 C 15.559 12.694,15.413 12.504,14.404 11.500 C 13.874 10.972,13.440 10.522,13.440 10.500 C 13.440 10.478,13.874 10.028,14.404 9.500 C 15.413 8.496,15.559 8.306,15.559 8.000 C 15.559 7.683,15.169 7.163,14.820 7.018 C 14.640 6.942,14.355 6.944,14.169 7.022 C 14.072 7.062,13.668 7.435,13.010 8.091 L 12.000 9.098 10.990 8.091 C 10.332 7.435,9.928 7.062,9.831 7.022 C 9.648 6.946,9.343 6.944,9.171 7.019 " stroke="none" fill-rule="evenodd" fill="black"></path></svg>