<svg width="24" height="24" viewBox="0 0 24 24" fill="none" xmlns="http://www.w3.org/2000/svg"><path d="M5.920 2.041 C 5.667 2.058,5.343 2.092,5.200 2.118 C 4.027 2.326,2.999 3.086,2.465 4.141 C 2.225 4.613,2.109 5.072,2.041 5.820 C 1.987 6.407,1.987 15.018,2.041 15.489 C 2.190 16.795,3.019 17.966,4.220 18.570 C 4.705 18.814,5.436 18.997,5.930 19.000 C 5.995 19.000,6.000 19.074,6.000 19.995 C 6.000 20.542,6.018 21.085,6.040 21.202 C 6.237 22.237,7.240 22.745,8.166 22.277 C 8.292 22.214,9.183 21.531,10.147 20.760 C 12.016 19.266,12.240 19.116,12.720 19.041 C 12.874 19.017,13.952 19.000,15.360 19.000 C 18.126 19.000,18.606 18.970,19.320 18.755 C 20.422 18.423,21.423 17.422,21.755 16.320 C 21.987 15.549,22.000 15.248,22.000 10.500 C 22.000 5.752,21.987 5.451,21.755 4.680 C 21.424 3.581,20.465 2.622,19.320 2.246 C 18.644 2.024,18.800 2.029,12.340 2.019 C 9.062 2.014,6.173 2.024,5.920 2.041 M18.492 4.091 C 18.894 4.188,19.109 4.309,19.400 4.600 C 19.696 4.895,19.814 5.109,19.912 5.528 C 19.974 5.795,19.980 6.228,19.980 10.500 C 19.980 15.608,19.986 15.472,19.752 15.952 C 19.627 16.210,19.190 16.638,18.920 16.767 C 18.516 16.961,18.432 16.966,15.360 17.000 C 12.389 17.033,12.316 17.037,11.800 17.206 C 11.177 17.410,10.986 17.539,9.273 18.905 L 8.005 19.915 7.993 18.768 C 7.981 17.670,7.976 17.613,7.891 17.453 C 7.799 17.282,7.656 17.157,7.455 17.075 C 7.388 17.047,6.974 17.015,6.460 16.997 C 5.726 16.972,5.541 16.953,5.346 16.884 C 4.772 16.681,4.366 16.284,4.128 15.690 L 4.020 15.420 4.020 10.620 C 4.020 6.234,4.026 5.795,4.088 5.528 C 4.175 5.155,4.294 4.918,4.520 4.667 C 4.883 4.262,5.282 4.091,5.980 4.039 C 6.200 4.023,9.044 4.013,12.300 4.018 C 17.643 4.024,18.247 4.032,18.492 4.091 M11.614 6.057 C 11.377 6.131,11.212 6.261,11.109 6.453 C 11.021 6.618,11.020 6.641,11.007 8.620 C 10.993 10.829,11.003 10.949,11.213 11.189 C 11.398 11.400,11.626 11.487,11.997 11.488 C 12.368 11.490,12.599 11.402,12.787 11.189 C 12.998 10.949,13.007 10.829,12.993 8.620 C 12.980 6.641,12.979 6.618,12.891 6.453 C 12.842 6.362,12.746 6.247,12.678 6.199 C 12.414 6.010,11.957 5.950,11.614 6.057 M11.614 13.055 C 11.220 13.184,11.039 13.437,11.009 13.900 C 10.978 14.381,11.119 14.699,11.442 14.880 C 11.597 14.967,11.669 14.980,12.000 14.980 C 12.312 14.980,12.408 14.964,12.540 14.894 C 12.866 14.718,13.000 14.459,13.000 14.000 C 13.000 13.357,12.713 13.048,12.083 13.016 C 11.893 13.006,11.718 13.021,11.614 13.055 " stroke="none" fill-rule="evenodd" fill="black"></path></svg>