<svg width="24" height="24" viewBox="0 0 24 24" fill="none" xmlns="http://www.w3.org/2000/svg"><path d="M11.600 2.046 C 9.478 2.240,7.460 3.173,5.905 4.680 C 4.596 5.948,3.713 7.471,3.284 9.200 C 3.109 9.904,3.041 10.399,3.013 11.160 C 2.974 12.250,3.092 13.146,3.426 14.287 L 3.609 14.914 2.599 16.782 C 2.043 17.810,1.547 18.769,1.495 18.915 C 1.267 19.563,1.476 20.247,2.016 20.619 C 2.275 20.797,2.569 20.879,2.956 20.880 C 3.119 20.880,4.469 20.754,5.956 20.600 C 7.443 20.446,8.723 20.318,8.800 20.315 C 8.877 20.312,9.155 20.385,9.418 20.477 C 10.939 21.012,12.662 21.141,14.249 20.838 C 17.546 20.210,20.259 17.912,21.414 14.770 C 22.568 11.633,21.992 8.146,19.892 5.539 C 19.490 5.040,18.730 4.304,18.231 3.928 C 16.324 2.495,13.976 1.828,11.600 2.046 M13.223 4.043 C 14.965 4.217,16.563 4.972,17.795 6.205 C 19.807 8.216,20.506 11.181,19.604 13.877 C 18.948 15.840,17.455 17.492,15.580 18.331 C 15.037 18.574,14.383 18.780,13.814 18.887 C 13.425 18.960,13.196 18.976,12.540 18.977 C 11.459 18.979,10.927 18.886,9.801 18.498 C 9.334 18.337,9.219 18.312,8.941 18.312 C 8.765 18.312,7.543 18.424,6.228 18.560 C 4.912 18.697,3.828 18.801,3.818 18.792 C 3.809 18.782,4.170 18.092,4.621 17.257 C 5.102 16.367,5.476 15.627,5.525 15.467 C 5.652 15.055,5.617 14.613,5.403 13.920 C 5.177 13.188,5.086 12.730,5.031 12.031 C 4.862 9.881,5.656 7.754,7.205 6.205 C 8.795 4.614,11.000 3.822,13.223 4.043 M11.920 6.579 C 10.894 6.818,10.027 7.538,9.637 8.473 C 9.469 8.877,9.441 9.200,9.552 9.450 C 9.697 9.778,10.145 10.015,10.627 10.018 C 10.998 10.021,11.164 9.889,11.409 9.399 C 11.720 8.774,12.071 8.520,12.620 8.520 C 12.944 8.520,13.195 8.610,13.418 8.807 C 13.756 9.104,13.929 9.561,13.834 9.904 C 13.742 10.237,13.107 10.733,12.427 11.003 C 11.986 11.178,11.804 11.306,11.689 11.520 C 11.550 11.780,11.578 12.146,11.765 12.512 C 12.043 13.058,12.424 13.153,13.161 12.861 C 13.854 12.587,14.455 12.211,14.956 11.739 C 15.805 10.937,16.080 9.836,15.705 8.734 C 15.326 7.620,14.427 6.813,13.312 6.583 C 12.945 6.508,12.235 6.506,11.920 6.579 M12.254 14.055 C 12.162 14.085,12.033 14.148,11.967 14.195 C 11.621 14.441,11.541 15.224,11.819 15.645 C 12.092 16.060,13.029 16.123,13.389 15.752 C 13.577 15.557,13.646 15.355,13.646 15.000 C 13.646 14.534,13.485 14.233,13.160 14.093 C 12.963 14.009,12.459 13.987,12.254 14.055 " stroke="none" fill-rule="evenodd" fill="black"></path></svg>