<svg width="24" height="24" viewBox="0 0 24 24" fill="none" xmlns="http://www.w3.org/2000/svg"><path d="M11.600 2.046 C 9.478 2.240,7.460 3.173,5.905 4.680 C 4.596 5.948,3.713 7.471,3.284 9.200 C 3.109 9.904,3.041 10.399,3.013 11.160 C 2.974 12.250,3.092 13.146,3.426 14.287 L 3.609 14.914 2.599 16.782 C 2.043 17.810,1.547 18.769,1.495 18.915 C 1.267 19.563,1.476 20.247,2.016 20.619 C 2.275 20.797,2.569 20.879,2.956 20.880 C 3.119 20.880,4.469 20.754,5.956 20.600 C 7.443 20.446,8.723 20.318,8.800 20.315 C 8.877 20.312,9.155 20.385,9.418 20.477 C 10.939 21.012,12.662 21.141,14.249 20.838 C 17.546 20.210,20.259 17.912,21.414 14.770 C 22.568 11.633,21.992 8.146,19.892 5.539 C 19.490 5.040,18.730 4.304,18.231 3.928 C 16.324 2.495,13.976 1.828,11.600 2.046 M13.223 4.043 C 14.965 4.217,16.563 4.972,17.795 6.205 C 19.807 8.216,20.506 11.181,19.604 13.877 C 18.948 15.840,17.455 17.492,15.580 18.331 C 15.037 18.574,14.383 18.780,13.814 18.887 C 13.425 18.960,13.196 18.976,12.540 18.977 C 11.459 18.979,10.927 18.886,9.801 18.498 C 9.334 18.337,9.219 18.312,8.941 18.312 C 8.765 18.312,7.543 18.424,6.228 18.560 C 4.912 18.697,3.828 18.801,3.818 18.792 C 3.809 18.782,4.170 18.092,4.621 17.257 C 5.102 16.367,5.476 15.627,5.525 15.467 C 5.652 15.055,5.617 14.613,5.403 13.920 C 5.177 13.188,5.086 12.730,5.031 12.031 C 4.862 9.881,5.656 7.754,7.205 6.205 C 8.795 4.614,11.000 3.822,13.223 4.043 M7.545 8.579 C 7.320 8.659,7.128 8.863,7.059 9.096 C 6.928 9.536,7.019 10.019,7.275 10.251 C 7.556 10.504,7.510 10.500,10.000 10.500 C 12.490 10.500,12.444 10.504,12.725 10.251 C 13.096 9.915,13.095 9.084,12.723 8.747 C 12.636 8.669,12.497 8.586,12.413 8.563 C 12.313 8.535,11.469 8.521,9.980 8.522 C 8.145 8.523,7.670 8.534,7.545 8.579 M7.649 12.039 C 7.442 12.088,7.209 12.266,7.111 12.450 C 7.035 12.592,7.020 12.682,7.020 13.000 C 7.020 13.331,7.033 13.403,7.120 13.558 C 7.232 13.758,7.416 13.900,7.644 13.961 C 7.744 13.988,9.095 13.998,11.588 13.991 C 15.204 13.981,15.386 13.977,15.520 13.905 C 15.876 13.715,15.978 13.514,15.978 13.000 C 15.978 12.567,15.899 12.356,15.678 12.199 C 15.395 11.997,15.450 12.000,11.484 12.004 C 9.447 12.006,7.721 12.022,7.649 12.039 " stroke="none" fill-rule="evenodd" fill="black"></path></svg>