<svg width="24" height="24" viewBox="0 0 24 24" fill="none" xmlns="http://www.w3.org/2000/svg"><path d="M11.600 2.046 C 9.478 2.240,7.460 3.173,5.905 4.680 C 4.596 5.948,3.713 7.471,3.284 9.200 C 3.109 9.904,3.041 10.399,3.013 11.160 C 2.974 12.250,3.092 13.146,3.426 14.287 L 3.609 14.914 2.599 16.782 C 2.043 17.810,1.547 18.769,1.495 18.915 C 1.267 19.563,1.476 20.247,2.016 20.619 C 2.275 20.797,2.569 20.879,2.956 20.880 C 3.119 20.880,4.469 20.754,5.956 20.600 C 7.443 20.446,8.723 20.318,8.800 20.315 C 8.877 20.312,9.155 20.385,9.418 20.477 C 10.939 21.012,12.662 21.141,14.249 20.838 C 17.546 20.210,20.259 17.912,21.414 14.770 C 22.568 11.633,21.992 8.146,19.892 5.539 C 19.490 5.040,18.730 4.304,18.231 3.928 C 16.324 2.495,13.976 1.828,11.600 2.046 M13.223 4.043 C 14.965 4.217,16.563 4.972,17.795 6.205 C 19.807 8.216,20.506 11.181,19.604 13.877 C 18.948 15.840,17.455 17.492,15.580 18.331 C 15.037 18.574,14.383 18.780,13.814 18.887 C 13.425 18.960,13.196 18.976,12.540 18.977 C 11.459 18.979,10.927 18.886,9.801 18.498 C 9.334 18.337,9.219 18.312,8.941 18.312 C 8.765 18.312,7.543 18.424,6.228 18.560 C 4.912 18.697,3.828 18.801,3.818 18.792 C 3.809 18.782,4.170 18.092,4.621 17.257 C 5.102 16.367,5.476 15.627,5.525 15.467 C 5.652 15.055,5.617 14.613,5.403 13.920 C 5.177 13.188,5.086 12.730,5.031 12.031 C 4.862 9.881,5.656 7.754,7.205 6.205 C 8.795 4.614,11.000 3.822,13.223 4.043 M12.042 7.572 C 11.859 7.630,11.617 7.877,11.557 8.067 C 11.525 8.166,11.502 8.626,11.490 9.370 L 11.473 10.520 10.351 10.520 C 9.581 10.520,9.178 10.535,9.066 10.569 C 8.848 10.634,8.616 10.871,8.557 11.088 C 8.498 11.308,8.498 11.692,8.557 11.912 C 8.615 12.124,8.857 12.376,9.067 12.443 C 9.165 12.474,9.623 12.498,10.346 12.510 L 11.473 12.527 11.490 13.654 C 11.502 14.377,11.526 14.835,11.557 14.933 C 11.624 15.143,11.876 15.385,12.088 15.442 C 12.518 15.558,13.007 15.473,13.238 15.242 C 13.472 15.008,13.490 14.907,13.510 13.654 L 13.527 12.527 14.654 12.510 C 15.907 12.490,16.008 12.472,16.242 12.238 C 16.411 12.069,16.494 11.815,16.491 11.479 C 16.486 11.033,16.340 10.763,16.024 10.616 C 15.824 10.523,15.796 10.521,14.674 10.520 L 13.527 10.520 13.511 9.370 C 13.499 8.547,13.479 8.180,13.441 8.080 C 13.291 7.685,13.009 7.519,12.500 7.524 C 12.324 7.527,12.118 7.548,12.042 7.572 " stroke="none" fill-rule="evenodd" fill="black"></path></svg>