<svg width="24" height="24" viewBox="0 0 24 24" fill="none" xmlns="http://www.w3.org/2000/svg"><path d="M11.600 2.046 C 9.478 2.240,7.460 3.173,5.905 4.680 C 4.596 5.948,3.713 7.471,3.284 9.200 C 3.109 9.904,3.041 10.399,3.013 11.160 C 2.974 12.250,3.092 13.146,3.426 14.287 L 3.609 14.914 2.599 16.782 C 2.043 17.810,1.547 18.769,1.495 18.915 C 1.267 19.563,1.476 20.247,2.016 20.619 C 2.275 20.797,2.569 20.879,2.956 20.880 C 3.119 20.880,4.469 20.754,5.956 20.600 C 7.443 20.446,8.723 20.318,8.800 20.315 C 8.877 20.312,9.155 20.385,9.418 20.477 C 10.939 21.012,12.662 21.141,14.249 20.838 C 17.546 20.210,20.259 17.912,21.414 14.770 C 22.568 11.633,21.992 8.146,19.892 5.539 C 19.490 5.040,18.730 4.304,18.231 3.928 C 16.324 2.495,13.976 1.828,11.600 2.046 M13.223 4.043 C 14.965 4.217,16.563 4.972,17.795 6.205 C 19.807 8.216,20.506 11.181,19.604 13.877 C 18.948 15.840,17.455 17.492,15.580 18.331 C 15.037 18.574,14.383 18.780,13.814 18.887 C 13.425 18.960,13.196 18.976,12.540 18.977 C 11.459 18.979,10.927 18.886,9.801 18.498 C 9.334 18.337,9.219 18.312,8.941 18.312 C 8.765 18.312,7.543 18.424,6.228 18.560 C 4.912 18.697,3.828 18.801,3.818 18.792 C 3.809 18.782,4.170 18.092,4.621 17.257 C 5.102 16.367,5.476 15.627,5.525 15.467 C 5.652 15.055,5.617 14.613,5.403 13.920 C 5.177 13.188,5.086 12.730,5.031 12.031 C 4.862 9.881,5.656 7.754,7.205 6.205 C 8.795 4.614,11.000 3.822,13.223 4.043 M9.626 8.045 C 9.257 8.239,8.951 8.673,8.951 9.000 C 8.951 9.323,9.068 9.478,10.103 10.520 L 11.077 11.500 10.103 12.480 C 9.068 13.522,8.951 13.677,8.951 14.000 C 8.951 14.477,9.523 15.049,10.000 15.049 C 10.323 15.049,10.478 14.932,11.520 13.897 L 12.500 12.923 13.480 13.897 C 14.522 14.932,14.677 15.049,15.000 15.049 C 15.477 15.049,16.049 14.477,16.049 14.000 C 16.049 13.677,15.932 13.522,14.897 12.480 L 13.923 11.500 14.897 10.520 C 15.518 9.895,15.903 9.476,15.960 9.363 C 16.137 9.011,16.048 8.646,15.701 8.299 C 15.360 7.958,14.979 7.868,14.628 8.045 C 14.527 8.096,14.072 8.515,13.480 9.103 L 12.500 10.077 11.520 9.103 C 10.927 8.514,10.474 8.096,10.372 8.045 C 10.152 7.934,9.835 7.934,9.626 8.045 " stroke="none" fill-rule="evenodd" fill="black"></path></svg>