<svg width="24" height="24" viewBox="0 0 24 24" fill="none" xmlns="http://www.w3.org/2000/svg"><path d="M5.920 2.041 C 5.667 2.058,5.343 2.092,5.200 2.118 C 4.027 2.326,2.999 3.086,2.465 4.141 C 2.225 4.613,2.109 5.072,2.041 5.820 C 1.987 6.407,1.987 15.018,2.041 15.489 C 2.190 16.795,3.019 17.966,4.220 18.570 C 4.705 18.814,5.436 18.997,5.930 19.000 C 5.995 19.000,6.000 19.074,6.000 19.995 C 6.000 20.542,6.018 21.085,6.040 21.202 C 6.237 22.237,7.240 22.745,8.166 22.277 C 8.292 22.214,9.183 21.531,10.147 20.760 C 12.016 19.266,12.240 19.116,12.720 19.041 C 12.874 19.017,13.952 19.000,15.360 19.000 C 18.126 19.000,18.606 18.970,19.320 18.755 C 20.422 18.423,21.423 17.422,21.755 16.320 C 21.987 15.549,22.000 15.248,22.000 10.500 C 22.000 5.752,21.987 5.451,21.755 4.680 C 21.424 3.581,20.465 2.622,19.320 2.246 C 18.644 2.024,18.800 2.029,12.340 2.019 C 9.062 2.014,6.173 2.024,5.920 2.041 M18.492 4.091 C 18.894 4.188,19.109 4.309,19.400 4.600 C 19.696 4.895,19.814 5.109,19.912 5.528 C 19.974 5.795,19.980 6.228,19.980 10.500 C 19.980 15.608,19.986 15.472,19.752 15.952 C 19.627 16.210,19.190 16.638,18.920 16.767 C 18.516 16.961,18.432 16.966,15.360 17.000 C 12.389 17.033,12.316 17.037,11.800 17.206 C 11.177 17.410,10.986 17.539,9.273 18.905 L 8.005 19.915 7.993 18.768 C 7.981 17.670,7.976 17.613,7.891 17.453 C 7.799 17.282,7.656 17.157,7.455 17.075 C 7.388 17.047,6.974 17.015,6.460 16.997 C 5.726 16.972,5.541 16.953,5.346 16.884 C 4.772 16.681,4.366 16.284,4.128 15.690 L 4.020 15.420 4.020 10.620 C 4.020 6.234,4.026 5.795,4.088 5.528 C 4.175 5.155,4.294 4.918,4.520 4.667 C 4.883 4.262,5.282 4.091,5.980 4.039 C 6.200 4.023,9.044 4.013,12.300 4.018 C 17.643 4.024,18.247 4.032,18.492 4.091 M9.300 5.824 C 8.711 5.954,8.147 6.268,7.641 6.745 C 6.613 7.715,6.246 9.143,6.680 10.491 C 6.815 10.913,7.026 11.293,7.349 11.699 C 7.860 12.339,10.354 14.708,10.892 15.064 C 11.522 15.480,12.186 15.533,12.831 15.217 C 13.172 15.050,13.338 14.916,14.348 13.993 C 15.387 13.043,16.408 12.009,16.729 11.581 C 17.445 10.626,17.667 9.548,17.377 8.430 C 17.117 7.424,16.357 6.535,15.351 6.060 C 14.879 5.837,14.611 5.781,14.000 5.781 C 13.323 5.780,12.975 5.859,12.410 6.142 L 12.000 6.348 11.590 6.143 C 11.365 6.030,11.045 5.904,10.880 5.862 C 10.471 5.760,9.675 5.741,9.300 5.824 M10.658 7.916 C 10.811 7.992,11.048 8.163,11.224 8.326 C 11.673 8.743,11.957 8.841,12.298 8.698 C 12.379 8.664,12.592 8.500,12.771 8.333 C 13.222 7.911,13.503 7.780,13.961 7.780 C 14.264 7.780,14.330 7.794,14.564 7.909 C 15.103 8.175,15.441 8.679,15.472 9.264 C 15.508 9.939,15.330 10.240,14.265 11.304 C 13.542 12.025,12.056 13.400,11.999 13.400 C 11.984 13.400,11.668 13.127,11.296 12.793 C 10.450 12.034,8.976 10.564,8.802 10.307 C 8.579 9.976,8.508 9.714,8.530 9.300 C 8.560 8.754,8.751 8.396,9.205 8.036 C 9.599 7.724,10.172 7.677,10.658 7.916 " stroke="none" fill-rule="evenodd" fill="black"></path></svg>