<svg width="24" height="24" viewBox="0 0 24 24" fill="none" xmlns="http://www.w3.org/2000/svg"><path d="M11.358 1.061 C 9.731 1.315,8.417 2.584,8.083 4.227 C 8.002 4.620,8.000 4.750,8.000 8.500 C 8.000 12.250,8.002 12.380,8.083 12.773 C 8.357 14.118,9.249 15.195,10.512 15.704 C 11.231 15.994,12.023 16.070,12.757 15.921 C 14.384 15.589,15.589 14.384,15.921 12.757 C 15.997 12.384,16.000 12.201,16.000 8.500 C 16.000 4.799,15.997 4.616,15.921 4.243 C 15.721 3.264,15.197 2.415,14.438 1.843 C 13.866 1.412,13.276 1.160,12.605 1.058 C 12.144 0.989,11.816 0.990,11.358 1.061 M12.523 3.073 C 13.022 3.203,13.516 3.599,13.772 4.071 C 13.999 4.490,13.999 4.489,13.999 8.500 C 13.999 12.510,13.999 12.507,13.772 12.931 C 13.625 13.208,13.191 13.643,12.930 13.775 C 12.346 14.071,11.658 14.073,11.083 13.781 C 10.816 13.646,10.449 13.297,10.281 13.017 C 9.996 12.544,10.005 12.689,10.002 8.528 C 10.000 4.378,9.995 4.464,10.265 4.014 C 10.745 3.212,11.635 2.841,12.523 3.073 M4.614 9.057 C 4.377 9.131,4.212 9.261,4.109 9.453 C 4.023 9.615,4.020 9.663,4.007 10.980 C 3.994 12.414,4.025 12.932,4.166 13.620 C 4.399 14.756,4.948 15.949,5.674 16.900 C 5.933 17.239,6.606 17.925,6.960 18.211 C 7.687 18.799,8.620 19.307,9.500 19.595 C 9.979 19.751,10.703 19.920,10.898 19.920 L 11.000 19.920 11.000 20.460 L 11.000 21.000 9.406 21.000 C 7.710 21.000,7.584 21.012,7.322 21.199 C 7.100 21.357,7.020 21.568,7.020 22.000 C 7.020 22.331,7.033 22.403,7.120 22.558 C 7.230 22.755,7.414 22.898,7.635 22.959 C 7.833 23.014,16.167 23.014,16.365 22.959 C 16.586 22.898,16.770 22.755,16.880 22.558 C 16.967 22.402,16.980 22.332,16.979 22.000 C 16.978 21.567,16.898 21.355,16.678 21.199 C 16.416 21.012,16.290 21.000,14.594 21.000 L 13.000 21.000 13.000 20.460 L 13.000 19.920 13.102 19.920 C 13.297 19.920,14.021 19.751,14.500 19.595 C 15.380 19.307,16.313 18.799,17.040 18.211 C 17.394 17.925,18.067 17.239,18.326 16.900 C 19.052 15.949,19.601 14.756,19.834 13.620 C 19.976 12.929,20.007 12.414,19.993 10.980 C 19.980 9.655,19.978 9.616,19.889 9.450 C 19.724 9.140,19.329 8.970,18.874 9.011 C 18.439 9.051,18.141 9.274,18.041 9.635 C 18.018 9.717,18.000 10.303,17.999 10.980 C 17.997 12.621,17.938 13.158,17.671 13.940 C 16.988 15.944,15.291 17.428,13.160 17.885 C 12.810 17.960,12.617 17.975,12.000 17.975 C 11.179 17.975,10.754 17.909,10.060 17.672 C 8.365 17.094,6.957 15.707,6.361 14.029 C 6.069 13.207,6.036 12.937,6.005 11.160 C 5.979 9.676,5.975 9.614,5.890 9.453 C 5.841 9.362,5.746 9.247,5.678 9.199 C 5.414 9.010,4.957 8.950,4.614 9.057 " stroke="none" fill-rule="evenodd" fill="black"></path></svg>