<svg width="24" height="24" viewBox="0 0 24 24" fill="none" xmlns="http://www.w3.org/2000/svg"><path d="M1.626 1.045 C 1.420 1.154,1.146 1.433,1.038 1.644 C 0.924 1.867,0.924 2.132,1.039 2.363 C 1.102 2.487,1.998 3.412,4.063 5.480 L 6.997 8.420 7.011 11.060 C 7.026 13.934,7.022 13.878,7.268 14.600 C 7.687 15.828,8.569 16.849,9.713 17.433 C 10.412 17.790,11.031 17.955,11.800 17.989 C 12.991 18.043,14.115 17.679,15.092 16.924 L 15.324 16.744 16.031 17.451 L 16.737 18.158 16.563 18.309 C 15.976 18.818,15.101 19.323,14.330 19.598 C 12.571 20.225,10.550 20.101,8.886 19.263 C 6.824 18.225,5.400 16.256,5.080 14.000 C 5.053 13.813,5.019 13.201,5.003 12.640 C 4.977 11.696,4.969 11.607,4.887 11.450 C 4.726 11.142,4.330 10.970,3.874 11.011 C 3.439 11.051,3.141 11.274,3.041 11.635 C 2.979 11.857,2.991 13.427,3.059 14.008 C 3.373 16.691,4.817 19.034,7.080 20.531 C 7.311 20.684,7.752 20.933,8.060 21.084 C 10.553 22.305,13.431 22.304,15.940 21.082 C 16.709 20.707,17.671 20.057,18.038 19.663 L 18.136 19.558 19.798 21.215 C 20.926 22.339,21.517 22.900,21.637 22.960 C 21.989 23.137,22.354 23.048,22.701 22.701 C 23.047 22.355,23.136 21.990,22.961 21.637 C 22.839 21.392,2.616 1.165,2.372 1.044 C 2.152 0.934,1.834 0.935,1.626 1.045 M11.340 2.045 C 10.484 2.153,9.690 2.485,8.968 3.037 C 8.650 3.279,8.464 3.520,8.422 3.742 C 8.356 4.095,8.694 4.660,9.089 4.857 C 9.452 5.038,9.633 4.996,10.215 4.594 C 10.676 4.277,11.086 4.107,11.556 4.038 C 13.032 3.823,14.434 4.710,14.877 6.139 C 14.976 6.460,14.976 6.462,14.998 8.620 L 15.020 10.780 15.120 10.958 C 15.287 11.256,15.572 11.400,16.000 11.400 C 16.428 11.400,16.713 11.256,16.880 10.958 L 16.980 10.780 16.980 8.580 C 16.980 6.604,16.973 6.345,16.907 6.040 C 16.539 4.320,15.370 2.941,13.753 2.320 C 13.056 2.052,12.126 1.946,11.340 2.045 M13.880 15.325 C 13.880 15.368,13.392 15.668,13.180 15.754 C 12.725 15.941,12.517 15.980,11.980 15.979 C 11.550 15.979,11.408 15.963,11.160 15.886 C 10.183 15.583,9.422 14.826,9.123 13.861 C 9.026 13.547,9.024 13.508,9.010 11.980 L 8.996 10.420 11.438 12.860 C 12.781 14.202,13.880 15.311,13.880 15.325 " stroke="none" fill-rule="evenodd" fill="black"></path></svg>