<svg width="24" height="24" viewBox="0 0 24 24" fill="none" xmlns="http://www.w3.org/2000/svg"><path d="M1.626 1.045 C 1.420 1.154,1.146 1.433,1.038 1.644 C 0.924 1.867,0.924 2.132,1.039 2.363 C 1.102 2.488,2.130 3.543,4.564 5.981 L 8.000 9.421 8.000 10.894 C 8.000 12.225,8.008 12.407,8.083 12.773 C 8.357 14.118,9.249 15.195,10.512 15.704 C 11.231 15.994,12.023 16.070,12.757 15.921 C 13.132 15.844,13.740 15.627,13.932 15.502 C 14.020 15.444,14.042 15.461,14.741 16.163 L 15.460 16.885 15.340 16.982 C 15.149 17.136,14.334 17.539,13.940 17.673 C 13.244 17.909,12.821 17.975,12.000 17.975 C 11.179 17.975,10.754 17.909,10.060 17.672 C 8.365 17.094,6.957 15.707,6.361 14.029 C 6.069 13.207,6.036 12.937,6.005 11.160 C 5.979 9.667,5.975 9.615,5.888 9.450 C 5.725 9.141,5.330 8.970,4.874 9.011 C 4.439 9.051,4.141 9.274,4.041 9.635 C 3.987 9.829,3.988 12.335,4.042 12.832 C 4.210 14.361,4.828 15.851,5.789 17.040 C 6.075 17.394,6.761 18.067,7.100 18.326 C 7.804 18.863,8.680 19.327,9.500 19.595 C 9.979 19.751,10.703 19.920,10.898 19.920 L 11.000 19.920 11.000 20.460 L 11.000 21.000 9.406 21.000 C 7.710 21.000,7.584 21.012,7.322 21.199 C 7.100 21.357,7.020 21.568,7.020 22.000 C 7.020 22.331,7.033 22.403,7.120 22.558 C 7.230 22.755,7.414 22.898,7.635 22.959 C 7.833 23.014,16.167 23.014,16.365 22.959 C 16.586 22.898,16.770 22.755,16.880 22.558 C 16.967 22.402,16.980 22.332,16.979 22.000 C 16.978 21.567,16.898 21.355,16.678 21.199 C 16.416 21.012,16.290 21.000,14.594 21.000 L 13.000 21.000 13.000 20.465 L 13.000 19.930 13.235 19.904 C 14.189 19.796,15.588 19.240,16.502 18.605 L 16.900 18.329 19.180 20.601 C 20.759 22.174,21.515 22.899,21.637 22.960 C 21.990 23.137,22.354 23.048,22.701 22.701 C 23.048 22.354,23.137 21.990,22.960 21.637 C 22.899 21.515,22.174 20.759,20.601 19.180 L 18.329 16.900 18.608 16.500 C 19.153 15.718,19.636 14.584,19.834 13.620 C 19.976 12.929,20.007 12.414,19.993 10.980 C 19.980 9.655,19.978 9.616,19.889 9.450 C 19.724 9.140,19.329 8.970,18.874 9.011 C 18.439 9.051,18.141 9.274,18.041 9.635 C 18.018 9.717,18.000 10.303,17.999 10.980 C 17.997 12.621,17.938 13.158,17.671 13.940 C 17.503 14.435,17.034 15.349,16.910 15.426 C 16.889 15.439,13.646 12.228,9.705 8.289 C 4.753 3.339,2.488 1.102,2.372 1.044 C 2.152 0.934,1.834 0.935,1.626 1.045 M11.423 1.044 C 10.652 1.157,9.864 1.535,9.270 2.078 C 8.977 2.345,8.641 2.790,8.458 3.152 C 8.125 3.811,8.265 4.266,8.893 4.563 C 9.192 4.704,9.388 4.737,9.596 4.681 C 9.827 4.619,10.007 4.446,10.239 4.062 C 10.630 3.415,11.159 3.073,11.864 3.013 C 12.585 2.952,13.266 3.298,13.686 3.937 C 13.985 4.394,13.974 4.278,13.998 7.180 C 14.019 9.620,14.025 9.789,14.095 9.920 C 14.285 10.276,14.486 10.378,15.000 10.378 C 15.514 10.378,15.715 10.276,15.905 9.920 C 15.976 9.788,15.981 9.632,15.991 7.213 C 16.002 4.770,15.999 4.627,15.922 4.249 C 15.830 3.800,15.639 3.297,15.421 2.932 C 14.961 2.161,14.142 1.511,13.245 1.204 C 12.735 1.029,11.979 0.963,11.423 1.044 M12.468 13.945 C 12.416 13.997,11.820 14.010,11.596 13.963 C 10.886 13.816,10.255 13.220,10.073 12.523 C 10.031 12.360,10.004 12.101,10.002 11.840 L 10.000 11.420 11.248 12.668 C 11.935 13.355,12.484 13.929,12.468 13.945 " stroke="none" fill-rule="evenodd" fill="black"></path></svg>