<svg width="24" height="24" viewBox="0 0 24 24" fill="none" xmlns="http://www.w3.org/2000/svg"><path d="M7.649 2.039 C 7.441 2.089,7.209 2.266,7.112 2.450 C 7.028 2.612,7.022 2.684,6.995 3.900 C 6.955 5.664,6.898 5.902,6.400 6.401 C 6.111 6.690,5.828 6.847,5.460 6.920 C 5.324 6.948,4.656 6.980,3.917 6.994 L 2.614 7.020 2.417 7.142 C 2.111 7.331,2.020 7.528,2.020 8.000 C 2.020 8.331,2.033 8.403,2.120 8.558 C 2.230 8.755,2.414 8.898,2.635 8.959 C 2.973 9.053,5.231 8.995,5.840 8.876 C 7.021 8.647,8.001 7.913,8.536 6.858 C 8.901 6.138,9.016 5.315,8.993 3.599 C 8.981 2.677,8.975 2.610,8.891 2.453 C 8.842 2.362,8.746 2.247,8.678 2.199 C 8.432 2.024,7.999 1.956,7.649 2.039 M15.649 2.039 C 15.442 2.088,15.209 2.266,15.111 2.450 C 15.025 2.611,15.019 2.670,15.007 3.620 C 14.985 5.327,15.099 6.138,15.464 6.858 C 15.823 7.566,16.434 8.177,17.141 8.535 C 17.862 8.901,18.676 9.016,20.380 8.993 C 21.312 8.981,21.391 8.974,21.540 8.894 C 21.875 8.715,21.978 8.504,21.978 8.000 C 21.978 7.572,21.899 7.356,21.686 7.204 C 21.449 7.035,21.375 7.026,20.060 6.997 C 19.349 6.981,18.673 6.947,18.540 6.921 C 18.162 6.845,17.888 6.694,17.600 6.403 C 17.101 5.899,17.045 5.663,17.005 3.900 C 16.977 2.695,16.971 2.610,16.889 2.453 C 16.841 2.362,16.746 2.247,16.678 2.199 C 16.432 2.024,15.999 1.956,15.649 2.039 M2.649 15.036 C 2.262 15.137,2.039 15.438,2.009 15.900 C 1.978 16.381,2.119 16.700,2.442 16.880 C 2.618 16.978,2.635 16.979,3.900 17.006 C 5.661 17.044,5.901 17.101,6.400 17.600 C 6.899 18.099,6.956 18.339,6.994 20.100 C 7.021 21.365,7.022 21.382,7.120 21.558 C 7.302 21.884,7.623 22.024,8.105 21.988 C 8.526 21.957,8.738 21.833,8.905 21.520 C 9.046 21.256,9.025 18.875,8.874 18.142 C 8.629 16.943,7.902 15.992,6.820 15.451 C 6.157 15.120,5.652 15.042,4.020 15.019 C 3.338 15.010,2.721 15.017,2.649 15.036 M18.920 15.042 C 18.155 15.091,17.674 15.204,17.180 15.451 C 16.089 15.996,15.357 16.961,15.124 18.160 C 15.005 18.769,14.947 21.027,15.041 21.365 C 15.102 21.586,15.245 21.770,15.442 21.880 C 15.598 21.967,15.668 21.980,16.000 21.979 C 16.506 21.977,16.719 21.872,16.892 21.540 C 16.970 21.391,16.978 21.288,17.005 20.100 C 17.045 18.337,17.102 18.097,17.600 17.600 C 18.097 17.102,18.337 17.045,20.100 17.005 C 21.288 16.978,21.391 16.970,21.540 16.892 C 21.873 16.718,21.978 16.505,21.978 16.000 C 21.978 15.686,21.963 15.591,21.890 15.453 C 21.786 15.256,21.623 15.131,21.371 15.055 C 21.169 14.994,19.769 14.987,18.920 15.042 " stroke="none" fill-rule="evenodd" fill="black"></path></svg>