<svg width="24" height="24" viewBox="0 0 24 24" fill="none" xmlns="http://www.w3.org/2000/svg"><path d="M20.620 2.046 C 20.522 2.097,19.404 3.182,17.732 4.852 L 15.004 7.575 14.992 5.598 C 14.980 3.640,14.979 3.618,14.891 3.453 C 14.785 3.256,14.622 3.131,14.371 3.055 C 13.862 2.902,13.311 3.076,13.109 3.453 L 13.020 3.620 12.993 6.780 C 12.979 8.518,12.965 9.998,12.963 10.069 C 12.959 10.208,13.121 10.610,13.232 10.735 C 13.331 10.848,13.777 11.040,13.929 11.037 C 14.001 11.035,15.482 11.021,17.220 11.007 C 20.349 10.980,20.382 10.979,20.540 10.894 C 20.875 10.715,20.978 10.504,20.978 10.000 C 20.978 9.567,20.899 9.356,20.678 9.199 C 20.411 9.008,20.311 9.000,18.304 9.000 L 16.421 9.000 19.147 6.270 C 21.058 4.356,21.898 3.487,21.961 3.363 C 22.137 3.010,22.048 2.646,21.701 2.299 C 21.361 1.959,20.967 1.867,20.620 2.046 M6.719 12.999 L 3.658 13.020 3.459 13.122 C 3.119 13.297,2.978 13.606,3.009 14.104 C 3.038 14.563,3.250 14.852,3.635 14.959 C 3.723 14.984,4.530 15.000,5.679 15.000 L 7.579 15.000 4.853 17.730 C 2.942 19.644,2.102 20.513,2.039 20.637 C 1.863 20.990,1.952 21.354,2.299 21.701 C 2.646 22.048,3.010 22.137,3.363 21.961 C 3.487 21.898,4.356 21.058,6.270 19.147 L 9.000 16.421 9.000 18.321 C 9.000 19.470,9.016 20.277,9.041 20.365 C 9.148 20.750,9.437 20.962,9.896 20.991 C 10.381 21.022,10.699 20.882,10.880 20.558 L 10.980 20.380 11.007 17.220 C 11.022 15.482,11.035 14.001,11.037 13.929 C 11.041 13.744,10.835 13.310,10.696 13.212 C 10.467 13.052,10.198 12.960,9.985 12.969 C 9.872 12.974,8.402 12.988,6.719 12.999 " stroke="none" fill-rule="evenodd" fill="black"></path></svg>