<svg width="24" height="24" viewBox="0 0 24 24" fill="none" xmlns="http://www.w3.org/2000/svg"><path d="M4.614 11.057 C 4.377 11.131,4.212 11.261,4.109 11.453 C 4.035 11.592,4.020 11.684,4.020 12.000 C 4.020 12.331,4.033 12.403,4.120 12.558 C 4.230 12.755,4.414 12.898,4.635 12.959 C 4.835 13.015,19.165 13.015,19.365 12.959 C 19.586 12.898,19.770 12.755,19.880 12.558 C 19.967 12.402,19.980 12.332,19.979 12.000 C 19.978 11.567,19.898 11.355,19.678 11.199 C 19.387 10.991,19.720 11.000,11.984 11.003 C 6.188 11.005,4.747 11.016,4.614 11.057 " stroke="none" fill-rule="evenodd" fill="black"></path></svg>