<svg width="24" height="24" viewBox="0 0 24 24" fill="none" xmlns="http://www.w3.org/2000/svg"><path d="M4.075 1.480 C 3.782 1.635,3.077 2.499,2.590 3.300 C 1.164 5.644,0.670 8.503,1.224 11.197 C 1.281 11.474,1.366 11.817,1.413 11.960 C 1.616 12.580,2.154 12.779,2.828 12.481 C 3.070 12.374,3.191 12.262,3.284 12.060 C 3.384 11.845,3.379 11.638,3.262 11.146 C 3.075 10.354,3.022 9.877,3.023 9.000 C 3.024 8.074,3.082 7.596,3.297 6.746 C 3.614 5.492,4.188 4.356,5.038 3.300 C 5.408 2.841,5.494 2.674,5.496 2.418 C 5.498 2.074,5.200 1.683,4.780 1.480 C 4.570 1.378,4.268 1.378,4.075 1.480 M19.215 1.481 C 18.797 1.689,18.505 2.072,18.502 2.417 C 18.501 2.678,18.574 2.821,18.946 3.284 C 20.781 5.567,21.401 8.342,20.717 11.220 C 20.586 11.768,20.634 12.072,20.887 12.308 C 21.115 12.521,21.653 12.664,21.964 12.595 C 22.349 12.508,22.529 12.249,22.695 11.539 C 22.931 10.532,23.020 9.664,22.988 8.680 C 22.912 6.395,22.165 4.234,20.837 2.458 C 20.452 1.945,20.104 1.574,19.914 1.477 C 19.716 1.376,19.425 1.378,19.215 1.481 M6.929 4.304 C 6.737 4.387,6.470 4.682,6.153 5.160 C 5.121 6.712,4.760 8.658,5.165 10.496 C 5.311 11.163,5.502 11.447,5.868 11.541 C 6.297 11.652,6.923 11.424,7.109 11.089 C 7.246 10.841,7.253 10.665,7.144 10.160 C 6.817 8.642,7.077 7.362,7.983 6.034 C 8.144 5.797,8.296 5.529,8.320 5.438 C 8.427 5.043,8.154 4.600,7.643 4.341 C 7.415 4.226,7.140 4.212,6.929 4.304 M16.320 4.363 C 15.819 4.639,15.575 5.049,15.680 5.438 C 15.704 5.529,15.856 5.797,16.017 6.034 C 16.923 7.362,17.183 8.642,16.856 10.160 C 16.747 10.665,16.754 10.841,16.891 11.089 C 17.039 11.355,17.479 11.566,17.889 11.566 C 18.388 11.566,18.634 11.316,18.803 10.638 C 19.123 9.350,19.042 7.890,18.578 6.600 C 18.331 5.914,17.771 4.952,17.386 4.551 C 17.057 4.210,16.709 4.149,16.320 4.363 M11.649 8.037 C 11.439 8.091,11.208 8.267,11.111 8.450 L 11.020 8.620 11.009 11.310 L 10.998 14.000 7.629 14.000 C 4.252 14.000,3.623 14.020,3.141 14.145 C 2.340 14.352,1.569 15.028,1.260 15.795 C 1.033 16.356,1.020 16.506,1.020 18.520 C 1.020 20.321,1.023 20.391,1.111 20.735 C 1.281 21.406,1.637 21.962,2.142 22.350 C 2.495 22.621,2.816 22.775,3.265 22.889 L 3.620 22.980 11.980 22.980 C 19.988 22.980,20.353 22.977,20.660 22.906 C 21.269 22.764,21.711 22.526,22.118 22.118 C 22.526 21.711,22.764 21.269,22.906 20.660 C 22.972 20.373,22.980 20.152,22.980 18.500 C 22.980 16.848,22.972 16.627,22.906 16.340 C 22.688 15.404,22.167 14.737,21.329 14.321 C 20.723 14.021,20.406 14.000,16.371 14.000 L 13.003 14.000 12.991 11.310 L 12.980 8.620 12.880 8.442 C 12.726 8.167,12.484 8.037,12.094 8.018 C 11.921 8.010,11.721 8.018,11.649 8.037 M20.374 16.074 C 20.586 16.146,20.863 16.432,20.928 16.646 C 20.967 16.778,20.980 17.228,20.980 18.500 C 20.980 19.772,20.967 20.222,20.928 20.354 C 20.863 20.567,20.591 20.849,20.376 20.925 C 20.143 21.007,3.857 21.007,3.624 20.925 C 3.421 20.853,3.139 20.569,3.077 20.374 C 3.011 20.165,2.978 17.476,3.035 16.964 C 3.068 16.675,3.101 16.552,3.179 16.434 C 3.333 16.201,3.547 16.080,3.866 16.042 C 4.017 16.024,7.758 16.012,12.180 16.016 C 18.671 16.021,20.250 16.032,20.374 16.074 M5.042 17.572 C 4.846 17.635,4.613 17.882,4.557 18.088 C 4.532 18.183,4.511 18.368,4.511 18.500 C 4.511 19.010,4.711 19.329,5.103 19.443 C 5.393 19.527,9.607 19.527,9.897 19.443 C 10.280 19.332,10.491 18.997,10.491 18.500 C 10.491 18.023,10.282 17.673,9.934 17.569 C 9.715 17.503,5.249 17.506,5.042 17.572 " stroke="none" fill-rule="evenodd" fill="black"></path></svg>