<svg width="24" height="24" viewBox="0 0 24 24" fill="none" xmlns="http://www.w3.org/2000/svg"><path d="M4.557 0.979 C 4.186 1.173,3.229 2.284,2.661 3.180 C 2.377 3.629,1.893 4.614,1.701 5.133 C 0.716 7.805,0.771 10.637,1.858 13.260 C 2.058 13.742,2.388 14.382,2.658 14.813 C 2.780 15.006,2.880 15.178,2.880 15.194 C 2.880 15.210,2.771 15.275,2.637 15.338 C 1.899 15.689,1.345 16.371,1.111 17.220 C 1.027 17.523,1.023 17.617,1.023 19.000 C 1.023 20.386,1.027 20.476,1.112 20.780 C 1.411 21.859,2.162 22.602,3.244 22.890 L 3.580 22.980 12.000 22.980 L 20.420 22.980 20.756 22.890 C 21.837 22.602,22.585 21.860,22.890 20.772 C 22.972 20.477,22.977 20.380,22.977 19.000 C 22.977 17.620,22.972 17.523,22.890 17.228 C 22.649 16.370,22.122 15.711,21.390 15.353 C 21.242 15.280,21.120 15.208,21.120 15.191 C 21.120 15.174,21.201 15.034,21.300 14.879 C 21.400 14.725,21.588 14.396,21.718 14.149 C 23.194 11.356,23.402 8.131,22.299 5.133 C 22.112 4.624,21.626 3.638,21.338 3.180 C 20.767 2.274,19.812 1.168,19.434 0.977 C 19.074 0.794,18.717 0.878,18.369 1.228 C 18.127 1.471,18.025 1.683,18.025 1.940 C 18.025 2.205,18.099 2.334,18.515 2.795 C 19.263 3.622,19.665 4.204,20.080 5.060 C 20.720 6.379,20.977 7.507,20.977 9.000 C 20.977 10.135,20.838 10.987,20.492 11.980 C 20.182 12.869,19.525 14.033,18.940 14.730 L 18.714 15.000 15.858 15.000 L 13.002 15.000 12.991 11.810 L 12.980 8.620 12.889 8.450 C 12.724 8.140,12.329 7.970,11.874 8.011 C 11.439 8.051,11.141 8.274,11.041 8.635 C 11.015 8.726,11.000 9.930,11.000 11.890 L 11.000 15.000 8.143 15.000 L 5.286 15.000 5.060 14.730 C 4.475 14.033,3.818 12.869,3.508 11.980 C 3.162 10.987,3.023 10.135,3.023 9.000 C 3.023 7.507,3.280 6.380,3.919 5.060 C 4.337 4.199,4.732 3.629,5.504 2.771 C 5.943 2.284,6.038 2.075,5.961 1.769 C 5.907 1.554,5.701 1.256,5.500 1.103 C 5.181 0.859,4.866 0.818,4.557 0.979 M7.400 3.788 C 7.225 3.872,6.698 4.407,6.413 4.791 C 4.678 7.134,4.535 10.201,6.046 12.669 C 6.434 13.304,7.123 14.082,7.416 14.217 C 7.755 14.374,8.126 14.276,8.461 13.941 C 8.692 13.710,8.800 13.490,8.799 13.252 C 8.798 12.993,8.696 12.790,8.413 12.480 C 7.897 11.917,7.528 11.322,7.304 10.697 C 6.903 9.573,6.915 8.279,7.337 7.208 C 7.577 6.598,7.918 6.062,8.413 5.520 C 8.544 5.377,8.684 5.188,8.725 5.100 C 8.824 4.885,8.821 4.597,8.717 4.395 C 8.611 4.187,8.333 3.909,8.125 3.803 C 7.926 3.701,7.597 3.695,7.400 3.788 M15.866 3.805 C 15.663 3.912,15.386 4.192,15.283 4.395 C 15.179 4.597,15.176 4.885,15.275 5.100 C 15.316 5.188,15.456 5.377,15.587 5.520 C 15.951 5.919,16.174 6.229,16.394 6.642 C 16.737 7.286,16.889 7.791,16.964 8.530 C 17.110 9.974,16.637 11.329,15.587 12.480 C 15.304 12.790,15.202 12.993,15.201 13.252 C 15.200 13.490,15.308 13.710,15.539 13.941 C 15.874 14.276,16.245 14.374,16.584 14.217 C 16.877 14.082,17.566 13.304,17.954 12.669 C 19.474 10.187,19.316 7.067,17.555 4.754 C 17.239 4.339,16.773 3.870,16.594 3.787 C 16.394 3.695,16.059 3.703,15.866 3.805 M4.940 17.032 C 5.032 17.023,11.533 17.019,19.150 17.024 C 20.080 17.024,20.293 17.041,20.465 17.127 C 20.674 17.231,20.762 17.322,20.886 17.560 C 20.979 17.738,20.980 17.756,20.980 19.000 L 20.980 20.260 20.881 20.454 C 20.772 20.667,20.615 20.818,20.400 20.916 C 20.273 20.974,19.483 20.980,12.000 20.980 C 4.517 20.980,3.727 20.974,3.600 20.916 C 3.383 20.817,3.215 20.656,3.117 20.454 C 3.034 20.282,3.026 20.201,3.010 19.305 C 2.988 18.112,3.028 17.662,3.175 17.440 C 3.404 17.094,3.748 16.985,4.480 17.025 C 4.667 17.035,4.874 17.039,4.940 17.032 " stroke="none" fill-rule="evenodd" fill="black"></path></svg>