<svg width="24" height="24" viewBox="0 0 24 24" fill="none" xmlns="http://www.w3.org/2000/svg"><path d="M4.920 2.041 C 4.152 2.092,3.672 2.205,3.180 2.451 C 2.089 2.996,1.357 3.961,1.124 5.160 C 1.018 5.702,1.000 6.421,1.000 10.000 C 1.000 14.212,1.016 14.561,1.245 15.320 C 1.577 16.422,2.578 17.423,3.680 17.755 C 4.413 17.976,4.847 18.000,8.130 18.000 L 11.000 18.000 11.000 19.000 L 11.000 20.000 9.406 20.000 C 7.710 20.000,7.584 20.012,7.322 20.199 C 7.100 20.357,7.020 20.568,7.020 21.000 C 7.020 21.331,7.033 21.403,7.120 21.558 C 7.230 21.755,7.414 21.898,7.635 21.959 C 7.833 22.014,16.167 22.014,16.365 21.959 C 16.586 21.898,16.770 21.755,16.880 21.558 C 16.967 21.402,16.980 21.332,16.979 21.000 C 16.978 20.567,16.898 20.355,16.678 20.199 C 16.416 20.012,16.290 20.000,14.594 20.000 L 13.000 20.000 13.000 19.000 L 13.000 18.000 15.870 18.000 C 19.153 18.000,19.587 17.976,20.320 17.755 C 21.422 17.423,22.423 16.422,22.755 15.320 C 22.984 14.561,23.000 14.212,23.000 10.000 C 23.000 5.788,22.984 5.439,22.755 4.680 C 22.424 3.581,21.465 2.622,20.320 2.246 C 19.635 2.021,19.900 2.028,12.340 2.019 C 8.512 2.014,5.173 2.024,4.920 2.041 M19.492 4.091 C 19.894 4.188,20.110 4.309,20.400 4.600 C 20.696 4.895,20.814 5.109,20.912 5.528 C 20.974 5.794,20.980 6.199,20.980 10.000 C 20.980 14.557,20.984 14.476,20.752 14.952 C 20.626 15.211,20.190 15.638,19.918 15.768 C 19.463 15.987,19.707 15.980,12.000 15.980 C 4.304 15.980,4.541 15.986,4.082 15.771 C 3.812 15.643,3.377 15.217,3.248 14.952 C 3.016 14.476,3.020 14.557,3.020 10.000 C 3.020 6.199,3.026 5.794,3.088 5.528 C 3.175 5.155,3.294 4.918,3.520 4.667 C 3.883 4.262,4.282 4.090,4.980 4.039 C 5.200 4.023,8.494 4.013,12.300 4.017 C 18.585 4.024,19.245 4.031,19.492 4.091 " stroke="none" fill-rule="evenodd" fill="black"></path></svg>