<svg width="24" height="24" viewBox="0 0 24 24" fill="none" xmlns="http://www.w3.org/2000/svg"><path d="M13.749 3.045 C 12.967 3.120,12.402 3.371,11.890 3.870 C 11.491 4.260,11.236 4.731,11.094 5.340 C 11.024 5.645,11.020 5.962,11.020 12.020 L 11.020 18.380 11.111 18.735 C 11.225 19.184,11.379 19.505,11.650 19.858 C 12.038 20.363,12.594 20.719,13.265 20.889 C 13.620 20.980,13.621 20.980,16.980 20.980 C 20.114 20.980,20.362 20.975,20.660 20.906 C 21.459 20.720,22.041 20.327,22.486 19.671 C 22.685 19.378,22.807 19.084,22.906 18.660 C 22.976 18.355,22.980 18.039,22.980 12.000 C 22.980 5.961,22.976 5.645,22.906 5.340 C 22.688 4.404,22.167 3.737,21.329 3.321 C 21.019 3.168,20.706 3.091,20.180 3.042 C 19.655 2.992,14.269 2.995,13.749 3.045 M3.749 5.045 C 2.967 5.120,2.402 5.371,1.890 5.870 C 1.491 6.260,1.236 6.731,1.094 7.340 C 1.025 7.638,1.020 7.886,1.020 11.020 C 1.020 14.379,1.020 14.380,1.111 14.735 C 1.225 15.184,1.379 15.505,1.650 15.858 C 2.032 16.356,2.589 16.715,3.244 16.886 C 3.567 16.970,3.669 16.974,5.885 16.990 C 7.445 17.001,8.242 16.992,8.349 16.963 C 8.583 16.900,8.767 16.760,8.880 16.558 C 8.967 16.402,8.980 16.332,8.979 16.000 C 8.977 15.469,8.851 15.245,8.455 15.071 C 8.369 15.033,7.768 15.016,6.040 15.000 L 3.740 14.980 3.550 14.886 C 3.325 14.776,3.137 14.562,3.069 14.340 C 2.995 14.100,2.999 7.890,3.072 7.646 C 3.138 7.430,3.416 7.144,3.626 7.077 C 3.737 7.041,4.424 7.021,6.080 7.004 C 8.332 6.980,8.383 6.978,8.540 6.894 C 8.875 6.715,8.978 6.504,8.978 6.000 C 8.978 5.567,8.899 5.356,8.678 5.199 C 8.407 5.006,8.325 5.000,6.144 5.005 C 5.020 5.008,3.942 5.026,3.749 5.045 M20.374 5.075 C 20.585 5.145,20.862 5.431,20.928 5.646 C 21.005 5.902,21.005 18.098,20.928 18.354 C 20.863 18.567,20.591 18.849,20.376 18.925 C 20.145 19.006,13.855 19.006,13.624 18.925 C 13.422 18.854,13.140 18.571,13.074 18.374 C 13.008 18.177,12.973 6.518,13.037 5.945 C 13.102 5.366,13.342 5.104,13.866 5.041 C 14.017 5.023,15.508 5.012,17.180 5.016 C 19.507 5.023,20.256 5.037,20.374 5.075 M16.614 8.055 C 16.220 8.184,16.039 8.437,16.009 8.900 C 15.978 9.381,16.119 9.699,16.442 9.880 C 16.597 9.967,16.669 9.980,17.000 9.980 C 17.312 9.980,17.408 9.964,17.540 9.894 C 17.866 9.718,18.000 9.459,18.000 9.000 C 18.000 8.357,17.713 8.048,17.083 8.016 C 16.893 8.006,16.718 8.021,16.614 8.055 M16.477 13.073 C 15.806 13.249,15.238 13.823,15.060 14.508 C 14.941 14.962,15.003 15.492,15.225 15.930 C 15.361 16.199,15.801 16.639,16.070 16.775 C 16.659 17.073,17.341 17.073,17.930 16.775 C 18.196 16.640,18.638 16.200,18.771 15.937 C 19.161 15.168,19.043 14.275,18.471 13.659 C 18.074 13.232,17.563 13.005,17.000 13.005 C 16.857 13.005,16.622 13.036,16.477 13.073 M5.180 19.039 C 4.715 19.159,4.514 19.447,4.512 19.997 C 4.510 20.348,4.582 20.556,4.771 20.751 C 4.997 20.984,5.123 21.000,6.757 21.000 C 7.614 21.000,8.280 20.983,8.365 20.959 C 8.586 20.898,8.770 20.755,8.880 20.558 C 8.967 20.402,8.980 20.332,8.979 20.000 C 8.978 19.567,8.898 19.355,8.678 19.199 C 8.418 19.013,8.282 19.000,6.744 19.004 C 5.950 19.006,5.246 19.022,5.180 19.039 " stroke="none" fill-rule="evenodd" fill="black"></path></svg>