<svg width="24" height="24" viewBox="0 0 24 24" fill="none" xmlns="http://www.w3.org/2000/svg"><path d="M4.920 2.041 C 4.152 2.092,3.672 2.205,3.180 2.451 C 2.089 2.996,1.357 3.961,1.124 5.160 C 1.017 5.711,1.000 6.430,1.000 10.500 C 1.000 15.248,1.013 15.549,1.245 16.320 C 1.577 17.422,2.578 18.423,3.680 18.755 C 4.485 18.998,4.567 19.000,12.000 19.000 C 19.433 19.000,19.515 18.998,20.320 18.755 C 21.422 18.423,22.423 17.422,22.755 16.320 C 22.987 15.549,23.000 15.248,23.000 10.500 C 23.000 5.752,22.987 5.451,22.755 4.680 C 22.424 3.581,21.465 2.622,20.320 2.246 C 19.635 2.021,19.900 2.028,12.340 2.019 C 8.512 2.014,5.173 2.024,4.920 2.041 M19.492 4.091 C 19.642 4.127,19.849 4.198,19.952 4.248 C 20.194 4.366,20.634 4.806,20.752 5.048 C 20.972 5.500,20.971 5.486,20.989 9.390 L 21.006 13.000 12.000 13.000 L 2.994 13.000 3.011 9.390 C 3.025 6.244,3.036 5.745,3.092 5.508 C 3.176 5.153,3.298 4.914,3.520 4.667 C 3.883 4.262,4.282 4.090,4.980 4.039 C 5.200 4.023,8.494 4.013,12.300 4.017 C 18.585 4.024,19.245 4.031,19.492 4.091 M20.943 15.239 C 20.842 16.134,20.270 16.766,19.418 16.928 C 19.009 17.005,4.991 17.005,4.582 16.927 C 3.727 16.766,3.158 16.136,3.057 15.239 L 3.030 15.000 12.000 15.000 L 20.970 15.000 20.943 15.239 M7.614 20.057 C 7.377 20.131,7.212 20.261,7.109 20.453 C 7.035 20.592,7.020 20.684,7.020 21.000 C 7.020 21.331,7.033 21.403,7.120 21.558 C 7.230 21.755,7.414 21.898,7.635 21.959 C 7.833 22.014,16.167 22.014,16.365 21.959 C 16.586 21.898,16.770 21.755,16.880 21.558 C 16.967 21.402,16.980 21.332,16.979 21.000 C 16.978 20.567,16.898 20.355,16.678 20.199 C 16.393 19.996,16.487 20.000,11.984 20.003 C 8.651 20.005,7.746 20.016,7.614 20.057 " stroke="none" fill-rule="evenodd" fill="black"></path></svg>