<svg width="24" height="24" viewBox="0 0 24 24" fill="none" xmlns="http://www.w3.org/2000/svg"><path d="M11.280 1.023 C 11.203 1.032,10.951 1.059,10.720 1.083 C 9.527 1.210,8.337 1.558,7.180 2.120 C 6.045 2.671,5.193 3.285,4.238 4.239 C 3.277 5.198,2.643 6.080,2.097 7.220 C 0.301 10.968,0.728 15.286,3.226 18.633 C 3.701 19.269,4.753 20.316,5.400 20.797 C 8.633 23.201,12.831 23.670,16.495 22.037 C 17.201 21.723,17.414 21.500,17.411 21.080 C 17.409 20.670,17.160 20.252,16.825 20.096 C 16.642 20.011,16.564 20.001,16.088 20.000 C 14.802 19.999,13.645 19.739,12.529 19.200 C 11.477 18.693,10.612 18.015,9.847 17.100 C 7.848 14.711,7.440 11.302,8.816 8.500 C 9.819 6.458,11.579 4.970,13.755 4.323 C 14.384 4.137,15.071 4.038,15.974 4.006 C 16.749 3.978,16.792 3.972,16.963 3.872 C 17.178 3.746,17.298 3.547,17.357 3.216 C 17.460 2.648,17.249 2.314,16.600 2.012 C 15.230 1.375,13.790 1.051,12.200 1.021 C 11.771 1.013,11.357 1.014,11.280 1.023 M11.560 3.017 C 11.560 3.026,11.410 3.115,11.227 3.215 C 10.364 3.685,9.658 4.219,8.919 4.958 C 6.106 7.773,5.241 11.936,6.695 15.654 C 7.199 16.942,7.921 18.042,8.919 19.042 C 9.668 19.792,10.387 20.335,11.242 20.796 C 11.450 20.907,11.593 20.999,11.560 20.999 C 11.381 21.001,10.431 20.870,10.092 20.797 C 9.099 20.582,7.861 20.061,7.040 19.511 C 5.157 18.249,3.791 16.312,3.267 14.160 C 3.081 13.397,3.023 12.888,3.023 12.000 C 3.023 10.507,3.280 9.379,3.920 8.060 C 5.316 5.181,8.084 3.304,11.340 3.027 C 11.428 3.020,11.513 3.010,11.530 3.007 C 11.547 3.003,11.560 3.008,11.560 3.017 M19.654 5.057 C 19.081 5.324,18.824 5.838,19.034 6.300 C 19.074 6.388,19.262 6.690,19.452 6.971 C 20.112 7.950,20.601 9.116,20.815 10.220 C 20.940 10.864,20.973 11.236,20.973 12.000 C 20.973 12.764,20.940 13.136,20.815 13.780 C 20.602 14.878,20.112 16.050,19.461 17.016 C 19.020 17.669,18.960 17.792,18.960 18.040 C 18.960 18.300,19.064 18.504,19.302 18.713 C 19.554 18.935,19.793 19.044,20.032 19.046 C 20.368 19.049,20.594 18.887,20.955 18.387 C 22.005 16.930,22.679 15.182,22.925 13.280 C 22.957 13.040,22.980 12.492,22.980 12.000 C 22.980 11.092,22.935 10.620,22.775 9.822 C 22.465 8.280,21.791 6.738,20.913 5.560 C 20.474 4.970,20.133 4.834,19.654 5.057 " stroke="none" fill-rule="evenodd" fill="black"></path></svg>