<svg width="24" height="24" viewBox="0 0 24 24" fill="none" xmlns="http://www.w3.org/2000/svg"><path d="M10.400 1.120 C 8.695 1.386,7.270 1.939,5.861 2.883 C 4.097 4.065,2.660 5.810,1.855 7.747 C 0.341 11.394,0.853 15.446,3.233 18.640 C 3.683 19.245,4.754 20.316,5.363 20.770 C 8.542 23.143,12.612 23.657,16.252 22.145 C 17.580 21.593,18.674 20.851,19.762 19.762 C 21.037 18.488,21.859 17.172,22.427 15.500 C 22.795 14.416,23.033 13.019,22.921 12.600 C 22.822 12.229,22.534 12.017,22.073 11.974 C 21.574 11.928,21.319 12.081,20.981 12.629 C 19.629 14.822,17.264 16.098,14.760 15.986 C 12.917 15.904,11.333 15.215,10.059 13.941 C 7.376 11.258,7.319 6.925,9.931 4.174 C 10.365 3.716,10.762 3.405,11.575 2.885 C 11.755 2.769,11.889 2.646,11.968 2.525 C 12.075 2.357,12.085 2.316,12.069 2.080 C 12.042 1.677,11.823 1.315,11.508 1.154 C 11.282 1.039,10.982 1.030,10.400 1.120 M6.963 4.970 C 6.354 6.181,6.058 7.342,6.011 8.700 C 5.925 11.192,6.875 13.594,8.643 15.358 C 9.388 16.101,10.072 16.592,11.020 17.061 C 12.366 17.729,13.806 18.041,15.300 17.989 C 16.658 17.942,17.819 17.646,19.030 17.037 C 19.366 16.869,19.640 16.738,19.640 16.748 C 19.640 16.789,19.281 17.294,19.009 17.635 C 17.102 20.025,14.022 21.295,10.992 20.941 C 7.912 20.580,5.261 18.706,3.920 15.940 C 3.280 14.621,3.023 13.493,3.023 12.000 C 3.023 10.504,3.281 9.372,3.921 8.060 C 4.609 6.647,5.603 5.489,6.900 4.586 C 7.076 4.463,7.231 4.362,7.245 4.362 C 7.258 4.361,7.131 4.635,6.963 4.970 " stroke="none" fill-rule="evenodd" fill="black"></path></svg>