<svg width="24" height="24" viewBox="0 0 24 24" fill="none" xmlns="http://www.w3.org/2000/svg"><path d="M17.570 1.042 C 17.477 1.089,17.355 1.181,17.301 1.246 C 17.246 1.311,16.947 1.868,16.636 2.484 C 15.886 3.969,15.963 3.892,14.523 4.617 C 13.931 4.915,13.393 5.205,13.326 5.261 C 13.162 5.399,13.000 5.742,12.972 6.012 C 12.943 6.298,13.059 6.556,13.295 6.727 C 13.386 6.792,13.942 7.090,14.532 7.388 C 15.963 8.112,15.884 8.032,16.637 9.517 C 17.257 10.741,17.309 10.810,17.712 10.961 C 18.112 11.111,18.477 11.028,18.707 10.735 C 18.773 10.650,19.076 10.089,19.379 9.488 C 20.111 8.037,20.037 8.112,21.476 7.384 C 22.070 7.084,22.610 6.793,22.676 6.737 C 22.839 6.600,23.000 6.257,23.028 5.988 C 23.057 5.703,22.941 5.445,22.705 5.273 C 22.614 5.207,22.059 4.911,21.471 4.614 C 20.043 3.895,20.112 3.963,19.384 2.524 C 19.084 1.930,18.793 1.390,18.737 1.324 C 18.595 1.154,18.250 0.996,17.972 0.974 C 17.787 0.959,17.705 0.973,17.570 1.042 M9.940 2.080 C 8.103 2.359,6.362 3.128,4.900 4.308 C 4.389 4.720,3.547 5.585,3.156 6.100 C 2.046 7.561,1.346 9.268,1.072 11.180 C 0.993 11.733,1.006 13.349,1.094 13.920 C 1.389 15.833,2.083 17.469,3.232 18.960 C 3.570 19.398,4.602 20.430,5.040 20.768 C 6.520 21.908,8.182 22.617,10.040 22.899 C 10.627 22.988,11.792 23.020,12.400 22.964 C 14.428 22.778,16.282 22.063,17.900 20.845 C 18.412 20.459,19.495 19.377,19.886 18.860 C 20.803 17.649,21.489 16.174,21.794 14.757 C 21.902 14.255,22.000 13.576,22.000 13.332 C 22.000 12.741,21.618 12.398,20.963 12.401 C 20.530 12.403,20.348 12.550,19.871 13.286 C 18.694 15.102,16.583 16.240,14.393 16.240 C 11.884 16.240,9.595 14.820,8.458 12.557 C 7.790 11.226,7.601 9.668,7.927 8.160 C 8.271 6.562,9.334 5.026,10.720 4.120 C 11.402 3.675,11.429 3.654,11.541 3.463 C 11.745 3.113,11.621 2.577,11.259 2.243 C 10.975 1.982,10.761 1.955,9.940 2.080 M18.180 4.531 C 18.399 4.928,19.072 5.601,19.469 5.820 C 19.628 5.908,19.758 5.989,19.758 6.000 C 19.758 6.011,19.628 6.092,19.469 6.180 C 19.071 6.401,18.398 7.073,18.180 7.469 C 18.092 7.628,18.011 7.758,18.000 7.758 C 17.989 7.758,17.908 7.628,17.820 7.469 C 17.708 7.267,17.534 7.054,17.240 6.760 C 16.946 6.466,16.733 6.292,16.531 6.180 C 16.372 6.092,16.242 6.011,16.242 6.000 C 16.242 5.989,16.372 5.908,16.531 5.820 C 16.928 5.600,17.600 4.928,17.820 4.531 C 17.908 4.372,17.989 4.242,18.000 4.242 C 18.011 4.242,18.092 4.372,18.180 4.531 M6.665 5.790 C 5.342 8.433,5.484 11.596,7.039 14.140 C 7.681 15.190,8.810 16.319,9.860 16.961 C 12.408 18.518,15.563 18.660,18.210 17.335 C 18.447 17.216,18.640 17.128,18.640 17.140 C 18.640 17.177,18.345 17.579,18.096 17.880 C 17.786 18.254,17.019 19.006,16.700 19.247 C 14.104 21.213,10.677 21.548,7.770 20.121 C 6.386 19.441,5.293 18.481,4.414 17.171 C 4.111 16.719,3.661 15.819,3.483 15.306 C 2.529 12.565,3.034 9.508,4.820 7.220 C 5.102 6.859,5.988 5.983,6.321 5.738 C 6.441 5.649,6.603 5.528,6.680 5.470 C 6.757 5.411,6.834 5.363,6.850 5.362 C 6.867 5.361,6.784 5.554,6.665 5.790 " stroke="none" fill-rule="evenodd" fill="black"></path></svg>