<svg width="24" height="24" viewBox="0 0 24 24" fill="none" xmlns="http://www.w3.org/2000/svg"><path d="M11.530 1.085 C 11.392 1.152,11.248 1.254,11.210 1.311 C 11.171 1.369,10.463 2.101,9.635 2.938 C 8.635 3.949,8.099 4.520,8.040 4.637 C 7.863 4.989,7.952 5.354,8.299 5.701 C 8.646 6.048,9.012 6.137,9.363 5.959 C 9.469 5.905,9.832 5.580,10.270 5.147 L 11.000 4.425 11.000 7.712 L 11.000 11.000 7.712 11.000 L 4.425 11.000 5.147 10.270 C 5.580 9.832,5.905 9.469,5.959 9.363 C 6.137 9.012,6.048 8.646,5.701 8.299 C 5.361 7.959,4.980 7.868,4.628 8.044 C 4.521 8.098,3.915 8.670,2.960 9.618 C 2.135 10.438,1.399 11.150,1.324 11.201 C 1.149 11.321,0.951 11.745,0.951 12.000 C 0.951 12.238,1.150 12.682,1.303 12.784 C 1.366 12.826,2.101 13.537,2.938 14.365 C 3.949 15.365,4.520 15.901,4.637 15.960 C 4.989 16.137,5.354 16.048,5.701 15.701 C 6.048 15.354,6.137 14.988,5.959 14.637 C 5.905 14.531,5.580 14.168,5.147 13.730 L 4.425 13.000 7.712 13.000 L 11.000 13.000 11.000 16.288 L 11.000 19.575 10.270 18.853 C 9.856 18.444,9.467 18.094,9.372 18.045 C 9.021 17.868,8.640 17.958,8.299 18.299 C 7.952 18.646,7.863 19.011,8.040 19.363 C 8.099 19.480,8.635 20.051,9.635 21.062 C 10.463 21.899,11.174 22.634,11.216 22.697 C 11.318 22.850,11.762 23.049,12.000 23.049 C 12.238 23.049,12.682 22.850,12.784 22.697 C 12.826 22.634,13.537 21.899,14.365 21.062 C 15.365 20.051,15.901 19.480,15.960 19.363 C 16.137 19.011,16.048 18.646,15.701 18.299 C 15.360 17.958,14.979 17.868,14.628 18.045 C 14.533 18.094,14.144 18.444,13.730 18.853 L 13.000 19.575 13.000 16.288 L 13.000 13.000 16.288 13.000 L 19.575 13.000 18.853 13.730 C 18.420 14.168,18.095 14.531,18.041 14.637 C 17.863 14.988,17.952 15.354,18.299 15.701 C 18.646 16.048,19.011 16.137,19.363 15.960 C 19.480 15.901,20.051 15.365,21.062 14.365 C 21.899 13.537,22.634 12.826,22.697 12.784 C 22.850 12.682,23.049 12.238,23.049 12.000 C 23.049 11.745,22.851 11.321,22.676 11.201 C 22.601 11.150,21.865 10.438,21.040 9.618 C 20.085 8.670,19.479 8.098,19.372 8.044 C 19.020 7.868,18.639 7.959,18.299 8.299 C 17.952 8.646,17.863 9.012,18.041 9.363 C 18.095 9.469,18.420 9.832,18.853 10.270 L 19.575 11.000 16.288 11.000 L 13.000 11.000 13.000 7.712 L 13.000 4.425 13.730 5.147 C 14.168 5.580,14.531 5.905,14.637 5.959 C 14.988 6.137,15.354 6.048,15.701 5.701 C 16.048 5.354,16.137 4.989,15.960 4.637 C 15.901 4.520,15.365 3.949,14.365 2.938 C 13.537 2.101,12.829 1.369,12.790 1.311 C 12.752 1.254,12.604 1.151,12.460 1.083 C 12.113 0.919,11.873 0.920,11.530 1.085 " stroke="none" fill-rule="evenodd" fill="black"></path></svg>