<svg version="1.1" xmlns="http://www.w3.org/2000/svg" width="32" height="32" viewBox="0 0 32 32"><path d="M6.200 0.067 C 6.171 0.103,6.094 0.296,6.029 0.495 C 5.889 0.920,5.833 0.966,5.253 1.123 C 4.381 1.360,3.626 1.800,2.983 2.447 C 2.367 3.066,1.873 3.870,1.682 4.563 C 1.463 5.355,1.419 5.408,0.816 5.598 C 0.693 5.637,0.526 5.738,0.444 5.823 C 0.320 5.953,0.297 6.020,0.301 6.256 C 0.307 6.695,0.422 6.861,0.787 6.960 C 1.427 7.132,1.438 7.144,1.707 7.920 C 1.983 8.715,2.177 9.076,2.628 9.636 C 3.344 10.526,4.389 11.155,5.573 11.409 L 6.000 11.501 6.030 11.897 C 6.046 12.115,6.090 12.349,6.127 12.418 C 6.262 12.664,6.760 12.767,7.108 12.622 C 7.379 12.509,7.434 12.402,7.465 11.932 L 7.493 11.502 7.834 11.433 C 9.264 11.142,10.434 10.366,11.215 9.191 C 11.502 8.760,11.598 8.546,11.838 7.813 C 11.934 7.520,12.056 7.235,12.108 7.179 C 12.162 7.123,12.328 7.059,12.488 7.034 C 12.986 6.955,13.259 6.633,13.203 6.190 C 13.153 5.798,12.924 5.612,12.377 5.520 L 12.035 5.462 11.962 5.100 C 11.644 3.529,10.582 2.157,9.147 1.466 C 8.883 1.339,8.475 1.183,8.240 1.119 C 7.661 0.962,7.592 0.910,7.489 0.546 C 7.336 0.008,7.326 -0.000,6.752 -0.000 C 6.417 -0.000,6.236 0.022,6.200 0.067 M12.078 2.278 C 12.141 2.533,12.908 3.941,13.029 4.026 C 13.129 4.096,13.721 4.107,17.652 4.108 C 22.554 4.109,22.607 4.111,23.148 4.406 C 23.722 4.718,24.189 5.383,24.319 6.074 C 24.399 6.499,24.393 23.684,24.313 23.861 C 24.280 23.933,24.190 24.019,24.113 24.050 C 24.015 24.091,21.602 24.104,15.929 24.094 L 7.884 24.080 7.782 23.954 C 7.683 23.832,7.680 23.673,7.680 18.887 L 7.680 13.945 6.772 13.942 L 5.865 13.938 5.879 21.196 L 5.893 28.453 6.067 28.967 C 6.538 30.358,7.629 31.314,9.207 31.719 C 9.547 31.807,10.037 31.813,16.000 31.813 L 22.427 31.813 22.928 31.687 C 23.214 31.615,23.660 31.445,23.968 31.291 C 24.425 31.062,24.580 30.949,24.993 30.536 C 25.408 30.122,25.516 29.976,25.723 29.545 C 26.202 28.551,26.156 29.840,26.174 17.173 C 26.191 4.798,26.210 5.573,25.864 4.707 C 25.390 3.520,24.391 2.642,23.101 2.278 C 22.698 2.164,22.636 2.162,17.367 2.146 L 12.041 2.129 12.078 2.278 M6.027 2.840 C 6.027 3.185,6.154 3.451,6.395 3.612 C 6.614 3.759,6.846 3.767,7.090 3.636 C 7.341 3.501,7.467 3.245,7.467 2.866 L 7.467 2.558 7.613 2.590 C 8.542 2.796,9.256 3.268,9.772 4.020 C 9.993 4.344,10.365 5.093,10.427 5.340 C 10.460 5.473,10.449 5.482,10.204 5.518 C 9.630 5.604,9.382 5.818,9.345 6.258 C 9.324 6.519,9.336 6.559,9.492 6.737 C 9.667 6.936,9.916 7.039,10.225 7.040 C 10.391 7.040,10.396 7.047,10.364 7.213 C 10.162 8.278,9.170 9.351,8.038 9.731 C 7.507 9.910,7.467 9.907,7.465 9.693 C 7.464 9.457,7.298 9.109,7.120 8.969 C 6.683 8.626,6.027 9.064,6.027 9.699 C 6.027 9.926,6.023 9.931,5.880 9.895 C 5.629 9.833,4.882 9.464,4.548 9.237 C 3.887 8.787,3.358 8.062,3.181 7.360 L 3.107 7.067 3.354 7.032 C 3.802 6.970,4.034 6.813,4.157 6.488 C 4.268 6.196,4.060 5.793,3.707 5.612 C 3.648 5.582,3.486 5.540,3.347 5.519 C 3.067 5.477,3.078 5.520,3.210 4.987 C 3.357 4.396,3.900 3.658,4.505 3.226 C 4.946 2.912,5.626 2.608,5.987 2.565 C 6.009 2.562,6.027 2.686,6.027 2.840 M12.048 11.226 C 11.144 11.398,10.456 11.737,9.967 12.251 C 9.613 12.623,9.437 12.916,9.272 13.413 L 9.148 13.787 9.131 17.573 C 9.119 20.148,9.132 21.422,9.171 21.554 C 9.297 21.987,9.923 22.316,10.380 22.191 C 10.716 22.099,10.910 21.948,11.046 21.672 L 11.173 21.413 11.200 17.893 L 11.227 14.373 11.353 14.119 C 11.515 13.792,11.855 13.495,12.219 13.360 C 12.657 13.198,13.683 13.207,14.053 13.377 C 14.370 13.522,14.578 13.709,14.747 14.000 C 15.004 14.443,15.004 14.446,15.036 18.107 C 15.066 21.479,15.070 21.578,15.176 21.760 C 15.391 22.126,15.871 22.307,16.310 22.189 C 16.738 22.074,16.967 21.763,17.064 21.166 C 17.098 20.960,17.119 19.566,17.120 17.604 C 17.120 14.459,17.123 14.375,17.230 14.154 C 17.370 13.863,17.694 13.572,18.074 13.394 C 18.343 13.268,18.435 13.253,18.987 13.253 C 19.536 13.253,19.631 13.268,19.893 13.391 C 20.275 13.571,20.501 13.767,20.681 14.072 L 20.827 14.320 20.853 17.893 C 20.881 21.620,20.882 21.633,21.110 21.886 C 21.160 21.940,21.284 22.027,21.387 22.078 C 22.008 22.390,22.713 22.114,22.880 21.493 C 22.920 21.345,22.933 20.099,22.922 17.506 L 22.907 13.733 22.766 13.348 C 22.459 12.509,21.998 11.982,21.267 11.633 C 20.742 11.383,20.325 11.275,19.573 11.196 C 18.475 11.079,17.356 11.228,16.530 11.602 C 16.304 11.703,16.072 11.787,16.014 11.787 C 15.956 11.787,15.707 11.693,15.461 11.578 C 15.207 11.459,14.817 11.330,14.560 11.281 C 13.922 11.157,12.563 11.128,12.048 11.226 M24.360 27.133 C 24.339 27.827,24.309 28.101,24.226 28.358 C 23.967 29.161,23.564 29.545,22.667 29.847 C 22.389 29.940,22.041 29.946,16.327 29.961 C 9.821 29.978,9.773 29.976,9.044 29.704 C 8.524 29.509,8.024 28.969,7.812 28.372 C 7.702 28.063,7.609 27.000,7.654 26.573 L 7.688 26.240 16.038 26.240 L 24.387 26.240 24.360 27.133 " stroke="none" fill-rule="evenodd" fill="black"></path></svg>