<svg width="24" height="24" viewBox="0 0 24 24" fill="none" xmlns="http://www.w3.org/2000/svg"><path d="M14.960 2.692 C 14.463 2.834,13.968 3.231,13.760 3.654 C 13.496 4.193,13.507 3.939,13.491 9.486 L 13.476 14.513 13.173 14.373 C 13.006 14.296,12.696 14.187,12.485 14.130 C 12.153 14.042,12.017 14.028,11.500 14.028 C 10.985 14.028,10.846 14.042,10.520 14.129 C 8.596 14.642,7.344 16.412,7.525 18.366 C 7.714 20.421,9.456 22.007,11.515 21.999 C 13.577 21.990,15.277 20.421,15.479 18.338 C 15.502 18.100,15.518 15.269,15.519 11.310 C 15.520 6.901,15.533 4.680,15.560 4.680 C 15.582 4.680,16.577 5.168,17.770 5.765 C 20.067 6.914,20.347 7.040,20.603 7.040 C 21.061 7.040,21.533 6.461,21.532 5.899 C 21.531 5.658,21.454 5.496,21.257 5.323 C 21.094 5.180,16.471 2.859,16.120 2.744 C 15.837 2.651,15.202 2.623,14.960 2.692 M6.180 3.039 C 5.867 3.119,5.697 3.260,5.574 3.540 C 5.514 3.677,5.502 3.864,5.488 4.847 L 5.472 5.995 4.306 6.009 C 3.034 6.024,2.974 6.034,2.752 6.267 C 2.584 6.443,2.513 6.658,2.512 6.997 C 2.510 7.348,2.582 7.556,2.771 7.751 C 2.987 7.974,3.156 8.000,4.384 8.000 L 5.473 8.000 5.488 9.150 C 5.501 10.140,5.513 10.322,5.573 10.460 C 5.679 10.698,5.869 10.874,6.096 10.941 C 6.513 11.065,7.005 10.982,7.229 10.751 C 7.482 10.490,7.494 10.420,7.512 9.150 L 7.528 8.000 8.617 8.000 C 9.844 8.000,10.013 7.974,10.229 7.751 C 10.418 7.556,10.486 7.355,10.486 6.997 C 10.486 6.491,10.303 6.196,9.909 6.064 C 9.752 6.012,9.519 6.000,8.623 6.000 L 7.528 6.000 7.513 4.850 C 7.499 3.786,7.491 3.687,7.414 3.520 C 7.306 3.287,7.147 3.143,6.909 3.064 C 6.709 2.997,6.386 2.986,6.180 3.039 M11.885 16.040 C 12.373 16.131,12.923 16.509,13.200 16.946 C 13.578 17.542,13.577 18.459,13.198 19.057 C 12.405 20.306,10.595 20.306,9.802 19.057 C 9.423 18.459,9.422 17.542,9.800 16.946 C 9.984 16.657,10.302 16.373,10.618 16.217 C 11.037 16.011,11.431 15.956,11.885 16.040 " stroke="none" fill-rule="evenodd" fill="black"></path></svg>