<svg width="24" height="24" viewBox="0 0 24 24" fill="none" xmlns="http://www.w3.org/2000/svg"><path d="M20.600 1.493 C 20.257 1.600,11.104 5.168,10.860 5.290 C 10.593 5.424,10.482 5.519,10.395 5.690 C 10.202 6.069,10.412 6.791,10.793 7.058 C 10.946 7.165,11.000 7.180,11.233 7.178 C 11.488 7.177,11.690 7.102,15.680 5.543 C 17.979 4.645,19.945 3.877,20.049 3.836 L 20.237 3.762 20.203 3.851 C 20.184 3.900,19.445 5.794,18.560 8.060 C 17.675 10.326,16.917 12.277,16.875 12.396 C 16.717 12.852,16.822 13.235,17.170 13.467 C 17.387 13.612,17.719 13.720,17.948 13.720 C 18.150 13.720,18.426 13.577,18.569 13.397 C 18.692 13.243,22.375 3.865,22.526 3.322 C 22.738 2.560,22.448 1.865,21.782 1.539 C 21.455 1.379,21.021 1.362,20.600 1.493 M2.626 2.045 C 2.420 2.154,2.146 2.433,2.038 2.644 C 1.924 2.868,1.924 3.133,2.040 3.363 C 2.101 3.484,2.709 4.122,3.968 5.385 C 4.980 6.400,5.793 7.240,5.774 7.251 C 5.755 7.262,5.038 7.546,4.180 7.881 C 2.269 8.627,2.085 8.713,1.797 8.999 C 1.507 9.286,1.389 9.575,1.389 10.000 C 1.389 10.609,1.703 11.069,2.320 11.368 C 2.485 11.448,4.204 12.128,6.140 12.880 C 8.076 13.631,9.681 14.267,9.707 14.293 C 9.733 14.319,10.369 15.924,11.120 17.860 C 11.872 19.796,12.552 21.515,12.632 21.680 C 12.931 22.297,13.391 22.611,14.000 22.611 C 14.425 22.611,14.714 22.493,15.001 22.203 C 15.290 21.913,15.380 21.719,16.121 19.820 C 16.455 18.962,16.738 18.245,16.749 18.226 C 16.761 18.207,17.600 19.020,18.615 20.032 C 19.878 21.291,20.516 21.899,20.637 21.960 C 20.989 22.137,21.354 22.048,21.701 21.701 C 22.116 21.286,22.159 20.868,21.832 20.440 C 21.761 20.347,11.086 9.655,5.860 4.443 C 4.327 2.914,3.483 2.100,3.372 2.044 C 3.152 1.934,2.835 1.934,2.626 2.045 M11.297 12.717 L 15.214 16.634 14.620 18.157 C 14.294 18.995,14.015 19.680,14.001 19.680 C 13.987 19.680,13.429 18.271,12.761 16.550 C 12.094 14.829,11.493 13.315,11.427 13.187 C 11.262 12.869,10.992 12.638,10.590 12.471 C 10.409 12.395,8.924 11.814,7.290 11.179 C 5.657 10.544,4.320 10.013,4.320 9.999 C 4.320 9.973,7.263 8.808,7.340 8.803 C 7.362 8.801,9.143 10.563,11.297 12.717 " stroke="none" fill-rule="evenodd" fill="black"></path></svg>