<svg width="24" height="24" viewBox="0 0 24 24" fill="none" xmlns="http://www.w3.org/2000/svg"><path d="M1.626 1.045 C 1.420 1.154,1.146 1.433,1.038 1.644 C 0.924 1.867,0.924 2.132,1.039 2.363 C 1.102 2.488,2.099 3.513,4.442 5.860 L 7.755 9.180 5.315 14.740 C 3.972 17.798,2.827 20.435,2.769 20.600 C 2.636 20.977,2.621 21.445,2.733 21.719 C 2.915 22.164,3.304 22.506,3.759 22.623 C 4.050 22.697,4.406 22.658,4.810 22.505 C 4.948 22.453,6.621 21.723,8.528 20.884 L 11.996 19.358 15.506 20.902 C 17.437 21.751,19.152 22.492,19.318 22.548 C 19.755 22.695,20.138 22.694,20.468 22.544 C 20.604 22.482,20.746 22.397,20.784 22.356 C 20.849 22.283,20.863 22.291,21.163 22.578 C 21.531 22.930,21.743 23.049,22.000 23.049 C 22.477 23.049,23.049 22.477,23.049 22.000 C 23.049 21.669,22.941 21.531,21.697 20.280 C 18.723 17.289,2.649 1.236,2.560 1.168 C 2.264 0.942,1.910 0.895,1.626 1.045 M11.500 1.830 C 11.081 2.015,10.872 2.211,10.650 2.628 C 10.496 2.917,9.619 4.903,9.516 5.196 C 9.310 5.784,9.577 6.241,10.244 6.444 C 10.585 6.548,10.806 6.525,11.030 6.363 C 11.208 6.234,11.371 5.938,11.743 5.071 C 11.873 4.769,11.991 4.535,12.006 4.551 C 12.022 4.567,12.685 6.065,13.481 7.880 C 14.277 9.695,14.975 11.276,15.032 11.394 C 15.228 11.795,15.580 11.993,15.966 11.919 C 16.349 11.846,16.736 11.596,16.855 11.345 C 16.949 11.147,16.937 10.819,16.826 10.538 C 16.661 10.122,13.600 3.156,13.411 2.768 C 13.202 2.337,12.958 2.062,12.636 1.896 C 12.453 1.802,12.363 1.783,12.040 1.772 C 11.744 1.763,11.625 1.775,11.500 1.830 M14.000 15.421 C 18.473 19.895,18.688 20.118,18.460 20.017 C 18.328 19.959,16.951 19.353,15.400 18.670 C 13.849 17.987,12.501 17.404,12.404 17.374 C 12.153 17.297,11.795 17.307,11.529 17.398 C 11.403 17.441,9.914 18.087,8.220 18.833 C 6.526 19.580,5.135 20.187,5.129 20.181 C 5.113 20.167,9.257 10.721,9.280 10.721 C 9.291 10.720,11.415 12.836,14.000 15.421 " stroke="none" fill-rule="evenodd" fill="black"></path></svg>