<svg width="24" height="24" viewBox="0 0 24 24" fill="none" xmlns="http://www.w3.org/2000/svg"><path d="M17.358 2.061 C 16.241 2.235,15.156 2.965,14.579 3.932 C 14.384 4.258,14.185 4.756,14.094 5.146 C 13.992 5.578,13.992 6.422,14.094 6.854 C 14.452 8.385,15.615 9.548,17.146 9.906 C 17.578 10.008,18.422 10.008,18.854 9.906 C 20.385 9.548,21.548 8.385,21.906 6.854 C 22.008 6.422,22.008 5.578,21.906 5.146 C 21.687 4.212,21.161 3.388,20.432 2.839 C 19.866 2.412,19.274 2.159,18.605 2.058 C 18.144 1.989,17.816 1.990,17.358 2.061 M5.920 3.042 C 5.155 3.091,4.674 3.204,4.180 3.451 C 3.089 3.996,2.357 4.961,2.124 6.160 C 2.014 6.724,2.000 7.447,2.000 12.500 C 2.000 18.321,2.008 18.533,2.245 19.320 C 2.577 20.422,3.578 21.423,4.680 21.755 C 5.467 21.992,5.679 22.000,11.500 22.000 C 17.321 22.000,17.533 21.992,18.320 21.755 C 19.422 21.423,20.425 20.421,20.755 19.320 C 20.979 18.573,21.007 18.074,20.993 15.120 C 20.980 12.623,20.980 12.620,20.891 12.453 C 20.785 12.256,20.622 12.131,20.371 12.055 C 19.862 11.902,19.311 12.076,19.109 12.453 C 19.020 12.620,19.020 12.624,18.995 15.420 C 18.968 18.429,18.962 18.522,18.752 18.952 C 18.626 19.211,18.190 19.638,17.918 19.768 C 17.468 19.984,17.587 19.980,11.500 19.980 C 5.422 19.980,5.536 19.984,5.082 19.771 C 4.812 19.643,4.377 19.217,4.248 18.952 C 4.198 18.849,4.126 18.633,4.088 18.472 C 4.026 18.204,4.020 17.715,4.020 12.500 C 4.020 7.285,4.026 6.796,4.088 6.528 C 4.126 6.367,4.198 6.151,4.248 6.048 C 4.366 5.806,4.806 5.366,5.048 5.248 C 5.478 5.038,5.571 5.032,8.580 5.005 C 11.342 4.980,11.382 4.979,11.540 4.894 C 11.875 4.715,11.978 4.504,11.978 4.000 C 11.978 3.567,11.899 3.356,11.678 3.199 C 11.403 3.003,11.352 3.000,8.784 3.006 C 7.462 3.009,6.173 3.025,5.920 3.042 M18.523 4.073 C 19.262 4.266,19.850 4.924,19.967 5.690 C 20.067 6.343,19.873 6.933,19.403 7.404 C 19.109 7.699,18.844 7.852,18.471 7.940 C 17.801 8.098,17.151 7.928,16.653 7.465 C 16.366 7.198,16.164 6.870,16.073 6.523 C 15.683 5.028,17.028 3.683,18.523 4.073 M6.614 12.057 C 6.377 12.131,6.212 12.261,6.109 12.453 C 6.035 12.592,6.020 12.684,6.020 13.000 C 6.020 13.331,6.033 13.403,6.120 13.558 C 6.230 13.755,6.414 13.898,6.635 13.959 C 6.833 14.014,15.167 14.014,15.365 13.959 C 15.586 13.898,15.770 13.755,15.880 13.558 C 15.967 13.402,15.980 13.332,15.979 13.000 C 15.978 12.567,15.898 12.355,15.678 12.199 C 15.393 11.996,15.487 12.000,10.984 12.003 C 7.651 12.005,6.746 12.016,6.614 12.057 M6.614 16.057 C 6.377 16.131,6.212 16.261,6.109 16.453 C 6.035 16.592,6.020 16.684,6.020 17.000 C 6.020 17.331,6.033 17.403,6.120 17.558 C 6.230 17.755,6.414 17.898,6.635 17.959 C 6.832 18.014,13.168 18.014,13.365 17.959 C 13.586 17.898,13.770 17.755,13.880 17.558 C 13.967 17.402,13.980 17.332,13.979 17.000 C 13.978 16.567,13.898 16.355,13.678 16.199 C 13.398 15.999,13.411 16.000,9.984 16.003 C 7.472 16.005,6.744 16.017,6.614 16.057 " stroke="none" fill-rule="evenodd" fill="black"></path></svg>