<svg width="24" height="24" viewBox="0 0 24 24" fill="none" xmlns="http://www.w3.org/2000/svg"><path d="M11.420 1.241 C 11.288 1.283,10.316 1.797,9.260 2.384 C 8.204 2.970,7.282 3.467,7.211 3.487 C 7.140 3.507,7.005 3.582,6.911 3.653 C 6.817 3.725,5.948 4.222,4.980 4.758 C 4.012 5.294,3.102 5.810,2.957 5.905 C 2.457 6.232,2.168 6.633,2.058 7.155 C 1.974 7.548,1.974 16.452,2.058 16.845 C 2.171 17.381,2.492 17.813,3.018 18.139 C 3.538 18.461,11.086 22.636,11.314 22.729 C 11.639 22.859,12.358 22.861,12.680 22.731 C 12.971 22.613,14.542 21.745,14.718 21.604 C 14.904 21.456,15.040 21.190,15.040 20.975 C 15.040 20.564,14.695 20.033,14.339 19.897 C 14.080 19.799,13.856 19.843,13.412 20.080 C 13.206 20.190,13.029 20.280,13.019 20.280 C 13.009 20.280,13.001 18.547,13.001 16.430 L 13.003 12.580 14.809 11.580 C 15.803 11.030,16.694 10.550,16.790 10.513 C 16.886 10.476,17.029 10.397,17.107 10.337 C 17.235 10.240,19.936 8.720,19.981 8.720 C 19.992 8.720,20.000 9.617,20.000 10.713 C 20.000 12.926,20.007 12.995,20.249 13.229 C 20.442 13.416,20.647 13.487,20.997 13.488 C 21.501 13.490,21.827 13.289,21.941 12.904 C 22.026 12.617,22.027 7.555,21.942 7.155 C 21.841 6.676,21.586 6.292,21.164 5.983 C 20.808 5.722,12.833 1.321,12.568 1.239 C 12.234 1.136,11.748 1.137,11.420 1.241 M15.509 5.092 C 17.383 6.130,18.918 6.989,18.918 7.000 C 18.919 7.017,17.969 7.552,16.841 8.169 L 16.496 8.357 13.060 6.449 C 11.170 5.399,9.625 4.522,9.627 4.500 C 9.633 4.435,11.972 3.156,12.039 3.181 C 12.073 3.193,13.634 4.053,15.509 5.092 M11.075 7.629 C 12.888 8.637,14.371 9.479,14.371 9.501 C 14.373 9.556,12.075 10.838,11.993 10.828 C 11.918 10.819,5.081 7.032,5.082 7.000 C 5.082 6.989,5.626 6.680,6.290 6.313 L 7.497 5.647 7.638 5.721 C 7.716 5.762,9.263 6.620,11.075 7.629 M7.536 10.660 L 10.997 12.580 10.999 16.433 C 11.000 18.979,10.986 20.282,10.960 20.273 C 10.938 20.266,9.363 19.396,7.461 18.340 L 4.001 16.420 4.001 12.567 C 4.000 10.227,4.015 8.719,4.037 8.727 C 4.057 8.734,5.632 9.604,7.536 10.660 M18.614 14.057 C 18.377 14.131,18.212 14.261,18.109 14.453 C 18.024 14.613,18.020 14.668,18.008 15.810 L 17.996 17.000 16.904 17.000 C 15.744 17.000,15.570 17.022,15.322 17.199 C 15.100 17.357,15.020 17.568,15.020 18.000 C 15.020 18.331,15.033 18.403,15.120 18.558 C 15.230 18.755,15.414 18.898,15.635 18.959 C 15.716 18.982,16.270 19.000,16.890 19.000 L 18.000 19.000 18.000 20.110 C 18.000 20.730,18.018 21.284,18.041 21.365 C 18.148 21.750,18.437 21.962,18.896 21.991 C 19.381 22.022,19.699 21.882,19.880 21.558 C 19.979 21.381,19.980 21.374,19.993 20.190 L 20.005 19.000 21.113 19.000 C 21.731 19.000,22.284 18.982,22.365 18.959 C 22.586 18.898,22.770 18.755,22.880 18.558 C 22.967 18.402,22.980 18.332,22.979 18.000 C 22.978 17.567,22.898 17.355,22.678 17.199 C 22.430 17.022,22.256 17.000,21.096 17.000 L 20.005 17.000 19.993 15.810 C 19.981 14.669,19.976 14.613,19.891 14.453 C 19.842 14.362,19.746 14.247,19.678 14.199 C 19.414 14.010,18.957 13.950,18.614 14.057 " stroke="none" fill-rule="evenodd" fill="black"></path></svg>