<svg width="24" height="24" viewBox="0 0 24 24" fill="none" xmlns="http://www.w3.org/2000/svg"><path d="M11.420 1.241 C 11.288 1.283,10.316 1.797,9.260 2.384 C 8.204 2.970,7.282 3.467,7.211 3.487 C 7.140 3.507,7.005 3.582,6.911 3.653 C 6.817 3.725,5.948 4.222,4.980 4.758 C 4.012 5.294,3.102 5.810,2.957 5.905 C 2.457 6.232,2.168 6.633,2.058 7.155 C 1.974 7.548,1.974 16.452,2.058 16.845 C 2.171 17.381,2.492 17.813,3.018 18.139 C 3.538 18.461,11.086 22.636,11.314 22.729 C 11.639 22.859,12.358 22.861,12.680 22.731 C 12.971 22.613,14.542 21.745,14.718 21.604 C 14.904 21.456,15.040 21.190,15.040 20.975 C 15.040 20.564,14.695 20.033,14.339 19.897 C 14.080 19.799,13.856 19.843,13.412 20.080 C 13.206 20.190,13.029 20.280,13.019 20.280 C 13.009 20.280,13.001 18.547,13.001 16.430 L 13.003 12.580 14.809 11.580 C 15.803 11.030,16.694 10.550,16.790 10.513 C 16.886 10.476,17.029 10.397,17.107 10.337 C 17.235 10.240,19.936 8.720,19.981 8.720 C 19.992 8.720,20.000 9.732,20.000 10.970 C 20.000 12.354,20.016 13.276,20.041 13.365 C 20.148 13.750,20.437 13.962,20.896 13.991 C 21.381 14.022,21.699 13.882,21.880 13.558 L 21.980 13.380 21.992 10.440 C 22.000 8.415,21.989 7.417,21.959 7.234 C 21.875 6.734,21.602 6.304,21.164 5.983 C 20.808 5.722,12.833 1.321,12.568 1.239 C 12.234 1.136,11.748 1.137,11.420 1.241 M15.509 5.092 C 17.383 6.130,18.918 6.989,18.918 7.000 C 18.919 7.017,17.969 7.552,16.841 8.169 L 16.496 8.357 13.060 6.449 C 11.170 5.399,9.625 4.522,9.627 4.500 C 9.633 4.435,11.972 3.156,12.039 3.181 C 12.073 3.193,13.634 4.053,15.509 5.092 M11.075 7.629 C 12.888 8.637,14.371 9.479,14.371 9.501 C 14.373 9.556,12.075 10.838,11.993 10.828 C 11.918 10.819,5.081 7.032,5.082 7.000 C 5.082 6.989,5.626 6.680,6.290 6.313 L 7.497 5.647 7.638 5.721 C 7.716 5.762,9.263 6.620,11.075 7.629 M7.536 10.660 L 10.997 12.580 10.999 16.433 C 11.000 18.979,10.986 20.282,10.960 20.273 C 10.938 20.266,9.363 19.396,7.461 18.340 L 4.001 16.420 4.001 12.567 C 4.000 10.227,4.015 8.719,4.037 8.727 C 4.057 8.734,5.632 9.604,7.536 10.660 M15.614 17.057 C 15.377 17.131,15.212 17.261,15.109 17.453 C 15.035 17.592,15.020 17.684,15.020 18.000 C 15.020 18.331,15.033 18.403,15.120 18.558 C 15.230 18.755,15.414 18.898,15.635 18.959 C 15.832 19.014,22.168 19.014,22.365 18.959 C 22.586 18.898,22.770 18.755,22.880 18.558 C 22.967 18.402,22.980 18.332,22.979 18.000 C 22.978 17.567,22.898 17.355,22.678 17.199 C 22.398 16.999,22.411 17.000,18.984 17.003 C 16.472 17.005,15.744 17.017,15.614 17.057 " stroke="none" fill-rule="evenodd" fill="black"></path></svg>