<svg width="24" height="24" viewBox="0 0 24 24" fill="none" xmlns="http://www.w3.org/2000/svg"><path d="M11.420 1.241 C 11.288 1.283,10.316 1.797,9.260 2.384 C 8.204 2.970,7.282 3.467,7.211 3.487 C 7.140 3.507,7.005 3.582,6.911 3.653 C 6.817 3.725,5.948 4.222,4.980 4.758 C 4.012 5.294,3.102 5.810,2.957 5.905 C 2.457 6.232,2.168 6.633,2.058 7.155 C 1.974 7.548,1.974 16.452,2.058 16.845 C 2.171 17.381,2.492 17.813,3.018 18.139 C 3.557 18.473,11.090 22.638,11.314 22.726 C 11.626 22.849,12.232 22.875,12.529 22.779 C 12.811 22.687,13.382 22.392,13.653 22.198 C 14.126 21.860,14.163 21.325,13.753 20.778 C 13.608 20.585,13.295 20.400,13.112 20.400 L 13.000 20.400 13.001 16.490 L 13.003 12.580 14.809 11.580 C 15.803 11.030,16.694 10.550,16.790 10.513 C 16.886 10.476,17.029 10.397,17.107 10.337 C 17.235 10.240,19.936 8.720,19.981 8.720 C 19.992 8.720,20.000 9.508,20.000 10.470 C 20.000 11.519,20.017 12.278,20.041 12.365 C 20.148 12.750,20.437 12.962,20.896 12.991 C 21.381 13.022,21.699 12.882,21.880 12.558 L 21.980 12.380 21.992 9.940 C 22.000 8.277,21.989 7.415,21.959 7.234 C 21.875 6.734,21.602 6.304,21.164 5.983 C 20.808 5.722,12.833 1.321,12.568 1.239 C 12.234 1.136,11.748 1.137,11.420 1.241 M15.509 5.092 C 17.383 6.130,18.918 6.989,18.918 7.000 C 18.919 7.017,17.969 7.552,16.841 8.169 L 16.496 8.357 13.060 6.449 C 11.170 5.399,9.625 4.522,9.627 4.500 C 9.633 4.435,11.972 3.156,12.039 3.181 C 12.073 3.193,13.634 4.053,15.509 5.092 M11.075 7.629 C 12.888 8.637,14.371 9.479,14.371 9.501 C 14.373 9.556,12.075 10.838,11.993 10.828 C 11.918 10.819,5.081 7.032,5.082 7.000 C 5.082 6.989,5.626 6.680,6.290 6.313 L 7.497 5.647 7.638 5.721 C 7.716 5.762,9.263 6.620,11.075 7.629 M7.536 10.660 L 10.997 12.580 10.999 16.433 C 11.000 18.979,10.986 20.282,10.960 20.273 C 10.938 20.266,9.363 19.396,7.461 18.340 L 4.001 16.420 4.001 12.567 C 4.000 10.227,4.015 8.719,4.037 8.727 C 4.057 8.734,5.632 9.604,7.536 10.660 M18.358 14.061 C 17.230 14.237,16.143 14.974,15.569 15.953 C 14.320 18.083,15.233 20.785,17.512 21.704 C 18.460 22.086,19.466 22.090,20.471 21.717 L 20.722 21.623 21.111 22.010 C 21.667 22.563,21.927 22.659,22.340 22.465 C 22.569 22.358,22.896 22.027,22.986 21.812 C 23.070 21.610,23.062 21.350,22.964 21.150 C 22.919 21.056,22.739 20.838,22.565 20.665 L 22.247 20.349 22.407 20.088 C 22.769 19.497,23.000 18.684,23.000 18.000 C 23.000 17.327,22.776 16.525,22.421 15.932 C 21.834 14.949,20.756 14.232,19.605 14.058 C 19.144 13.989,18.816 13.990,18.358 14.061 M19.523 16.073 C 20.262 16.266,20.850 16.924,20.967 17.690 C 21.067 18.343,20.873 18.933,20.403 19.404 C 20.002 19.807,19.547 20.000,19.000 20.000 C 18.485 20.000,18.038 19.822,17.653 19.465 C 16.323 18.229,17.189 16.005,19.000 16.005 C 19.143 16.005,19.378 16.036,19.523 16.073 " stroke="none" fill-rule="evenodd" fill="black"></path></svg>