<svg width="24" height="24" viewBox="0 0 24 24" fill="none" xmlns="http://www.w3.org/2000/svg"><path d="M11.420 1.241 C 11.288 1.283,10.316 1.797,9.260 2.384 C 8.204 2.970,7.282 3.467,7.211 3.487 C 7.140 3.507,7.005 3.582,6.911 3.653 C 6.817 3.725,5.948 4.222,4.980 4.758 C 4.012 5.294,3.102 5.810,2.957 5.905 C 2.457 6.232,2.168 6.633,2.058 7.155 C 1.974 7.548,1.974 16.452,2.058 16.845 C 2.171 17.381,2.492 17.813,3.018 18.139 C 3.538 18.461,11.086 22.636,11.314 22.729 C 11.639 22.859,12.358 22.861,12.680 22.731 C 12.971 22.613,14.542 21.745,14.718 21.604 C 14.904 21.456,15.040 21.190,15.040 20.975 C 15.040 20.564,14.695 20.033,14.339 19.897 C 14.080 19.799,13.856 19.843,13.412 20.080 C 13.206 20.190,13.029 20.280,13.019 20.280 C 13.009 20.280,13.001 18.547,13.001 16.430 L 13.003 12.580 14.809 11.580 C 15.803 11.030,16.694 10.550,16.790 10.513 C 16.886 10.476,17.029 10.397,17.107 10.337 C 17.235 10.240,19.936 8.720,19.981 8.720 C 19.992 8.720,20.000 9.617,20.000 10.713 C 20.000 12.926,20.007 12.995,20.249 13.229 C 20.442 13.416,20.647 13.487,20.997 13.488 C 21.501 13.490,21.827 13.289,21.941 12.904 C 22.026 12.617,22.027 7.555,21.942 7.155 C 21.841 6.676,21.586 6.292,21.164 5.983 C 20.808 5.722,12.833 1.321,12.568 1.239 C 12.234 1.136,11.748 1.137,11.420 1.241 M15.509 5.092 C 17.383 6.130,18.918 6.989,18.918 7.000 C 18.919 7.017,17.969 7.552,16.841 8.169 L 16.496 8.357 13.060 6.449 C 11.170 5.399,9.625 4.522,9.627 4.500 C 9.633 4.435,11.972 3.156,12.039 3.181 C 12.073 3.193,13.634 4.053,15.509 5.092 M11.075 7.629 C 12.888 8.637,14.371 9.479,14.371 9.501 C 14.373 9.556,12.075 10.838,11.993 10.828 C 11.918 10.819,5.081 7.032,5.082 7.000 C 5.082 6.989,5.626 6.680,6.290 6.313 L 7.497 5.647 7.638 5.721 C 7.716 5.762,9.263 6.620,11.075 7.629 M7.536 10.660 L 10.997 12.580 10.999 16.433 C 11.000 18.979,10.986 20.282,10.960 20.273 C 10.938 20.266,9.363 19.396,7.461 18.340 L 4.001 16.420 4.001 12.567 C 4.000 10.227,4.015 8.719,4.037 8.727 C 4.057 8.734,5.632 9.604,7.536 10.660 M21.620 15.046 C 21.525 15.095,20.753 15.834,19.731 16.853 L 18.001 18.577 17.271 17.854 C 16.856 17.444,16.467 17.094,16.372 17.045 C 16.021 16.868,15.640 16.958,15.299 17.299 C 14.952 17.646,14.863 18.010,15.040 18.363 C 15.162 18.607,17.393 20.838,17.637 20.960 C 17.868 21.076,18.132 21.076,18.363 20.961 C 18.486 20.899,19.197 20.215,20.706 18.706 C 22.215 17.197,22.899 16.486,22.961 16.363 C 23.137 16.010,23.048 15.645,22.701 15.299 C 22.361 14.959,21.967 14.867,21.620 15.046 " stroke="none" fill-rule="evenodd" fill="black"></path></svg>