<svg width="24" height="24" viewBox="0 0 24 24" fill="none" xmlns="http://www.w3.org/2000/svg"><path d="M11.420 1.241 C 11.288 1.283,10.316 1.797,9.260 2.384 C 8.204 2.970,7.282 3.467,7.211 3.487 C 7.140 3.507,7.005 3.582,6.911 3.653 C 6.817 3.725,5.948 4.222,4.980 4.758 C 4.012 5.294,3.102 5.810,2.957 5.905 C 2.457 6.232,2.168 6.633,2.058 7.155 C 1.974 7.548,1.974 16.452,2.058 16.845 C 2.171 17.381,2.492 17.813,3.018 18.139 C 3.557 18.473,11.090 22.638,11.314 22.726 C 11.626 22.849,12.232 22.875,12.529 22.779 C 12.811 22.687,13.382 22.392,13.653 22.198 C 14.126 21.860,14.163 21.325,13.753 20.778 C 13.608 20.585,13.295 20.400,13.112 20.400 L 13.000 20.400 13.001 16.490 L 13.003 12.580 14.809 11.580 C 15.803 11.030,16.694 10.550,16.790 10.513 C 16.886 10.476,17.029 10.397,17.107 10.337 C 17.235 10.240,19.936 8.720,19.981 8.720 C 19.992 8.720,20.000 9.617,20.000 10.713 C 20.000 12.926,20.007 12.995,20.249 13.229 C 20.442 13.416,20.647 13.487,20.997 13.488 C 21.501 13.490,21.827 13.289,21.941 12.904 C 22.026 12.617,22.027 7.555,21.942 7.155 C 21.841 6.676,21.586 6.292,21.164 5.983 C 20.808 5.722,12.833 1.321,12.568 1.239 C 12.234 1.136,11.748 1.137,11.420 1.241 M15.509 5.092 C 17.383 6.130,18.918 6.989,18.918 7.000 C 18.919 7.017,17.969 7.552,16.841 8.169 L 16.496 8.357 13.060 6.449 C 11.170 5.399,9.625 4.522,9.627 4.500 C 9.633 4.435,11.972 3.156,12.039 3.181 C 12.073 3.193,13.634 4.053,15.509 5.092 M11.075 7.629 C 12.888 8.637,14.371 9.479,14.371 9.501 C 14.373 9.556,12.075 10.838,11.993 10.828 C 11.918 10.819,5.081 7.032,5.082 7.000 C 5.082 6.989,5.626 6.680,6.290 6.313 L 7.497 5.647 7.638 5.721 C 7.716 5.762,9.263 6.620,11.075 7.629 M7.536 10.660 L 10.997 12.580 10.999 16.433 C 11.000 18.979,10.986 20.282,10.960 20.273 C 10.938 20.266,9.363 19.396,7.461 18.340 L 4.001 16.420 4.001 12.567 C 4.000 10.227,4.015 8.719,4.037 8.727 C 4.057 8.734,5.632 9.604,7.536 10.660 M16.171 15.019 C 15.968 15.108,15.637 15.440,15.535 15.660 C 15.305 16.150,15.392 16.301,16.596 17.500 C 17.126 18.028,17.560 18.478,17.560 18.500 C 17.560 18.522,17.126 18.972,16.596 19.500 C 15.587 20.504,15.441 20.694,15.441 21.000 C 15.441 21.213,15.605 21.519,15.835 21.732 C 16.075 21.956,16.267 22.047,16.500 22.047 C 16.823 22.047,16.933 21.963,17.990 20.909 L 19.000 19.902 20.010 20.909 C 21.067 21.963,21.177 22.047,21.500 22.047 C 21.733 22.047,21.925 21.956,22.165 21.732 C 22.395 21.519,22.559 21.213,22.559 21.000 C 22.559 20.694,22.413 20.504,21.404 19.500 C 20.874 18.972,20.440 18.522,20.440 18.500 C 20.440 18.478,20.874 18.028,21.404 17.500 C 22.413 16.496,22.559 16.306,22.559 16.000 C 22.559 15.683,22.169 15.163,21.820 15.018 C 21.640 14.942,21.355 14.944,21.169 15.022 C 21.072 15.062,20.668 15.435,20.010 16.091 L 19.000 17.098 17.990 16.091 C 17.332 15.435,16.928 15.062,16.831 15.022 C 16.648 14.946,16.343 14.944,16.171 15.019 " stroke="none" fill-rule="evenodd" fill="black"></path></svg>