<svg width="24" height="24" viewBox="0 0 24 24" fill="none" xmlns="http://www.w3.org/2000/svg"><path d="M10.171 1.019 C 9.968 1.108,9.637 1.440,9.535 1.660 C 9.358 2.037,9.445 2.340,9.851 2.750 L 10.098 3.000 6.456 6.650 C 2.653 10.461,2.445 10.686,2.119 11.342 C 1.861 11.863,1.751 12.356,1.751 13.000 C 1.751 13.644,1.861 14.137,2.119 14.658 C 2.442 15.308,2.674 15.562,5.836 18.722 C 9.045 21.929,9.204 22.073,9.900 22.403 C 10.450 22.663,10.808 22.738,11.500 22.738 C 11.998 22.738,12.158 22.723,12.440 22.647 C 12.899 22.524,13.425 22.260,13.860 21.936 C 14.321 21.591,21.529 14.413,21.762 14.066 C 22.145 13.495,22.180 12.696,21.849 12.060 C 21.710 11.792,11.105 1.159,10.857 1.039 C 10.667 0.946,10.359 0.937,10.171 1.019 M15.320 8.220 L 19.100 12.000 11.567 12.000 L 4.033 12.000 4.166 11.830 C 4.240 11.737,4.461 11.489,4.658 11.280 C 5.321 10.577,11.459 4.440,11.500 4.440 C 11.522 4.440,13.241 6.141,15.320 8.220 M16.760 16.344 C 14.041 19.067,12.857 20.211,12.528 20.434 C 12.192 20.663,11.932 20.740,11.500 20.740 C 10.878 20.740,10.557 20.577,9.828 19.890 C 8.509 18.647,4.506 14.602,4.167 14.170 L 4.033 14.000 11.567 14.000 L 19.100 14.000 16.760 16.344 " stroke="none" fill-rule="evenodd" fill="black"></path></svg>