<svg width="24" height="24" viewBox="0 0 24 24" fill="none" xmlns="http://www.w3.org/2000/svg"><path d="M7.626 1.045 C 7.420 1.154,7.146 1.433,7.038 1.644 C 6.855 2.002,6.944 2.326,7.345 2.759 L 7.573 3.004 4.614 5.972 C 2.986 7.604,1.561 9.066,1.446 9.220 C 1.014 9.801,0.841 10.309,0.841 11.000 C 0.841 11.690,1.014 12.197,1.446 12.780 C 1.717 13.145,6.855 18.283,7.220 18.554 C 7.803 18.986,8.310 19.159,9.000 19.159 C 9.690 19.159,10.198 18.986,10.780 18.554 C 11.206 18.237,17.077 12.357,17.271 12.053 C 17.678 11.414,17.677 10.585,17.270 9.947 C 17.054 9.608,8.614 1.164,8.372 1.044 C 8.152 0.934,7.834 0.935,7.626 1.045 M11.800 7.220 L 14.580 10.000 9.000 10.000 L 3.420 10.000 6.200 7.220 C 7.729 5.691,8.989 4.440,9.000 4.440 C 9.011 4.440,10.271 5.691,11.800 7.220 M19.659 12.035 C 19.295 12.200,18.282 13.301,17.703 14.160 C 17.403 14.605,17.174 15.089,17.072 15.494 C 16.875 16.270,17.121 17.240,17.679 17.891 C 18.107 18.391,18.570 18.702,19.160 18.886 C 19.418 18.967,19.539 18.980,20.020 18.977 C 20.508 18.974,20.620 18.961,20.887 18.872 C 22.087 18.474,22.913 17.425,22.988 16.202 C 23.016 15.732,22.926 15.328,22.679 14.823 C 22.402 14.256,22.081 13.804,21.396 13.020 C 20.531 12.028,20.150 11.812,19.659 12.035 M12.080 14.494 C 10.208 16.361,9.534 17.009,9.397 17.074 C 9.156 17.188,8.844 17.188,8.603 17.074 C 8.466 17.009,7.792 16.361,5.920 14.494 L 3.420 12.001 9.000 12.001 L 14.580 12.001 12.080 14.494 M20.238 14.741 C 20.542 15.116,20.858 15.599,20.941 15.817 C 21.003 15.979,21.006 16.033,20.965 16.212 C 20.728 17.239,19.306 17.255,19.035 16.233 C 18.974 16.005,19.014 15.847,19.224 15.494 C 19.393 15.209,19.947 14.480,19.994 14.480 C 20.012 14.480,20.121 14.597,20.238 14.741 M1.649 21.039 C 1.442 21.088,1.209 21.266,1.111 21.450 C 1.035 21.592,1.020 21.682,1.020 22.000 C 1.020 22.331,1.033 22.403,1.120 22.558 C 1.232 22.757,1.416 22.900,1.643 22.961 C 1.742 22.987,3.929 22.998,8.087 22.991 L 14.380 22.980 14.540 22.894 C 14.875 22.715,14.978 22.504,14.978 22.000 C 14.978 21.567,14.899 21.356,14.678 21.199 C 14.388 20.992,14.643 21.000,7.984 21.004 C 4.572 21.006,1.721 21.022,1.649 21.039 " stroke="none" fill-rule="evenodd" fill="black"></path></svg>