<svg width="24" height="24" viewBox="0 0 24 24" fill="none" xmlns="http://www.w3.org/2000/svg"><path d="M5.530 3.085 C 5.392 3.152,5.248 3.254,5.210 3.311 C 5.171 3.369,4.463 4.101,3.635 4.938 C 2.635 5.949,2.099 6.520,2.040 6.637 C 1.863 6.989,1.952 7.354,2.299 7.701 C 2.646 8.048,3.012 8.137,3.363 7.959 C 3.469 7.905,3.832 7.580,4.270 7.147 L 5.000 6.425 5.000 12.000 L 5.000 17.575 4.270 16.853 C 3.856 16.444,3.467 16.094,3.372 16.045 C 3.021 15.868,2.640 15.958,2.299 16.299 C 1.952 16.646,1.863 17.011,2.040 17.363 C 2.099 17.480,2.635 18.051,3.635 19.062 C 4.463 19.899,5.174 20.634,5.216 20.697 C 5.318 20.850,5.762 21.049,6.000 21.049 C 6.238 21.049,6.682 20.850,6.784 20.697 C 6.826 20.634,7.537 19.899,8.365 19.062 C 9.365 18.051,9.901 17.480,9.960 17.363 C 10.137 17.011,10.048 16.646,9.701 16.299 C 9.360 15.958,8.979 15.868,8.628 16.045 C 8.533 16.094,8.144 16.444,7.730 16.853 L 7.000 17.575 7.000 12.000 L 7.000 6.425 7.730 7.147 C 8.168 7.580,8.531 7.905,8.637 7.959 C 8.988 8.137,9.354 8.048,9.701 7.701 C 10.048 7.354,10.137 6.989,9.960 6.637 C 9.901 6.520,9.365 5.949,8.365 4.938 C 7.537 4.101,6.829 3.369,6.790 3.311 C 6.752 3.254,6.604 3.151,6.460 3.083 C 6.113 2.919,5.873 2.920,5.530 3.085 M12.614 5.057 C 12.377 5.131,12.212 5.261,12.109 5.453 C 12.035 5.592,12.020 5.684,12.020 6.000 C 12.020 6.331,12.033 6.403,12.120 6.558 C 12.230 6.755,12.414 6.898,12.635 6.959 C 12.833 7.014,21.167 7.014,21.365 6.959 C 21.586 6.898,21.770 6.755,21.880 6.558 C 21.967 6.402,21.980 6.332,21.979 6.000 C 21.978 5.567,21.898 5.355,21.678 5.199 C 21.393 4.996,21.487 5.000,16.984 5.003 C 13.651 5.005,12.746 5.016,12.614 5.057 M12.614 9.057 C 12.377 9.131,12.212 9.261,12.109 9.453 C 12.035 9.592,12.020 9.684,12.020 10.000 C 12.020 10.331,12.033 10.403,12.120 10.558 C 12.230 10.755,12.414 10.898,12.635 10.959 C 12.833 11.014,21.167 11.014,21.365 10.959 C 21.586 10.898,21.770 10.755,21.880 10.558 C 21.967 10.402,21.980 10.332,21.979 10.000 C 21.978 9.567,21.898 9.355,21.678 9.199 C 21.393 8.996,21.487 9.000,16.984 9.003 C 13.651 9.005,12.746 9.016,12.614 9.057 M12.614 13.057 C 12.377 13.131,12.212 13.261,12.109 13.453 C 12.035 13.592,12.020 13.684,12.020 14.000 C 12.020 14.331,12.033 14.403,12.120 14.558 C 12.230 14.755,12.414 14.898,12.635 14.959 C 12.833 15.014,21.167 15.014,21.365 14.959 C 21.586 14.898,21.770 14.755,21.880 14.558 C 21.967 14.402,21.980 14.332,21.979 14.000 C 21.978 13.567,21.898 13.355,21.678 13.199 C 21.393 12.996,21.487 13.000,16.984 13.003 C 13.651 13.005,12.746 13.016,12.614 13.057 M12.614 17.057 C 12.377 17.131,12.212 17.261,12.109 17.453 C 12.035 17.592,12.020 17.684,12.020 18.000 C 12.020 18.331,12.033 18.403,12.120 18.558 C 12.230 18.755,12.414 18.898,12.635 18.959 C 12.833 19.014,21.167 19.014,21.365 18.959 C 21.586 18.898,21.770 18.755,21.880 18.558 C 21.967 18.402,21.980 18.332,21.979 18.000 C 21.978 17.567,21.898 17.355,21.678 17.199 C 21.393 16.996,21.487 17.000,16.984 17.003 C 13.651 17.005,12.746 17.016,12.614 17.057 " stroke="none" fill-rule="evenodd" fill="black"></path></svg>