<svg width="24" height="24" viewBox="0 0 24 24" fill="none" xmlns="http://www.w3.org/2000/svg"><path d="M2.614 5.057 C 2.377 5.131,2.212 5.261,2.109 5.453 C 2.035 5.592,2.020 5.684,2.020 6.000 C 2.020 6.331,2.033 6.403,2.120 6.558 C 2.230 6.755,2.414 6.898,2.635 6.959 C 2.835 7.015,21.165 7.015,21.365 6.959 C 21.586 6.898,21.770 6.755,21.880 6.558 C 21.967 6.402,21.980 6.332,21.979 6.000 C 21.978 5.567,21.898 5.355,21.678 5.199 C 21.385 4.990,21.877 5.000,11.984 5.003 C 4.546 5.005,2.748 5.015,2.614 5.057 M2.614 11.057 C 2.377 11.131,2.212 11.261,2.109 11.453 C 2.035 11.592,2.020 11.684,2.020 12.000 C 2.020 12.331,2.033 12.403,2.120 12.558 C 2.230 12.755,2.414 12.898,2.635 12.959 C 2.730 12.986,5.465 13.000,10.520 13.002 C 19.155 13.005,18.524 12.984,19.017 13.281 C 19.902 13.814,20.243 14.955,19.793 15.880 C 19.638 16.198,19.227 16.625,18.930 16.775 C 18.543 16.971,18.341 17.000,17.347 17.000 L 16.431 17.000 16.656 16.757 C 17.055 16.326,17.144 16.002,16.962 15.644 C 16.852 15.428,16.576 15.150,16.365 15.043 C 16.150 14.933,15.849 14.934,15.628 15.045 C 15.527 15.096,15.061 15.524,14.460 16.119 C 13.910 16.662,13.399 17.149,13.324 17.200 C 13.149 17.321,12.951 17.745,12.951 18.000 C 12.951 18.238,13.150 18.682,13.303 18.784 C 13.365 18.826,13.876 19.312,14.438 19.865 C 15.522 20.931,15.678 21.049,16.000 21.049 C 16.477 21.049,17.049 20.477,17.049 20.000 C 17.049 19.760,16.939 19.549,16.656 19.243 L 16.431 19.000 17.370 19.000 C 18.620 19.000,19.066 18.922,19.766 18.578 C 21.339 17.808,22.238 16.057,21.940 14.344 C 21.683 12.870,20.672 11.692,19.245 11.204 C 18.639 10.996,18.808 11.000,10.500 11.003 C 4.280 11.005,2.748 11.015,2.614 11.057 M2.614 17.057 C 2.377 17.131,2.212 17.261,2.109 17.453 C 2.035 17.592,2.020 17.684,2.020 18.000 C 2.020 18.331,2.033 18.403,2.120 18.558 C 2.230 18.755,2.414 18.898,2.635 18.959 C 2.833 19.014,10.167 19.014,10.365 18.959 C 10.586 18.898,10.770 18.755,10.880 18.558 C 10.967 18.402,10.980 18.332,10.979 18.000 C 10.978 17.567,10.898 17.355,10.678 17.199 C 10.395 16.997,10.449 17.000,6.484 17.003 C 3.561 17.005,2.745 17.016,2.614 17.057 " stroke="none" fill-rule="evenodd" fill="black"></path></svg>