<svg width="24" height="24" viewBox="0 0 24 24" fill="none" xmlns="http://www.w3.org/2000/svg"><path d="M14.740 1.444 C 14.439 1.480,14.151 1.588,13.896 1.760 C 13.625 1.943,11.924 3.650,11.745 3.920 C 11.547 4.216,11.434 4.588,11.422 4.979 L 11.412 5.297 8.596 5.864 C 7.047 6.176,5.700 6.460,5.602 6.496 C 5.102 6.681,4.671 7.114,4.464 7.638 C 4.426 7.736,3.658 10.868,2.758 14.598 C 1.858 18.328,1.094 21.443,1.061 21.520 C 0.949 21.781,0.925 21.989,0.978 22.220 C 1.066 22.597,1.306 22.869,1.653 22.984 C 1.930 23.076,2.095 23.068,2.463 22.945 C 2.637 22.886,5.796 22.111,9.482 21.222 C 13.168 20.333,16.264 19.574,16.362 19.536 C 16.886 19.329,17.319 18.898,17.504 18.398 C 17.540 18.300,17.824 16.953,18.136 15.404 L 18.703 12.588 19.021 12.578 C 19.412 12.566,19.784 12.453,20.080 12.255 C 20.395 12.046,22.077 10.354,22.269 10.053 C 22.678 9.417,22.678 8.585,22.270 7.947 C 22.048 7.599,16.399 1.950,16.051 1.728 C 15.678 1.490,15.207 1.388,14.740 1.444 M17.800 6.220 L 20.580 9.000 19.787 9.790 L 18.994 10.580 18.928 10.480 C 18.891 10.425,18.808 10.335,18.743 10.280 C 18.588 10.149,13.851 5.412,13.720 5.257 C 13.665 5.192,13.575 5.109,13.520 5.072 L 13.420 5.006 14.200 4.223 C 14.628 3.792,14.988 3.440,15.000 3.440 C 15.011 3.440,16.271 4.691,17.800 6.220 M14.788 9.210 L 16.915 11.340 16.283 14.491 C 15.936 16.224,15.641 17.653,15.628 17.666 C 15.615 17.679,13.376 18.227,10.652 18.884 C 7.928 19.540,5.593 20.104,5.463 20.136 L 5.225 20.195 7.463 17.960 L 9.700 15.725 10.060 15.851 C 10.400 15.970,10.452 15.976,11.000 15.976 C 11.513 15.975,11.615 15.963,11.887 15.873 C 12.834 15.558,13.559 14.833,13.872 13.887 C 13.961 13.620,13.974 13.508,13.977 13.020 C 13.980 12.539,13.967 12.418,13.886 12.160 C 13.580 11.180,12.821 10.417,11.861 10.125 C 11.447 10.000,10.650 9.983,10.240 10.091 C 9.475 10.293,8.711 10.901,8.344 11.600 C 8.088 12.087,8.020 12.389,8.022 13.020 C 8.024 13.541,8.033 13.605,8.149 13.940 L 8.275 14.300 6.036 16.540 C 4.804 17.772,3.806 18.753,3.818 18.720 C 3.829 18.687,4.395 16.350,5.076 13.526 C 5.757 10.703,6.324 8.383,6.336 8.370 C 6.352 8.355,11.154 7.375,12.640 7.084 C 12.651 7.082,13.618 8.038,14.788 9.210 M11.334 12.064 C 11.697 12.188,12.000 12.613,12.000 13.000 C 12.000 13.236,11.880 13.514,11.699 13.694 C 11.162 14.232,10.273 14.013,10.055 13.290 C 9.944 12.921,10.030 12.576,10.301 12.306 C 10.587 12.019,10.952 11.934,11.334 12.064 " stroke="none" fill-rule="evenodd" fill="black"></path></svg>