<svg width="24" height="24" viewBox="0 0 24 24" fill="none" xmlns="http://www.w3.org/2000/svg"><path d="M16.740 2.444 C 16.439 2.480,16.151 2.588,15.896 2.760 C 15.625 2.943,13.924 4.650,13.745 4.920 C 13.529 5.244,13.430 5.587,13.425 6.035 L 13.420 6.411 10.791 7.163 C 9.230 7.609,8.053 7.967,7.891 8.044 C 7.551 8.207,7.213 8.538,7.042 8.876 C 6.966 9.026,6.158 11.591,5.038 15.233 C 4.005 18.592,3.130 21.393,3.093 21.458 C 3.005 21.613,2.922 21.975,2.948 22.090 C 3.026 22.431,3.061 22.506,3.231 22.688 C 3.450 22.921,3.511 22.958,3.790 23.024 C 4.024 23.078,4.322 23.032,4.542 22.907 C 4.607 22.870,7.386 22.001,10.719 20.977 C 14.051 19.953,16.909 19.054,17.070 18.979 C 17.446 18.805,17.795 18.465,17.961 18.110 C 18.026 17.970,18.420 16.669,18.834 15.218 L 19.589 12.580 19.965 12.575 C 20.413 12.570,20.756 12.471,21.080 12.255 C 21.395 12.046,23.077 10.354,23.269 10.053 C 23.678 9.417,23.678 8.585,23.270 7.947 C 23.049 7.601,18.397 2.949,18.051 2.728 C 17.679 2.490,17.207 2.388,16.740 2.444 M1.649 4.039 C 1.441 4.089,1.209 4.266,1.111 4.450 C 1.034 4.593,1.020 4.680,1.021 5.000 C 1.023 5.505,1.126 5.715,1.460 5.894 C 1.620 5.980,1.621 5.980,5.000 5.980 C 8.379 5.980,8.380 5.980,8.540 5.894 C 8.874 5.715,8.978 5.504,8.979 5.000 C 8.980 4.668,8.967 4.598,8.880 4.442 C 8.816 4.328,8.709 4.219,8.583 4.142 L 8.386 4.020 5.083 4.014 C 3.266 4.010,1.721 4.021,1.649 4.039 M19.300 6.720 L 21.580 9.000 20.791 9.789 L 20.002 10.577 17.713 8.288 L 15.423 5.998 16.201 5.219 C 16.629 4.791,16.988 4.440,17.000 4.440 C 17.011 4.440,18.046 5.466,19.300 6.720 M16.288 9.710 L 17.876 11.300 17.035 14.240 C 16.573 15.856,16.187 17.186,16.178 17.195 C 16.154 17.219,7.627 19.840,7.614 19.827 C 7.608 19.821,8.300 19.121,9.152 18.271 L 10.700 16.726 11.060 16.851 C 11.400 16.970,11.452 16.976,12.000 16.976 C 12.513 16.975,12.615 16.963,12.887 16.873 C 13.834 16.558,14.559 15.833,14.872 14.887 C 14.961 14.620,14.974 14.508,14.977 14.020 C 14.980 13.539,14.967 13.418,14.886 13.160 C 14.580 12.180,13.821 11.417,12.861 11.125 C 12.447 11.000,11.650 10.983,11.240 11.091 C 10.475 11.293,9.711 11.901,9.344 12.600 C 9.088 13.087,9.020 13.389,9.022 14.020 C 9.024 14.541,9.033 14.605,9.149 14.940 L 9.274 15.300 7.729 16.848 C 6.879 17.700,6.179 18.392,6.173 18.386 C 6.160 18.373,8.781 9.846,8.805 9.822 C 8.817 9.810,14.580 8.144,14.680 8.124 C 14.691 8.122,15.415 8.835,16.288 9.710 M12.334 13.064 C 12.697 13.188,13.000 13.613,13.000 14.000 C 13.000 14.236,12.880 14.514,12.699 14.694 C 12.162 15.232,11.273 15.013,11.055 14.290 C 10.944 13.921,11.030 13.576,11.301 13.306 C 11.587 13.019,11.952 12.934,12.334 13.064 " stroke="none" fill-rule="evenodd" fill="black"></path></svg>