<svg width="24" height="24" viewBox="0 0 24 24" fill="none" xmlns="http://www.w3.org/2000/svg"><path d="M17.626 1.045 C 17.420 1.154,17.146 1.433,17.038 1.644 C 16.924 1.867,16.924 2.132,17.039 2.363 C 17.164 2.612,21.388 6.836,21.637 6.961 C 21.990 7.137,22.355 7.048,22.701 6.701 C 23.048 6.355,23.137 5.990,22.961 5.637 C 22.840 5.396,18.612 1.164,18.372 1.044 C 18.152 0.934,17.835 0.935,17.626 1.045 M14.679 4.252 C 14.557 4.280,14.368 4.353,14.259 4.416 C 14.121 4.494,12.335 6.254,8.475 10.115 C 2.483 16.107,2.692 15.884,2.480 16.500 C 2.353 16.868,1.042 21.692,1.015 21.892 C 0.964 22.261,1.194 22.753,1.497 22.924 C 1.789 23.089,1.887 23.070,4.680 22.308 C 6.099 21.920,7.368 21.566,7.499 21.520 C 8.109 21.310,7.901 21.505,13.905 15.503 C 19.236 10.175,19.517 9.886,19.645 9.621 C 19.766 9.371,19.780 9.306,19.780 9.000 C 19.780 8.693,19.766 8.630,19.645 8.379 C 19.521 8.124,19.363 7.953,17.785 6.368 C 16.805 5.384,15.959 4.567,15.826 4.478 C 15.475 4.242,15.076 4.163,14.679 4.252 M16.300 7.720 L 17.580 9.000 12.320 14.261 C 8.741 17.840,7.009 19.546,6.900 19.598 C 6.727 19.681,3.482 20.576,3.455 20.548 C 3.433 20.527,4.346 17.183,4.405 17.067 C 4.447 16.983,14.959 6.440,15.000 6.440 C 15.011 6.440,15.596 7.016,16.300 7.720 " stroke="none" fill-rule="evenodd" fill="black"></path></svg>