<svg width="24" height="24" viewBox="0 0 24 24" fill="none" xmlns="http://www.w3.org/2000/svg"><path d="M18.620 4.046 C 18.381 4.168,4.155 18.405,4.039 18.637 C 3.864 18.990,3.953 19.355,4.299 19.701 C 4.645 20.047,5.010 20.136,5.363 19.961 C 5.615 19.835,19.835 5.615,19.961 5.363 C 20.136 5.010,20.047 4.645,19.701 4.299 C 19.362 3.959,18.968 3.867,18.620 4.046 M5.940 4.574 C 5.489 4.723,5.042 5.063,4.800 5.441 C 4.412 6.045,4.410 6.953,4.797 7.555 C 5.179 8.151,5.799 8.492,6.500 8.492 C 7.052 8.492,7.469 8.326,7.869 7.948 C 8.299 7.541,8.488 7.100,8.488 6.500 C 8.488 5.690,8.071 5.043,7.320 4.684 C 7.036 4.548,6.996 4.540,6.560 4.531 C 6.262 4.525,6.044 4.540,5.940 4.574 M16.940 15.574 C 16.489 15.723,16.042 16.063,15.800 16.441 C 15.412 17.045,15.410 17.953,15.797 18.555 C 16.179 19.151,16.799 19.492,17.500 19.492 C 18.052 19.492,18.469 19.326,18.869 18.948 C 19.299 18.541,19.488 18.100,19.488 17.500 C 19.488 16.690,19.071 16.043,18.320 15.684 C 18.036 15.548,17.996 15.540,17.560 15.531 C 17.262 15.525,17.044 15.540,16.940 15.574 " stroke="none" fill-rule="evenodd" fill="black"></path></svg>