<svg width="24" height="24" viewBox="0 0 24 24" fill="none" xmlns="http://www.w3.org/2000/svg"><path d="M6.020 1.583 C 5.379 1.732,5.060 1.871,4.660 2.172 C 4.281 2.458,2.802 3.981,2.588 4.306 C 2.255 4.811,2.048 5.398,1.957 6.095 C 1.873 6.735,1.990 7.385,2.440 8.780 C 2.861 10.083,3.573 11.650,4.286 12.840 C 4.825 13.741,5.096 13.972,5.532 13.903 C 5.872 13.848,6.301 13.547,6.436 13.268 C 6.612 12.905,6.555 12.712,6.003 11.800 C 5.152 10.392,4.438 8.692,4.037 7.120 C 3.894 6.556,3.928 6.082,4.146 5.614 C 4.346 5.184,5.822 3.706,6.149 3.608 C 6.383 3.538,6.635 3.551,6.840 3.643 C 7.057 3.742,8.365 5.020,8.484 5.250 C 8.600 5.475,8.620 5.712,8.543 5.976 C 8.485 6.175,8.423 6.260,8.048 6.652 C 7.812 6.898,7.572 7.181,7.514 7.280 C 7.256 7.722,7.167 8.381,7.304 8.842 C 7.340 8.961,7.493 9.307,7.646 9.611 C 8.038 10.395,8.284 10.640,8.678 10.640 C 9.030 10.640,9.529 10.356,9.704 10.056 C 9.797 9.898,9.808 9.844,9.791 9.627 C 9.774 9.424,9.723 9.284,9.502 8.844 L 9.234 8.309 9.470 8.064 C 9.880 7.639,10.071 7.405,10.212 7.149 C 10.733 6.207,10.713 5.086,10.159 4.154 C 9.969 3.835,8.821 2.632,8.320 2.229 C 7.994 1.966,7.597 1.760,7.220 1.657 C 6.989 1.594,6.186 1.545,6.020 1.583 M20.620 2.046 C 20.380 2.169,2.155 20.404,2.039 20.637 C 1.864 20.990,1.953 21.355,2.299 21.701 C 2.646 22.048,3.010 22.137,3.363 21.960 C 3.485 21.899,4.229 21.185,5.780 19.640 L 8.020 17.408 8.380 17.724 C 10.006 19.154,11.981 20.368,13.980 21.168 C 14.981 21.568,16.335 21.993,16.953 22.101 C 17.968 22.278,19.118 22.003,19.946 21.385 C 20.282 21.134,21.301 20.148,21.725 19.663 C 22.059 19.282,22.252 18.951,22.405 18.500 C 22.488 18.255,22.500 18.146,22.499 17.640 C 22.499 17.190,22.482 17.006,22.424 16.820 C 22.334 16.528,22.169 16.186,21.994 15.931 C 21.832 15.693,20.630 14.466,20.280 14.181 C 19.732 13.734,19.117 13.517,18.400 13.516 C 17.521 13.515,16.921 13.774,16.203 14.463 C 15.987 14.670,15.789 14.840,15.764 14.840 C 15.637 14.840,14.761 14.346,14.020 13.857 C 13.564 13.556,12.845 13.016,12.661 12.836 C 12.636 12.812,14.296 11.123,17.247 8.169 C 20.556 4.857,21.897 3.490,21.961 3.363 C 22.137 3.010,22.048 2.645,21.701 2.299 C 21.362 1.959,20.968 1.867,20.620 2.046 M11.537 14.499 C 12.497 15.315,13.990 16.265,14.964 16.679 C 15.294 16.819,15.698 16.881,16.008 16.839 C 16.544 16.765,16.826 16.611,17.372 16.094 C 17.616 15.863,17.886 15.638,17.972 15.594 C 18.185 15.485,18.568 15.484,18.804 15.590 C 19.036 15.695,20.362 17.032,20.455 17.255 C 20.545 17.469,20.537 17.819,20.437 18.040 C 20.313 18.314,18.815 19.790,18.520 19.928 C 18.246 20.056,17.831 20.160,17.597 20.160 C 17.060 20.159,15.215 19.559,13.920 18.963 C 12.477 18.300,10.893 17.271,9.707 16.227 L 9.434 15.987 10.307 15.113 C 10.787 14.633,11.191 14.240,11.206 14.240 C 11.221 14.240,11.370 14.357,11.537 14.499 " stroke="none" fill-rule="evenodd" fill="black"></path></svg>