<svg width="24" height="24" viewBox="0 0 24 24" fill="none" xmlns="http://www.w3.org/2000/svg"><path d="M17.171 2.019 C 16.968 2.108,16.637 2.440,16.535 2.660 C 16.305 3.150,16.392 3.301,17.596 4.500 C 18.126 5.028,18.560 5.473,18.560 5.490 C 18.560 5.506,17.250 5.520,15.650 5.520 C 13.722 5.520,12.688 5.535,12.587 5.563 C 12.355 5.627,12.132 5.852,12.060 6.092 C 11.935 6.513,12.017 7.004,12.249 7.229 C 12.542 7.513,12.374 7.499,15.638 7.512 L 18.576 7.523 17.590 8.512 C 16.565 9.538,16.442 9.698,16.441 10.000 C 16.440 10.320,16.832 10.837,17.188 10.986 C 17.377 11.065,17.627 11.063,17.823 10.981 C 17.934 10.935,18.504 10.397,19.765 9.148 C 20.747 8.176,21.623 7.321,21.711 7.250 C 21.889 7.104,22.048 6.751,22.048 6.500 C 22.048 6.249,21.889 5.896,21.711 5.750 C 21.623 5.679,20.747 4.824,19.765 3.852 C 18.560 2.659,17.932 2.064,17.831 2.022 C 17.648 1.946,17.343 1.944,17.171 2.019 M5.020 2.583 C 4.379 2.732,4.060 2.871,3.660 3.172 C 3.281 3.458,1.802 4.981,1.588 5.306 C 1.255 5.811,1.048 6.398,0.957 7.095 C 0.867 7.778,1.006 8.483,1.540 10.064 C 2.516 12.954,4.102 15.499,6.300 17.702 C 8.508 19.915,10.827 21.396,13.760 22.467 C 14.337 22.677,15.573 23.035,15.953 23.101 C 16.968 23.278,18.118 23.003,18.946 22.385 C 19.282 22.134,20.301 21.148,20.725 20.663 C 21.059 20.282,21.252 19.951,21.405 19.500 C 21.488 19.255,21.500 19.146,21.499 18.640 C 21.499 18.190,21.482 18.006,21.424 17.820 C 21.334 17.528,21.169 17.186,20.994 16.931 C 20.832 16.693,19.630 15.466,19.280 15.181 C 18.732 14.734,18.117 14.517,17.400 14.516 C 16.521 14.515,15.921 14.774,15.203 15.463 C 14.987 15.670,14.789 15.840,14.764 15.840 C 14.637 15.840,13.761 15.346,13.020 14.857 C 11.120 13.603,9.497 11.792,8.474 9.785 L 8.232 9.310 8.469 9.065 C 8.880 8.639,9.070 8.405,9.212 8.149 C 9.734 7.205,9.713 6.086,9.157 5.150 C 8.965 4.827,7.831 3.641,7.320 3.229 C 6.994 2.966,6.598 2.760,6.220 2.657 C 5.989 2.594,5.186 2.545,5.020 2.583 M5.840 4.643 C 6.057 4.742,7.365 6.020,7.484 6.250 C 7.600 6.475,7.620 6.712,7.543 6.976 C 7.485 7.175,7.423 7.260,7.048 7.652 C 6.812 7.898,6.572 8.181,6.514 8.280 C 6.256 8.721,6.168 9.378,6.303 9.843 C 6.385 10.124,6.949 11.218,7.300 11.777 C 8.261 13.305,9.440 14.624,10.884 15.785 C 11.676 16.423,13.170 17.341,13.964 17.679 C 14.294 17.819,14.698 17.881,15.008 17.839 C 15.544 17.765,15.826 17.611,16.372 17.094 C 16.901 16.593,17.037 16.514,17.378 16.513 C 17.785 16.510,17.895 16.584,18.685 17.385 C 19.449 18.159,19.521 18.266,19.519 18.635 C 19.518 19.026,19.436 19.141,18.547 20.023 C 17.677 20.886,17.565 20.965,17.037 21.095 C 16.585 21.207,16.330 21.172,15.260 20.854 C 11.401 19.708,7.909 17.128,5.553 13.680 C 4.446 12.060,3.537 10.060,3.054 8.180 C 2.893 7.556,2.920 7.099,3.146 6.614 C 3.333 6.212,4.818 4.709,5.125 4.611 C 5.346 4.541,5.643 4.554,5.840 4.643 " stroke="none" fill-rule="evenodd" fill="black"></path></svg>