<svg width="24" height="24" viewBox="0 0 24 24" fill="none" xmlns="http://www.w3.org/2000/svg"><path d="M11.996 1.099 C 11.613 1.240,11.264 1.578,11.111 1.954 L 11.020 2.180 11.020 7.020 L 11.020 11.860 11.144 12.120 C 11.301 12.450,11.550 12.699,11.880 12.856 L 12.140 12.980 16.980 12.980 L 21.820 12.980 22.050 12.887 C 22.345 12.768,22.687 12.456,22.819 12.185 C 22.986 11.845,23.014 11.551,22.941 10.903 C 22.707 8.817,21.997 7.006,20.770 5.363 C 20.370 4.828,19.308 3.745,18.800 3.353 C 17.193 2.116,15.379 1.359,13.403 1.100 C 12.845 1.027,12.192 1.026,11.996 1.099 M7.751 1.864 C 7.449 1.957,6.438 2.491,5.935 2.823 C 5.160 3.334,4.609 3.806,3.928 4.539 C 2.384 6.201,1.442 8.194,1.092 10.540 C 0.984 11.268,0.994 12.869,1.112 13.592 C 1.520 16.090,2.580 18.157,4.327 19.865 C 5.645 21.152,7.065 21.983,8.895 22.538 C 11.045 23.189,13.364 23.140,15.564 22.397 C 18.284 21.478,20.585 19.455,21.860 16.861 C 22.247 16.074,22.311 15.780,22.163 15.455 C 22.027 15.155,21.536 14.878,21.130 14.872 C 20.683 14.866,20.535 15.011,20.118 15.859 C 19.606 16.902,19.069 17.655,18.305 18.401 C 17.555 19.134,16.835 19.646,15.940 20.080 C 14.085 20.981,12.043 21.222,10.047 20.776 C 7.131 20.124,4.715 18.056,3.626 15.278 C 2.158 11.532,3.365 7.257,6.580 4.816 C 7.034 4.471,7.355 4.276,8.113 3.884 C 8.683 3.588,8.794 3.516,8.898 3.367 C 9.067 3.126,9.070 2.771,8.907 2.420 C 8.655 1.878,8.284 1.700,7.751 1.864 M13.800 3.186 C 16.730 3.776,19.222 5.852,20.338 8.634 C 20.621 9.339,20.833 10.133,20.902 10.750 L 20.930 11.000 16.965 11.000 L 13.000 11.000 13.000 7.035 L 13.000 3.070 13.250 3.098 C 13.388 3.113,13.635 3.153,13.800 3.186 " stroke="none" fill-rule="evenodd" fill="black"></path></svg>