<svg width="24" height="24" viewBox="0 0 24 24" fill="none" xmlns="http://www.w3.org/2000/svg"><path d="M9.860 3.047 C 8.632 3.185,7.479 3.751,6.579 4.659 C 4.483 6.771,4.480 10.201,6.573 12.333 C 7.443 13.220,8.496 13.756,9.729 13.941 C 10.039 13.988,10.619 14.000,12.560 14.000 L 15.000 14.000 15.000 16.500 L 15.000 19.000 14.406 19.000 C 13.577 19.000,13.300 19.097,13.109 19.453 C 13.035 19.592,13.020 19.684,13.020 20.000 C 13.020 20.331,13.033 20.403,13.120 20.558 C 13.230 20.755,13.414 20.898,13.635 20.959 C 13.831 21.014,18.169 21.014,18.365 20.959 C 18.586 20.898,18.770 20.755,18.880 20.558 C 18.967 20.402,18.980 20.332,18.979 20.000 C 18.978 19.687,18.962 19.591,18.890 19.453 C 18.702 19.097,18.424 19.000,17.594 19.000 L 17.000 19.000 17.000 12.000 L 17.000 5.000 17.610 5.000 C 17.945 5.000,18.285 4.981,18.365 4.959 C 18.586 4.898,18.770 4.755,18.880 4.558 C 18.967 4.402,18.980 4.332,18.979 4.000 C 18.978 3.567,18.898 3.355,18.678 3.199 C 18.394 2.996,18.473 3.000,14.184 3.005 C 11.982 3.008,10.036 3.027,9.860 3.047 M15.000 8.502 L 15.000 12.004 12.430 11.990 C 9.934 11.977,9.852 11.974,9.580 11.891 C 8.568 11.580,7.811 10.943,7.342 10.005 C 7.095 9.513,7.028 9.191,7.028 8.500 C 7.028 8.017,7.044 7.840,7.111 7.595 C 7.467 6.286,8.634 5.235,9.942 5.044 C 10.073 5.025,11.264 5.008,12.590 5.005 L 15.000 5.000 15.000 8.502 " stroke="none" fill-rule="evenodd" fill="black"></path></svg>