<svg width="24" height="24" viewBox="0 0 24 24" fill="none" xmlns="http://www.w3.org/2000/svg"><path d="M8.400 3.044 C 6.761 3.229,5.261 4.290,4.526 5.785 C 4.158 6.533,4.020 7.136,4.020 8.000 C 4.020 8.448,4.040 8.714,4.093 8.960 C 4.523 10.968,5.970 12.429,8.000 12.904 C 8.264 12.966,8.584 12.976,10.650 12.989 L 13.000 13.004 13.000 16.002 L 13.000 19.000 12.406 19.000 C 11.577 19.000,11.300 19.097,11.109 19.453 C 11.035 19.592,11.020 19.684,11.020 20.000 C 11.020 20.331,11.033 20.403,11.120 20.558 C 11.230 20.755,11.414 20.898,11.635 20.959 C 11.728 20.985,13.211 21.000,15.743 21.000 C 20.120 21.000,19.981 21.008,20.229 20.751 C 20.418 20.556,20.486 20.355,20.486 19.997 C 20.486 19.491,20.303 19.196,19.909 19.064 C 19.767 19.017,19.560 19.000,19.119 19.000 L 18.520 19.000 18.520 12.000 L 18.520 5.000 19.113 5.000 C 19.806 5.000,20.038 4.948,20.229 4.751 C 20.418 4.556,20.486 4.355,20.486 3.997 C 20.486 3.491,20.303 3.196,19.909 3.064 C 19.737 3.006,19.158 3.001,14.209 3.005 C 11.179 3.008,8.565 3.026,8.400 3.044 M13.000 8.002 L 13.000 11.004 10.710 10.991 C 8.438 10.978,8.418 10.977,8.140 10.885 C 7.160 10.560,6.415 9.811,6.125 8.861 C 6.042 8.588,6.027 8.458,6.027 8.000 C 6.027 7.542,6.042 7.412,6.125 7.139 C 6.456 6.054,7.390 5.229,8.499 5.043 C 8.609 5.025,9.668 5.007,10.850 5.005 L 13.000 5.000 13.000 8.002 M16.480 12.000 L 16.480 19.000 15.740 19.000 L 15.000 19.000 15.000 12.000 L 15.000 5.000 15.740 5.000 L 16.480 5.000 16.480 12.000 " stroke="none" fill-rule="evenodd" fill="black"></path></svg>