<svg version="1.1" xmlns="http://www.w3.org/2000/svg" width="32" height="32" viewBox="0 0 32 32"><path d="M15.440 0.306 C 12.104 0.402,8.900 1.589,6.181 3.736 C 5.480 4.290,4.256 5.514,3.690 6.228 C 1.894 8.492,0.773 11.157,0.393 14.062 C 0.272 14.987,0.272 16.843,0.394 17.787 C 0.638 19.681,1.105 21.247,1.921 22.907 C 2.730 24.554,3.540 25.677,4.905 27.043 C 6.764 28.905,8.732 30.113,11.188 30.902 C 13.506 31.646,16.143 31.837,18.560 31.435 C 21.774 30.901,24.662 29.415,26.993 27.096 C 27.452 26.640,28.021 26.020,28.259 25.718 C 32.008 20.965,32.716 14.648,30.111 9.200 C 28.915 6.700,26.997 4.492,24.672 2.938 C 21.945 1.116,18.766 0.210,15.440 0.306 M18.293 3.059 C 22.286 3.756,25.734 6.359,27.603 10.087 C 28.502 11.879,28.896 13.478,28.946 15.533 C 28.990 17.354,28.791 18.708,28.260 20.213 C 26.631 24.833,22.712 28.068,17.813 28.837 C 16.940 28.974,14.711 28.972,13.947 28.833 C 11.539 28.396,9.600 27.523,7.787 26.061 C 7.267 25.642,6.300 24.673,5.868 24.139 C 5.017 23.087,4.164 21.593,3.708 20.354 C 3.457 19.675,3.179 18.585,3.058 17.811 C 2.940 17.054,2.923 15.001,3.029 14.267 C 3.261 12.668,3.609 11.513,4.271 10.154 C 6.235 6.120,10.206 3.411,14.853 2.936 C 15.731 2.847,17.422 2.907,18.293 3.059 M10.688 9.941 L 10.507 10.123 10.507 11.830 C 10.507 12.770,10.492 13.576,10.474 13.622 C 10.457 13.669,10.295 13.784,10.115 13.880 C 9.674 14.114,8.881 14.902,8.594 15.390 C 7.548 17.173,7.782 19.266,9.191 20.735 C 9.772 21.339,10.510 21.748,11.397 21.956 C 11.783 22.046,12.130 22.053,16.133 22.052 C 20.435 22.051,20.455 22.050,20.880 21.932 C 22.334 21.528,23.356 20.484,23.738 19.013 C 24.178 17.323,23.326 15.444,21.742 14.610 C 21.561 14.515,21.406 14.432,21.397 14.425 C 21.389 14.418,21.314 14.140,21.231 13.806 C 20.947 12.659,20.567 11.976,19.817 11.266 C 18.830 10.332,17.651 9.862,16.288 9.861 C 15.356 9.859,14.709 10.007,13.920 10.402 C 13.180 10.772,12.557 11.308,12.032 12.026 L 11.760 12.399 11.733 11.235 L 11.707 10.071 11.532 9.916 C 11.394 9.792,11.309 9.760,11.114 9.760 C 10.907 9.760,10.841 9.788,10.688 9.941 M17.733 11.112 C 19.176 11.587,20.126 12.644,20.540 14.231 C 20.607 14.490,20.658 14.904,20.677 15.360 C 20.694 15.756,20.730 16.109,20.758 16.143 C 20.856 16.268,20.948 16.148,21.066 15.744 C 21.132 15.518,21.205 15.313,21.228 15.287 C 21.286 15.225,21.688 15.510,22.017 15.846 C 22.322 16.157,22.612 16.672,22.748 17.142 C 22.853 17.506,22.867 18.240,22.776 18.634 C 22.604 19.382,22.070 20.018,21.280 20.415 C 20.491 20.811,20.575 20.806,15.901 20.789 L 11.760 20.773 11.333 20.628 C 10.355 20.294,9.665 19.604,9.320 18.613 C 9.219 18.322,9.201 18.161,9.204 17.600 C 9.207 17.006,9.224 16.890,9.357 16.533 C 9.659 15.724,10.177 15.015,10.721 14.666 C 11.153 14.389,11.568 14.282,12.267 14.269 C 13.026 14.254,13.013 14.256,13.013 14.165 C 13.013 14.051,12.742 13.846,12.448 13.737 C 12.304 13.683,12.165 13.620,12.139 13.596 C 12.059 13.523,12.530 12.857,12.987 12.395 C 13.671 11.704,14.427 11.259,15.291 11.040 C 15.636 10.953,15.843 10.938,16.507 10.953 C 17.196 10.969,17.365 10.991,17.733 11.112 M13.597 14.179 C 13.500 14.257,13.470 14.345,13.451 14.604 C 13.438 14.783,13.443 15.014,13.462 15.116 C 13.521 15.427,13.599 15.467,14.156 15.467 C 14.815 15.467,14.853 15.428,14.853 14.763 C 14.853 14.324,14.843 14.275,14.727 14.182 C 14.547 14.036,13.775 14.034,13.597 14.179 M15.585 14.163 C 15.476 14.239,15.467 14.289,15.467 14.768 C 15.467 15.446,15.486 15.467,16.141 15.467 C 16.798 15.467,16.822 15.445,16.845 14.834 C 16.863 14.377,16.857 14.345,16.728 14.216 C 16.604 14.092,16.552 14.080,16.148 14.080 C 15.832 14.080,15.669 14.104,15.585 14.163 M17.549 14.174 C 17.444 14.259,17.432 14.319,17.432 14.766 C 17.432 15.442,17.457 15.467,18.115 15.467 C 18.788 15.467,18.827 15.429,18.827 14.773 C 18.827 14.122,18.785 14.080,18.139 14.080 C 17.765 14.080,17.641 14.100,17.549 14.174 M13.761 16.097 C 13.523 16.144,13.442 16.304,13.441 16.725 C 13.440 17.201,13.514 17.373,13.751 17.439 C 14.001 17.508,14.320 17.508,14.570 17.438 C 14.728 17.394,14.778 17.347,14.829 17.194 C 14.912 16.943,14.874 16.291,14.771 16.188 C 14.681 16.098,14.049 16.041,13.761 16.097 M15.707 16.089 C 15.511 16.138,15.467 16.265,15.467 16.775 C 15.467 17.428,15.507 17.468,16.166 17.464 C 16.790 17.461,16.821 17.432,16.845 16.810 C 16.870 16.165,16.815 16.099,16.237 16.078 C 16.004 16.069,15.765 16.074,15.707 16.089 M17.600 16.122 C 17.475 16.185,17.466 16.218,17.451 16.668 C 17.442 16.931,17.448 17.199,17.464 17.263 C 17.505 17.426,17.801 17.509,18.251 17.484 C 18.767 17.454,18.827 17.378,18.827 16.745 C 18.827 16.300,18.819 16.268,18.686 16.164 C 18.572 16.074,18.470 16.053,18.139 16.054 C 17.916 16.055,17.673 16.085,17.600 16.122 M15.697 18.061 C 15.484 18.108,15.440 18.227,15.440 18.753 C 15.440 19.406,15.466 19.434,16.106 19.459 C 16.556 19.476,16.588 19.470,16.717 19.341 C 16.842 19.217,16.853 19.166,16.853 18.755 C 16.853 18.130,16.799 18.068,16.235 18.049 C 16.003 18.041,15.761 18.047,15.697 18.061 M17.655 18.083 C 17.460 18.165,17.442 18.221,17.441 18.750 C 17.440 19.410,17.462 19.435,18.062 19.458 C 18.480 19.474,18.550 19.463,18.680 19.361 C 18.820 19.251,18.827 19.225,18.827 18.775 C 18.827 18.125,18.771 18.059,18.205 18.041 C 17.975 18.034,17.727 18.053,17.655 18.083 M13.570 18.156 C 13.480 18.221,13.467 18.298,13.467 18.740 C 13.467 19.419,13.487 19.440,14.160 19.440 C 14.833 19.440,14.853 19.419,14.853 18.740 C 14.853 18.298,14.840 18.221,14.750 18.156 C 14.606 18.051,13.714 18.051,13.570 18.156 " stroke="none" fill-rule="evenodd" fill="black"></path></svg>