<svg width="24" height="24" viewBox="0 0 24 24" fill="none" xmlns="http://www.w3.org/2000/svg"><path d="M11.614 4.057 C 11.377 4.131,11.212 4.261,11.109 4.453 L 11.020 4.620 11.009 7.810 L 10.998 11.000 7.905 11.000 C 4.599 11.000,4.601 11.000,4.322 11.199 C 4.100 11.357,4.020 11.568,4.020 12.000 C 4.020 12.331,4.033 12.403,4.120 12.558 C 4.230 12.755,4.414 12.898,4.635 12.959 C 4.726 12.985,5.930 13.000,7.890 13.000 L 11.000 13.000 11.000 16.110 C 11.000 18.070,11.015 19.274,11.041 19.365 C 11.148 19.750,11.437 19.962,11.896 19.991 C 12.381 20.022,12.699 19.882,12.880 19.558 L 12.980 19.380 12.991 16.190 L 13.002 13.000 16.111 13.000 C 18.070 13.000,19.274 12.985,19.365 12.959 C 19.586 12.898,19.770 12.755,19.880 12.558 C 19.967 12.402,19.980 12.332,19.979 12.000 C 19.978 11.567,19.898 11.355,19.678 11.199 C 19.399 11.000,19.401 11.000,16.095 11.000 L 13.002 11.000 12.991 7.810 L 12.980 4.620 12.891 4.453 C 12.842 4.362,12.746 4.247,12.678 4.199 C 12.414 4.010,11.957 3.950,11.614 4.057 " stroke="none" fill-rule="evenodd" fill="black"></path></svg>