<svg width="24" height="24" viewBox="0 0 24 24" fill="none" xmlns="http://www.w3.org/2000/svg"><path d="M11.300 1.023 C 10.035 1.149,9.226 1.332,8.280 1.706 C 5.300 2.884,3.080 5.375,2.300 8.416 C 2.077 9.288,2.022 9.745,2.021 10.760 C 2.020 11.698,2.051 12.021,2.223 12.829 C 2.621 14.704,3.728 16.619,5.160 17.908 C 5.644 18.344,6.283 18.823,6.540 18.945 C 6.924 19.126,7.279 19.048,7.577 18.718 C 7.943 18.313,8.025 17.802,7.774 17.491 C 7.707 17.408,7.438 17.178,7.176 16.980 C 6.080 16.151,5.296 15.199,4.731 14.010 C 3.903 12.268,3.782 10.291,4.387 8.400 C 4.568 7.833,5.011 6.948,5.370 6.433 C 6.635 4.619,8.658 3.387,10.880 3.076 C 11.369 3.008,12.631 3.008,13.120 3.076 C 16.443 3.541,19.144 6.000,19.823 9.179 C 20.368 11.729,19.584 14.348,17.723 16.200 C 17.490 16.432,17.086 16.783,16.824 16.980 C 16.562 17.178,16.293 17.408,16.226 17.491 C 15.975 17.802,16.057 18.313,16.423 18.718 C 16.721 19.048,17.076 19.126,17.460 18.945 C 17.717 18.823,18.356 18.344,18.840 17.908 C 20.006 16.859,20.998 15.337,21.497 13.836 C 21.816 12.874,21.950 12.125,21.987 11.100 C 22.162 6.161,18.515 1.866,13.509 1.117 C 13.005 1.041,11.681 0.985,11.300 1.023 M11.361 5.043 C 10.045 5.170,8.788 5.737,7.838 6.631 C 7.058 7.365,6.592 8.085,6.281 9.037 C 5.647 10.976,6.135 13.105,7.552 14.588 C 7.866 14.917,8.098 15.049,8.360 15.049 C 8.837 15.049,9.409 14.477,9.409 14.000 C 9.409 13.761,9.309 13.569,9.000 13.220 C 8.290 12.417,8.026 11.752,8.025 10.760 C 8.023 10.133,8.105 9.753,8.356 9.220 C 8.979 7.896,10.450 7.000,12.000 7.000 C 13.551 7.000,14.996 7.879,15.638 9.213 C 15.893 9.742,15.977 10.126,15.975 10.760 C 15.974 11.752,15.710 12.417,15.000 13.220 C 14.691 13.569,14.591 13.761,14.591 14.000 C 14.591 14.477,15.163 15.049,15.640 15.049 C 15.902 15.049,16.134 14.917,16.448 14.588 C 17.865 13.105,18.352 10.975,17.719 9.037 C 17.408 8.085,16.942 7.365,16.162 6.631 C 14.898 5.441,13.169 4.869,11.361 5.043 M11.477 9.073 C 10.806 9.249,10.238 9.823,10.060 10.508 C 9.941 10.962,10.003 11.492,10.225 11.930 C 10.361 12.199,10.801 12.639,11.070 12.775 C 11.659 13.073,12.341 13.073,12.930 12.775 C 13.196 12.640,13.638 12.200,13.771 11.937 C 13.994 11.498,14.052 11.007,13.940 10.529 C 13.858 10.182,13.720 9.927,13.465 9.653 C 13.074 9.232,12.560 9.005,12.000 9.005 C 11.857 9.005,11.622 9.036,11.477 9.073 M11.499 15.040 C 10.363 15.246,9.461 16.048,9.114 17.160 C 9.022 17.453,9.020 17.497,9.020 19.000 C 9.020 20.503,9.022 20.547,9.114 20.840 C 9.422 21.827,10.174 22.579,11.160 22.886 C 11.412 22.964,11.547 22.979,12.000 22.979 C 12.453 22.979,12.588 22.964,12.840 22.886 C 13.826 22.579,14.578 21.827,14.886 20.840 C 14.978 20.547,14.980 20.503,14.980 19.000 C 14.980 17.497,14.978 17.453,14.886 17.160 C 14.580 16.178,13.810 15.407,12.861 15.129 C 12.500 15.023,11.832 14.980,11.499 15.040 M12.310 17.061 C 12.589 17.144,12.856 17.411,12.939 17.690 C 13.023 17.972,13.028 20.015,12.945 20.290 C 12.872 20.533,12.707 20.740,12.484 20.872 C 12.328 20.963,12.254 20.980,12.000 20.980 C 11.746 20.980,11.672 20.963,11.516 20.872 C 11.415 20.813,11.284 20.700,11.225 20.623 C 11.014 20.347,11.000 20.245,11.000 19.022 C 11.000 17.695,11.019 17.587,11.304 17.303 C 11.583 17.024,11.916 16.944,12.310 17.061 " stroke="none" fill-rule="evenodd" fill="black"></path></svg>