<svg width="24" height="24" viewBox="0 0 24 24" fill="none" xmlns="http://www.w3.org/2000/svg"><path d="M11.280 1.023 C 11.203 1.032,10.951 1.059,10.720 1.083 C 9.527 1.210,8.337 1.558,7.180 2.120 C 6.045 2.671,5.193 3.285,4.238 4.239 C 3.277 5.198,2.643 6.080,2.097 7.220 C 0.301 10.968,0.728 15.286,3.226 18.633 C 3.701 19.269,4.753 20.316,5.400 20.797 C 9.364 23.745,14.666 23.734,18.637 20.770 C 19.246 20.316,20.316 19.246,20.770 18.637 C 23.744 14.652,23.744 9.348,20.770 5.363 C 20.316 4.755,19.247 3.686,18.640 3.235 C 17.045 2.049,15.365 1.360,13.423 1.096 C 13.000 1.038,11.574 0.990,11.280 1.023 M13.320 3.101 C 15.883 3.488,18.124 4.931,19.560 7.120 C 19.863 7.583,20.303 8.479,20.492 9.020 C 20.838 10.013,20.977 10.865,20.977 12.000 C 20.977 13.493,20.720 14.621,20.080 15.940 C 19.375 17.394,18.311 18.607,16.927 19.532 C 16.138 20.060,14.876 20.588,13.908 20.797 C 11.266 21.366,8.479 20.708,6.370 19.019 C 4.857 17.807,3.722 16.029,3.267 14.160 C 3.081 13.397,3.023 12.888,3.023 12.000 C 3.023 10.507,3.280 9.379,3.920 8.060 C 4.971 5.891,6.877 4.221,9.160 3.466 C 9.865 3.233,10.432 3.118,11.340 3.024 C 11.662 2.991,12.911 3.039,13.320 3.101 M11.614 6.057 C 11.377 6.131,11.212 6.261,11.109 6.453 L 11.020 6.620 11.009 9.412 C 11.002 11.226,11.012 12.257,11.039 12.356 C 11.144 12.747,11.433 12.961,11.896 12.991 C 12.381 13.022,12.699 12.882,12.880 12.558 L 12.980 12.380 12.980 9.500 L 12.980 6.620 12.891 6.453 C 12.842 6.362,12.746 6.247,12.678 6.199 C 12.414 6.010,11.957 5.950,11.614 6.057 M7.536 8.090 C 7.061 8.409,6.432 9.537,6.187 10.509 C 5.748 12.248,6.119 14.135,7.179 15.556 C 8.082 16.765,9.334 17.562,10.840 17.885 C 11.446 18.015,12.554 18.015,13.160 17.885 C 14.369 17.626,15.340 17.109,16.195 16.269 C 16.698 15.775,17.060 15.279,17.371 14.656 C 18.264 12.866,18.190 10.661,17.180 8.980 C 16.724 8.220,16.439 7.960,16.065 7.960 C 15.696 7.961,15.211 8.265,15.037 8.606 C 14.935 8.806,14.936 9.117,15.041 9.321 C 15.085 9.408,15.220 9.631,15.341 9.816 C 16.718 11.929,15.828 14.747,13.479 15.711 C 11.858 16.377,9.898 15.838,8.843 14.438 C 8.246 13.645,7.960 12.726,8.016 11.780 C 8.060 11.040,8.260 10.428,8.659 9.816 C 8.982 9.320,9.040 9.191,9.040 8.960 C 9.040 8.598,8.779 8.258,8.346 8.057 C 8.040 7.914,7.781 7.925,7.536 8.090 " stroke="none" fill-rule="evenodd" fill="black"></path></svg>