<svg width="24" height="24" viewBox="0 0 24 24" fill="none" xmlns="http://www.w3.org/2000/svg"><path d="M11.614 1.057 C 11.377 1.131,11.212 1.261,11.109 1.453 L 11.020 1.620 11.009 6.914 C 11.002 10.393,11.013 12.259,11.039 12.358 C 11.144 12.747,11.434 12.961,11.896 12.991 C 12.381 13.022,12.699 12.882,12.880 12.558 L 12.980 12.380 12.980 7.000 L 12.980 1.620 12.891 1.453 C 12.842 1.362,12.746 1.247,12.678 1.199 C 12.414 1.010,11.957 0.950,11.614 1.057 M5.244 5.691 C 5.072 5.778,4.525 6.333,4.150 6.800 C 3.079 8.136,2.409 9.688,2.098 11.560 C 1.996 12.171,1.976 13.511,2.058 14.160 C 2.458 17.296,4.152 19.918,6.845 21.572 C 7.259 21.827,8.136 22.246,8.604 22.414 C 10.511 23.099,12.639 23.187,14.600 22.662 C 15.923 22.308,17.371 21.546,18.460 20.630 C 20.144 19.213,21.334 17.205,21.795 15.000 C 21.949 14.263,21.980 13.919,21.977 12.980 C 21.975 12.224,21.958 11.968,21.886 11.540 C 21.612 9.931,21.164 8.751,20.368 7.539 C 19.847 6.746,19.056 5.850,18.732 5.685 C 18.381 5.508,18.000 5.598,17.659 5.939 C 17.318 6.280,17.223 6.653,17.393 6.986 C 17.438 7.074,17.622 7.307,17.801 7.503 C 18.888 8.690,19.515 9.899,19.820 11.392 C 20.223 13.367,19.893 15.347,18.870 17.085 C 17.752 18.984,15.764 20.404,13.618 20.835 C 12.422 21.076,11.156 21.048,10.020 20.758 C 8.357 20.332,6.744 19.283,5.711 17.954 C 3.849 15.560,3.481 12.367,4.750 9.620 C 5.122 8.815,5.511 8.247,6.229 7.464 C 6.388 7.290,6.555 7.073,6.599 6.982 C 6.764 6.640,6.674 6.288,6.333 5.947 C 5.982 5.597,5.604 5.508,5.244 5.691 " stroke="none" fill-rule="evenodd" fill="black"></path></svg>