<svg width="24" height="24" viewBox="0 0 24 24" fill="none" xmlns="http://www.w3.org/2000/svg"><path d="M1.614 2.057 C 1.223 2.180,1.039 2.436,1.009 2.900 C 0.968 3.532,1.251 3.922,1.797 3.987 L 2.000 4.011 2.000 8.376 C 2.000 12.567,2.016 13.287,2.124 13.840 C 2.419 15.361,3.537 16.515,5.045 16.855 C 5.450 16.947,5.894 16.972,7.458 16.995 L 9.216 17.020 7.202 18.699 C 5.774 19.889,5.154 20.429,5.074 20.556 C 4.861 20.891,4.935 21.304,5.275 21.687 C 5.578 22.028,5.966 22.132,6.327 21.968 C 6.422 21.924,7.508 21.048,8.740 20.020 L 10.980 18.151 11.000 19.766 L 11.020 21.380 11.120 21.558 C 11.287 21.856,11.572 22.000,12.000 22.000 C 12.428 22.000,12.713 21.856,12.880 21.558 L 12.980 21.380 13.000 19.766 L 13.020 18.151 15.260 20.020 C 16.492 21.048,17.578 21.924,17.673 21.968 C 18.034 22.132,18.422 22.028,18.725 21.687 C 19.065 21.304,19.139 20.891,18.926 20.556 C 18.846 20.429,18.226 19.889,16.798 18.699 L 14.784 17.020 16.542 16.995 C 18.427 16.968,18.674 16.946,19.320 16.754 C 20.417 16.428,21.423 15.422,21.755 14.320 C 21.988 13.547,22.000 13.257,22.000 8.376 L 22.000 4.011 22.197 3.988 C 22.539 3.947,22.754 3.805,22.904 3.520 C 23.018 3.305,23.009 2.679,22.890 2.453 C 22.786 2.256,22.623 2.131,22.371 2.055 C 22.106 1.976,1.869 1.978,1.614 2.057 M19.989 8.610 C 19.972 13.615,19.978 13.488,19.752 13.952 C 19.626 14.211,19.190 14.638,18.918 14.768 C 18.466 14.985,18.627 14.980,12.000 14.980 C 5.383 14.980,5.538 14.985,5.082 14.771 C 4.812 14.643,4.377 14.217,4.248 13.952 C 4.022 13.488,4.028 13.615,4.011 8.610 L 3.995 4.000 12.000 4.000 L 20.005 4.000 19.989 8.610 M15.614 6.057 C 15.377 6.131,15.212 6.261,15.109 6.453 L 15.020 6.620 15.009 9.412 C 15.002 11.226,15.012 12.257,15.039 12.356 C 15.144 12.747,15.433 12.961,15.896 12.991 C 16.381 13.022,16.699 12.882,16.880 12.558 L 16.980 12.380 16.980 9.500 L 16.980 6.620 16.891 6.453 C 16.842 6.362,16.746 6.247,16.678 6.199 C 16.414 6.010,15.957 5.950,15.614 6.057 M11.614 8.057 C 11.377 8.131,11.212 8.261,11.109 8.453 C 11.021 8.618,11.020 8.647,11.008 10.410 C 11.001 11.557,11.012 12.255,11.038 12.354 C 11.144 12.747,11.433 12.961,11.896 12.991 C 12.381 13.022,12.699 12.882,12.880 12.558 L 12.980 12.380 12.980 10.500 C 12.980 8.633,12.979 8.619,12.891 8.453 C 12.842 8.362,12.746 8.247,12.678 8.199 C 12.414 8.010,11.957 7.950,11.614 8.057 M7.614 10.057 C 7.377 10.131,7.212 10.261,7.109 10.453 C 7.027 10.606,7.019 10.684,7.007 11.405 C 6.999 11.880,7.011 12.252,7.037 12.349 C 7.144 12.748,7.430 12.961,7.896 12.991 C 8.381 13.022,8.699 12.882,8.880 12.558 C 8.978 12.383,8.980 12.364,8.980 11.500 C 8.980 10.667,8.975 10.611,8.891 10.453 C 8.842 10.362,8.746 10.247,8.678 10.199 C 8.414 10.010,7.957 9.950,7.614 10.057 " stroke="none" fill-rule="evenodd" fill="black"></path></svg>