<svg version="1.1" xmlns="http://www.w3.org/2000/svg" width="32" height="32" viewBox="0 0 32 32"><path d="M14.987 0.035 C 13.976 0.130,13.530 0.188,12.960 0.300 C 6.813 1.501,1.972 6.104,0.458 12.187 C -0.937 17.792,0.889 23.853,5.147 27.747 C 7.592 29.983,10.437 31.338,13.760 31.848 C 14.864 32.017,17.121 32.021,18.187 31.854 C 21.041 31.410,23.485 30.399,25.616 28.782 C 28.793 26.372,30.960 22.905,31.702 19.045 C 31.933 17.841,31.971 17.415,31.971 16.000 C 31.971 14.585,31.933 14.159,31.702 12.955 C 30.441 6.397,25.156 1.274,18.560 0.216 C 17.427 0.035,15.841 -0.046,14.987 0.035 M16.106 1.880 C 16.106 1.887,16.047 2.037,15.974 2.213 C 15.872 2.461,15.842 2.630,15.841 2.961 C 15.840 3.516,15.942 3.875,16.528 5.375 C 17.417 7.648,17.482 7.898,17.653 9.712 C 17.713 10.340,17.790 11.045,17.824 11.280 C 17.885 11.692,17.889 11.699,17.927 11.493 C 17.949 11.376,17.969 11.153,17.970 10.998 C 17.972 10.844,18.010 10.364,18.055 9.932 C 18.299 7.591,18.772 5.947,19.494 4.933 C 19.703 4.640,20.000 4.316,20.000 4.382 C 20.000 4.397,19.952 4.597,19.893 4.827 C 19.696 5.599,19.769 6.535,20.107 7.546 C 20.270 8.034,20.321 8.142,21.133 9.715 C 21.832 11.067,22.058 11.908,22.118 13.372 C 22.182 14.951,21.817 16.254,20.983 17.416 C 20.790 17.685,20.724 17.813,20.780 17.813 C 20.825 17.813,21.262 17.727,21.751 17.622 C 23.102 17.332,25.834 16.803,25.859 16.828 C 25.897 16.866,25.650 17.496,25.356 18.112 C 25.021 18.814,24.370 19.801,23.836 20.414 L 23.452 20.854 15.981 20.840 L 8.509 20.827 8.091 20.293 C 7.244 19.213,6.679 18.272,6.323 17.349 C 6.219 17.078,6.133 16.844,6.133 16.828 C 6.133 16.811,6.187 16.810,6.253 16.825 C 9.053 17.444,10.791 17.813,10.911 17.813 C 10.950 17.813,10.856 17.646,10.702 17.442 C 10.317 16.931,10.012 16.338,9.793 15.678 C 9.542 14.923,9.472 14.386,9.510 13.499 C 9.559 12.337,9.616 12.121,10.773 8.772 C 10.915 8.361,11.072 7.833,11.123 7.599 C 11.240 7.059,11.245 6.149,11.132 5.800 C 11.087 5.661,11.073 5.547,11.101 5.547 C 11.128 5.547,11.243 5.594,11.356 5.651 C 12.127 6.044,12.772 7.788,12.867 9.733 C 12.874 9.880,12.904 9.997,12.933 9.993 C 13.016 9.981,13.367 9.303,13.550 8.800 C 13.905 7.824,14.187 6.304,14.187 5.364 C 14.187 3.894,14.870 2.413,15.748 1.978 C 15.943 1.882,16.107 1.837,16.106 1.880 M23.520 23.600 L 23.520 24.960 16.000 24.960 L 8.480 24.960 8.480 23.600 L 8.480 22.240 16.000 22.240 L 23.520 22.240 23.520 23.600 M20.533 26.387 C 20.528 27.604,19.407 29.009,18.010 29.549 C 16.664 30.070,15.310 30.076,14.013 29.568 C 12.622 29.023,11.593 27.793,11.483 26.547 L 11.451 26.187 15.992 26.187 L 20.533 26.187 20.533 26.387 " stroke="none" fill-rule="evenodd" fill="black"></path></svg>