<svg width="24" height="24" viewBox="0 0 24 24" fill="none" xmlns="http://www.w3.org/2000/svg"><path d="M11.620 1.046 C 11.523 1.095,10.685 1.903,9.494 3.094 L 7.527 5.060 7.444 5.334 C 7.341 5.669,7.340 5.812,7.436 6.023 C 7.541 6.255,7.749 6.408,8.256 6.627 C 9.087 6.985,9.650 7.441,9.889 7.948 C 9.985 8.153,10.006 8.248,10.007 8.502 C 10.008 8.775,9.992 8.841,9.864 9.101 C 9.622 9.589,9.202 9.912,8.685 10.009 C 7.931 10.149,7.157 9.495,6.638 8.280 C 6.447 7.832,6.251 7.589,5.966 7.443 C 5.751 7.333,5.450 7.334,5.228 7.444 C 4.988 7.564,1.160 11.396,1.039 11.637 C 0.924 11.869,0.924 12.132,1.040 12.363 C 1.099 12.481,1.590 13.003,2.513 13.930 C 3.330 14.750,3.881 15.333,3.858 15.353 C 3.837 15.371,3.662 15.508,3.468 15.657 C 2.494 16.406,1.975 17.416,1.987 18.540 C 2.003 20.099,3.129 21.500,4.709 21.927 C 5.319 22.092,6.103 22.033,6.749 21.775 C 7.433 21.501,8.128 20.911,8.606 20.199 L 8.673 20.100 10.066 21.485 C 10.994 22.407,11.519 22.901,11.637 22.960 C 11.868 23.076,12.131 23.076,12.363 22.961 C 12.486 22.899,13.143 22.270,14.506 20.906 L 16.473 18.940 16.556 18.666 C 16.659 18.331,16.660 18.188,16.564 17.977 C 16.459 17.746,16.264 17.603,15.751 17.380 C 14.912 17.015,14.350 16.559,14.109 16.049 C 14.011 15.839,13.991 15.746,13.991 15.495 C 13.991 15.229,14.008 15.159,14.135 14.903 C 14.310 14.548,14.583 14.281,14.943 14.113 C 15.464 13.869,16.024 13.978,16.512 14.419 C 16.789 14.670,17.149 15.222,17.365 15.726 C 17.699 16.509,18.231 16.826,18.763 16.561 C 19.011 16.437,22.837 12.611,22.961 12.363 C 23.076 12.131,23.076 11.868,22.960 11.637 C 22.901 11.519,22.407 10.994,21.485 10.066 L 20.100 8.673 20.199 8.606 C 20.492 8.410,20.920 8.030,21.142 7.771 C 21.737 7.072,22.012 6.355,22.013 5.500 C 22.013 3.924,20.876 2.493,19.291 2.075 C 18.858 1.961,18.144 1.962,17.700 2.078 C 16.808 2.310,15.978 2.931,15.394 3.801 L 15.327 3.900 13.934 2.515 C 13.051 1.637,12.478 1.098,12.372 1.045 C 12.152 0.934,11.836 0.935,11.620 1.046 M13.539 4.956 C 14.563 5.976,15.118 6.500,15.237 6.560 C 15.772 6.828,16.301 6.509,16.640 5.715 C 16.963 4.958,17.431 4.368,17.893 4.133 C 18.613 3.768,19.507 4.131,19.887 4.941 C 20.128 5.458,20.020 6.026,19.588 6.504 C 19.281 6.843,18.780 7.161,18.119 7.435 C 17.753 7.587,17.534 7.761,17.436 7.977 C 17.340 8.189,17.341 8.331,17.444 8.666 L 17.528 8.940 19.053 10.471 L 20.578 12.001 19.639 12.941 C 19.123 13.457,18.690 13.880,18.677 13.880 C 18.664 13.880,18.583 13.777,18.497 13.651 C 18.284 13.340,17.755 12.812,17.448 12.604 C 17.101 12.370,16.680 12.177,16.300 12.078 C 15.856 11.962,15.142 11.961,14.709 12.075 C 13.429 12.413,12.418 13.423,12.074 14.709 C 11.909 15.325,11.967 16.104,12.225 16.749 C 12.499 17.433,13.082 18.121,13.801 18.607 L 13.900 18.674 12.951 19.626 L 12.001 20.579 10.471 19.054 C 9.489 18.076,8.880 17.499,8.772 17.444 C 8.550 17.334,8.250 17.333,8.034 17.443 C 7.752 17.587,7.553 17.833,7.368 18.265 C 6.957 19.229,6.426 19.812,5.803 19.986 C 5.597 20.043,5.519 20.046,5.315 20.009 C 4.798 19.912,4.378 19.589,4.136 19.100 C 4.008 18.841,3.991 18.771,3.991 18.505 C 3.991 18.254,4.011 18.161,4.109 17.951 C 4.350 17.441,4.911 16.986,5.744 16.627 C 6.251 16.408,6.459 16.255,6.564 16.023 C 6.660 15.811,6.659 15.669,6.556 15.334 L 6.472 15.060 4.947 13.529 L 3.422 11.998 4.374 11.049 L 5.326 10.100 5.393 10.199 C 5.879 10.918,6.567 11.501,7.251 11.775 C 7.897 12.033,8.681 12.092,9.291 11.927 C 11.385 11.361,12.545 9.176,11.775 7.251 C 11.494 6.550,11.045 6.023,10.180 5.383 C 10.104 5.327,10.143 5.281,11.040 4.382 C 11.557 3.864,11.988 3.440,11.999 3.440 C 12.009 3.440,12.702 4.122,13.539 4.956 " stroke="none" fill-rule="evenodd" fill="black"></path></svg>