<svg width="24" height="24" viewBox="0 0 24 24" fill="none" xmlns="http://www.w3.org/2000/svg"><path d="M9.580 1.024 C 8.701 1.153,7.814 1.642,7.294 2.286 C 6.785 2.916,6.548 3.574,6.496 4.504 L 6.469 4.988 5.544 5.013 C 4.593 5.038,4.064 5.101,3.680 5.233 C 2.621 5.598,1.709 6.466,1.300 7.499 C 1.087 8.040,1.037 8.401,1.012 9.581 C 0.986 10.817,1.012 11.000,1.248 11.229 C 1.504 11.476,1.588 11.492,2.800 11.517 C 3.824 11.539,3.913 11.547,4.093 11.629 C 4.748 11.931,5.081 12.564,4.960 13.281 C 4.876 13.779,4.510 14.210,4.006 14.405 C 3.800 14.484,3.681 14.494,2.680 14.517 C 1.497 14.543,1.491 14.544,1.249 14.774 C 1.011 14.999,1.000 15.097,1.000 17.017 C 1.000 19.103,1.040 19.639,1.245 20.320 C 1.518 21.228,2.251 22.085,3.142 22.536 C 3.613 22.775,4.072 22.891,4.820 22.959 C 5.395 23.012,8.174 23.012,8.365 22.959 C 8.586 22.898,8.770 22.755,8.880 22.558 C 8.979 22.382,8.980 22.369,9.001 21.160 C 9.020 20.026,9.027 19.927,9.106 19.755 C 9.228 19.490,9.453 19.259,9.714 19.131 C 10.026 18.978,10.484 18.973,10.775 19.120 C 11.009 19.239,11.255 19.477,11.373 19.698 C 11.454 19.851,11.460 19.931,11.482 21.080 C 11.507 22.425,11.518 22.490,11.771 22.751 C 11.991 22.978,12.144 23.000,13.517 23.000 C 15.090 23.000,15.678 22.949,16.320 22.755 C 17.228 22.482,18.085 21.749,18.536 20.858 C 18.899 20.141,19.000 19.443,19.000 17.636 L 19.000 16.532 19.489 16.504 C 20.461 16.449,21.142 16.195,21.770 15.653 C 23.599 14.072,23.344 11.237,21.259 9.981 C 20.739 9.668,20.171 9.522,19.470 9.521 L 19.000 9.520 19.000 9.307 C 19.000 8.947,18.916 8.238,18.837 7.928 C 18.572 6.893,17.801 5.944,16.825 5.452 C 16.182 5.129,15.744 5.047,14.456 5.013 L 13.531 4.988 13.504 4.505 C 13.474 3.973,13.402 3.604,13.258 3.236 C 13.035 2.665,12.647 2.142,12.165 1.759 C 11.842 1.502,11.187 1.186,10.800 1.099 C 10.503 1.033,9.811 0.990,9.580 1.024 M10.307 3.044 C 10.755 3.122,11.161 3.452,11.371 3.907 C 11.454 4.087,11.461 4.173,11.481 5.200 C 11.501 6.195,11.511 6.317,11.585 6.480 C 11.700 6.734,11.908 6.904,12.167 6.956 C 12.284 6.980,13.037 7.007,13.840 7.017 C 14.657 7.027,15.388 7.054,15.500 7.078 C 15.831 7.149,16.123 7.317,16.403 7.597 C 16.685 7.879,16.853 8.173,16.920 8.500 C 16.943 8.610,16.971 9.150,16.984 9.700 C 17.010 10.832,17.044 11.031,17.248 11.229 C 17.504 11.476,17.588 11.492,18.800 11.517 C 19.824 11.539,19.913 11.547,20.093 11.629 C 20.748 11.931,21.081 12.564,20.960 13.281 C 20.876 13.779,20.510 14.210,20.006 14.405 C 19.800 14.484,19.681 14.494,18.680 14.517 C 17.465 14.545,17.443 14.549,17.209 14.815 C 17.130 14.905,17.072 15.030,17.044 15.167 C 17.018 15.293,16.994 16.162,16.984 17.300 C 16.967 19.355,16.950 19.546,16.752 19.952 C 16.627 20.210,16.190 20.638,15.920 20.767 C 15.594 20.923,15.310 20.964,14.376 20.989 L 13.533 21.011 13.507 20.395 C 13.491 19.989,13.455 19.671,13.402 19.460 C 13.110 18.296,12.122 17.332,10.960 17.077 C 10.554 16.988,9.770 17.006,9.388 17.113 C 8.312 17.415,7.429 18.290,7.119 19.361 C 7.051 19.594,7.027 19.808,7.011 20.335 L 6.990 21.010 5.885 20.989 C 5.269 20.978,4.674 20.948,4.540 20.921 C 4.161 20.845,3.887 20.694,3.600 20.403 C 3.094 19.892,3.044 19.679,3.012 17.876 L 2.989 16.533 3.484 16.505 C 4.462 16.449,5.140 16.197,5.770 15.653 C 7.599 14.072,7.344 11.237,5.259 9.981 C 4.756 9.678,4.299 9.554,3.580 9.523 L 3.020 9.500 3.032 9.120 C 3.056 8.342,3.177 8.017,3.597 7.597 C 3.877 7.317,4.169 7.149,4.500 7.078 C 4.612 7.054,5.343 7.027,6.160 7.017 C 6.963 7.007,7.716 6.980,7.833 6.956 C 8.092 6.904,8.300 6.733,8.414 6.480 C 8.487 6.318,8.498 6.190,8.518 5.200 C 8.539 4.168,8.546 4.088,8.631 3.903 C 8.823 3.486,9.206 3.156,9.614 3.057 C 9.880 2.992,9.997 2.990,10.307 3.044 " stroke="none" fill-rule="evenodd" fill="black"></path></svg>