<svg width="24" height="24" viewBox="0 0 24 24" fill="none" xmlns="http://www.w3.org/2000/svg"><path d="M11.614 1.057 C 11.377 1.131,11.212 1.261,11.109 1.453 L 11.020 1.620 11.009 4.912 C 11.002 7.060,11.012 8.257,11.039 8.356 C 11.144 8.747,11.434 8.961,11.896 8.991 C 12.381 9.022,12.699 8.882,12.880 8.558 L 12.980 8.380 12.980 5.000 L 12.980 1.620 12.891 1.453 C 12.842 1.362,12.746 1.247,12.678 1.199 C 12.414 1.010,11.957 0.950,11.614 1.057 M3.686 2.040 C 2.867 2.164,2.233 2.765,2.061 3.581 C 1.975 3.986,1.975 7.014,2.061 7.419 C 2.147 7.827,2.298 8.104,2.597 8.403 C 2.896 8.702,3.173 8.853,3.581 8.939 C 3.986 9.025,7.014 9.025,7.419 8.940 C 7.818 8.855,8.102 8.699,8.401 8.401 C 8.699 8.102,8.855 7.818,8.940 7.419 C 9.025 7.014,9.025 3.986,8.940 3.581 C 8.792 2.884,8.326 2.360,7.635 2.113 C 7.386 2.024,7.340 2.022,5.640 2.015 C 4.683 2.010,3.804 2.022,3.686 2.040 M16.686 2.040 C 15.867 2.164,15.233 2.765,15.061 3.581 C 14.975 3.986,14.975 7.014,15.061 7.419 C 15.147 7.827,15.298 8.104,15.597 8.403 C 15.896 8.702,16.173 8.853,16.581 8.939 C 16.986 9.025,20.014 9.025,20.419 8.940 C 20.818 8.855,21.102 8.699,21.401 8.401 C 21.699 8.102,21.855 7.818,21.940 7.419 C 22.025 7.014,22.025 3.986,21.939 3.581 C 21.791 2.880,21.330 2.361,20.635 2.113 C 20.386 2.024,20.340 2.022,18.640 2.015 C 17.683 2.010,16.804 2.022,16.686 2.040 M7.000 5.500 L 7.000 7.000 5.500 7.000 L 4.000 7.000 4.000 5.500 L 4.000 4.000 5.500 4.000 L 7.000 4.000 7.000 5.500 M20.000 5.500 L 20.000 7.000 18.500 7.000 L 17.000 7.000 17.000 5.500 L 17.000 4.000 18.500 4.000 L 20.000 4.000 20.000 5.500 M2.614 11.055 C 2.220 11.184,2.039 11.437,2.009 11.900 C 1.978 12.381,2.119 12.699,2.442 12.880 C 2.597 12.967,2.669 12.980,3.000 12.980 C 3.312 12.980,3.408 12.964,3.540 12.894 C 3.866 12.718,4.000 12.459,4.000 12.000 C 4.000 11.357,3.713 11.048,3.083 11.016 C 2.893 11.006,2.718 11.021,2.614 11.055 M6.614 11.057 C 6.377 11.131,6.212 11.261,6.109 11.453 C 6.035 11.592,6.020 11.684,6.020 12.000 C 6.020 12.331,6.033 12.403,6.120 12.558 C 6.230 12.755,6.414 12.898,6.635 12.959 C 6.724 12.984,7.600 13.000,8.890 13.000 L 11.000 13.000 11.000 15.110 C 11.000 16.400,11.016 17.276,11.041 17.365 C 11.148 17.750,11.437 17.962,11.896 17.991 C 12.381 18.022,12.699 17.882,12.880 17.558 L 12.980 17.380 12.980 14.500 L 12.980 11.620 12.891 11.453 C 12.785 11.256,12.622 11.131,12.371 11.055 C 12.110 10.977,6.865 10.979,6.614 11.057 M15.180 11.039 C 14.715 11.159,14.514 11.447,14.512 11.997 C 14.510 12.348,14.582 12.556,14.771 12.751 C 14.990 12.978,15.146 13.000,16.500 13.000 C 17.854 13.000,18.010 12.978,18.229 12.751 C 18.418 12.556,18.486 12.355,18.486 11.997 C 18.486 11.491,18.303 11.196,17.909 11.064 C 17.749 11.011,17.517 11.001,16.509 11.004 C 15.844 11.006,15.246 11.022,15.180 11.039 M20.614 11.055 C 20.220 11.184,20.039 11.437,20.009 11.900 C 19.978 12.381,20.119 12.699,20.442 12.880 C 20.597 12.967,20.669 12.980,21.000 12.980 C 21.312 12.980,21.408 12.964,21.540 12.894 C 21.866 12.718,22.000 12.459,22.000 12.000 C 22.000 11.357,21.713 11.048,21.083 11.016 C 20.893 11.006,20.718 11.021,20.614 11.055 M16.686 15.040 C 15.867 15.164,15.233 15.765,15.061 16.581 C 14.975 16.986,14.975 20.014,15.061 20.419 C 15.147 20.827,15.298 21.104,15.597 21.403 C 15.896 21.702,16.173 21.853,16.581 21.939 C 16.986 22.025,20.014 22.025,20.419 21.940 C 20.818 21.855,21.102 21.699,21.401 21.401 C 21.699 21.102,21.855 20.818,21.940 20.419 C 22.025 20.014,22.025 16.986,21.940 16.581 C 21.792 15.884,21.326 15.360,20.635 15.113 C 20.386 15.024,20.340 15.022,18.640 15.015 C 17.683 15.010,16.804 15.022,16.686 15.040 M2.614 16.057 C 2.377 16.131,2.212 16.261,2.109 16.453 C 2.035 16.592,2.020 16.684,2.020 17.000 C 2.020 17.331,2.033 17.403,2.120 17.558 C 2.230 17.755,2.414 17.898,2.635 17.959 C 2.874 18.026,4.668 18.011,4.904 17.941 C 5.290 17.827,5.486 17.508,5.486 16.997 C 5.486 16.491,5.303 16.196,4.909 16.064 C 4.658 15.980,2.877 15.975,2.614 16.057 M7.614 16.055 C 7.220 16.184,7.039 16.437,7.009 16.900 C 6.978 17.381,7.119 17.699,7.442 17.880 C 7.597 17.967,7.669 17.980,8.000 17.980 C 8.312 17.980,8.408 17.964,8.540 17.894 C 8.866 17.718,9.000 17.459,9.000 17.000 C 9.000 16.357,8.713 16.048,8.083 16.016 C 7.893 16.006,7.718 16.021,7.614 16.055 M20.000 18.500 L 20.000 20.000 18.500 20.000 L 17.000 20.000 17.000 18.500 L 17.000 17.000 18.500 17.000 L 20.000 17.000 20.000 18.500 M2.614 20.057 C 2.377 20.131,2.212 20.261,2.109 20.453 C 2.035 20.592,2.020 20.684,2.020 21.000 C 2.020 21.331,2.033 21.403,2.120 21.558 C 2.230 21.755,2.414 21.898,2.635 21.959 C 2.832 22.014,8.168 22.014,8.365 21.959 C 8.586 21.898,8.770 21.755,8.880 21.558 C 8.967 21.402,8.980 21.332,8.979 21.000 C 8.978 20.567,8.898 20.355,8.678 20.199 C 8.401 20.002,8.373 20.000,5.484 20.003 C 3.382 20.005,2.743 20.017,2.614 20.057 M11.614 20.055 C 11.220 20.184,11.039 20.437,11.009 20.900 C 10.978 21.381,11.119 21.699,11.442 21.880 C 11.597 21.967,11.669 21.980,12.000 21.980 C 12.312 21.980,12.408 21.964,12.540 21.894 C 12.866 21.718,13.000 21.459,13.000 21.000 C 13.000 20.357,12.713 20.048,12.083 20.016 C 11.893 20.006,11.718 20.021,11.614 20.055 " stroke="none" fill-rule="evenodd" fill="black"></path></svg>