<svg width="24" height="24" viewBox="0 0 24 24" fill="none" xmlns="http://www.w3.org/2000/svg"><path d="M3.686 2.040 C 2.869 2.163,2.233 2.765,2.061 3.581 C 1.973 3.993,1.973 9.007,2.061 9.419 C 2.147 9.827,2.298 10.104,2.597 10.403 C 2.896 10.702,3.173 10.853,3.581 10.939 C 3.993 11.027,9.007 11.027,9.419 10.940 C 9.818 10.855,10.102 10.699,10.401 10.401 C 10.699 10.102,10.855 9.818,10.940 9.419 C 11.027 9.007,11.027 3.993,10.940 3.581 C 10.792 2.885,10.328 2.363,9.635 2.112 L 9.380 2.020 6.640 2.014 C 5.133 2.011,3.804 2.022,3.686 2.040 M14.686 2.040 C 13.869 2.163,13.233 2.765,13.061 3.581 C 12.973 3.993,12.973 9.007,13.061 9.419 C 13.147 9.827,13.298 10.104,13.597 10.403 C 13.896 10.702,14.173 10.853,14.581 10.939 C 14.993 11.027,20.007 11.027,20.419 10.940 C 20.818 10.855,21.102 10.699,21.401 10.401 C 21.699 10.102,21.855 9.818,21.940 9.419 C 22.027 9.007,22.027 3.993,21.939 3.581 C 21.791 2.881,21.332 2.364,20.635 2.112 L 20.380 2.020 17.640 2.014 C 16.133 2.011,14.804 2.022,14.686 2.040 M9.000 6.500 L 9.000 9.000 6.500 9.000 L 4.000 9.000 4.000 6.500 L 4.000 4.000 6.500 4.000 L 9.000 4.000 9.000 6.500 M20.000 6.500 L 20.000 9.000 17.500 9.000 L 15.000 9.000 15.000 6.500 L 15.000 4.000 17.500 4.000 L 20.000 4.000 20.000 6.500 M6.042 5.572 C 5.846 5.635,5.613 5.882,5.557 6.088 C 5.532 6.183,5.511 6.368,5.511 6.500 C 5.511 6.853,5.581 7.061,5.760 7.240 C 5.939 7.419,6.147 7.489,6.500 7.489 C 6.850 7.489,7.074 7.416,7.244 7.245 C 7.723 6.766,7.535 5.730,6.939 5.565 C 6.740 5.509,6.225 5.514,6.042 5.572 M17.042 5.572 C 16.846 5.635,16.613 5.882,16.557 6.088 C 16.532 6.183,16.511 6.368,16.511 6.500 C 16.511 6.853,16.581 7.061,16.760 7.240 C 16.939 7.419,17.147 7.489,17.500 7.489 C 17.850 7.489,18.074 7.416,18.244 7.245 C 18.723 6.766,18.535 5.730,17.939 5.565 C 17.740 5.509,17.225 5.514,17.042 5.572 M12.614 12.055 C 12.220 12.184,12.039 12.437,12.009 12.900 C 11.978 13.381,12.119 13.699,12.442 13.880 C 12.597 13.967,12.669 13.980,13.000 13.980 C 13.312 13.980,13.408 13.964,13.540 13.894 C 13.866 13.718,14.000 13.459,14.000 13.000 C 14.000 12.357,13.713 12.048,13.083 12.016 C 12.893 12.006,12.718 12.021,12.614 12.055 M3.686 13.040 C 2.869 13.163,2.233 13.765,2.061 14.581 C 1.973 14.993,1.973 20.007,2.061 20.419 C 2.147 20.827,2.298 21.104,2.597 21.403 C 2.896 21.702,3.173 21.853,3.581 21.939 C 3.993 22.027,9.007 22.027,9.419 21.940 C 9.817 21.855,10.101 21.700,10.403 21.401 C 10.702 21.104,10.853 20.829,10.939 20.419 C 11.027 20.007,11.027 14.993,10.940 14.581 C 10.792 13.885,10.328 13.363,9.635 13.112 L 9.380 13.020 6.640 13.014 C 5.133 13.011,3.804 13.022,3.686 13.040 M16.180 13.039 C 15.715 13.159,15.514 13.447,15.512 13.997 C 15.510 14.348,15.582 14.556,15.771 14.751 C 16.010 14.999,16.028 15.000,18.757 15.000 C 20.284 15.000,21.275 14.984,21.365 14.959 C 21.586 14.898,21.770 14.755,21.880 14.558 C 21.967 14.402,21.980 14.332,21.979 14.000 C 21.978 13.567,21.898 13.355,21.678 13.199 C 21.403 13.003,21.354 13.000,18.744 13.004 C 17.400 13.006,16.246 13.022,16.180 13.039 M9.000 17.500 L 9.000 20.000 6.500 20.000 L 4.000 20.000 4.000 17.500 L 4.000 15.000 6.500 15.000 L 9.000 15.000 9.000 17.500 M13.545 15.579 C 13.460 15.609,13.329 15.693,13.254 15.766 C 13.001 16.011,13.000 16.020,13.000 18.757 C 13.000 20.284,13.016 21.275,13.041 21.365 C 13.148 21.750,13.437 21.962,13.896 21.991 C 14.381 22.022,14.699 21.882,14.880 21.558 L 14.980 21.380 14.991 18.845 C 15.004 15.974,15.007 16.004,14.723 15.748 C 14.637 15.669,14.497 15.586,14.413 15.563 C 14.200 15.504,13.731 15.513,13.545 15.579 M20.614 16.057 C 20.377 16.131,20.212 16.261,20.109 16.453 C 20.022 16.617,20.020 16.650,20.008 18.310 L 19.997 20.000 18.405 20.000 C 16.710 20.000,16.584 20.012,16.322 20.199 C 16.100 20.357,16.020 20.568,16.020 21.000 C 16.020 21.331,16.033 21.403,16.120 21.558 C 16.230 21.755,16.414 21.898,16.635 21.959 C 16.831 22.014,21.169 22.014,21.365 21.959 C 21.586 21.898,21.770 21.755,21.880 21.558 L 21.980 21.380 21.980 19.000 L 21.980 16.620 21.891 16.453 C 21.842 16.362,21.746 16.247,21.678 16.199 C 21.414 16.010,20.957 15.950,20.614 16.057 M6.042 16.572 C 5.846 16.635,5.613 16.882,5.557 17.088 C 5.532 17.183,5.511 17.368,5.511 17.500 C 5.511 17.853,5.581 18.061,5.760 18.240 C 5.939 18.419,6.147 18.489,6.500 18.489 C 6.850 18.489,7.074 18.416,7.244 18.245 C 7.723 17.766,7.535 16.730,6.939 16.565 C 6.740 16.509,6.225 16.514,6.042 16.572 M17.042 16.572 C 16.846 16.635,16.613 16.882,16.557 17.088 C 16.532 17.183,16.511 17.368,16.511 17.500 C 16.511 17.853,16.581 18.061,16.760 18.240 C 16.939 18.419,17.147 18.489,17.500 18.489 C 17.850 18.489,18.074 18.416,18.244 18.245 C 18.723 17.766,18.535 16.730,17.939 16.565 C 17.740 16.509,17.225 16.514,17.042 16.572 " stroke="none" fill-rule="evenodd" fill="black"></path></svg>