<svg width="24" height="24" viewBox="0 0 24 24" fill="none" xmlns="http://www.w3.org/2000/svg"><path d="M6.920 2.040 C 6.667 2.058,6.343 2.092,6.200 2.118 C 5.027 2.326,3.999 3.086,3.465 4.141 C 3.225 4.613,3.109 5.072,3.041 5.820 C 2.985 6.421,2.985 21.166,3.041 21.365 C 3.143 21.733,3.433 21.956,3.853 21.989 C 3.989 22.000,4.175 21.989,4.267 21.964 C 4.378 21.934,4.815 21.642,5.565 21.098 C 6.187 20.647,6.718 20.286,6.745 20.296 C 6.772 20.307,7.245 20.676,7.796 21.116 C 8.638 21.789,8.834 21.928,9.020 21.982 C 9.424 22.099,9.478 22.072,10.899 21.037 L 12.000 20.235 13.101 21.037 C 14.522 22.072,14.576 22.099,14.980 21.982 C 15.166 21.928,15.362 21.789,16.204 21.116 C 16.755 20.676,17.228 20.307,17.255 20.296 C 17.282 20.286,17.810 20.644,18.428 21.092 C 19.045 21.541,19.625 21.937,19.716 21.974 C 19.936 22.062,20.209 22.058,20.394 21.963 C 20.563 21.877,20.798 21.634,20.908 21.432 C 20.977 21.306,20.981 20.945,20.992 13.840 C 21.005 5.526,21.005 5.514,20.755 4.680 C 20.426 3.582,19.465 2.622,18.320 2.246 C 17.657 2.028,17.701 2.030,12.340 2.019 C 9.612 2.014,7.173 2.023,6.920 2.040 M17.492 4.091 C 17.893 4.188,18.109 4.309,18.400 4.600 C 18.691 4.890,18.812 5.106,18.909 5.508 C 18.969 5.754,18.977 6.413,18.989 12.410 L 19.004 19.039 18.392 18.595 C 18.056 18.351,17.711 18.116,17.625 18.072 C 17.414 17.965,17.097 17.965,16.873 18.074 C 16.778 18.121,16.260 18.511,15.723 18.941 C 15.148 19.401,14.723 19.714,14.690 19.702 C 14.660 19.690,14.152 19.329,13.562 18.900 C 12.973 18.471,12.425 18.093,12.346 18.060 C 12.162 17.983,11.838 17.983,11.654 18.060 C 11.575 18.093,11.027 18.471,10.438 18.900 C 9.848 19.329,9.340 19.690,9.310 19.702 C 9.277 19.714,8.852 19.401,8.277 18.941 C 7.740 18.511,7.222 18.121,7.127 18.074 C 6.903 17.965,6.586 17.965,6.375 18.072 C 6.289 18.116,5.944 18.351,5.608 18.595 L 4.996 19.039 5.011 12.410 C 5.023 6.413,5.031 5.754,5.091 5.508 C 5.177 5.151,5.299 4.913,5.520 4.667 C 5.883 4.262,6.281 4.091,6.980 4.039 C 7.200 4.023,9.594 4.013,12.300 4.018 C 16.701 4.025,17.249 4.033,17.492 4.091 M15.160 7.023 C 15.072 7.061,14.278 7.825,13.010 9.091 L 11.001 11.098 10.250 10.352 C 9.472 9.577,9.286 9.442,9.000 9.442 C 8.801 9.442,8.553 9.566,8.322 9.782 C 7.977 10.104,7.871 10.469,8.019 10.823 C 8.064 10.932,8.450 11.348,9.272 12.174 C 10.516 13.425,10.684 13.559,11.000 13.559 C 11.340 13.559,11.417 13.492,13.968 10.934 C 16.503 8.393,16.558 8.332,16.559 8.000 C 16.560 7.683,16.169 7.163,15.820 7.018 C 15.644 6.944,15.339 6.946,15.160 7.023 " stroke="none" fill-rule="evenodd" fill="black"></path></svg>