<svg width="24" height="24" viewBox="0 0 24 24" fill="none" xmlns="http://www.w3.org/2000/svg"><path d="M6.920 2.040 C 6.150 2.092,5.672 2.205,5.180 2.451 C 4.096 2.993,3.372 3.941,3.126 5.142 C 3.006 5.725,2.996 6.472,3.008 13.840 C 3.019 20.945,3.023 21.306,3.092 21.432 C 3.202 21.634,3.437 21.877,3.606 21.963 C 3.791 22.058,4.064 22.062,4.284 21.974 C 4.375 21.937,4.955 21.541,5.572 21.092 C 6.190 20.644,6.718 20.286,6.745 20.296 C 6.772 20.307,7.245 20.676,7.796 21.116 C 8.638 21.789,8.834 21.928,9.020 21.982 C 9.424 22.099,9.478 22.072,10.899 21.037 L 12.000 20.235 13.101 21.037 C 14.522 22.072,14.576 22.099,14.980 21.982 C 15.166 21.928,15.362 21.789,16.204 21.116 C 16.755 20.676,17.228 20.307,17.255 20.296 C 17.282 20.286,17.813 20.646,18.434 21.097 C 19.081 21.567,19.627 21.935,19.712 21.958 C 20.190 22.091,20.675 21.925,20.880 21.558 L 20.980 21.380 20.992 13.880 C 21.005 5.522,21.005 5.514,20.755 4.680 C 20.426 3.582,19.465 2.622,18.320 2.246 C 17.657 2.028,17.701 2.030,12.340 2.019 C 9.612 2.014,7.173 2.023,6.920 2.040 M17.492 4.091 C 17.893 4.188,18.109 4.309,18.400 4.600 C 18.691 4.890,18.812 5.106,18.909 5.508 C 18.969 5.754,18.977 6.413,18.989 12.410 L 19.004 19.039 18.392 18.595 C 18.056 18.351,17.711 18.116,17.625 18.072 C 17.414 17.965,17.097 17.965,16.873 18.074 C 16.778 18.121,16.260 18.511,15.723 18.941 C 15.148 19.401,14.723 19.714,14.690 19.702 C 14.660 19.690,14.152 19.329,13.562 18.900 C 12.973 18.471,12.425 18.093,12.346 18.060 C 12.162 17.983,11.838 17.983,11.654 18.060 C 11.575 18.093,11.027 18.471,10.438 18.900 C 9.848 19.329,9.340 19.690,9.310 19.702 C 9.277 19.714,8.852 19.401,8.277 18.941 C 7.740 18.511,7.222 18.121,7.127 18.074 C 6.903 17.965,6.586 17.965,6.375 18.072 C 6.289 18.116,5.944 18.351,5.608 18.595 L 4.996 19.039 5.011 12.410 C 5.023 6.413,5.031 5.754,5.091 5.508 C 5.177 5.151,5.299 4.913,5.520 4.667 C 5.883 4.262,6.281 4.091,6.980 4.039 C 7.200 4.023,9.594 4.013,12.300 4.018 C 16.701 4.025,17.249 4.033,17.492 4.091 " stroke="none" fill-rule="evenodd" fill="black"></path></svg>