<svg width="24" height="24" viewBox="0 0 24 24" fill="none" xmlns="http://www.w3.org/2000/svg"><path d="M16.180 2.039 C 15.952 2.098,15.855 2.153,15.732 2.293 C 15.484 2.575,15.500 1.897,15.500 12.000 C 15.500 22.174,15.481 21.428,15.749 21.725 C 16.084 22.095,16.916 22.095,17.251 21.725 C 17.519 21.428,17.500 22.174,17.500 12.000 C 17.500 3.252,17.496 2.730,17.430 2.557 C 17.339 2.323,17.151 2.145,16.909 2.064 C 16.709 1.997,16.385 1.986,16.180 2.039 M11.614 5.057 C 11.377 5.131,11.212 5.261,11.109 5.453 L 11.020 5.620 11.010 11.914 C 11.003 16.059,11.013 18.259,11.039 18.358 C 11.144 18.747,11.434 18.961,11.896 18.991 C 12.381 19.022,12.699 18.882,12.880 18.558 L 12.980 18.380 12.980 12.000 L 12.980 5.620 12.891 5.453 C 12.842 5.362,12.746 5.247,12.678 5.199 C 12.414 5.010,11.957 4.950,11.614 5.057 M2.614 9.057 C 2.377 9.131,2.212 9.261,2.109 9.453 C 2.020 9.619,2.020 9.629,2.009 11.911 C 2.001 13.392,2.012 14.256,2.039 14.355 C 2.144 14.747,2.433 14.961,2.896 14.991 C 3.381 15.022,3.699 14.882,3.880 14.558 L 3.980 14.380 3.980 12.000 L 3.980 9.620 3.891 9.453 C 3.842 9.362,3.746 9.247,3.678 9.199 C 3.414 9.010,2.957 8.950,2.614 9.057 M20.614 9.057 C 20.377 9.131,20.212 9.261,20.109 9.453 C 20.020 9.619,20.020 9.629,20.009 11.911 C 20.001 13.392,20.012 14.256,20.039 14.355 C 20.144 14.747,20.433 14.961,20.896 14.991 C 21.381 15.022,21.699 14.882,21.880 14.558 L 21.980 14.380 21.980 12.000 L 21.980 9.620 21.891 9.453 C 21.842 9.362,21.746 9.247,21.678 9.199 C 21.414 9.010,20.957 8.950,20.614 9.057 M7.180 10.039 C 6.952 10.098,6.855 10.153,6.732 10.293 C 6.510 10.545,6.500 10.621,6.500 12.000 C 6.500 13.396,6.509 13.459,6.749 13.725 C 7.084 14.095,7.916 14.095,8.251 13.725 C 8.491 13.459,8.500 13.396,8.500 12.000 C 8.500 10.595,8.484 10.494,8.230 10.251 C 8.005 10.037,7.547 9.945,7.180 10.039 " stroke="none" fill-rule="evenodd" fill="black"></path></svg>