<svg width="24" height="24" viewBox="0 0 24 24" fill="none" xmlns="http://www.w3.org/2000/svg"><path d="M11.614 2.057 C 11.377 2.131,11.212 2.261,11.109 2.453 L 11.020 2.620 11.010 11.914 C 11.003 18.056,11.013 21.260,11.040 21.358 C 11.144 21.747,11.435 21.962,11.896 21.991 C 12.381 22.022,12.699 21.882,12.880 21.558 L 12.980 21.380 12.980 12.000 L 12.980 2.620 12.891 2.453 C 12.842 2.362,12.746 2.247,12.678 2.199 C 12.414 2.010,11.957 1.950,11.614 2.057 M7.180 5.039 C 6.952 5.098,6.855 5.153,6.732 5.293 C 6.486 5.572,6.500 5.172,6.500 12.000 C 6.500 18.879,6.483 18.431,6.749 18.725 C 7.084 19.095,7.916 19.095,8.251 18.725 C 8.517 18.431,8.500 18.879,8.500 12.000 C 8.500 6.117,8.496 5.729,8.430 5.557 C 8.339 5.323,8.151 5.145,7.909 5.064 C 7.709 4.997,7.385 4.986,7.180 5.039 M16.180 5.039 C 15.952 5.098,15.855 5.153,15.732 5.293 C 15.486 5.572,15.500 5.172,15.500 12.000 C 15.500 18.879,15.483 18.431,15.749 18.725 C 16.084 19.095,16.916 19.095,17.251 18.725 C 17.517 18.431,17.500 18.879,17.500 12.000 C 17.500 6.117,17.496 5.729,17.430 5.557 C 17.339 5.323,17.151 5.145,16.909 5.064 C 16.709 4.997,16.385 4.986,16.180 5.039 M2.614 9.057 C 2.377 9.131,2.212 9.261,2.109 9.453 C 2.020 9.619,2.020 9.629,2.009 11.911 C 2.001 13.392,2.012 14.256,2.039 14.355 C 2.144 14.747,2.433 14.961,2.896 14.991 C 3.381 15.022,3.699 14.882,3.880 14.558 L 3.980 14.380 3.980 12.000 L 3.980 9.620 3.891 9.453 C 3.842 9.362,3.746 9.247,3.678 9.199 C 3.414 9.010,2.957 8.950,2.614 9.057 M20.614 9.057 C 20.377 9.131,20.212 9.261,20.109 9.453 C 20.020 9.619,20.020 9.629,20.009 11.911 C 20.001 13.392,20.012 14.256,20.039 14.355 C 20.144 14.747,20.433 14.961,20.896 14.991 C 21.381 15.022,21.699 14.882,21.880 14.558 L 21.980 14.380 21.980 12.000 L 21.980 9.620 21.891 9.453 C 21.842 9.362,21.746 9.247,21.678 9.199 C 21.414 9.010,20.957 8.950,20.614 9.057 " stroke="none" fill-rule="evenodd" fill="black"></path></svg>