<svg width="24" height="24" viewBox="0 0 24 24" fill="none" xmlns="http://www.w3.org/2000/svg"><path d="M11.280 1.023 C 11.203 1.032,10.951 1.059,10.720 1.083 C 9.527 1.210,8.337 1.558,7.180 2.120 C 6.045 2.671,5.193 3.285,4.238 4.239 C 3.277 5.198,2.643 6.080,2.097 7.220 C 0.301 10.968,0.728 15.286,3.226 18.633 C 3.701 19.269,4.753 20.316,5.400 20.797 C 9.364 23.745,14.666 23.734,18.637 20.770 C 19.246 20.316,20.316 19.246,20.770 18.637 C 23.744 14.652,23.744 9.348,20.770 5.363 C 20.316 4.755,19.247 3.686,18.640 3.235 C 17.045 2.049,15.365 1.360,13.423 1.096 C 13.000 1.038,11.574 0.990,11.280 1.023 M13.320 3.101 C 15.883 3.488,18.124 4.931,19.560 7.120 C 19.863 7.583,20.303 8.479,20.492 9.020 C 20.838 10.013,20.977 10.865,20.977 12.000 C 20.977 13.493,20.720 14.621,20.080 15.940 C 19.375 17.394,18.311 18.607,16.927 19.532 C 16.138 20.060,14.876 20.588,13.908 20.797 C 11.266 21.366,8.479 20.708,6.370 19.019 C 4.857 17.807,3.722 16.029,3.267 14.160 C 3.081 13.397,3.023 12.888,3.023 12.000 C 3.023 10.507,3.280 9.379,3.920 8.060 C 4.971 5.891,6.877 4.221,9.160 3.466 C 9.865 3.233,10.432 3.118,11.340 3.024 C 11.662 2.991,12.911 3.039,13.320 3.101 M13.614 6.057 C 13.377 6.131,13.212 6.261,13.109 6.453 L 13.020 6.620 13.009 11.914 C 13.002 15.393,13.013 17.259,13.039 17.358 C 13.144 17.747,13.434 17.961,13.896 17.991 C 14.381 18.022,14.699 17.882,14.880 17.558 L 14.980 17.380 14.980 12.000 L 14.980 6.620 14.891 6.453 C 14.842 6.362,14.746 6.247,14.678 6.199 C 14.414 6.010,13.957 5.950,13.614 6.057 M9.614 8.057 C 9.377 8.131,9.212 8.261,9.109 8.453 L 9.020 8.620 9.009 11.912 C 9.002 14.060,9.012 15.257,9.039 15.356 C 9.144 15.747,9.434 15.961,9.896 15.991 C 10.381 16.022,10.699 15.882,10.880 15.558 L 10.980 15.380 10.980 12.000 L 10.980 8.620 10.891 8.453 C 10.842 8.362,10.746 8.247,10.678 8.199 C 10.414 8.010,9.957 7.950,9.614 8.057 M5.614 10.057 C 5.377 10.131,5.212 10.261,5.109 10.453 C 5.023 10.614,5.020 10.665,5.008 11.908 C 5.000 12.720,5.011 13.254,5.038 13.352 C 5.144 13.747,5.432 13.961,5.896 13.991 C 6.381 14.022,6.699 13.882,6.880 13.558 L 6.980 13.380 6.980 12.000 C 6.980 10.650,6.978 10.616,6.891 10.453 C 6.842 10.362,6.746 10.247,6.678 10.199 C 6.414 10.010,5.957 9.950,5.614 10.057 M17.614 10.057 C 17.377 10.131,17.212 10.261,17.109 10.453 C 17.023 10.614,17.020 10.665,17.008 11.908 C 17.000 12.720,17.011 13.254,17.038 13.352 C 17.144 13.747,17.432 13.961,17.896 13.991 C 18.381 14.022,18.699 13.882,18.880 13.558 L 18.980 13.380 18.980 12.000 C 18.980 10.650,18.978 10.616,18.891 10.453 C 18.842 10.362,18.746 10.247,18.678 10.199 C 18.414 10.010,17.957 9.950,17.614 10.057 " stroke="none" fill-rule="evenodd" fill="black"></path></svg>