<svg width="24" height="24" viewBox="0 0 24 24" fill="none" xmlns="http://www.w3.org/2000/svg"><path d="M11.614 2.057 C 11.377 2.131,11.212 2.261,11.109 2.453 C 11.021 2.618,11.020 2.647,11.008 4.410 C 11.001 5.557,11.012 6.255,11.038 6.354 C 11.144 6.747,11.433 6.961,11.896 6.991 C 12.381 7.022,12.699 6.882,12.880 6.558 L 12.980 6.380 12.980 4.500 C 12.980 2.633,12.979 2.619,12.891 2.453 C 12.842 2.362,12.746 2.247,12.678 2.199 C 12.414 2.010,11.957 1.950,11.614 2.057 M2.075 6.573 C 1.651 6.693,1.291 7.029,1.111 7.474 L 1.020 7.700 1.009 11.855 C 1.002 14.556,1.012 16.088,1.039 16.231 C 1.239 17.316,2.354 17.810,3.299 17.231 C 3.558 17.073,8.441 13.318,8.693 13.083 C 8.949 12.845,9.070 12.630,9.142 12.284 C 9.249 11.772,9.089 11.286,8.693 10.917 C 8.547 10.781,4.419 7.588,3.510 6.908 C 3.427 6.846,3.240 6.740,3.094 6.671 C 2.786 6.527,2.378 6.487,2.075 6.573 M21.140 6.573 C 20.929 6.644,20.653 6.787,20.480 6.916 C 19.707 7.490,15.454 10.780,15.307 10.917 C 15.051 11.155,14.930 11.370,14.858 11.716 C 14.751 12.228,14.911 12.714,15.307 13.083 C 15.559 13.318,20.442 17.073,20.701 17.231 C 21.316 17.607,22.062 17.541,22.535 17.067 C 22.634 16.968,22.752 16.814,22.797 16.725 C 23.000 16.328,22.999 16.354,22.999 12.000 C 22.999 7.646,23.000 7.672,22.797 7.275 C 22.679 7.044,22.413 6.792,22.150 6.663 C 21.878 6.530,21.398 6.487,21.140 6.573 M4.960 10.540 C 5.983 11.326,6.820 11.983,6.820 12.000 C 6.820 12.017,5.983 12.674,4.960 13.460 C 3.937 14.247,3.078 14.908,3.050 14.930 C 3.010 14.962,3.000 14.370,3.000 12.000 C 3.000 9.630,3.010 9.038,3.050 9.070 C 3.078 9.092,3.937 9.753,4.960 10.540 M20.990 13.477 L 20.980 14.954 19.080 13.492 C 18.035 12.689,17.180 12.017,17.180 12.000 C 17.180 11.983,18.035 11.311,19.080 10.508 L 20.980 9.046 20.990 10.523 C 20.996 11.335,20.996 12.665,20.990 13.477 M11.545 9.579 C 11.320 9.659,11.128 9.863,11.059 10.096 C 10.972 10.388,10.972 13.612,11.059 13.904 C 11.173 14.287,11.493 14.486,11.997 14.488 C 12.501 14.490,12.827 14.289,12.941 13.904 C 13.029 13.609,13.028 10.387,12.940 10.092 C 12.868 9.852,12.645 9.627,12.413 9.563 C 12.200 9.504,11.731 9.513,11.545 9.579 M11.614 17.057 C 11.377 17.131,11.212 17.261,11.109 17.453 C 11.021 17.618,11.020 17.647,11.008 19.410 C 11.001 20.557,11.012 21.255,11.038 21.354 C 11.144 21.747,11.433 21.961,11.896 21.991 C 12.381 22.022,12.699 21.882,12.880 21.558 L 12.980 21.380 12.980 19.500 C 12.980 17.633,12.979 17.619,12.891 17.453 C 12.842 17.362,12.746 17.247,12.678 17.199 C 12.414 17.010,11.957 16.950,11.614 17.057 " stroke="none" fill-rule="evenodd" fill="black"></path></svg>