<svg width="24" height="24" viewBox="0 0 24 24" fill="none" xmlns="http://www.w3.org/2000/svg"><path d="M11.614 2.057 C 11.377 2.131,11.212 2.261,11.109 2.453 C 11.021 2.618,11.020 2.647,11.008 4.410 C 11.001 5.557,11.012 6.255,11.038 6.354 C 11.144 6.747,11.433 6.961,11.896 6.991 C 12.381 7.022,12.699 6.882,12.880 6.558 L 12.980 6.380 12.980 4.500 C 12.980 2.633,12.979 2.619,12.891 2.453 C 12.842 2.362,12.746 2.247,12.678 2.199 C 12.414 2.010,11.957 1.950,11.614 2.057 M4.171 7.019 C 3.826 7.169,3.440 7.688,3.441 8.000 C 3.442 8.312,3.554 8.450,4.851 9.750 L 6.100 11.000 3.956 11.000 C 1.670 11.000,1.593 11.006,1.322 11.199 C 1.100 11.357,1.020 11.568,1.020 12.000 C 1.020 12.331,1.033 12.403,1.120 12.558 C 1.230 12.755,1.414 12.898,1.635 12.959 C 1.724 12.984,2.616 13.000,3.940 13.000 L 6.100 13.000 4.851 14.250 C 3.554 15.550,3.442 15.688,3.441 16.000 C 3.440 16.320,3.832 16.837,4.188 16.986 C 4.377 17.065,4.627 17.063,4.823 16.982 C 4.935 16.935,5.563 16.338,7.005 14.908 C 8.119 13.804,9.103 12.841,9.192 12.769 C 9.366 12.626,9.560 12.221,9.560 11.999 C 9.560 11.728,9.216 11.120,9.063 11.120 C 9.040 11.120,8.112 10.212,7.001 9.102 C 5.611 7.714,4.934 7.064,4.831 7.022 C 4.648 6.946,4.343 6.944,4.171 7.019 M19.160 7.023 C 19.072 7.061,18.274 7.829,16.999 9.102 C 15.888 10.212,14.960 11.120,14.937 11.120 C 14.784 11.120,14.440 11.728,14.440 11.999 C 14.440 12.221,14.634 12.626,14.808 12.769 C 14.897 12.841,15.881 13.804,16.995 14.908 C 18.437 16.338,19.065 16.935,19.177 16.982 C 19.373 17.063,19.623 17.065,19.812 16.986 C 20.168 16.837,20.560 16.320,20.559 16.000 C 20.558 15.688,20.446 15.550,19.149 14.250 L 17.900 13.000 20.060 13.000 C 21.384 13.000,22.276 12.984,22.365 12.959 C 22.586 12.898,22.770 12.755,22.880 12.558 C 22.967 12.402,22.980 12.332,22.979 12.000 C 22.978 11.567,22.898 11.355,22.678 11.199 C 22.407 11.006,22.330 11.000,20.044 11.000 L 17.900 11.000 19.149 9.750 C 20.446 8.450,20.558 8.312,20.559 8.000 C 20.560 7.683,20.169 7.163,19.820 7.018 C 19.644 6.944,19.339 6.946,19.160 7.023 M11.545 9.579 C 11.320 9.659,11.128 9.863,11.059 10.096 C 10.972 10.388,10.972 13.612,11.059 13.904 C 11.173 14.287,11.493 14.486,11.997 14.488 C 12.501 14.490,12.827 14.289,12.941 13.904 C 13.029 13.609,13.028 10.387,12.940 10.092 C 12.868 9.852,12.645 9.627,12.413 9.563 C 12.200 9.504,11.731 9.513,11.545 9.579 M11.614 17.057 C 11.377 17.131,11.212 17.261,11.109 17.453 C 11.021 17.618,11.020 17.647,11.008 19.410 C 11.001 20.557,11.012 21.255,11.038 21.354 C 11.144 21.747,11.433 21.961,11.896 21.991 C 12.381 22.022,12.699 21.882,12.880 21.558 L 12.980 21.380 12.980 19.500 C 12.980 17.633,12.979 17.619,12.891 17.453 C 12.842 17.362,12.746 17.247,12.678 17.199 C 12.414 17.010,11.957 16.950,11.614 17.057 " stroke="none" fill-rule="evenodd" fill="black"></path></svg>