<svg width="24" height="24" viewBox="0 0 24 24" fill="none" xmlns="http://www.w3.org/2000/svg"><path d="M12.620 0.646 C 12.390 0.765,10.153 3.011,10.040 3.237 C 9.986 3.344,9.951 3.489,9.951 3.600 C 9.951 3.934,10.057 4.068,11.294 5.306 C 12.532 6.543,12.666 6.649,13.000 6.649 C 13.477 6.649,14.049 6.077,14.049 5.600 C 14.049 5.365,13.943 5.155,13.673 4.860 C 13.534 4.708,13.489 4.637,13.541 4.652 C 13.584 4.665,13.701 4.695,13.800 4.720 C 16.286 5.335,18.350 7.263,19.132 9.700 C 19.418 10.591,19.498 11.195,19.468 12.240 C 19.434 13.430,19.244 14.221,18.740 15.260 C 18.286 16.198,17.619 17.072,16.905 17.665 C 16.193 18.256,16.118 18.327,16.039 18.481 C 15.878 18.798,15.976 19.219,16.295 19.586 C 16.571 19.903,16.959 20.000,17.309 19.841 C 17.737 19.647,18.815 18.678,19.378 17.982 C 22.174 14.525,22.203 9.607,19.450 6.104 C 19.138 5.706,18.202 4.782,17.818 4.492 C 17.072 3.928,16.255 3.467,15.434 3.145 C 14.960 2.959,14.064 2.707,13.700 2.657 C 13.590 2.642,13.486 2.622,13.469 2.612 C 13.451 2.602,13.537 2.486,13.659 2.354 C 14.055 1.926,14.144 1.601,13.962 1.244 C 13.852 1.028,13.576 0.750,13.365 0.643 C 13.152 0.534,12.835 0.535,12.620 0.646 M6.700 4.155 C 6.268 4.352,5.132 5.372,4.601 6.040 C 2.659 8.482,2.024 11.626,2.869 14.620 C 3.572 17.113,5.390 19.309,7.720 20.480 C 8.435 20.840,9.305 21.144,10.060 21.299 C 10.236 21.335,10.422 21.373,10.473 21.384 C 10.561 21.402,10.553 21.417,10.342 21.645 C 10.219 21.778,10.081 21.960,10.035 22.051 C 9.863 22.387,9.957 22.759,10.299 23.101 C 10.646 23.448,11.010 23.537,11.363 23.360 C 11.607 23.238,13.838 21.007,13.960 20.763 C 14.076 20.532,14.076 20.268,13.960 20.037 C 13.842 19.800,11.608 17.562,11.372 17.444 C 11.151 17.334,10.849 17.333,10.635 17.443 C 10.424 17.550,10.148 17.828,10.038 18.044 C 9.858 18.397,9.944 18.720,10.327 19.140 C 10.465 19.291,10.511 19.363,10.459 19.348 C 10.416 19.335,10.269 19.296,10.133 19.262 C 7.711 18.650,5.654 16.728,4.887 14.360 C 4.617 13.528,4.520 12.911,4.520 12.035 C 4.520 10.760,4.726 9.845,5.260 8.740 C 5.714 7.802,6.384 6.923,7.095 6.336 C 7.771 5.778,7.881 5.674,7.961 5.518 C 8.122 5.202,8.024 4.781,7.705 4.414 C 7.432 4.100,7.040 3.999,6.700 4.155 " stroke="none" fill-rule="evenodd" fill="black"></path></svg>