<svg width="24" height="24" viewBox="0 0 24 24" fill="none" xmlns="http://www.w3.org/2000/svg"><path d="M3.649 1.039 C 3.267 1.131,3.039 1.437,3.009 1.900 C 2.978 2.381,3.119 2.699,3.442 2.880 L 3.620 2.980 5.271 3.000 L 6.923 3.020 6.257 3.640 C 4.401 5.369,3.643 6.307,2.977 7.700 C 2.552 8.588,2.251 9.578,2.093 10.600 C 1.993 11.245,1.993 12.755,2.093 13.400 C 2.478 15.893,3.671 18.042,5.557 19.640 C 6.701 20.609,8.037 21.298,9.513 21.682 C 10.011 21.811,10.140 21.822,10.379 21.755 C 10.729 21.658,11.000 21.199,11.000 20.701 C 11.000 20.401,10.955 20.262,10.807 20.106 C 10.654 19.945,10.566 19.906,9.919 19.721 C 8.421 19.292,7.303 18.634,6.276 17.574 C 5.634 16.912,5.218 16.321,4.817 15.499 C 4.050 13.932,3.822 12.165,4.161 10.422 C 4.402 9.181,5.022 7.886,5.847 6.900 C 6.221 6.452,7.536 5.160,8.360 4.429 L 8.980 3.879 9.000 6.129 L 9.020 8.380 9.120 8.558 C 9.287 8.856,9.572 9.000,10.000 9.000 C 10.428 9.000,10.713 8.856,10.880 8.558 L 10.980 8.380 10.980 5.000 L 10.980 1.620 10.880 1.442 C 10.825 1.344,10.702 1.209,10.607 1.142 L 10.433 1.020 7.107 1.014 C 5.277 1.010,3.721 1.021,3.649 1.039 M13.660 2.235 C 13.379 2.307,13.212 2.477,13.083 2.821 C 12.992 3.065,12.972 3.480,13.043 3.667 C 13.099 3.817,13.267 3.991,13.440 4.078 C 13.517 4.117,13.769 4.198,14.000 4.258 C 15.344 4.608,16.518 5.263,17.515 6.218 C 19.506 8.126,20.368 10.857,19.839 13.578 C 19.598 14.819,18.978 16.114,18.153 17.100 C 17.779 17.548,16.464 18.840,15.640 19.571 L 15.020 20.121 15.000 17.871 C 14.980 15.626,14.980 15.620,14.889 15.450 C 14.724 15.140,14.329 14.970,13.874 15.011 C 13.435 15.051,13.138 15.276,13.039 15.644 C 13.012 15.743,13.002 16.940,13.009 19.088 L 13.020 22.380 13.120 22.558 C 13.175 22.656,13.298 22.791,13.393 22.858 L 13.567 22.980 16.886 22.991 C 19.051 22.998,20.257 22.988,20.356 22.961 C 20.584 22.900,20.768 22.758,20.880 22.558 C 20.967 22.402,20.980 22.332,20.979 22.000 C 20.978 21.567,20.898 21.355,20.678 21.199 C 20.417 21.012,20.288 21.000,18.625 21.000 L 17.062 21.000 17.541 20.554 C 18.520 19.643,19.619 18.504,19.967 18.040 C 20.999 16.661,21.639 15.130,21.907 13.400 C 22.007 12.760,22.006 11.249,21.907 10.600 C 21.573 8.425,20.615 6.498,19.120 4.997 C 18.269 4.142,17.453 3.545,16.460 3.049 C 15.402 2.522,14.063 2.132,13.660 2.235 " stroke="none" fill-rule="evenodd" fill="black"></path></svg>