<svg width="24" height="24" viewBox="0 0 24 24" fill="none" xmlns="http://www.w3.org/2000/svg"><path d="M10.626 0.645 C 10.420 0.754,10.146 1.033,10.038 1.244 C 9.856 1.601,9.945 1.926,10.341 2.354 C 10.463 2.486,10.549 2.602,10.531 2.612 C 10.514 2.622,10.410 2.642,10.300 2.657 C 10.190 2.672,9.860 2.747,9.566 2.823 C 7.040 3.479,4.820 5.245,3.602 7.567 C 2.781 9.132,2.414 10.832,2.523 12.566 C 2.649 14.569,3.350 16.387,4.601 17.960 C 5.134 18.631,6.263 19.647,6.691 19.841 C 7.041 20.000,7.429 19.903,7.705 19.586 C 8.033 19.209,8.127 18.776,7.949 18.463 C 7.900 18.376,7.743 18.208,7.600 18.089 C 6.857 17.471,6.694 17.321,6.384 16.964 C 5.930 16.444,5.563 15.887,5.260 15.260 C 4.726 14.155,4.520 13.240,4.520 11.965 C 4.520 9.963,5.281 8.130,6.706 6.706 C 7.655 5.757,8.870 5.057,10.120 4.742 C 10.263 4.705,10.416 4.665,10.459 4.652 C 10.511 4.637,10.465 4.709,10.327 4.860 C 10.057 5.155,9.951 5.365,9.951 5.600 C 9.951 6.077,10.523 6.649,11.000 6.649 C 11.334 6.649,11.468 6.543,12.706 5.306 C 13.943 4.068,14.049 3.934,14.049 3.600 C 14.049 3.489,14.014 3.344,13.960 3.237 C 13.842 3.000,11.608 0.762,11.372 0.644 C 11.152 0.534,10.835 0.535,10.626 0.645 M16.609 4.165 C 16.272 4.332,15.961 4.814,15.960 5.172 C 15.960 5.527,16.031 5.615,16.905 6.336 C 17.615 6.923,18.285 7.800,18.740 8.740 C 19.244 9.779,19.434 10.570,19.468 11.760 C 19.498 12.805,19.418 13.409,19.132 14.300 C 18.356 16.718,16.312 18.644,13.867 19.262 C 13.731 19.296,13.584 19.335,13.541 19.348 C 13.489 19.363,13.535 19.291,13.673 19.140 C 14.056 18.720,14.142 18.397,13.962 18.044 C 13.852 17.828,13.576 17.550,13.365 17.443 C 13.151 17.333,12.849 17.334,12.628 17.444 C 12.392 17.562,10.158 19.800,10.040 20.037 C 9.924 20.268,9.924 20.532,10.040 20.763 C 10.162 21.007,12.393 23.238,12.637 23.360 C 12.990 23.537,13.354 23.448,13.701 23.101 C 14.043 22.759,14.137 22.387,13.965 22.051 C 13.919 21.960,13.781 21.778,13.658 21.645 C 13.447 21.417,13.439 21.402,13.527 21.384 C 13.578 21.373,13.764 21.335,13.940 21.299 C 15.315 21.018,16.766 20.340,17.896 19.450 C 18.262 19.162,19.162 18.262,19.450 17.896 C 19.946 17.266,20.426 16.459,20.731 15.740 C 22.110 12.495,21.604 8.813,19.399 6.040 C 18.868 5.372,17.732 4.352,17.300 4.155 C 17.085 4.057,16.819 4.061,16.609 4.165 " stroke="none" fill-rule="evenodd" fill="black"></path></svg>