<svg width="24" height="24" viewBox="0 0 24 24" fill="none" xmlns="http://www.w3.org/2000/svg"><path d="M13.587 1.041 C 13.411 1.094,13.208 1.269,13.110 1.452 L 13.020 1.620 13.009 4.912 C 13.002 7.060,13.012 8.257,13.039 8.356 C 13.144 8.747,13.434 8.961,13.896 8.991 C 14.381 9.022,14.699 8.882,14.880 8.558 L 14.980 8.380 15.000 6.133 L 15.020 3.885 15.596 4.391 C 16.367 5.066,17.781 6.454,18.154 6.900 C 19.684 8.732,20.304 11.188,19.839 13.578 C 19.395 15.866,17.876 17.912,15.780 19.049 C 15.253 19.335,14.786 19.519,14.082 19.721 C 13.434 19.906,13.346 19.945,13.193 20.106 C 13.045 20.262,13.000 20.401,13.000 20.701 C 13.000 21.341,13.377 21.799,13.906 21.800 C 14.071 21.800,14.835 21.600,15.361 21.419 C 15.960 21.213,16.983 20.701,17.527 20.335 C 19.916 18.726,21.461 16.280,21.907 13.400 C 22.007 12.760,22.006 11.249,21.907 10.600 C 21.643 8.878,20.999 7.339,19.967 5.960 C 19.619 5.496,18.520 4.357,17.541 3.446 L 17.062 3.000 18.641 3.000 C 19.575 3.000,20.279 2.983,20.365 2.959 C 20.586 2.898,20.770 2.755,20.880 2.558 C 20.967 2.402,20.980 2.332,20.979 2.000 C 20.978 1.567,20.898 1.355,20.678 1.199 C 20.398 0.999,20.414 1.000,16.944 1.003 C 15.160 1.005,13.649 1.022,13.587 1.041 M9.900 2.224 C 8.335 2.599,7.172 3.125,6.054 3.965 C 3.879 5.598,2.512 7.887,2.093 10.600 C 1.993 11.245,1.993 12.755,2.093 13.400 C 2.251 14.422,2.552 15.412,2.977 16.300 C 3.643 17.693,4.401 18.631,6.257 20.360 L 6.923 20.980 5.268 21.000 L 3.614 21.020 3.417 21.142 C 3.111 21.331,3.020 21.528,3.020 22.000 C 3.020 22.331,3.033 22.403,3.120 22.558 C 3.232 22.758,3.416 22.900,3.644 22.961 C 3.743 22.988,4.949 22.998,7.114 22.991 L 10.433 22.980 10.607 22.858 C 10.702 22.791,10.825 22.656,10.880 22.558 L 10.980 22.380 10.980 19.000 L 10.980 15.620 10.891 15.453 C 10.785 15.256,10.622 15.131,10.371 15.055 C 9.862 14.902,9.311 15.076,9.109 15.453 C 9.021 15.619,9.020 15.639,9.000 17.871 L 8.980 20.121 8.360 19.571 C 7.536 18.840,6.221 17.548,5.847 17.100 C 4.317 15.271,3.696 12.813,4.161 10.422 C 4.384 9.275,4.959 8.021,5.693 7.080 C 5.994 6.695,6.613 6.070,7.000 5.761 C 7.947 5.006,8.704 4.638,10.250 4.181 C 10.814 4.014,11.000 3.796,11.000 3.303 C 11.000 2.870,10.795 2.442,10.519 2.299 C 10.399 2.237,10.031 2.193,9.900 2.224 " stroke="none" fill-rule="evenodd" fill="black"></path></svg>