<svg width="24" height="24" viewBox="0 0 24 24" fill="none" xmlns="http://www.w3.org/2000/svg"><path d="M10.800 2.581 C 9.140 2.787,7.584 3.431,6.182 4.493 C 5.758 4.813,4.986 5.569,4.621 6.020 C 3.523 7.375,2.828 8.994,2.575 10.780 C 2.477 11.479,2.485 12.615,2.595 13.340 C 2.690 13.973,2.822 14.519,3.020 15.093 C 3.132 15.420,3.144 15.482,3.088 15.461 C 2.926 15.399,2.526 15.321,2.363 15.321 C 2.136 15.320,1.867 15.449,1.735 15.623 C 1.519 15.906,1.417 16.493,1.534 16.771 C 1.607 16.944,1.785 17.116,1.980 17.203 C 2.068 17.243,2.823 17.458,3.658 17.682 C 4.959 18.030,5.210 18.086,5.409 18.072 C 5.705 18.050,5.936 17.896,6.067 17.635 C 6.218 17.330,6.960 14.501,6.960 14.226 C 6.960 13.802,6.748 13.542,6.286 13.399 C 5.668 13.207,5.250 13.387,5.048 13.929 C 5.005 14.045,4.956 14.203,4.939 14.280 L 4.908 14.420 4.833 14.200 C 4.486 13.190,4.424 11.586,4.685 10.385 C 4.811 9.805,5.033 9.189,5.320 8.620 C 6.355 6.568,8.220 5.141,10.500 4.655 C 10.889 4.572,11.131 4.549,11.780 4.532 C 12.965 4.500,13.646 4.615,14.771 5.037 C 15.062 5.146,15.365 5.247,15.444 5.261 C 15.798 5.324,16.152 5.092,16.340 4.673 C 16.638 4.010,16.481 3.625,15.780 3.299 C 15.002 2.936,14.047 2.679,13.041 2.560 C 12.579 2.505,11.312 2.517,10.800 2.581 M18.288 6.003 C 18.105 6.096,17.955 6.265,17.880 6.460 C 17.854 6.526,17.655 7.246,17.436 8.060 C 17.171 9.046,17.037 9.615,17.035 9.765 C 17.028 10.184,17.248 10.457,17.704 10.598 C 18.436 10.824,18.844 10.576,19.044 9.781 L 19.094 9.584 19.168 9.802 C 19.514 10.814,19.576 12.414,19.315 13.615 C 19.056 14.809,18.412 16.070,17.572 17.026 C 16.802 17.902,15.487 18.760,14.369 19.115 C 13.471 19.400,12.869 19.493,11.960 19.491 C 10.890 19.487,10.069 19.315,8.960 18.860 C 8.651 18.734,8.285 18.712,8.100 18.810 C 7.733 19.003,7.455 19.621,7.538 20.061 C 7.575 20.260,7.835 20.533,8.113 20.665 C 8.800 20.989,9.906 21.304,10.780 21.424 C 11.361 21.503,12.544 21.514,13.080 21.445 C 14.611 21.247,15.964 20.752,17.219 19.931 C 18.314 19.215,19.333 18.175,20.056 17.040 C 20.519 16.312,20.991 15.193,21.218 14.281 C 21.430 13.434,21.542 12.372,21.499 11.620 C 21.444 10.671,21.218 9.519,20.942 8.787 L 20.838 8.514 20.929 8.543 C 21.801 8.822,22.236 8.665,22.444 7.998 C 22.623 7.421,22.474 6.999,22.020 6.797 C 21.731 6.669,18.991 5.951,18.720 5.933 C 18.508 5.918,18.428 5.931,18.288 6.003 " stroke="none" fill-rule="evenodd" fill="black"></path></svg>