<svg width="24" height="24" viewBox="0 0 24 24" fill="none" xmlns="http://www.w3.org/2000/svg"><path d="M11.080 2.045 C 7.681 2.345,4.579 4.466,3.061 7.527 C 2.739 8.175,2.580 8.586,2.380 9.287 C 2.213 9.872,2.179 10.133,2.240 10.361 C 2.339 10.729,2.789 11.000,3.299 11.000 C 3.599 11.000,3.738 10.955,3.894 10.807 C 4.054 10.655,4.133 10.481,4.258 10.000 C 4.685 8.359,5.578 6.956,6.900 5.847 C 8.980 4.103,11.895 3.550,14.497 4.404 C 15.417 4.706,16.363 5.230,17.100 5.847 C 17.548 6.221,18.840 7.536,19.571 8.360 L 20.121 8.980 17.889 9.000 L 15.658 9.020 15.459 9.122 C 15.119 9.297,14.978 9.606,15.009 10.104 C 15.039 10.566,15.253 10.856,15.644 10.961 C 15.743 10.988,16.940 10.998,19.088 10.991 L 22.380 10.980 22.558 10.880 C 22.656 10.825,22.791 10.702,22.858 10.607 L 22.980 10.433 22.980 7.027 L 22.980 3.620 22.889 3.450 C 22.724 3.140,22.329 2.970,21.874 3.011 C 21.439 3.051,21.141 3.274,21.041 3.635 C 21.017 3.721,21.000 4.425,21.000 5.359 L 21.000 6.938 20.552 6.459 C 19.721 5.570,18.862 4.714,18.460 4.374 C 16.418 2.646,13.762 1.807,11.080 2.045 M1.591 13.064 C 1.348 13.139,1.103 13.370,1.045 13.580 C 0.986 13.792,0.982 20.155,1.041 20.365 C 1.148 20.750,1.437 20.962,1.896 20.991 C 2.381 21.022,2.699 20.882,2.880 20.558 L 2.980 20.380 3.000 18.729 L 3.020 17.077 3.640 17.743 C 5.369 19.599,6.307 20.357,7.700 21.023 C 8.588 21.448,9.578 21.749,10.600 21.907 C 11.245 22.007,12.755 22.007,13.400 21.907 C 15.891 21.522,18.043 20.328,19.640 18.443 C 20.570 17.345,21.215 16.131,21.620 14.713 C 21.843 13.934,21.842 13.631,21.617 13.364 C 21.382 13.084,20.689 12.908,20.351 13.041 C 20.039 13.164,19.904 13.376,19.742 14.000 C 19.366 15.446,18.637 16.692,17.554 17.741 C 16.886 18.389,16.294 18.803,15.471 19.200 C 12.683 20.547,9.376 20.163,6.960 18.211 C 6.576 17.901,5.140 16.443,4.429 15.640 L 3.879 15.020 6.129 15.000 C 8.334 14.980,8.383 14.978,8.540 14.894 C 8.875 14.715,8.978 14.504,8.978 14.000 C 8.978 13.567,8.899 13.356,8.678 13.199 C 8.398 12.999,8.411 13.000,4.984 13.003 C 2.298 13.005,1.749 13.015,1.591 13.064 " stroke="none" fill-rule="evenodd" fill="black"></path></svg>