<svg width="24" height="24" viewBox="0 0 24 24" fill="none" xmlns="http://www.w3.org/2000/svg"><path d="M11.080 2.045 C 9.206 2.210,7.361 2.947,5.800 4.154 C 5.213 4.608,3.629 6.263,3.113 6.962 L 3.020 7.087 3.000 5.353 C 2.980 3.647,2.979 3.617,2.889 3.450 C 2.724 3.140,2.329 2.970,1.874 3.011 C 1.438 3.051,1.137 3.277,1.042 3.636 C 1.020 3.720,1.001 5.137,0.996 7.044 L 0.989 10.308 1.104 10.523 C 1.231 10.758,1.403 10.896,1.656 10.965 C 1.864 11.022,8.148 11.015,8.364 10.958 C 8.583 10.900,8.769 10.756,8.880 10.558 C 8.967 10.402,8.980 10.332,8.979 10.000 C 8.977 9.469,8.852 9.247,8.455 9.071 C 8.368 9.033,7.809 9.015,6.192 9.000 L 4.044 8.980 4.473 8.456 C 6.226 6.312,7.141 5.485,8.500 4.817 C 10.694 3.738,13.304 3.738,15.500 4.816 C 17.133 5.618,18.382 6.867,19.184 8.500 C 20.263 10.697,20.263 13.291,19.183 15.499 C 18.749 16.387,18.223 17.105,17.496 17.801 C 16.876 18.394,16.262 18.819,15.471 19.200 C 12.348 20.709,8.616 20.031,6.227 17.521 C 5.379 16.629,4.801 15.665,4.382 14.442 C 4.281 14.147,4.154 13.848,4.100 13.777 C 3.892 13.504,3.509 13.416,3.081 13.543 C 2.545 13.703,2.273 14.054,2.335 14.507 C 2.369 14.754,2.615 15.492,2.822 15.965 C 4.246 19.221,7.192 21.433,10.760 21.926 C 11.340 22.006,12.832 21.995,13.400 21.907 C 15.637 21.558,17.503 20.620,19.062 19.062 C 20.620 17.504,21.557 15.638,21.907 13.400 C 22.008 12.753,22.008 11.247,21.907 10.600 C 21.624 8.786,20.959 7.238,19.847 5.800 C 19.510 5.365,18.639 4.494,18.200 4.154 C 16.133 2.555,13.646 1.818,11.080 2.045 " stroke="none" fill-rule="evenodd" fill="black"></path></svg>