<svg width="24" height="24" viewBox="0 0 24 24" fill="none" xmlns="http://www.w3.org/2000/svg"><path d="M10.940 2.561 C 8.917 2.775,6.911 3.719,5.424 5.158 C 3.911 6.623,2.967 8.417,2.622 10.485 C 2.467 11.417,2.572 11.795,3.042 11.997 C 3.509 12.198,4.042 12.131,4.291 11.840 C 4.453 11.651,4.496 11.518,4.580 10.960 C 4.832 9.281,5.551 7.841,6.719 6.679 C 7.740 5.662,9.047 4.964,10.514 4.651 C 10.986 4.550,11.087 4.543,12.000 4.543 C 12.860 4.543,13.031 4.554,13.400 4.632 C 14.484 4.862,15.522 5.311,16.379 5.923 C 16.822 6.239,17.637 6.977,17.592 7.022 C 17.580 7.033,17.466 7.015,17.337 6.981 C 16.665 6.806,16.255 7.032,16.083 7.670 C 15.963 8.115,16.064 8.505,16.349 8.698 C 16.546 8.832,16.741 8.893,18.337 9.318 C 19.729 9.689,19.968 9.728,20.215 9.625 C 20.401 9.547,20.588 9.334,20.676 9.100 C 20.717 8.990,20.925 8.244,21.139 7.442 C 21.576 5.805,21.592 5.673,21.389 5.367 C 21.182 5.053,20.545 4.845,20.135 4.956 C 19.866 5.029,19.664 5.283,19.536 5.712 L 19.429 6.069 19.200 5.805 C 17.634 3.996,15.395 2.819,13.032 2.562 C 12.601 2.515,11.375 2.514,10.940 2.561 M20.260 11.898 C 20.238 11.907,20.151 11.925,20.068 11.939 C 19.857 11.974,19.621 12.196,19.543 12.433 C 19.509 12.536,19.454 12.809,19.419 13.040 C 19.297 13.862,19.115 14.475,18.782 15.181 C 17.699 17.479,15.611 19.031,13.076 19.425 C 12.466 19.519,11.472 19.511,10.836 19.406 C 9.376 19.164,8.062 18.534,6.946 17.540 C 6.614 17.245,6.354 16.960,6.415 16.960 C 6.427 16.960,6.540 16.987,6.666 17.020 C 7.439 17.221,7.908 16.856,7.950 16.020 C 7.965 15.720,7.959 15.689,7.847 15.515 C 7.761 15.381,7.669 15.301,7.514 15.226 C 7.218 15.082,4.353 14.320,4.110 14.320 C 3.767 14.320,3.501 14.498,3.355 14.824 C 3.223 15.118,2.480 17.967,2.480 18.177 C 2.480 18.693,2.967 19.080,3.615 19.080 C 4.039 19.080,4.296 18.841,4.464 18.291 L 4.566 17.957 5.104 18.515 C 5.975 19.420,6.682 19.947,7.740 20.482 C 8.688 20.962,9.806 21.297,10.940 21.443 C 11.478 21.512,12.613 21.501,13.220 21.422 C 14.650 21.234,16.059 20.703,17.265 19.897 C 17.883 19.485,18.263 19.168,18.803 18.614 C 20.189 17.192,21.027 15.529,21.379 13.501 C 21.535 12.602,21.424 12.202,20.966 12.007 C 20.792 11.933,20.349 11.865,20.260 11.898 " stroke="none" fill-rule="evenodd" fill="black"></path></svg>