<svg width="24" height="24" viewBox="0 0 24 24" fill="none" xmlns="http://www.w3.org/2000/svg"><path d="M11.080 2.045 C 9.507 2.184,7.883 2.751,6.540 3.630 C 5.905 4.045,5.499 4.378,4.919 4.958 C 2.953 6.926,1.919 9.544,2.013 12.320 C 2.084 14.439,2.752 16.328,4.033 18.040 C 4.430 18.570,5.305 19.464,5.800 19.847 C 7.242 20.961,8.788 21.624,10.600 21.907 C 11.168 21.995,12.660 22.006,13.240 21.926 C 15.211 21.654,16.926 20.899,18.435 19.642 C 19.722 18.570,20.792 17.052,21.378 15.469 C 21.704 14.587,21.742 14.243,21.547 13.954 C 21.287 13.567,20.579 13.367,20.172 13.564 C 19.921 13.685,19.824 13.839,19.618 14.442 C 19.402 15.073,19.098 15.726,18.801 16.200 C 16.607 19.698,12.214 20.981,8.529 19.200 C 7.477 18.693,6.612 18.015,5.847 17.100 C 4.102 15.014,3.551 12.113,4.403 9.502 C 4.953 7.820,6.121 6.296,7.620 5.309 C 8.119 4.980,8.929 4.591,9.502 4.403 C 11.478 3.758,13.651 3.908,15.500 4.816 C 16.850 5.479,17.781 6.320,19.518 8.444 L 19.956 8.980 17.807 9.000 L 15.658 9.020 15.459 9.122 C 15.119 9.297,14.978 9.606,15.009 10.104 C 15.038 10.563,15.254 10.857,15.636 10.958 C 15.852 11.015,22.136 11.022,22.344 10.965 C 22.611 10.892,22.769 10.760,22.901 10.499 L 23.022 10.260 23.001 6.940 L 22.980 3.620 22.889 3.450 C 22.724 3.140,22.329 2.970,21.874 3.011 C 21.439 3.051,21.141 3.274,21.041 3.635 C 21.017 3.721,21.000 4.451,21.000 5.439 L 21.000 7.098 20.870 6.939 C 19.982 5.853,18.793 4.611,18.200 4.154 C 16.126 2.552,13.646 1.818,11.080 2.045 " stroke="none" fill-rule="evenodd" fill="black"></path></svg>