<svg width="24" height="24" viewBox="0 0 24 24" fill="none" xmlns="http://www.w3.org/2000/svg"><path d="M11.080 2.045 C 9.838 2.154,8.478 2.557,7.363 3.145 C 6.125 3.798,5.251 4.530,3.628 6.270 L 3.020 6.923 3.000 5.271 C 2.980 3.650,2.978 3.617,2.889 3.450 C 2.724 3.140,2.329 2.970,1.874 3.011 C 1.439 3.051,1.141 3.274,1.041 3.635 C 0.985 3.836,0.986 10.208,1.042 10.409 C 1.095 10.602,1.249 10.782,1.455 10.892 L 1.620 10.980 4.912 10.991 C 7.060 10.998,8.257 10.988,8.356 10.961 C 8.584 10.900,8.768 10.758,8.880 10.558 C 8.967 10.402,8.980 10.332,8.979 10.000 C 8.977 9.469,8.852 9.247,8.455 9.071 C 8.368 9.032,7.794 9.015,6.109 9.000 L 3.879 8.980 4.429 8.360 C 5.160 7.536,6.452 6.221,6.900 5.847 C 8.985 4.102,11.896 3.550,14.497 4.404 C 17.072 5.249,19.057 7.368,19.742 10.000 C 19.867 10.481,19.946 10.655,20.106 10.807 C 20.262 10.955,20.401 11.000,20.701 11.000 C 21.211 11.000,21.661 10.729,21.760 10.361 C 21.821 10.133,21.787 9.872,21.620 9.287 C 21.215 7.871,20.569 6.652,19.644 5.563 C 17.512 3.050,14.360 1.755,11.080 2.045 M2.853 13.074 C 2.599 13.162,2.382 13.323,2.291 13.492 C 2.081 13.880,2.393 15.103,3.038 16.420 C 4.333 19.067,6.759 21.011,9.645 21.715 C 10.521 21.929,10.962 21.978,12.000 21.978 C 13.038 21.978,13.479 21.929,14.355 21.715 C 15.696 21.388,16.913 20.811,18.040 19.967 C 18.504 19.619,19.643 18.520,20.554 17.541 L 21.000 17.062 21.000 18.641 C 21.000 19.575,21.017 20.279,21.041 20.365 C 21.148 20.750,21.437 20.962,21.896 20.991 C 22.381 21.022,22.699 20.882,22.880 20.558 L 22.980 20.380 22.980 16.973 L 22.980 13.567 22.860 13.396 C 22.787 13.292,22.661 13.184,22.541 13.122 L 22.342 13.020 19.101 13.008 C 16.848 13.000,15.805 13.010,15.680 13.041 C 15.253 13.145,15.040 13.417,15.009 13.900 C 14.978 14.381,15.119 14.699,15.442 14.880 L 15.620 14.980 17.867 15.000 L 20.115 15.020 19.607 15.599 C 18.948 16.351,17.426 17.900,17.041 18.211 C 14.621 20.164,11.318 20.548,8.529 19.200 C 7.706 18.803,7.114 18.389,6.446 17.741 C 5.363 16.692,4.634 15.446,4.258 14.000 C 4.198 13.769,4.123 13.526,4.090 13.460 C 4.004 13.285,3.839 13.122,3.685 13.057 C 3.501 12.979,3.103 12.988,2.853 13.074 " stroke="none" fill-rule="evenodd" fill="black"></path></svg>