<svg width="24" height="24" viewBox="0 0 24 24" fill="none" xmlns="http://www.w3.org/2000/svg"><path d="M16.626 1.045 C 16.257 1.239,15.951 1.673,15.951 2.000 C 15.951 2.333,16.056 2.467,17.351 3.768 L 18.573 4.996 12.137 5.012 C 5.159 5.029,5.359 5.023,4.680 5.246 C 3.354 5.681,2.392 6.778,2.124 8.160 C 2.005 8.769,1.947 11.027,2.041 11.365 C 2.148 11.750,2.437 11.962,2.896 11.991 C 3.381 12.022,3.700 11.882,3.879 11.558 C 3.977 11.383,3.978 11.362,4.006 10.100 C 4.045 8.337,4.101 8.098,4.600 7.600 C 4.890 7.309,5.106 7.188,5.508 7.091 C 5.754 7.031,6.399 7.023,12.180 7.011 L 18.580 6.997 17.355 8.228 C 16.549 9.038,16.099 9.521,16.040 9.637 C 15.863 9.989,15.952 10.354,16.299 10.701 C 16.646 11.048,17.011 11.137,17.363 10.960 C 17.484 10.899,18.182 10.234,19.561 8.866 C 20.673 7.763,21.634 6.826,21.696 6.784 C 21.850 6.682,22.049 6.239,22.049 6.000 C 22.049 5.745,21.851 5.321,21.676 5.201 C 21.601 5.150,20.640 4.213,19.540 3.118 C 18.232 1.817,17.482 1.099,17.372 1.044 C 17.152 0.934,16.835 0.935,16.626 1.045 M20.614 12.057 C 20.376 12.132,20.212 12.261,20.111 12.453 C 20.028 12.611,20.022 12.691,19.995 13.900 C 19.956 15.662,19.899 15.901,19.400 16.401 C 19.121 16.681,18.839 16.841,18.480 16.923 C 18.309 16.963,16.836 16.977,11.840 16.988 L 5.420 17.003 6.646 15.771 C 7.451 14.962,7.901 14.479,7.960 14.363 C 8.137 14.011,8.048 13.646,7.701 13.299 C 7.361 12.959,6.980 12.868,6.628 13.044 C 6.518 13.099,5.768 13.817,4.460 15.118 C 3.360 16.213,2.399 17.150,2.324 17.201 C 2.149 17.321,1.951 17.745,1.951 18.000 C 1.951 18.239,2.150 18.682,2.304 18.784 C 2.366 18.826,3.327 19.763,4.439 20.866 C 5.818 22.234,6.516 22.899,6.637 22.960 C 6.989 23.137,7.354 23.048,7.701 22.701 C 8.048 22.354,8.137 21.989,7.960 21.637 C 7.901 21.521,7.452 21.039,6.647 20.230 L 5.423 19.000 11.581 19.000 C 18.389 19.000,18.521 18.996,19.320 18.755 C 20.228 18.482,21.085 17.749,21.536 16.858 C 21.901 16.138,22.016 15.323,21.993 13.620 C 21.981 12.676,21.975 12.611,21.891 12.453 C 21.842 12.362,21.746 12.247,21.678 12.199 C 21.414 12.010,20.957 11.950,20.614 12.057 " stroke="none" fill-rule="evenodd" fill="black"></path></svg>