<svg width="24" height="24" viewBox="0 0 24 24" fill="none" xmlns="http://www.w3.org/2000/svg"><path d="M10.626 1.045 C 10.257 1.239,9.951 1.673,9.951 2.000 C 9.951 2.307,10.079 2.487,10.853 3.270 L 11.575 4.000 10.138 4.000 C 8.163 4.000,7.513 4.072,6.503 4.404 C 5.266 4.810,4.128 5.533,3.199 6.504 C 0.938 8.868,0.357 12.443,1.757 15.380 C 2.547 17.037,3.798 18.336,5.350 19.110 C 5.889 19.380,6.159 19.423,6.428 19.286 C 6.833 19.080,7.137 18.395,7.003 17.990 C 6.931 17.770,6.722 17.589,6.232 17.320 C 5.625 16.987,5.215 16.688,4.802 16.280 C 3.332 14.824,2.722 12.789,3.141 10.738 C 3.550 8.736,5.094 6.999,7.060 6.329 C 7.861 6.055,8.369 6.002,10.198 6.001 L 11.575 6.000 10.853 6.730 C 10.420 7.168,10.095 7.531,10.041 7.637 C 9.863 7.988,9.952 8.354,10.299 8.701 C 10.646 9.048,11.011 9.137,11.363 8.960 C 11.480 8.901,12.051 8.365,13.062 7.365 C 13.899 6.537,14.634 5.826,14.697 5.784 C 14.850 5.682,15.049 5.238,15.049 5.000 C 15.049 4.745,14.851 4.321,14.676 4.201 C 14.601 4.150,13.865 3.438,13.040 2.618 C 12.085 1.670,11.479 1.098,11.372 1.044 C 11.152 0.934,10.835 0.934,10.626 1.045 M17.578 4.713 C 17.176 4.901,16.862 5.602,16.997 6.012 C 17.069 6.229,17.307 6.437,17.764 6.680 C 18.895 7.283,19.731 8.121,20.316 9.242 C 21.071 10.688,21.200 12.389,20.671 13.940 C 19.991 15.936,18.308 17.413,16.180 17.883 C 15.811 17.965,15.649 17.973,14.100 17.989 L 12.420 18.006 13.145 17.273 C 13.579 16.834,13.905 16.469,13.959 16.363 C 14.137 16.012,14.048 15.646,13.701 15.299 C 13.361 14.959,12.980 14.868,12.628 15.044 C 12.521 15.098,11.915 15.670,10.960 16.618 C 10.135 17.438,9.399 18.150,9.324 18.201 C 9.149 18.321,8.951 18.745,8.951 19.000 C 8.951 19.238,9.150 19.682,9.303 19.784 C 9.366 19.826,10.101 20.537,10.938 21.365 C 11.949 22.365,12.520 22.901,12.637 22.960 C 12.989 23.137,13.354 23.048,13.701 22.701 C 14.048 22.354,14.137 21.988,13.959 21.637 C 13.905 21.531,13.580 21.168,13.147 20.730 L 12.425 20.000 13.934 20.000 C 14.764 20.000,15.618 19.981,15.832 19.958 C 17.297 19.797,18.721 19.226,19.900 18.326 C 20.239 18.067,20.925 17.394,21.211 17.040 C 23.140 14.654,23.544 11.350,22.243 8.620 C 21.447 6.952,20.203 5.667,18.609 4.870 C 18.124 4.628,17.850 4.586,17.578 4.713 " stroke="none" fill-rule="evenodd" fill="black"></path></svg>