<svg width="24" height="24" viewBox="0 0 24 24" fill="none" xmlns="http://www.w3.org/2000/svg"><path d="M10.626 1.045 C 10.257 1.239,9.951 1.673,9.951 2.000 C 9.951 2.307,10.079 2.488,10.850 3.267 L 11.569 3.993 8.154 4.010 C 4.487 4.029,4.314 4.038,3.680 4.246 C 2.534 4.622,1.576 5.579,1.245 6.680 C 1.014 7.446,1.000 7.768,1.000 12.285 C 1.000 16.688,0.999 16.657,1.237 17.349 C 1.650 18.551,2.724 19.536,3.980 19.864 C 4.507 20.002,5.539 20.047,5.883 19.947 C 6.132 19.874,6.321 19.705,6.421 19.464 C 6.515 19.238,6.509 18.735,6.408 18.513 C 6.234 18.126,5.953 18.000,5.261 18.000 C 4.719 18.000,4.470 17.954,4.120 17.789 C 3.824 17.650,3.441 17.291,3.266 16.989 C 3.205 16.884,3.120 16.655,3.075 16.480 C 2.997 16.169,2.995 16.066,3.011 11.971 C 3.028 7.428,3.024 7.508,3.248 7.048 C 3.366 6.806,3.806 6.366,4.048 6.248 C 4.496 6.030,4.506 6.029,8.180 6.011 L 11.580 5.994 10.855 6.727 C 10.421 7.166,10.095 7.531,10.041 7.637 C 9.863 7.988,9.952 8.354,10.299 8.701 C 10.646 9.048,11.011 9.137,11.363 8.960 C 11.480 8.901,12.051 8.365,13.062 7.365 C 13.899 6.537,14.634 5.826,14.697 5.784 C 14.850 5.682,15.049 5.238,15.049 5.000 C 15.049 4.745,14.851 4.321,14.676 4.201 C 14.601 4.150,13.865 3.438,13.040 2.618 C 12.085 1.670,11.479 1.098,11.372 1.044 C 11.152 0.934,10.835 0.934,10.626 1.045 M18.180 4.036 C 17.708 4.168,17.514 4.447,17.512 4.997 C 17.510 5.348,17.582 5.556,17.771 5.751 C 17.949 5.935,18.203 6.000,18.741 6.000 C 19.510 6.000,19.968 6.165,20.401 6.599 C 20.688 6.885,20.825 7.127,20.925 7.520 C 21.003 7.831,21.005 7.934,20.989 12.029 C 20.972 16.572,20.976 16.492,20.752 16.952 C 20.627 17.210,20.190 17.638,19.920 17.767 C 19.496 17.971,19.491 17.971,15.840 17.988 L 12.420 18.005 13.145 17.272 C 13.580 16.833,13.905 16.469,13.959 16.363 C 14.137 16.012,14.048 15.646,13.701 15.299 C 13.361 14.959,12.980 14.868,12.628 15.044 C 12.521 15.098,11.915 15.670,10.960 16.618 C 10.135 17.438,9.399 18.150,9.324 18.201 C 9.149 18.321,8.951 18.745,8.951 19.000 C 8.951 19.238,9.150 19.682,9.303 19.784 C 9.366 19.826,10.101 20.537,10.938 21.365 C 11.949 22.365,12.520 22.901,12.637 22.960 C 12.989 23.137,13.354 23.048,13.701 22.701 C 14.048 22.354,14.137 21.988,13.959 21.637 C 13.905 21.531,13.580 21.168,13.147 20.730 L 12.425 20.000 15.582 20.000 C 19.172 20.000,19.577 19.979,20.320 19.755 C 21.422 19.423,22.425 18.421,22.755 17.320 C 22.993 16.525,23.007 16.200,22.992 11.500 L 22.979 7.380 22.869 6.980 C 22.471 5.527,21.294 4.400,19.860 4.099 C 19.504 4.024,18.374 3.982,18.180 4.036 " stroke="none" fill-rule="evenodd" fill="black"></path></svg>