<svg width="24" height="24" viewBox="0 0 24 24" fill="none" xmlns="http://www.w3.org/2000/svg"><path d="M7.620 2.046 C 7.525 2.095,6.652 2.932,5.460 4.118 C 4.360 5.213,3.399 6.150,3.324 6.201 C 3.149 6.321,2.951 6.745,2.951 7.000 C 2.951 7.239,3.150 7.682,3.304 7.784 C 3.366 7.826,4.327 8.763,5.439 9.866 C 6.818 11.234,7.516 11.899,7.637 11.960 C 7.989 12.137,8.354 12.048,8.701 11.701 C 9.048 11.354,9.137 10.989,8.960 10.637 C 8.901 10.521,8.452 10.039,7.647 9.230 L 6.423 8.000 10.293 8.000 C 14.268 8.000,14.657 8.013,15.240 8.162 C 16.795 8.559,18.095 9.725,18.680 11.248 C 19.092 12.320,19.085 13.720,18.663 14.793 C 18.120 16.174,16.990 17.258,15.600 17.732 C 14.839 17.991,15.249 17.974,9.179 17.998 L 3.658 18.020 3.459 18.122 C 3.119 18.297,2.978 18.606,3.009 19.104 C 3.039 19.567,3.253 19.856,3.645 19.961 C 3.748 19.989,5.604 19.998,9.309 19.988 C 15.185 19.973,14.938 19.980,15.720 19.783 C 17.947 19.219,19.794 17.543,20.573 15.380 C 20.876 14.538,20.977 13.944,20.977 13.000 C 20.977 12.056,20.876 11.462,20.573 10.620 C 19.794 8.457,17.946 6.780,15.720 6.217 C 14.975 6.029,15.011 6.030,10.604 6.013 L 6.427 5.996 7.649 4.768 C 8.452 3.961,8.901 3.479,8.960 3.363 C 9.137 3.011,9.048 2.646,8.701 2.299 C 8.361 1.959,7.967 1.867,7.620 2.046 " stroke="none" fill-rule="evenodd" fill="black"></path></svg>