<svg width="24" height="24" viewBox="0 0 24 24" fill="none" xmlns="http://www.w3.org/2000/svg"><path d="M15.626 2.045 C 15.257 2.239,14.951 2.673,14.951 3.000 C 14.951 3.333,15.056 3.467,16.351 4.768 L 17.573 5.996 13.396 6.013 C 8.989 6.030,9.025 6.029,8.280 6.217 C 5.820 6.839,3.836 8.823,3.223 11.275 C 3.064 11.908,3.023 12.264,3.023 13.000 C 3.023 13.736,3.064 14.092,3.223 14.725 C 3.830 17.154,5.800 19.143,8.214 19.764 C 9.064 19.983,8.752 19.972,14.691 19.988 C 18.396 19.998,20.252 19.989,20.355 19.961 C 20.583 19.900,20.768 19.758,20.880 19.558 C 20.967 19.402,20.980 19.332,20.979 19.000 C 20.977 18.469,20.852 18.247,20.455 18.071 C 20.364 18.031,19.168 18.015,14.820 17.998 C 8.751 17.974,9.161 17.991,8.400 17.732 C 6.810 17.189,5.580 15.864,5.161 14.240 C 4.920 13.307,4.983 12.125,5.320 11.248 C 5.905 9.725,7.205 8.559,8.760 8.162 C 9.343 8.013,9.732 8.000,13.707 8.000 L 17.577 8.000 16.353 9.230 C 15.548 10.039,15.099 10.521,15.040 10.637 C 14.863 10.989,14.952 11.354,15.299 11.701 C 15.646 12.048,16.011 12.137,16.363 11.960 C 16.484 11.899,17.182 11.234,18.561 9.866 C 19.673 8.763,20.634 7.826,20.696 7.784 C 20.850 7.682,21.049 7.239,21.049 7.000 C 21.049 6.745,20.851 6.321,20.676 6.201 C 20.601 6.150,19.640 5.213,18.540 4.118 C 17.232 2.817,16.482 2.099,16.372 2.044 C 16.152 1.934,15.835 1.935,15.626 2.045 " stroke="none" fill-rule="evenodd" fill="black"></path></svg>