<svg width="24" height="24" viewBox="0 0 24 24" fill="none" xmlns="http://www.w3.org/2000/svg"><path d="M2.614 3.057 C 2.377 3.131,2.212 3.261,2.109 3.453 C 2.035 3.592,2.020 3.684,2.020 4.000 C 2.020 4.331,2.033 4.403,2.120 4.558 C 2.230 4.755,2.414 4.898,2.635 4.959 C 2.835 5.015,21.165 5.015,21.365 4.959 C 21.586 4.898,21.770 4.755,21.880 4.558 C 21.967 4.402,21.980 4.332,21.979 4.000 C 21.978 3.567,21.898 3.355,21.678 3.199 C 21.385 2.990,21.877 3.000,11.984 3.003 C 4.546 3.005,2.748 3.015,2.614 3.057 M20.185 7.042 C 20.099 7.063,19.924 7.137,19.795 7.206 C 19.437 7.397,14.930 10.791,14.712 11.035 C 14.216 11.587,14.216 12.413,14.712 12.966 C 14.983 13.268,19.586 16.708,19.916 16.856 C 20.777 17.240,21.727 16.764,21.937 15.843 C 21.992 15.600,22.000 15.111,22.000 12.000 C 22.000 8.889,21.992 8.400,21.937 8.157 C 21.828 7.679,21.464 7.251,21.038 7.099 C 20.815 7.019,20.389 6.991,20.185 7.042 M2.760 8.280 C 2.498 8.327,2.388 8.378,2.247 8.519 C 1.920 8.846,1.922 9.644,2.250 9.988 C 2.502 10.253,2.238 10.240,7.500 10.240 C 12.762 10.240,12.498 10.253,12.750 9.988 C 13.085 9.637,13.080 8.838,12.740 8.508 C 12.473 8.249,12.757 8.263,7.620 8.255 C 5.046 8.251,2.859 8.263,2.760 8.280 M19.991 13.242 L 19.980 14.485 18.332 13.252 C 17.425 12.575,16.683 12.011,16.683 12.000 C 16.683 11.989,17.425 11.425,18.332 10.748 L 19.980 9.515 19.991 10.758 C 19.996 11.441,19.996 12.559,19.991 13.242 M2.640 13.797 C 2.180 13.937,1.970 14.285,2.009 14.838 C 2.045 15.337,2.262 15.622,2.680 15.717 C 2.928 15.774,12.072 15.773,12.320 15.717 C 12.575 15.659,12.782 15.502,12.889 15.286 C 12.963 15.134,12.980 15.034,12.980 14.740 C 12.980 14.430,12.966 14.355,12.880 14.202 C 12.770 14.005,12.586 13.862,12.365 13.801 C 12.193 13.753,2.796 13.750,2.640 13.797 M2.614 19.057 C 2.377 19.131,2.212 19.261,2.109 19.453 C 2.035 19.592,2.020 19.684,2.020 20.000 C 2.020 20.331,2.033 20.403,2.120 20.558 C 2.230 20.755,2.414 20.898,2.635 20.959 C 2.835 21.015,21.165 21.015,21.365 20.959 C 21.586 20.898,21.770 20.755,21.880 20.558 C 21.967 20.402,21.980 20.332,21.979 20.000 C 21.978 19.567,21.898 19.355,21.678 19.199 C 21.385 18.990,21.877 19.000,11.984 19.003 C 4.546 19.005,2.748 19.015,2.614 19.057 " stroke="none" fill-rule="evenodd" fill="black"></path></svg>