<svg width="24" height="24" viewBox="0 0 24 24" fill="none" xmlns="http://www.w3.org/2000/svg"><path d="M20.078 1.576 C 19.748 1.703,19.487 1.886,17.199 3.602 C 14.514 5.615,14.505 5.623,14.383 6.158 C 14.306 6.499,14.306 6.501,14.383 6.842 C 14.505 7.376,14.513 7.384,17.197 9.397 C 18.516 10.387,19.704 11.251,19.835 11.317 C 20.755 11.782,21.768 11.270,21.960 10.245 C 22.014 9.953,22.014 3.047,21.960 2.755 C 21.868 2.261,21.557 1.843,21.129 1.637 C 20.894 1.524,20.302 1.490,20.078 1.576 M2.649 3.039 C 2.441 3.089,2.209 3.266,2.111 3.450 C 2.034 3.593,2.020 3.680,2.021 4.000 C 2.023 4.505,2.126 4.715,2.460 4.894 L 2.620 4.980 7.500 4.980 C 12.191 4.980,12.385 4.977,12.520 4.905 C 12.875 4.715,12.977 4.514,12.979 4.000 C 12.980 3.668,12.967 3.598,12.880 3.442 C 12.816 3.328,12.709 3.219,12.583 3.142 L 12.386 3.020 7.583 3.014 C 4.941 3.010,2.721 3.022,2.649 3.039 M20.000 6.500 L 20.000 9.000 18.338 7.754 C 17.424 7.068,16.691 6.493,16.708 6.476 C 16.742 6.443,19.973 4.008,19.990 4.003 C 19.995 4.001,20.000 5.125,20.000 6.500 M2.760 8.280 C 2.497 8.327,2.388 8.378,2.247 8.519 C 1.907 8.859,1.929 9.695,2.287 10.029 C 2.522 10.248,2.332 10.240,7.500 10.240 C 12.668 10.240,12.478 10.248,12.713 10.029 C 13.078 9.688,13.093 8.851,12.740 8.508 C 12.473 8.249,12.758 8.263,7.620 8.255 C 5.046 8.251,2.859 8.263,2.760 8.280 M2.640 13.797 C 2.180 13.937,1.970 14.285,2.009 14.838 C 2.045 15.337,2.262 15.622,2.680 15.717 C 2.930 15.774,21.070 15.774,21.320 15.717 C 21.575 15.659,21.782 15.502,21.889 15.286 C 21.963 15.134,21.980 15.034,21.980 14.740 C 21.980 14.430,21.966 14.355,21.880 14.202 C 21.770 14.005,21.586 13.862,21.365 13.801 C 21.193 13.753,2.796 13.750,2.640 13.797 M2.614 19.057 C 2.377 19.131,2.212 19.261,2.109 19.453 C 2.035 19.592,2.020 19.684,2.020 20.000 C 2.020 20.331,2.033 20.403,2.120 20.558 C 2.230 20.755,2.414 20.898,2.635 20.959 C 2.835 21.015,21.165 21.015,21.365 20.959 C 21.586 20.898,21.770 20.755,21.880 20.558 C 21.967 20.402,21.980 20.332,21.979 20.000 C 21.978 19.567,21.898 19.355,21.678 19.199 C 21.385 18.990,21.877 19.000,11.984 19.003 C 4.546 19.005,2.748 19.015,2.614 19.057 " stroke="none" fill-rule="evenodd" fill="black"></path></svg>