<svg width="24" height="24" viewBox="0 0 24 24" fill="none" xmlns="http://www.w3.org/2000/svg"><path d="M21.220 1.025 C 20.571 1.070,19.987 1.133,19.572 1.203 C 17.140 1.612,14.746 2.744,12.820 4.397 C 12.295 4.848,11.453 5.737,11.001 6.317 C 10.625 6.800,10.579 6.845,10.484 6.824 C 10.082 6.734,9.169 6.598,8.700 6.558 C 7.422 6.447,6.316 6.641,5.542 7.111 C 4.975 7.455,4.361 8.193,3.943 9.032 C 3.710 9.498,3.637 9.680,3.397 10.390 C 2.871 11.946,2.887 12.587,3.460 12.894 C 3.618 12.979,3.652 12.980,6.102 12.991 L 8.583 13.003 9.791 14.211 L 10.998 15.420 11.009 17.900 C 11.020 20.348,11.021 20.382,11.106 20.540 C 11.255 20.819,11.465 20.947,11.833 20.986 C 12.149 21.019,12.702 20.898,13.620 20.596 C 15.465 19.989,16.616 19.150,17.099 18.060 C 17.539 17.066,17.594 15.646,17.258 13.921 C 17.205 13.647,17.174 13.411,17.191 13.396 C 17.207 13.382,17.454 13.183,17.739 12.955 C 18.670 12.212,19.659 11.193,20.334 10.285 C 22.010 8.026,22.970 5.147,22.978 2.357 L 22.980 1.614 22.860 1.419 C 22.774 1.281,22.682 1.195,22.541 1.122 C 22.364 1.031,22.292 1.019,21.881 1.015 C 21.627 1.013,21.330 1.017,21.220 1.025 M20.960 3.051 C 20.960 3.057,20.932 3.287,20.899 3.561 C 20.566 6.268,19.418 8.596,17.475 10.507 C 16.836 11.136,15.947 11.857,15.411 12.182 C 15.340 12.225,15.114 12.363,14.908 12.488 C 14.226 12.903,12.420 13.800,12.267 13.800 C 12.241 13.800,11.763 13.343,11.205 12.785 C 10.301 11.881,10.194 11.760,10.221 11.675 C 10.271 11.510,10.765 10.479,11.012 10.020 C 12.255 7.719,13.416 6.339,15.103 5.157 C 16.573 4.129,18.210 3.460,19.980 3.164 C 20.244 3.120,20.541 3.077,20.640 3.069 C 20.739 3.061,20.852 3.051,20.890 3.047 C 20.928 3.043,20.960 3.045,20.960 3.051 M9.090 8.603 C 9.283 8.629,9.440 8.667,9.440 8.686 C 9.440 8.706,9.345 8.897,9.229 9.111 C 9.028 9.481,8.583 10.401,8.406 10.810 L 8.324 11.000 6.822 11.000 C 5.921 11.000,5.320 10.985,5.320 10.963 C 5.320 10.880,5.576 10.238,5.744 9.900 C 6.194 8.994,6.551 8.708,7.440 8.544 C 7.610 8.513,8.721 8.552,9.090 8.603 M15.406 14.970 C 15.487 15.587,15.478 16.552,15.386 16.911 C 15.247 17.452,14.936 17.804,14.263 18.180 C 14.016 18.318,13.310 18.613,13.110 18.662 L 12.999 18.689 13.010 17.180 L 13.020 15.670 13.440 15.488 C 13.671 15.387,14.184 15.140,14.580 14.937 C 14.976 14.735,15.311 14.567,15.326 14.564 C 15.340 14.562,15.376 14.745,15.406 14.970 M5.289 15.044 C 5.173 15.064,4.937 15.134,4.764 15.201 C 3.488 15.693,2.596 17.001,1.941 19.340 C 1.657 20.353,1.456 21.455,1.503 21.740 C 1.573 22.165,1.816 22.385,2.317 22.479 C 2.712 22.553,4.356 22.198,5.556 21.780 C 7.897 20.963,9.003 19.777,9.004 18.080 C 9.004 17.518,8.914 17.127,8.672 16.640 C 8.536 16.367,8.432 16.229,8.141 15.940 C 7.646 15.447,7.186 15.189,6.567 15.058 C 6.275 14.996,5.622 14.989,5.289 15.044 M6.380 17.095 C 6.601 17.198,6.754 17.337,6.890 17.556 C 6.967 17.679,6.980 17.756,6.980 18.080 C 6.980 18.421,6.969 18.479,6.872 18.644 C 6.694 18.946,6.333 19.246,5.848 19.494 C 5.437 19.704,4.290 20.119,3.945 20.182 L 3.789 20.211 3.818 20.055 C 3.883 19.703,4.256 18.668,4.479 18.218 C 4.802 17.566,5.179 17.152,5.551 17.040 C 5.781 16.970,6.170 16.996,6.380 17.095 " stroke="none" fill-rule="evenodd" fill="black"></path></svg>