<svg version="1.1" xmlns="http://www.w3.org/2000/svg" width="36" height="32" viewBox="0 0 36 32"><path d="M4.380 0.034 C 4.297 0.048,3.987 0.089,3.690 0.126 C 2.674 0.250,1.460 0.601,0.480 1.054 L 0.030 1.263 0.753 1.996 C 2.965 4.239,4.098 6.440,3.937 8.177 C 3.900 8.569,3.878 8.621,3.642 8.875 C 2.366 10.248,1.438 11.905,1.003 13.590 C 0.773 14.478,0.704 15.051,0.709 16.020 C 0.721 18.497,1.626 20.757,3.451 22.869 L 3.930 23.423 3.924 24.147 C 3.918 24.745,3.890 24.963,3.756 25.410 C 3.329 26.841,2.276 28.441,0.737 29.993 C 0.365 30.369,0.060 30.686,0.060 30.697 C 0.060 30.743,0.661 31.017,1.200 31.217 C 1.863 31.464,3.038 31.757,3.810 31.868 C 4.515 31.969,6.237 31.968,6.960 31.866 C 8.215 31.689,9.590 31.270,10.710 30.723 C 11.667 30.256,12.508 29.667,13.813 28.550 C 14.064 28.335,14.077 28.331,14.370 28.387 C 14.535 28.419,15.129 28.498,15.690 28.563 C 18.287 28.864,20.889 28.752,23.494 28.227 C 29.607 26.997,34.262 23.575,35.818 19.167 L 36.000 18.650 36.000 15.990 L 36.000 13.330 35.816 12.800 C 34.264 8.331,29.396 4.825,23.130 3.664 C 20.397 3.157,17.357 3.120,14.550 3.558 L 14.070 3.633 13.410 3.070 C 11.514 1.453,9.502 0.502,7.230 0.148 C 6.655 0.058,4.692 -0.020,4.380 0.034 M21.369 6.772 C 23.684 7.082,25.428 7.589,27.272 8.488 C 30.484 10.053,32.485 12.283,32.969 14.835 C 33.095 15.499,33.085 16.582,32.946 17.250 C 32.281 20.457,29.074 23.233,24.498 24.562 C 21.204 25.520,17.298 25.633,13.896 24.870 C 13.505 24.782,13.149 24.697,13.104 24.679 C 13.054 24.660,12.678 24.982,12.155 25.491 C 10.504 27.097,9.310 27.831,7.648 28.260 C 6.976 28.434,6.240 28.547,6.240 28.477 C 6.240 28.455,6.385 28.148,6.562 27.794 C 7.409 26.104,7.770 24.525,7.621 23.171 C 7.522 22.267,7.426 21.975,7.158 21.758 C 6.049 20.860,5.091 19.606,4.592 18.397 C 3.753 16.368,4.006 14.195,5.306 12.242 C 7.318 9.219,11.667 7.108,16.800 6.663 C 17.811 6.575,20.350 6.636,21.369 6.772 M11.040 13.913 C 10.157 14.199,9.593 14.941,9.551 15.870 C 9.521 16.549,9.677 16.947,10.165 17.435 C 10.661 17.932,11.049 18.081,11.760 18.048 C 12.199 18.027,12.323 17.995,12.650 17.821 C 13.089 17.586,13.390 17.266,13.611 16.800 C 13.741 16.526,13.768 16.383,13.769 15.959 C 13.770 15.501,13.750 15.406,13.573 15.047 C 13.355 14.604,12.998 14.249,12.550 14.028 C 12.330 13.920,12.154 13.887,11.730 13.877 C 11.433 13.871,11.122 13.887,11.040 13.913 M17.790 13.960 C 16.754 14.394,16.205 15.423,16.466 16.442 C 16.651 17.165,17.114 17.681,17.811 17.943 C 18.080 18.044,18.250 18.066,18.630 18.049 C 20.816 17.951,21.439 15.066,19.490 14.062 C 19.220 13.923,19.082 13.894,18.600 13.878 C 18.169 13.864,17.972 13.884,17.790 13.960 M24.615 13.987 C 24.192 14.150,23.687 14.621,23.479 15.049 C 23.335 15.344,23.312 15.463,23.311 15.930 C 23.310 16.391,23.333 16.520,23.470 16.811 C 23.683 17.266,24.059 17.661,24.472 17.864 C 24.773 18.012,24.876 18.030,25.410 18.030 C 25.944 18.030,26.047 18.012,26.348 17.864 C 26.761 17.661,27.137 17.266,27.350 16.811 C 27.487 16.520,27.510 16.391,27.509 15.930 C 27.508 15.463,27.485 15.344,27.341 15.049 C 27.127 14.609,26.628 14.149,26.188 13.984 C 25.744 13.818,25.052 13.819,24.615 13.987 " stroke="none" fill-rule="evenodd" fill="black"></path></svg>