<svg width="24" height="24" viewBox="0 0 24 24" fill="none" xmlns="http://www.w3.org/2000/svg"><path d="M3.173 2.040 C 2.335 2.098,2.053 2.313,2.009 2.923 C 1.973 3.427,2.175 3.837,2.530 3.979 C 2.680 4.040,2.817 4.044,3.779 4.019 C 5.299 3.981,6.452 4.069,7.740 4.323 C 12.377 5.239,16.161 8.056,18.269 12.163 C 18.975 13.538,19.480 15.083,19.760 16.722 C 19.938 17.760,19.973 18.275,19.977 19.880 C 19.980 21.255,19.987 21.433,20.049 21.545 C 20.218 21.854,20.613 22.024,21.084 21.990 C 21.461 21.963,21.679 21.831,21.819 21.546 C 21.910 21.360,21.929 21.249,21.967 20.696 C 22.049 19.483,21.965 17.805,21.759 16.530 C 21.290 13.621,20.124 10.864,18.447 8.700 C 16.509 6.200,14.045 4.354,11.160 3.242 C 9.582 2.633,8.087 2.277,6.360 2.099 C 5.632 2.024,3.869 1.991,3.173 2.040 M3.504 7.002 C 2.781 7.044,2.548 7.091,2.344 7.232 C 2.106 7.396,2.020 7.596,2.021 7.980 C 2.022 8.395,2.088 8.608,2.275 8.795 C 2.518 9.038,2.648 9.057,3.687 9.001 C 7.018 8.821,9.925 9.853,12.036 11.964 C 13.223 13.151,14.088 14.629,14.572 16.300 C 14.944 17.582,15.079 18.875,14.996 20.371 C 14.943 21.340,14.965 21.485,15.201 21.721 C 15.503 22.023,16.231 22.094,16.573 21.854 C 16.905 21.620,16.977 21.324,17.024 20.000 C 17.104 17.780,16.620 15.515,15.654 13.589 C 14.425 11.137,12.312 9.145,9.780 8.050 C 7.892 7.234,5.718 6.871,3.504 7.002 M3.740 11.946 C 3.674 11.953,3.422 11.980,3.180 12.004 C 2.680 12.055,2.382 12.151,2.229 12.310 C 1.893 12.661,1.927 13.417,2.295 13.786 C 2.547 14.038,2.692 14.063,3.420 13.984 C 4.425 13.875,5.245 13.917,6.031 14.118 C 7.069 14.383,7.795 14.787,8.504 15.496 C 9.135 16.128,9.508 16.747,9.781 17.620 C 10.063 18.523,10.138 19.422,10.022 20.529 C 9.957 21.147,9.957 21.209,10.017 21.391 C 10.137 21.754,10.442 21.949,10.949 21.989 C 11.592 22.039,11.878 21.753,12.001 20.940 C 12.071 20.471,12.096 19.260,12.045 18.759 C 11.905 17.386,11.486 16.159,10.814 15.155 C 9.584 13.318,7.674 12.217,5.272 11.961 C 4.911 11.923,4.017 11.914,3.740 11.946 M4.499 16.040 C 3.363 16.246,2.460 17.049,2.114 18.160 C 1.979 18.594,1.979 19.406,2.114 19.840 C 2.421 20.826,3.173 21.578,4.160 21.886 C 4.418 21.967,4.539 21.980,5.020 21.977 C 5.508 21.974,5.620 21.961,5.887 21.872 C 6.833 21.559,7.558 20.834,7.873 19.887 C 7.963 19.614,7.975 19.515,7.975 19.000 C 7.975 18.485,7.963 18.386,7.873 18.113 C 7.553 17.152,6.792 16.401,5.861 16.129 C 5.500 16.023,4.832 15.980,4.499 16.040 M5.310 18.061 C 5.688 18.173,6.000 18.598,6.000 19.000 C 6.000 19.220,5.880 19.510,5.722 19.673 C 5.481 19.921,5.347 19.978,5.000 19.979 C 4.745 19.980,4.672 19.964,4.516 19.872 C 3.935 19.530,3.833 18.774,4.304 18.303 C 4.583 18.024,4.916 17.944,5.310 18.061 " stroke="none" fill-rule="evenodd" fill="black"></path></svg>