<svg width="24" height="24" viewBox="0 0 24 24" fill="none" xmlns="http://www.w3.org/2000/svg"><path d="M3.614 3.057 C 3.223 3.180,3.039 3.436,3.009 3.900 C 2.978 4.380,3.119 4.701,3.439 4.877 C 3.601 4.966,3.681 4.978,4.358 5.007 C 6.887 5.119,8.840 5.627,10.953 6.722 C 15.353 9.003,18.349 13.384,18.898 18.340 C 18.932 18.648,18.975 19.234,18.993 19.642 C 19.022 20.319,19.034 20.399,19.123 20.561 C 19.286 20.856,19.573 21.000,20.000 21.000 C 20.428 21.000,20.713 20.856,20.880 20.558 C 20.978 20.384,20.980 20.363,20.976 19.580 C 20.960 16.204,19.723 12.635,17.579 9.780 C 16.436 8.257,14.972 6.883,13.360 5.821 C 10.844 4.162,8.074 3.238,5.021 3.041 C 4.199 2.988,3.821 2.993,3.614 3.057 M3.614 10.057 C 3.223 10.180,3.039 10.436,3.009 10.900 C 2.978 11.379,3.119 11.701,3.437 11.876 C 3.589 11.960,3.690 11.977,4.216 12.006 C 4.548 12.024,5.002 12.067,5.224 12.101 C 8.654 12.627,11.373 15.346,11.899 18.776 C 11.933 18.998,11.976 19.452,11.994 19.784 C 12.023 20.310,12.040 20.411,12.124 20.563 C 12.286 20.856,12.574 21.000,13.000 21.000 C 13.428 21.000,13.713 20.856,13.880 20.558 C 13.976 20.387,13.980 20.353,13.977 19.720 C 13.969 18.229,13.567 16.695,12.813 15.281 C 11.371 12.578,8.701 10.659,5.660 10.143 C 4.848 10.005,3.907 9.966,3.614 10.057 M4.477 17.073 C 3.806 17.249,3.238 17.823,3.060 18.508 C 2.941 18.962,3.003 19.492,3.225 19.930 C 3.361 20.199,3.801 20.639,4.070 20.775 C 4.659 21.073,5.341 21.073,5.930 20.775 C 6.196 20.640,6.638 20.200,6.771 19.937 C 6.994 19.498,7.052 19.007,6.940 18.529 C 6.858 18.182,6.720 17.927,6.465 17.653 C 6.074 17.232,5.560 17.005,5.000 17.005 C 4.857 17.005,4.622 17.036,4.477 17.073 " stroke="none" fill-rule="evenodd" fill="black"></path></svg>