<svg width="24" height="24" viewBox="0 0 24 24" fill="none" xmlns="http://www.w3.org/2000/svg"><path d="M16.679 1.252 C 16.557 1.280,16.368 1.353,16.259 1.416 C 16.121 1.495,13.834 3.755,8.775 8.815 C 1.826 15.763,1.483 16.113,1.355 16.379 C 1.234 16.629,1.220 16.694,1.220 17.000 C 1.220 17.306,1.234 17.371,1.355 17.621 C 1.480 17.881,1.650 18.060,3.795 20.205 C 5.941 22.351,6.119 22.520,6.379 22.645 C 6.630 22.766,6.694 22.780,7.000 22.780 C 7.306 22.780,7.371 22.766,7.621 22.645 C 7.887 22.517,8.239 22.172,15.205 15.205 C 22.173 8.238,22.517 7.887,22.645 7.621 C 22.766 7.371,22.780 7.306,22.780 7.000 C 22.780 6.694,22.766 6.630,22.645 6.379 C 22.520 6.121,22.346 5.936,20.285 3.868 C 18.989 2.568,17.962 1.570,17.826 1.478 C 17.475 1.242,17.076 1.163,16.679 1.252 M18.800 5.220 L 20.580 7.000 13.790 13.790 L 7.000 20.580 5.210 18.790 L 3.420 17.000 4.209 16.211 L 4.998 15.422 5.729 16.146 C 6.513 16.921,6.692 17.049,7.000 17.049 C 7.477 17.049,8.049 16.477,8.049 16.000 C 8.049 15.692,7.921 15.513,7.146 14.729 L 6.422 13.998 7.210 13.210 L 7.998 12.422 8.729 13.146 C 9.513 13.921,9.692 14.049,10.000 14.049 C 10.477 14.049,11.049 13.477,11.049 13.000 C 11.049 12.692,10.921 12.513,10.146 11.729 L 9.422 10.998 10.210 10.210 L 10.998 9.422 11.729 10.146 C 12.513 10.921,12.692 11.049,13.000 11.049 C 13.477 11.049,14.049 10.477,14.049 10.000 C 14.049 9.692,13.921 9.513,13.146 8.729 L 12.422 7.998 13.210 7.210 L 13.998 6.422 14.729 7.146 C 15.513 7.921,15.692 8.049,16.000 8.049 C 16.477 8.049,17.049 7.477,17.049 7.000 C 17.049 6.692,16.921 6.513,16.146 5.729 L 15.423 4.998 16.201 4.219 C 16.629 3.791,16.988 3.440,17.000 3.440 C 17.011 3.440,17.821 4.241,18.800 5.220 " stroke="none" fill-rule="evenodd" fill="black"></path></svg>