<svg width="24" height="24" viewBox="0 0 24 24" fill="none" xmlns="http://www.w3.org/2000/svg"><path d="M4.749 2.045 C 3.967 2.120,3.402 2.371,2.890 2.870 C 2.491 3.260,2.236 3.731,2.094 4.340 C 2.024 4.644,2.020 4.949,2.020 10.520 L 2.020 16.380 2.111 16.735 C 2.281 17.406,2.637 17.962,3.142 18.350 C 3.495 18.621,3.816 18.775,4.265 18.889 L 4.620 18.980 11.980 18.980 C 19.013 18.980,19.354 18.977,19.660 18.906 C 20.459 18.720,21.041 18.327,21.486 17.671 C 21.685 17.378,21.807 17.084,21.906 16.660 C 21.976 16.356,21.980 16.051,21.980 10.500 C 21.980 4.949,21.976 4.644,21.906 4.340 C 21.688 3.404,21.167 2.737,20.329 2.321 C 20.019 2.168,19.706 2.091,19.180 2.042 C 18.644 1.991,5.276 1.994,4.749 2.045 M19.374 4.074 C 19.586 4.145,19.863 4.432,19.928 4.646 C 20.005 4.902,20.005 16.098,19.928 16.354 C 19.863 16.567,19.591 16.849,19.376 16.925 C 19.143 17.007,4.857 17.007,4.624 16.925 C 4.422 16.854,4.140 16.571,4.074 16.374 C 4.008 16.177,3.974 5.517,4.037 4.946 C 4.102 4.365,4.342 4.104,4.866 4.042 C 5.017 4.024,8.308 4.012,12.180 4.016 C 17.839 4.021,19.250 4.032,19.374 4.074 M17.042 5.572 C 16.850 5.633,16.615 5.882,16.552 6.088 C 16.476 6.340,16.476 14.660,16.552 14.912 C 16.621 15.140,16.866 15.382,17.088 15.442 C 17.520 15.559,18.007 15.473,18.240 15.240 C 18.511 14.969,18.500 15.164,18.500 10.480 C 18.500 5.978,18.505 6.106,18.308 5.825 C 18.173 5.632,17.873 5.520,17.500 5.524 C 17.324 5.527,17.118 5.548,17.042 5.572 M8.405 7.058 C 7.996 7.136,7.752 7.220,7.381 7.413 C 6.216 8.017,5.512 9.181,5.512 10.500 C 5.513 11.363,5.795 12.131,6.347 12.770 C 7.760 14.406,10.240 14.406,11.653 12.770 C 12.205 12.131,12.487 11.362,12.487 10.500 C 12.487 9.414,12.014 8.433,11.165 7.759 C 10.842 7.502,10.187 7.186,9.800 7.099 C 9.388 7.007,8.768 6.989,8.405 7.058 M9.344 9.053 C 10.388 9.272,10.837 10.579,10.161 11.433 C 9.987 11.655,9.699 11.859,9.462 11.930 C 9.253 11.992,8.747 11.992,8.538 11.930 C 8.147 11.813,7.758 11.434,7.603 11.019 C 7.491 10.719,7.491 10.281,7.603 9.981 C 7.773 9.527,8.193 9.150,8.637 9.055 C 8.930 8.992,9.051 8.991,9.344 9.053 M5.614 20.057 C 5.377 20.131,5.212 20.261,5.109 20.453 C 5.035 20.592,5.020 20.684,5.020 21.000 C 5.020 21.331,5.033 21.403,5.120 21.558 C 5.230 21.755,5.414 21.898,5.635 21.959 C 5.722 21.983,6.470 22.000,7.500 22.000 C 8.530 22.000,9.278 21.983,9.365 21.959 C 9.586 21.898,9.770 21.755,9.880 21.558 C 9.967 21.402,9.980 21.332,9.979 21.000 C 9.978 20.687,9.962 20.591,9.890 20.453 C 9.786 20.256,9.623 20.131,9.371 20.055 C 9.114 19.978,5.862 19.980,5.614 20.057 M14.614 20.057 C 14.377 20.131,14.212 20.261,14.109 20.453 C 14.035 20.592,14.020 20.684,14.020 21.000 C 14.020 21.331,14.033 21.403,14.120 21.558 C 14.230 21.755,14.414 21.898,14.635 21.959 C 14.722 21.983,15.470 22.000,16.500 22.000 C 17.530 22.000,18.278 21.983,18.365 21.959 C 18.586 21.898,18.770 21.755,18.880 21.558 C 18.967 21.402,18.980 21.332,18.979 21.000 C 18.978 20.687,18.962 20.591,18.890 20.453 C 18.786 20.256,18.623 20.131,18.371 20.055 C 18.114 19.978,14.862 19.980,14.614 20.057 " stroke="none" fill-rule="evenodd" fill="black"></path></svg>