<svg width="24" height="24" viewBox="0 0 24 24" fill="none" xmlns="http://www.w3.org/2000/svg"><path d="M5.920 2.042 C 5.155 2.091,4.674 2.204,4.180 2.451 C 3.089 2.996,2.357 3.961,2.124 5.160 C 2.013 5.729,2.000 6.455,2.000 12.000 C 2.000 18.358,2.006 18.526,2.245 19.320 C 2.577 20.422,3.578 21.423,4.680 21.755 C 5.474 21.994,5.642 22.000,12.000 22.000 C 18.358 22.000,18.526 21.994,19.320 21.755 C 20.422 21.423,21.425 20.421,21.755 19.320 C 21.997 18.514,22.007 18.245,21.991 12.960 C 21.978 8.614,21.972 8.284,21.905 8.061 C 21.801 7.718,21.625 7.345,21.453 7.107 C 21.371 6.993,20.524 6.108,19.570 5.140 C 18.617 4.172,17.795 3.335,17.744 3.280 C 17.575 3.097,16.883 2.542,16.644 2.397 C 16.329 2.205,15.951 2.087,15.507 2.040 C 15.079 1.995,6.620 1.996,5.920 2.042 M15.589 4.091 C 15.661 4.130,15.782 4.217,15.859 4.285 L 16.000 4.408 16.000 5.704 L 16.000 7.000 12.000 7.000 L 8.000 7.000 8.000 5.499 L 8.000 3.998 11.730 4.009 C 15.210 4.019,15.469 4.025,15.589 4.091 M6.001 5.590 C 6.001 7.280,6.023 7.499,6.227 7.919 C 6.366 8.205,6.795 8.634,7.081 8.773 C 7.550 9.001,7.493 8.999,12.000 8.999 C 16.514 8.999,16.454 9.001,16.919 8.771 C 17.203 8.630,17.630 8.203,17.771 7.919 C 17.917 7.624,17.998 7.218,17.999 6.780 L 18.000 6.421 18.883 7.300 C 19.368 7.784,19.814 8.261,19.873 8.360 L 19.980 8.540 19.980 13.360 C 19.979 17.750,19.973 18.206,19.911 18.472 C 19.825 18.845,19.706 19.082,19.480 19.333 C 19.155 19.696,18.761 19.893,18.263 19.944 L 18.000 19.971 17.999 16.916 C 17.999 14.375,17.989 13.813,17.940 13.581 C 17.792 12.885,17.328 12.363,16.635 12.112 L 16.380 12.020 12.000 12.020 L 7.620 12.020 7.365 12.112 C 6.859 12.295,6.433 12.660,6.222 13.093 C 6.005 13.535,6.001 13.603,6.001 16.910 L 6.000 19.960 5.887 19.960 C 5.413 19.960,4.955 19.762,4.600 19.403 C 4.303 19.104,4.186 18.890,4.088 18.472 C 4.025 18.203,4.020 17.687,4.020 12.000 C 4.020 6.313,4.025 5.797,4.088 5.528 C 4.126 5.367,4.198 5.151,4.248 5.048 C 4.366 4.806,4.806 4.365,5.049 4.247 C 5.251 4.149,5.656 4.048,5.870 4.043 L 6.000 4.040 6.001 5.590 M16.000 17.000 L 16.000 20.000 12.000 20.000 L 8.000 20.000 8.000 17.000 L 8.000 14.000 12.000 14.000 L 16.000 14.000 16.000 17.000 " stroke="none" fill-rule="evenodd" fill="black"></path></svg>