<svg width="24" height="24" viewBox="0 0 24 24" fill="none" xmlns="http://www.w3.org/2000/svg"><path d="M6.614 2.056 C 6.222 2.181,6.039 2.436,6.009 2.900 C 5.978 3.381,6.119 3.699,6.442 3.880 L 6.620 3.980 11.040 4.000 L 15.460 4.020 15.640 4.127 C 15.863 4.260,19.804 8.207,19.906 8.400 C 19.976 8.533,19.981 8.755,20.000 12.960 L 20.020 17.380 20.120 17.558 C 20.287 17.856,20.572 18.000,21.000 18.000 C 21.428 18.000,21.713 17.856,21.880 17.558 L 21.980 17.380 21.980 12.860 C 21.980 8.615,21.976 8.324,21.907 8.080 C 21.772 7.594,21.553 7.210,21.168 6.780 C 20.559 6.100,17.156 2.745,16.875 2.547 C 16.572 2.333,16.259 2.186,15.905 2.091 C 15.685 2.031,15.206 2.023,11.220 2.014 C 7.623 2.005,6.748 2.014,6.614 2.056 M4.522 5.567 C 3.886 5.657,3.341 5.933,2.877 6.397 C 2.381 6.892,2.130 7.440,2.041 8.221 C 2.009 8.506,2.000 10.167,2.009 14.020 L 2.023 19.420 2.112 19.756 C 2.288 20.415,2.646 20.969,3.142 21.350 C 3.487 21.615,3.809 21.772,4.244 21.888 L 4.580 21.977 9.980 21.991 C 15.712 22.005,15.903 22.000,16.478 21.818 C 17.302 21.557,18.007 20.872,18.286 20.062 C 18.501 19.438,18.500 19.473,18.500 14.360 L 18.500 9.620 18.412 9.340 C 18.363 9.186,18.267 8.970,18.198 8.860 C 18.130 8.750,17.449 8.038,16.687 7.277 C 15.653 6.246,15.241 5.861,15.069 5.766 C 14.603 5.508,14.865 5.520,9.582 5.525 C 6.893 5.528,4.666 5.546,4.522 5.567 M6.001 8.330 C 6.002 9.548,6.107 9.912,6.597 10.403 C 6.896 10.702,7.173 10.853,7.581 10.939 C 7.993 11.027,12.610 11.028,12.904 10.941 C 13.290 10.827,13.486 10.508,13.486 9.997 C 13.486 9.491,13.303 9.196,12.909 9.064 C 12.742 9.008,12.413 9.000,10.359 9.000 L 8.000 9.000 8.000 8.260 L 8.000 7.520 11.050 7.520 L 14.100 7.520 15.290 8.710 L 16.480 9.899 16.480 14.488 C 16.480 17.595,16.466 19.140,16.437 19.276 C 16.384 19.525,16.150 19.803,15.911 19.901 C 15.784 19.953,15.583 19.976,15.134 19.991 L 14.528 20.010 14.509 17.855 C 14.490 15.514,14.490 15.518,14.253 15.051 C 14.032 14.612,13.500 14.198,13.000 14.074 C 12.826 14.031,12.243 14.020,10.200 14.020 L 7.620 14.020 7.365 14.112 C 6.859 14.295,6.433 14.660,6.222 15.093 C 6.015 15.516,6.001 15.686,6.001 17.935 L 6.000 20.011 5.367 19.992 C 4.814 19.976,4.711 19.963,4.547 19.883 C 4.325 19.776,4.137 19.562,4.069 19.340 C 4.031 19.217,4.020 17.920,4.020 13.740 C 4.020 7.575,3.993 8.074,4.347 7.762 C 4.576 7.561,4.717 7.530,5.430 7.524 L 6.000 7.520 6.001 8.330 M12.480 18.000 L 12.480 20.000 10.240 20.000 L 8.000 20.000 8.000 18.000 L 8.000 16.000 10.240 16.000 L 12.480 16.000 12.480 18.000 " stroke="none" fill-rule="evenodd" fill="black"></path></svg>