<svg width="24" height="24" viewBox="0 0 24 24" fill="none" xmlns="http://www.w3.org/2000/svg"><path d="M5.920 2.041 C 5.151 2.092,4.672 2.205,4.180 2.451 C 3.089 2.996,2.357 3.961,2.124 5.160 C 2.005 5.769,1.947 8.027,2.041 8.365 C 2.148 8.750,2.437 8.962,2.896 8.991 C 3.381 9.022,3.700 8.882,3.879 8.558 C 3.977 8.383,3.978 8.362,4.006 7.100 C 4.045 5.337,4.101 5.098,4.600 4.600 C 4.895 4.304,5.109 4.186,5.528 4.088 C 5.797 4.025,6.313 4.020,12.000 4.020 C 17.687 4.020,18.203 4.025,18.472 4.088 C 18.891 4.186,19.105 4.304,19.400 4.600 C 19.696 4.895,19.814 5.109,19.912 5.528 C 19.975 5.797,19.980 6.313,19.980 12.000 C 19.980 17.687,19.975 18.203,19.912 18.472 C 19.814 18.891,19.696 19.104,19.400 19.401 C 19.111 19.690,18.828 19.847,18.460 19.921 C 18.324 19.948,17.664 19.980,16.939 19.994 C 15.666 20.020,15.656 20.021,15.459 20.122 C 15.119 20.297,14.978 20.606,15.009 21.104 C 15.038 21.563,15.250 21.852,15.635 21.959 C 15.715 21.981,16.221 22.000,16.760 22.000 C 18.435 22.000,19.156 21.892,19.859 21.535 C 20.749 21.085,21.482 20.228,21.755 19.320 C 21.994 18.526,22.000 18.358,22.000 12.000 C 22.000 5.642,21.994 5.474,21.755 4.680 C 21.424 3.581,20.465 2.622,19.320 2.246 C 18.644 2.024,18.800 2.029,12.340 2.019 C 9.062 2.014,6.173 2.024,5.920 2.041 M14.219 5.999 L 11.658 6.020 11.459 6.122 C 11.119 6.297,10.978 6.606,11.009 7.104 C 11.038 7.563,11.250 7.852,11.635 7.959 C 11.719 7.983,12.366 8.000,13.180 8.000 L 14.580 8.000 12.937 9.643 L 11.294 11.286 11.053 11.204 C 10.568 11.041,10.410 11.032,7.846 11.012 C 4.730 10.989,4.273 11.023,3.671 11.321 C 3.187 11.561,2.816 11.882,2.523 12.315 C 2.315 12.621,2.194 12.912,2.094 13.340 C 2.026 13.636,2.020 13.873,2.020 16.520 C 2.020 19.360,2.021 19.383,2.111 19.735 C 2.281 20.406,2.637 20.962,3.142 21.350 C 3.495 21.621,3.816 21.775,4.265 21.889 C 4.617 21.979,4.640 21.980,7.480 21.980 C 10.127 21.980,10.364 21.974,10.660 21.906 C 11.459 21.720,12.041 21.327,12.486 20.671 C 12.685 20.378,12.807 20.084,12.906 19.660 C 12.975 19.364,12.980 19.128,12.979 16.460 L 12.978 13.580 12.874 13.220 C 12.816 13.022,12.757 12.824,12.743 12.780 C 12.722 12.714,13.009 12.408,14.359 11.060 L 16.000 9.420 16.000 10.820 C 16.000 11.635,16.017 12.281,16.041 12.365 C 16.148 12.750,16.437 12.962,16.896 12.991 C 17.381 13.022,17.699 12.882,17.880 12.558 L 17.980 12.380 18.007 9.720 C 18.022 8.257,18.036 7.001,18.037 6.929 C 18.041 6.743,17.834 6.310,17.696 6.212 C 17.467 6.052,17.198 5.960,16.985 5.969 C 16.872 5.974,15.627 5.988,14.219 5.999 M10.374 13.076 C 10.585 13.144,10.862 13.431,10.928 13.646 C 11.004 13.899,11.004 19.101,10.928 19.354 C 10.863 19.567,10.591 19.849,10.376 19.925 C 10.146 20.006,4.854 20.006,4.624 19.925 C 4.421 19.853,4.140 19.570,4.076 19.374 C 4.039 19.260,4.022 18.589,4.010 16.775 C 3.993 14.072,4.012 13.686,4.179 13.434 C 4.333 13.202,4.547 13.080,4.866 13.041 C 5.323 12.986,10.192 13.016,10.374 13.076 " stroke="none" fill-rule="evenodd" fill="black"></path></svg>