<svg width="24" height="24" viewBox="0 0 24 24" fill="none" xmlns="http://www.w3.org/2000/svg"><path d="M4.516 1.044 C 3.678 1.125,2.817 1.544,2.181 2.181 C 1.548 2.814,1.140 3.648,1.041 4.511 C 0.989 4.963,0.989 6.178,1.041 6.365 C 1.148 6.750,1.437 6.962,1.896 6.991 C 2.380 7.022,2.700 6.881,2.877 6.561 C 2.969 6.395,2.976 6.331,3.007 5.474 C 3.037 4.647,3.049 4.538,3.139 4.299 C 3.350 3.738,3.739 3.350,4.303 3.138 C 4.542 3.048,4.650 3.035,5.473 3.007 C 6.276 2.979,6.398 2.965,6.540 2.892 C 6.873 2.718,6.978 2.505,6.978 2.000 C 6.978 1.686,6.963 1.591,6.890 1.453 C 6.786 1.256,6.623 1.131,6.371 1.055 C 6.165 0.993,5.106 0.987,4.516 1.044 M9.614 1.057 C 9.377 1.131,9.212 1.261,9.109 1.453 C 9.035 1.592,9.020 1.684,9.020 2.000 C 9.020 2.331,9.033 2.403,9.120 2.558 C 9.230 2.755,9.414 2.898,9.635 2.959 C 9.831 3.014,14.169 3.014,14.365 2.959 C 14.586 2.898,14.770 2.755,14.880 2.558 C 14.967 2.402,14.980 2.332,14.979 2.000 C 14.978 1.567,14.898 1.355,14.678 1.199 C 14.406 1.005,14.336 1.000,11.984 1.003 C 10.293 1.005,9.741 1.017,9.614 1.057 M17.614 1.057 C 17.223 1.180,17.039 1.436,17.009 1.900 C 16.978 2.381,17.119 2.701,17.442 2.879 C 17.611 2.972,17.668 2.979,18.527 3.008 C 19.355 3.036,19.457 3.047,19.700 3.138 C 20.262 3.350,20.650 3.739,20.862 4.303 C 20.953 4.542,20.964 4.648,20.992 5.473 C 21.021 6.332,21.028 6.389,21.121 6.558 C 21.286 6.856,21.572 7.000,22.000 7.000 C 22.428 7.000,22.713 6.856,22.880 6.558 C 22.974 6.390,22.981 6.340,22.994 5.672 C 23.001 5.282,22.988 4.784,22.964 4.566 C 22.866 3.658,22.468 2.829,21.819 2.181 C 21.157 1.519,20.332 1.128,19.411 1.041 C 18.810 0.984,17.819 0.993,17.614 1.057 M1.614 9.057 C 1.377 9.131,1.212 9.261,1.109 9.453 L 1.020 9.620 1.008 14.120 C 0.994 19.231,1.005 19.520,1.245 20.320 C 1.517 21.227,2.251 22.084,3.142 22.536 C 3.613 22.775,4.072 22.891,4.820 22.959 C 5.414 23.014,14.168 23.014,14.365 22.959 C 14.586 22.898,14.770 22.755,14.880 22.558 C 14.967 22.402,14.980 22.332,14.979 22.000 C 14.978 21.567,14.898 21.355,14.678 21.199 C 14.440 21.029,14.242 21.000,13.330 21.000 C 12.859 21.000,12.480 20.987,12.488 20.970 C 12.930 20.091,13.000 19.548,13.000 17.000 C 13.000 14.896,12.961 14.362,12.755 13.680 C 12.426 12.587,11.489 11.644,10.345 11.255 C 9.731 11.046,9.366 11.021,7.000 11.021 C 5.115 11.021,4.760 11.030,4.375 11.091 C 3.916 11.163,3.503 11.285,3.211 11.434 C 3.119 11.482,3.035 11.520,3.025 11.520 C 3.015 11.520,3.000 11.092,2.993 10.570 C 2.981 9.678,2.974 9.610,2.891 9.453 C 2.842 9.362,2.746 9.247,2.678 9.199 C 2.414 9.010,1.957 8.950,1.614 9.057 M21.614 9.057 C 21.377 9.131,21.212 9.261,21.109 9.453 C 21.020 9.619,21.020 9.629,21.009 11.911 C 21.001 13.392,21.012 14.256,21.039 14.355 C 21.144 14.747,21.433 14.961,21.896 14.991 C 22.381 15.022,22.699 14.882,22.880 14.558 L 22.980 14.380 22.980 12.000 L 22.980 9.620 22.891 9.453 C 22.842 9.362,22.746 9.247,22.678 9.199 C 22.414 9.010,21.957 8.950,21.614 9.057 M9.492 13.095 C 9.889 13.185,10.107 13.307,10.400 13.600 C 10.697 13.896,10.815 14.111,10.910 14.528 C 10.969 14.782,10.978 15.103,10.978 17.000 C 10.978 19.358,10.966 19.513,10.752 19.952 C 10.626 20.211,10.190 20.638,9.918 20.768 C 9.505 20.966,9.316 20.980,7.000 20.980 C 4.690 20.980,4.499 20.966,4.082 20.771 C 3.812 20.643,3.377 20.217,3.248 19.952 C 3.034 19.513,3.022 19.358,3.022 17.000 C 3.022 14.641,3.035 14.481,3.248 14.051 C 3.454 13.639,3.900 13.266,4.343 13.137 C 4.720 13.028,5.257 13.006,7.300 13.020 C 8.861 13.030,9.271 13.044,9.492 13.095 M21.614 17.057 C 21.376 17.132,21.211 17.262,21.112 17.453 C 21.034 17.603,21.022 17.712,20.993 18.532 C 20.963 19.385,20.955 19.460,20.855 19.712 C 20.623 20.296,20.228 20.682,19.654 20.884 C 19.457 20.954,19.280 20.971,18.538 20.994 C 17.698 21.020,17.646 21.026,17.458 21.123 C 17.119 21.297,16.978 21.606,17.009 22.104 C 17.038 22.563,17.250 22.852,17.635 22.959 C 17.822 23.011,19.037 23.011,19.489 22.959 C 20.352 22.860,21.186 22.452,21.819 21.819 C 22.468 21.171,22.866 20.342,22.964 19.434 C 22.988 19.216,23.001 18.718,22.993 18.328 C 22.979 17.693,22.969 17.603,22.890 17.453 C 22.841 17.362,22.746 17.247,22.678 17.199 C 22.414 17.010,21.957 16.950,21.614 17.057 " stroke="none" fill-rule="evenodd" fill="black"></path></svg>