<svg width="24" height="24" viewBox="0 0 24 24" fill="none" xmlns="http://www.w3.org/2000/svg"><path d="M11.614 2.057 C 11.377 2.131,11.212 2.261,11.109 2.453 C 11.020 2.619,11.020 2.630,11.009 4.890 C 11.003 6.139,10.988 7.160,10.978 7.160 C 10.967 7.160,9.879 7.340,8.560 7.560 C 7.241 7.780,6.075 7.960,5.969 7.960 C 5.588 7.960,5.150 8.264,5.019 8.620 C 4.978 8.730,4.153 10.206,3.186 11.900 C 2.219 13.594,1.368 15.106,1.295 15.260 C 1.056 15.764,1.020 15.971,1.020 16.840 C 1.020 17.682,1.066 18.009,1.268 18.600 C 1.846 20.291,3.253 21.525,5.040 21.907 C 5.286 21.960,5.552 21.980,6.000 21.980 C 6.898 21.980,7.494 21.838,8.286 21.433 C 9.630 20.748,10.580 19.489,10.907 17.960 C 11.010 17.478,11.012 16.176,10.909 15.800 C 10.798 15.391,10.623 15.063,9.066 12.341 C 8.260 10.934,7.615 9.771,7.631 9.757 C 7.647 9.743,8.668 9.567,9.900 9.365 C 11.132 9.163,12.275 8.973,12.440 8.942 C 13.394 8.767,16.004 8.351,16.024 8.371 C 16.038 8.384,15.453 9.437,14.726 10.710 C 13.323 13.164,13.204 13.390,13.091 13.800 C 12.988 14.175,12.989 15.477,13.093 15.960 C 13.526 17.984,15.016 19.474,17.040 19.907 C 17.511 20.008,18.489 20.008,18.960 19.907 C 20.488 19.580,21.748 18.630,22.433 17.288 C 22.860 16.450,22.980 15.914,22.980 14.840 C 22.980 13.971,22.944 13.764,22.705 13.260 C 22.632 13.106,21.781 11.594,20.813 9.900 C 19.845 8.206,19.034 6.764,19.011 6.696 C 18.930 6.461,18.686 6.170,18.489 6.075 C 18.242 5.955,17.900 5.931,17.652 6.016 C 17.487 6.073,13.229 6.800,13.063 6.800 C 13.011 6.800,13.002 6.531,12.992 4.710 C 12.980 2.636,12.979 2.619,12.891 2.453 C 12.842 2.362,12.746 2.247,12.678 2.199 C 12.414 2.010,11.957 1.950,11.614 2.057 M19.147 11.021 L 20.274 13.000 18.000 13.000 L 15.726 13.000 16.853 11.021 C 17.473 9.933,17.989 9.043,18.000 9.043 C 18.011 9.043,18.527 9.933,19.147 11.021 M7.147 13.021 L 8.274 15.000 6.000 15.000 L 3.726 15.000 4.853 13.021 C 5.473 11.933,5.989 11.043,6.000 11.043 C 6.011 11.043,6.527 11.933,7.147 13.021 M20.982 15.286 C 20.862 16.505,20.029 17.516,18.840 17.886 C 18.406 18.021,17.594 18.021,17.160 17.886 C 16.579 17.705,16.107 17.391,15.695 16.911 C 15.320 16.473,15.078 15.893,15.018 15.286 L 14.990 15.000 18.000 15.000 L 21.010 15.000 20.982 15.286 M8.982 17.286 C 8.862 18.505,8.029 19.516,6.840 19.886 C 6.406 20.021,5.594 20.021,5.160 19.886 C 4.579 19.705,4.107 19.391,3.695 18.911 C 3.320 18.473,3.078 17.893,3.018 17.286 L 2.990 17.000 6.000 17.000 L 9.010 17.000 8.982 17.286 " stroke="none" fill-rule="evenodd" fill="black"></path></svg>