<svg width="24" height="24" viewBox="0 0 24 24" fill="none" xmlns="http://www.w3.org/2000/svg"><path d="M5.358 2.061 C 4.230 2.237,3.143 2.974,2.569 3.953 C 1.546 5.697,1.947 7.872,3.525 9.134 C 3.802 9.356,4.240 9.594,6.386 10.685 C 7.780 11.394,8.920 11.987,8.920 12.003 C 8.920 12.019,7.796 12.604,6.422 13.302 C 3.691 14.690,3.450 14.836,2.980 15.387 C 1.191 17.484,1.966 20.677,4.512 21.704 C 6.558 22.528,8.877 21.538,9.704 19.488 C 10.263 18.101,10.004 16.540,9.023 15.391 C 8.885 15.229,8.644 15.000,8.487 14.880 C 8.330 14.760,8.215 14.650,8.231 14.636 C 8.247 14.621,8.917 14.275,9.720 13.866 L 11.180 13.124 15.820 15.489 C 18.372 16.790,20.559 17.895,20.680 17.946 C 21.214 18.169,21.666 17.964,21.924 17.380 C 22.128 16.920,22.044 16.525,21.687 16.267 C 21.584 16.192,19.679 15.206,17.454 14.076 C 15.228 12.945,13.420 12.007,13.435 11.991 C 13.450 11.975,15.271 11.041,17.481 9.916 C 19.691 8.790,21.575 7.818,21.666 7.755 C 22.100 7.458,22.150 6.921,21.796 6.386 C 21.565 6.038,21.238 5.901,20.865 5.995 C 20.767 6.019,18.548 7.128,15.933 8.459 L 11.180 10.878 9.820 10.186 C 9.072 9.806,8.401 9.464,8.329 9.426 L 8.199 9.357 8.502 9.113 C 9.653 8.188,10.211 6.666,9.921 5.243 C 9.721 4.264,9.197 3.415,8.438 2.843 C 7.866 2.412,7.276 2.160,6.605 2.058 C 6.144 1.989,5.816 1.990,5.358 2.061 M6.523 4.073 C 7.262 4.266,7.850 4.924,7.967 5.690 C 8.029 6.098,7.967 6.522,7.793 6.880 C 7.638 7.198,7.227 7.625,6.930 7.775 C 6.492 7.997,5.962 8.059,5.508 7.940 C 4.823 7.762,4.249 7.194,4.073 6.523 C 3.683 5.028,5.028 3.683,6.523 4.073 M17.180 11.039 C 16.715 11.159,16.514 11.447,16.512 11.997 C 16.510 12.348,16.582 12.556,16.771 12.752 C 17.131 13.123,18.068 13.060,18.341 12.645 C 18.526 12.365,18.565 11.840,18.425 11.507 C 18.262 11.118,17.698 10.906,17.180 11.039 M21.614 11.055 C 21.220 11.184,21.039 11.437,21.009 11.900 C 20.978 12.381,21.119 12.699,21.442 12.880 C 21.597 12.967,21.669 12.980,22.000 12.980 C 22.312 12.980,22.408 12.964,22.540 12.894 C 22.866 12.718,23.000 12.459,23.000 12.000 C 23.000 11.357,22.713 11.048,22.083 11.016 C 21.893 11.006,21.718 11.021,21.614 11.055 M6.523 16.073 C 7.262 16.266,7.850 16.924,7.967 17.690 C 8.067 18.343,7.873 18.933,7.403 19.404 C 7.002 19.807,6.547 20.000,6.000 20.000 C 5.485 20.000,5.038 19.822,4.653 19.465 C 3.323 18.229,4.189 16.005,6.000 16.005 C 6.143 16.005,6.378 16.036,6.523 16.073 " stroke="none" fill-rule="evenodd" fill="black"></path></svg>