<svg width="24" height="24" viewBox="0 0 24 24" fill="none" xmlns="http://www.w3.org/2000/svg"><path d="M10.600 2.046 C 8.478 2.240,6.460 3.173,4.905 4.680 C 3.028 6.499,2.000 8.912,2.000 11.500 C 2.000 14.774,3.694 17.816,6.500 19.581 C 8.935 21.112,12.081 21.422,14.820 20.400 C 15.674 20.081,16.803 19.452,17.320 19.006 L 17.460 18.886 18.960 20.378 C 19.966 21.380,20.518 21.900,20.637 21.960 C 20.989 22.137,21.354 22.048,21.701 21.701 C 22.048 21.354,22.137 20.989,21.960 20.637 C 21.900 20.518,21.380 19.966,20.378 18.960 L 18.886 17.460 19.006 17.320 C 19.249 17.038,19.769 16.213,19.999 15.743 C 21.337 13.011,21.337 9.984,20.000 7.260 C 19.266 5.765,17.965 4.334,16.533 3.446 C 14.762 2.347,12.678 1.855,10.600 2.046 M12.223 4.043 C 13.965 4.217,15.563 4.972,16.795 6.205 C 18.807 8.216,19.506 11.181,18.604 13.877 C 18.043 15.554,16.851 17.032,15.320 17.949 C 13.738 18.895,11.806 19.216,9.958 18.840 C 7.472 18.333,5.324 16.461,4.449 14.040 C 3.862 12.415,3.862 10.585,4.449 8.960 C 5.339 6.496,7.489 4.651,10.060 4.143 C 10.752 4.007,11.505 3.972,12.223 4.043 " stroke="none" fill-rule="evenodd" fill="black"></path></svg>