<svg width="24" height="24" viewBox="0 0 24 24" fill="none" xmlns="http://www.w3.org/2000/svg"><path d="M9.207 2.043 C 7.656 2.193,6.096 2.846,4.900 3.847 C 3.985 4.612,3.307 5.477,2.800 6.529 C 1.453 9.317,1.837 12.625,3.789 15.040 C 4.075 15.394,4.761 16.067,5.100 16.326 C 6.974 17.757,9.329 18.302,11.620 17.833 C 12.581 17.637,13.717 17.154,14.500 16.608 L 14.900 16.329 17.680 19.101 C 19.627 21.042,20.513 21.898,20.637 21.961 C 20.990 22.137,21.354 22.048,21.701 21.701 C 22.048 21.354,22.137 20.990,21.961 20.637 C 21.898 20.513,21.042 19.627,19.101 17.680 L 16.329 14.900 16.608 14.500 C 16.761 14.280,17.009 13.854,17.158 13.553 C 18.265 11.323,18.280 8.765,17.200 6.529 C 16.693 5.477,16.015 4.612,15.100 3.847 C 13.483 2.494,11.337 1.837,9.207 2.043 M10.564 4.039 C 12.921 4.269,14.913 5.837,15.671 8.060 C 16.168 9.517,16.068 11.251,15.410 12.580 C 14.550 14.316,13.056 15.478,11.160 15.885 C 10.554 16.015,9.446 16.015,8.840 15.885 C 6.941 15.478,5.451 14.319,4.590 12.580 C 3.932 11.251,3.832 9.517,4.329 8.060 C 4.618 7.212,5.080 6.470,5.731 5.805 C 7.008 4.503,8.757 3.864,10.564 4.039 " stroke="none" fill-rule="evenodd" fill="black"></path></svg>