<svg width="24" height="24" viewBox="0 0 24 24" fill="none" xmlns="http://www.w3.org/2000/svg"><path d="M10.340 2.024 C 9.026 2.160,8.091 2.415,7.060 2.918 C 5.244 3.804,3.840 5.202,2.939 7.020 C 1.688 9.542,1.688 12.458,2.939 14.980 C 3.404 15.918,3.897 16.609,4.621 17.337 C 7.349 20.077,11.484 20.777,14.940 19.083 C 15.468 18.825,16.037 18.479,16.438 18.173 L 16.615 18.037 18.538 19.954 C 19.857 21.270,20.516 21.899,20.637 21.960 C 20.989 22.137,21.354 22.048,21.701 21.701 C 22.048 21.354,22.137 20.989,21.960 20.637 C 21.899 20.516,21.270 19.857,19.954 18.538 L 18.037 16.615 18.173 16.438 C 18.479 16.037,18.825 15.468,19.083 14.940 C 20.302 12.453,20.302 9.548,19.084 7.060 C 17.773 4.384,15.266 2.546,12.320 2.101 C 11.911 2.039,10.662 1.991,10.340 2.024 M12.102 4.098 C 15.099 4.551,17.491 6.985,17.924 10.020 C 17.990 10.483,17.990 11.517,17.924 11.980 C 17.487 15.047,15.126 17.424,12.020 17.926 C 11.607 17.992,10.393 17.992,9.980 17.926 C 6.873 17.424,4.513 15.047,4.076 11.980 C 3.967 11.217,4.022 10.093,4.205 9.340 C 4.815 6.828,6.824 4.818,9.340 4.205 C 9.624 4.135,10.064 4.069,10.540 4.023 C 10.813 3.997,11.726 4.041,12.102 4.098 M10.614 5.057 C 10.223 5.180,10.039 5.436,10.009 5.900 C 9.978 6.377,10.119 6.701,10.435 6.875 C 10.571 6.950,10.701 6.976,11.069 7.004 C 11.883 7.065,12.242 7.158,12.840 7.464 C 13.554 7.829,14.171 8.446,14.536 9.160 C 14.842 9.758,14.935 10.117,14.996 10.931 C 15.024 11.299,15.050 11.429,15.125 11.565 C 15.286 11.856,15.575 12.000,16.000 12.000 C 16.428 12.000,16.713 11.856,16.880 11.558 C 16.974 11.390,16.980 11.347,16.976 10.820 C 16.958 8.391,15.298 6.133,12.940 5.329 C 12.146 5.058,11.029 4.928,10.614 5.057 " stroke="none" fill-rule="evenodd" fill="black"></path></svg>