<svg width="24" height="24" viewBox="0 0 24 24" fill="none" xmlns="http://www.w3.org/2000/svg"><path d="M11.758 0.974 C 11.746 0.987,11.533 1.016,11.285 1.040 C 9.647 1.194,8.127 1.820,6.900 2.847 C 5.985 3.612,5.307 4.477,4.800 5.529 C 3.453 8.317,3.837 11.625,5.789 14.040 C 6.075 14.394,6.761 15.067,7.100 15.326 C 7.804 15.863,8.680 16.327,9.500 16.595 C 9.979 16.751,10.703 16.920,10.898 16.920 C 10.983 16.920,11.000 16.938,11.000 17.033 C 11.000 17.134,10.965 17.163,10.670 17.313 C 10.091 17.607,9.597 18.102,9.312 18.670 L 9.147 19.000 5.980 19.000 C 2.594 19.000,2.601 19.000,2.322 19.199 C 2.100 19.357,2.020 19.568,2.020 20.000 C 2.020 20.331,2.033 20.403,2.120 20.558 C 2.230 20.755,2.414 20.898,2.635 20.959 C 2.727 20.985,3.954 21.000,5.963 21.000 L 9.147 21.000 9.312 21.330 C 9.682 22.069,10.355 22.635,11.160 22.886 C 11.594 23.021,12.406 23.021,12.840 22.886 C 13.645 22.635,14.318 22.069,14.688 21.330 L 14.853 21.000 18.037 21.000 C 20.046 21.000,21.273 20.985,21.365 20.959 C 21.586 20.898,21.770 20.755,21.880 20.558 C 21.967 20.402,21.980 20.332,21.979 20.000 C 21.978 19.567,21.898 19.355,21.678 19.199 C 21.399 19.000,21.406 19.000,18.020 19.000 L 14.853 19.000 14.688 18.670 C 14.403 18.102,13.909 17.607,13.330 17.313 C 13.035 17.163,13.000 17.134,13.000 17.033 C 13.000 16.938,13.017 16.920,13.102 16.920 C 13.297 16.920,14.021 16.751,14.500 16.595 C 15.320 16.327,16.196 15.863,16.900 15.326 C 17.239 15.067,17.925 14.394,18.211 14.040 C 20.163 11.625,20.547 8.317,19.200 5.529 C 18.693 4.477,18.015 3.612,17.100 2.847 C 16.118 2.025,14.814 1.400,13.591 1.164 C 13.006 1.051,11.804 0.927,11.758 0.974 M9.680 3.505 C 9.680 3.519,9.627 3.624,9.561 3.738 C 9.023 4.679,8.406 6.625,8.296 7.730 L 8.269 8.000 7.178 8.000 C 6.161 8.000,6.088 7.995,6.101 7.930 C 6.356 6.644,6.905 5.613,7.805 4.731 C 8.286 4.260,8.638 4.003,9.260 3.673 C 9.619 3.482,9.680 3.458,9.680 3.505 M14.611 3.604 C 15.859 4.228,16.787 5.162,17.410 6.420 C 17.583 6.770,17.777 7.333,17.851 7.700 L 17.907 7.980 16.864 7.991 C 16.290 7.997,15.801 7.993,15.776 7.984 C 15.751 7.974,15.717 7.843,15.702 7.693 C 15.590 6.623,15.138 5.148,14.568 4.000 C 14.291 3.442,14.308 3.480,14.338 3.480 C 14.351 3.480,14.474 3.536,14.611 3.604 M12.264 3.990 C 13.039 5.239,13.480 6.418,13.700 7.830 L 13.727 8.000 12.000 8.000 L 10.273 8.000 10.300 7.830 C 10.468 6.763,10.758 5.840,11.215 4.920 C 11.454 4.440,11.953 3.600,12.000 3.600 C 12.012 3.600,12.131 3.776,12.264 3.990 M8.296 10.270 C 8.406 11.379,9.023 13.321,9.566 14.270 C 9.633 14.388,9.679 14.494,9.668 14.506 C 9.624 14.550,8.811 14.094,8.443 13.819 C 7.196 12.888,6.411 11.631,6.101 10.070 C 6.088 10.005,6.161 10.000,7.178 10.000 L 8.269 10.000 8.296 10.270 M13.700 10.170 C 13.532 11.237,13.242 12.160,12.785 13.080 C 12.546 13.560,12.047 14.400,12.000 14.400 C 11.953 14.400,11.454 13.560,11.215 13.080 C 10.758 12.160,10.468 11.237,10.300 10.170 L 10.273 10.000 12.000 10.000 L 13.727 10.000 13.700 10.170 M17.899 10.070 C 17.590 11.627,16.803 12.887,15.557 13.819 C 15.212 14.077,14.377 14.551,14.338 14.511 C 14.329 14.502,14.426 14.287,14.553 14.033 C 15.119 12.904,15.582 11.406,15.701 10.320 C 15.716 10.177,15.737 10.046,15.747 10.030 C 15.757 10.014,16.248 10.000,16.839 10.000 C 17.840 10.000,17.912 10.005,17.899 10.070 M12.310 19.061 C 12.688 19.173,13.000 19.598,13.000 20.001 C 13.000 20.331,12.784 20.696,12.484 20.872 C 12.328 20.963,12.254 20.980,12.000 20.980 C 11.746 20.980,11.672 20.963,11.516 20.872 C 10.935 20.530,10.833 19.774,11.304 19.303 C 11.583 19.024,11.916 18.944,12.310 19.061 " stroke="none" fill-rule="evenodd" fill="black"></path></svg>