<svg width="24" height="24" viewBox="0 0 24 24" fill="none" xmlns="http://www.w3.org/2000/svg"><path d="M5.160 1.565 C 3.817 1.720,2.667 2.511,2.115 3.660 C 1.779 4.359,1.718 4.684,1.300 8.000 C 0.977 10.569,0.948 11.015,1.060 11.705 C 1.214 12.659,1.706 13.596,2.395 14.253 C 2.530 14.381,2.640 14.492,2.640 14.500 C 2.640 14.508,2.530 14.619,2.395 14.747 C 0.834 16.234,0.555 18.669,1.741 20.460 C 2.526 21.646,3.698 22.342,5.140 22.478 C 5.743 22.535,18.257 22.535,18.860 22.478 C 20.747 22.299,22.207 21.128,22.798 19.320 C 23.306 17.764,22.810 15.866,21.602 14.748 C 21.469 14.625,21.360 14.516,21.360 14.505 C 21.360 14.494,21.470 14.381,21.605 14.253 C 22.510 13.390,22.999 12.204,23.000 10.867 C 23.000 10.224,22.418 5.519,22.239 4.720 C 22.026 3.767,21.707 3.177,21.090 2.596 C 20.441 1.984,19.739 1.669,18.785 1.563 C 18.318 1.510,5.613 1.513,5.160 1.565 M18.667 3.562 C 19.458 3.669,20.062 4.217,20.252 5.000 C 20.287 5.143,20.362 5.602,20.418 6.020 C 20.475 6.438,20.529 6.827,20.538 6.884 L 20.555 6.987 20.184 6.838 C 19.383 6.515,20.062 6.540,12.000 6.540 C 4.023 6.540,4.638 6.520,3.899 6.804 C 3.431 6.983,3.448 6.981,3.464 6.873 C 3.472 6.822,3.525 6.438,3.582 6.020 C 3.638 5.602,3.713 5.143,3.748 5.000 C 3.932 4.242,4.543 3.670,5.280 3.566 C 5.661 3.513,18.272 3.509,18.667 3.562 M19.116 8.581 C 19.537 8.681,19.900 8.896,20.260 9.258 C 20.793 9.794,20.977 10.241,20.977 11.000 C 20.977 11.770,20.794 12.207,20.241 12.761 C 19.872 13.130,19.587 13.299,19.117 13.429 C 18.875 13.496,18.447 13.500,12.000 13.500 C 5.553 13.500,5.125 13.496,4.883 13.429 C 4.413 13.299,4.128 13.130,3.759 12.761 C 3.206 12.207,3.023 11.770,3.023 11.000 C 3.023 10.243,3.206 9.797,3.740 9.255 C 4.090 8.900,4.453 8.683,4.872 8.582 C 5.061 8.536,6.262 8.526,11.980 8.524 C 17.978 8.522,18.893 8.529,19.116 8.581 M5.614 10.055 C 5.220 10.184,5.039 10.437,5.009 10.900 C 4.978 11.381,5.119 11.699,5.442 11.880 C 5.597 11.967,5.669 11.980,6.000 11.980 C 6.312 11.980,6.408 11.964,6.540 11.894 C 6.866 11.718,7.000 11.459,7.000 11.000 C 7.000 10.357,6.713 10.048,6.083 10.016 C 5.893 10.006,5.718 10.021,5.614 10.055 M11.614 10.057 C 11.377 10.131,11.212 10.261,11.109 10.453 C 11.035 10.592,11.020 10.684,11.020 11.000 C 11.020 11.331,11.033 11.403,11.120 11.558 C 11.230 11.755,11.414 11.898,11.635 11.959 C 11.832 12.014,18.168 12.014,18.365 11.959 C 18.586 11.898,18.770 11.755,18.880 11.558 C 18.967 11.402,18.980 11.332,18.979 11.000 C 18.978 10.567,18.898 10.355,18.678 10.199 C 18.398 9.999,18.411 10.000,14.984 10.003 C 12.472 10.005,11.744 10.017,11.614 10.057 M19.116 15.581 C 19.537 15.681,19.900 15.896,20.260 16.258 C 20.793 16.794,20.977 17.241,20.977 18.000 C 20.977 18.770,20.794 19.207,20.241 19.761 C 19.872 20.130,19.587 20.299,19.117 20.429 C 18.875 20.496,18.447 20.500,12.000 20.500 C 5.553 20.500,5.125 20.496,4.883 20.429 C 4.413 20.299,4.128 20.130,3.759 19.761 C 3.206 19.207,3.023 18.770,3.023 18.000 C 3.023 17.243,3.206 16.797,3.740 16.255 C 4.090 15.900,4.453 15.683,4.872 15.582 C 5.061 15.536,6.262 15.526,11.980 15.524 C 17.978 15.522,18.893 15.529,19.116 15.581 M5.614 17.055 C 5.220 17.184,5.039 17.437,5.009 17.900 C 4.978 18.381,5.119 18.699,5.442 18.880 C 5.597 18.967,5.669 18.980,6.000 18.980 C 6.312 18.980,6.408 18.964,6.540 18.894 C 6.866 18.718,7.000 18.459,7.000 18.000 C 7.000 17.357,6.713 17.048,6.083 17.016 C 5.893 17.006,5.718 17.021,5.614 17.055 M11.614 17.057 C 11.377 17.131,11.212 17.261,11.109 17.453 C 11.035 17.592,11.020 17.684,11.020 18.000 C 11.020 18.331,11.033 18.403,11.120 18.558 C 11.230 18.755,11.414 18.898,11.635 18.959 C 11.832 19.014,18.168 19.014,18.365 18.959 C 18.586 18.898,18.770 18.755,18.880 18.558 C 18.967 18.402,18.980 18.332,18.979 18.000 C 18.978 17.567,18.898 17.355,18.678 17.199 C 18.398 16.999,18.411 17.000,14.984 17.003 C 12.472 17.005,11.744 17.017,11.614 17.057 " stroke="none" fill-rule="evenodd" fill="black"></path></svg>