<svg width="24" height="24" viewBox="0 0 24 24" fill="none" xmlns="http://www.w3.org/2000/svg"><path d="M11.536 1.039 C 10.781 1.146,9.982 1.601,9.512 2.194 C 9.252 2.521,9.153 2.701,8.800 3.500 C 8.340 4.539,8.195 4.739,7.760 4.935 C 7.426 5.086,7.253 5.094,6.400 4.999 C 5.147 4.859,4.633 4.891,4.030 5.144 C 3.082 5.543,2.420 6.321,2.127 7.380 C 2.034 7.716,2.040 8.528,2.137 8.880 C 2.264 9.337,2.537 9.833,3.041 10.520 C 3.726 11.455,3.740 11.484,3.740 12.000 C 3.740 12.515,3.727 12.543,3.043 13.480 C 2.244 14.574,2.067 15.007,2.063 15.880 C 2.060 16.579,2.200 17.064,2.567 17.628 C 3.021 18.324,3.750 18.841,4.527 19.017 C 5.021 19.129,5.265 19.129,6.261 19.022 C 7.301 18.910,7.480 18.917,7.803 19.082 C 7.894 19.128,8.050 19.241,8.151 19.333 C 8.339 19.505,8.455 19.722,8.963 20.858 C 9.313 21.639,9.662 22.081,10.227 22.453 C 11.424 23.242,12.902 23.168,14.049 22.262 C 14.513 21.895,14.801 21.426,15.402 20.060 C 15.659 19.477,15.913 19.188,16.298 19.044 C 16.602 18.930,16.831 18.930,17.880 19.041 C 18.625 19.121,18.789 19.127,19.105 19.087 C 21.040 18.845,22.307 17.020,21.855 15.126 C 21.754 14.699,21.474 14.188,20.957 13.480 C 20.280 12.554,20.260 12.513,20.260 12.020 C 20.260 11.527,20.313 11.407,20.846 10.680 C 21.775 9.415,21.931 9.049,21.936 8.120 C 21.939 7.591,21.893 7.342,21.704 6.874 C 21.388 6.093,20.705 5.432,19.880 5.109 C 19.304 4.884,18.833 4.861,17.600 4.999 C 17.169 5.047,16.739 5.074,16.640 5.061 C 16.357 5.022,15.988 4.822,15.788 4.601 C 15.671 4.471,15.540 4.245,15.400 3.932 C 14.768 2.516,14.545 2.149,14.100 1.789 C 13.667 1.438,13.219 1.208,12.752 1.096 C 12.452 1.025,11.842 0.996,11.536 1.039 M12.346 3.060 C 12.598 3.134,12.848 3.313,12.980 3.513 C 13.036 3.597,13.243 4.023,13.440 4.460 C 13.870 5.411,13.982 5.605,14.316 5.967 C 14.904 6.605,15.691 6.985,16.583 7.060 C 16.803 7.079,17.144 7.060,17.700 6.999 C 18.704 6.889,18.963 6.889,19.209 6.995 C 19.470 7.108,19.733 7.363,19.844 7.611 C 19.957 7.864,19.970 8.334,19.869 8.561 C 19.835 8.638,19.571 9.025,19.282 9.421 C 18.461 10.547,18.236 11.102,18.237 11.997 C 18.237 12.491,18.305 12.868,18.463 13.264 C 18.614 13.641,18.719 13.810,19.282 14.582 C 19.869 15.389,19.935 15.522,19.935 15.900 C 19.935 16.492,19.553 16.956,18.961 17.083 C 18.801 17.118,18.600 17.109,17.970 17.040 C 16.523 16.882,16.051 16.932,15.270 17.325 C 14.938 17.492,14.705 17.654,14.445 17.898 C 14.037 18.282,13.855 18.595,13.237 19.980 C 13.076 20.340,12.976 20.506,12.839 20.644 C 12.423 21.061,11.770 21.110,11.287 20.761 C 11.061 20.597,10.969 20.446,10.618 19.659 C 10.088 18.473,9.970 18.282,9.490 17.837 C 8.958 17.345,8.263 17.034,7.524 16.959 C 7.199 16.925,6.991 16.934,6.195 17.018 C 5.677 17.072,5.182 17.106,5.096 17.093 C 4.694 17.032,4.317 16.742,4.148 16.365 C 4.041 16.125,4.034 15.728,4.132 15.474 C 4.172 15.371,4.437 14.966,4.723 14.574 C 5.561 13.421,5.766 12.916,5.766 12.000 C 5.766 11.084,5.561 10.579,4.723 9.426 C 4.437 9.034,4.172 8.629,4.132 8.526 C 3.912 7.956,4.187 7.283,4.749 7.017 C 5.030 6.885,5.231 6.882,6.300 6.999 C 7.181 7.096,7.522 7.087,8.037 6.956 C 8.954 6.722,9.782 6.069,10.197 5.253 C 10.262 5.125,10.451 4.715,10.618 4.341 C 10.961 3.574,11.056 3.413,11.262 3.256 C 11.568 3.022,11.974 2.949,12.346 3.060 M11.358 8.061 C 10.230 8.237,9.143 8.974,8.569 9.953 C 7.320 12.083,8.233 14.785,10.512 15.704 C 12.558 16.528,14.877 15.538,15.704 13.488 C 16.090 12.530,16.090 11.469,15.705 10.516 C 15.172 9.197,14.001 8.269,12.605 8.058 C 12.144 7.989,11.816 7.990,11.358 8.061 M12.523 10.073 C 13.262 10.266,13.850 10.924,13.967 11.690 C 14.067 12.343,13.873 12.933,13.403 13.404 C 13.002 13.807,12.547 14.000,12.000 14.000 C 11.485 14.000,11.038 13.822,10.653 13.465 C 9.323 12.229,10.189 10.005,12.000 10.005 C 12.143 10.005,12.378 10.036,12.523 10.073 " stroke="none" fill-rule="evenodd" fill="black"></path></svg>