<svg width="24" height="24" viewBox="0 0 24 24" fill="none" xmlns="http://www.w3.org/2000/svg"><path d="M11.530 2.085 C 11.392 2.152,11.248 2.254,11.210 2.312 C 11.171 2.370,10.237 3.327,9.134 4.439 C 7.766 5.818,7.101 6.516,7.040 6.637 C 6.863 6.989,6.952 7.354,7.299 7.701 C 7.646 8.048,8.011 8.137,8.363 7.960 C 8.479 7.901,8.961 7.452,9.770 6.647 L 11.000 5.423 11.000 10.321 C 11.000 13.480,11.015 15.271,11.041 15.365 C 11.148 15.750,11.437 15.962,11.896 15.991 C 12.381 16.022,12.699 15.882,12.880 15.558 L 12.980 15.380 12.991 10.402 L 13.002 5.424 14.231 6.648 C 15.039 7.452,15.521 7.901,15.637 7.960 C 15.989 8.137,16.354 8.048,16.701 7.701 C 17.048 7.354,17.137 6.989,16.960 6.637 C 16.899 6.516,16.234 5.818,14.866 4.439 C 13.763 3.327,12.829 2.370,12.790 2.312 C 12.752 2.254,12.604 2.151,12.460 2.083 C 12.113 1.919,11.873 1.920,11.530 2.085 M5.516 10.044 C 4.678 10.125,3.817 10.544,3.181 11.181 C 2.548 11.814,2.140 12.648,2.041 13.511 C 1.988 13.967,1.988 17.612,2.041 18.180 C 2.109 18.928,2.225 19.387,2.465 19.859 C 2.915 20.749,3.772 21.482,4.680 21.755 C 5.474 21.994,5.642 22.000,12.000 22.000 C 18.358 22.000,18.526 21.994,19.320 21.755 C 20.228 21.482,21.085 20.749,21.535 19.859 C 21.775 19.387,21.891 18.928,21.959 18.180 C 22.012 17.612,22.012 13.967,21.959 13.511 C 21.860 12.648,21.452 11.814,20.819 11.181 C 20.157 10.519,19.332 10.128,18.411 10.041 C 17.780 9.981,16.851 9.989,16.629 10.055 C 16.224 10.177,16.040 10.428,16.009 10.900 C 15.978 11.381,16.119 11.701,16.442 11.879 C 16.611 11.972,16.668 11.979,17.527 12.008 C 18.352 12.036,18.458 12.047,18.697 12.138 C 19.260 12.349,19.638 12.727,19.871 13.307 L 19.980 13.580 19.979 15.880 C 19.977 18.369,19.967 18.511,19.752 18.952 C 19.626 19.211,19.190 19.638,18.918 19.768 C 18.466 19.985,18.627 19.980,12.000 19.980 C 5.383 19.980,5.538 19.985,5.082 19.771 C 4.812 19.643,4.377 19.217,4.248 18.952 C 4.033 18.511,4.023 18.369,4.021 15.880 L 4.020 13.580 4.129 13.307 C 4.362 12.727,4.740 12.349,5.303 12.138 C 5.542 12.048,5.650 12.035,6.473 12.007 C 7.276 11.979,7.398 11.965,7.540 11.892 C 7.873 11.718,7.978 11.505,7.978 11.000 C 7.978 10.686,7.963 10.591,7.890 10.453 C 7.786 10.256,7.623 10.131,7.371 10.055 C 7.165 9.993,6.106 9.987,5.516 10.044 " stroke="none" fill-rule="evenodd" fill="black"></path></svg>