<svg width="24" height="24" viewBox="0 0 24 24" fill="none" xmlns="http://www.w3.org/2000/svg"><path d="M17.719 1.999 L 14.658 2.020 14.459 2.122 C 14.119 2.297,13.978 2.606,14.009 3.104 C 14.038 3.563,14.250 3.852,14.635 3.959 C 14.723 3.984,15.530 4.000,16.679 4.000 L 18.579 4.000 15.353 7.230 C 13.074 9.512,12.102 10.512,12.039 10.637 C 11.863 10.990,11.952 11.355,12.299 11.701 C 12.645 12.048,13.010 12.137,13.363 11.961 C 13.488 11.898,14.488 10.926,16.770 8.647 L 20.000 5.421 20.000 7.321 C 20.000 8.470,20.016 9.277,20.041 9.365 C 20.148 9.750,20.437 9.962,20.896 9.991 C 21.381 10.022,21.699 9.882,21.880 9.558 L 21.980 9.380 22.007 6.220 C 22.022 4.482,22.035 3.001,22.037 2.929 C 22.041 2.744,21.835 2.310,21.696 2.212 C 21.467 2.052,21.198 1.960,20.985 1.969 C 20.872 1.974,19.402 1.988,17.719 1.999 M5.920 4.042 C 5.155 4.091,4.674 4.204,4.180 4.451 C 3.089 4.996,2.357 5.961,2.124 7.160 C 2.015 7.718,2.000 8.439,2.000 13.000 C 2.000 18.284,2.010 18.540,2.245 19.320 C 2.577 20.422,3.578 21.423,4.680 21.755 C 5.460 21.990,5.716 22.000,11.000 22.000 C 16.284 22.000,16.540 21.990,17.320 21.755 C 18.422 21.423,19.425 20.421,19.755 19.320 C 19.972 18.597,20.008 18.036,19.993 15.620 C 19.980 13.640,19.979 13.618,19.891 13.453 C 19.785 13.256,19.622 13.131,19.371 13.055 C 18.862 12.902,18.311 13.076,18.109 13.453 C 18.021 13.618,18.020 13.643,17.994 15.920 C 17.966 18.382,17.954 18.537,17.752 18.952 C 17.626 19.211,17.190 19.638,16.918 19.768 C 16.471 19.983,16.547 19.980,11.000 19.980 C 5.462 19.980,5.533 19.983,5.082 19.771 C 4.812 19.643,4.377 19.217,4.248 18.952 C 4.198 18.849,4.126 18.633,4.088 18.472 C 4.026 18.205,4.020 17.744,4.020 13.000 C 4.020 8.256,4.026 7.795,4.088 7.528 C 4.126 7.367,4.198 7.151,4.248 7.048 C 4.366 6.806,4.806 6.366,5.048 6.248 C 5.463 6.046,5.618 6.034,8.080 6.006 C 10.330 5.981,10.383 5.978,10.540 5.894 C 10.875 5.715,10.978 5.504,10.978 5.000 C 10.978 4.567,10.899 4.356,10.678 4.199 C 10.409 4.007,10.316 4.000,8.284 4.006 C 7.237 4.009,6.173 4.025,5.920 4.042 " stroke="none" fill-rule="evenodd" fill="black"></path></svg>