<svg width="24" height="24" viewBox="0 0 24 24" fill="none" xmlns="http://www.w3.org/2000/svg"><path d="M11.530 2.085 C 11.392 2.152,11.248 2.254,11.210 2.312 C 11.171 2.370,10.237 3.327,9.134 4.439 C 7.766 5.818,7.101 6.516,7.040 6.637 C 6.863 6.989,6.952 7.354,7.299 7.701 C 7.646 8.048,8.011 8.137,8.363 7.960 C 8.479 7.901,8.961 7.452,9.770 6.647 L 11.000 5.423 11.000 10.321 C 11.000 13.480,11.015 15.271,11.041 15.365 C 11.148 15.750,11.437 15.962,11.896 15.991 C 12.381 16.022,12.699 15.882,12.880 15.558 L 12.980 15.380 12.991 10.402 L 13.002 5.424 14.231 6.648 C 15.039 7.452,15.521 7.901,15.637 7.960 C 15.989 8.137,16.354 8.048,16.701 7.701 C 17.048 7.354,17.137 6.989,16.960 6.637 C 16.899 6.516,16.234 5.818,14.866 4.439 C 13.763 3.327,12.829 2.370,12.790 2.312 C 12.752 2.254,12.604 2.151,12.460 2.083 C 12.113 1.919,11.873 1.920,11.530 2.085 M2.614 11.057 C 2.377 11.131,2.212 11.261,2.109 11.453 L 2.020 11.620 2.008 14.620 C 1.993 18.113,2.016 18.556,2.245 19.320 C 2.575 20.421,3.578 21.423,4.680 21.755 C 5.474 21.994,5.642 22.000,12.000 22.000 C 18.358 22.000,18.526 21.994,19.320 21.755 C 20.422 21.423,21.425 20.421,21.755 19.320 C 21.984 18.555,22.007 18.112,21.992 14.620 L 21.980 11.620 21.891 11.453 C 21.785 11.256,21.622 11.131,21.371 11.055 C 20.862 10.902,20.311 11.076,20.109 11.453 L 20.020 11.620 19.996 14.920 C 19.969 18.477,19.967 18.510,19.752 18.952 C 19.626 19.211,19.190 19.638,18.918 19.768 C 18.466 19.985,18.627 19.980,12.000 19.980 C 5.383 19.980,5.538 19.985,5.082 19.771 C 4.812 19.643,4.377 19.217,4.248 18.952 C 4.033 18.511,4.031 18.477,4.005 14.920 L 3.980 11.620 3.891 11.453 C 3.842 11.362,3.746 11.247,3.678 11.199 C 3.414 11.010,2.957 10.950,2.614 11.057 " stroke="none" fill-rule="evenodd" fill="black"></path></svg>