<svg width="24" height="24" viewBox="0 0 24 24" fill="none" xmlns="http://www.w3.org/2000/svg"><path d="M11.098 2.635 C 10.888 2.689,10.562 2.888,10.413 3.053 C 10.241 3.244,10.095 3.551,10.040 3.838 C 10.016 3.964,10.000 4.903,10.000 6.137 L 10.000 8.222 9.510 8.374 C 6.800 9.211,4.498 11.137,3.198 13.656 C 2.565 14.882,2.170 16.233,2.043 17.600 C 1.989 18.181,1.988 19.334,2.041 19.525 C 2.148 19.913,2.437 20.122,2.905 20.152 C 3.339 20.179,3.534 20.072,3.979 19.561 C 4.907 18.495,6.190 17.555,7.553 16.943 C 8.210 16.648,9.198 16.338,9.850 16.223 L 10.000 16.196 10.000 18.073 C 10.000 19.166,10.017 20.038,10.040 20.162 C 10.134 20.655,10.394 21.020,10.809 21.242 C 11.024 21.357,11.108 21.378,11.400 21.392 C 11.812 21.411,12.072 21.328,12.438 21.059 C 12.755 20.825,21.575 13.264,21.796 13.037 C 22.139 12.682,22.296 12.191,22.205 11.753 C 22.144 11.456,22.013 11.191,21.832 10.999 C 21.700 10.858,12.927 3.325,12.530 3.012 C 12.174 2.730,11.916 2.627,11.544 2.614 C 11.366 2.608,11.165 2.618,11.098 2.635 M16.051 8.652 L 19.963 12.003 15.991 15.407 L 12.020 18.812 12.000 16.776 C 11.978 14.507,11.981 14.532,11.697 14.283 C 11.450 14.066,11.178 14.038,10.302 14.140 C 9.360 14.251,8.336 14.496,7.453 14.822 C 6.580 15.144,5.246 15.855,4.548 16.370 C 4.399 16.480,4.268 16.562,4.258 16.551 C 4.247 16.541,4.285 16.374,4.341 16.181 C 4.782 14.658,5.570 13.358,6.703 12.284 C 7.881 11.167,9.286 10.429,10.900 10.081 C 11.551 9.941,11.733 9.843,11.890 9.548 C 11.979 9.381,11.980 9.368,11.991 7.286 C 12.002 5.325,12.007 5.196,12.071 5.246 C 12.108 5.276,13.899 6.808,16.051 8.652 " stroke="none" fill-rule="evenodd" fill="black"></path></svg>