<svg width="24" height="24" viewBox="0 0 24 24" fill="none" xmlns="http://www.w3.org/2000/svg"><path d="M17.626 2.045 C 17.257 2.239,16.951 2.673,16.951 3.000 C 16.951 3.307,17.079 3.488,17.847 4.264 L 18.564 4.988 17.152 5.012 C 15.661 5.037,15.179 5.082,14.680 5.246 C 13.730 5.558,12.913 6.256,12.465 7.141 C 12.225 7.613,12.109 8.072,12.041 8.820 C 11.988 9.395,11.988 12.174,12.041 12.365 C 12.148 12.750,12.437 12.962,12.896 12.991 C 13.381 13.022,13.699 12.882,13.880 12.558 L 13.980 12.380 14.007 10.580 C 14.042 8.268,14.070 8.129,14.600 7.600 C 15.110 7.090,15.315 7.043,17.180 7.013 L 18.580 6.991 17.855 7.725 C 17.423 8.164,17.094 8.532,17.041 8.637 C 16.863 8.988,16.952 9.354,17.299 9.701 C 17.646 10.048,18.011 10.137,18.363 9.960 C 18.480 9.901,19.051 9.365,20.062 8.365 C 20.899 7.537,21.634 6.826,21.697 6.784 C 21.850 6.682,22.049 6.238,22.049 6.000 C 22.049 5.745,21.851 5.321,21.676 5.201 C 21.601 5.150,20.865 4.438,20.040 3.618 C 19.085 2.670,18.479 2.098,18.372 2.044 C 18.152 1.934,17.835 1.934,17.626 2.045 M5.920 2.042 C 5.155 2.091,4.674 2.204,4.180 2.451 C 3.089 2.996,2.357 3.961,2.124 5.160 C 2.013 5.729,2.000 6.455,2.000 12.000 C 2.000 18.358,2.006 18.526,2.245 19.320 C 2.577 20.422,3.578 21.423,4.680 21.755 C 5.474 21.994,5.642 22.000,12.000 22.000 C 18.358 22.000,18.526 21.994,19.320 21.755 C 20.422 21.423,21.425 20.421,21.755 19.320 C 21.972 18.597,22.008 18.036,21.993 15.620 C 21.980 13.640,21.979 13.618,21.891 13.453 C 21.689 13.076,21.138 12.902,20.629 13.055 C 20.378 13.131,20.215 13.256,20.109 13.453 C 20.021 13.618,20.020 13.643,19.994 15.920 C 19.966 18.382,19.954 18.537,19.752 18.952 C 19.626 19.211,19.190 19.638,18.918 19.768 C 18.466 19.985,18.627 19.980,12.000 19.980 C 5.383 19.980,5.538 19.985,5.082 19.771 C 4.812 19.643,4.377 19.217,4.248 18.952 C 4.198 18.849,4.126 18.633,4.088 18.472 C 4.025 18.203,4.020 17.687,4.020 12.000 C 4.020 6.313,4.025 5.797,4.088 5.528 C 4.126 5.367,4.198 5.151,4.248 5.048 C 4.366 4.806,4.806 4.366,5.048 4.248 C 5.463 4.046,5.618 4.034,8.080 4.006 C 10.330 3.981,10.383 3.978,10.540 3.894 C 10.875 3.715,10.978 3.504,10.978 3.000 C 10.978 2.567,10.899 2.356,10.678 2.199 C 10.409 2.007,10.316 2.000,8.284 2.006 C 7.237 2.009,6.173 2.025,5.920 2.042 " stroke="none" fill-rule="evenodd" fill="black"></path></svg>