<svg width="24" height="24" viewBox="0 0 24 24" fill="none" xmlns="http://www.w3.org/2000/svg"><path d="M11.494 1.141 C 11.097 1.248,5.176 3.488,4.740 3.696 C 4.039 4.031,3.593 4.466,3.294 5.107 C 3.015 5.705,3.026 5.554,3.009 9.120 C 2.999 11.299,3.009 12.482,3.039 12.780 C 3.212 14.490,3.994 16.259,5.303 17.900 C 5.720 18.422,7.134 19.848,7.700 20.316 C 8.884 21.296,10.668 22.485,11.342 22.745 C 11.740 22.898,12.261 22.897,12.659 22.744 C 13.421 22.451,15.438 21.073,16.600 20.051 C 17.257 19.474,18.253 18.451,18.695 17.900 C 19.989 16.288,20.788 14.487,20.958 12.806 C 21.015 12.241,21.014 6.391,20.957 5.973 C 20.866 5.308,20.574 4.727,20.091 4.250 C 19.841 4.003,19.724 3.924,19.308 3.723 C 18.819 3.486,12.927 1.253,12.494 1.140 C 12.211 1.066,11.769 1.067,11.494 1.141 M15.024 4.204 C 16.672 4.822,18.155 5.389,18.319 5.465 C 18.662 5.623,18.773 5.715,18.894 5.940 C 18.980 6.099,18.980 6.117,18.993 9.120 C 19.007 12.360,18.993 12.707,18.814 13.440 C 18.268 15.684,16.248 18.098,13.260 20.081 C 12.619 20.506,12.065 20.840,12.000 20.840 C 11.937 20.840,11.206 20.399,10.655 20.028 C 9.582 19.306,8.730 18.610,7.880 17.760 C 6.149 16.028,5.217 14.329,5.039 12.580 C 5.009 12.283,4.998 11.156,5.007 9.120 C 5.020 6.117,5.020 6.099,5.106 5.940 C 5.225 5.719,5.335 5.626,5.660 5.474 C 5.942 5.342,11.902 3.088,11.984 3.083 C 12.007 3.081,13.375 3.586,15.024 4.204 M11.545 7.579 C 11.460 7.609,11.329 7.693,11.254 7.766 C 11.025 7.988,11.000 8.147,11.000 9.407 L 11.000 10.520 9.870 10.520 C 9.197 10.520,8.678 10.538,8.587 10.563 C 8.355 10.627,8.132 10.852,8.060 11.092 C 7.935 11.513,8.017 12.004,8.249 12.229 C 8.510 12.482,8.580 12.494,9.850 12.512 L 11.000 12.528 11.000 13.617 C 11.000 14.844,11.026 15.013,11.249 15.229 C 11.443 15.417,11.645 15.486,12.000 15.486 C 12.355 15.486,12.557 15.417,12.751 15.229 C 12.974 15.013,13.000 14.844,13.000 13.617 L 13.000 12.528 14.150 12.512 C 15.420 12.494,15.490 12.482,15.751 12.229 C 15.983 12.004,16.065 11.513,15.940 11.092 C 15.868 10.852,15.645 10.627,15.413 10.563 C 15.322 10.538,14.803 10.520,14.130 10.520 L 13.000 10.520 13.000 9.407 C 13.000 8.114,12.977 7.977,12.723 7.747 C 12.636 7.669,12.497 7.586,12.413 7.563 C 12.200 7.504,11.731 7.513,11.545 7.579 " stroke="none" fill-rule="evenodd" fill="black"></path></svg>