<svg width="24" height="24" viewBox="0 0 24 24" fill="none" xmlns="http://www.w3.org/2000/svg"><path d="M11.553 1.120 C 11.232 1.201,4.965 3.577,4.638 3.741 C 4.021 4.051,3.575 4.504,3.294 5.107 C 3.015 5.705,3.026 5.554,3.009 9.120 C 2.999 11.299,3.009 12.482,3.039 12.780 C 3.212 14.490,3.994 16.259,5.303 17.900 C 5.719 18.421,7.133 19.847,7.700 20.317 C 8.877 21.291,10.667 22.485,11.342 22.745 C 11.739 22.897,12.261 22.897,12.658 22.745 C 13.332 22.485,15.116 21.296,16.300 20.316 C 16.865 19.849,18.280 18.422,18.697 17.900 C 19.995 16.274,20.789 14.486,20.958 12.806 C 21.015 12.241,21.014 6.391,20.957 5.973 C 20.825 5.009,20.262 4.204,19.415 3.770 C 19.189 3.654,17.614 3.040,15.740 2.337 L 12.460 1.107 12.080 1.095 C 11.871 1.089,11.634 1.100,11.553 1.120 M15.024 4.204 C 16.672 4.822,18.155 5.389,18.319 5.465 C 18.662 5.623,18.773 5.715,18.894 5.940 C 18.980 6.099,18.980 6.117,18.993 9.120 C 19.002 11.156,18.991 12.283,18.961 12.580 C 18.782 14.338,17.847 16.036,16.098 17.780 C 14.996 18.879,13.521 20.000,12.170 20.764 L 12.000 20.860 11.830 20.764 C 10.479 20.000,9.004 18.879,7.902 17.780 C 6.153 16.036,5.218 14.338,5.039 12.580 C 5.009 12.283,4.998 11.156,5.007 9.120 C 5.020 6.117,5.020 6.099,5.106 5.940 C 5.225 5.719,5.335 5.626,5.660 5.474 C 5.942 5.342,11.902 3.088,11.984 3.083 C 12.007 3.081,13.375 3.586,15.024 4.204 M11.614 5.057 C 11.376 5.132,11.211 5.261,11.111 5.453 C 11.040 5.588,11.021 5.706,11.007 6.070 L 10.991 6.520 10.798 6.520 C 9.945 6.520,8.975 7.092,8.458 7.901 C 7.850 8.851,7.850 10.149,8.458 11.099 C 8.764 11.579,9.258 12.006,9.776 12.241 C 10.277 12.468,10.422 12.487,11.860 12.505 C 12.586 12.514,13.249 12.540,13.332 12.563 C 13.521 12.615,13.778 12.841,13.892 13.057 C 13.956 13.179,13.978 13.291,13.978 13.500 C 13.978 13.831,13.890 14.029,13.648 14.248 C 13.379 14.491,13.319 14.500,11.920 14.500 C 10.706 14.500,10.654 14.497,10.500 14.414 C 10.319 14.316,10.214 14.210,10.070 13.980 C 9.749 13.465,9.353 13.345,8.810 13.599 C 8.347 13.816,8.117 14.156,8.178 14.537 C 8.240 14.922,8.680 15.568,9.101 15.891 C 9.538 16.226,10.107 16.435,10.770 16.502 L 11.000 16.526 11.000 16.873 C 11.000 17.064,11.019 17.285,11.041 17.365 C 11.148 17.750,11.437 17.962,11.896 17.991 C 12.380 18.022,12.700 17.881,12.877 17.561 C 12.957 17.416,12.977 17.314,12.992 16.963 C 13.003 16.715,13.029 16.528,13.055 16.511 C 13.080 16.494,13.181 16.481,13.280 16.480 C 14.068 16.475,15.043 15.880,15.542 15.099 C 16.150 14.149,16.150 12.851,15.542 11.901 C 15.153 11.293,14.458 10.774,13.793 10.595 C 13.688 10.567,13.064 10.539,12.200 10.523 C 10.633 10.495,10.599 10.489,10.326 10.228 C 10.104 10.015,10.022 9.819,10.022 9.500 C 10.022 9.181,10.104 8.985,10.326 8.772 C 10.584 8.526,10.622 8.520,12.069 8.521 C 13.680 8.521,13.557 8.480,14.040 9.178 C 14.152 9.340,14.393 9.498,14.589 9.539 C 14.894 9.603,15.502 9.306,15.709 8.993 C 15.945 8.636,15.812 8.121,15.333 7.541 C 14.828 6.928,14.010 6.522,13.275 6.521 L 13.010 6.520 12.992 6.070 C 12.972 5.562,12.897 5.354,12.678 5.199 C 12.414 5.010,11.957 4.950,11.614 5.057 " stroke="none" fill-rule="evenodd" fill="black"></path></svg>