<svg width="24" height="24" viewBox="0 0 24 24" fill="none" xmlns="http://www.w3.org/2000/svg"><path d="M11.495 1.141 C 11.160 1.231,8.395 2.278,8.211 2.384 C 7.874 2.579,7.725 2.909,7.804 3.286 C 7.947 3.966,8.346 4.310,8.870 4.205 C 8.987 4.181,9.740 3.916,10.542 3.616 L 12.001 3.070 14.911 4.159 C 18.731 5.589,18.699 5.575,18.892 5.935 L 18.980 6.100 18.980 9.380 C 18.980 12.881,18.981 12.870,18.778 13.580 C 18.611 14.164,18.627 14.429,18.844 14.693 C 19.066 14.962,19.621 15.137,20.017 15.063 C 20.192 15.030,20.418 14.841,20.520 14.641 C 20.621 14.441,20.787 13.856,20.889 13.332 C 20.970 12.918,20.974 12.760,20.989 9.620 C 21.000 7.350,20.991 6.235,20.960 6.000 C 20.870 5.314,20.582 4.735,20.091 4.250 C 19.841 4.003,19.724 3.924,19.308 3.723 C 18.819 3.486,12.927 1.253,12.494 1.140 C 12.211 1.066,11.769 1.067,11.495 1.141 M2.626 2.045 C 2.257 2.239,1.951 2.673,1.951 3.000 C 1.951 3.294,2.084 3.492,2.706 4.123 L 3.281 4.707 3.186 4.923 C 3.133 5.043,3.070 5.235,3.045 5.352 C 2.985 5.635,2.982 12.278,3.042 12.832 C 3.226 14.520,4.011 16.280,5.303 17.900 C 5.720 18.422,7.134 19.848,7.700 20.316 C 8.884 21.296,10.668 22.485,11.342 22.745 C 11.573 22.834,11.684 22.852,12.000 22.852 C 12.560 22.852,12.815 22.742,13.981 21.999 C 15.195 21.226,16.360 20.313,17.270 19.424 L 17.640 19.062 19.050 20.466 C 19.992 21.405,20.519 21.901,20.637 21.960 C 20.989 22.137,21.354 22.048,21.701 21.701 C 22.048 21.355,22.137 20.990,21.961 20.637 C 21.897 20.509,19.568 18.154,13.566 12.147 C 3.365 1.939,3.579 2.151,3.372 2.045 C 3.152 1.934,2.836 1.934,2.626 2.045 M10.633 12.053 L 16.246 17.667 15.693 18.171 C 14.959 18.839,14.162 19.468,13.380 19.995 C 12.658 20.481,12.073 20.840,12.000 20.840 C 11.937 20.840,11.206 20.399,10.655 20.028 C 9.582 19.306,8.730 18.610,7.880 17.760 C 6.170 16.049,5.230 14.349,5.042 12.632 C 5.007 12.305,4.976 6.440,5.010 6.440 C 5.016 6.440,7.546 8.966,10.633 12.053 " stroke="none" fill-rule="evenodd" fill="black"></path></svg>