<svg width="24" height="24" viewBox="0 0 24 24" fill="none" xmlns="http://www.w3.org/2000/svg"><path d="M1.614 1.056 C 1.375 1.133,1.211 1.262,1.109 1.453 C 1.035 1.592,1.020 1.684,1.020 2.000 C 1.020 2.331,1.033 2.403,1.120 2.558 C 1.230 2.755,1.414 2.898,1.635 2.959 C 1.715 2.981,2.087 3.000,2.461 3.000 L 3.142 3.000 4.516 11.710 C 5.271 16.500,5.914 20.546,5.945 20.700 C 5.976 20.854,6.047 21.073,6.103 21.188 C 6.233 21.456,6.576 21.768,6.870 21.887 L 7.100 21.980 13.153 21.991 C 17.151 21.998,19.258 21.987,19.357 21.961 C 19.584 21.900,19.768 21.758,19.880 21.558 C 19.967 21.402,19.980 21.332,19.979 21.000 C 19.978 20.567,19.898 20.355,19.678 20.199 C 19.390 19.993,19.599 20.000,13.521 20.000 L 7.855 20.000 7.707 19.050 C 7.625 18.527,7.559 18.078,7.559 18.050 C 7.560 18.010,8.671 18.000,12.977 18.000 C 16.510 18.000,18.503 17.985,18.707 17.958 C 19.795 17.813,20.709 17.123,21.072 16.171 C 21.250 15.705,21.295 15.483,22.122 10.940 C 22.992 6.157,22.977 6.287,22.721 5.807 C 22.502 5.397,22.136 5.126,21.683 5.041 C 21.543 5.014,18.717 5.000,13.480 5.000 L 5.491 5.000 5.363 4.190 C 4.984 1.796,4.992 1.825,4.624 1.456 C 4.450 1.283,4.311 1.186,4.140 1.118 C 3.912 1.028,3.847 1.023,2.840 1.013 C 2.037 1.005,1.740 1.015,1.614 1.056 M20.783 7.110 C 20.770 7.170,20.455 8.894,20.083 10.940 C 19.228 15.640,19.260 15.501,19.003 15.733 C 18.712 15.996,19.096 15.980,12.882 15.980 L 7.223 15.980 6.535 11.620 C 6.156 9.222,5.837 7.202,5.826 7.130 L 5.805 7.000 13.306 7.000 L 20.806 7.000 20.783 7.110 " stroke="none" fill-rule="evenodd" fill="black"></path></svg>