<svg width="24" height="24" viewBox="0 0 24 24" fill="none" xmlns="http://www.w3.org/2000/svg"><path d="M6.143 1.044 C 5.812 1.093,5.439 1.279,5.173 1.528 C 4.947 1.741,2.656 4.758,2.407 5.172 C 2.239 5.451,2.096 5.862,2.041 6.221 C 2.011 6.414,2.001 8.635,2.010 13.460 L 2.022 20.420 2.112 20.756 C 2.288 21.416,2.646 21.969,3.142 22.350 C 3.495 22.621,3.816 22.775,4.265 22.889 L 4.620 22.980 11.980 22.980 C 19.013 22.980,19.354 22.977,19.660 22.906 C 20.457 22.720,21.041 22.326,21.482 21.677 C 21.679 21.387,21.780 21.156,21.892 20.740 L 21.978 20.420 21.990 13.460 C 21.999 8.629,21.989 6.415,21.960 6.221 C 21.904 5.862,21.761 5.451,21.593 5.172 C 21.344 4.758,19.053 1.741,18.827 1.528 C 18.550 1.269,18.191 1.095,17.820 1.042 C 17.472 0.992,6.487 0.994,6.143 1.044 M18.250 4.000 L 19.000 5.000 12.000 5.000 L 5.000 5.000 5.750 4.000 L 6.499 3.000 12.000 3.000 L 17.501 3.000 18.250 4.000 M19.990 13.610 C 19.980 18.898,19.967 20.251,19.926 20.374 C 19.859 20.571,19.577 20.854,19.376 20.925 C 19.143 21.007,4.857 21.007,4.624 20.925 C 4.423 20.854,4.141 20.571,4.074 20.374 C 4.033 20.251,4.020 18.898,4.010 13.610 L 3.998 7.000 12.000 7.000 L 20.002 7.000 19.990 13.610 M7.614 9.057 C 7.377 9.131,7.212 9.261,7.109 9.453 C 7.030 9.600,7.020 9.679,7.021 10.120 C 7.024 11.937,8.132 13.672,9.811 14.489 C 10.527 14.838,11.162 14.980,12.000 14.980 C 12.681 14.980,13.044 14.922,13.627 14.720 C 15.602 14.035,16.977 12.149,16.979 10.120 C 16.980 9.679,16.969 9.600,16.891 9.453 C 16.689 9.076,16.138 8.902,15.629 9.055 C 15.179 9.191,15.045 9.407,14.995 10.084 C 14.975 10.349,14.921 10.686,14.869 10.866 C 14.601 11.789,13.845 12.555,12.887 12.872 C 12.620 12.961,12.508 12.974,12.020 12.977 C 11.539 12.980,11.418 12.967,11.160 12.886 C 10.578 12.705,10.107 12.391,9.695 11.911 C 9.277 11.423,9.067 10.869,9.003 10.082 C 8.960 9.550,8.885 9.346,8.678 9.199 C 8.414 9.010,7.957 8.950,7.614 9.057 " stroke="none" fill-rule="evenodd" fill="black"></path></svg>