<svg width="24" height="24" viewBox="0 0 24 24" fill="none" xmlns="http://www.w3.org/2000/svg"><path d="M17.626 2.045 C 17.257 2.239,16.951 2.673,16.951 3.000 C 16.951 3.307,17.079 3.488,17.847 4.264 L 18.563 4.988 17.832 5.012 C 17.429 5.024,16.992 5.055,16.860 5.080 C 16.016 5.236,15.181 5.711,14.626 6.350 C 14.497 6.499,13.010 8.690,11.320 11.220 C 9.631 13.750,8.139 15.967,8.004 16.147 C 7.721 16.525,7.460 16.732,7.086 16.874 L 6.820 16.976 4.739 16.998 L 2.658 17.020 2.459 17.122 C 2.119 17.297,1.978 17.606,2.009 18.104 C 2.038 18.563,2.250 18.852,2.635 18.959 C 2.837 19.015,6.437 19.012,6.900 18.956 C 7.883 18.836,8.832 18.316,9.447 17.560 C 9.581 17.395,11.073 15.190,12.762 12.660 C 14.452 10.130,15.930 7.936,16.047 7.784 C 16.165 7.632,16.360 7.439,16.480 7.356 C 16.842 7.107,17.099 7.045,17.889 7.015 L 18.580 6.990 17.855 7.725 C 17.423 8.163,17.094 8.532,17.041 8.637 C 16.863 8.988,16.952 9.354,17.299 9.701 C 17.646 10.048,18.011 10.137,18.363 9.960 C 18.480 9.901,19.051 9.365,20.062 8.365 C 20.899 7.537,21.634 6.826,21.697 6.784 C 21.850 6.682,22.049 6.238,22.049 6.000 C 22.049 5.745,21.851 5.321,21.676 5.201 C 21.601 5.150,20.865 4.438,20.040 3.618 C 19.085 2.670,18.479 2.098,18.372 2.044 C 18.152 1.934,17.835 1.934,17.626 2.045 M2.614 5.056 C 2.375 5.133,2.211 5.262,2.109 5.453 C 2.035 5.592,2.020 5.684,2.020 6.000 C 2.020 6.331,2.033 6.403,2.120 6.558 C 2.230 6.755,2.414 6.898,2.635 6.959 C 2.721 6.983,3.469 7.000,4.480 7.001 C 6.592 7.003,6.861 7.024,7.263 7.215 C 7.642 7.395,7.832 7.590,8.320 8.299 C 9.085 9.409,9.168 9.496,9.521 9.543 C 10.018 9.610,10.716 9.043,10.719 8.570 C 10.720 8.499,10.687 8.354,10.647 8.249 C 10.562 8.026,9.787 6.859,9.440 6.432 C 8.904 5.772,8.104 5.289,7.220 5.092 C 6.826 5.004,2.869 4.973,2.614 5.056 M17.626 14.045 C 17.257 14.239,16.951 14.673,16.951 15.000 C 16.951 15.307,17.079 15.488,17.855 16.275 L 18.580 17.010 17.880 16.988 C 17.273 16.970,17.145 16.954,16.914 16.870 C 16.400 16.683,16.223 16.500,15.442 15.360 C 15.005 14.722,14.950 14.658,14.740 14.549 C 14.405 14.374,13.978 14.476,13.604 14.818 C 13.293 15.104,13.216 15.391,13.354 15.753 C 13.445 15.992,14.311 17.282,14.628 17.650 C 15.236 18.355,16.154 18.840,17.100 18.956 C 17.298 18.980,17.711 19.000,18.018 19.000 L 18.575 19.000 17.853 19.730 C 17.420 20.168,17.095 20.531,17.041 20.637 C 16.863 20.988,16.952 21.354,17.299 21.701 C 17.646 22.048,18.011 22.137,18.363 21.960 C 18.480 21.901,19.051 21.365,20.062 20.365 C 20.899 19.537,21.634 18.826,21.697 18.784 C 21.850 18.682,22.049 18.238,22.049 18.000 C 22.049 17.745,21.851 17.321,21.676 17.201 C 21.601 17.150,20.865 16.438,20.040 15.618 C 19.085 14.670,18.479 14.098,18.372 14.044 C 18.152 13.934,17.835 13.934,17.626 14.045 " stroke="none" fill-rule="evenodd" fill="black"></path></svg>