<svg width="24" height="24" viewBox="0 0 24 24" fill="none" xmlns="http://www.w3.org/2000/svg"><path d="M2.626 2.045 C 2.420 2.154,2.146 2.433,2.038 2.644 C 1.924 2.867,1.924 3.132,2.039 3.363 C 2.164 3.613,8.387 9.836,8.637 9.961 C 8.990 10.137,9.355 10.047,9.701 9.701 C 10.047 9.355,10.137 8.990,9.961 8.637 C 9.840 8.394,3.614 2.164,3.372 2.044 C 3.152 1.934,2.834 1.935,2.626 2.045 M18.219 1.999 L 15.658 2.020 15.459 2.122 C 15.119 2.297,14.978 2.606,15.009 3.104 C 15.038 3.563,15.250 3.852,15.635 3.959 C 15.719 3.983,16.365 4.000,17.180 4.000 L 18.580 4.000 10.354 12.230 C 4.396 18.191,2.103 20.509,2.039 20.637 C 1.864 20.990,1.953 21.355,2.299 21.701 C 2.645 22.047,3.010 22.136,3.363 21.961 C 3.491 21.897,5.809 19.604,11.770 13.646 L 20.000 5.420 20.000 6.820 C 20.000 7.635,20.017 8.281,20.041 8.365 C 20.148 8.750,20.437 8.962,20.896 8.991 C 21.381 9.022,21.699 8.882,21.880 8.558 L 21.980 8.380 22.007 5.720 C 22.022 4.257,22.036 3.001,22.037 2.929 C 22.041 2.743,21.834 2.310,21.696 2.212 C 21.467 2.052,21.198 1.960,20.985 1.969 C 20.872 1.974,19.627 1.988,18.219 1.999 M14.626 14.045 C 14.420 14.154,14.146 14.433,14.038 14.644 C 13.924 14.868,13.924 15.132,14.040 15.363 C 14.101 15.486,14.811 16.224,16.353 17.770 L 18.578 20.000 17.196 20.000 C 15.724 20.000,15.579 20.015,15.322 20.199 C 15.139 20.329,15.030 20.573,15.009 20.900 C 14.978 21.381,15.119 21.699,15.442 21.880 L 15.620 21.980 18.280 22.007 C 19.743 22.022,20.999 22.035,21.071 22.037 C 21.224 22.040,21.669 21.847,21.768 21.735 C 21.878 21.610,22.041 21.208,22.037 21.069 C 22.036 20.998,22.022 19.743,22.007 18.280 L 21.980 15.620 21.889 15.450 C 21.724 15.140,21.329 14.970,20.874 15.011 C 20.439 15.051,20.141 15.274,20.041 15.635 C 20.017 15.719,20.000 16.365,20.000 17.179 L 20.000 18.578 17.770 16.353 C 16.295 14.881,15.483 14.100,15.372 14.044 C 15.152 13.934,14.835 13.935,14.626 14.045 " stroke="none" fill-rule="evenodd" fill="black"></path></svg>