<svg version="1.1" xmlns="http://www.w3.org/2000/svg" width="32" height="32" viewBox="0 0 32 32"><path d="M12.560 0.128 C 11.910 0.335,11.977 0.273,6.976 5.272 C 2.235 10.010,2.190 10.057,1.994 10.472 C 1.819 10.842,1.794 10.950,1.772 11.409 C 1.753 11.799,1.769 12.005,1.838 12.243 C 1.971 12.705,2.218 13.136,2.498 13.397 C 2.633 13.523,4.772 15.644,7.252 18.109 C 10.622 21.460,11.828 22.627,12.031 22.734 C 12.814 23.146,13.766 23.139,14.564 22.714 C 15.806 22.052,16.219 20.290,15.415 19.088 C 15.328 18.959,13.613 17.210,11.603 15.201 L 7.948 11.548 11.670 7.814 C 14.449 5.026,15.428 4.011,15.535 3.809 C 16.010 2.904,15.908 1.811,15.265 0.930 C 15.064 0.654,14.593 0.340,14.139 0.180 C 13.734 0.037,12.931 0.010,12.560 0.128 M18.137 9.021 C 17.731 9.088,17.118 9.397,16.842 9.673 C 16.058 10.458,15.876 11.852,16.437 12.782 C 16.544 12.959,17.934 14.387,20.328 16.781 L 24.052 20.505 20.303 24.266 C 17.502 27.076,16.518 28.095,16.412 28.297 C 16.081 28.928,16.020 29.642,16.239 30.331 C 16.467 31.051,16.870 31.519,17.524 31.825 C 17.824 31.966,17.879 31.973,18.613 31.973 C 19.356 31.973,19.399 31.967,19.707 31.819 C 19.988 31.684,20.582 31.113,24.619 27.099 C 27.145 24.588,29.329 22.424,29.473 22.290 C 30.453 21.377,30.416 19.652,29.395 18.693 C 29.207 18.517,27.011 16.343,24.514 13.862 C 20.286 9.661,19.950 9.341,19.641 9.206 C 19.119 8.979,18.699 8.927,18.137 9.021 " stroke="none" fill-rule="evenodd" fill="black"></path></svg>