<svg width="24" height="24" viewBox="0 0 24 24" fill="none" xmlns="http://www.w3.org/2000/svg"><path d="M4.557 1.979 C 4.451 2.034,4.202 2.255,3.966 2.502 C 2.086 4.470,1.001 7.215,1.001 10.000 C 1.001 12.794,2.091 15.541,3.983 17.515 C 4.436 17.988,4.639 18.120,4.914 18.120 C 5.342 18.120,5.845 17.693,5.961 17.231 C 6.039 16.923,5.945 16.720,5.487 16.209 C 4.717 15.350,4.336 14.798,3.920 13.940 C 3.280 12.621,3.023 11.493,3.023 10.000 C 3.023 8.507,3.280 7.380,3.919 6.060 C 4.337 5.199,4.732 4.629,5.504 3.771 C 5.943 3.284,6.038 3.075,5.961 2.769 C 5.907 2.554,5.701 2.256,5.500 2.103 C 5.181 1.859,4.866 1.818,4.557 1.979 M18.730 1.959 C 18.519 2.054,18.203 2.367,18.101 2.580 C 18.004 2.782,18.002 3.096,18.096 3.275 C 18.135 3.348,18.324 3.582,18.515 3.795 C 19.263 4.622,19.665 5.204,20.080 6.060 C 20.720 7.379,20.977 8.507,20.977 10.000 C 20.977 11.455,20.725 12.592,20.122 13.860 C 19.717 14.712,19.283 15.351,18.565 16.150 C 18.093 16.676,18.025 16.791,18.025 17.060 C 18.025 17.317,18.127 17.529,18.369 17.772 C 18.707 18.112,19.079 18.205,19.426 18.037 C 19.781 17.865,20.776 16.712,21.338 15.820 C 21.626 15.362,22.112 14.376,22.299 13.867 C 23.231 11.335,23.231 8.665,22.299 6.133 C 22.112 5.624,21.626 4.638,21.338 4.180 C 20.767 3.274,19.812 2.168,19.434 1.977 C 19.202 1.859,18.963 1.853,18.730 1.959 M7.400 4.788 C 7.225 4.872,6.698 5.407,6.413 5.791 C 4.678 8.134,4.535 11.201,6.046 13.669 C 6.434 14.304,7.123 15.082,7.416 15.217 C 7.755 15.374,8.126 15.276,8.461 14.941 C 8.692 14.710,8.800 14.490,8.799 14.252 C 8.798 13.993,8.696 13.790,8.413 13.480 C 7.897 12.917,7.528 12.322,7.304 11.697 C 6.903 10.573,6.915 9.279,7.337 8.208 C 7.577 7.598,7.918 7.062,8.413 6.520 C 8.544 6.377,8.684 6.188,8.725 6.100 C 8.824 5.885,8.821 5.597,8.717 5.395 C 8.611 5.187,8.333 4.909,8.125 4.803 C 7.926 4.701,7.597 4.695,7.400 4.788 M15.866 4.805 C 15.663 4.912,15.386 5.192,15.283 5.395 C 15.179 5.597,15.176 5.885,15.275 6.100 C 15.316 6.188,15.456 6.377,15.587 6.520 C 15.951 6.919,16.174 7.229,16.394 7.642 C 16.737 8.286,16.889 8.791,16.964 9.530 C 17.110 10.974,16.637 12.329,15.587 13.480 C 15.304 13.790,15.202 13.993,15.201 14.252 C 15.200 14.490,15.308 14.710,15.539 14.941 C 15.874 15.276,16.245 15.374,16.584 15.217 C 16.772 15.131,17.233 14.669,17.555 14.246 C 19.474 11.726,19.474 8.274,17.555 5.754 C 17.239 5.339,16.773 4.870,16.594 4.787 C 16.394 4.695,16.059 4.703,15.866 4.805 M11.499 7.040 C 10.363 7.246,9.460 8.049,9.114 9.160 C 8.979 9.594,8.979 10.406,9.114 10.840 C 9.365 11.645,9.931 12.318,10.670 12.688 L 11.000 12.853 11.000 17.037 C 11.000 19.716,11.015 21.272,11.041 21.365 C 11.148 21.750,11.437 21.962,11.896 21.991 C 12.381 22.022,12.699 21.882,12.880 21.558 L 12.980 21.380 13.000 17.113 L 13.020 12.845 13.340 12.684 C 14.072 12.314,14.637 11.640,14.886 10.840 C 15.021 10.406,15.021 9.594,14.886 9.160 C 14.581 8.179,13.810 7.407,12.861 7.129 C 12.500 7.023,11.832 6.980,11.499 7.040 M12.310 9.061 C 12.688 9.173,13.000 9.598,13.000 10.001 C 13.000 10.331,12.784 10.696,12.484 10.872 C 12.328 10.963,12.254 10.980,12.000 10.980 C 11.746 10.980,11.672 10.963,11.516 10.872 C 10.932 10.528,10.831 9.775,11.307 9.299 C 11.582 9.024,11.918 8.944,12.310 9.061 " stroke="none" fill-rule="evenodd" fill="black"></path></svg>