<svg width="24" height="24" viewBox="0 0 24 24" fill="none" xmlns="http://www.w3.org/2000/svg"><path d="M4.557 3.979 C 4.185 4.173,3.222 5.291,2.662 6.180 C 2.374 6.638,1.888 7.624,1.701 8.133 C 0.769 10.665,0.769 13.335,1.701 15.867 C 1.888 16.376,2.374 17.362,2.662 17.820 C 3.224 18.712,4.219 19.865,4.574 20.037 C 4.924 20.206,5.299 20.110,5.635 19.765 C 5.879 19.515,5.975 19.314,5.975 19.060 C 5.975 18.795,5.901 18.666,5.485 18.205 C 4.737 17.378,4.335 16.796,3.920 15.940 C 3.280 14.621,3.023 13.493,3.023 12.000 C 3.023 10.507,3.280 9.379,3.920 8.060 C 4.335 7.204,4.737 6.622,5.485 5.795 C 5.901 5.334,5.975 5.205,5.975 4.940 C 5.975 4.683,5.873 4.471,5.631 4.228 C 5.283 3.879,4.914 3.793,4.557 3.979 M18.730 3.959 C 18.519 4.054,18.203 4.367,18.101 4.580 C 18.005 4.780,18.002 5.097,18.094 5.271 C 18.132 5.343,18.344 5.603,18.565 5.850 C 19.283 6.649,19.717 7.288,20.122 8.140 C 20.725 9.408,20.977 10.545,20.977 12.000 C 20.977 13.455,20.725 14.592,20.122 15.860 C 19.717 16.712,19.283 17.351,18.565 18.150 C 18.093 18.676,18.025 18.791,18.025 19.060 C 18.025 19.317,18.127 19.529,18.369 19.772 C 18.707 20.112,19.079 20.205,19.426 20.037 C 19.781 19.865,20.776 18.712,21.338 17.820 C 21.626 17.362,22.112 16.376,22.299 15.867 C 23.231 13.335,23.231 10.665,22.299 8.133 C 22.112 7.624,21.626 6.638,21.338 6.180 C 20.767 5.274,19.812 4.168,19.434 3.977 C 19.202 3.859,18.963 3.853,18.730 3.959 M7.400 6.788 C 7.225 6.872,6.698 7.407,6.413 7.791 C 4.678 10.134,4.535 13.201,6.046 15.669 C 6.434 16.304,7.123 17.082,7.416 17.217 C 7.755 17.374,8.126 17.276,8.461 16.941 C 8.692 16.710,8.800 16.490,8.799 16.252 C 8.798 15.993,8.696 15.790,8.413 15.480 C 8.053 15.087,7.786 14.714,7.585 14.325 C 7.252 13.681,7.106 13.183,7.034 12.449 C 6.894 11.010,7.366 9.664,8.413 8.520 C 8.544 8.377,8.684 8.188,8.725 8.100 C 8.824 7.885,8.821 7.597,8.717 7.395 C 8.611 7.187,8.333 6.909,8.125 6.803 C 7.926 6.701,7.597 6.695,7.400 6.788 M15.866 6.805 C 15.663 6.912,15.386 7.192,15.283 7.395 C 15.179 7.597,15.176 7.885,15.275 8.100 C 15.316 8.188,15.456 8.377,15.587 8.520 C 15.951 8.919,16.174 9.229,16.394 9.642 C 16.737 10.286,16.889 10.791,16.964 11.530 C 17.110 12.974,16.637 14.329,15.587 15.480 C 15.304 15.790,15.202 15.993,15.201 16.252 C 15.200 16.490,15.308 16.710,15.539 16.941 C 15.874 17.276,16.245 17.374,16.584 17.217 C 16.772 17.131,17.233 16.669,17.555 16.246 C 19.474 13.726,19.474 10.274,17.555 7.754 C 17.239 7.339,16.773 6.870,16.594 6.787 C 16.394 6.695,16.059 6.703,15.866 6.805 M11.499 9.040 C 10.363 9.246,9.460 10.049,9.114 11.160 C 8.979 11.594,8.979 12.406,9.114 12.840 C 9.421 13.826,10.174 14.579,11.160 14.886 C 11.594 15.021,12.406 15.021,12.840 14.886 C 13.826 14.579,14.579 13.826,14.886 12.840 C 15.021 12.406,15.021 11.594,14.886 11.160 C 14.581 10.179,13.810 9.407,12.861 9.129 C 12.500 9.023,11.832 8.980,11.499 9.040 M12.310 11.061 C 12.688 11.173,13.000 11.598,13.000 12.001 C 13.000 12.331,12.784 12.696,12.484 12.872 C 12.328 12.963,12.254 12.980,12.000 12.980 C 11.746 12.980,11.672 12.963,11.516 12.872 C 10.935 12.530,10.833 11.774,11.304 11.303 C 11.583 11.024,11.916 10.944,12.310 11.061 " stroke="none" fill-rule="evenodd" fill="black"></path></svg>