<svg width="24" height="24" viewBox="0 0 24 24" fill="none" xmlns="http://www.w3.org/2000/svg"><path d="M11.052 1.041 C 8.937 1.246,7.045 1.974,5.363 3.230 C 5.084 3.438,4.636 3.839,4.238 4.238 C 3.277 5.198,2.707 5.987,2.141 7.140 C 1.667 8.104,1.362 9.022,1.180 10.038 C 0.826 12.006,1.001 13.965,1.701 15.867 C 1.888 16.376,2.374 17.362,2.662 17.820 C 3.224 18.712,4.219 19.865,4.574 20.037 C 4.924 20.206,5.299 20.110,5.635 19.765 C 5.879 19.515,5.975 19.314,5.975 19.060 C 5.975 18.795,5.901 18.666,5.485 18.205 C 4.737 17.378,4.335 16.796,3.920 15.940 C 3.280 14.621,3.023 13.493,3.023 12.000 C 3.023 10.507,3.280 9.379,3.920 8.060 C 4.799 6.247,6.247 4.799,8.060 3.920 C 9.379 3.280,10.507 3.023,12.000 3.023 C 13.493 3.023,14.621 3.280,15.940 3.920 C 17.756 4.800,19.189 6.234,20.079 8.060 C 20.719 9.372,20.977 10.504,20.977 12.000 C 20.977 13.455,20.725 14.592,20.122 15.860 C 19.717 16.712,19.283 17.351,18.565 18.150 C 18.093 18.676,18.025 18.791,18.025 19.060 C 18.025 19.317,18.127 19.529,18.369 19.772 C 18.707 20.112,19.079 20.205,19.426 20.037 C 19.781 19.865,20.776 18.712,21.338 17.820 C 21.626 17.362,22.112 16.376,22.299 15.867 C 23.231 13.335,23.231 10.665,22.299 8.133 C 22.112 7.624,21.626 6.638,21.338 6.180 C 20.598 5.006,19.481 3.827,18.336 3.011 C 16.973 2.040,15.296 1.373,13.580 1.120 C 12.938 1.025,11.634 0.984,11.052 1.041 M11.540 5.023 C 10.478 5.125,9.867 5.284,9.020 5.680 C 8.259 6.035,7.663 6.457,7.039 7.081 C 4.761 9.359,4.352 12.902,6.046 15.669 C 6.434 16.304,7.123 17.082,7.416 17.217 C 7.755 17.374,8.126 17.276,8.461 16.941 C 8.692 16.710,8.800 16.490,8.799 16.252 C 8.798 15.993,8.696 15.790,8.413 15.480 C 8.053 15.087,7.786 14.714,7.585 14.325 C 7.252 13.681,7.106 13.183,7.034 12.449 C 6.939 11.473,7.123 10.556,7.597 9.655 C 8.529 7.882,10.478 6.834,12.470 7.036 C 13.209 7.111,13.714 7.263,14.358 7.606 C 15.235 8.074,15.927 8.765,16.395 9.644 C 16.737 10.286,16.890 10.791,16.964 11.530 C 17.110 12.974,16.637 14.329,15.587 15.480 C 15.304 15.790,15.202 15.993,15.201 16.252 C 15.200 16.490,15.308 16.710,15.539 16.941 C 15.874 17.276,16.245 17.374,16.584 17.217 C 16.772 17.131,17.233 16.669,17.555 16.246 C 19.688 13.444,19.424 9.529,16.935 7.054 C 15.869 5.996,14.536 5.315,13.102 5.098 C 12.726 5.041,11.813 4.997,11.540 5.023 M11.499 9.040 C 10.363 9.246,9.460 10.049,9.114 11.160 C 8.979 11.594,8.979 12.406,9.114 12.840 C 9.350 13.598,9.918 14.311,10.393 14.444 C 10.710 14.533,11.120 14.353,11.397 14.004 C 11.746 13.563,11.717 13.203,11.291 12.698 C 11.011 12.366,10.945 12.078,11.061 11.690 C 11.173 11.312,11.598 11.000,12.000 11.000 C 12.517 11.000,13.000 11.483,13.000 12.000 C 13.000 12.220,12.881 12.502,12.700 12.707 C 12.284 13.181,12.256 13.565,12.603 14.004 C 12.880 14.353,13.290 14.533,13.607 14.444 C 14.082 14.311,14.650 13.598,14.886 12.840 C 15.021 12.406,15.021 11.594,14.886 11.160 C 14.581 10.179,13.810 9.407,12.861 9.129 C 12.500 9.023,11.832 8.980,11.499 9.040 " stroke="none" fill-rule="evenodd" fill="black"></path></svg>