<svg width="24" height="24" viewBox="0 0 24 24" fill="none" xmlns="http://www.w3.org/2000/svg"><path d="M18.614 4.057 C 18.377 4.131,18.212 4.261,18.109 4.453 L 18.020 4.620 18.010 11.914 C 18.003 16.725,18.013 19.259,18.039 19.358 C 18.144 19.747,18.434 19.962,18.896 19.991 C 19.381 20.022,19.699 19.882,19.880 19.558 L 19.980 19.380 19.980 12.000 L 19.980 4.620 19.891 4.453 C 19.842 4.362,19.746 4.247,19.678 4.199 C 19.414 4.010,18.957 3.950,18.614 4.057 M5.680 4.108 C 5.273 4.176,4.829 4.415,4.544 4.720 C 4.328 4.950,4.195 5.215,4.092 5.620 C 4.024 5.883,4.020 6.265,4.020 11.980 C 4.020 17.706,4.024 18.078,4.092 18.368 C 4.132 18.538,4.218 18.784,4.284 18.916 C 4.506 19.360,5.057 19.764,5.592 19.876 C 6.164 19.995,6.664 19.855,7.323 19.392 C 7.834 19.034,14.569 13.624,14.791 13.395 C 15.243 12.927,15.376 12.608,15.375 12.000 C 15.373 11.381,15.246 11.077,14.791 10.605 C 14.570 10.377,7.829 4.963,7.320 4.605 C 6.716 4.182,6.191 4.022,5.680 4.108 M6.300 6.335 C 6.859 6.757,13.360 11.974,13.360 12.000 C 13.360 12.027,6.783 17.304,6.261 17.696 C 6.083 17.829,6.060 17.837,6.034 17.772 C 6.000 17.685,5.991 6.378,6.025 6.250 C 6.052 6.152,6.063 6.156,6.300 6.335 " stroke="none" fill-rule="evenodd" fill="black"></path></svg>