<svg width="24" height="24" viewBox="0 0 24 24" fill="none" xmlns="http://www.w3.org/2000/svg"><path d="M4.614 4.057 C 4.377 4.131,4.212 4.261,4.109 4.453 L 4.020 4.620 4.010 11.914 C 4.003 16.725,4.013 19.259,4.039 19.358 C 4.144 19.747,4.434 19.962,4.896 19.991 C 5.381 20.022,5.699 19.882,5.880 19.558 L 5.980 19.380 5.980 12.000 L 5.980 4.620 5.891 4.453 C 5.842 4.362,5.746 4.247,5.678 4.199 C 5.414 4.010,4.957 3.950,4.614 4.057 M17.640 4.133 C 17.348 4.201,17.038 4.354,16.677 4.608 C 16.214 4.933,9.444 10.362,9.226 10.583 C 8.768 11.047,8.626 11.382,8.626 12.000 C 8.626 12.618,8.768 12.952,9.226 13.417 C 9.443 13.637,16.215 19.068,16.678 19.393 C 17.364 19.875,17.877 20.009,18.462 19.859 C 18.819 19.767,19.097 19.617,19.360 19.373 C 19.638 19.116,19.803 18.812,19.908 18.368 C 19.976 18.078,19.980 17.706,19.980 11.980 C 19.980 6.265,19.976 5.883,19.908 5.620 C 19.807 5.225,19.675 4.956,19.474 4.737 C 19.016 4.238,18.258 3.988,17.640 4.133 M17.992 12.000 C 17.992 15.113,17.980 17.702,17.966 17.753 C 17.940 17.846,17.939 17.846,17.740 17.696 C 17.219 17.306,10.640 12.027,10.640 12.000 C 10.640 11.973,17.219 6.694,17.740 6.304 C 17.939 6.154,17.940 6.154,17.966 6.247 C 17.980 6.298,17.992 8.887,17.992 12.000 " stroke="none" fill-rule="evenodd" fill="black"></path></svg>