<svg width="24" height="24" viewBox="0 0 24 24" fill="none" xmlns="http://www.w3.org/2000/svg"><path d="M4.614 2.057 C 4.377 2.131,4.212 2.261,4.109 2.453 C 4.020 2.619,4.020 2.629,4.009 4.911 C 4.001 6.392,4.012 7.256,4.039 7.355 C 4.144 7.747,4.433 7.961,4.896 7.991 C 5.381 8.022,5.699 7.882,5.880 7.558 L 5.980 7.380 5.980 5.000 L 5.980 2.620 5.891 2.453 C 5.842 2.362,5.746 2.247,5.678 2.199 C 5.414 2.010,4.957 1.950,4.614 2.057 M11.614 2.057 C 11.377 2.131,11.212 2.261,11.109 2.453 C 11.022 2.617,11.020 2.656,11.000 4.387 L 10.980 6.153 10.660 6.317 C 9.919 6.698,9.363 7.360,9.114 8.160 C 8.979 8.594,8.979 9.406,9.114 9.840 C 9.421 10.826,10.174 11.579,11.160 11.886 C 11.412 11.964,11.547 11.979,12.000 11.979 C 12.453 11.979,12.588 11.964,12.840 11.886 C 13.826 11.579,14.579 10.826,14.886 9.840 C 15.021 9.406,15.021 8.594,14.886 8.160 C 14.637 7.360,14.081 6.698,13.340 6.317 L 13.020 6.153 13.000 4.387 C 12.980 2.656,12.978 2.617,12.891 2.453 C 12.842 2.362,12.746 2.247,12.678 2.199 C 12.414 2.010,11.957 1.950,11.614 2.057 M18.614 2.057 C 18.377 2.131,18.212 2.261,18.109 2.453 L 18.020 2.620 18.009 5.912 C 18.002 8.060,18.012 9.257,18.039 9.356 C 18.144 9.747,18.434 9.961,18.896 9.991 C 19.381 10.022,19.699 9.882,19.880 9.558 L 19.980 9.380 19.980 6.000 L 19.980 2.620 19.891 2.453 C 19.842 2.362,19.746 2.247,19.678 2.199 C 19.414 2.010,18.957 1.950,18.614 2.057 M12.310 8.061 C 12.688 8.173,13.000 8.598,13.000 9.001 C 13.000 9.331,12.784 9.696,12.484 9.872 C 12.328 9.963,12.254 9.980,12.000 9.980 C 11.746 9.980,11.672 9.963,11.516 9.872 C 10.935 9.530,10.833 8.774,11.304 8.303 C 11.583 8.024,11.916 7.944,12.310 8.061 M4.499 10.040 C 3.363 10.246,2.460 11.049,2.114 12.160 C 1.979 12.594,1.979 13.406,2.114 13.840 C 2.365 14.645,2.931 15.318,3.670 15.688 L 4.000 15.853 4.000 18.537 C 4.000 20.211,4.016 21.274,4.041 21.365 C 4.148 21.750,4.437 21.962,4.896 21.991 C 5.381 22.022,5.699 21.882,5.880 21.558 L 5.980 21.380 6.000 18.613 L 6.020 15.845 6.340 15.684 C 7.072 15.314,7.637 14.640,7.886 13.840 C 8.021 13.406,8.021 12.594,7.886 12.160 C 7.581 11.179,6.810 10.407,5.861 10.129 C 5.500 10.023,4.832 9.980,4.499 10.040 M5.310 12.061 C 5.688 12.173,6.000 12.598,6.000 13.001 C 6.000 13.331,5.784 13.696,5.484 13.872 C 5.328 13.963,5.254 13.980,5.000 13.980 C 4.746 13.980,4.672 13.963,4.516 13.872 C 3.935 13.530,3.833 12.774,4.304 12.303 C 4.583 12.024,4.916 11.944,5.310 12.061 M18.499 12.040 C 17.363 12.246,16.460 13.049,16.114 14.160 C 15.979 14.594,15.979 15.406,16.114 15.840 C 16.365 16.645,16.931 17.318,17.670 17.688 L 18.000 17.853 18.000 19.537 C 18.000 20.541,18.017 21.278,18.041 21.365 C 18.148 21.750,18.437 21.962,18.896 21.991 C 19.381 22.022,19.699 21.882,19.880 21.558 L 19.980 21.380 20.000 19.613 L 20.020 17.845 20.340 17.684 C 21.072 17.314,21.637 16.640,21.886 15.840 C 22.021 15.406,22.021 14.594,21.886 14.160 C 21.581 13.179,20.810 12.407,19.861 12.129 C 19.500 12.023,18.832 11.980,18.499 12.040 M11.614 14.057 C 11.377 14.131,11.212 14.261,11.109 14.453 L 11.020 14.620 11.009 17.912 C 11.002 20.060,11.012 21.257,11.039 21.356 C 11.144 21.747,11.434 21.961,11.896 21.991 C 12.381 22.022,12.699 21.882,12.880 21.558 L 12.980 21.380 12.980 18.000 L 12.980 14.620 12.891 14.453 C 12.842 14.362,12.746 14.247,12.678 14.199 C 12.414 14.010,11.957 13.950,11.614 14.057 M19.310 14.061 C 19.688 14.173,20.000 14.598,20.000 15.001 C 20.000 15.331,19.784 15.696,19.484 15.872 C 19.328 15.963,19.254 15.980,19.000 15.980 C 18.746 15.980,18.672 15.963,18.516 15.872 C 17.935 15.530,17.833 14.774,18.304 14.303 C 18.583 14.024,18.916 13.944,19.310 14.061 " stroke="none" fill-rule="evenodd" fill="black"></path></svg>