<svg width="24" height="24" viewBox="0 0 24 24" fill="none" xmlns="http://www.w3.org/2000/svg"><path d="M4.614 2.057 C 4.377 2.131,4.212 2.261,4.109 2.453 L 4.020 2.620 4.009 6.413 C 4.002 8.894,4.012 10.258,4.039 10.357 C 4.144 10.747,4.434 10.961,4.896 10.991 C 5.381 11.022,5.699 10.882,5.880 10.558 L 5.980 10.380 5.980 6.500 L 5.980 2.620 5.891 2.453 C 5.842 2.362,5.746 2.247,5.678 2.199 C 5.414 2.010,4.957 1.950,4.614 2.057 M11.614 2.057 C 11.377 2.131,11.212 2.261,11.109 2.453 C 11.021 2.619,11.020 2.633,11.009 4.810 L 10.997 7.000 9.905 7.000 C 8.744 7.000,8.570 7.022,8.322 7.199 C 8.100 7.357,8.020 7.568,8.020 8.000 C 8.020 8.331,8.033 8.403,8.120 8.558 C 8.230 8.755,8.414 8.898,8.635 8.959 C 8.832 9.014,15.168 9.014,15.365 8.959 C 15.586 8.898,15.770 8.755,15.880 8.558 C 15.967 8.402,15.980 8.332,15.979 8.000 C 15.978 7.567,15.898 7.355,15.678 7.199 C 15.430 7.022,15.256 7.000,14.095 7.000 L 13.003 7.000 12.992 4.810 C 12.980 2.633,12.979 2.619,12.891 2.453 C 12.842 2.362,12.746 2.247,12.678 2.199 C 12.414 2.010,11.957 1.950,11.614 2.057 M18.614 2.057 C 18.377 2.131,18.212 2.261,18.109 2.453 L 18.020 2.620 18.009 7.413 C 18.002 10.560,18.013 12.258,18.039 12.357 C 18.144 12.747,18.434 12.961,18.896 12.991 C 19.381 13.022,19.699 12.882,19.880 12.558 L 19.980 12.380 19.980 7.500 L 19.980 2.620 19.891 2.453 C 19.842 2.362,19.746 2.247,19.678 2.199 C 19.414 2.010,18.957 1.950,18.614 2.057 M11.614 11.057 C 11.377 11.131,11.212 11.261,11.109 11.453 L 11.020 11.620 11.009 16.413 C 11.002 19.560,11.013 21.258,11.039 21.357 C 11.144 21.747,11.434 21.961,11.896 21.991 C 12.381 22.022,12.699 21.882,12.880 21.558 L 12.980 21.380 12.980 16.500 L 12.980 11.620 12.891 11.453 C 12.842 11.362,12.746 11.247,12.678 11.199 C 12.414 11.010,11.957 10.950,11.614 11.057 M1.614 13.057 C 1.377 13.131,1.212 13.261,1.109 13.453 C 1.035 13.592,1.020 13.684,1.020 14.000 C 1.020 14.331,1.033 14.403,1.120 14.558 C 1.230 14.755,1.414 14.898,1.635 14.959 C 1.716 14.982,2.270 15.000,2.890 15.000 L 4.000 15.000 4.000 18.110 C 4.000 20.070,4.015 21.274,4.041 21.365 C 4.148 21.750,4.437 21.962,4.896 21.991 C 5.381 22.022,5.699 21.882,5.880 21.558 L 5.980 21.380 5.991 18.190 L 6.002 15.000 7.111 15.000 C 7.731 15.000,8.284 14.982,8.365 14.959 C 8.586 14.898,8.770 14.755,8.880 14.558 C 8.967 14.402,8.980 14.332,8.979 14.000 C 8.978 13.567,8.898 13.355,8.678 13.199 C 8.398 12.999,8.411 13.000,4.984 13.003 C 2.472 13.005,1.744 13.017,1.614 13.057 M15.614 15.057 C 15.377 15.131,15.212 15.261,15.109 15.453 C 15.035 15.592,15.020 15.684,15.020 16.000 C 15.020 16.331,15.033 16.403,15.120 16.558 C 15.230 16.755,15.414 16.898,15.635 16.959 C 15.716 16.982,16.270 17.000,16.890 17.000 L 18.000 17.000 18.000 19.110 C 18.000 20.400,18.016 21.276,18.041 21.365 C 18.148 21.750,18.437 21.962,18.896 21.991 C 19.381 22.022,19.699 21.882,19.880 21.558 L 19.980 21.380 19.992 19.190 L 20.003 17.000 21.112 17.000 C 21.731 17.000,22.284 16.982,22.365 16.959 C 22.586 16.898,22.770 16.755,22.880 16.558 C 22.967 16.402,22.980 16.332,22.979 16.000 C 22.978 15.567,22.898 15.355,22.678 15.199 C 22.398 14.999,22.411 15.000,18.984 15.003 C 16.472 15.005,15.744 15.017,15.614 15.057 " stroke="none" fill-rule="evenodd" fill="black"></path></svg>