<svg width="24" height="24" viewBox="0 0 24 24" fill="none" xmlns="http://www.w3.org/2000/svg"><path d="M16.900 2.045 C 16.248 2.127,15.434 2.445,14.931 2.815 L 14.683 2.998 9.811 3.009 C 4.957 3.021,4.939 3.021,4.636 3.107 C 3.389 3.462,2.507 4.322,2.133 5.548 C 2.038 5.863,2.026 5.963,2.026 6.500 C 2.026 7.037,2.038 7.137,2.133 7.452 C 2.500 8.655,3.333 9.489,4.548 9.870 L 4.900 9.980 9.800 10.000 L 14.700 10.020 14.980 10.216 C 15.754 10.758,16.741 11.036,17.717 10.988 C 20.028 10.875,21.875 9.028,21.988 6.717 C 22.126 3.921,19.702 1.695,16.900 2.045 M18.020 4.060 C 18.741 4.211,19.395 4.713,19.715 5.362 C 20.087 6.118,20.090 6.878,19.723 7.620 C 19.439 8.195,18.932 8.646,18.320 8.868 C 18.052 8.965,17.965 8.976,17.500 8.976 C 17.034 8.976,16.949 8.965,16.681 8.867 C 16.317 8.735,16.124 8.613,15.855 8.344 C 15.743 8.232,15.602 8.095,15.543 8.040 C 15.389 7.896,15.128 7.347,15.060 7.020 C 14.918 6.343,15.057 5.654,15.452 5.070 C 15.522 4.966,15.601 4.880,15.628 4.880 C 15.654 4.880,15.762 4.780,15.868 4.657 C 16.309 4.145,17.220 3.893,18.020 4.060 M13.224 5.090 C 13.044 5.720,13.023 5.870,13.023 6.500 C 13.023 7.130,13.044 7.279,13.224 7.911 L 13.250 8.001 9.195 7.991 L 5.140 7.980 4.900 7.868 C 4.583 7.720,4.275 7.413,4.135 7.104 C 4.040 6.896,4.024 6.808,4.024 6.500 C 4.023 6.191,4.039 6.106,4.134 5.900 C 4.328 5.477,4.755 5.124,5.174 5.042 C 5.265 5.024,7.120 5.007,9.295 5.004 L 13.249 5.000 13.224 5.090 M5.900 13.045 C 5.211 13.131,4.422 13.450,3.857 13.871 C 2.610 14.799,1.937 16.202,2.012 17.717 C 2.125 20.028,3.972 21.875,6.283 21.988 C 7.261 22.036,8.184 21.777,9.022 21.220 L 9.352 21.000 14.066 21.000 C 17.078 21.000,18.871 20.985,19.031 20.959 C 19.429 20.894,19.872 20.737,20.240 20.531 C 20.709 20.268,21.268 19.709,21.531 19.240 C 22.666 17.214,21.631 14.749,19.378 14.111 L 19.060 14.021 14.189 14.009 L 9.317 13.998 9.069 13.815 C 8.229 13.197,7.026 12.904,5.900 13.045 M7.019 15.060 C 7.505 15.163,7.822 15.345,8.237 15.757 C 8.526 16.044,8.635 16.185,8.743 16.413 C 9.086 17.135,9.079 17.901,8.723 18.620 C 8.636 18.796,8.516 18.985,8.457 19.040 C 8.398 19.095,8.257 19.232,8.145 19.344 C 7.876 19.613,7.683 19.735,7.319 19.867 C 7.051 19.965,6.966 19.976,6.500 19.976 C 6.035 19.976,5.948 19.965,5.680 19.868 C 4.495 19.438,3.803 18.206,4.060 16.980 C 4.339 15.645,5.678 14.776,7.019 15.060 M19.100 16.132 C 19.417 16.280,19.725 16.587,19.865 16.896 C 19.960 17.105,19.976 17.192,19.976 17.500 C 19.976 17.808,19.960 17.895,19.865 18.104 C 19.725 18.413,19.417 18.720,19.100 18.868 L 18.860 18.980 14.805 18.991 L 10.750 19.001 10.776 18.911 C 10.956 18.279,10.977 18.130,10.977 17.500 C 10.977 16.870,10.956 16.721,10.776 16.089 L 10.750 15.998 14.805 16.009 L 18.860 16.020 19.100 16.132 " stroke="none" fill-rule="evenodd" fill="black"></path></svg>