<svg width="24" height="24" viewBox="0 0 24 24" fill="none" xmlns="http://www.w3.org/2000/svg"><path d="M8.626 1.045 C 8.420 1.154,8.146 1.433,8.038 1.644 C 7.924 1.868,7.924 2.133,8.040 2.363 C 8.100 2.481,8.603 3.016,9.565 3.981 L 11.000 5.422 11.000 7.831 C 11.000 9.156,10.989 10.240,10.975 10.240 C 10.909 10.240,6.832 7.859,6.802 7.804 C 6.784 7.769,6.577 7.020,6.342 6.140 C 5.755 3.936,5.734 3.871,5.566 3.675 C 5.391 3.469,5.228 3.400,4.931 3.401 C 4.502 3.404,4.076 3.611,3.915 3.897 C 3.760 4.173,3.792 4.372,4.273 6.160 C 4.513 7.051,4.706 7.784,4.702 7.789 C 4.698 7.794,3.985 7.988,3.118 8.219 C 2.250 8.451,1.457 8.678,1.354 8.725 C 0.989 8.892,0.826 9.126,0.829 9.483 C 0.834 9.933,1.065 10.387,1.370 10.545 C 1.619 10.674,1.847 10.633,3.840 10.098 C 4.885 9.817,5.758 9.588,5.780 9.588 C 5.832 9.587,9.960 11.972,9.960 12.002 C 9.960 12.044,5.822 14.415,5.760 14.410 C 5.727 14.407,4.890 14.186,3.900 13.918 C 2.061 13.422,1.693 13.350,1.427 13.438 C 0.970 13.589,0.669 14.465,0.921 14.913 C 1.106 15.242,1.136 15.254,3.259 15.821 C 4.051 16.032,4.701 16.208,4.704 16.212 C 4.707 16.217,4.513 16.949,4.273 17.840 C 3.792 19.628,3.760 19.827,3.915 20.103 C 4.076 20.389,4.515 20.605,4.942 20.607 C 5.235 20.609,5.380 20.543,5.570 20.320 C 5.734 20.129,5.736 20.124,6.338 17.875 C 6.585 16.952,6.804 16.180,6.824 16.160 C 6.862 16.122,10.865 13.804,10.950 13.771 C 10.990 13.755,11.000 14.250,11.000 16.164 L 11.000 18.578 9.565 20.019 C 8.603 20.984,8.100 21.519,8.040 21.637 C 7.863 21.989,7.952 22.354,8.299 22.701 C 8.646 23.048,9.011 23.137,9.363 22.960 C 9.479 22.901,9.961 22.452,10.770 21.647 L 12.000 20.423 13.230 21.647 C 14.039 22.452,14.521 22.901,14.637 22.960 C 14.989 23.137,15.354 23.048,15.701 22.701 C 16.048 22.354,16.137 21.989,15.960 21.637 C 15.900 21.519,15.397 20.984,14.435 20.019 L 13.000 18.578 13.000 16.164 C 13.000 14.250,13.010 13.755,13.050 13.771 C 13.135 13.804,17.138 16.122,17.176 16.160 C 17.196 16.180,17.415 16.952,17.662 17.875 C 18.264 20.124,18.266 20.129,18.430 20.320 C 18.620 20.542,18.766 20.609,19.057 20.608 C 19.495 20.605,19.949 20.370,20.109 20.064 C 20.234 19.823,20.187 19.553,19.726 17.840 C 19.486 16.949,19.292 16.217,19.295 16.213 C 19.298 16.209,20.012 16.015,20.880 15.782 C 21.749 15.549,22.514 15.338,22.580 15.314 C 22.797 15.232,22.984 15.082,23.079 14.913 C 23.331 14.465,23.030 13.589,22.573 13.438 C 22.307 13.350,21.939 13.422,20.100 13.918 C 19.110 14.186,18.273 14.407,18.240 14.410 C 18.178 14.415,14.040 12.044,14.040 12.002 C 14.040 11.972,18.168 9.587,18.220 9.588 C 18.242 9.588,19.115 9.817,20.160 10.098 C 22.153 10.633,22.381 10.674,22.630 10.545 C 22.935 10.387,23.166 9.933,23.171 9.483 C 23.174 9.126,23.011 8.892,22.646 8.725 C 22.543 8.678,21.750 8.451,20.882 8.219 C 20.015 7.988,19.301 7.794,19.297 7.789 C 19.293 7.784,19.486 7.051,19.726 6.160 C 20.208 4.372,20.239 4.172,20.085 3.897 C 19.924 3.611,19.498 3.404,19.069 3.401 C 18.772 3.400,18.609 3.469,18.434 3.675 C 18.266 3.871,18.245 3.936,17.658 6.140 C 17.423 7.020,17.216 7.768,17.198 7.803 C 17.169 7.858,13.091 10.240,13.026 10.240 C 13.012 10.240,13.000 9.156,13.000 7.831 L 13.000 5.422 14.435 3.981 C 15.397 3.016,15.900 2.481,15.960 2.363 C 16.137 2.011,16.048 1.646,15.701 1.299 C 15.361 0.958,14.980 0.868,14.628 1.045 C 14.523 1.098,13.999 1.588,13.230 2.353 L 12.000 3.577 10.770 2.353 C 10.001 1.588,9.477 1.098,9.372 1.045 C 9.152 0.934,8.835 0.934,8.626 1.045 " stroke="none" fill-rule="evenodd" fill="black"></path></svg>