<svg width="24" height="24" viewBox="0 0 24 24" fill="none" xmlns="http://www.w3.org/2000/svg"><path d="M11.614 1.057 C 11.377 1.131,11.212 1.261,11.109 1.453 C 11.021 1.618,11.020 1.640,11.009 3.598 L 10.997 5.575 9.269 3.852 C 8.147 2.734,7.481 2.099,7.372 2.044 C 7.020 1.868,6.639 1.959,6.299 2.299 C 5.952 2.646,5.863 3.010,6.040 3.363 C 6.101 3.486,6.866 4.279,8.564 5.981 L 11.000 8.421 11.000 9.711 L 11.000 11.000 9.711 11.000 L 8.421 11.000 5.981 8.564 C 4.357 6.943,3.484 6.100,3.372 6.044 C 3.020 5.868,2.639 5.959,2.299 6.299 C 1.952 6.646,1.863 7.011,2.040 7.363 C 2.100 7.483,2.679 8.092,3.853 9.270 L 5.578 11.000 3.695 11.000 C 1.689 11.000,1.589 11.008,1.322 11.199 C 1.100 11.357,1.020 11.568,1.020 12.000 C 1.020 12.331,1.033 12.403,1.120 12.558 C 1.230 12.755,1.414 12.898,1.635 12.959 C 1.723 12.984,2.530 13.000,3.679 13.000 L 5.578 13.000 3.853 14.730 C 2.679 15.908,2.100 16.517,2.040 16.637 C 1.863 16.989,1.952 17.354,2.299 17.701 C 2.646 18.048,3.010 18.137,3.363 17.960 C 3.486 17.899,4.279 17.134,5.981 15.436 L 8.421 13.000 9.711 13.000 L 11.000 13.000 11.000 14.289 L 11.000 15.579 8.564 18.019 C 6.866 19.721,6.101 20.514,6.040 20.637 C 5.863 20.990,5.952 21.354,6.299 21.701 C 6.646 22.048,7.011 22.137,7.363 21.960 C 7.483 21.900,8.092 21.321,9.270 20.147 L 11.000 18.422 11.000 20.321 C 11.000 21.470,11.016 22.277,11.041 22.365 C 11.148 22.750,11.437 22.962,11.896 22.991 C 12.381 23.022,12.699 22.882,12.880 22.558 L 12.980 22.380 12.992 20.403 L 13.004 18.426 14.732 20.148 C 15.908 21.321,16.517 21.900,16.637 21.960 C 16.989 22.137,17.354 22.048,17.701 21.701 C 18.048 21.354,18.137 20.990,17.960 20.637 C 17.899 20.514,17.134 19.721,15.436 18.019 L 13.000 15.579 13.000 14.289 L 13.000 13.000 14.289 13.000 L 15.579 13.000 18.019 15.436 C 19.721 17.134,20.514 17.899,20.637 17.960 C 20.990 18.137,21.354 18.048,21.701 17.701 C 22.048 17.354,22.137 16.989,21.960 16.637 C 21.900 16.517,21.321 15.908,20.147 14.730 L 18.422 13.000 20.321 13.000 C 21.470 13.000,22.277 12.984,22.365 12.959 C 22.586 12.898,22.770 12.755,22.880 12.558 C 22.967 12.402,22.980 12.332,22.979 12.000 C 22.978 11.567,22.898 11.355,22.678 11.199 C 22.411 11.008,22.311 11.000,20.305 11.000 L 18.422 11.000 20.147 9.270 C 21.321 8.092,21.900 7.483,21.960 7.363 C 22.137 7.011,22.048 6.646,21.701 6.299 C 21.361 5.959,20.980 5.868,20.628 6.044 C 20.516 6.100,19.643 6.943,18.019 8.564 L 15.579 11.000 14.289 11.000 L 13.000 11.000 13.000 9.711 L 13.000 8.421 15.436 5.981 C 17.134 4.279,17.899 3.486,17.960 3.363 C 18.137 3.010,18.048 2.646,17.701 2.299 C 17.361 1.959,16.980 1.868,16.628 2.044 C 16.519 2.099,15.853 2.734,14.732 3.852 L 13.004 5.574 12.992 3.597 C 12.980 1.640,12.979 1.618,12.891 1.453 C 12.842 1.362,12.746 1.247,12.678 1.199 C 12.414 1.010,11.957 0.950,11.614 1.057 " stroke="none" fill-rule="evenodd" fill="black"></path></svg>