<svg width="24" height="24" viewBox="0 0 24 24" fill="none" xmlns="http://www.w3.org/2000/svg"><path d="M2.614 2.057 C 2.377 2.131,2.212 2.261,2.109 2.453 C 2.035 2.592,2.020 2.684,2.020 3.000 C 2.020 3.331,2.033 3.403,2.120 3.558 C 2.230 3.755,2.414 3.898,2.635 3.959 C 2.835 4.015,21.165 4.015,21.365 3.959 C 21.586 3.898,21.770 3.755,21.880 3.558 C 21.967 3.402,21.980 3.332,21.979 3.000 C 21.978 2.567,21.898 2.355,21.678 2.199 C 21.385 1.990,21.877 2.000,11.984 2.003 C 4.546 2.005,2.748 2.015,2.614 2.057 M11.520 5.083 C 11.399 5.149,11.246 5.255,11.180 5.317 C 11.114 5.379,10.439 5.844,9.679 6.349 C 8.362 7.226,8.081 7.446,7.997 7.667 C 7.846 8.064,8.162 8.736,8.606 8.963 C 8.797 9.061,9.090 9.061,9.303 8.964 C 9.392 8.924,9.806 8.663,10.223 8.385 L 10.980 7.880 10.990 9.940 C 10.996 11.073,10.996 12.927,10.990 14.060 L 10.980 16.120 10.223 15.615 C 9.806 15.337,9.392 15.076,9.303 15.036 C 9.090 14.939,8.797 14.939,8.606 15.037 C 8.162 15.264,7.846 15.936,7.997 16.333 C 8.082 16.554,8.364 16.776,9.719 17.680 C 10.501 18.202,11.176 18.669,11.220 18.719 C 11.374 18.891,11.735 19.040,12.000 19.040 C 12.265 19.040,12.626 18.891,12.780 18.719 C 12.824 18.669,13.499 18.202,14.281 17.680 C 15.636 16.776,15.918 16.554,16.003 16.333 C 16.154 15.936,15.838 15.264,15.394 15.037 C 15.203 14.939,14.910 14.939,14.697 15.036 C 14.608 15.076,14.194 15.337,13.777 15.615 L 13.020 16.120 13.010 14.060 C 13.004 12.927,13.004 11.073,13.010 9.940 L 13.020 7.880 13.777 8.385 C 14.194 8.663,14.608 8.924,14.697 8.964 C 14.910 9.061,15.203 9.061,15.394 8.963 C 15.838 8.736,16.154 8.064,16.003 7.667 C 15.919 7.446,15.638 7.226,14.321 6.348 C 13.561 5.842,12.873 5.369,12.791 5.296 C 12.389 4.936,11.927 4.859,11.520 5.083 M2.614 20.057 C 2.377 20.131,2.212 20.261,2.109 20.453 C 2.035 20.592,2.020 20.684,2.020 21.000 C 2.020 21.331,2.033 21.403,2.120 21.558 C 2.230 21.755,2.414 21.898,2.635 21.959 C 2.835 22.015,21.165 22.015,21.365 21.959 C 21.586 21.898,21.770 21.755,21.880 21.558 C 21.967 21.402,21.980 21.332,21.979 21.000 C 21.978 20.567,21.898 20.355,21.678 20.199 C 21.385 19.990,21.877 20.000,11.984 20.003 C 4.546 20.005,2.748 20.015,2.614 20.057 " stroke="none" fill-rule="evenodd" fill="black"></path></svg>