<svg width="24" height="24" viewBox="0 0 24 24" fill="none" xmlns="http://www.w3.org/2000/svg"><path d="M2.614 2.057 C 2.377 2.131,2.212 2.261,2.109 2.453 C 2.035 2.592,2.020 2.684,2.020 3.000 C 2.020 3.331,2.033 3.403,2.120 3.558 C 2.230 3.755,2.414 3.898,2.635 3.959 C 2.835 4.015,21.165 4.015,21.365 3.959 C 21.586 3.898,21.770 3.755,21.880 3.558 C 21.967 3.402,21.980 3.332,21.979 3.000 C 21.978 2.567,21.898 2.355,21.678 2.199 C 21.385 1.990,21.877 2.000,11.984 2.003 C 4.546 2.005,2.748 2.015,2.614 2.057 M8.545 5.579 C 8.460 5.609,8.329 5.693,8.254 5.766 C 7.919 6.091,7.916 6.907,8.249 7.229 C 8.510 7.482,8.580 7.494,9.850 7.512 L 11.000 7.528 11.000 12.024 L 11.000 16.520 9.870 16.520 C 9.197 16.520,8.678 16.538,8.587 16.563 C 8.230 16.662,8.000 17.029,8.000 17.500 C 8.000 17.968,8.214 18.314,8.585 18.445 C 8.814 18.526,15.186 18.526,15.415 18.445 C 15.786 18.314,16.000 17.968,16.000 17.500 C 16.000 17.029,15.770 16.662,15.413 16.563 C 15.322 16.538,14.803 16.520,14.130 16.520 L 13.000 16.520 13.000 12.024 L 13.000 7.527 14.150 7.512 C 15.420 7.496,15.488 7.484,15.751 7.229 C 15.983 7.004,16.065 6.513,15.940 6.092 C 15.868 5.852,15.645 5.627,15.413 5.563 C 15.311 5.534,14.174 5.521,11.980 5.522 C 9.294 5.523,8.672 5.534,8.545 5.579 M2.614 20.057 C 2.377 20.131,2.212 20.261,2.109 20.453 C 2.035 20.592,2.020 20.684,2.020 21.000 C 2.020 21.331,2.033 21.403,2.120 21.558 C 2.230 21.755,2.414 21.898,2.635 21.959 C 2.835 22.015,21.165 22.015,21.365 21.959 C 21.586 21.898,21.770 21.755,21.880 21.558 C 21.967 21.402,21.980 21.332,21.979 21.000 C 21.978 20.567,21.898 20.355,21.678 20.199 C 21.385 19.990,21.877 20.000,11.984 20.003 C 4.546 20.005,2.748 20.015,2.614 20.057 " stroke="none" fill-rule="evenodd" fill="black"></path></svg>