<svg width="24" height="24" viewBox="0 0 24 24" fill="none" xmlns="http://www.w3.org/2000/svg"><path d="M2.614 2.057 C 2.377 2.131,2.212 2.261,2.109 2.453 L 2.020 2.620 2.010 11.914 C 2.003 18.056,2.013 21.260,2.040 21.358 C 2.144 21.747,2.435 21.962,2.896 21.991 C 3.381 22.022,3.699 21.882,3.880 21.558 L 3.980 21.380 3.980 12.000 L 3.980 2.620 3.891 2.453 C 3.842 2.362,3.746 2.247,3.678 2.199 C 3.414 2.010,2.957 1.950,2.614 2.057 M20.614 2.057 C 20.377 2.131,20.212 2.261,20.109 2.453 L 20.020 2.620 20.010 11.914 C 20.003 18.056,20.013 21.260,20.040 21.358 C 20.144 21.747,20.435 21.962,20.896 21.991 C 21.381 22.022,21.699 21.882,21.880 21.558 L 21.980 21.380 21.980 12.000 L 21.980 2.620 21.891 2.453 C 21.842 2.362,21.746 2.247,21.678 2.199 C 21.414 2.010,20.957 1.950,20.614 2.057 M6.180 8.039 C 5.952 8.098,5.855 8.153,5.732 8.293 C 5.492 8.565,5.500 8.445,5.500 12.000 C 5.500 15.586,5.490 15.438,5.749 15.725 C 6.071 16.081,6.896 16.095,7.229 15.751 C 7.482 15.490,7.494 15.420,7.512 14.150 L 7.528 13.000 12.000 13.000 L 16.473 13.000 16.488 14.150 C 16.504 15.420,16.516 15.488,16.771 15.751 C 17.104 16.095,17.929 16.081,18.251 15.725 C 18.510 15.438,18.500 15.586,18.500 12.000 C 18.500 8.372,18.511 8.520,18.230 8.251 C 17.880 7.916,17.078 7.924,16.752 8.267 C 16.520 8.511,16.505 8.597,16.488 9.850 L 16.472 11.000 12.000 11.000 L 7.528 11.000 7.513 9.850 C 7.499 8.786,7.491 8.687,7.414 8.520 C 7.306 8.287,7.147 8.143,6.909 8.064 C 6.709 7.997,6.386 7.986,6.180 8.039 " stroke="none" fill-rule="evenodd" fill="black"></path></svg>