<svg width="24" height="24" viewBox="0 0 24 24" fill="none" xmlns="http://www.w3.org/2000/svg"><path d="M2.614 2.057 C 2.377 2.131,2.212 2.261,2.109 2.453 L 2.020 2.620 2.010 11.914 C 2.003 18.056,2.013 21.260,2.040 21.358 C 2.144 21.747,2.435 21.962,2.896 21.991 C 3.381 22.022,3.699 21.882,3.880 21.558 L 3.980 21.380 3.980 12.000 L 3.980 2.620 3.891 2.453 C 3.842 2.362,3.746 2.247,3.678 2.199 C 3.414 2.010,2.957 1.950,2.614 2.057 M20.614 2.057 C 20.377 2.131,20.212 2.261,20.109 2.453 L 20.020 2.620 20.010 11.914 C 20.003 18.056,20.013 21.260,20.040 21.358 C 20.144 21.747,20.435 21.962,20.896 21.991 C 21.381 22.022,21.699 21.882,21.880 21.558 L 21.980 21.380 21.980 12.000 L 21.980 2.620 21.891 2.453 C 21.842 2.362,21.746 2.247,21.678 2.199 C 21.414 2.010,20.957 1.950,20.614 2.057 M7.620 8.026 C 7.388 8.149,7.262 8.312,6.350 9.680 C 5.845 10.439,5.372 11.123,5.300 11.200 C 4.843 11.689,4.843 12.311,5.300 12.800 C 5.372 12.877,5.831 13.543,6.320 14.280 C 6.809 15.017,7.266 15.680,7.335 15.754 C 7.711 16.155,8.251 16.127,8.734 15.681 C 8.956 15.477,9.040 15.304,9.039 15.054 C 9.038 14.788,8.967 14.649,8.385 13.777 L 7.880 13.020 9.940 13.010 C 11.073 13.004,12.927 13.004,14.060 13.010 L 16.120 13.020 15.615 13.777 C 15.033 14.649,14.962 14.788,14.961 15.054 C 14.960 15.304,15.044 15.477,15.266 15.681 C 15.749 16.127,16.289 16.155,16.665 15.754 C 16.734 15.680,17.191 15.017,17.680 14.280 C 18.169 13.543,18.628 12.877,18.700 12.800 C 19.157 12.311,19.157 11.689,18.700 11.200 C 18.628 11.123,18.169 10.457,17.680 9.720 C 17.191 8.983,16.734 8.320,16.665 8.246 C 16.289 7.845,15.749 7.873,15.266 8.319 C 15.044 8.523,14.960 8.696,14.961 8.946 C 14.962 9.212,15.033 9.351,15.615 10.223 L 16.120 10.980 14.060 10.990 C 12.927 10.996,11.073 10.996,9.940 10.990 L 7.880 10.980 8.385 10.223 C 8.967 9.351,9.038 9.212,9.039 8.946 C 9.040 8.696,8.956 8.523,8.734 8.319 C 8.383 7.996,7.913 7.872,7.620 8.026 " stroke="none" fill-rule="evenodd" fill="black"></path></svg>