<svg width="24" height="24" viewBox="0 0 24 24" fill="none" xmlns="http://www.w3.org/2000/svg"><path d="M4.920 1.041 C 4.152 1.092,3.672 1.205,3.180 1.451 C 2.089 1.996,1.357 2.961,1.124 4.160 C 1.012 4.738,1.000 5.470,1.000 12.000 C 1.000 19.433,1.002 19.515,1.245 20.320 C 1.577 21.422,2.578 22.423,3.680 22.755 C 4.485 22.998,4.567 23.000,12.000 23.000 C 19.433 23.000,19.515 22.998,20.320 22.755 C 21.422 22.423,22.423 21.422,22.755 20.320 C 22.998 19.515,23.000 19.433,23.000 12.000 C 23.000 4.567,22.998 4.485,22.755 3.680 C 22.424 2.581,21.465 1.622,20.320 1.246 C 19.635 1.021,19.900 1.028,12.340 1.019 C 8.512 1.014,5.173 1.024,4.920 1.041 M19.492 3.091 C 19.894 3.188,20.110 3.309,20.400 3.600 C 20.696 3.895,20.814 4.109,20.912 4.528 C 20.975 4.798,20.980 5.370,20.980 12.000 C 20.980 18.630,20.975 19.202,20.912 19.472 C 20.814 19.891,20.696 20.104,20.400 20.401 C 20.101 20.701,19.820 20.851,19.418 20.928 C 19.009 21.005,4.991 21.005,4.582 20.927 C 4.170 20.850,3.898 20.704,3.600 20.403 C 3.303 20.104,3.186 19.890,3.088 19.472 C 3.025 19.202,3.020 18.630,3.020 12.000 C 3.020 5.370,3.025 4.798,3.088 4.528 C 3.175 4.155,3.294 3.918,3.520 3.667 C 3.883 3.262,4.282 3.090,4.980 3.039 C 5.200 3.023,8.494 3.013,12.300 3.017 C 18.585 3.024,19.245 3.031,19.492 3.091 M5.614 5.055 C 5.220 5.184,5.039 5.437,5.009 5.900 C 4.978 6.381,5.119 6.699,5.442 6.880 C 5.597 6.967,5.669 6.980,6.000 6.980 C 6.312 6.980,6.408 6.964,6.540 6.894 C 6.866 6.718,7.000 6.459,7.000 6.000 C 7.000 5.357,6.713 5.048,6.083 5.016 C 5.893 5.006,5.718 5.021,5.614 5.055 M17.614 5.055 C 17.220 5.184,17.039 5.437,17.009 5.900 C 16.978 6.381,17.119 6.699,17.442 6.880 C 17.597 6.967,17.669 6.980,18.000 6.980 C 18.409 6.980,18.600 6.915,18.789 6.713 C 19.071 6.410,19.071 5.590,18.789 5.287 C 18.562 5.045,17.989 4.931,17.614 5.055 M11.380 6.043 C 8.784 6.299,6.676 8.219,6.115 10.840 C 5.984 11.450,5.984 12.558,6.114 13.160 C 6.639 15.588,8.417 17.365,10.840 17.885 C 11.446 18.015,12.554 18.015,13.160 17.885 C 14.397 17.620,15.412 17.068,16.269 16.195 C 17.109 15.340,17.626 14.369,17.885 13.160 C 18.015 12.554,18.015 11.446,17.885 10.840 C 17.626 9.631,17.109 8.660,16.269 7.805 C 14.978 6.490,13.230 5.860,11.380 6.043 M12.605 8.058 C 14.074 8.280,15.310 9.324,15.797 10.755 C 15.897 11.050,16.000 11.680,16.000 12.000 C 16.000 12.322,15.897 12.951,15.796 13.245 C 15.321 14.632,14.195 15.628,12.773 15.917 C 10.563 16.368,8.396 14.845,8.058 12.605 C 7.986 12.121,7.986 11.879,8.058 11.395 C 8.314 9.698,9.675 8.324,11.358 8.061 C 11.816 7.990,12.144 7.989,12.605 8.058 M11.516 10.577 C 10.466 10.979,10.167 12.277,10.945 13.055 C 11.807 13.918,13.314 13.420,13.477 12.218 C 13.566 11.564,13.245 10.958,12.650 10.657 C 12.455 10.558,12.370 10.541,12.042 10.532 C 11.789 10.525,11.611 10.540,11.516 10.577 M5.614 17.055 C 5.220 17.184,5.039 17.437,5.009 17.900 C 4.978 18.381,5.119 18.699,5.442 18.880 C 5.597 18.967,5.669 18.980,6.000 18.980 C 6.312 18.980,6.408 18.964,6.540 18.894 C 6.866 18.718,7.000 18.459,7.000 18.000 C 7.000 17.357,6.713 17.048,6.083 17.016 C 5.893 17.006,5.718 17.021,5.614 17.055 M17.614 17.055 C 17.220 17.184,17.039 17.437,17.009 17.900 C 16.978 18.381,17.119 18.699,17.442 18.880 C 17.597 18.967,17.669 18.980,18.000 18.980 C 18.312 18.980,18.408 18.964,18.540 18.894 C 18.866 18.718,19.000 18.459,19.000 18.000 C 19.000 17.357,18.713 17.048,18.083 17.016 C 17.893 17.006,17.718 17.021,17.614 17.055 " stroke="none" fill-rule="evenodd" fill="black"></path></svg>