<svg width="24" height="24" viewBox="0 0 24 24" fill="none" xmlns="http://www.w3.org/2000/svg"><path d="M11.280 1.023 C 11.203 1.032,10.951 1.059,10.720 1.083 C 9.527 1.210,8.337 1.558,7.180 2.120 C 6.045 2.671,5.193 3.285,4.238 4.239 C 3.277 5.198,2.643 6.080,2.097 7.220 C 0.301 10.968,0.728 15.286,3.226 18.633 C 3.701 19.269,4.753 20.316,5.400 20.797 C 9.364 23.745,14.666 23.734,18.637 20.770 C 19.246 20.316,20.316 19.246,20.770 18.637 C 23.744 14.652,23.744 9.348,20.770 5.363 C 20.316 4.755,19.247 3.686,18.640 3.235 C 17.045 2.049,15.365 1.360,13.423 1.096 C 13.000 1.038,11.574 0.990,11.280 1.023 M13.320 3.101 C 15.883 3.488,18.124 4.931,19.560 7.120 C 19.863 7.583,20.303 8.479,20.492 9.020 C 20.838 10.013,20.977 10.865,20.977 12.000 C 20.977 13.493,20.720 14.621,20.080 15.940 C 19.375 17.394,18.311 18.607,16.927 19.532 C 16.138 20.060,14.876 20.588,13.908 20.797 C 11.266 21.366,8.479 20.708,6.370 19.019 C 4.857 17.807,3.722 16.029,3.267 14.160 C 3.081 13.397,3.023 12.888,3.023 12.000 C 3.023 10.507,3.280 9.379,3.920 8.060 C 4.971 5.891,6.877 4.221,9.160 3.466 C 9.865 3.233,10.432 3.118,11.340 3.024 C 11.662 2.991,12.911 3.039,13.320 3.101 M11.207 4.043 C 8.804 4.275,6.612 5.620,5.264 7.689 C 4.782 8.428,4.347 9.495,4.167 10.380 C 4.011 11.141,3.954 12.051,4.041 12.365 C 4.148 12.750,4.437 12.962,4.896 12.991 C 5.375 13.021,5.700 12.881,5.872 12.571 C 5.948 12.432,5.973 12.292,6.019 11.732 C 6.082 10.964,6.154 10.571,6.329 10.060 C 6.919 8.328,8.329 6.919,10.060 6.329 C 10.576 6.153,10.938 6.084,11.620 6.034 C 11.950 6.010,12.285 5.974,12.364 5.955 C 12.580 5.903,12.768 5.758,12.880 5.558 C 12.967 5.402,12.980 5.332,12.979 5.000 C 12.978 4.687,12.962 4.591,12.890 4.453 C 12.674 4.044,12.255 3.942,11.207 4.043 M16.260 6.489 C 16.018 6.575,15.787 6.787,14.165 8.412 L 12.511 10.070 12.365 10.036 C 11.962 9.942,11.372 10.047,10.983 10.281 C 10.068 10.831,9.741 11.975,10.225 12.930 C 10.361 13.199,10.801 13.639,11.070 13.775 C 11.659 14.073,12.341 14.073,12.930 13.775 C 13.196 13.640,13.638 13.200,13.771 12.937 C 13.970 12.544,14.050 11.991,13.962 11.620 C 13.934 11.504,13.995 11.438,15.661 9.760 C 17.545 7.862,17.587 7.811,17.551 7.438 C 17.507 6.981,16.940 6.446,16.500 6.446 C 16.434 6.446,16.326 6.466,16.260 6.489 " stroke="none" fill-rule="evenodd" fill="black"></path></svg>