<svg width="24" height="24" viewBox="0 0 24 24" fill="none" xmlns="http://www.w3.org/2000/svg"><path d="M11.614 1.057 C 11.377 1.131,11.212 1.261,11.109 1.453 C 11.029 1.603,11.019 1.689,11.007 2.310 L 10.993 3.000 7.627 3.000 C 4.252 3.000,3.623 3.020,3.141 3.145 C 2.514 3.307,1.910 3.744,1.523 4.315 C 1.315 4.621,1.194 4.912,1.094 5.340 C 1.024 5.643,1.020 5.924,1.020 10.520 L 1.020 15.380 1.111 15.735 C 1.225 16.184,1.379 16.505,1.650 16.858 C 2.033 17.357,2.593 17.717,3.244 17.885 C 3.551 17.963,3.711 17.972,5.075 17.989 L 6.570 18.008 4.849 19.734 C 3.678 20.909,3.100 21.517,3.040 21.637 C 2.863 21.989,2.952 22.354,3.299 22.701 C 3.646 23.048,4.010 23.137,4.363 22.960 C 4.486 22.899,5.279 22.134,6.981 20.436 L 9.421 18.000 10.211 18.000 L 11.000 18.000 11.000 20.110 C 11.000 21.400,11.016 22.276,11.041 22.365 C 11.148 22.750,11.437 22.962,11.896 22.991 C 12.381 23.022,12.699 22.882,12.880 22.558 L 12.980 22.380 12.992 20.190 L 13.003 18.000 13.791 18.000 L 14.579 18.000 17.019 20.436 C 18.721 22.134,19.514 22.899,19.637 22.960 C 19.990 23.137,20.354 23.048,20.701 22.701 C 21.048 22.354,21.137 21.989,20.960 21.637 C 20.900 21.517,20.322 20.909,19.151 19.734 L 17.430 18.008 18.925 17.989 C 20.267 17.973,20.453 17.962,20.740 17.888 C 21.154 17.782,21.383 17.682,21.690 17.473 C 22.324 17.044,22.722 16.449,22.906 15.660 C 22.976 15.357,22.980 15.077,22.980 10.500 C 22.980 5.923,22.976 5.643,22.906 5.340 C 22.688 4.404,22.167 3.737,21.329 3.321 C 20.723 3.021,20.406 3.000,16.374 3.000 L 13.008 3.000 12.993 2.310 C 12.976 1.541,12.930 1.378,12.678 1.199 C 12.414 1.010,11.957 0.950,11.614 1.057 M20.374 5.074 C 20.586 5.146,20.863 5.432,20.928 5.646 C 21.005 5.902,21.005 15.098,20.928 15.354 C 20.863 15.567,20.591 15.849,20.376 15.925 C 20.143 16.007,3.857 16.007,3.624 15.925 C 3.422 15.854,3.140 15.571,3.075 15.374 C 3.008 15.175,2.974 6.515,3.037 5.949 C 3.102 5.365,3.341 5.104,3.866 5.042 C 4.017 5.024,7.758 5.012,12.180 5.016 C 18.671 5.021,20.250 5.032,20.374 5.074 " stroke="none" fill-rule="evenodd" fill="black"></path></svg>