<svg width="24" height="24" viewBox="0 0 24 24" fill="none" xmlns="http://www.w3.org/2000/svg"><path d="M11.614 1.057 C 11.377 1.131,11.212 1.261,11.109 1.453 C 11.023 1.614,11.020 1.665,11.008 2.908 C 11.000 3.720,11.011 4.254,11.038 4.352 C 11.144 4.747,11.432 4.961,11.896 4.991 C 12.381 5.022,12.699 4.882,12.880 4.558 L 12.980 4.380 12.980 3.000 C 12.980 1.650,12.978 1.616,12.891 1.453 C 12.842 1.362,12.746 1.247,12.678 1.199 C 12.414 1.010,11.957 0.950,11.614 1.057 M4.559 3.978 C 4.344 4.090,4.018 4.426,3.938 4.620 C 3.906 4.695,3.880 4.835,3.881 4.929 C 3.883 5.260,3.992 5.407,4.932 6.348 C 5.867 7.282,6.022 7.398,6.340 7.398 C 6.812 7.398,7.402 6.810,7.399 6.342 C 7.397 6.021,7.283 5.868,6.348 4.932 C 5.401 3.985,5.259 3.881,4.920 3.883 C 4.810 3.883,4.669 3.921,4.559 3.978 M18.720 3.963 C 18.592 4.021,18.285 4.300,17.652 4.932 C 16.717 5.868,16.603 6.021,16.601 6.342 C 16.598 6.810,17.188 7.398,17.660 7.398 C 17.978 7.398,18.133 7.282,19.068 6.348 C 20.008 5.407,20.117 5.260,20.119 4.929 C 20.120 4.693,20.038 4.517,19.813 4.277 C 19.460 3.899,19.094 3.794,18.720 3.963 M11.576 6.039 C 11.485 6.085,11.368 6.168,11.316 6.223 C 11.263 6.278,10.896 6.974,10.500 7.771 L 9.780 9.220 8.240 9.446 C 6.575 9.690,6.477 9.717,6.239 9.987 C 5.945 10.322,5.875 10.677,6.040 10.999 C 6.135 11.186,6.189 11.242,7.530 12.553 C 8.083 13.093,8.400 13.431,8.400 13.482 C 8.400 13.525,8.292 14.187,8.160 14.953 C 8.028 15.720,7.920 16.435,7.920 16.543 C 7.921 16.941,8.263 17.428,8.608 17.523 C 8.921 17.609,9.109 17.537,10.585 16.761 C 11.339 16.364,11.976 16.040,12.000 16.040 C 12.025 16.040,12.642 16.354,13.372 16.739 C 14.154 17.150,14.786 17.457,14.908 17.485 C 15.085 17.526,15.155 17.522,15.378 17.462 C 15.873 17.328,16.088 17.067,16.087 16.600 C 16.087 16.479,15.977 15.746,15.843 14.970 C 15.710 14.195,15.600 13.525,15.600 13.482 C 15.600 13.431,15.917 13.093,16.470 12.553 C 17.829 11.226,17.862 11.190,17.935 10.977 C 18.023 10.719,18.017 10.342,17.923 10.135 C 17.841 9.955,17.657 9.797,17.440 9.721 C 17.363 9.694,16.607 9.570,15.760 9.446 L 14.220 9.220 13.520 7.811 C 13.135 7.037,12.776 6.357,12.722 6.300 C 12.571 6.143,12.232 5.995,11.972 5.974 C 11.789 5.959,11.705 5.973,11.576 6.039 M12.391 10.050 C 12.690 10.637,12.795 10.805,12.925 10.909 C 13.126 11.070,13.209 11.092,14.080 11.220 C 14.465 11.277,14.795 11.327,14.813 11.332 C 14.831 11.338,14.585 11.597,14.265 11.908 C 13.613 12.543,13.506 12.703,13.510 13.040 C 13.512 13.221,13.648 14.113,13.744 14.573 C 13.767 14.683,13.751 14.677,13.014 14.293 C 12.286 13.914,12.251 13.901,12.000 13.901 C 11.749 13.901,11.714 13.914,10.986 14.293 C 10.249 14.677,10.233 14.683,10.256 14.573 C 10.352 14.113,10.488 13.221,10.490 13.040 C 10.494 12.703,10.387 12.543,9.735 11.908 C 9.415 11.597,9.169 11.338,9.187 11.332 C 9.205 11.327,9.535 11.277,9.920 11.220 C 10.305 11.163,10.689 11.099,10.774 11.076 C 11.067 10.997,11.251 10.770,11.631 10.014 C 11.823 9.632,11.989 9.320,12.000 9.321 C 12.011 9.321,12.187 9.649,12.391 10.050 M1.614 11.057 C 1.377 11.131,1.212 11.261,1.109 11.453 C 1.035 11.592,1.020 11.684,1.020 12.000 C 1.020 12.331,1.033 12.403,1.120 12.558 C 1.230 12.755,1.414 12.898,1.635 12.959 C 1.826 13.012,4.174 13.012,4.365 12.959 C 4.586 12.898,4.770 12.755,4.880 12.558 C 4.967 12.402,4.980 12.332,4.979 12.000 C 4.978 11.687,4.962 11.591,4.890 11.453 C 4.786 11.256,4.623 11.131,4.371 11.055 C 4.117 10.979,1.859 10.981,1.614 11.057 M19.614 11.057 C 19.377 11.131,19.212 11.261,19.109 11.453 C 19.035 11.592,19.020 11.684,19.020 12.000 C 19.020 12.331,19.033 12.403,19.120 12.558 C 19.230 12.755,19.414 12.898,19.635 12.959 C 19.826 13.012,22.174 13.012,22.365 12.959 C 22.586 12.898,22.770 12.755,22.880 12.558 C 22.967 12.402,22.980 12.332,22.979 12.000 C 22.978 11.687,22.962 11.591,22.890 11.453 C 22.786 11.256,22.623 11.131,22.371 11.055 C 22.117 10.979,19.859 10.981,19.614 11.057 M6.000 16.686 C 5.741 16.810,4.074 18.475,3.963 18.720 C 3.867 18.933,3.857 19.188,3.938 19.382 C 4.019 19.575,4.375 19.941,4.577 20.039 C 4.670 20.084,4.824 20.120,4.923 20.119 C 5.260 20.117,5.404 20.012,6.348 19.068 C 7.283 18.132,7.397 17.979,7.399 17.658 C 7.401 17.321,7.051 16.852,6.668 16.678 C 6.447 16.578,6.221 16.580,6.000 16.686 M17.293 16.699 C 16.913 16.892,16.602 17.324,16.602 17.660 C 16.602 17.978,16.718 18.133,17.652 19.068 C 18.593 20.008,18.740 20.117,19.071 20.119 C 19.312 20.120,19.487 20.036,19.739 19.797 C 20.112 19.445,20.208 19.098,20.038 18.723 C 19.941 18.510,18.408 16.945,18.105 16.751 C 17.832 16.575,17.571 16.559,17.293 16.699 M11.614 19.057 C 11.377 19.131,11.212 19.261,11.109 19.453 C 11.023 19.614,11.020 19.665,11.008 20.908 C 11.000 21.720,11.011 22.254,11.038 22.352 C 11.144 22.747,11.432 22.961,11.896 22.991 C 12.381 23.022,12.699 22.882,12.880 22.558 L 12.980 22.380 12.980 21.000 C 12.980 19.650,12.978 19.616,12.891 19.453 C 12.842 19.362,12.746 19.247,12.678 19.199 C 12.414 19.010,11.957 18.950,11.614 19.057 " stroke="none" fill-rule="evenodd" fill="black"></path></svg>