<svg width="24" height="24" viewBox="0 0 24 24" fill="none" xmlns="http://www.w3.org/2000/svg"><path d="M6.320 0.997 C 6.128 1.056,5.899 1.194,5.775 1.326 C 5.705 1.400,5.376 2.004,5.041 2.673 C 4.207 4.334,4.337 4.204,2.671 5.044 C 1.936 5.415,1.324 5.749,1.237 5.828 C 1.038 6.007,0.942 6.258,0.972 6.517 C 1.001 6.761,1.151 7.060,1.326 7.225 C 1.400 7.295,2.006 7.625,2.680 7.962 C 4.324 8.787,4.212 8.673,5.056 10.353 C 5.421 11.079,5.743 11.670,5.824 11.759 C 6.087 12.050,6.374 12.109,6.784 11.955 C 7.198 11.800,7.261 11.713,7.949 10.343 C 8.789 8.672,8.671 8.789,10.353 7.944 C 11.088 7.575,11.670 7.257,11.760 7.175 C 11.962 6.993,12.059 6.743,12.028 6.483 C 11.998 6.229,11.843 5.926,11.663 5.768 C 11.584 5.699,10.964 5.363,10.284 5.021 C 8.669 4.208,8.794 4.335,7.943 2.643 C 7.599 1.959,7.260 1.334,7.189 1.254 C 6.971 1.006,6.626 0.904,6.320 0.997 M18.180 2.039 C 17.968 2.094,17.862 2.149,17.752 2.266 C 17.531 2.499,17.507 2.621,17.488 3.610 L 17.471 4.520 16.605 4.520 C 16.119 4.520,15.673 4.539,15.587 4.563 C 15.355 4.627,15.132 4.852,15.060 5.092 C 14.935 5.513,15.017 6.004,15.249 6.229 C 15.496 6.468,15.608 6.492,16.586 6.512 L 17.471 6.529 17.488 7.415 C 17.506 8.392,17.530 8.502,17.771 8.751 C 18.090 9.081,18.910 9.081,19.229 8.751 C 19.468 8.504,19.492 8.392,19.512 7.414 L 19.529 6.529 20.415 6.512 C 21.392 6.494,21.502 6.470,21.751 6.229 C 21.983 6.004,22.065 5.513,21.940 5.092 C 21.868 4.852,21.645 4.627,21.413 4.563 C 21.327 4.539,20.881 4.520,20.395 4.520 L 19.529 4.520 19.512 3.610 C 19.494 2.607,19.463 2.462,19.215 2.234 C 19.000 2.036,18.533 1.948,18.180 2.039 M7.422 5.578 C 7.755 5.911,7.904 6.025,8.289 6.243 L 8.753 6.507 8.467 6.660 C 7.680 7.081,7.162 7.575,6.760 8.283 L 6.501 8.742 6.258 8.317 C 5.846 7.595,5.402 7.154,4.662 6.737 L 4.251 6.504 4.714 6.242 C 5.096 6.025,5.246 5.910,5.578 5.578 C 5.911 5.245,6.025 5.097,6.240 4.717 L 6.499 4.257 6.760 4.717 C 6.975 5.096,7.090 5.246,7.422 5.578 M16.728 11.036 C 16.309 11.180,16.289 11.209,15.480 12.803 C 14.504 14.725,14.704 14.523,12.860 15.450 C 12.090 15.836,11.386 16.207,11.295 16.273 C 11.059 16.445,10.943 16.703,10.972 16.988 C 11.000 17.257,11.162 17.600,11.325 17.738 C 11.392 17.794,12.079 18.158,12.853 18.548 C 14.715 19.484,14.515 19.283,15.472 21.187 C 15.872 21.982,16.249 22.692,16.308 22.762 C 16.534 23.031,16.903 23.105,17.288 22.961 C 17.705 22.805,17.730 22.769,18.526 21.189 C 19.486 19.282,19.288 19.483,21.140 18.551 C 21.910 18.163,22.614 17.793,22.705 17.727 C 22.941 17.555,23.057 17.297,23.028 17.012 C 23.000 16.742,22.838 16.399,22.674 16.261 C 22.606 16.204,21.919 15.840,21.146 15.452 C 19.287 14.519,19.486 14.719,18.528 12.813 C 18.128 12.018,17.755 11.312,17.699 11.246 C 17.567 11.089,17.294 10.960,17.097 10.961 C 17.011 10.962,16.845 10.996,16.728 11.036 M17.220 14.669 C 17.769 15.737,18.263 16.231,19.331 16.780 C 19.544 16.890,19.719 16.989,19.719 17.000 C 19.719 17.011,19.563 17.101,19.372 17.200 C 18.251 17.782,17.756 18.272,17.213 19.340 C 17.107 19.549,17.011 19.719,17.000 19.719 C 16.989 19.719,16.890 19.544,16.780 19.331 C 16.225 18.253,15.750 17.783,14.628 17.200 C 14.437 17.101,14.281 17.011,14.281 17.000 C 14.281 16.989,14.456 16.890,14.669 16.780 C 15.737 16.231,16.231 15.737,16.780 14.669 C 16.890 14.456,16.989 14.281,17.000 14.281 C 17.011 14.281,17.110 14.456,17.220 14.669 M5.180 15.039 C 4.968 15.094,4.862 15.149,4.752 15.266 C 4.531 15.499,4.507 15.621,4.488 16.610 L 4.471 17.520 3.605 17.520 C 3.119 17.520,2.673 17.539,2.587 17.563 C 2.355 17.627,2.132 17.852,2.060 18.092 C 1.935 18.513,2.017 19.004,2.249 19.229 C 2.496 19.468,2.608 19.492,3.586 19.512 L 4.471 19.529 4.488 20.415 C 4.506 21.392,4.530 21.502,4.771 21.751 C 5.090 22.081,5.910 22.081,6.229 21.751 C 6.468 21.504,6.492 21.392,6.512 20.414 L 6.529 19.529 7.415 19.512 C 8.392 19.494,8.502 19.470,8.751 19.229 C 8.983 19.004,9.065 18.513,8.940 18.092 C 8.868 17.852,8.645 17.627,8.413 17.563 C 8.327 17.539,7.881 17.520,7.395 17.520 L 6.529 17.520 6.512 16.610 C 6.494 15.607,6.463 15.462,6.215 15.234 C 6.000 15.036,5.533 14.948,5.180 15.039 " stroke="none" fill-rule="evenodd" fill="black"></path></svg>