<svg width="24" height="24" viewBox="0 0 24 24" fill="none" xmlns="http://www.w3.org/2000/svg"><path d="M11.623 1.081 C 11.390 1.172,11.193 1.351,11.105 1.553 C 11.070 1.634,10.689 3.113,10.257 4.840 C 9.826 6.567,9.421 8.116,9.356 8.283 C 9.205 8.676,8.936 8.998,8.565 9.231 C 8.331 9.377,7.960 9.479,4.749 10.281 C 1.384 11.121,1.276 11.157,1.096 11.463 C 1.015 11.601,0.992 11.692,0.994 11.869 C 1.001 12.393,1.193 12.741,1.563 12.896 C 1.642 12.929,3.118 13.309,4.843 13.741 C 6.569 14.173,8.124 14.582,8.300 14.650 C 8.577 14.756,8.661 14.813,8.924 15.076 C 9.187 15.339,9.244 15.423,9.350 15.700 C 9.418 15.876,9.837 17.474,10.283 19.252 C 11.165 22.774,11.150 22.730,11.482 22.916 C 11.933 23.170,12.698 22.910,12.896 22.437 C 12.929 22.358,13.309 20.882,13.741 19.157 C 14.173 17.431,14.579 15.885,14.643 15.720 C 14.840 15.211,15.211 14.840,15.720 14.643 C 15.885 14.579,17.424 14.175,19.140 13.745 C 20.856 13.315,22.338 12.936,22.433 12.903 C 22.820 12.766,22.999 12.516,23.000 12.112 C 23.000 11.629,22.788 11.251,22.434 11.103 C 22.353 11.070,20.922 10.701,19.252 10.283 C 17.583 9.866,16.073 9.478,15.898 9.423 C 15.506 9.298,15.333 9.194,15.053 8.917 C 14.652 8.520,14.674 8.590,13.581 4.209 C 12.842 1.246,12.842 1.245,12.505 1.083 C 12.284 0.975,11.895 0.974,11.623 1.081 M12.217 6.990 C 12.656 8.771,12.803 9.210,13.128 9.708 C 13.552 10.359,14.252 10.940,14.921 11.198 C 15.291 11.341,15.851 11.498,17.010 11.783 C 17.445 11.890,17.800 11.988,17.800 12.000 C 17.800 12.012,17.409 12.119,16.930 12.237 C 15.211 12.662,14.783 12.809,14.260 13.154 C 13.623 13.575,13.056 14.262,12.802 14.921 C 12.659 15.291,12.502 15.851,12.217 17.010 C 12.110 17.445,12.012 17.800,12.000 17.800 C 11.988 17.800,11.890 17.445,11.783 17.010 C 11.498 15.851,11.341 15.291,11.198 14.921 C 10.944 14.262,10.377 13.575,9.740 13.154 C 9.217 12.809,8.789 12.662,7.070 12.237 C 6.591 12.119,6.200 12.012,6.200 12.000 C 6.200 11.988,6.555 11.890,6.990 11.783 C 8.149 11.498,8.709 11.341,9.079 11.198 C 9.748 10.940,10.448 10.359,10.872 9.708 C 11.197 9.210,11.344 8.771,11.783 6.990 C 11.890 6.555,11.988 6.200,12.000 6.200 C 12.012 6.200,12.110 6.555,12.217 6.990 " stroke="none" fill-rule="evenodd" fill="black"></path></svg>