<svg width="24" height="24" viewBox="0 0 24 24" fill="none" xmlns="http://www.w3.org/2000/svg"><path d="M11.625 1.017 C 11.440 1.085,11.258 1.250,11.161 1.440 C 11.121 1.517,10.591 2.876,9.983 4.460 C 9.374 6.044,8.788 7.522,8.681 7.744 C 8.443 8.234,8.179 8.501,7.727 8.707 C 7.566 8.781,6.117 9.346,4.507 9.963 C 2.897 10.581,1.513 11.130,1.430 11.183 C 1.231 11.313,1.097 11.524,1.015 11.840 C 0.907 12.254,1.005 12.533,1.341 12.769 C 1.429 12.830,2.807 13.383,4.420 14.003 C 6.026 14.620,7.506 15.204,7.708 15.299 C 8.223 15.543,8.436 15.752,8.682 16.259 C 8.789 16.479,9.381 17.973,9.997 19.577 C 10.765 21.575,11.154 22.540,11.233 22.637 C 11.458 22.915,12.002 23.100,12.317 23.006 C 12.517 22.946,12.739 22.757,12.838 22.564 C 12.878 22.485,13.392 21.169,13.979 19.640 C 15.368 16.023,15.394 15.963,15.726 15.656 C 16.045 15.362,16.100 15.338,19.640 13.980 C 21.169 13.393,22.479 12.876,22.551 12.832 C 22.623 12.788,22.728 12.692,22.785 12.617 C 22.902 12.464,23.040 12.056,23.040 11.865 C 23.040 11.677,22.883 11.398,22.699 11.260 C 22.591 11.178,21.551 10.758,19.545 9.987 C 17.900 9.353,16.425 8.776,16.267 8.703 C 15.949 8.557,15.657 8.318,15.486 8.066 C 15.315 7.812,15.133 7.364,13.980 4.360 C 13.393 2.831,12.876 1.521,12.832 1.449 C 12.620 1.101,12.002 0.880,11.625 1.017 M12.655 6.490 C 13.004 7.398,13.356 8.295,13.438 8.484 C 13.840 9.419,14.581 10.160,15.516 10.562 C 15.705 10.644,16.602 10.996,17.510 11.345 C 18.417 11.694,19.160 11.990,19.160 12.002 C 19.160 12.014,18.390 12.319,17.450 12.680 C 16.509 13.041,15.551 13.430,15.320 13.545 C 14.625 13.891,14.182 14.276,13.776 14.886 C 13.536 15.247,13.434 15.486,12.655 17.510 C 12.306 18.417,12.011 19.160,12.000 19.160 C 11.989 19.160,11.694 18.417,11.345 17.510 C 10.566 15.486,10.464 15.247,10.224 14.886 C 9.818 14.276,9.375 13.891,8.680 13.545 C 8.449 13.430,7.490 13.041,6.550 12.680 C 5.610 12.319,4.840 12.014,4.840 12.002 C 4.840 11.990,5.492 11.729,6.290 11.423 C 8.909 10.419,9.140 10.304,9.722 9.722 C 10.304 9.140,10.419 8.909,11.423 6.290 C 11.729 5.492,11.989 4.840,12.000 4.840 C 12.011 4.840,12.306 5.583,12.655 6.490 " stroke="none" fill-rule="evenodd" fill="black"></path></svg>