<svg width="24" height="24" viewBox="0 0 24 24" fill="none" xmlns="http://www.w3.org/2000/svg"><path d="M4.180 1.039 C 3.968 1.094,3.862 1.149,3.752 1.266 C 3.531 1.499,3.507 1.621,3.488 2.610 L 3.471 3.520 2.605 3.520 C 2.119 3.520,1.673 3.539,1.587 3.563 C 1.355 3.627,1.132 3.852,1.060 4.092 C 0.935 4.513,1.017 5.004,1.249 5.229 C 1.496 5.468,1.608 5.492,2.586 5.512 L 3.471 5.529 3.488 6.415 C 3.506 7.392,3.530 7.502,3.771 7.751 C 4.090 8.081,4.910 8.081,5.229 7.751 C 5.468 7.504,5.492 7.392,5.512 6.414 L 5.529 5.529 6.415 5.512 C 7.392 5.494,7.502 5.470,7.751 5.229 C 7.983 5.004,8.065 4.513,7.940 4.092 C 7.868 3.852,7.645 3.627,7.413 3.563 C 7.327 3.539,6.881 3.520,6.395 3.520 L 5.529 3.520 5.512 2.610 C 5.494 1.607,5.463 1.462,5.215 1.234 C 5.000 1.036,4.533 0.948,4.180 1.039 M12.880 2.004 C 12.626 2.054,12.368 2.197,12.234 2.362 C 12.157 2.457,11.794 3.349,11.119 5.102 C 10.569 6.531,10.055 7.834,9.978 7.998 C 9.719 8.543,9.431 8.808,8.820 9.062 C 8.622 9.144,7.344 9.640,5.980 10.165 C 4.616 10.690,3.428 11.170,3.341 11.231 C 3.005 11.467,2.907 11.746,3.015 12.160 C 3.097 12.476,3.231 12.687,3.430 12.816 C 3.513 12.870,4.714 13.349,6.100 13.880 C 9.063 15.017,9.277 15.112,9.583 15.417 C 9.888 15.723,9.982 15.935,11.121 18.900 C 11.653 20.286,12.122 21.485,12.162 21.564 C 12.260 21.757,12.483 21.946,12.683 22.006 C 12.997 22.100,13.542 21.915,13.766 21.638 C 13.843 21.543,14.206 20.652,14.881 18.898 C 15.431 17.469,15.952 16.151,16.039 15.969 C 16.259 15.509,16.526 15.249,17.010 15.021 C 17.213 14.926,18.514 14.412,19.900 13.880 C 21.286 13.348,22.492 12.871,22.580 12.820 C 22.784 12.702,22.900 12.577,22.978 12.391 C 23.060 12.194,23.056 12.061,22.957 11.740 C 22.896 11.541,22.832 11.430,22.707 11.305 C 22.551 11.150,22.398 11.084,20.420 10.324 C 16.709 8.899,16.628 8.863,16.300 8.463 C 16.086 8.202,15.923 7.817,14.879 5.100 C 14.347 3.714,13.878 2.515,13.838 2.436 C 13.741 2.245,13.518 2.054,13.331 2.002 C 13.160 1.955,13.130 1.955,12.880 2.004 M13.538 7.190 C 14.135 8.745,14.388 9.281,14.724 9.699 C 15.292 10.405,15.782 10.685,17.810 11.462 C 18.553 11.747,19.160 11.989,19.160 12.000 C 19.160 12.011,18.552 12.254,17.810 12.539 C 16.420 13.074,15.892 13.307,15.567 13.527 C 14.993 13.918,14.592 14.382,14.270 15.031 C 14.152 15.267,13.823 16.067,13.538 16.810 C 13.253 17.553,13.011 18.160,13.000 18.160 C 12.989 18.160,12.747 17.552,12.462 16.810 C 12.177 16.067,11.848 15.267,11.730 15.030 C 11.412 14.392,10.999 13.911,10.440 13.532 C 10.102 13.304,9.620 13.091,8.230 12.557 C 7.465 12.264,6.840 12.014,6.840 12.002 C 6.840 11.990,7.448 11.747,8.190 11.462 C 10.218 10.685,10.708 10.405,11.276 9.699 C 11.612 9.281,11.865 8.745,12.462 7.190 C 12.747 6.447,12.989 5.840,13.000 5.840 C 13.011 5.840,13.253 6.447,13.538 7.190 M4.180 16.039 C 3.968 16.094,3.862 16.149,3.752 16.266 C 3.531 16.499,3.507 16.621,3.488 17.610 L 3.471 18.520 2.605 18.520 C 2.119 18.520,1.673 18.539,1.587 18.563 C 1.355 18.627,1.132 18.852,1.060 19.092 C 0.935 19.513,1.017 20.004,1.249 20.229 C 1.496 20.468,1.608 20.492,2.586 20.512 L 3.471 20.529 3.488 21.415 C 3.506 22.392,3.530 22.502,3.771 22.751 C 4.090 23.081,4.910 23.081,5.229 22.751 C 5.468 22.504,5.492 22.392,5.512 21.414 L 5.529 20.529 6.415 20.512 C 7.392 20.494,7.502 20.470,7.751 20.229 C 7.983 20.004,8.065 19.513,7.940 19.092 C 7.868 18.852,7.645 18.627,7.413 18.563 C 7.327 18.539,6.881 18.520,6.395 18.520 L 5.529 18.520 5.512 17.610 C 5.494 16.607,5.463 16.462,5.215 16.234 C 5.000 16.036,4.533 15.948,4.180 16.039 " stroke="none" fill-rule="evenodd" fill="black"></path></svg>