<svg width="24" height="24" viewBox="0 0 24 24" fill="none" xmlns="http://www.w3.org/2000/svg"><path d="M14.625 1.017 C 14.440 1.085,14.259 1.250,14.161 1.440 C 14.121 1.517,13.833 2.246,13.520 3.060 C 12.463 5.810,12.460 5.819,12.133 6.145 C 11.837 6.441,11.670 6.517,9.420 7.380 C 8.408 7.768,7.513 8.130,7.430 8.183 C 7.231 8.313,7.097 8.524,7.015 8.840 C 6.907 9.254,7.005 9.534,7.341 9.769 C 7.428 9.830,8.265 10.175,9.200 10.535 C 11.894 11.574,11.817 11.539,12.139 11.861 C 12.461 12.182,12.425 12.104,13.464 14.798 C 13.891 15.905,14.159 16.545,14.234 16.638 C 14.458 16.915,15.003 17.100,15.317 17.006 C 15.517 16.946,15.739 16.757,15.838 16.564 C 15.878 16.485,16.209 15.646,16.573 14.700 C 17.560 12.137,17.539 12.182,17.861 11.861 C 18.183 11.539,18.139 11.559,20.700 10.574 C 21.646 10.210,22.479 9.877,22.551 9.832 C 22.623 9.788,22.728 9.692,22.785 9.617 C 22.902 9.464,23.040 9.056,23.040 8.865 C 23.040 8.677,22.883 8.398,22.699 8.260 C 22.596 8.182,21.874 7.883,20.679 7.424 C 18.370 6.535,18.163 6.441,17.867 6.145 C 17.540 5.818,17.534 5.804,16.481 3.060 C 16.168 2.246,15.877 1.521,15.833 1.449 C 15.620 1.101,15.002 0.880,14.625 1.017 M15.279 5.510 C 15.720 6.653,15.962 7.078,16.442 7.558 C 16.922 8.038,17.347 8.280,18.490 8.721 C 18.858 8.864,19.160 8.989,19.160 9.000 C 19.160 9.011,18.886 9.126,18.550 9.255 C 17.394 9.700,16.954 9.944,16.489 10.398 C 15.972 10.901,15.732 11.317,15.279 12.490 C 15.136 12.858,15.011 13.160,15.000 13.160 C 14.989 13.160,14.864 12.858,14.721 12.490 C 14.268 11.317,14.028 10.901,13.511 10.398 C 13.044 9.942,12.588 9.690,11.450 9.257 C 11.115 9.129,10.840 9.015,10.840 9.002 C 10.840 8.990,11.142 8.864,11.510 8.721 C 12.653 8.280,13.078 8.038,13.558 7.558 C 14.038 7.078,14.280 6.653,14.721 5.510 C 14.864 5.142,14.989 4.840,15.000 4.840 C 15.011 4.840,15.136 5.142,15.279 5.510 M6.100 12.032 C 6.011 12.074,5.882 12.173,5.811 12.254 C 5.740 12.334,5.401 12.959,5.057 13.643 C 4.206 15.335,4.331 15.208,2.716 16.021 C 2.036 16.363,1.416 16.699,1.337 16.768 C 1.157 16.926,1.002 17.229,0.972 17.483 C 0.941 17.743,1.038 17.993,1.240 18.175 C 1.330 18.257,1.912 18.575,2.647 18.944 C 4.329 19.789,4.211 19.672,5.051 21.343 C 5.739 22.713,5.802 22.800,6.216 22.955 C 6.623 23.107,6.931 23.040,7.193 22.742 C 7.261 22.664,7.600 22.037,7.946 21.350 C 8.788 19.674,8.676 19.786,10.320 18.962 C 10.994 18.625,11.600 18.295,11.674 18.225 C 11.849 18.060,11.999 17.761,12.028 17.517 C 12.058 17.258,11.962 17.007,11.763 16.828 C 11.676 16.749,11.064 16.415,10.329 16.044 C 8.663 15.204,8.793 15.334,7.959 13.673 C 7.624 13.005,7.295 12.400,7.225 12.326 C 6.936 12.018,6.417 11.883,6.100 12.032 M7.422 16.578 C 7.755 16.911,7.904 17.025,8.289 17.243 L 8.753 17.507 8.467 17.660 C 7.680 18.081,7.162 18.575,6.760 19.283 L 6.501 19.742 6.258 19.317 C 5.846 18.595,5.402 18.154,4.662 17.737 L 4.251 17.504 4.714 17.242 C 5.096 17.025,5.246 16.910,5.578 16.578 C 5.911 16.245,6.025 16.097,6.240 15.717 L 6.499 15.257 6.760 15.717 C 6.975 16.096,7.090 16.246,7.422 16.578 " stroke="none" fill-rule="evenodd" fill="black"></path></svg>