<svg width="24" height="24" viewBox="0 0 24 24" fill="none" xmlns="http://www.w3.org/2000/svg"><path d="M5.920 2.041 C 5.151 2.092,4.672 2.205,4.180 2.451 C 3.089 2.996,2.357 3.961,2.124 5.160 C 2.013 5.729,2.000 6.455,2.000 12.000 C 2.000 18.358,2.006 18.526,2.245 19.320 C 2.577 20.422,3.578 21.423,4.680 21.755 C 5.474 21.994,5.642 22.000,12.000 22.000 C 18.358 22.000,18.526 21.994,19.320 21.755 C 20.422 21.423,21.423 20.422,21.755 19.320 C 21.994 18.526,22.000 18.358,22.000 12.000 C 22.000 5.642,21.994 5.474,21.755 4.680 C 21.424 3.581,20.465 2.622,19.320 2.246 C 18.644 2.024,18.800 2.029,12.340 2.019 C 9.062 2.014,6.173 2.024,5.920 2.041 M18.492 4.091 C 18.894 4.188,19.109 4.309,19.400 4.600 C 19.696 4.895,19.814 5.109,19.912 5.528 C 19.975 5.797,19.980 6.313,19.980 12.000 C 19.980 17.687,19.975 18.203,19.912 18.472 C 19.814 18.891,19.696 19.104,19.400 19.401 C 19.101 19.701,18.820 19.851,18.418 19.928 C 18.010 20.005,5.990 20.005,5.582 19.927 C 5.170 19.850,4.898 19.704,4.600 19.403 C 4.303 19.104,4.186 18.890,4.088 18.472 C 4.025 18.203,4.020 17.687,4.020 12.000 C 4.020 6.313,4.025 5.797,4.088 5.528 C 4.175 5.155,4.294 4.918,4.520 4.667 C 4.883 4.262,5.282 4.091,5.980 4.039 C 6.200 4.023,9.044 4.013,12.300 4.018 C 17.643 4.024,18.247 4.032,18.492 4.091 M10.462 6.044 C 9.369 6.204,8.349 6.955,7.866 7.956 C 7.509 8.698,7.676 9.173,8.390 9.440 C 8.959 9.653,9.334 9.485,9.639 8.883 C 9.789 8.584,9.948 8.401,10.191 8.247 C 10.563 8.010,10.692 7.995,12.167 8.008 L 13.500 8.020 13.720 8.128 C 14.019 8.275,14.218 8.490,14.436 8.904 C 14.674 9.354,14.833 9.489,15.157 9.512 C 15.626 9.546,16.208 9.239,16.321 8.898 C 16.380 8.717,16.379 8.440,16.318 8.251 C 15.955 7.130,14.845 6.207,13.663 6.043 C 13.299 5.992,10.812 5.993,10.462 6.044 M5.614 11.057 C 5.377 11.131,5.212 11.261,5.109 11.453 C 5.035 11.592,5.020 11.684,5.020 12.000 C 5.020 12.331,5.033 12.403,5.120 12.558 C 5.230 12.755,5.414 12.898,5.635 12.959 C 5.727 12.985,7.114 13.000,9.440 13.001 C 12.255 13.001,13.156 13.013,13.344 13.053 C 13.810 13.151,14.223 13.517,14.401 13.990 C 14.523 14.317,14.502 14.807,14.352 15.129 C 14.231 15.389,13.927 15.714,13.696 15.832 C 13.388 15.988,13.162 16.007,11.800 15.993 C 10.567 15.981,10.490 15.976,10.313 15.894 C 10.029 15.762,9.771 15.500,9.612 15.181 C 9.423 14.803,9.305 14.654,9.119 14.560 C 8.913 14.454,8.641 14.458,8.323 14.569 C 7.808 14.750,7.559 15.122,7.644 15.583 C 7.690 15.833,7.947 16.372,8.152 16.650 C 8.488 17.104,9.042 17.537,9.551 17.743 C 10.112 17.969,10.154 17.974,11.740 17.991 C 13.289 18.007,13.577 17.988,14.054 17.833 C 15.061 17.508,15.874 16.745,16.258 15.764 C 16.568 14.974,16.569 14.027,16.259 13.239 L 16.166 13.000 17.193 13.000 C 17.758 13.000,18.285 12.981,18.365 12.959 C 18.586 12.898,18.770 12.755,18.880 12.558 C 18.967 12.402,18.980 12.332,18.979 12.000 C 18.978 11.567,18.898 11.355,18.678 11.199 C 18.388 10.992,18.642 11.000,11.984 11.003 C 7.009 11.005,5.747 11.016,5.614 11.057 " stroke="none" fill-rule="evenodd" fill="black"></path></svg>