<svg width="24" height="24" viewBox="0 0 24 24" fill="none" xmlns="http://www.w3.org/2000/svg"><path d="M9.400 3.044 C 7.761 3.229,6.261 4.290,5.526 5.785 C 5.213 6.421,5.046 7.061,5.011 7.760 C 4.980 8.391,5.093 8.686,5.438 8.876 C 5.644 8.990,6.089 9.033,6.344 8.965 C 6.796 8.842,6.948 8.602,7.003 7.923 C 7.024 7.659,7.083 7.302,7.132 7.131 C 7.403 6.196,8.222 5.382,9.150 5.125 C 9.309 5.081,9.440 5.053,9.440 5.062 C 9.440 5.071,9.373 5.182,9.292 5.309 C 8.807 6.066,8.523 7.001,8.513 7.871 C 8.508 8.356,8.559 8.532,8.771 8.751 C 9.090 9.081,9.910 9.081,10.229 8.751 C 10.410 8.564,10.473 8.383,10.503 7.956 C 10.538 7.449,10.615 7.093,10.756 6.783 C 11.060 6.112,11.576 5.594,12.251 5.282 C 12.753 5.049,12.924 5.020,13.760 5.021 C 14.409 5.021,14.540 5.033,14.822 5.113 C 15.783 5.386,16.595 6.187,16.869 7.134 C 16.921 7.315,16.975 7.652,16.995 7.922 C 17.023 8.299,17.049 8.428,17.125 8.565 C 17.286 8.856,17.575 9.000,18.000 9.000 C 18.428 9.000,18.713 8.856,18.880 8.558 C 18.972 8.394,18.980 8.340,18.979 7.880 C 18.978 6.314,18.128 4.752,16.800 3.874 C 16.046 3.375,15.396 3.135,14.552 3.043 C 14.092 2.992,9.849 2.994,9.400 3.044 M2.614 11.057 C 2.223 11.180,2.039 11.436,2.009 11.900 C 1.978 12.381,2.119 12.699,2.442 12.880 L 2.620 12.980 6.840 13.002 C 11.483 13.026,11.172 13.008,11.746 13.277 C 12.604 13.678,13.238 14.453,13.421 15.323 C 13.499 15.695,13.496 16.332,13.415 16.692 C 13.210 17.603,12.508 18.430,11.641 18.783 C 11.207 18.959,10.811 19.012,10.083 18.990 C 9.548 18.974,9.366 18.953,9.140 18.881 C 8.176 18.575,7.401 17.799,7.132 16.869 C 7.083 16.698,7.025 16.343,7.003 16.082 C 6.959 15.531,6.881 15.334,6.649 15.182 C 6.198 14.887,5.426 14.979,5.170 15.358 C 5.026 15.572,4.989 15.781,5.011 16.240 C 5.125 18.533,6.752 20.417,9.040 20.907 C 9.349 20.973,9.618 20.980,12.000 20.980 C 14.382 20.980,14.651 20.973,14.960 20.907 C 16.488 20.580,17.748 19.630,18.433 18.288 C 18.838 17.494,18.980 16.899,18.980 16.000 C 18.980 15.330,18.922 14.957,18.732 14.400 C 18.605 14.029,18.361 13.534,18.155 13.230 L 17.999 13.000 19.610 13.000 C 20.565 13.000,21.279 12.983,21.365 12.959 C 21.586 12.898,21.770 12.755,21.880 12.558 C 21.967 12.402,21.980 12.332,21.979 12.000 C 21.978 11.567,21.898 11.355,21.678 11.199 C 21.385 10.990,21.877 11.000,11.984 11.003 C 4.546 11.005,2.748 11.015,2.614 11.057 M15.407 13.349 C 16.098 13.722,16.647 14.392,16.875 15.139 C 16.958 15.412,16.973 15.542,16.973 16.000 C 16.973 16.458,16.958 16.588,16.875 16.861 C 16.585 17.813,15.814 18.586,14.864 18.877 C 14.712 18.923,14.581 18.954,14.572 18.945 C 14.563 18.936,14.623 18.823,14.706 18.694 C 15.750 17.064,15.751 14.937,14.708 13.309 C 14.627 13.182,14.560 13.071,14.560 13.062 C 14.560 13.015,15.174 13.224,15.407 13.349 " stroke="none" fill-rule="evenodd" fill="black"></path></svg>