<svg width="24" height="24" viewBox="0 0 24 24" fill="none" xmlns="http://www.w3.org/2000/svg"><path d="M9.400 3.044 C 7.761 3.229,6.261 4.290,5.526 5.785 C 5.213 6.421,5.046 7.061,5.011 7.760 C 4.980 8.391,5.093 8.686,5.438 8.876 C 5.644 8.990,6.089 9.033,6.344 8.965 C 6.796 8.842,6.948 8.602,7.003 7.923 C 7.024 7.659,7.083 7.302,7.132 7.131 C 7.405 6.188,8.217 5.388,9.178 5.112 C 9.499 5.020,9.510 5.020,12.000 5.020 C 14.490 5.020,14.501 5.020,14.822 5.112 C 15.785 5.388,16.595 6.188,16.869 7.134 C 16.921 7.315,16.975 7.652,16.995 7.922 C 17.023 8.299,17.049 8.428,17.125 8.565 C 17.286 8.856,17.575 9.000,18.000 9.000 C 18.428 9.000,18.713 8.856,18.880 8.558 C 18.972 8.394,18.980 8.340,18.979 7.880 C 18.978 6.314,18.128 4.752,16.800 3.874 C 16.046 3.375,15.396 3.135,14.552 3.043 C 14.092 2.992,9.849 2.994,9.400 3.044 M2.614 11.057 C 2.223 11.180,2.039 11.436,2.009 11.900 C 1.978 12.381,2.119 12.699,2.442 12.880 L 2.620 12.980 8.580 13.000 L 14.540 13.020 14.861 13.121 C 15.825 13.426,16.585 14.187,16.875 15.139 C 16.958 15.412,16.973 15.542,16.973 16.000 C 16.973 16.458,16.958 16.588,16.875 16.861 C 16.582 17.822,15.820 18.580,14.840 18.886 L 14.540 18.980 12.000 18.980 L 9.460 18.980 9.160 18.886 C 8.578 18.705,8.107 18.391,7.695 17.911 C 7.277 17.423,7.067 16.869,7.003 16.082 C 6.959 15.531,6.881 15.334,6.649 15.182 C 6.198 14.887,5.426 14.979,5.170 15.358 C 5.026 15.572,4.989 15.781,5.011 16.240 C 5.125 18.533,6.752 20.417,9.040 20.907 C 9.349 20.973,9.618 20.980,12.000 20.980 C 14.382 20.980,14.651 20.973,14.960 20.907 C 16.488 20.580,17.748 19.630,18.433 18.288 C 18.838 17.494,18.980 16.899,18.980 16.000 C 18.980 15.330,18.922 14.957,18.732 14.400 C 18.605 14.029,18.361 13.534,18.155 13.230 L 17.999 13.000 19.610 13.000 C 20.565 13.000,21.279 12.983,21.365 12.959 C 21.586 12.898,21.770 12.755,21.880 12.558 C 21.967 12.402,21.980 12.332,21.979 12.000 C 21.978 11.567,21.898 11.355,21.678 11.199 C 21.385 10.990,21.877 11.000,11.984 11.003 C 4.546 11.005,2.748 11.015,2.614 11.057 " stroke="none" fill-rule="evenodd" fill="black"></path></svg>