<svg width="24" height="24" viewBox="0 0 24 24" fill="none" xmlns="http://www.w3.org/2000/svg"><path d="M2.626 4.045 C 2.420 4.154,2.146 4.433,2.038 4.644 C 1.924 4.868,1.924 5.132,2.040 5.363 C 2.101 5.486,2.811 6.224,4.353 7.770 L 6.578 10.000 4.353 12.230 C 2.811 13.776,2.101 14.514,2.040 14.637 C 1.863 14.990,1.952 15.354,2.299 15.701 C 2.646 16.048,3.010 16.137,3.363 15.960 C 3.486 15.899,4.224 15.189,5.770 13.647 L 8.000 11.422 10.230 13.647 C 11.776 15.189,12.514 15.899,12.637 15.960 C 12.990 16.137,13.354 16.048,13.701 15.701 C 14.048 15.354,14.137 14.990,13.960 14.637 C 13.899 14.514,13.189 13.776,11.647 12.230 L 9.422 10.000 11.647 7.770 C 13.189 6.224,13.899 5.486,13.960 5.363 C 14.137 5.010,14.048 4.646,13.701 4.299 C 13.361 3.959,12.980 3.868,12.628 4.044 C 12.517 4.100,11.705 4.881,10.230 6.353 L 8.000 8.578 5.770 6.353 C 4.295 4.881,3.483 4.100,3.372 4.044 C 3.152 3.934,2.835 3.935,2.626 4.045 M18.314 11.058 C 17.708 11.185,17.236 11.446,16.758 11.920 C 16.477 12.198,16.380 12.327,16.230 12.627 C 15.920 13.248,15.895 13.623,16.143 13.947 C 16.279 14.126,16.693 14.322,16.996 14.349 C 17.454 14.390,17.712 14.213,17.939 13.698 C 18.060 13.424,18.231 13.230,18.460 13.107 C 18.688 12.985,19.193 12.985,19.420 13.107 C 19.734 13.276,20.000 13.660,20.000 13.946 C 20.000 14.277,19.723 14.660,19.267 14.960 C 19.131 15.049,18.680 15.295,18.265 15.507 C 17.102 16.099,16.674 16.466,16.352 17.149 C 16.119 17.643,16.028 18.102,16.024 18.800 C 16.020 19.348,16.026 19.390,16.120 19.558 C 16.230 19.755,16.414 19.898,16.635 19.959 C 16.831 20.014,21.169 20.014,21.365 19.959 C 21.586 19.898,21.770 19.755,21.880 19.558 C 21.967 19.402,21.980 19.332,21.979 19.000 C 21.977 18.469,21.852 18.246,21.455 18.071 C 21.371 18.034,20.910 18.015,19.742 18.000 L 18.145 17.980 18.276 17.831 C 18.367 17.727,18.589 17.590,19.010 17.376 C 20.207 16.770,20.717 16.439,21.143 15.993 C 21.571 15.544,21.795 15.152,21.920 14.630 C 22.287 13.101,21.317 11.533,19.739 11.102 C 19.406 11.011,18.648 10.988,18.314 11.058 " stroke="none" fill-rule="evenodd" fill="black"></path></svg>