<svg width="24" height="24" viewBox="0 0 24 24" fill="none" xmlns="http://www.w3.org/2000/svg"><path d="M11.614 2.057 C 11.377 2.131,11.212 2.261,11.109 2.453 C 11.023 2.614,11.020 2.665,11.008 3.908 C 11.000 4.720,11.011 5.254,11.038 5.352 C 11.144 5.747,11.432 5.961,11.896 5.991 C 12.381 6.022,12.699 5.882,12.880 5.558 L 12.980 5.380 12.980 4.000 C 12.980 2.650,12.978 2.616,12.891 2.453 C 12.842 2.362,12.746 2.247,12.678 2.199 C 12.414 2.010,11.957 1.950,11.614 2.057 M4.660 4.887 C 4.222 5.051,3.839 5.529,3.841 5.909 C 3.843 6.218,3.964 6.379,4.892 7.308 C 5.836 8.252,5.980 8.357,6.317 8.359 C 6.549 8.360,6.780 8.245,7.013 8.013 C 7.356 7.669,7.442 7.326,7.277 6.960 C 7.171 6.726,5.496 5.048,5.262 4.941 C 5.064 4.850,4.817 4.828,4.660 4.887 M18.860 4.889 C 18.794 4.913,18.668 4.981,18.580 5.042 C 18.318 5.223,16.819 6.763,16.725 6.948 C 16.550 7.295,16.642 7.667,16.987 8.013 C 17.331 8.356,17.674 8.442,18.040 8.277 C 18.305 8.157,19.953 6.494,20.078 6.221 C 20.205 5.943,20.178 5.710,19.984 5.418 C 19.692 4.978,19.226 4.759,18.860 4.889 M11.380 7.043 C 8.457 7.331,6.157 9.763,6.013 12.718 C 5.980 13.394,6.085 13.682,6.438 13.876 C 6.644 13.990,7.089 14.033,7.344 13.965 C 7.794 13.843,7.948 13.602,8.002 12.932 C 8.070 12.098,8.159 11.756,8.464 11.160 C 8.924 10.261,9.771 9.538,10.755 9.203 C 11.050 9.103,11.680 9.000,12.000 9.000 C 12.121 9.000,12.393 9.027,12.605 9.058 C 14.067 9.279,15.311 10.326,15.791 11.740 C 15.900 12.061,15.955 12.377,15.996 12.931 C 16.024 13.299,16.050 13.429,16.125 13.565 C 16.286 13.856,16.575 14.000,17.000 14.000 C 17.428 14.000,17.713 13.856,17.880 13.558 C 17.974 13.390,17.980 13.347,17.976 12.820 C 17.958 10.391,16.298 8.133,13.940 7.329 C 13.131 7.053,12.261 6.956,11.380 7.043 M1.614 12.057 C 1.377 12.131,1.212 12.261,1.109 12.453 C 1.035 12.592,1.020 12.684,1.020 13.000 C 1.020 13.331,1.033 13.403,1.120 13.558 C 1.230 13.755,1.414 13.898,1.635 13.959 C 1.826 14.012,4.174 14.012,4.365 13.959 C 4.586 13.898,4.770 13.755,4.880 13.558 C 4.967 13.402,4.980 13.332,4.979 13.000 C 4.978 12.687,4.962 12.591,4.890 12.453 C 4.786 12.256,4.623 12.131,4.371 12.055 C 4.117 11.979,1.859 11.981,1.614 12.057 M19.614 12.057 C 19.377 12.131,19.212 12.261,19.109 12.453 C 19.035 12.592,19.020 12.684,19.020 13.000 C 19.020 13.331,19.033 13.403,19.120 13.558 C 19.230 13.755,19.414 13.898,19.635 13.959 C 19.826 14.012,22.174 14.012,22.365 13.959 C 22.586 13.898,22.770 13.755,22.880 13.558 C 22.967 13.402,22.980 13.332,22.979 13.000 C 22.978 12.687,22.962 12.591,22.890 12.453 C 22.786 12.256,22.623 12.131,22.371 12.055 C 22.117 11.979,19.859 11.981,19.614 12.057 M3.440 16.043 C 2.563 16.127,1.554 16.478,1.253 16.805 C 1.049 17.027,1.020 17.422,1.181 17.787 C 1.472 18.444,1.831 18.577,2.569 18.301 C 3.171 18.076,3.436 18.027,4.060 18.025 C 4.729 18.022,5.021 18.080,5.731 18.357 C 6.606 18.699,7.179 18.811,8.040 18.811 C 8.901 18.811,9.474 18.699,10.349 18.357 C 11.046 18.085,11.353 18.023,12.000 18.023 C 12.647 18.023,12.954 18.085,13.651 18.357 C 14.526 18.699,15.099 18.811,15.960 18.811 C 16.821 18.811,17.394 18.699,18.269 18.357 C 18.979 18.080,19.271 18.022,19.940 18.025 C 20.564 18.027,20.829 18.076,21.431 18.301 C 22.169 18.577,22.528 18.444,22.819 17.787 C 22.980 17.422,22.951 17.027,22.747 16.805 C 22.424 16.454,21.432 16.125,20.433 16.036 C 19.470 15.951,18.569 16.091,17.593 16.476 C 16.922 16.740,16.581 16.810,15.960 16.810 C 15.339 16.810,14.998 16.740,14.327 16.476 C 13.351 16.091,12.450 15.951,11.487 16.036 C 10.844 16.093,10.322 16.220,9.673 16.476 C 9.002 16.740,8.661 16.810,8.040 16.810 C 7.415 16.810,7.088 16.742,6.370 16.463 C 5.345 16.065,4.493 15.943,3.440 16.043 M11.040 19.581 C 10.579 19.659,10.279 19.746,9.664 19.979 C 9.353 20.097,8.949 20.222,8.765 20.257 C 8.066 20.389,7.257 20.309,6.580 20.041 C 6.142 19.868,5.861 19.843,5.627 19.957 C 5.303 20.114,5.043 20.582,5.041 21.012 C 5.040 21.282,5.101 21.420,5.299 21.594 C 5.492 21.763,5.664 21.846,6.177 22.018 C 7.394 22.425,8.736 22.420,9.928 22.004 C 10.177 21.918,10.533 21.792,10.720 21.725 C 11.150 21.572,11.471 21.521,12.000 21.521 C 12.529 21.521,12.850 21.572,13.280 21.725 C 13.467 21.792,13.823 21.918,14.072 22.004 C 15.264 22.420,16.606 22.425,17.823 22.018 C 18.336 21.846,18.508 21.763,18.701 21.594 C 18.899 21.420,18.960 21.282,18.959 21.012 C 18.957 20.582,18.697 20.114,18.373 19.957 C 18.139 19.843,17.858 19.868,17.420 20.041 C 16.743 20.309,15.934 20.389,15.235 20.257 C 15.051 20.222,14.647 20.097,14.336 19.979 C 13.705 19.740,13.421 19.659,12.921 19.577 C 12.502 19.509,11.453 19.510,11.040 19.581 " stroke="none" fill-rule="evenodd" fill="black"></path></svg>