<svg width="24" height="24" viewBox="0 0 24 24" fill="none" xmlns="http://www.w3.org/2000/svg"><path d="M11.614 2.057 C 11.377 2.131,11.212 2.261,11.109 2.453 C 11.023 2.614,11.020 2.665,11.008 3.908 C 11.000 4.720,11.011 5.254,11.038 5.352 C 11.144 5.747,11.432 5.961,11.896 5.991 C 12.381 6.022,12.699 5.882,12.880 5.558 L 12.980 5.380 12.980 4.000 C 12.980 2.650,12.978 2.616,12.891 2.453 C 12.842 2.362,12.746 2.247,12.678 2.199 C 12.414 2.010,11.957 1.950,11.614 2.057 M4.660 4.887 C 4.222 5.051,3.839 5.529,3.841 5.909 C 3.843 6.218,3.964 6.379,4.892 7.308 C 5.836 8.252,5.980 8.357,6.317 8.359 C 6.549 8.360,6.780 8.245,7.013 8.013 C 7.356 7.669,7.442 7.326,7.277 6.960 C 7.171 6.726,5.496 5.048,5.262 4.941 C 5.064 4.850,4.817 4.828,4.660 4.887 M18.860 4.889 C 18.794 4.913,18.668 4.981,18.580 5.042 C 18.318 5.223,16.819 6.763,16.725 6.948 C 16.550 7.295,16.642 7.667,16.987 8.013 C 17.331 8.356,17.674 8.442,18.040 8.277 C 18.305 8.157,19.953 6.494,20.078 6.221 C 20.205 5.943,20.178 5.710,19.984 5.418 C 19.692 4.978,19.226 4.759,18.860 4.889 M11.380 7.043 C 8.457 7.331,6.157 9.763,6.013 12.718 C 5.980 13.394,6.085 13.682,6.438 13.876 C 6.644 13.990,7.089 14.033,7.344 13.965 C 7.794 13.843,7.948 13.602,8.002 12.932 C 8.070 12.098,8.159 11.756,8.464 11.160 C 8.924 10.261,9.771 9.538,10.755 9.203 C 11.050 9.103,11.680 9.000,12.000 9.000 C 12.121 9.000,12.393 9.027,12.605 9.058 C 14.067 9.279,15.311 10.326,15.791 11.740 C 15.900 12.061,15.955 12.377,15.996 12.931 C 16.024 13.299,16.050 13.429,16.125 13.565 C 16.286 13.856,16.575 14.000,17.000 14.000 C 17.428 14.000,17.713 13.856,17.880 13.558 C 17.974 13.390,17.980 13.347,17.976 12.820 C 17.958 10.391,16.298 8.133,13.940 7.329 C 13.131 7.053,12.261 6.956,11.380 7.043 M1.614 12.057 C 1.377 12.131,1.212 12.261,1.109 12.453 C 1.035 12.592,1.020 12.684,1.020 13.000 C 1.020 13.331,1.033 13.403,1.120 13.558 C 1.230 13.755,1.414 13.898,1.635 13.959 C 1.826 14.012,4.174 14.012,4.365 13.959 C 4.586 13.898,4.770 13.755,4.880 13.558 C 4.967 13.402,4.980 13.332,4.979 13.000 C 4.978 12.687,4.962 12.591,4.890 12.453 C 4.786 12.256,4.623 12.131,4.371 12.055 C 4.117 11.979,1.859 11.981,1.614 12.057 M19.614 12.057 C 19.377 12.131,19.212 12.261,19.109 12.453 C 19.035 12.592,19.020 12.684,19.020 13.000 C 19.020 13.331,19.033 13.403,19.120 13.558 C 19.230 13.755,19.414 13.898,19.635 13.959 C 19.826 14.012,22.174 14.012,22.365 13.959 C 22.586 13.898,22.770 13.755,22.880 13.558 C 22.967 13.402,22.980 13.332,22.979 13.000 C 22.978 12.687,22.962 12.591,22.890 12.453 C 22.786 12.256,22.623 12.131,22.371 12.055 C 22.117 11.979,19.859 11.981,19.614 12.057 M1.545 15.579 C 1.095 15.739,0.884 16.316,1.060 16.908 C 1.130 17.143,1.341 17.359,1.585 17.445 C 1.817 17.527,22.183 17.527,22.415 17.445 C 22.786 17.314,23.000 16.968,23.000 16.500 C 23.000 16.029,22.770 15.662,22.413 15.563 C 22.307 15.533,19.109 15.521,11.980 15.522 C 3.339 15.523,1.675 15.532,1.545 15.579 M3.614 19.057 C 3.377 19.131,3.212 19.261,3.109 19.453 C 3.035 19.592,3.020 19.684,3.020 20.000 C 3.020 20.331,3.033 20.403,3.120 20.558 C 3.230 20.755,3.414 20.898,3.635 20.959 C 3.835 21.015,20.165 21.015,20.365 20.959 C 20.586 20.898,20.770 20.755,20.880 20.558 C 20.967 20.402,20.980 20.332,20.979 20.000 C 20.978 19.567,20.898 19.355,20.678 19.199 C 20.386 18.990,20.799 19.000,11.984 19.003 C 5.367 19.005,3.748 19.015,3.614 19.057 " stroke="none" fill-rule="evenodd" fill="black"></path></svg>