<svg width="24" height="24" viewBox="0 0 24 24" fill="none" xmlns="http://www.w3.org/2000/svg"><path d="M11.614 2.057 C 11.377 2.131,11.212 2.261,11.109 2.453 C 11.023 2.614,11.020 2.665,11.008 3.908 C 11.000 4.720,11.011 5.254,11.038 5.352 C 11.144 5.747,11.432 5.961,11.896 5.991 C 12.381 6.022,12.699 5.882,12.880 5.558 L 12.980 5.380 12.980 4.000 C 12.980 2.650,12.978 2.616,12.891 2.453 C 12.842 2.362,12.746 2.247,12.678 2.199 C 12.414 2.010,11.957 1.950,11.614 2.057 M3.660 4.887 C 3.222 5.051,2.839 5.529,2.841 5.909 C 2.843 6.218,2.964 6.379,3.892 7.308 C 4.836 8.252,4.980 8.357,5.317 8.359 C 5.549 8.360,5.780 8.245,6.013 8.013 C 6.356 7.669,6.442 7.326,6.277 6.960 C 6.171 6.726,4.496 5.048,4.262 4.941 C 4.064 4.850,3.817 4.828,3.660 4.887 M19.860 4.887 C 19.627 4.974,19.412 5.161,18.611 5.969 C 18.056 6.530,17.777 6.841,17.722 6.963 C 17.558 7.325,17.645 7.670,17.987 8.013 C 18.330 8.355,18.675 8.442,19.037 8.278 C 19.249 8.182,20.815 6.648,21.007 6.349 C 21.251 5.969,21.191 5.597,20.826 5.226 C 20.509 4.904,20.151 4.778,19.860 4.887 M11.540 8.023 C 10.715 8.102,10.250 8.200,9.620 8.427 C 7.709 9.115,6.187 10.615,5.456 12.531 C 5.321 12.884,5.153 13.498,5.100 13.830 L 5.073 14.000 3.443 14.000 C 1.707 14.000,1.585 14.011,1.322 14.199 C 1.100 14.357,1.020 14.568,1.020 15.000 C 1.020 15.331,1.033 15.403,1.120 15.558 C 1.230 15.755,1.414 15.898,1.635 15.959 C 1.835 16.015,22.165 16.015,22.365 15.959 C 22.586 15.898,22.770 15.755,22.880 15.558 C 22.967 15.402,22.980 15.332,22.979 15.000 C 22.978 14.567,22.898 14.355,22.678 14.199 C 22.415 14.011,22.293 14.000,20.557 14.000 L 18.927 14.000 18.900 13.830 C 18.849 13.508,18.717 13.019,18.573 12.620 C 17.715 10.237,15.581 8.473,13.102 8.098 C 12.726 8.041,11.813 7.997,11.540 8.023 M12.552 10.043 C 14.230 10.226,15.703 11.251,16.459 12.760 C 16.638 13.117,16.815 13.597,16.861 13.850 L 16.889 14.000 12.000 14.000 L 7.111 14.000 7.139 13.850 C 7.274 13.109,7.857 12.074,8.489 11.453 C 9.580 10.380,11.032 9.876,12.552 10.043 M4.614 18.057 C 4.377 18.131,4.212 18.261,4.109 18.453 C 4.035 18.592,4.020 18.684,4.020 19.000 C 4.020 19.331,4.033 19.403,4.120 19.558 C 4.230 19.755,4.414 19.898,4.635 19.959 C 4.835 20.015,19.165 20.015,19.365 19.959 C 19.586 19.898,19.770 19.755,19.880 19.558 C 19.967 19.402,19.980 19.332,19.979 19.000 C 19.978 18.567,19.898 18.355,19.678 18.199 C 19.387 17.991,19.720 18.000,11.984 18.003 C 6.188 18.005,4.747 18.016,4.614 18.057 " stroke="none" fill-rule="evenodd" fill="black"></path></svg>