<svg width="24" height="24" viewBox="0 0 24 24" fill="none" xmlns="http://www.w3.org/2000/svg"><path d="M11.614 1.057 C 11.377 1.131,11.212 1.261,11.109 1.453 C 11.023 1.614,11.020 1.665,11.008 2.908 C 11.000 3.720,11.011 4.254,11.038 4.352 C 11.144 4.747,11.432 4.961,11.896 4.991 C 12.381 5.022,12.699 4.882,12.880 4.558 L 12.980 4.380 12.980 3.000 C 12.980 1.650,12.978 1.616,12.891 1.453 C 12.842 1.362,12.746 1.247,12.678 1.199 C 12.414 1.010,11.957 0.950,11.614 1.057 M4.660 3.887 C 4.222 4.051,3.839 4.529,3.841 4.909 C 3.843 5.218,3.964 5.379,4.892 6.308 C 5.836 7.252,5.980 7.357,6.317 7.359 C 6.549 7.360,6.780 7.245,7.013 7.013 C 7.356 6.669,7.442 6.326,7.277 5.960 C 7.171 5.726,5.496 4.048,5.262 3.941 C 5.064 3.850,4.817 3.828,4.660 3.887 M18.860 3.887 C 18.627 3.974,18.412 4.161,17.611 4.969 C 17.056 5.530,16.777 5.841,16.722 5.963 C 16.558 6.325,16.645 6.670,16.987 7.013 C 17.330 7.355,17.675 7.442,18.037 7.278 C 18.249 7.182,19.815 5.648,20.007 5.349 C 20.251 4.969,20.191 4.597,19.826 4.226 C 19.509 3.904,19.151 3.778,18.860 3.887 M11.380 6.043 C 8.784 6.299,6.676 8.219,6.115 10.840 C 5.984 11.450,5.984 12.558,6.114 13.160 C 6.639 15.588,8.417 17.365,10.840 17.885 C 11.446 18.015,12.554 18.015,13.160 17.885 C 14.397 17.620,15.412 17.068,16.269 16.195 C 17.109 15.340,17.626 14.369,17.885 13.160 C 18.015 12.554,18.015 11.446,17.885 10.840 C 17.626 9.631,17.109 8.660,16.269 7.805 C 14.978 6.490,13.230 5.860,11.380 6.043 M12.605 8.058 C 14.074 8.280,15.310 9.324,15.797 10.755 C 15.897 11.050,16.000 11.680,16.000 12.000 C 16.000 12.322,15.897 12.951,15.796 13.245 C 15.321 14.632,14.195 15.628,12.773 15.917 C 10.563 16.368,8.396 14.845,8.058 12.605 C 7.986 12.121,7.986 11.879,8.058 11.395 C 8.314 9.698,9.675 8.324,11.358 8.061 C 11.816 7.990,12.144 7.989,12.605 8.058 M1.614 11.057 C 1.377 11.131,1.212 11.261,1.109 11.453 C 1.035 11.592,1.020 11.684,1.020 12.000 C 1.020 12.331,1.033 12.403,1.120 12.558 C 1.230 12.755,1.414 12.898,1.635 12.959 C 1.826 13.012,4.174 13.012,4.365 12.959 C 4.586 12.898,4.770 12.755,4.880 12.558 C 4.967 12.402,4.980 12.332,4.979 12.000 C 4.978 11.687,4.962 11.591,4.890 11.453 C 4.786 11.256,4.623 11.131,4.371 11.055 C 4.117 10.979,1.859 10.981,1.614 11.057 M19.614 11.057 C 19.377 11.131,19.212 11.261,19.109 11.453 C 19.035 11.592,19.020 11.684,19.020 12.000 C 19.020 12.331,19.033 12.403,19.120 12.558 C 19.230 12.755,19.414 12.898,19.635 12.959 C 19.826 13.012,22.174 13.012,22.365 12.959 C 22.586 12.898,22.770 12.755,22.880 12.558 C 22.967 12.402,22.980 12.332,22.979 12.000 C 22.978 11.687,22.962 11.591,22.890 11.453 C 22.786 11.256,22.623 11.131,22.371 11.055 C 22.117 10.979,19.859 10.981,19.614 11.057 M5.960 16.727 C 5.838 16.785,5.494 17.100,4.897 17.697 C 3.967 18.626,3.840 18.797,3.840 19.112 C 3.840 19.572,4.434 20.158,4.900 20.158 C 5.214 20.158,5.376 20.039,6.273 19.148 C 7.206 18.221,7.359 18.019,7.360 17.709 C 7.360 17.448,7.281 17.278,7.039 17.023 C 6.686 16.650,6.326 16.551,5.960 16.727 M17.340 16.721 C 17.127 16.830,16.817 17.140,16.719 17.342 C 16.601 17.585,16.615 17.855,16.757 18.100 C 16.825 18.218,17.224 18.649,17.727 19.148 C 18.625 20.040,18.785 20.157,19.102 20.159 C 19.562 20.162,20.156 19.571,20.159 19.110 C 20.161 18.809,20.024 18.620,19.185 17.770 C 18.241 16.813,18.055 16.671,17.729 16.652 C 17.558 16.642,17.460 16.659,17.340 16.721 M11.614 19.057 C 11.377 19.131,11.212 19.261,11.109 19.453 C 11.023 19.614,11.020 19.665,11.008 20.908 C 11.000 21.720,11.011 22.254,11.038 22.352 C 11.144 22.747,11.432 22.961,11.896 22.991 C 12.381 23.022,12.699 22.882,12.880 22.558 L 12.980 22.380 12.980 21.000 C 12.980 19.650,12.978 19.616,12.891 19.453 C 12.842 19.362,12.746 19.247,12.678 19.199 C 12.414 19.010,11.957 18.950,11.614 19.057 " stroke="none" fill-rule="evenodd" fill="black"></path></svg>