<svg width="24" height="24" viewBox="0 0 24 24" fill="none" xmlns="http://www.w3.org/2000/svg"><path d="M11.530 1.085 C 11.392 1.152,11.248 1.254,11.210 1.312 C 11.171 1.370,10.237 2.327,9.134 3.439 C 7.766 4.818,7.101 5.516,7.040 5.637 C 6.863 5.989,6.952 6.354,7.299 6.701 C 7.646 7.048,8.011 7.137,8.363 6.960 C 8.479 6.901,8.961 6.452,9.770 5.647 L 11.000 4.423 11.000 6.821 C 11.000 8.305,11.016 9.275,11.041 9.365 C 11.148 9.750,11.437 9.962,11.896 9.991 C 12.381 10.022,12.699 9.882,12.880 9.558 L 12.980 9.380 12.991 6.903 L 13.003 4.426 14.231 5.648 C 15.039 6.452,15.521 6.901,15.637 6.960 C 15.989 7.137,16.354 7.048,16.701 6.701 C 17.048 6.354,17.137 5.989,16.960 5.637 C 16.899 5.516,16.234 4.818,14.866 3.439 C 13.763 2.327,12.829 1.370,12.790 1.312 C 12.752 1.254,12.604 1.151,12.460 1.083 C 12.113 0.919,11.873 0.920,11.530 1.085 M4.660 9.887 C 4.222 10.051,3.839 10.529,3.841 10.909 C 3.843 11.218,3.964 11.379,4.892 12.308 C 5.836 13.252,5.980 13.357,6.317 13.359 C 6.549 13.360,6.780 13.245,7.013 13.013 C 7.356 12.669,7.442 12.326,7.277 11.960 C 7.171 11.726,5.496 10.048,5.262 9.941 C 5.064 9.850,4.817 9.828,4.660 9.887 M18.860 9.887 C 18.627 9.974,18.412 10.161,17.611 10.969 C 17.056 11.530,16.777 11.841,16.722 11.963 C 16.558 12.325,16.645 12.670,16.987 13.013 C 17.330 13.355,17.675 13.442,18.037 13.278 C 18.249 13.182,19.815 11.648,20.007 11.349 C 20.251 10.969,20.191 10.597,19.826 10.226 C 19.509 9.904,19.151 9.778,18.860 9.887 M11.380 12.043 C 8.457 12.331,6.157 14.763,6.013 17.718 C 5.980 18.394,6.085 18.682,6.438 18.876 C 6.644 18.990,7.089 19.033,7.344 18.965 C 7.794 18.843,7.948 18.602,8.002 17.932 C 8.070 17.098,8.159 16.756,8.464 16.160 C 8.924 15.261,9.771 14.538,10.755 14.203 C 11.050 14.103,11.680 14.000,12.000 14.000 C 12.320 14.000,12.950 14.103,13.245 14.203 C 14.229 14.538,15.076 15.261,15.536 16.160 C 15.842 16.758,15.935 17.117,15.996 17.931 C 16.024 18.299,16.050 18.429,16.125 18.565 C 16.286 18.856,16.575 19.000,17.000 19.000 C 17.428 19.000,17.713 18.856,17.880 18.558 C 17.974 18.390,17.980 18.347,17.976 17.820 C 17.958 15.391,16.298 13.133,13.940 12.329 C 13.131 12.053,12.261 11.956,11.380 12.043 M1.614 17.057 C 1.377 17.131,1.212 17.261,1.109 17.453 C 1.035 17.592,1.020 17.684,1.020 18.000 C 1.020 18.331,1.033 18.403,1.120 18.558 C 1.230 18.755,1.414 18.898,1.635 18.959 C 1.826 19.012,4.174 19.012,4.365 18.959 C 4.586 18.898,4.770 18.755,4.880 18.558 C 4.967 18.402,4.980 18.332,4.979 18.000 C 4.978 17.687,4.962 17.591,4.890 17.453 C 4.786 17.256,4.623 17.131,4.371 17.055 C 4.117 16.979,1.859 16.981,1.614 17.057 M19.614 17.057 C 19.377 17.131,19.212 17.261,19.109 17.453 C 19.035 17.592,19.020 17.684,19.020 18.000 C 19.020 18.331,19.033 18.403,19.120 18.558 C 19.230 18.755,19.414 18.898,19.635 18.959 C 19.826 19.012,22.174 19.012,22.365 18.959 C 22.586 18.898,22.770 18.755,22.880 18.558 C 22.967 18.402,22.980 18.332,22.979 18.000 C 22.978 17.687,22.962 17.591,22.890 17.453 C 22.786 17.256,22.623 17.131,22.371 17.055 C 22.117 16.979,19.859 16.981,19.614 17.057 M1.614 21.057 C 1.377 21.131,1.212 21.261,1.109 21.453 C 1.035 21.592,1.020 21.684,1.020 22.000 C 1.020 22.331,1.033 22.403,1.120 22.558 C 1.230 22.755,1.414 22.898,1.635 22.959 C 1.835 23.015,22.165 23.015,22.365 22.959 C 22.586 22.898,22.770 22.755,22.880 22.558 C 22.967 22.402,22.980 22.332,22.979 22.000 C 22.978 21.567,22.898 21.355,22.678 21.199 C 22.384 20.989,22.955 21.000,11.984 21.003 C 3.725 21.005,1.748 21.015,1.614 21.057 " stroke="none" fill-rule="evenodd" fill="black"></path></svg>