<svg width="24" height="24" viewBox="0 0 24 24" fill="none" xmlns="http://www.w3.org/2000/svg"><path d="M11.614 1.057 C 11.377 1.131,11.212 1.261,11.109 1.453 C 11.020 1.620,11.020 1.623,11.009 4.097 L 10.998 6.575 9.769 5.352 C 9.000 4.587,8.477 4.098,8.372 4.045 C 8.020 3.868,7.639 3.958,7.299 4.299 C 6.952 4.646,6.863 5.011,7.040 5.363 C 7.101 5.484,7.766 6.182,9.134 7.561 C 10.237 8.673,11.174 9.634,11.216 9.696 C 11.318 9.850,11.761 10.049,12.000 10.049 C 12.239 10.049,12.682 9.850,12.784 9.696 C 12.826 9.634,13.763 8.673,14.866 7.561 C 16.234 6.182,16.899 5.484,16.960 5.363 C 17.137 5.011,17.048 4.646,16.701 4.299 C 16.361 3.958,15.980 3.868,15.628 4.045 C 15.523 4.098,15.000 4.587,14.231 5.352 L 13.003 6.574 12.991 4.097 C 12.980 1.623,12.980 1.620,12.891 1.453 C 12.842 1.362,12.746 1.247,12.678 1.199 C 12.414 1.010,11.957 0.950,11.614 1.057 M4.660 9.887 C 4.222 10.051,3.839 10.529,3.841 10.909 C 3.843 11.218,3.964 11.379,4.892 12.308 C 5.836 13.252,5.980 13.357,6.317 13.359 C 6.549 13.360,6.780 13.245,7.013 13.013 C 7.356 12.669,7.442 12.326,7.277 11.960 C 7.171 11.726,5.496 10.048,5.262 9.941 C 5.064 9.850,4.817 9.828,4.660 9.887 M18.860 9.887 C 18.627 9.974,18.412 10.161,17.611 10.969 C 17.056 11.530,16.777 11.841,16.722 11.963 C 16.558 12.325,16.645 12.670,16.987 13.013 C 17.330 13.355,17.675 13.442,18.037 13.278 C 18.249 13.182,19.815 11.648,20.007 11.349 C 20.251 10.969,20.191 10.597,19.826 10.226 C 19.509 9.904,19.151 9.778,18.860 9.887 M11.380 12.043 C 8.457 12.331,6.157 14.763,6.013 17.718 C 5.980 18.394,6.085 18.682,6.438 18.876 C 6.644 18.990,7.089 19.033,7.344 18.965 C 7.794 18.843,7.948 18.602,8.002 17.932 C 8.070 17.098,8.159 16.756,8.464 16.160 C 8.924 15.261,9.771 14.538,10.755 14.203 C 11.050 14.103,11.680 14.000,12.000 14.000 C 12.320 14.000,12.950 14.103,13.245 14.203 C 14.229 14.538,15.076 15.261,15.536 16.160 C 15.842 16.758,15.935 17.117,15.996 17.931 C 16.024 18.299,16.050 18.429,16.125 18.565 C 16.286 18.856,16.575 19.000,17.000 19.000 C 17.428 19.000,17.713 18.856,17.880 18.558 C 17.974 18.390,17.980 18.347,17.976 17.820 C 17.958 15.391,16.298 13.133,13.940 12.329 C 13.131 12.053,12.261 11.956,11.380 12.043 M1.614 17.057 C 1.377 17.131,1.212 17.261,1.109 17.453 C 1.035 17.592,1.020 17.684,1.020 18.000 C 1.020 18.331,1.033 18.403,1.120 18.558 C 1.230 18.755,1.414 18.898,1.635 18.959 C 1.826 19.012,4.174 19.012,4.365 18.959 C 4.586 18.898,4.770 18.755,4.880 18.558 C 4.967 18.402,4.980 18.332,4.979 18.000 C 4.978 17.687,4.962 17.591,4.890 17.453 C 4.786 17.256,4.623 17.131,4.371 17.055 C 4.117 16.979,1.859 16.981,1.614 17.057 M19.614 17.057 C 19.377 17.131,19.212 17.261,19.109 17.453 C 19.035 17.592,19.020 17.684,19.020 18.000 C 19.020 18.331,19.033 18.403,19.120 18.558 C 19.230 18.755,19.414 18.898,19.635 18.959 C 19.826 19.012,22.174 19.012,22.365 18.959 C 22.586 18.898,22.770 18.755,22.880 18.558 C 22.967 18.402,22.980 18.332,22.979 18.000 C 22.978 17.687,22.962 17.591,22.890 17.453 C 22.786 17.256,22.623 17.131,22.371 17.055 C 22.117 16.979,19.859 16.981,19.614 17.057 M1.614 21.057 C 1.377 21.131,1.212 21.261,1.109 21.453 C 1.035 21.592,1.020 21.684,1.020 22.000 C 1.020 22.331,1.033 22.403,1.120 22.558 C 1.230 22.755,1.414 22.898,1.635 22.959 C 1.835 23.015,22.165 23.015,22.365 22.959 C 22.586 22.898,22.770 22.755,22.880 22.558 C 22.967 22.402,22.980 22.332,22.979 22.000 C 22.978 21.567,22.898 21.355,22.678 21.199 C 22.384 20.989,22.955 21.000,11.984 21.003 C 3.725 21.005,1.748 21.015,1.614 21.057 " stroke="none" fill-rule="evenodd" fill="black"></path></svg>