<svg width="24" height="24" viewBox="0 0 24 24" fill="none" xmlns="http://www.w3.org/2000/svg"><path d="M7.620 2.046 C 7.525 2.095,6.652 2.932,5.460 4.118 C 4.360 5.213,3.399 6.150,3.324 6.201 C 3.149 6.321,2.951 6.745,2.951 7.000 C 2.951 7.239,3.150 7.682,3.304 7.784 C 3.366 7.826,4.327 8.763,5.439 9.866 C 6.818 11.234,7.516 11.899,7.637 11.960 C 7.989 12.137,8.354 12.048,8.701 11.701 C 9.048 11.354,9.137 10.989,8.960 10.637 C 8.901 10.521,8.452 10.039,7.647 9.230 L 6.423 8.000 13.321 8.000 C 17.819 8.000,20.270 7.986,20.365 7.959 C 20.586 7.898,20.770 7.755,20.880 7.558 C 20.967 7.402,20.980 7.332,20.979 7.000 C 20.978 6.567,20.898 6.355,20.678 6.199 C 20.388 5.992,20.694 6.000,13.305 6.000 L 6.423 6.000 7.647 4.770 C 8.452 3.961,8.901 3.479,8.960 3.363 C 9.137 3.011,9.048 2.646,8.701 2.299 C 8.361 1.959,7.967 1.867,7.620 2.046 M15.626 12.045 C 15.257 12.239,14.951 12.673,14.951 13.000 C 14.951 13.333,15.056 13.467,16.353 14.770 L 17.577 16.000 10.695 16.000 C 3.306 16.000,3.612 15.992,3.322 16.199 C 3.100 16.357,3.020 16.568,3.020 17.000 C 3.020 17.331,3.033 17.403,3.120 17.558 C 3.230 17.755,3.414 17.898,3.635 17.959 C 3.730 17.986,6.181 18.000,10.679 18.000 L 17.577 18.000 16.353 19.230 C 15.548 20.039,15.099 20.521,15.040 20.637 C 14.863 20.989,14.952 21.354,15.299 21.701 C 15.646 22.048,16.011 22.137,16.363 21.960 C 16.484 21.899,17.182 21.234,18.561 19.866 C 19.673 18.763,20.634 17.826,20.696 17.784 C 20.850 17.682,21.049 17.239,21.049 17.000 C 21.049 16.745,20.851 16.321,20.676 16.201 C 20.601 16.150,19.640 15.213,18.540 14.118 C 17.232 12.817,16.482 12.099,16.372 12.044 C 16.152 11.934,15.835 11.935,15.626 12.045 " stroke="none" fill-rule="evenodd" fill="black"></path></svg>