<svg width="24" height="24" viewBox="0 0 24 24" fill="none" xmlns="http://www.w3.org/2000/svg"><path d="M16.530 3.085 C 16.392 3.152,16.248 3.254,16.210 3.312 C 16.171 3.370,15.237 4.327,14.134 5.439 C 12.766 6.818,12.101 7.516,12.040 7.637 C 11.863 7.989,11.952 8.354,12.299 8.701 C 12.646 9.048,13.011 9.137,13.363 8.960 C 13.479 8.901,13.961 8.452,14.770 7.647 L 16.000 6.423 16.000 13.321 C 16.000 17.819,16.014 20.270,16.041 20.365 C 16.148 20.750,16.437 20.962,16.896 20.991 C 17.381 21.022,17.699 20.882,17.880 20.558 L 17.980 20.380 17.991 13.402 L 18.001 6.424 19.231 7.647 C 20.039 8.452,20.521 8.901,20.637 8.960 C 20.989 9.137,21.354 9.048,21.701 8.701 C 22.048 8.354,22.137 7.989,21.960 7.637 C 21.899 7.516,21.234 6.818,19.866 5.439 C 18.763 4.327,17.829 3.370,17.790 3.312 C 17.752 3.254,17.604 3.151,17.460 3.083 C 17.113 2.919,16.873 2.920,16.530 3.085 M6.614 3.057 C 6.377 3.131,6.212 3.261,6.109 3.453 L 6.020 3.620 6.010 10.598 L 5.999 17.576 4.770 16.353 C 4.001 15.588,3.477 15.098,3.372 15.045 C 3.020 14.868,2.639 14.958,2.299 15.299 C 1.952 15.646,1.863 16.011,2.040 16.363 C 2.101 16.484,2.766 17.182,4.134 18.561 C 5.237 19.673,6.174 20.634,6.216 20.696 C 6.318 20.850,6.761 21.049,7.000 21.049 C 7.239 21.049,7.682 20.850,7.784 20.696 C 7.826 20.634,8.763 19.673,9.866 18.561 C 11.234 17.182,11.899 16.484,11.960 16.363 C 12.137 16.011,12.048 15.646,11.701 15.299 C 11.361 14.958,10.980 14.868,10.628 15.045 C 10.523 15.098,9.999 15.588,9.231 16.353 L 8.001 17.576 7.991 10.598 L 7.980 3.620 7.891 3.453 C 7.842 3.362,7.746 3.247,7.678 3.199 C 7.414 3.010,6.957 2.950,6.614 3.057 " stroke="none" fill-rule="evenodd" fill="black"></path></svg>