<svg width="24" height="24" viewBox="0 0 24 24" fill="none" xmlns="http://www.w3.org/2000/svg"><path d="M15.626 2.045 C 15.257 2.239,14.951 2.673,14.951 3.000 C 14.951 3.333,15.056 3.467,16.353 4.770 L 17.577 6.000 10.695 6.000 C 3.306 6.000,3.612 5.992,3.322 6.199 C 3.100 6.357,3.020 6.568,3.020 7.000 C 3.020 7.331,3.033 7.403,3.120 7.558 C 3.230 7.755,3.414 7.898,3.635 7.959 C 3.730 7.986,6.181 8.000,10.679 8.000 L 17.577 8.000 16.353 9.230 C 15.548 10.039,15.099 10.521,15.040 10.637 C 14.863 10.989,14.952 11.354,15.299 11.701 C 15.646 12.048,16.011 12.137,16.363 11.960 C 16.484 11.899,17.182 11.234,18.561 9.866 C 19.673 8.763,20.634 7.826,20.696 7.784 C 20.850 7.682,21.049 7.239,21.049 7.000 C 21.049 6.745,20.851 6.321,20.676 6.201 C 20.601 6.150,19.640 5.213,18.540 4.118 C 17.232 2.817,16.482 2.099,16.372 2.044 C 16.152 1.934,15.835 1.935,15.626 2.045 M7.620 12.046 C 7.525 12.095,6.652 12.932,5.460 14.118 C 4.360 15.213,3.399 16.150,3.324 16.201 C 3.149 16.321,2.951 16.745,2.951 17.000 C 2.951 17.239,3.150 17.682,3.304 17.784 C 3.366 17.826,4.327 18.763,5.439 19.866 C 6.818 21.234,7.516 21.899,7.637 21.960 C 7.989 22.137,8.354 22.048,8.701 21.701 C 9.048 21.354,9.137 20.989,8.960 20.637 C 8.901 20.521,8.452 20.039,7.647 19.230 L 6.423 18.000 13.321 18.000 C 17.819 18.000,20.270 17.986,20.365 17.959 C 20.586 17.898,20.770 17.755,20.880 17.558 C 20.967 17.402,20.980 17.332,20.979 17.000 C 20.978 16.567,20.898 16.355,20.678 16.199 C 20.388 15.992,20.694 16.000,13.305 16.000 L 6.423 16.000 7.647 14.770 C 8.452 13.961,8.901 13.479,8.960 13.363 C 9.137 13.011,9.048 12.646,8.701 12.299 C 8.361 11.959,7.967 11.867,7.620 12.046 " stroke="none" fill-rule="evenodd" fill="black"></path></svg>