<svg width="24" height="24" viewBox="0 0 24 24" fill="none" xmlns="http://www.w3.org/2000/svg"><path d="M5.614 1.057 C 5.377 1.131,5.212 1.261,5.109 1.453 C 5.035 1.592,5.020 1.684,5.020 2.000 C 5.020 2.331,5.033 2.403,5.120 2.558 C 5.230 2.755,5.414 2.898,5.635 2.959 C 5.725 2.984,6.728 3.000,8.260 3.002 C 9.624 3.003,10.869 3.018,11.026 3.037 C 11.205 3.057,11.422 3.119,11.606 3.202 C 11.896 3.333,11.960 3.395,16.180 7.603 C 19.218 10.633,20.512 11.897,20.637 11.960 C 20.990 12.137,21.354 12.048,21.701 11.701 C 22.048 11.355,22.137 10.990,21.961 10.637 C 21.898 10.511,20.695 9.280,17.786 6.366 C 15.539 4.114,13.531 2.130,13.325 1.957 C 12.702 1.435,11.999 1.129,11.229 1.043 C 10.641 0.977,5.830 0.990,5.614 1.057 M4.522 4.566 C 3.883 4.659,3.340 4.933,2.877 5.397 C 2.382 5.892,2.131 6.438,2.040 7.221 C 2.009 7.492,1.999 8.275,2.010 9.660 C 2.028 11.934,2.023 11.883,2.320 12.500 C 2.430 12.729,2.576 12.934,2.832 13.220 C 3.448 13.906,11.925 22.335,12.220 22.554 C 12.802 22.986,13.310 23.159,14.000 23.159 C 14.690 23.159,15.198 22.986,15.780 22.554 C 16.144 22.284,20.282 18.146,20.554 17.780 C 20.973 17.217,21.160 16.668,21.160 16.000 C 21.160 15.332,20.973 14.783,20.554 14.220 C 20.333 13.923,12.416 5.958,11.745 5.357 C 11.340 4.995,10.945 4.756,10.520 4.615 C 10.317 4.548,10.090 4.542,7.540 4.535 C 5.974 4.531,4.668 4.544,4.522 4.566 M10.111 6.617 C 10.390 6.760,18.954 15.346,19.074 15.603 C 19.188 15.844,19.188 16.156,19.074 16.397 C 18.950 16.660,14.659 20.952,14.397 21.074 C 14.156 21.188,13.844 21.188,13.603 21.074 C 13.463 21.009,12.342 19.913,8.827 16.404 C 6.161 13.743,4.189 11.744,4.127 11.640 L 4.020 11.460 4.020 9.380 C 4.020 7.462,4.026 7.285,4.093 7.111 C 4.185 6.871,4.466 6.617,4.694 6.566 C 4.786 6.545,5.989 6.527,7.391 6.524 L 9.923 6.520 10.111 6.617 " stroke="none" fill-rule="evenodd" fill="black"></path></svg>