<svg width="24" height="24" viewBox="0 0 24 24" fill="none" xmlns="http://www.w3.org/2000/svg"><path d="M11.280 1.023 C 11.203 1.032,10.951 1.059,10.720 1.083 C 9.527 1.210,8.337 1.558,7.180 2.120 C 6.045 2.671,5.193 3.285,4.238 4.239 C 3.277 5.198,2.643 6.080,2.097 7.220 C 0.301 10.968,0.728 15.286,3.226 18.633 C 3.701 19.269,4.753 20.316,5.400 20.797 C 9.364 23.745,14.666 23.734,18.637 20.770 C 19.246 20.316,20.316 19.246,20.770 18.637 C 23.744 14.652,23.744 9.348,20.770 5.363 C 20.316 4.755,19.247 3.686,18.640 3.235 C 17.045 2.049,15.365 1.360,13.423 1.096 C 13.000 1.038,11.574 0.990,11.280 1.023 M11.000 4.650 C 11.000 5.578,11.017 6.279,11.041 6.365 C 11.148 6.750,11.437 6.962,11.896 6.991 C 12.381 7.022,12.699 6.882,12.880 6.558 L 12.980 6.380 12.992 4.725 L 13.004 3.069 13.241 3.094 C 14.335 3.208,15.864 3.774,16.880 4.440 C 17.947 5.140,18.860 6.053,19.560 7.120 C 20.227 8.137,20.792 9.665,20.906 10.761 L 20.931 11.000 19.372 11.000 C 17.712 11.000,17.583 11.012,17.322 11.199 C 17.100 11.357,17.020 11.568,17.020 12.000 C 17.020 12.331,17.033 12.403,17.120 12.558 C 17.230 12.755,17.414 12.898,17.635 12.959 C 17.721 12.983,18.424 13.000,19.356 13.000 L 20.931 13.000 20.906 13.239 C 20.792 14.335,20.227 15.863,19.560 16.880 C 19.038 17.676,18.297 18.493,17.600 19.043 C 16.352 20.027,14.751 20.716,13.252 20.914 L 13.004 20.946 12.992 19.283 C 12.980 17.642,12.979 17.618,12.889 17.450 C 12.724 17.140,12.329 16.970,11.874 17.011 C 11.439 17.051,11.141 17.274,11.041 17.635 C 11.017 17.721,11.000 18.426,11.000 19.363 L 11.000 20.947 10.750 20.914 C 9.232 20.714,7.609 20.011,6.370 19.019 C 5.670 18.458,4.957 17.668,4.440 16.880 C 3.773 15.863,3.208 14.335,3.094 13.239 L 3.069 13.000 4.644 13.000 C 5.576 13.000,6.279 12.983,6.365 12.959 C 6.586 12.898,6.770 12.755,6.880 12.558 C 6.967 12.402,6.980 12.332,6.979 12.000 C 6.978 11.567,6.898 11.355,6.678 11.199 C 6.417 11.012,6.288 11.000,4.628 11.000 L 3.069 11.000 3.094 10.761 C 3.208 9.665,3.773 8.137,4.440 7.120 C 5.140 6.053,6.053 5.140,7.120 4.440 C 7.944 3.900,9.191 3.386,10.120 3.205 C 10.351 3.160,10.576 3.115,10.620 3.106 C 10.664 3.097,10.768 3.087,10.850 3.085 L 11.000 3.080 11.000 4.650 " stroke="none" fill-rule="evenodd" fill="black"></path></svg>