<svg width="24" height="24" viewBox="0 0 24 24" fill="none" xmlns="http://www.w3.org/2000/svg"><path d="M11.614 1.057 C 11.377 1.131,11.212 1.261,11.109 1.453 C 11.028 1.605,11.019 1.687,11.007 2.345 L 10.994 3.069 10.758 3.094 C 9.665 3.208,8.136 3.774,7.120 4.440 C 5.723 5.357,4.668 6.544,3.940 8.020 C 3.509 8.894,3.230 9.764,3.108 10.620 L 3.056 10.980 2.357 11.000 C 1.706 11.019,1.644 11.027,1.459 11.122 C 1.144 11.284,1.000 11.560,1.000 12.000 C 1.000 12.428,1.144 12.713,1.442 12.880 C 1.609 12.974,1.666 12.981,2.338 13.000 L 3.056 13.020 3.108 13.380 C 3.317 14.835,3.993 16.377,4.960 17.604 C 5.286 18.016,5.924 18.660,6.341 18.997 C 7.556 19.976,9.148 20.681,10.620 20.892 L 10.980 20.944 11.000 21.662 C 11.019 22.334,11.026 22.391,11.120 22.558 C 11.287 22.856,11.572 23.000,12.000 23.000 C 12.428 23.000,12.713 22.856,12.880 22.558 C 12.973 22.392,12.981 22.333,13.000 21.662 L 13.020 20.944 13.380 20.892 C 14.851 20.681,16.445 19.975,17.657 18.998 C 19.365 17.620,20.588 15.497,20.892 13.380 L 20.944 13.020 21.662 12.999 C 22.294 12.981,22.399 12.969,22.540 12.894 C 22.875 12.716,22.978 12.504,22.978 12.000 C 22.978 11.572,22.899 11.356,22.686 11.204 C 22.466 11.048,22.347 11.025,21.642 11.002 L 20.944 10.980 20.892 10.620 C 20.681 9.151,19.975 7.555,19.001 6.347 C 18.448 5.661,17.658 4.951,16.880 4.440 C 15.870 3.777,14.331 3.208,13.242 3.094 L 13.007 3.069 12.993 2.345 C 12.979 1.691,12.969 1.604,12.890 1.453 C 12.841 1.362,12.746 1.247,12.678 1.199 C 12.414 1.010,11.957 0.950,11.614 1.057 M11.000 5.650 C 11.000 5.964,11.019 6.285,11.041 6.365 C 11.148 6.750,11.437 6.962,11.896 6.991 C 12.381 7.022,12.699 6.882,12.880 6.558 C 12.972 6.393,12.980 6.334,12.994 5.730 L 13.008 5.080 13.174 5.104 C 13.480 5.149,13.977 5.282,14.380 5.427 C 16.070 6.035,17.457 7.276,18.274 8.910 C 18.545 9.452,18.818 10.295,18.896 10.830 L 18.921 11.000 18.367 11.000 C 17.580 11.000,17.297 11.102,17.109 11.453 C 17.035 11.592,17.020 11.684,17.020 12.000 C 17.020 12.331,17.033 12.403,17.120 12.558 C 17.230 12.755,17.414 12.898,17.635 12.959 C 17.715 12.981,18.037 13.000,18.350 13.000 L 18.921 13.000 18.896 13.170 C 18.818 13.705,18.545 14.548,18.274 15.090 C 17.352 16.933,15.678 18.291,13.725 18.777 C 13.513 18.830,13.265 18.885,13.174 18.899 L 13.008 18.926 12.993 18.273 C 12.975 17.527,12.923 17.362,12.649 17.182 C 12.199 16.887,11.426 16.979,11.170 17.358 C 11.030 17.566,11.000 17.738,11.000 18.354 L 11.000 18.927 10.830 18.900 C 8.921 18.596,7.074 17.349,6.046 15.669 C 5.588 14.921,5.214 13.930,5.104 13.170 L 5.079 13.000 5.650 13.000 C 5.963 13.000,6.285 12.981,6.365 12.959 C 6.586 12.898,6.770 12.755,6.880 12.558 C 6.967 12.402,6.980 12.332,6.979 12.000 C 6.978 11.687,6.962 11.591,6.890 11.453 C 6.705 11.103,6.420 11.000,5.633 11.000 L 5.079 11.000 5.104 10.830 C 5.149 10.520,5.281 10.025,5.427 9.620 C 6.032 7.939,7.268 6.553,8.889 5.735 C 9.470 5.442,10.419 5.143,10.950 5.085 C 10.988 5.081,11.000 5.218,11.000 5.650 " stroke="none" fill-rule="evenodd" fill="black"></path></svg>