<svg width="24" height="24" viewBox="0 0 24 24" fill="none" xmlns="http://www.w3.org/2000/svg"><path d="M18.620 1.046 C 18.413 1.153,15.271 4.279,15.127 4.520 L 15.020 4.700 15.008 6.140 L 14.997 7.580 13.063 9.520 C 11.735 10.852,11.101 11.516,11.040 11.637 C 10.863 11.989,10.952 12.354,11.299 12.701 C 11.646 13.048,12.011 13.137,12.363 12.960 C 12.484 12.899,13.148 12.265,14.480 10.937 L 16.420 9.003 17.860 8.992 L 19.300 8.980 19.480 8.873 C 19.579 8.814,20.375 8.049,21.248 7.173 C 22.953 5.463,22.982 5.427,23.028 4.980 C 23.057 4.704,22.938 4.443,22.705 4.272 C 22.614 4.206,22.138 3.951,21.647 3.706 L 20.753 3.260 20.276 2.312 C 19.776 1.319,19.696 1.210,19.332 1.025 C 19.153 0.934,18.818 0.944,18.620 1.046 M11.280 1.026 C 9.617 1.179,8.507 1.476,7.180 2.120 C 6.045 2.671,5.193 3.285,4.238 4.239 C 3.277 5.198,2.643 6.080,2.097 7.220 C 0.301 10.968,0.728 15.286,3.226 18.633 C 3.701 19.269,4.753 20.316,5.400 20.797 C 9.364 23.745,14.666 23.734,18.637 20.770 C 19.246 20.316,20.316 19.246,20.770 18.637 C 22.046 16.928,22.785 14.989,22.963 12.888 C 23.050 11.854,22.975 11.410,22.678 11.199 C 22.315 10.940,21.685 10.940,21.322 11.199 C 21.089 11.364,21.031 11.550,20.994 12.240 C 20.915 13.716,20.662 14.740,20.080 15.940 C 19.375 17.394,18.311 18.607,16.927 19.532 C 16.138 20.060,14.876 20.588,13.908 20.797 C 11.266 21.366,8.479 20.708,6.370 19.019 C 4.857 17.807,3.722 16.029,3.267 14.160 C 3.081 13.397,3.023 12.888,3.023 12.000 C 3.023 10.507,3.280 9.379,3.920 8.060 C 4.799 6.247,6.247 4.799,8.060 3.920 C 9.260 3.338,10.284 3.085,11.760 3.006 C 12.547 2.964,12.706 2.897,12.904 2.520 C 13.018 2.305,13.009 1.679,12.890 1.453 C 12.717 1.126,12.402 0.996,11.804 1.006 C 11.593 1.010,11.357 1.019,11.280 1.026 M18.947 4.132 C 19.059 4.358,19.199 4.600,19.257 4.669 C 19.318 4.742,19.550 4.890,19.811 5.023 C 20.058 5.148,20.268 5.258,20.278 5.267 C 20.288 5.276,19.910 5.669,19.439 6.141 L 18.581 7.000 17.790 7.000 L 17.000 7.000 17.000 6.210 L 17.000 5.421 17.850 4.570 C 18.317 4.103,18.709 3.720,18.721 3.720 C 18.732 3.720,18.834 3.905,18.947 4.132 M11.380 6.043 C 8.784 6.299,6.676 8.219,6.115 10.840 C 5.984 11.450,5.984 12.558,6.114 13.160 C 6.639 15.588,8.417 17.365,10.840 17.885 C 11.190 17.960,11.383 17.975,12.000 17.975 C 12.822 17.975,13.248 17.909,13.940 17.672 C 16.302 16.863,17.958 14.610,17.976 12.180 C 17.980 11.673,17.972 11.604,17.891 11.453 C 17.689 11.076,17.138 10.902,16.629 11.055 C 16.181 11.190,16.045 11.408,15.996 12.074 C 15.937 12.863,15.844 13.230,15.557 13.804 C 15.014 14.892,13.989 15.670,12.773 15.917 C 10.563 16.368,8.396 14.845,8.058 12.605 C 7.986 12.121,7.986 11.879,8.058 11.395 C 8.280 9.926,9.324 8.690,10.755 8.203 C 11.049 8.103,11.678 8.001,12.000 8.000 C 12.428 7.999,12.713 7.856,12.880 7.558 C 12.967 7.402,12.980 7.332,12.979 7.000 C 12.978 6.687,12.962 6.591,12.890 6.453 C 12.679 6.053,12.303 5.951,11.380 6.043 " stroke="none" fill-rule="evenodd" fill="black"></path></svg>