<svg width="24" height="24" viewBox="0 0 24 24" fill="none" xmlns="http://www.w3.org/2000/svg"><path d="M20.020 1.696 C 19.559 1.801,18.488 2.121,18.202 2.239 C 17.590 2.491,17.079 2.911,16.799 3.391 L 16.660 3.629 10.723 5.220 C 7.458 6.095,4.695 6.851,4.583 6.901 C 4.170 7.084,3.866 7.455,3.747 7.922 L 3.692 8.136 2.876 8.361 C 2.427 8.484,1.976 8.626,1.873 8.676 C 1.640 8.788,1.304 9.139,1.188 9.390 C 1.115 9.546,1.100 9.651,1.101 9.980 C 1.103 10.348,1.125 10.459,1.377 11.380 C 1.528 11.930,1.702 12.481,1.763 12.604 C 1.909 12.895,2.251 13.208,2.550 13.322 C 2.933 13.468,3.210 13.446,4.166 13.189 L 4.992 12.968 5.229 13.198 C 5.417 13.382,5.521 13.447,5.739 13.520 C 6.160 13.660,6.440 13.623,7.820 13.248 L 8.980 12.933 9.007 13.349 C 9.044 13.921,9.204 14.416,9.504 14.884 L 9.571 14.987 7.344 18.254 C 6.119 20.050,5.081 21.596,5.039 21.690 C 4.945 21.898,4.938 22.202,5.024 22.382 C 5.111 22.567,5.402 22.826,5.652 22.942 C 6.039 23.123,6.399 23.050,6.683 22.733 C 6.758 22.649,7.810 21.126,9.020 19.350 L 11.220 16.120 11.420 16.150 C 11.649 16.184,12.281 16.190,12.586 16.160 L 12.792 16.140 15.000 19.380 C 16.215 21.162,17.265 22.680,17.334 22.754 C 17.712 23.155,18.251 23.127,18.734 22.681 C 19.067 22.374,19.131 22.030,18.930 21.636 C 18.870 21.517,17.832 19.972,16.625 18.203 L 14.430 14.986 14.496 14.883 C 14.645 14.651,14.798 14.320,14.886 14.039 C 14.965 13.788,14.979 13.654,14.979 13.200 C 14.979 12.576,14.906 12.270,14.636 11.765 C 14.549 11.602,14.483 11.465,14.489 11.460 C 14.495 11.456,15.389 11.214,16.475 10.924 L 18.450 10.396 18.775 10.556 C 19.616 10.968,20.226 10.960,21.858 10.516 C 22.187 10.427,22.544 10.309,22.651 10.254 C 22.917 10.119,23.184 9.842,23.313 9.568 C 23.405 9.371,23.420 9.288,23.420 8.960 C 23.420 8.592,23.396 8.489,22.631 5.654 C 22.197 4.045,21.799 2.632,21.746 2.514 C 21.457 1.872,20.740 1.532,20.020 1.696 M20.686 6.142 C 21.034 7.439,21.319 8.520,21.319 8.544 C 21.320 8.592,20.888 8.718,20.367 8.822 C 20.087 8.878,20.005 8.881,19.855 8.839 C 19.610 8.770,19.378 8.593,19.279 8.398 C 19.184 8.212,18.941 7.382,18.613 6.125 C 18.332 5.050,18.313 4.765,18.500 4.457 C 18.593 4.304,18.672 4.234,18.851 4.145 C 19.077 4.032,19.944 3.757,20.017 3.775 C 20.037 3.780,20.338 4.845,20.686 6.142 M16.450 5.810 C 16.505 5.953,17.210 8.643,17.196 8.655 C 17.135 8.707,6.629 11.485,6.602 11.456 C 6.551 11.401,5.824 8.643,5.853 8.614 C 5.873 8.594,16.297 5.778,16.406 5.764 C 16.420 5.762,16.440 5.782,16.450 5.810 M4.280 10.595 C 4.347 10.846,4.397 11.054,4.391 11.058 C 4.385 11.063,4.169 11.121,3.912 11.189 L 3.443 11.312 3.384 11.106 C 3.256 10.657,3.185 10.362,3.202 10.348 C 3.243 10.313,4.141 10.093,4.149 10.116 C 4.153 10.129,4.213 10.345,4.280 10.595 M12.310 12.261 C 12.697 12.376,13.000 12.798,13.000 13.222 C 13.000 13.539,12.783 13.896,12.484 14.072 C 12.328 14.163,12.254 14.180,12.000 14.180 C 11.746 14.180,11.672 14.163,11.516 14.072 C 11.415 14.013,11.282 13.898,11.221 13.818 C 10.908 13.408,10.943 12.864,11.304 12.503 C 11.583 12.224,11.916 12.144,12.310 12.261 " stroke="none" fill-rule="evenodd" fill="black"></path></svg>