<svg version="1.1" xmlns="http://www.w3.org/2000/svg" width="32" height="32" viewBox="0 0 32 32"><path d="M14.933 0.034 C 10.237 0.384,6.020 2.671,3.211 6.391 C 1.603 8.521,0.582 10.980,0.153 13.760 C -0.017 14.862,-0.021 17.118,0.146 18.187 C 0.829 22.574,2.966 26.200,6.392 28.789 C 8.535 30.408,10.959 31.410,13.813 31.854 C 14.858 32.017,17.142 32.017,18.187 31.854 C 20.149 31.549,21.935 30.970,23.505 30.132 C 26.292 28.644,28.644 26.292,30.132 23.505 C 30.970 21.935,31.549 20.149,31.854 18.187 C 32.017 17.142,32.017 14.858,31.854 13.813 C 31.410 10.961,30.399 8.515,28.784 6.386 C 26.139 2.901,22.361 0.710,18.000 0.132 C 17.376 0.050,15.520 -0.010,14.933 0.034 M23.594 9.765 C 23.806 9.932,23.893 10.145,23.893 10.500 C 23.893 10.712,23.452 12.897,22.560 17.095 C 21.827 20.547,21.199 23.466,21.165 23.581 C 21.130 23.695,21.028 23.874,20.938 23.978 C 20.734 24.213,20.449 24.267,20.083 24.143 C 19.925 24.089,19.113 23.523,17.808 22.558 L 15.779 21.056 14.756 22.066 C 14.194 22.621,13.668 23.118,13.588 23.170 C 13.262 23.381,12.801 23.386,12.665 23.178 C 12.624 23.116,12.256 21.966,11.847 20.622 C 11.439 19.279,11.096 18.174,11.085 18.167 C 11.075 18.160,10.147 17.869,9.023 17.520 C 7.900 17.171,6.911 16.843,6.826 16.792 C 6.742 16.741,6.631 16.634,6.579 16.556 C 6.490 16.420,6.490 16.406,6.590 16.222 C 6.647 16.117,6.802 15.963,6.935 15.881 C 7.068 15.800,10.704 14.368,15.015 12.699 C 23.539 9.400,23.254 9.498,23.594 9.765 " stroke="none" fill-rule="evenodd" fill="black"></path></svg>