<svg width="24" height="24" viewBox="0 0 24 24" fill="none" xmlns="http://www.w3.org/2000/svg"><path d="M5.920 2.041 C 5.151 2.092,4.672 2.205,4.180 2.451 C 3.089 2.996,2.357 3.961,2.124 5.160 C 2.013 5.729,2.000 6.455,2.000 12.000 C 2.000 18.358,2.006 18.526,2.245 19.320 C 2.577 20.422,3.578 21.423,4.680 21.755 C 5.474 21.994,5.642 22.000,12.000 22.000 C 18.358 22.000,18.526 21.994,19.320 21.755 C 20.422 21.423,21.423 20.422,21.755 19.320 C 21.994 18.526,22.000 18.358,22.000 12.000 C 22.000 5.642,21.994 5.474,21.755 4.680 C 21.424 3.581,20.465 2.622,19.320 2.246 C 18.644 2.024,18.800 2.029,12.340 2.019 C 9.062 2.014,6.173 2.024,5.920 2.041 M18.492 4.091 C 18.894 4.188,19.109 4.309,19.400 4.600 C 19.696 4.895,19.814 5.109,19.912 5.528 C 19.975 5.797,19.980 6.313,19.980 12.000 C 19.980 17.687,19.975 18.203,19.912 18.472 C 19.814 18.891,19.696 19.104,19.400 19.401 C 19.101 19.701,18.820 19.851,18.418 19.928 C 18.010 20.005,5.990 20.005,5.582 19.927 C 5.170 19.850,4.898 19.704,4.600 19.403 C 4.303 19.104,4.186 18.890,4.088 18.472 C 4.025 18.203,4.020 17.687,4.020 12.000 C 4.020 6.313,4.025 5.797,4.088 5.528 C 4.175 5.155,4.294 4.918,4.520 4.667 C 4.883 4.262,5.282 4.091,5.980 4.039 C 6.200 4.023,9.044 4.013,12.300 4.018 C 17.643 4.024,18.247 4.032,18.492 4.091 M6.626 8.045 C 6.257 8.239,5.951 8.673,5.951 9.000 C 5.951 9.333,6.056 9.467,7.353 10.770 L 8.577 12.000 7.353 13.230 C 6.548 14.039,6.099 14.521,6.040 14.637 C 5.863 14.989,5.952 15.354,6.299 15.701 C 6.645 16.048,7.010 16.137,7.363 15.961 C 7.610 15.837,10.837 12.610,10.961 12.363 C 11.014 12.256,11.049 12.111,11.049 12.000 C 11.049 11.889,11.014 11.744,10.961 11.637 C 10.841 11.397,7.611 8.163,7.372 8.044 C 7.152 7.934,6.835 7.935,6.626 8.045 M12.614 14.057 C 12.377 14.131,12.212 14.261,12.109 14.453 C 12.035 14.592,12.020 14.684,12.020 15.000 C 12.020 15.331,12.033 15.403,12.120 15.558 C 12.230 15.755,12.414 15.898,12.635 15.959 C 12.831 16.014,17.169 16.014,17.365 15.959 C 17.586 15.898,17.770 15.755,17.880 15.558 C 17.967 15.402,17.980 15.332,17.979 15.000 C 17.978 14.567,17.898 14.355,17.678 14.199 C 17.406 14.005,17.336 14.000,14.984 14.003 C 13.293 14.005,12.741 14.017,12.614 14.057 " stroke="none" fill-rule="evenodd" fill="black"></path></svg>