<svg width="24" height="24" viewBox="0 0 24 24" fill="none" xmlns="http://www.w3.org/2000/svg"><path d="M3.626 4.045 C 3.420 4.154,3.146 4.433,3.038 4.644 C 2.924 4.867,2.924 5.132,3.039 5.363 C 3.102 5.487,3.942 6.356,5.853 8.270 L 8.579 11.000 5.853 13.730 C 3.942 15.644,3.102 16.513,3.039 16.637 C 2.863 16.990,2.952 17.354,3.299 17.701 C 3.645 18.047,4.010 18.137,4.363 17.961 C 4.613 17.836,10.836 11.613,10.961 11.363 C 11.014 11.256,11.049 11.111,11.049 11.000 C 11.049 10.889,11.014 10.744,10.961 10.637 C 10.840 10.394,4.614 4.164,4.372 4.044 C 4.152 3.934,3.834 3.935,3.626 4.045 M11.614 18.057 C 11.377 18.131,11.212 18.261,11.109 18.453 C 11.035 18.592,11.020 18.684,11.020 19.000 C 11.020 19.331,11.033 19.403,11.120 19.558 C 11.230 19.755,11.414 19.898,11.635 19.959 C 11.833 20.014,20.167 20.014,20.365 19.959 C 20.586 19.898,20.770 19.755,20.880 19.558 C 20.967 19.402,20.980 19.332,20.979 19.000 C 20.978 18.567,20.898 18.355,20.678 18.199 C 20.393 17.996,20.487 18.000,15.984 18.003 C 12.651 18.005,11.746 18.016,11.614 18.057 " stroke="none" fill-rule="evenodd" fill="black"></path></svg>