<svg width="24" height="24" viewBox="0 0 24 24" fill="none" xmlns="http://www.w3.org/2000/svg"><path d="M4.920 2.041 C 4.152 2.092,3.672 2.205,3.180 2.451 C 2.089 2.996,1.357 3.961,1.124 5.160 C 1.013 5.729,1.000 6.455,1.000 12.000 C 1.000 18.358,1.006 18.526,1.245 19.320 C 1.577 20.422,2.578 21.423,3.680 21.755 C 4.485 21.998,4.567 22.000,12.000 22.000 C 19.433 22.000,19.515 21.998,20.320 21.755 C 21.422 21.423,22.423 20.422,22.755 19.320 C 22.994 18.526,23.000 18.358,23.000 12.000 C 23.000 5.642,22.994 5.474,22.755 4.680 C 22.424 3.581,21.465 2.622,20.320 2.246 C 19.635 2.021,19.900 2.028,12.340 2.019 C 8.512 2.014,5.173 2.024,4.920 2.041 M19.492 4.091 C 19.894 4.188,20.110 4.309,20.400 4.600 C 20.887 5.086,20.952 5.340,20.987 6.890 L 21.012 8.000 12.000 8.000 L 2.988 8.000 3.013 6.890 C 3.047 5.409,3.112 5.120,3.520 4.667 C 3.883 4.262,4.282 4.090,4.980 4.039 C 5.200 4.023,8.494 4.013,12.300 4.017 C 18.585 4.024,19.245 4.031,19.492 4.091 M20.989 14.110 C 20.972 18.564,20.975 18.493,20.752 18.952 C 20.626 19.211,20.190 19.638,19.918 19.768 C 19.463 19.987,19.707 19.980,12.000 19.980 C 4.304 19.980,4.541 19.986,4.082 19.771 C 3.812 19.643,3.377 19.217,3.248 18.952 C 3.025 18.493,3.028 18.564,3.011 14.110 L 2.995 10.000 12.000 10.000 L 21.005 10.000 20.989 14.110 M5.691 11.519 C 5.462 11.622,5.142 11.929,5.038 12.143 C 4.937 12.353,4.929 12.609,5.019 12.823 C 5.063 12.930,5.403 13.300,6.091 13.990 L 7.098 15.000 6.091 16.010 C 5.037 17.067,4.953 17.177,4.953 17.500 C 4.953 17.733,5.044 17.925,5.268 18.165 C 5.481 18.395,5.787 18.559,6.000 18.559 C 6.323 18.559,6.472 18.436,7.968 16.934 C 9.454 15.443,9.558 15.316,9.559 15.000 C 9.560 14.677,9.438 14.529,7.934 13.032 C 6.443 11.547,6.315 11.442,6.000 11.442 C 5.923 11.442,5.784 11.476,5.691 11.519 M10.545 16.579 C 10.320 16.659,10.128 16.863,10.059 17.096 C 9.928 17.536,10.019 18.019,10.275 18.251 C 10.556 18.504,10.510 18.500,13.000 18.500 C 15.490 18.500,15.444 18.504,15.725 18.251 C 16.096 17.915,16.095 17.084,15.723 16.747 C 15.636 16.669,15.497 16.586,15.413 16.563 C 15.313 16.535,14.469 16.521,12.980 16.522 C 11.145 16.523,10.670 16.534,10.545 16.579 " stroke="none" fill-rule="evenodd" fill="black"></path></svg>