<svg width="24" height="24" viewBox="0 0 24 24" fill="none" xmlns="http://www.w3.org/2000/svg"><path d="M11.280 1.023 C 11.203 1.032,10.951 1.059,10.720 1.083 C 9.527 1.210,8.337 1.558,7.180 2.120 C 6.045 2.671,5.193 3.285,4.238 4.239 C 3.277 5.198,2.643 6.080,2.097 7.220 C 0.301 10.968,0.728 15.286,3.226 18.633 C 3.701 19.269,4.753 20.316,5.400 20.797 C 9.364 23.745,14.666 23.734,18.637 20.770 C 19.246 20.316,20.316 19.246,20.770 18.637 C 23.744 14.652,23.744 9.348,20.770 5.363 C 20.316 4.755,19.247 3.686,18.640 3.235 C 17.045 2.049,15.365 1.360,13.423 1.096 C 13.000 1.038,11.574 0.990,11.280 1.023 M13.320 3.101 C 15.883 3.488,18.124 4.931,19.560 7.120 C 19.863 7.583,20.303 8.479,20.492 9.020 C 20.838 10.013,20.977 10.865,20.977 12.000 C 20.977 13.493,20.720 14.621,20.080 15.940 C 19.375 17.394,18.311 18.607,16.927 19.532 C 16.138 20.060,14.876 20.588,13.908 20.797 C 11.266 21.366,8.479 20.708,6.370 19.019 C 4.857 17.807,3.722 16.029,3.267 14.160 C 3.081 13.397,3.023 12.888,3.023 12.000 C 3.023 10.507,3.280 9.379,3.920 8.060 C 4.971 5.891,6.877 4.221,9.160 3.466 C 9.865 3.233,10.432 3.118,11.340 3.024 C 11.662 2.991,12.911 3.039,13.320 3.101 M6.626 8.045 C 6.257 8.239,5.951 8.673,5.951 9.000 C 5.951 9.333,6.056 9.467,7.353 10.770 L 8.577 12.000 7.353 13.230 C 6.548 14.039,6.099 14.521,6.040 14.637 C 5.863 14.989,5.952 15.354,6.299 15.701 C 6.645 16.048,7.010 16.137,7.363 15.961 C 7.610 15.837,10.837 12.610,10.961 12.363 C 11.014 12.256,11.049 12.111,11.049 12.000 C 11.049 11.889,11.014 11.744,10.961 11.637 C 10.841 11.397,7.611 8.163,7.372 8.044 C 7.152 7.934,6.835 7.935,6.626 8.045 M12.614 14.057 C 12.377 14.131,12.212 14.261,12.109 14.453 C 12.035 14.592,12.020 14.684,12.020 15.000 C 12.020 15.331,12.033 15.403,12.120 15.558 C 12.230 15.755,12.414 15.898,12.635 15.959 C 12.831 16.014,17.169 16.014,17.365 15.959 C 17.586 15.898,17.770 15.755,17.880 15.558 C 17.967 15.402,17.980 15.332,17.979 15.000 C 17.978 14.567,17.898 14.355,17.678 14.199 C 17.406 14.005,17.336 14.000,14.984 14.003 C 13.293 14.005,12.741 14.017,12.614 14.057 " stroke="none" fill-rule="evenodd" fill="black"></path></svg>