<svg width="24" height="24" viewBox="0 0 24 24" fill="none" xmlns="http://www.w3.org/2000/svg"><path d="M14.080 2.066 C 13.698 2.197,13.509 2.505,13.510 2.998 C 13.510 3.347,13.583 3.556,13.771 3.751 C 13.977 3.964,14.175 4.000,15.147 4.000 L 16.000 4.000 16.000 11.997 L 16.000 19.994 15.070 20.009 C 14.057 20.025,13.965 20.043,13.752 20.267 C 13.584 20.443,13.513 20.658,13.512 20.997 C 13.510 21.501,13.711 21.827,14.096 21.941 C 14.391 22.029,19.609 22.029,19.904 21.941 C 20.290 21.827,20.486 21.508,20.486 20.997 C 20.486 20.491,20.303 20.196,19.909 20.064 C 19.757 20.013,19.539 20.000,18.859 20.000 L 18.000 20.000 18.000 19.005 L 18.000 18.009 19.210 17.989 C 20.253 17.972,20.464 17.958,20.740 17.887 C 21.150 17.783,21.382 17.682,21.679 17.481 C 22.323 17.044,22.722 16.451,22.906 15.660 C 22.975 15.362,22.980 15.114,22.980 12.000 C 22.980 8.886,22.975 8.638,22.906 8.340 C 22.688 7.404,22.167 6.737,21.329 6.321 C 20.841 6.079,20.237 6.000,18.870 6.000 L 18.000 6.000 18.000 5.000 L 18.000 4.000 18.853 4.000 C 19.825 4.000,20.023 3.964,20.229 3.751 C 20.418 3.556,20.486 3.355,20.486 2.997 C 20.486 2.491,20.303 2.196,19.909 2.064 C 19.740 2.008,19.385 2.000,16.989 2.002 C 14.633 2.004,14.235 2.012,14.080 2.066 M3.749 6.045 C 2.967 6.120,2.402 6.371,1.890 6.870 C 1.491 7.260,1.236 7.731,1.094 8.340 C 1.025 8.638,1.020 8.886,1.020 12.020 C 1.020 15.379,1.020 15.380,1.111 15.735 C 1.225 16.184,1.379 16.505,1.650 16.858 C 2.031 17.355,2.586 17.713,3.244 17.888 L 3.580 17.977 8.390 17.990 C 11.623 17.999,13.251 17.989,13.354 17.962 C 13.583 17.900,13.768 17.758,13.880 17.558 C 13.967 17.402,13.980 17.332,13.979 17.000 C 13.977 16.469,13.852 16.247,13.455 16.071 C 13.365 16.031,12.308 16.016,8.540 16.000 L 3.740 15.980 3.550 15.886 C 3.325 15.776,3.137 15.562,3.069 15.340 C 2.995 15.100,2.999 8.890,3.072 8.646 C 3.138 8.431,3.415 8.145,3.626 8.075 C 3.746 8.035,4.834 8.019,8.580 8.002 C 13.170 7.981,13.386 7.977,13.520 7.905 C 13.876 7.715,13.978 7.514,13.978 7.000 C 13.978 6.567,13.899 6.356,13.678 6.199 C 13.392 5.995,13.515 6.000,8.644 6.005 C 6.145 6.008,3.942 6.026,3.749 6.045 M20.374 8.079 C 20.583 8.143,20.862 8.429,20.928 8.646 C 21.001 8.890,21.005 15.100,20.931 15.340 C 20.863 15.562,20.675 15.776,20.450 15.886 C 20.267 15.977,20.220 15.980,19.130 15.994 L 18.000 16.007 18.000 11.999 L 18.000 7.990 19.110 8.011 C 19.789 8.024,20.280 8.050,20.374 8.079 " stroke="none" fill-rule="evenodd" fill="black"></path></svg>