<svg width="24" height="24" viewBox="0 0 24 24" fill="none" xmlns="http://www.w3.org/2000/svg"><path d="M17.499 1.040 C 16.374 1.244,15.488 2.024,15.114 3.140 L 15.020 3.420 15.000 8.705 L 14.980 13.991 14.615 14.335 C 13.844 15.060,13.343 15.925,13.111 16.929 C 12.995 17.434,12.986 18.459,13.093 18.960 C 13.526 20.984,15.016 22.474,17.040 22.907 C 17.286 22.960,17.552 22.980,18.000 22.980 C 18.898 22.980,19.494 22.838,20.286 22.433 C 21.630 21.748,22.580 20.489,22.907 18.960 C 23.014 18.459,23.005 17.434,22.889 16.929 C 22.657 15.925,22.156 15.060,21.385 14.335 L 21.020 13.991 21.000 8.705 L 20.980 3.420 20.886 3.140 C 20.555 2.154,19.800 1.403,18.861 1.129 C 18.500 1.023,17.832 0.980,17.499 1.040 M8.614 3.057 C 8.377 3.131,8.212 3.261,8.109 3.453 C 8.022 3.616,8.020 3.658,8.008 5.096 L 7.996 6.572 7.268 5.851 C 6.856 5.443,6.467 5.094,6.372 5.045 C 6.021 4.868,5.640 4.958,5.299 5.299 C 4.952 5.646,4.863 6.011,5.040 6.363 C 5.100 6.481,5.603 7.016,6.565 7.981 L 8.000 9.422 8.000 10.211 L 8.000 11.000 7.211 11.000 L 6.422 11.000 4.981 9.565 C 4.063 8.649,3.479 8.098,3.372 8.045 C 3.020 7.868,2.639 7.959,2.299 8.299 C 1.952 8.646,1.863 9.012,2.041 9.363 C 2.095 9.469,2.420 9.832,2.853 10.270 L 3.575 11.000 2.694 11.000 C 1.757 11.000,1.561 11.028,1.322 11.199 C 1.100 11.357,1.020 11.568,1.020 12.000 C 1.020 12.331,1.033 12.403,1.120 12.558 C 1.230 12.755,1.414 12.898,1.635 12.959 C 1.715 12.981,2.184 13.000,2.678 13.000 L 3.575 13.000 2.853 13.730 C 2.420 14.168,2.095 14.531,2.041 14.637 C 1.863 14.988,1.952 15.354,2.299 15.701 C 2.646 16.048,3.011 16.137,3.363 15.960 C 3.481 15.900,4.016 15.397,4.981 14.435 L 6.422 13.000 7.211 13.000 L 8.000 13.000 8.000 13.789 L 8.000 14.578 6.565 16.019 C 5.603 16.984,5.100 17.519,5.040 17.637 C 4.863 17.989,4.952 18.354,5.299 18.701 C 5.646 19.048,6.012 19.137,6.363 18.959 C 6.469 18.905,6.832 18.580,7.270 18.147 L 8.000 17.425 8.000 18.822 C 8.000 19.635,8.017 20.281,8.041 20.365 C 8.148 20.750,8.437 20.962,8.896 20.991 C 9.381 21.022,9.699 20.882,9.880 20.558 L 9.980 20.380 9.992 18.893 L 10.004 17.406 10.188 17.488 C 10.322 17.547,10.426 17.564,10.569 17.550 C 10.989 17.510,11.510 16.987,11.550 16.565 C 11.582 16.232,11.474 16.069,10.693 15.278 L 10.000 14.575 10.000 13.788 L 10.000 13.000 11.110 13.000 C 11.730 13.000,12.284 12.982,12.365 12.959 C 12.586 12.898,12.770 12.755,12.880 12.558 C 12.967 12.402,12.980 12.332,12.979 12.000 C 12.978 11.567,12.898 11.355,12.678 11.199 C 12.430 11.022,12.256 11.000,11.094 11.000 L 10.000 11.000 10.000 10.211 L 10.000 9.422 11.435 7.981 C 12.397 7.016,12.900 6.481,12.960 6.363 C 13.137 6.011,13.048 5.646,12.701 5.299 C 12.360 4.958,11.979 4.868,11.628 5.045 C 11.533 5.094,11.145 5.443,10.732 5.851 L 10.005 6.571 9.992 5.095 C 9.980 3.658,9.978 3.616,9.891 3.453 C 9.842 3.362,9.746 3.247,9.678 3.199 C 9.414 3.010,8.957 2.950,8.614 3.057 M18.310 3.061 C 18.589 3.144,18.856 3.411,18.939 3.690 C 18.992 3.869,19.000 4.577,19.000 9.302 C 19.000 15.223,18.988 14.916,19.232 15.174 C 19.291 15.237,19.466 15.374,19.620 15.479 C 20.128 15.825,20.449 16.197,20.701 16.730 C 20.917 17.187,20.976 17.470,20.974 18.040 C 20.973 18.452,20.955 18.596,20.875 18.861 C 20.583 19.821,19.819 20.581,18.840 20.886 C 18.406 21.021,17.594 21.021,17.160 20.886 C 16.181 20.581,15.417 19.821,15.125 18.861 C 15.045 18.596,15.027 18.452,15.026 18.040 C 15.024 17.470,15.083 17.187,15.299 16.730 C 15.551 16.197,15.872 15.825,16.380 15.479 C 16.534 15.374,16.709 15.237,16.768 15.174 C 17.012 14.916,17.000 15.223,17.000 9.302 C 17.000 3.207,16.979 3.628,17.304 3.303 C 17.583 3.024,17.916 2.944,18.310 3.061 " stroke="none" fill-rule="evenodd" fill="black"></path></svg>