<svg width="24" height="24" viewBox="0 0 24 24" fill="none" xmlns="http://www.w3.org/2000/svg"><path d="M7.580 1.024 C 6.701 1.153,5.814 1.642,5.294 2.286 C 4.957 2.704,4.733 3.161,4.574 3.760 C 4.510 3.998,4.503 4.414,4.490 8.640 L 4.477 13.259 4.115 13.622 C 2.963 14.781,2.395 16.317,2.524 17.924 C 2.635 19.306,3.199 20.492,4.205 21.461 C 5.877 23.072,8.372 23.454,10.448 22.417 C 11.684 21.800,12.690 20.681,13.155 19.407 C 13.761 17.746,13.546 15.915,12.572 14.445 C 12.446 14.255,12.159 13.910,11.933 13.678 L 11.523 13.257 11.510 8.638 C 11.497 4.123,11.494 4.013,11.414 3.720 C 11.181 2.872,10.787 2.253,10.165 1.759 C 9.842 1.502,9.187 1.186,8.800 1.099 C 8.503 1.033,7.811 0.990,7.580 1.024 M14.614 2.057 C 14.377 2.131,14.212 2.261,14.109 2.453 C 14.035 2.592,14.020 2.684,14.020 3.000 C 14.020 3.331,14.033 3.403,14.120 3.558 C 14.230 3.755,14.414 3.898,14.635 3.959 C 14.832 4.014,21.168 4.014,21.365 3.959 C 21.586 3.898,21.770 3.755,21.880 3.558 C 21.967 3.402,21.980 3.332,21.979 3.000 C 21.978 2.567,21.898 2.355,21.678 2.199 C 21.398 1.999,21.411 2.000,17.984 2.003 C 15.472 2.005,14.744 2.017,14.614 2.057 M8.307 3.044 C 8.755 3.122,9.161 3.451,9.371 3.907 L 9.460 4.100 9.480 9.040 C 9.499 13.674,9.504 13.990,9.572 14.139 C 9.665 14.346,9.712 14.395,10.146 14.745 C 10.680 15.176,11.053 15.691,11.276 16.305 C 11.447 16.776,11.494 17.116,11.469 17.685 C 11.442 18.292,11.378 18.546,11.120 19.060 C 10.679 19.940,9.923 20.577,8.980 20.864 C 8.654 20.964,8.562 20.974,8.000 20.974 C 7.439 20.974,7.346 20.964,7.020 20.865 C 5.857 20.511,4.935 19.572,4.618 18.419 C 4.531 18.101,4.496 17.234,4.557 16.910 C 4.675 16.287,4.962 15.677,5.358 15.207 C 5.453 15.094,5.677 14.886,5.855 14.745 C 6.256 14.426,6.337 14.341,6.428 14.139 C 6.496 13.990,6.501 13.684,6.520 9.040 L 6.540 4.100 6.631 3.903 C 6.824 3.485,7.206 3.156,7.614 3.057 C 7.880 2.992,7.997 2.990,8.307 3.044 M14.614 6.057 C 14.377 6.131,14.212 6.261,14.109 6.453 C 14.035 6.592,14.020 6.684,14.020 7.000 C 14.020 7.331,14.033 7.403,14.120 7.558 C 14.230 7.755,14.414 7.898,14.635 7.959 C 14.832 8.014,21.168 8.014,21.365 7.959 C 21.586 7.898,21.770 7.755,21.880 7.558 C 21.967 7.402,21.980 7.332,21.979 7.000 C 21.978 6.567,21.898 6.355,21.678 6.199 C 21.398 5.999,21.411 6.000,17.984 6.003 C 15.472 6.005,14.744 6.017,14.614 6.057 M14.614 10.057 C 14.377 10.131,14.212 10.261,14.109 10.453 C 14.035 10.592,14.020 10.684,14.020 11.000 C 14.020 11.331,14.033 11.403,14.120 11.558 C 14.230 11.755,14.414 11.898,14.635 11.959 C 14.832 12.014,21.168 12.014,21.365 11.959 C 21.586 11.898,21.770 11.755,21.880 11.558 C 21.967 11.402,21.980 11.332,21.979 11.000 C 21.978 10.567,21.898 10.355,21.678 10.199 C 21.398 9.999,21.411 10.000,17.984 10.003 C 15.472 10.005,14.744 10.017,14.614 10.057 M7.392 15.597 C 7.068 15.701,6.825 15.854,6.565 16.118 C 5.681 17.016,5.865 18.514,6.943 19.198 C 7.553 19.585,8.447 19.585,9.057 19.198 C 10.306 18.405,10.306 16.595,9.057 15.802 C 8.618 15.523,7.899 15.435,7.392 15.597 " stroke="none" fill-rule="evenodd" fill="black"></path></svg>