<svg width="24" height="24" viewBox="0 0 24 24" fill="none" xmlns="http://www.w3.org/2000/svg"><path d="M17.499 1.040 C 16.374 1.244,15.488 2.024,15.114 3.140 L 15.020 3.420 15.000 8.705 L 14.980 13.991 14.615 14.335 C 13.844 15.060,13.343 15.925,13.111 16.929 C 12.995 17.434,12.986 18.459,13.093 18.960 C 13.526 20.984,15.016 22.474,17.040 22.907 C 17.286 22.960,17.552 22.980,18.000 22.980 C 18.898 22.980,19.494 22.838,20.286 22.433 C 21.630 21.748,22.580 20.489,22.907 18.960 C 23.014 18.459,23.005 17.434,22.889 16.929 C 22.657 15.925,22.156 15.060,21.385 14.335 L 21.020 13.991 21.000 8.705 L 20.980 3.420 20.886 3.140 C 20.555 2.154,19.800 1.403,18.861 1.129 C 18.500 1.023,17.832 0.980,17.499 1.040 M11.614 2.057 C 11.377 2.131,11.212 2.261,11.109 2.453 C 11.023 2.614,11.020 2.665,11.008 3.908 C 11.000 4.720,11.011 5.254,11.038 5.352 C 11.144 5.747,11.432 5.961,11.896 5.991 C 12.381 6.022,12.699 5.882,12.880 5.558 L 12.980 5.380 12.980 4.000 C 12.980 2.650,12.978 2.616,12.891 2.453 C 12.842 2.362,12.746 2.247,12.678 2.199 C 12.414 2.010,11.957 1.950,11.614 2.057 M18.310 3.061 C 18.589 3.144,18.856 3.411,18.939 3.690 C 18.992 3.869,19.000 4.577,19.000 9.302 C 19.000 15.223,18.988 14.916,19.232 15.174 C 19.291 15.237,19.466 15.374,19.620 15.479 C 20.128 15.825,20.449 16.197,20.701 16.730 C 20.917 17.187,20.976 17.470,20.974 18.040 C 20.973 18.452,20.955 18.596,20.875 18.861 C 20.583 19.821,19.819 20.581,18.840 20.886 C 18.406 21.021,17.594 21.021,17.160 20.886 C 16.181 20.581,15.417 19.821,15.125 18.861 C 15.045 18.596,15.027 18.452,15.026 18.040 C 15.024 17.470,15.083 17.187,15.299 16.730 C 15.551 16.197,15.872 15.825,16.380 15.479 C 16.534 15.374,16.709 15.237,16.768 15.174 C 17.012 14.916,17.000 15.223,17.000 9.302 C 17.000 3.207,16.979 3.628,17.304 3.303 C 17.583 3.024,17.916 2.944,18.310 3.061 M4.826 5.245 C 4.620 5.354,4.346 5.633,4.238 5.844 C 4.124 6.068,4.124 6.333,4.240 6.563 C 4.361 6.804,5.996 8.439,6.237 8.560 C 6.589 8.737,6.954 8.648,7.301 8.301 C 7.648 7.954,7.737 7.589,7.560 7.237 C 7.443 7.003,5.804 5.361,5.572 5.244 C 5.352 5.134,5.035 5.135,4.826 5.245 M11.440 8.026 C 11.385 8.034,11.205 8.060,11.040 8.085 C 9.822 8.265,8.515 9.122,7.777 10.225 C 7.149 11.164,6.813 12.520,6.956 13.540 C 7.183 15.156,8.039 16.493,9.346 17.272 C 9.757 17.517,10.024 17.589,10.272 17.522 C 10.784 17.384,11.196 16.541,10.969 16.098 C 10.867 15.900,10.784 15.825,10.358 15.546 C 9.162 14.766,8.669 13.404,9.096 12.060 C 9.347 11.270,9.932 10.626,10.726 10.265 C 11.117 10.087,11.326 10.040,11.899 10.003 C 12.601 9.958,12.811 9.830,12.946 9.367 C 13.029 9.080,13.003 8.680,12.885 8.450 C 12.784 8.252,12.574 8.101,12.320 8.043 C 12.149 8.004,11.654 7.994,11.440 8.026 M1.614 12.057 C 1.377 12.131,1.212 12.261,1.109 12.453 C 1.035 12.592,1.020 12.684,1.020 13.000 C 1.020 13.331,1.033 13.403,1.120 13.558 C 1.230 13.755,1.414 13.898,1.635 13.959 C 1.826 14.012,4.174 14.012,4.365 13.959 C 4.586 13.898,4.770 13.755,4.880 13.558 C 4.967 13.402,4.980 13.332,4.979 13.000 C 4.978 12.687,4.962 12.591,4.890 12.453 C 4.786 12.256,4.623 12.131,4.371 12.055 C 4.117 11.979,1.859 11.981,1.614 12.057 M6.220 17.446 C 5.993 17.563,4.352 19.214,4.240 19.437 C 4.063 19.789,4.152 20.154,4.499 20.501 C 4.846 20.848,5.211 20.937,5.563 20.760 C 5.804 20.639,7.439 19.004,7.560 18.763 C 7.737 18.411,7.648 18.046,7.301 17.699 C 6.961 17.359,6.567 17.267,6.220 17.446 " stroke="none" fill-rule="evenodd" fill="black"></path></svg>