<svg version="1.1" xmlns="http://www.w3.org/2000/svg" width="34" height="32" viewBox="0 0 34 32"><path d="M10.531 1.789 C 8.810 2.100,7.247 3.278,6.465 4.853 C 6.188 5.411,5.979 6.074,5.895 6.660 C 5.849 6.985,5.836 9.228,5.848 14.648 L 5.865 22.185 6.016 22.730 C 6.617 24.907,8.240 26.431,10.438 26.883 C 10.796 26.957,11.297 26.973,13.187 26.973 C 15.405 26.973,15.506 26.968,15.686 26.859 C 15.866 26.749,16.037 26.457,16.037 26.260 C 16.037 26.209,15.806 25.615,15.524 24.941 C 15.124 23.986,14.968 23.674,14.816 23.531 L 14.622 23.347 13.525 23.347 C 12.283 23.347,11.828 23.267,11.202 22.939 C 10.485 22.564,9.820 21.719,9.604 20.910 C 9.481 20.446,9.480 8.230,9.604 7.766 C 9.916 6.594,10.902 5.663,12.098 5.412 C 12.428 5.343,13.263 5.329,17.057 5.328 C 19.895 5.328,21.757 5.349,21.987 5.386 C 23.142 5.568,24.162 6.484,24.572 7.707 C 24.670 8.000,24.677 8.368,24.694 13.997 C 24.705 17.676,24.690 20.150,24.656 20.431 C 24.569 21.146,24.398 21.522,23.771 22.378 C 23.685 22.495,23.630 22.647,23.630 22.767 C 23.630 23.036,24.785 25.788,24.972 25.963 C 25.085 26.069,25.175 26.095,25.434 26.095 C 25.729 26.095,25.782 26.074,26.095 25.832 C 26.510 25.512,27.113 24.887,27.365 24.518 C 27.647 24.104,28.026 23.262,28.173 22.723 L 28.305 22.242 28.305 14.393 L 28.305 6.545 28.182 6.084 C 27.664 4.145,26.274 2.622,24.458 2.004 C 23.550 1.695,23.658 1.700,17.065 1.705 C 12.132 1.709,10.882 1.725,10.531 1.789 M18.061 20.112 C 17.600 20.296,17.138 20.511,17.034 20.590 C 16.820 20.754,16.660 21.050,16.660 21.285 C 16.660 21.373,17.451 23.425,18.419 25.844 C 19.753 29.182,20.214 30.277,20.331 30.386 C 20.536 30.577,20.851 30.673,21.119 30.624 C 21.393 30.574,22.676 30.069,22.988 29.888 C 23.290 29.712,23.479 29.409,23.477 29.105 C 23.476 28.934,23.017 27.727,21.763 24.593 C 20.821 22.240,20.003 20.238,19.946 20.145 C 19.649 19.662,19.209 19.655,18.061 20.112 " stroke="none" fill-rule="evenodd" fill="black"></path></svg>