<svg width="24" height="24" viewBox="0 0 24 24" fill="none" xmlns="http://www.w3.org/2000/svg"><path d="M3.749 3.045 C 2.771 3.139,2.037 3.557,1.527 4.310 C 1.319 4.617,1.219 4.845,1.111 5.260 C 1.036 5.549,1.027 5.728,1.010 7.100 C 0.990 8.822,1.003 8.955,1.226 9.202 C 1.408 9.402,1.603 9.470,2.147 9.518 C 2.861 9.581,3.290 9.774,3.758 10.242 C 4.045 10.529,4.233 10.818,4.370 11.183 C 4.446 11.388,4.458 11.499,4.458 12.000 C 4.458 12.501,4.446 12.612,4.370 12.817 C 4.097 13.548,3.496 14.138,2.780 14.379 C 2.670 14.416,2.352 14.471,2.074 14.500 C 1.521 14.559,1.394 14.605,1.209 14.815 C 1.006 15.048,0.990 15.210,1.010 16.900 C 1.027 18.294,1.035 18.448,1.115 18.756 C 1.283 19.408,1.643 19.967,2.142 20.350 C 2.495 20.621,2.816 20.775,3.265 20.889 L 3.620 20.980 11.980 20.980 C 19.988 20.980,20.353 20.977,20.660 20.906 C 21.451 20.722,22.044 20.323,22.481 19.679 C 22.682 19.383,22.782 19.151,22.888 18.740 C 22.963 18.452,22.973 18.268,22.990 16.900 C 23.010 15.210,22.995 15.048,22.791 14.815 C 22.606 14.605,22.479 14.559,21.926 14.500 C 21.130 14.416,20.722 14.239,20.261 13.779 C 19.957 13.475,19.770 13.190,19.630 12.817 C 19.554 12.612,19.542 12.501,19.542 12.000 C 19.542 11.499,19.554 11.388,19.630 11.183 C 19.767 10.818,19.955 10.529,20.242 10.242 C 20.715 9.769,21.141 9.579,21.875 9.515 C 22.406 9.469,22.602 9.399,22.787 9.189 C 22.995 8.951,23.010 8.798,22.990 7.100 C 22.973 5.732,22.963 5.548,22.888 5.260 C 22.782 4.846,22.682 4.617,22.473 4.310 C 22.184 3.882,21.811 3.560,21.329 3.321 C 21.019 3.168,20.706 3.091,20.180 3.042 C 19.643 2.991,4.277 2.994,3.749 3.045 M20.374 5.074 C 20.576 5.142,20.862 5.431,20.920 5.626 C 20.946 5.712,20.976 6.187,20.988 6.700 L 21.010 7.620 20.735 7.691 C 20.190 7.832,19.502 8.211,19.039 8.624 C 18.038 9.517,17.513 10.679,17.513 12.000 C 17.513 13.971,18.768 15.690,20.640 16.281 L 20.980 16.388 20.976 17.284 C 20.974 17.859,20.955 18.242,20.924 18.354 C 20.864 18.567,20.595 18.848,20.376 18.925 C 20.143 19.007,3.857 19.007,3.624 18.925 C 3.405 18.848,3.136 18.567,3.076 18.354 C 3.045 18.242,3.026 17.859,3.024 17.286 L 3.020 16.391 3.366 16.278 C 4.966 15.756,6.102 14.465,6.425 12.804 C 6.496 12.438,6.505 11.639,6.442 11.280 C 6.334 10.670,6.070 9.999,5.743 9.508 C 5.451 9.067,4.934 8.550,4.496 8.259 C 4.181 8.050,3.583 7.774,3.270 7.692 L 3.000 7.622 3.000 6.941 C 3.001 6.033,3.048 5.632,3.179 5.434 C 3.333 5.201,3.547 5.080,3.866 5.042 C 4.017 5.024,7.758 5.012,12.180 5.016 C 18.671 5.021,20.250 5.032,20.374 5.074 M9.614 6.057 C 9.377 6.131,9.212 6.261,9.109 6.453 C 9.027 6.606,9.019 6.684,9.007 7.405 C 8.999 7.880,9.011 8.252,9.037 8.349 C 9.144 8.748,9.430 8.961,9.896 8.991 C 10.381 9.022,10.699 8.882,10.880 8.558 C 10.978 8.383,10.980 8.364,10.980 7.500 C 10.980 6.667,10.975 6.611,10.891 6.453 C 10.842 6.362,10.746 6.247,10.678 6.199 C 10.414 6.010,9.957 5.950,9.614 6.057 M9.545 10.579 C 9.460 10.609,9.329 10.693,9.254 10.766 C 9.043 10.970,9.000 11.180,9.000 12.000 C 9.000 12.814,9.044 13.031,9.249 13.229 C 9.442 13.416,9.647 13.487,9.997 13.488 C 10.501 13.490,10.827 13.289,10.941 12.904 C 11.024 12.623,11.023 11.374,10.940 11.092 C 10.868 10.852,10.645 10.627,10.413 10.563 C 10.200 10.504,9.731 10.513,9.545 10.579 M9.614 15.057 C 9.377 15.131,9.212 15.261,9.109 15.453 C 9.027 15.606,9.019 15.684,9.007 16.405 C 8.999 16.880,9.011 17.252,9.037 17.349 C 9.144 17.748,9.430 17.961,9.896 17.991 C 10.381 18.022,10.699 17.882,10.880 17.558 C 10.978 17.383,10.980 17.364,10.980 16.500 C 10.980 15.667,10.975 15.611,10.891 15.453 C 10.842 15.362,10.746 15.247,10.678 15.199 C 10.414 15.010,9.957 14.950,9.614 15.057 " stroke="none" fill-rule="evenodd" fill="black"></path></svg>