<svg width="24" height="24" viewBox="0 0 24 24" fill="none" xmlns="http://www.w3.org/2000/svg"><path d="M16.380 6.043 C 15.508 6.129,14.676 6.406,13.915 6.864 L 13.690 7.000 9.763 7.000 C 5.731 7.000,5.344 7.012,4.760 7.162 C 3.370 7.517,2.158 8.500,1.526 9.785 C 1.333 10.177,1.187 10.599,1.093 11.040 C 0.992 11.511,0.992 12.489,1.093 12.960 C 1.523 14.968,2.962 16.422,5.000 16.905 C 5.276 16.970,5.640 16.977,9.493 16.989 L 13.685 17.002 13.836 17.097 C 14.364 17.431,15.135 17.734,15.840 17.885 C 16.446 18.015,17.554 18.015,18.160 17.885 C 19.397 17.620,20.412 17.068,21.269 16.195 C 22.109 15.340,22.626 14.369,22.885 13.160 C 23.015 12.554,23.015 11.446,22.885 10.840 C 22.626 9.631,22.109 8.660,21.269 7.805 C 19.978 6.490,18.230 5.860,16.380 6.043 M17.605 8.058 C 18.855 8.247,19.964 9.042,20.536 10.160 C 20.767 10.611,20.871 10.930,20.942 11.395 C 21.014 11.879,21.014 12.121,20.942 12.605 C 20.604 14.844,18.437 16.368,16.228 15.918 C 15.786 15.827,15.224 15.613,14.994 15.446 C 14.914 15.388,14.773 15.286,14.682 15.220 C 14.590 15.154,14.440 15.045,14.348 14.979 C 13.925 14.672,13.301 13.678,13.143 13.060 C 13.023 12.589,12.981 12.035,13.034 11.590 C 13.099 11.031,13.173 10.769,13.396 10.300 C 13.697 9.670,14.183 9.073,14.548 8.886 C 14.632 8.843,14.745 8.759,14.800 8.700 C 14.855 8.640,15.035 8.524,15.200 8.442 C 15.980 8.051,16.746 7.929,17.605 8.058 M11.626 9.350 C 11.406 9.792,11.230 10.302,11.114 10.840 C 10.984 11.446,10.984 12.554,11.114 13.160 C 11.231 13.698,11.406 14.208,11.627 14.652 L 11.802 15.003 8.611 14.991 L 5.420 14.979 5.140 14.886 C 4.157 14.557,3.415 13.811,3.125 12.861 C 3.042 12.588,3.027 12.458,3.027 12.000 C 3.027 11.542,3.042 11.412,3.125 11.139 C 3.456 10.054,4.390 9.229,5.499 9.043 C 5.609 9.025,7.073 9.007,8.750 9.005 L 11.801 9.000 11.626 9.350 " stroke="none" fill-rule="evenodd" fill="black"></path></svg>