<svg width="24" height="24" viewBox="0 0 24 24" fill="none" xmlns="http://www.w3.org/2000/svg"><path d="M15.540 1.023 C 14.706 1.104,14.250 1.200,13.620 1.427 C 11.453 2.207,9.787 4.043,9.221 6.275 C 8.932 7.417,8.933 8.535,9.225 9.774 L 9.335 10.243 5.934 13.652 C 3.707 15.883,2.480 17.142,2.380 17.297 C 2.018 17.856,1.855 18.477,1.893 19.158 C 1.905 19.390,1.945 19.688,1.981 19.820 C 2.259 20.844,3.156 21.741,4.180 22.019 C 4.312 22.055,4.610 22.095,4.842 22.107 C 5.523 22.145,6.144 21.982,6.703 21.620 C 6.858 21.520,8.117 20.293,10.348 18.066 L 13.757 14.665 14.227 14.776 C 15.231 15.012,16.225 15.057,17.120 14.906 C 19.641 14.480,21.717 12.757,22.573 10.380 C 22.881 9.526,22.978 8.945,22.977 7.960 C 22.977 6.920,22.826 6.166,22.441 5.273 C 22.200 4.713,21.961 4.507,21.552 4.507 C 21.378 4.507,21.266 4.536,21.072 4.632 C 20.853 4.740,20.600 4.977,19.160 6.418 L 17.501 8.080 16.711 7.291 L 15.921 6.501 17.638 4.781 C 18.925 3.491,19.376 3.015,19.437 2.880 C 19.602 2.516,19.507 2.148,19.165 1.829 C 18.870 1.552,18.013 1.245,17.120 1.095 C 16.777 1.037,15.836 0.995,15.540 1.023 M16.371 3.026 L 16.523 3.051 15.411 4.175 C 14.237 5.363,14.104 5.533,13.976 6.015 C 13.906 6.278,13.906 6.722,13.976 6.985 C 14.104 7.467,14.239 7.643,15.298 8.702 C 16.110 9.513,16.348 9.729,16.555 9.837 C 17.281 10.216,18.060 10.155,18.700 9.668 C 18.788 9.601,19.331 9.079,19.906 8.508 L 20.953 7.469 20.983 7.705 C 21.021 8.004,20.944 8.833,20.841 9.233 C 20.484 10.628,19.498 11.843,18.212 12.476 C 17.563 12.795,16.931 12.956,16.200 12.989 C 15.675 13.013,15.242 12.965,14.640 12.816 C 13.778 12.603,13.210 12.648,12.709 12.969 C 12.535 13.080,11.418 14.168,9.020 16.559 C 5.882 19.688,5.563 19.995,5.383 20.055 C 4.834 20.237,4.260 20.004,4.000 19.495 C 3.871 19.243,3.860 18.787,3.977 18.540 C 4.028 18.432,5.166 17.262,7.479 14.940 C 9.586 12.825,10.956 11.419,11.037 11.290 C 11.352 10.787,11.396 10.281,11.198 9.426 C 11.017 8.644,10.976 8.177,11.034 7.566 C 11.060 7.288,11.114 6.934,11.154 6.780 C 11.673 4.777,13.384 3.272,15.400 3.044 C 15.781 3.001,16.177 2.994,16.371 3.026 " stroke="none" fill-rule="evenodd" fill="black"></path></svg>