<svg width="24" height="24" viewBox="0 0 24 24" fill="none" xmlns="http://www.w3.org/2000/svg"><path d="M7.614 1.057 C 7.377 1.131,7.212 1.261,7.109 1.453 C 7.035 1.592,7.020 1.684,7.020 2.000 C 7.020 2.331,7.033 2.403,7.120 2.558 C 7.230 2.755,7.414 2.898,7.635 2.959 C 7.721 2.983,8.435 3.000,9.390 3.000 L 11.000 3.000 11.000 3.495 L 11.000 3.991 8.870 4.011 C 6.605 4.032,6.251 4.058,5.680 4.246 C 4.534 4.622,3.576 5.579,3.245 6.680 C 3.016 7.439,3.000 7.788,3.000 12.000 C 3.000 15.579,3.018 16.298,3.124 16.840 C 3.357 18.043,4.093 19.011,5.193 19.561 L 5.518 19.724 5.043 20.674 C 4.782 21.196,4.539 21.721,4.504 21.840 C 4.367 22.299,4.572 22.664,5.100 22.905 C 5.565 23.118,5.909 23.065,6.196 22.739 C 6.266 22.659,6.615 22.010,6.972 21.297 L 7.619 20.000 12.000 20.000 L 16.380 20.000 17.049 21.336 C 17.638 22.512,17.740 22.691,17.903 22.835 C 18.188 23.085,18.466 23.104,18.907 22.902 C 19.428 22.664,19.632 22.296,19.496 21.840 C 19.461 21.721,19.218 21.196,18.957 20.674 L 18.482 19.724 18.807 19.561 C 19.907 19.011,20.643 18.043,20.876 16.840 C 20.982 16.298,21.000 15.579,21.000 12.000 C 21.000 7.788,20.984 7.439,20.755 6.680 C 20.424 5.581,19.464 4.621,18.320 4.246 C 17.749 4.058,17.395 4.032,15.130 4.011 L 13.000 3.991 13.000 3.495 L 13.000 3.000 14.610 3.000 C 15.565 3.000,16.279 2.983,16.365 2.959 C 16.586 2.898,16.770 2.755,16.880 2.558 C 16.967 2.402,16.980 2.332,16.979 2.000 C 16.978 1.567,16.898 1.355,16.678 1.199 C 16.393 0.996,16.487 1.000,11.984 1.003 C 8.651 1.005,7.746 1.016,7.614 1.057 M17.492 6.091 C 17.893 6.188,18.109 6.309,18.400 6.600 C 18.923 7.123,18.959 7.294,18.988 9.390 L 19.011 11.000 12.000 11.000 L 4.989 11.000 5.012 9.390 C 5.035 7.673,5.060 7.429,5.248 7.051 C 5.371 6.805,5.654 6.496,5.903 6.336 C 6.173 6.163,6.494 6.075,6.980 6.039 C 7.200 6.023,9.594 6.013,12.300 6.018 C 16.701 6.025,17.249 6.033,17.492 6.091 M18.988 14.610 C 18.959 16.706,18.923 16.877,18.400 17.401 C 18.101 17.701,17.820 17.851,17.418 17.928 C 17.011 18.004,6.989 18.004,6.582 17.927 C 6.170 17.850,5.898 17.704,5.600 17.403 C 5.076 16.874,5.041 16.706,5.012 14.610 L 4.989 13.000 12.000 13.000 L 19.011 13.000 18.988 14.610 M8.174 14.039 C 7.750 14.129,7.329 14.477,7.132 14.900 C 7.035 15.107,7.020 15.190,7.020 15.500 C 7.020 15.811,7.035 15.894,7.133 16.104 C 7.276 16.413,7.585 16.721,7.900 16.868 C 8.107 16.965,8.190 16.980,8.500 16.980 C 8.810 16.980,8.893 16.965,9.100 16.868 C 9.415 16.721,9.724 16.413,9.867 16.104 C 9.965 15.894,9.980 15.811,9.980 15.500 C 9.980 15.189,9.965 15.106,9.867 14.896 C 9.727 14.592,9.415 14.278,9.119 14.143 C 8.870 14.030,8.441 13.982,8.174 14.039 M15.174 14.039 C 14.750 14.129,14.329 14.477,14.132 14.900 C 14.035 15.107,14.020 15.190,14.020 15.500 C 14.020 15.811,14.035 15.894,14.133 16.104 C 14.276 16.413,14.585 16.721,14.900 16.868 C 15.107 16.965,15.190 16.980,15.500 16.980 C 15.810 16.980,15.893 16.965,16.100 16.868 C 16.415 16.721,16.724 16.413,16.867 16.104 C 16.965 15.894,16.980 15.811,16.980 15.500 C 16.980 15.189,16.965 15.106,16.867 14.896 C 16.727 14.592,16.415 14.278,16.119 14.143 C 15.870 14.030,15.441 13.982,15.174 14.039 M9.180 21.039 C 8.715 21.159,8.514 21.447,8.512 21.997 C 8.510 22.501,8.711 22.827,9.096 22.941 C 9.391 23.029,14.609 23.029,14.904 22.941 C 15.290 22.827,15.486 22.508,15.486 21.997 C 15.486 21.491,15.303 21.196,14.909 21.064 C 14.740 21.008,14.391 21.000,12.009 21.004 C 10.519 21.006,9.246 21.022,9.180 21.039 " stroke="none" fill-rule="evenodd" fill="black"></path></svg>