<svg width="24" height="24" viewBox="0 0 24 24" fill="none" xmlns="http://www.w3.org/2000/svg"><path d="M8.320 1.005 C 7.615 1.034,7.312 1.081,6.905 1.228 C 6.483 1.380,4.908 2.178,4.741 2.325 C 4.464 2.568,4.400 2.822,4.519 3.207 C 4.713 3.836,5.172 4.154,5.665 4.001 C 5.750 3.975,6.225 3.757,6.720 3.517 C 7.607 3.086,7.856 3.000,8.216 3.000 L 8.381 3.000 8.870 3.980 C 9.140 4.519,9.360 4.967,9.360 4.974 C 9.360 4.982,8.771 4.999,8.050 5.012 C 6.339 5.044,5.844 5.119,5.180 5.451 C 4.089 5.996,3.357 6.961,3.124 8.160 C 3.018 8.702,3.000 9.421,3.000 13.000 C 3.000 16.579,3.018 17.298,3.124 17.840 C 3.357 19.043,4.093 20.011,5.192 20.561 L 5.516 20.723 5.256 21.252 C 4.941 21.894,4.898 22.126,5.040 22.420 C 5.145 22.637,5.398 22.840,5.712 22.959 C 6.110 23.111,6.475 23.029,6.708 22.735 C 6.775 22.650,7.008 22.224,7.225 21.790 L 7.619 21.000 12.000 21.000 L 16.381 21.000 16.786 21.812 C 17.009 22.259,17.242 22.684,17.304 22.758 C 17.445 22.924,17.688 23.038,17.908 23.039 C 18.290 23.041,18.807 22.737,18.960 22.420 C 19.102 22.126,19.059 21.894,18.744 21.252 L 18.484 20.723 18.808 20.561 C 19.907 20.011,20.643 19.043,20.876 17.840 C 20.982 17.298,21.000 16.579,21.000 13.000 C 21.000 8.788,20.984 8.439,20.755 7.680 C 20.424 6.581,19.464 5.621,18.320 5.246 C 17.836 5.087,17.332 5.037,15.950 5.012 C 15.230 4.999,14.640 4.982,14.640 4.974 C 14.640 4.967,14.860 4.519,15.130 3.980 L 15.619 3.000 15.784 3.000 C 16.143 3.000,16.394 3.086,17.280 3.516 C 18.272 3.997,18.380 4.040,18.608 4.040 C 19.061 4.040,19.533 3.458,19.532 2.899 C 19.531 2.465,19.374 2.328,18.234 1.757 C 17.218 1.248,16.818 1.103,16.260 1.040 C 15.817 0.991,9.384 0.962,8.320 1.005 M13.360 3.020 C 13.360 3.031,13.140 3.481,12.870 4.020 L 12.381 5.000 12.000 5.000 L 11.619 5.000 11.130 4.020 C 10.860 3.481,10.640 3.031,10.640 3.020 C 10.640 3.009,11.252 3.000,12.000 3.000 C 12.748 3.000,13.360 3.009,13.360 3.020 M17.492 7.092 C 17.892 7.187,18.109 7.308,18.400 7.600 C 18.923 8.123,18.959 8.294,18.988 10.390 L 19.011 12.000 12.000 12.000 L 4.989 12.000 5.012 10.390 C 5.035 8.673,5.060 8.429,5.248 8.051 C 5.371 7.805,5.654 7.496,5.903 7.336 C 6.174 7.163,6.495 7.075,6.980 7.040 C 7.200 7.024,9.594 7.015,12.300 7.019 C 16.678 7.026,17.250 7.034,17.492 7.092 M18.988 15.610 C 18.959 17.706,18.923 17.877,18.400 18.401 C 18.101 18.701,17.820 18.851,17.418 18.928 C 17.011 19.004,6.989 19.004,6.582 18.927 C 6.170 18.850,5.898 18.704,5.600 18.403 C 5.076 17.874,5.041 17.706,5.012 15.610 L 4.989 14.000 12.000 14.000 L 19.011 14.000 18.988 15.610 M8.174 15.039 C 7.750 15.129,7.329 15.477,7.132 15.900 C 7.035 16.107,7.020 16.190,7.020 16.500 C 7.020 16.811,7.035 16.894,7.133 17.104 C 7.276 17.413,7.585 17.721,7.900 17.868 C 8.107 17.965,8.190 17.980,8.500 17.980 C 8.810 17.980,8.893 17.965,9.100 17.868 C 9.415 17.721,9.724 17.413,9.867 17.104 C 9.965 16.894,9.980 16.811,9.980 16.500 C 9.980 16.189,9.965 16.106,9.867 15.896 C 9.727 15.592,9.415 15.278,9.119 15.143 C 8.870 15.030,8.441 14.982,8.174 15.039 M15.174 15.039 C 14.750 15.129,14.329 15.477,14.132 15.900 C 14.035 16.107,14.020 16.190,14.020 16.500 C 14.020 16.811,14.035 16.894,14.133 17.104 C 14.276 17.413,14.585 17.721,14.900 17.868 C 15.107 17.965,15.190 17.980,15.500 17.980 C 15.810 17.980,15.893 17.965,16.100 17.868 C 16.415 17.721,16.724 17.413,16.867 17.104 C 16.965 16.894,16.980 16.811,16.980 16.500 C 16.980 16.189,16.965 16.106,16.867 15.896 C 16.727 15.592,16.415 15.278,16.119 15.143 C 15.870 15.030,15.441 14.982,15.174 15.039 " stroke="none" fill-rule="evenodd" fill="black"></path></svg>