<svg width="24" height="24" viewBox="0 0 24 24" fill="none" xmlns="http://www.w3.org/2000/svg"><path d="M6.614 1.057 C 6.377 1.131,6.212 1.261,6.109 1.453 C 6.035 1.592,6.020 1.684,6.020 2.000 C 6.020 2.331,6.033 2.403,6.120 2.558 C 6.230 2.755,6.414 2.898,6.635 2.959 C 6.823 3.012,8.177 3.012,8.365 2.959 C 8.586 2.898,8.770 2.755,8.880 2.558 C 8.967 2.402,8.980 2.332,8.979 2.000 C 8.978 1.687,8.962 1.591,8.890 1.453 C 8.786 1.256,8.623 1.131,8.371 1.055 C 8.126 0.982,6.851 0.983,6.614 1.057 M6.699 4.000 L 1.658 4.020 1.459 4.122 C 1.144 4.284,1.000 4.560,1.000 5.000 C 1.000 5.428,1.144 5.713,1.442 5.880 L 1.620 5.980 5.870 6.000 L 10.120 6.020 9.696 6.660 C 9.300 7.257,9.212 7.360,8.387 8.189 L 7.502 9.079 6.521 8.104 C 5.928 7.515,5.473 7.096,5.372 7.045 C 5.021 6.868,4.640 6.958,4.299 7.299 C 3.952 7.646,3.863 8.011,4.040 8.363 C 4.097 8.476,4.482 8.895,5.104 9.520 L 6.077 10.500 4.603 11.980 C 3.614 12.973,3.100 13.518,3.040 13.637 C 2.863 13.989,2.952 14.354,3.299 14.701 C 3.646 15.048,4.011 15.137,4.363 14.960 C 4.482 14.900,5.027 14.386,6.020 13.397 L 7.500 11.923 8.480 12.896 C 9.522 13.932,9.677 14.049,10.000 14.049 C 10.477 14.049,11.049 13.477,11.049 13.000 C 11.049 12.677,10.932 12.522,9.896 11.479 L 8.921 10.498 9.841 9.579 L 10.761 8.660 11.647 7.330 L 12.533 6.000 13.376 6.000 C 13.840 6.000,14.285 5.981,14.365 5.959 C 14.586 5.898,14.770 5.755,14.880 5.558 C 14.967 5.402,14.980 5.332,14.979 5.000 C 14.978 4.685,14.963 4.591,14.888 4.450 C 14.783 4.251,14.573 4.101,14.320 4.044 C 14.065 3.986,12.455 3.977,6.699 4.000 M16.091 9.216 C 15.654 9.358,15.353 9.640,15.088 10.151 C 15.000 10.321,14.340 11.693,13.620 13.200 C 12.901 14.707,12.233 16.087,12.136 16.266 C 12.039 16.446,11.960 16.610,11.960 16.631 C 11.960 16.653,11.539 17.552,11.024 18.629 C 10.509 19.707,10.059 20.672,10.024 20.775 C 9.856 21.270,10.067 21.680,10.617 21.923 C 11.043 22.111,11.441 22.051,11.690 21.761 C 11.767 21.671,12.180 20.856,12.681 19.804 L 13.540 18.001 16.500 18.001 L 19.460 18.001 20.319 19.804 C 20.820 20.856,21.233 21.671,21.310 21.761 C 21.559 22.051,21.957 22.111,22.383 21.923 C 22.933 21.680,23.144 21.270,22.976 20.775 C 22.941 20.672,22.491 19.707,21.976 18.629 C 21.461 17.552,21.040 16.653,21.040 16.631 C 21.040 16.610,20.961 16.446,20.864 16.266 C 20.767 16.087,20.099 14.707,19.380 13.200 C 18.660 11.693,17.999 10.320,17.911 10.149 C 17.579 9.507,17.153 9.198,16.567 9.174 C 16.380 9.166,16.194 9.182,16.091 9.216 M17.566 14.052 C 18.069 15.103,18.480 15.972,18.480 15.982 C 18.480 15.992,17.587 16.000,16.496 16.000 C 14.925 16.000,14.515 15.990,14.531 15.950 C 14.541 15.923,14.987 14.985,15.522 13.867 L 16.495 11.833 16.574 11.987 C 16.617 12.071,17.064 13.000,17.566 14.052 " stroke="none" fill-rule="evenodd" fill="black"></path></svg>