<svg width="24" height="24" viewBox="0 0 24 24" fill="none" xmlns="http://www.w3.org/2000/svg"><path d="M7.614 2.057 C 7.377 2.131,7.212 2.261,7.109 2.453 C 7.029 2.603,7.019 2.689,7.007 3.310 L 6.993 4.000 4.403 4.000 C 1.637 4.000,1.597 4.003,1.322 4.199 C 1.100 4.357,1.020 4.568,1.020 5.000 C 1.020 5.331,1.033 5.403,1.120 5.558 C 1.230 5.755,1.414 5.898,1.635 5.959 C 1.728 5.985,3.308 6.000,6.034 6.000 C 9.925 6.000,10.286 6.005,10.264 6.064 C 10.250 6.100,10.193 6.311,10.136 6.534 C 9.876 7.562,9.432 8.731,8.904 9.775 C 8.444 10.684,8.004 11.406,7.933 11.366 C 7.859 11.325,7.186 10.588,6.937 10.276 C 6.614 9.871,6.295 9.363,6.037 8.839 C 5.763 8.286,5.623 8.111,5.380 8.018 C 4.938 7.849,4.185 8.182,4.018 8.620 C 3.923 8.868,3.964 9.120,4.177 9.594 C 4.616 10.570,5.305 11.538,6.254 12.509 L 6.770 13.038 6.448 13.392 C 5.110 14.857,3.635 16.003,1.915 16.915 C 1.298 17.242,1.149 17.355,1.040 17.580 C 0.967 17.730,0.954 17.809,0.972 17.984 C 1.017 18.421,1.303 18.861,1.621 18.983 C 1.926 19.099,2.139 19.050,2.778 18.719 C 4.776 17.683,6.580 16.270,8.093 14.554 L 8.363 14.247 8.631 14.409 C 9.118 14.705,9.768 15.000,9.990 15.026 C 10.396 15.074,10.705 14.864,10.910 14.402 C 11.050 14.084,11.070 13.818,10.968 13.590 C 10.870 13.367,10.689 13.227,10.142 12.952 C 9.484 12.620,9.508 12.732,9.943 12.033 C 10.387 11.321,11.064 9.967,11.372 9.180 C 11.670 8.416,11.957 7.516,12.164 6.690 L 12.337 6.000 13.278 6.000 C 13.796 6.000,14.285 5.981,14.365 5.959 C 14.586 5.898,14.770 5.755,14.880 5.558 C 14.967 5.402,14.980 5.332,14.979 5.000 C 14.978 4.567,14.898 4.355,14.678 4.199 C 14.403 4.003,14.363 4.000,11.598 4.000 L 9.008 4.000 8.993 3.310 C 8.976 2.541,8.930 2.378,8.678 2.199 C 8.414 2.010,7.957 1.950,7.614 2.057 M16.091 9.216 C 15.654 9.358,15.353 9.640,15.088 10.151 C 15.000 10.321,14.340 11.693,13.620 13.200 C 12.901 14.707,12.233 16.087,12.136 16.266 C 12.039 16.446,11.960 16.610,11.960 16.631 C 11.960 16.653,11.539 17.552,11.024 18.629 C 10.509 19.707,10.059 20.672,10.024 20.775 C 9.856 21.270,10.067 21.680,10.617 21.923 C 11.043 22.111,11.441 22.051,11.690 21.761 C 11.767 21.671,12.180 20.856,12.681 19.804 L 13.540 18.001 16.500 18.001 L 19.460 18.001 20.319 19.804 C 20.820 20.856,21.233 21.671,21.310 21.761 C 21.559 22.051,21.957 22.111,22.383 21.923 C 22.933 21.680,23.144 21.270,22.976 20.775 C 22.941 20.672,22.491 19.707,21.976 18.629 C 21.461 17.552,21.040 16.653,21.040 16.631 C 21.040 16.610,20.961 16.446,20.864 16.266 C 20.767 16.087,20.099 14.707,19.380 13.200 C 18.660 11.693,17.999 10.320,17.911 10.149 C 17.579 9.507,17.153 9.198,16.567 9.174 C 16.380 9.166,16.194 9.182,16.091 9.216 M17.566 14.052 C 18.069 15.103,18.480 15.972,18.480 15.982 C 18.480 15.992,17.587 16.000,16.496 16.000 C 14.925 16.000,14.515 15.990,14.531 15.950 C 14.541 15.923,14.987 14.985,15.522 13.867 L 16.495 11.833 16.574 11.987 C 16.617 12.071,17.064 13.000,17.566 14.052 " stroke="none" fill-rule="evenodd" fill="black"></path></svg>