<svg width="24" height="24" viewBox="0 0 24 24" fill="none" xmlns="http://www.w3.org/2000/svg"><path d="M9.749 1.045 C 8.771 1.139,8.037 1.557,7.527 2.310 C 7.162 2.848,7.044 3.300,7.012 4.290 L 6.989 5.000 4.901 5.000 C 2.674 5.000,2.592 5.006,2.322 5.199 C 2.100 5.357,2.020 5.568,2.020 6.000 C 2.020 6.331,2.033 6.403,2.120 6.558 C 2.230 6.755,2.414 6.898,2.635 6.959 C 2.715 6.981,3.054 7.000,3.390 7.000 L 4.000 7.000 4.000 12.870 C 4.000 19.368,4.005 19.524,4.245 20.320 C 4.577 21.422,5.578 22.423,6.680 22.755 C 7.439 22.984,7.788 23.000,12.000 23.000 C 16.212 23.000,16.561 22.984,17.320 22.755 C 18.422 22.423,19.423 21.422,19.755 20.320 C 19.995 19.524,20.000 19.368,20.000 12.870 L 20.000 7.000 20.610 7.000 C 20.946 7.000,21.285 6.981,21.365 6.959 C 21.586 6.898,21.770 6.755,21.880 6.558 C 21.967 6.402,21.980 6.332,21.979 6.000 C 21.978 5.567,21.898 5.355,21.678 5.199 C 21.408 5.006,21.326 5.000,19.100 5.000 L 17.012 5.000 16.988 4.290 C 16.954 3.296,16.837 2.846,16.473 2.310 C 16.184 1.882,15.811 1.560,15.329 1.321 C 15.019 1.168,14.706 1.091,14.180 1.042 C 13.665 0.993,10.261 0.995,9.749 1.045 M14.374 3.076 C 14.576 3.142,14.862 3.430,14.918 3.626 C 14.942 3.711,14.973 4.054,14.987 4.390 L 15.012 5.000 12.006 5.000 L 9.000 5.000 9.000 4.630 C 9.001 4.024,9.063 3.610,9.179 3.434 C 9.333 3.202,9.547 3.080,9.866 3.041 C 10.310 2.987,14.191 3.017,14.374 3.076 M17.989 13.110 C 17.974 19.767,17.984 19.476,17.752 19.952 C 17.626 20.211,17.190 20.638,16.918 20.768 C 16.477 20.980,16.468 20.980,12.000 20.980 C 7.539 20.980,7.527 20.979,7.082 20.771 C 6.812 20.643,6.377 20.217,6.248 19.952 C 6.016 19.476,6.026 19.767,6.011 13.110 L 5.996 7.000 12.000 7.000 L 18.004 7.000 17.989 13.110 " stroke="none" fill-rule="evenodd" fill="black"></path></svg>