<svg width="24" height="24" viewBox="0 0 24 24" fill="none" xmlns="http://www.w3.org/2000/svg"><path d="M8.614 2.057 C 8.377 2.131,8.212 2.261,8.109 2.453 C 8.035 2.592,8.020 2.684,8.020 3.000 C 8.020 3.331,8.033 3.403,8.120 3.558 C 8.230 3.755,8.414 3.898,8.635 3.959 C 8.832 4.014,15.168 4.014,15.365 3.959 C 15.586 3.898,15.770 3.755,15.880 3.558 C 15.967 3.402,15.980 3.332,15.979 3.000 C 15.978 2.567,15.898 2.355,15.678 2.199 C 15.398 1.999,15.411 2.000,11.984 2.003 C 9.472 2.005,8.744 2.017,8.614 2.057 M2.614 5.057 C 2.377 5.131,2.212 5.261,2.109 5.453 C 2.035 5.592,2.020 5.684,2.020 6.000 C 2.020 6.331,2.033 6.403,2.120 6.558 C 2.230 6.755,2.414 6.898,2.635 6.959 C 2.715 6.981,3.068 7.000,3.420 7.000 L 4.060 7.000 4.413 12.290 C 4.607 15.200,4.792 17.813,4.823 18.098 C 4.945 19.196,5.152 19.785,5.644 20.439 C 6.089 21.030,6.790 21.533,7.480 21.758 C 8.151 21.977,8.216 21.980,12.000 21.980 C 15.785 21.980,15.853 21.977,16.519 21.758 C 17.586 21.406,18.496 20.540,18.879 19.511 C 19.006 19.169,19.115 18.651,19.177 18.098 C 19.208 17.813,19.393 15.200,19.587 12.290 L 19.940 7.000 20.580 7.000 C 20.932 7.000,21.285 6.981,21.365 6.959 C 21.586 6.898,21.770 6.755,21.880 6.558 C 21.967 6.402,21.980 6.332,21.979 6.000 C 21.978 5.567,21.898 5.355,21.678 5.199 C 21.385 4.990,21.877 5.000,11.984 5.003 C 4.546 5.005,2.748 5.015,2.614 5.057 M17.920 7.056 C 17.920 7.217,17.233 17.366,17.197 17.740 C 17.104 18.697,16.987 19.015,16.580 19.420 C 16.313 19.685,16.026 19.843,15.660 19.926 C 15.308 20.005,8.692 20.005,8.340 19.926 C 7.974 19.843,7.687 19.685,7.420 19.420 C 7.013 19.015,6.896 18.697,6.803 17.740 C 6.767 17.370,6.080 7.215,6.080 7.054 C 6.080 7.009,7.048 7.000,12.000 7.000 C 17.061 7.000,17.920 7.008,17.920 7.056 M9.545 9.579 C 9.320 9.659,9.128 9.863,9.059 10.096 C 8.971 10.391,8.971 15.609,9.059 15.904 C 9.173 16.287,9.493 16.486,9.997 16.488 C 10.501 16.490,10.827 16.289,10.941 15.904 C 11.030 15.605,11.029 10.391,10.940 10.092 C 10.868 9.852,10.645 9.627,10.413 9.563 C 10.200 9.504,9.731 9.513,9.545 9.579 M13.545 9.579 C 13.320 9.659,13.128 9.863,13.059 10.096 C 12.971 10.391,12.971 15.609,13.059 15.904 C 13.173 16.287,13.493 16.486,13.997 16.488 C 14.501 16.490,14.827 16.289,14.941 15.904 C 15.030 15.605,15.029 10.391,14.940 10.092 C 14.868 9.852,14.645 9.627,14.413 9.563 C 14.200 9.504,13.731 9.513,13.545 9.579 " stroke="none" fill-rule="evenodd" fill="black"></path></svg>