<svg width="24" height="24" viewBox="0 0 24 24" fill="none" xmlns="http://www.w3.org/2000/svg"><path d="M11.719 6.000 L 6.658 6.020 6.459 6.122 C 6.119 6.297,5.978 6.606,6.009 7.104 C 6.038 7.563,6.250 7.852,6.635 7.959 C 6.728 7.985,8.191 8.000,10.680 8.000 L 14.579 8.000 10.354 12.230 C 7.338 15.248,6.103 16.511,6.039 16.637 C 5.863 16.990,5.952 17.355,6.299 17.701 C 6.645 18.048,7.010 18.137,7.363 17.961 C 7.489 17.897,8.752 16.662,11.770 13.646 L 16.000 9.421 16.000 13.320 C 16.000 15.809,16.015 17.272,16.041 17.365 C 16.148 17.750,16.437 17.962,16.896 17.991 C 17.381 18.022,17.699 17.882,17.880 17.558 L 17.980 17.380 18.006 12.220 C 18.021 9.382,18.034 7.001,18.036 6.929 C 18.041 6.745,17.835 6.310,17.696 6.212 C 17.467 6.051,17.198 5.960,16.985 5.970 C 16.872 5.975,14.503 5.988,11.719 6.000 " stroke="none" fill-rule="evenodd" fill="black"></path></svg>