<svg width="24" height="24" viewBox="0 0 24 24" fill="none" xmlns="http://www.w3.org/2000/svg"><path d="M18.219 5.999 L 14.658 6.020 14.459 6.122 C 14.119 6.297,13.978 6.606,14.009 7.104 C 14.038 7.563,14.250 7.852,14.635 7.959 C 14.725 7.984,15.696 8.000,17.180 8.000 L 19.580 8.000 16.291 11.289 L 13.002 14.578 11.131 12.717 C 10.044 11.635,9.172 10.800,9.050 10.723 C 8.419 10.327,7.535 10.336,6.920 10.744 C 6.590 10.963,1.150 16.414,1.039 16.637 C 0.864 16.990,0.953 17.355,1.299 17.701 C 1.646 18.048,2.010 18.137,2.363 17.961 C 2.487 17.898,3.356 17.058,5.270 15.147 L 7.999 12.422 9.850 14.267 C 11.070 15.483,11.784 16.165,11.947 16.269 C 12.583 16.678,13.415 16.678,14.053 16.270 C 14.225 16.160,15.321 15.092,17.650 12.767 L 21.000 9.422 21.000 11.821 C 21.000 13.305,21.016 14.275,21.041 14.365 C 21.148 14.750,21.437 14.962,21.896 14.991 C 22.381 15.022,22.699 14.882,22.880 14.558 L 22.980 14.380 23.007 10.720 C 23.021 8.707,23.035 7.001,23.037 6.929 C 23.041 6.744,22.835 6.310,22.696 6.212 C 22.467 6.051,22.198 5.960,21.985 5.969 C 21.872 5.975,20.178 5.988,18.219 5.999 " stroke="none" fill-rule="evenodd" fill="black"></path></svg>