<svg width="24" height="24" viewBox="0 0 24 24" fill="none" xmlns="http://www.w3.org/2000/svg"><path d="M1.626 6.045 C 1.420 6.154,1.146 6.433,1.038 6.644 C 0.924 6.867,0.924 7.132,1.039 7.363 C 1.163 7.612,6.600 13.049,6.947 13.270 C 7.585 13.678,8.417 13.678,9.053 13.269 C 9.216 13.165,9.931 12.483,11.151 11.266 L 13.001 9.421 16.291 12.711 L 19.580 16.000 17.196 16.000 C 14.653 16.000,14.595 16.004,14.322 16.199 C 14.139 16.329,14.030 16.573,14.009 16.900 C 13.978 17.381,14.119 17.699,14.442 17.880 L 14.620 17.980 18.280 18.007 C 20.293 18.021,21.998 18.035,22.069 18.037 C 22.208 18.041,22.610 17.879,22.735 17.768 C 22.848 17.669,23.040 17.223,23.037 17.071 C 23.035 16.999,23.021 15.293,23.007 13.280 L 22.980 9.620 22.889 9.450 C 22.724 9.140,22.329 8.970,21.874 9.011 C 21.439 9.051,21.141 9.274,21.041 9.635 C 21.016 9.725,21.000 10.695,21.000 12.179 L 21.000 14.578 17.630 11.216 C 15.544 9.135,14.180 7.804,14.050 7.723 C 13.428 7.334,12.569 7.335,11.950 7.723 C 11.828 7.800,10.956 8.635,9.869 9.716 L 7.999 11.578 5.269 8.853 C 3.442 7.028,2.484 6.100,2.372 6.044 C 2.152 5.934,1.835 5.935,1.626 6.045 " stroke="none" fill-rule="evenodd" fill="black"></path></svg>