<svg width="24" height="24" viewBox="0 0 24 24" fill="none" xmlns="http://www.w3.org/2000/svg"><path d="M4.920 2.041 C 4.152 2.092,3.672 2.205,3.180 2.451 C 2.089 2.996,1.357 3.961,1.124 5.160 C 1.018 5.702,1.000 6.421,1.000 10.000 C 1.000 14.212,1.016 14.561,1.245 15.320 C 1.577 16.422,2.583 17.428,3.680 17.754 C 4.357 17.956,4.542 17.970,6.913 17.996 L 9.126 18.020 7.661 19.192 C 6.029 20.497,5.960 20.569,5.960 20.955 C 5.960 21.319,6.220 21.731,6.585 21.945 C 6.830 22.088,7.189 22.071,7.442 21.903 C 7.536 21.841,8.601 21.000,9.807 20.035 L 12.000 18.279 14.193 20.035 C 15.399 21.000,16.464 21.841,16.558 21.903 C 16.811 22.071,17.170 22.088,17.415 21.945 C 17.780 21.731,18.040 21.319,18.040 20.955 C 18.040 20.569,17.971 20.497,16.339 19.192 L 14.874 18.020 17.087 17.996 C 19.458 17.970,19.643 17.956,20.320 17.754 C 21.417 17.428,22.423 16.422,22.755 15.320 C 22.984 14.561,23.000 14.212,23.000 10.000 C 23.000 5.788,22.984 5.439,22.755 4.680 C 22.424 3.581,21.465 2.622,20.320 2.246 C 19.635 2.021,19.900 2.028,12.340 2.019 C 8.512 2.014,5.173 2.024,4.920 2.041 M19.492 4.091 C 19.894 4.188,20.110 4.309,20.400 4.600 C 20.696 4.895,20.814 5.109,20.912 5.528 C 20.974 5.794,20.980 6.199,20.980 10.000 C 20.980 14.557,20.984 14.476,20.752 14.952 C 20.626 15.211,20.190 15.638,19.918 15.768 C 19.463 15.987,19.707 15.980,12.000 15.980 C 4.304 15.980,4.541 15.986,4.082 15.771 C 3.812 15.643,3.377 15.217,3.248 14.952 C 3.016 14.476,3.020 14.557,3.020 10.000 C 3.020 6.199,3.026 5.794,3.088 5.528 C 3.175 5.155,3.294 4.918,3.520 4.667 C 3.883 4.262,4.282 4.090,4.980 4.039 C 5.200 4.023,8.494 4.013,12.300 4.017 C 18.585 4.024,19.245 4.031,19.492 4.091 " stroke="none" fill-rule="evenodd" fill="black"></path></svg>