<svg width="24" height="24" viewBox="0 0 24 24" fill="none" xmlns="http://www.w3.org/2000/svg"><path d="M6.610 2.044 C 6.254 2.220,5.960 2.673,5.960 3.045 C 5.960 3.431,6.029 3.503,7.661 4.808 L 9.126 5.980 6.933 6.006 C 4.605 6.033,4.250 6.059,3.680 6.246 C 2.534 6.622,1.576 7.579,1.245 8.680 C 1.016 9.439,1.000 9.788,1.000 14.000 C 1.000 18.212,1.016 18.561,1.245 19.320 C 1.577 20.422,2.578 21.423,3.680 21.755 C 4.485 21.998,4.567 22.000,12.000 22.000 C 19.433 22.000,19.515 21.998,20.320 21.755 C 21.422 21.423,22.423 20.422,22.755 19.320 C 22.984 18.561,23.000 18.212,23.000 14.000 C 23.000 9.788,22.984 9.439,22.755 8.680 C 22.424 7.581,21.464 6.621,20.320 6.246 C 19.750 6.059,19.395 6.033,17.067 6.006 L 14.874 5.980 16.339 4.808 C 17.971 3.503,18.040 3.431,18.040 3.045 C 18.040 2.784,17.944 2.564,17.718 2.307 C 17.404 1.951,16.997 1.863,16.620 2.072 C 16.510 2.133,15.425 2.979,14.210 3.952 L 12.000 5.721 9.790 3.952 C 8.575 2.979,7.490 2.133,7.380 2.072 C 7.129 1.933,6.854 1.923,6.610 2.044 M19.492 8.091 C 19.894 8.188,20.110 8.309,20.400 8.600 C 20.696 8.895,20.814 9.109,20.912 9.528 C 20.974 9.794,20.980 10.199,20.980 14.000 C 20.980 18.557,20.984 18.476,20.752 18.952 C 20.626 19.211,20.190 19.638,19.918 19.768 C 19.463 19.987,19.707 19.980,12.000 19.980 C 4.304 19.980,4.541 19.986,4.082 19.771 C 3.812 19.643,3.377 19.217,3.248 18.952 C 3.016 18.476,3.020 18.557,3.020 14.000 C 3.020 10.199,3.026 9.794,3.088 9.528 C 3.175 9.155,3.294 8.918,3.520 8.667 C 3.884 8.262,4.282 8.090,4.980 8.040 C 5.200 8.024,8.494 8.014,12.300 8.018 C 18.576 8.024,19.245 8.031,19.492 8.091 " stroke="none" fill-rule="evenodd" fill="black"></path></svg>