<svg version="1.1" xmlns="http://www.w3.org/2000/svg" width="32" height="32" viewBox="0 0 32 32"><path d="M15.142 0.327 C 10.476 0.545,6.103 2.924,3.297 6.773 C 1.808 8.817,0.845 11.239,0.445 13.947 C 0.300 14.935,0.314 17.099,0.473 18.133 C 0.915 21.000,2.000 23.519,3.743 25.718 C 4.586 26.783,5.976 28.078,7.120 28.864 C 11.268 31.717,16.555 32.399,21.308 30.694 C 22.564 30.244,24.102 29.430,25.173 28.649 C 29.806 25.272,32.235 19.708,31.546 14.053 C 30.912 8.849,27.716 4.324,22.996 1.950 C 20.554 0.721,18.002 0.194,15.142 0.327 M12.860 9.517 C 13.813 9.719,14.602 10.400,14.970 11.340 C 15.097 11.665,15.114 11.779,15.115 12.347 C 15.116 12.935,15.103 13.018,14.958 13.372 C 14.045 15.595,11.147 15.912,9.833 13.932 C 9.510 13.446,9.373 12.972,9.375 12.347 C 9.379 11.452,9.669 10.789,10.315 10.200 C 11.006 9.570,11.934 9.321,12.860 9.517 M20.450 9.546 C 20.985 9.683,21.388 9.915,21.788 10.317 C 22.902 11.438,22.902 13.246,21.787 14.376 C 21.611 14.554,21.331 14.777,21.165 14.871 C 20.799 15.078,20.144 15.253,19.733 15.253 C 19.323 15.253,18.667 15.078,18.301 14.871 C 17.904 14.646,17.402 14.130,17.188 13.728 C 16.589 12.598,16.787 11.223,17.680 10.317 C 18.070 9.922,18.477 9.684,18.995 9.548 C 19.503 9.415,19.937 9.415,20.450 9.546 M13.122 16.802 C 14.038 17.067,14.839 17.929,15.066 18.893 C 15.429 20.430,14.494 21.975,12.960 22.375 C 12.506 22.493,11.731 22.458,11.284 22.299 C 9.668 21.724,8.898 19.846,9.650 18.317 C 9.906 17.797,10.214 17.435,10.632 17.166 C 11.391 16.675,12.252 16.549,13.122 16.802 M20.533 16.782 C 21.474 17.040,22.286 17.861,22.531 18.798 C 22.639 19.213,22.637 19.954,22.527 20.324 C 22.378 20.827,22.135 21.236,21.766 21.606 C 20.621 22.750,18.843 22.747,17.695 21.599 C 17.083 20.987,16.821 20.289,16.866 19.390 C 16.894 18.830,17.026 18.412,17.312 17.982 C 18.023 16.911,19.287 16.440,20.533 16.782 " stroke="none" fill-rule="evenodd" fill="black"></path></svg>