<svg version="1.1" xmlns="http://www.w3.org/2000/svg" width="32" height="32" viewBox="0 0 32 32"><path d="M15.142 0.327 C 10.476 0.545,6.103 2.924,3.297 6.773 C 1.808 8.817,0.845 11.239,0.445 13.947 C 0.300 14.935,0.314 17.099,0.473 18.133 C 0.915 21.000,2.000 23.519,3.743 25.718 C 4.586 26.783,5.976 28.078,7.120 28.864 C 11.268 31.717,16.555 32.399,21.308 30.694 C 22.564 30.244,24.102 29.430,25.173 28.649 C 29.806 25.272,32.235 19.708,31.546 14.053 C 30.912 8.849,27.716 4.324,22.996 1.950 C 20.554 0.721,18.002 0.194,15.142 0.327 M17.440 4.877 C 19.920 5.210,22.142 6.304,23.892 8.055 C 25.674 9.837,26.785 12.133,27.092 14.665 C 27.172 15.327,27.159 16.702,27.065 17.424 C 26.484 21.902,23.181 25.644,18.813 26.770 C 17.795 27.032,17.103 27.117,15.973 27.116 C 14.843 27.115,14.190 27.033,13.173 26.766 C 10.018 25.937,7.394 23.793,5.969 20.880 C 5.432 19.782,5.119 18.769,4.931 17.520 C 4.813 16.732,4.813 15.163,4.931 14.373 C 5.298 11.920,6.372 9.783,8.105 8.053 C 9.833 6.329,12.083 5.207,14.453 4.887 C 15.191 4.787,16.732 4.782,17.440 4.877 M11.653 9.502 C 10.891 9.647,10.010 10.327,9.662 11.040 C 9.482 11.409,9.335 11.995,9.335 12.347 C 9.335 13.006,9.648 13.789,10.112 14.290 C 11.354 15.631,13.454 15.544,14.546 14.107 C 16.166 11.973,14.300 9.001,11.653 9.502 M18.995 9.548 C 18.021 9.804,17.261 10.539,16.956 11.520 C 16.821 11.956,16.812 12.699,16.937 13.120 C 17.147 13.829,17.688 14.524,18.301 14.871 C 18.667 15.078,19.323 15.253,19.733 15.253 C 20.141 15.253,20.800 15.078,21.152 14.877 C 22.814 13.926,23.134 11.651,21.793 10.319 C 21.386 9.914,20.984 9.682,20.450 9.546 C 19.937 9.415,19.503 9.415,18.995 9.548 M11.893 16.700 C 10.688 16.828,9.668 17.761,9.412 18.971 C 9.308 19.462,9.314 19.748,9.439 20.235 C 9.573 20.758,9.802 21.189,10.131 21.534 C 10.690 22.120,11.289 22.394,12.107 22.438 C 12.992 22.485,13.677 22.221,14.302 21.593 C 14.863 21.030,15.147 20.337,15.147 19.529 C 15.147 18.075,13.949 16.783,12.507 16.682 C 12.360 16.672,12.084 16.680,11.893 16.700 M19.360 16.701 C 18.239 16.822,17.255 17.669,16.934 18.787 C 16.795 19.269,16.816 19.951,16.985 20.453 C 17.563 22.175,19.454 22.947,21.080 22.126 C 21.542 21.894,22.121 21.304,22.332 20.853 C 22.878 19.686,22.667 18.407,21.784 17.523 C 21.136 16.875,20.316 16.597,19.360 16.701 " stroke="none" fill-rule="evenodd" fill="black"></path></svg>