<svg version="1.1" xmlns="http://www.w3.org/2000/svg" width="32" height="32" viewBox="0 0 32 32"><path d="M4.577 0.057 C 4.007 0.142,3.600 0.272,3.013 0.559 C 1.486 1.305,0.448 2.643,0.110 4.303 C 0.001 4.839,-0.000 4.937,-0.000 16.000 C -0.000 27.055,0.001 27.161,0.110 27.696 C 0.546 29.834,2.166 31.454,4.303 31.890 C 4.839 31.999,4.937 32.000,16.000 32.000 C 27.055 32.000,27.161 31.999,27.696 31.890 C 29.831 31.455,31.455 29.832,31.890 27.697 C 31.999 27.161,32.000 27.063,32.000 16.000 C 32.000 4.937,31.999 4.839,31.890 4.303 C 31.552 2.644,30.517 1.309,28.987 0.557 C 28.664 0.399,28.196 0.215,27.947 0.149 L 27.493 0.029 16.187 0.020 C 9.968 0.016,4.744 0.032,4.577 0.057 M21.601 5.465 C 22.535 5.543,23.686 6.083,24.490 6.820 L 24.793 7.098 25.130 7.013 C 26.029 6.786,26.950 6.435,27.667 6.046 L 28.107 5.807 28.000 6.080 C 27.628 7.023,26.942 7.935,26.191 8.481 C 26.015 8.610,25.879 8.724,25.890 8.735 C 25.969 8.813,27.638 8.388,28.325 8.115 C 28.542 8.028,28.728 7.965,28.738 7.975 C 28.770 8.005,28.429 8.474,28.021 8.960 C 27.594 9.469,26.906 10.136,26.467 10.468 L 26.187 10.679 26.186 11.433 C 26.183 14.883,24.917 18.428,22.687 21.227 C 22.219 21.813,21.006 23.026,20.427 23.485 C 17.384 25.897,13.364 26.986,9.393 26.475 C 7.324 26.208,5.231 25.466,3.482 24.377 L 3.232 24.222 4.056 24.251 C 6.276 24.330,8.401 23.724,10.277 22.476 C 10.606 22.257,10.889 22.055,10.907 22.026 C 10.926 21.996,10.873 21.973,10.783 21.973 C 10.142 21.973,9.003 21.610,8.332 21.192 C 7.517 20.685,6.693 19.744,6.304 18.876 C 6.021 18.246,5.974 18.301,6.761 18.333 C 7.373 18.358,7.936 18.311,8.288 18.205 C 8.357 18.184,8.246 18.127,7.941 18.027 C 7.327 17.825,7.126 17.733,6.693 17.454 C 6.177 17.122,5.830 16.817,5.479 16.388 C 4.735 15.479,4.340 14.494,4.237 13.289 L 4.199 12.844 4.486 12.990 C 4.933 13.216,5.473 13.384,6.023 13.468 C 6.300 13.510,6.534 13.537,6.544 13.527 C 6.553 13.518,6.419 13.398,6.245 13.262 C 5.650 12.794,5.150 12.143,4.770 11.341 C 4.095 9.916,4.112 8.086,4.812 6.697 L 4.971 6.380 5.160 6.617 C 5.264 6.747,5.723 7.225,6.181 7.680 C 7.425 8.916,8.485 9.679,10.031 10.448 C 11.789 11.324,13.451 11.777,15.589 11.962 L 15.792 11.979 15.749 11.683 C 15.726 11.520,15.710 11.051,15.714 10.640 C 15.719 10.025,15.744 9.802,15.857 9.376 C 16.339 7.540,17.765 6.086,19.566 5.591 C 19.974 5.479,20.743 5.391,21.067 5.420 C 21.169 5.429,21.410 5.449,21.601 5.465 " stroke="none" fill-rule="evenodd" fill="black"></path></svg>