<svg width="24" height="24" viewBox="0 0 24 24" fill="none" xmlns="http://www.w3.org/2000/svg"><path d="M5.665 3.044 C 4.412 3.176,3.434 4.011,3.115 5.220 C 3.047 5.478,3.027 5.699,3.011 6.360 C 2.998 6.898,3.006 7.236,3.035 7.344 C 3.145 7.748,3.428 7.961,3.896 7.991 C 4.380 8.022,4.700 7.881,4.877 7.562 C 4.967 7.399,4.976 7.327,5.006 6.554 C 5.027 6.006,5.057 5.678,5.093 5.591 C 5.178 5.388,5.344 5.215,5.551 5.113 L 5.740 5.020 8.370 5.007 L 11.000 4.994 11.000 11.997 L 11.000 19.000 9.906 19.000 C 8.744 19.000,8.570 19.022,8.322 19.199 C 8.100 19.357,8.020 19.568,8.020 20.000 C 8.020 20.331,8.033 20.403,8.120 20.558 C 8.230 20.755,8.414 20.898,8.635 20.959 C 8.832 21.014,15.168 21.014,15.365 20.959 C 15.586 20.898,15.770 20.755,15.880 20.558 C 15.967 20.402,15.980 20.332,15.979 20.000 C 15.978 19.567,15.898 19.355,15.678 19.199 C 15.430 19.022,15.256 19.000,14.094 19.000 L 13.000 19.000 13.000 11.997 L 13.000 4.994 15.630 5.007 L 18.260 5.020 18.440 5.114 C 18.679 5.238,18.769 5.326,18.875 5.538 C 18.954 5.696,18.966 5.804,18.993 6.548 C 19.021 7.328,19.029 7.392,19.122 7.559 C 19.286 7.856,19.572 8.000,20.000 8.000 C 20.428 8.000,20.713 7.856,20.880 7.558 C 20.979 7.382,20.980 7.370,20.977 6.460 C 20.974 5.645,20.964 5.504,20.886 5.222 C 20.651 4.365,20.136 3.726,19.371 3.343 C 19.015 3.165,18.742 3.089,18.280 3.041 C 17.816 2.993,6.127 2.995,5.665 3.044 " stroke="none" fill-rule="evenodd" fill="black"></path></svg>