<svg width="24" height="24" viewBox="0 0 24 24" fill="none" xmlns="http://www.w3.org/2000/svg"><path d="M5.920 2.041 C 5.151 2.092,4.672 2.205,4.180 2.451 C 3.089 2.996,2.357 3.961,2.124 5.160 C 2.013 5.729,2.000 6.455,2.000 12.000 C 2.000 18.358,2.006 18.526,2.245 19.320 C 2.577 20.422,3.578 21.423,4.680 21.755 C 5.474 21.994,5.642 22.000,12.000 22.000 C 18.358 22.000,18.526 21.994,19.320 21.755 C 20.422 21.423,21.423 20.422,21.755 19.320 C 21.994 18.526,22.000 18.358,22.000 12.000 C 22.000 5.642,21.994 5.474,21.755 4.680 C 21.424 3.581,20.465 2.622,19.320 2.246 C 18.644 2.024,18.800 2.029,12.340 2.019 C 9.062 2.014,6.173 2.024,5.920 2.041 M18.492 4.091 C 18.894 4.188,19.109 4.309,19.400 4.600 C 19.696 4.895,19.814 5.109,19.912 5.528 C 19.975 5.797,19.980 6.313,19.980 12.000 C 19.980 17.687,19.975 18.203,19.912 18.472 C 19.814 18.891,19.696 19.104,19.400 19.401 C 19.101 19.701,18.820 19.851,18.418 19.928 C 18.010 20.005,5.990 20.005,5.582 19.927 C 5.170 19.850,4.898 19.704,4.600 19.403 C 4.303 19.104,4.186 18.890,4.088 18.472 C 4.025 18.203,4.020 17.687,4.020 12.000 C 4.020 6.313,4.025 5.797,4.088 5.528 C 4.175 5.155,4.294 4.918,4.520 4.667 C 4.883 4.262,5.282 4.091,5.980 4.039 C 6.200 4.023,9.044 4.013,12.300 4.018 C 17.643 4.024,18.247 4.032,18.492 4.091 M7.614 6.057 C 7.377 6.131,7.212 6.261,7.109 6.453 C 7.035 6.592,7.020 6.684,7.020 7.000 C 7.020 7.331,7.033 7.403,7.120 7.558 C 7.230 7.755,7.414 7.898,7.635 7.959 C 7.721 7.983,8.435 8.000,9.390 8.000 L 11.000 8.000 11.000 12.610 C 11.000 15.575,11.015 17.272,11.041 17.365 C 11.148 17.750,11.437 17.962,11.896 17.991 C 12.381 18.022,12.699 17.882,12.880 17.558 L 12.980 17.380 12.991 12.690 L 13.002 8.000 14.611 8.000 C 15.565 8.000,16.279 7.983,16.365 7.959 C 16.586 7.898,16.770 7.755,16.880 7.558 C 16.967 7.402,16.980 7.332,16.979 7.000 C 16.978 6.567,16.898 6.355,16.678 6.199 C 16.393 5.996,16.487 6.000,11.984 6.003 C 8.651 6.005,7.746 6.016,7.614 6.057 " stroke="none" fill-rule="evenodd" fill="black"></path></svg>