<svg width="24" height="24" viewBox="0 0 24 24" fill="none" xmlns="http://www.w3.org/2000/svg"><path d="M2.626 2.045 C 2.257 2.239,1.951 2.673,1.951 3.000 C 1.951 3.293,2.085 3.492,2.702 4.120 L 3.273 4.700 3.149 5.060 C 3.028 5.411,3.025 5.441,3.008 6.300 C 2.998 6.868,3.007 7.238,3.036 7.344 C 3.144 7.748,3.428 7.961,3.896 7.991 C 4.381 8.022,4.700 7.881,4.878 7.559 C 4.963 7.406,4.979 7.317,4.993 6.906 L 5.010 6.430 8.005 9.425 L 11.000 12.420 11.000 15.710 L 11.000 19.000 9.906 19.000 C 8.744 19.000,8.570 19.022,8.322 19.199 C 8.100 19.357,8.020 19.568,8.020 20.000 C 8.020 20.331,8.033 20.403,8.120 20.558 C 8.230 20.755,8.414 20.898,8.635 20.959 C 8.832 21.014,15.168 21.014,15.365 20.959 C 15.586 20.898,15.770 20.755,15.880 20.558 C 15.967 20.402,15.980 20.332,15.979 20.000 C 15.978 19.567,15.898 19.355,15.678 19.199 C 15.430 19.022,15.256 19.000,14.094 19.000 L 13.000 19.000 13.000 16.710 L 13.000 14.421 16.730 18.147 C 19.380 20.794,20.511 21.898,20.637 21.961 C 20.990 22.137,21.355 22.048,21.701 21.701 C 22.048 21.355,22.137 20.990,21.961 20.637 C 21.885 20.486,18.837 17.395,12.747 11.293 C 8.533 7.070,3.506 2.111,3.372 2.044 C 3.152 1.934,2.835 1.935,2.626 2.045 M9.180 3.039 C 8.715 3.159,8.514 3.447,8.512 3.997 C 8.510 4.348,8.582 4.556,8.771 4.751 C 8.977 4.964,9.175 5.000,10.147 5.000 L 11.000 5.000 11.000 5.853 C 11.000 6.825,11.036 7.023,11.249 7.229 C 11.442 7.416,11.647 7.487,11.997 7.488 C 12.348 7.490,12.556 7.418,12.751 7.229 C 12.964 7.023,13.000 6.825,13.000 5.850 L 13.000 4.994 15.630 5.007 L 18.260 5.020 18.440 5.114 C 18.679 5.238,18.769 5.326,18.875 5.538 C 18.954 5.696,18.966 5.804,18.993 6.548 C 19.021 7.328,19.029 7.392,19.122 7.559 C 19.286 7.856,19.572 8.000,20.000 8.000 C 20.428 8.000,20.713 7.856,20.880 7.558 C 20.979 7.382,20.980 7.370,20.977 6.460 C 20.974 5.645,20.964 5.504,20.886 5.222 C 20.651 4.365,20.136 3.726,19.371 3.343 C 19.015 3.165,18.742 3.089,18.280 3.041 C 17.832 2.994,9.362 2.992,9.180 3.039 " stroke="none" fill-rule="evenodd" fill="black"></path></svg>