<svg width="24" height="24" viewBox="0 0 24 24" fill="none" xmlns="http://www.w3.org/2000/svg"><path d="M5.665 3.044 C 4.412 3.176,3.434 4.011,3.115 5.220 C 3.047 5.478,3.027 5.699,3.011 6.360 C 2.998 6.898,3.006 7.236,3.035 7.344 C 3.145 7.748,3.428 7.961,3.896 7.991 C 4.380 8.022,4.700 7.881,4.877 7.562 C 4.967 7.399,4.976 7.327,5.006 6.554 C 5.027 6.006,5.057 5.678,5.093 5.591 C 5.178 5.388,5.344 5.215,5.551 5.113 C 5.739 5.021,5.752 5.020,7.490 5.006 L 9.240 4.992 9.240 11.996 L 9.240 19.000 8.526 19.000 C 7.566 19.000,7.307 19.083,7.109 19.453 C 7.035 19.592,7.020 19.684,7.020 20.000 C 7.020 20.331,7.033 20.403,7.120 20.558 C 7.230 20.755,7.414 20.898,7.635 20.959 C 7.833 21.014,16.167 21.014,16.365 20.959 C 16.586 20.898,16.770 20.755,16.880 20.558 C 16.967 20.402,16.980 20.332,16.979 20.000 C 16.978 19.687,16.962 19.591,16.890 19.453 C 16.694 19.083,16.435 19.000,15.474 19.000 L 14.760 19.000 14.760 11.996 L 14.760 4.992 16.510 5.006 C 18.255 5.020,18.261 5.020,18.440 5.114 C 18.679 5.238,18.769 5.326,18.875 5.538 C 18.954 5.696,18.966 5.804,18.993 6.548 C 19.021 7.328,19.029 7.392,19.122 7.559 C 19.286 7.856,19.572 8.000,20.000 8.000 C 20.428 8.000,20.713 7.856,20.880 7.558 C 20.979 7.382,20.980 7.370,20.977 6.460 C 20.974 5.645,20.964 5.504,20.886 5.222 C 20.651 4.365,20.136 3.726,19.371 3.343 C 19.015 3.165,18.742 3.089,18.280 3.041 C 17.816 2.993,6.127 2.995,5.665 3.044 M12.760 12.000 L 12.760 19.000 12.000 19.000 L 11.240 19.000 11.240 12.000 L 11.240 5.000 12.000 5.000 L 12.760 5.000 12.760 12.000 " stroke="none" fill-rule="evenodd" fill="black"></path></svg>