<svg width="24" height="24" viewBox="0 0 24 24" fill="none" xmlns="http://www.w3.org/2000/svg"><path d="M2.626 2.045 C 2.257 2.239,1.951 2.673,1.951 3.000 C 1.951 3.293,2.085 3.492,2.702 4.120 L 3.273 4.700 3.147 5.060 L 3.021 5.420 3.021 6.400 C 3.020 7.326,3.025 7.389,3.106 7.540 C 3.285 7.875,3.496 7.978,4.000 7.978 C 4.292 7.978,4.412 7.961,4.520 7.904 C 4.882 7.713,4.969 7.529,4.992 6.905 L 5.010 6.430 7.125 8.545 L 9.240 10.660 9.240 14.830 L 9.240 19.000 8.526 19.000 C 7.566 19.000,7.307 19.083,7.109 19.453 C 7.035 19.592,7.020 19.684,7.020 20.000 C 7.020 20.331,7.033 20.403,7.120 20.558 C 7.230 20.755,7.414 20.898,7.635 20.959 C 7.833 21.014,16.167 21.014,16.365 20.959 C 16.586 20.898,16.770 20.755,16.880 20.558 C 16.967 20.402,16.980 20.332,16.979 20.000 C 16.978 19.687,16.962 19.591,16.890 19.453 C 16.694 19.083,16.435 19.000,15.474 19.000 L 14.760 19.000 14.760 17.591 L 14.760 16.181 17.610 19.027 C 19.613 21.026,20.513 21.898,20.637 21.961 C 20.990 22.137,21.354 22.048,21.701 21.701 C 22.047 21.355,22.136 20.990,21.961 20.637 C 21.839 20.392,3.616 2.165,3.372 2.044 C 3.152 1.934,2.834 1.935,2.626 2.045 M9.180 3.039 C 8.867 3.120,8.693 3.263,8.579 3.537 C 8.483 3.765,8.488 4.257,8.588 4.483 C 8.684 4.700,8.913 4.907,9.092 4.941 C 9.220 4.965,9.226 4.975,9.269 5.227 C 9.362 5.766,9.644 5.980,10.260 5.980 C 10.648 5.979,10.843 5.912,11.029 5.713 C 11.138 5.596,11.240 5.316,11.240 5.135 L 11.240 5.000 12.000 5.000 L 12.760 5.000 12.760 6.635 C 12.760 8.436,12.767 8.500,13.005 8.746 C 13.176 8.922,13.495 9.015,13.840 8.991 C 14.336 8.955,14.622 8.737,14.717 8.320 C 14.741 8.214,14.758 7.493,14.759 6.566 L 14.760 4.992 16.510 5.006 C 18.255 5.020,18.261 5.020,18.440 5.114 C 18.679 5.238,18.769 5.326,18.875 5.538 C 18.954 5.696,18.966 5.804,18.993 6.548 C 19.021 7.328,19.029 7.392,19.122 7.559 C 19.286 7.856,19.572 8.000,20.000 8.000 C 20.428 8.000,20.713 7.856,20.880 7.558 C 20.979 7.382,20.980 7.370,20.977 6.460 C 20.974 5.645,20.964 5.504,20.886 5.222 C 20.651 4.365,20.136 3.726,19.371 3.343 C 19.015 3.165,18.742 3.089,18.280 3.041 C 17.832 2.994,9.362 2.992,9.180 3.039 M12.760 16.590 L 12.760 19.000 12.000 19.000 L 11.240 19.000 11.240 15.830 L 11.240 12.661 12.000 13.420 L 12.760 14.179 12.760 16.590 " stroke="none" fill-rule="evenodd" fill="black"></path></svg>