<svg width="24" height="24" viewBox="0 0 24 24" fill="none" xmlns="http://www.w3.org/2000/svg"><path d="M11.043 1.041 C 8.810 1.258,6.803 2.070,5.073 3.459 C 4.348 4.040,3.299 5.179,2.989 5.720 C 2.642 6.327,2.681 7.153,3.086 7.760 C 3.374 8.190,3.182 8.069,7.666 10.656 L 10.631 12.367 10.155 13.193 C 9.892 13.648,8.774 15.586,7.668 17.500 L 5.659 20.980 3.658 21.000 L 1.658 21.020 1.459 21.122 C 1.119 21.297,0.978 21.606,1.009 22.104 C 1.038 22.563,1.250 22.852,1.635 22.959 C 1.835 23.015,22.165 23.015,22.365 22.959 C 22.586 22.898,22.770 22.755,22.880 22.558 C 22.967 22.402,22.980 22.332,22.979 22.000 C 22.977 21.469,22.852 21.247,22.455 21.071 C 22.364 21.031,20.856 21.016,15.156 21.000 L 7.973 20.980 10.166 17.180 C 11.373 15.090,12.370 13.383,12.382 13.386 C 12.395 13.389,13.848 14.225,15.613 15.243 C 19.109 17.263,19.434 17.442,19.757 17.537 C 20.428 17.732,21.287 17.475,21.749 16.940 C 22.168 16.455,22.688 14.902,22.907 13.480 C 23.016 12.775,23.006 11.173,22.888 10.420 C 22.594 8.538,21.897 6.872,20.774 5.367 C 20.329 4.771,19.246 3.684,18.673 3.258 C 17.058 2.056,15.344 1.353,13.420 1.102 C 12.829 1.025,11.551 0.992,11.043 1.041 M13.078 3.073 L 13.255 3.100 12.898 3.360 C 11.369 4.470,9.882 6.091,8.540 8.110 L 8.188 8.640 8.004 8.537 C 7.903 8.481,7.132 8.037,6.292 7.551 C 5.021 6.816,4.770 6.657,4.798 6.603 C 4.818 6.567,4.994 6.353,5.192 6.128 C 6.324 4.830,7.699 3.929,9.322 3.420 C 9.840 3.257,10.613 3.095,11.120 3.044 C 11.506 3.004,12.754 3.023,13.078 3.073 M16.533 4.240 C 17.054 4.596,17.218 5.918,16.935 7.480 C 16.760 8.446,16.474 9.414,16.036 10.524 C 15.770 11.197,15.110 12.600,15.059 12.600 C 15.032 12.600,10.049 9.731,9.972 9.670 C 9.936 9.643,9.998 9.521,10.208 9.206 C 11.691 6.986,13.480 5.184,14.900 4.480 C 15.480 4.193,15.730 4.121,16.104 4.132 C 16.331 4.139,16.416 4.161,16.533 4.240 M19.506 7.054 C 20.117 7.969,20.551 9.007,20.795 10.140 C 21.056 11.348,21.040 12.909,20.755 14.060 C 20.658 14.454,20.372 15.340,20.294 15.492 L 20.236 15.604 20.108 15.527 C 20.038 15.485,19.305 15.062,18.480 14.587 C 17.655 14.112,16.944 13.698,16.901 13.666 C 16.824 13.610,16.834 13.584,17.209 12.814 C 18.203 10.776,18.811 8.837,19.022 7.040 C 19.054 6.765,19.080 6.522,19.081 6.500 C 19.082 6.443,19.203 6.601,19.506 7.054 " stroke="none" fill-rule="evenodd" fill="black"></path></svg>