<svg width="24" height="24" viewBox="0 0 24 24" fill="none" xmlns="http://www.w3.org/2000/svg"><path d="M11.280 1.023 C 11.203 1.032,10.951 1.059,10.720 1.083 C 8.832 1.283,6.991 2.023,5.360 3.235 C 4.751 3.688,3.684 4.755,3.226 5.367 C 2.383 6.498,1.806 7.659,1.417 9.010 C 1.052 10.277,0.887 12.035,1.095 12.432 C 1.199 12.630,1.435 12.876,1.606 12.963 C 1.783 13.053,2.067 13.063,2.254 12.985 C 2.326 12.955,2.552 12.830,2.755 12.707 C 3.174 12.455,3.832 12.184,4.255 12.091 C 4.627 12.008,5.373 12.008,5.745 12.091 C 6.178 12.186,6.824 12.454,7.282 12.729 C 7.852 13.071,7.954 13.076,8.680 12.808 C 9.496 12.507,10.780 12.120,10.964 12.120 C 10.988 12.120,10.998 13.518,10.991 15.950 L 10.980 19.780 10.889 20.004 C 10.514 20.932,9.480 21.277,8.693 20.737 C 8.265 20.443,8.070 20.066,8.002 19.402 C 7.940 18.796,7.799 18.584,7.371 18.455 C 6.861 18.302,6.306 18.477,6.112 18.853 C 5.869 19.326,6.047 20.446,6.492 21.240 C 6.713 21.635,7.351 22.284,7.743 22.515 C 8.263 22.820,8.913 22.999,9.500 22.999 C 10.087 22.999,10.737 22.820,11.257 22.515 C 11.649 22.284,12.287 21.635,12.508 21.240 C 12.701 20.896,12.896 20.339,12.957 19.960 C 12.985 19.792,13.000 18.360,13.000 15.910 C 13.000 13.593,13.014 12.120,13.037 12.120 C 13.220 12.120,14.507 12.508,15.320 12.808 C 16.046 13.076,16.148 13.071,16.718 12.729 C 17.176 12.454,17.822 12.186,18.255 12.091 C 18.627 12.008,19.373 12.008,19.745 12.091 C 20.176 12.186,20.823 12.454,21.277 12.726 C 21.629 12.937,21.717 12.972,21.932 12.989 C 22.372 13.024,22.704 12.875,22.875 12.564 C 23.000 12.339,23.027 11.880,22.963 11.112 C 22.785 9.011,22.046 7.072,20.770 5.363 C 20.316 4.755,19.247 3.686,18.640 3.235 C 17.045 2.049,15.365 1.360,13.423 1.096 C 13.000 1.038,11.574 0.990,11.280 1.023 M13.320 3.101 C 15.883 3.488,18.124 4.931,19.560 7.120 C 19.863 7.583,20.303 8.479,20.492 9.020 C 20.631 9.420,20.857 10.276,20.830 10.303 C 20.822 10.311,20.700 10.282,20.558 10.239 C 19.886 10.034,18.832 9.962,18.160 10.075 C 17.542 10.179,16.540 10.522,16.090 10.784 L 15.920 10.884 15.190 10.646 C 13.784 10.187,12.969 10.027,12.020 10.024 C 11.049 10.021,10.205 10.186,8.760 10.661 L 8.081 10.884 7.911 10.785 C 7.460 10.522,6.458 10.179,5.840 10.075 C 5.168 9.962,4.114 10.034,3.442 10.239 C 3.300 10.282,3.178 10.311,3.170 10.303 C 3.143 10.276,3.369 9.420,3.508 9.020 C 3.697 8.479,4.137 7.583,4.440 7.120 C 5.574 5.392,7.243 4.100,9.160 3.466 C 9.865 3.233,10.432 3.118,11.340 3.024 C 11.662 2.991,12.911 3.039,13.320 3.101 " stroke="none" fill-rule="evenodd" fill="black"></path></svg>