<svg width="24" height="24" viewBox="0 0 24 24" fill="none" xmlns="http://www.w3.org/2000/svg"><path d="M5.920 2.041 C 5.151 2.092,4.672 2.205,4.180 2.451 C 3.089 2.996,2.357 3.961,2.124 5.160 C 2.013 5.729,2.000 6.455,2.000 12.000 C 2.000 18.358,2.006 18.526,2.245 19.320 C 2.577 20.422,3.578 21.423,4.680 21.755 C 5.474 21.994,5.642 22.000,12.000 22.000 C 18.358 22.000,18.526 21.994,19.320 21.755 C 20.422 21.423,21.423 20.422,21.755 19.320 C 21.994 18.526,22.000 18.358,22.000 12.000 C 22.000 5.642,21.994 5.474,21.755 4.680 C 21.424 3.581,20.465 2.622,19.320 2.246 C 18.644 2.024,18.800 2.029,12.340 2.019 C 9.062 2.014,6.173 2.024,5.920 2.041 M18.492 4.091 C 18.894 4.188,19.109 4.309,19.400 4.600 C 19.696 4.895,19.814 5.109,19.912 5.528 C 19.975 5.797,19.980 6.313,19.980 12.000 C 19.980 17.687,19.975 18.203,19.912 18.472 C 19.814 18.891,19.696 19.104,19.400 19.401 C 19.101 19.701,18.820 19.851,18.418 19.928 C 18.010 20.005,5.990 20.005,5.582 19.927 C 5.170 19.850,4.898 19.704,4.600 19.403 C 4.303 19.104,4.186 18.890,4.088 18.472 C 4.025 18.203,4.020 17.687,4.020 12.000 C 4.020 6.313,4.025 5.797,4.088 5.528 C 4.175 5.155,4.294 4.918,4.520 4.667 C 4.883 4.262,5.282 4.091,5.980 4.039 C 6.200 4.023,9.044 4.013,12.300 4.018 C 17.643 4.024,18.247 4.032,18.492 4.091 M8.180 6.039 C 7.868 6.119,7.699 6.259,7.572 6.540 C 7.508 6.685,7.499 6.873,7.487 8.517 C 7.473 10.439,7.505 11.070,7.640 11.601 C 8.086 13.346,9.515 14.651,11.300 14.941 C 13.343 15.273,15.381 14.121,16.167 12.188 C 16.481 11.418,16.530 10.898,16.513 8.517 C 16.500 6.763,16.497 6.694,16.415 6.520 C 16.239 6.147,15.890 5.970,15.407 6.012 C 14.960 6.050,14.725 6.199,14.573 6.540 C 14.508 6.685,14.499 6.905,14.478 8.880 C 14.461 10.483,14.441 11.102,14.403 11.220 C 14.210 11.823,13.664 12.468,13.120 12.734 C 12.405 13.084,11.595 13.084,10.880 12.734 C 10.326 12.463,9.798 11.840,9.597 11.220 C 9.559 11.101,9.540 10.502,9.523 8.880 C 9.501 6.767,9.497 6.694,9.415 6.520 C 9.305 6.286,9.146 6.143,8.909 6.064 C 8.709 5.997,8.386 5.986,8.180 6.039 M7.614 16.057 C 7.377 16.131,7.212 16.261,7.109 16.453 C 7.035 16.592,7.020 16.684,7.020 17.000 C 7.020 17.331,7.033 17.403,7.120 17.558 C 7.230 17.755,7.414 17.898,7.635 17.959 C 7.833 18.014,16.167 18.014,16.365 17.959 C 16.586 17.898,16.770 17.755,16.880 17.558 C 16.967 17.402,16.980 17.332,16.979 17.000 C 16.978 16.567,16.898 16.355,16.678 16.199 C 16.393 15.996,16.487 16.000,11.984 16.003 C 8.651 16.005,7.746 16.016,7.614 16.057 " stroke="none" fill-rule="evenodd" fill="black"></path></svg>