<svg width="24" height="24" viewBox="0 0 24 24" fill="none" xmlns="http://www.w3.org/2000/svg"><path d="M2.614 3.057 C 2.377 3.131,2.212 3.261,2.109 3.453 C 2.035 3.592,2.020 3.684,2.020 4.000 C 2.020 4.331,2.033 4.403,2.120 4.558 C 2.230 4.755,2.414 4.898,2.635 4.959 C 2.715 4.981,3.054 5.000,3.390 5.000 L 4.000 5.000 4.000 7.722 C 4.000 11.017,4.028 11.347,4.405 12.500 C 4.807 13.728,5.494 14.820,6.446 15.741 C 7.114 16.389,7.706 16.803,8.529 17.200 C 11.259 18.519,14.467 18.184,16.900 16.326 C 17.239 16.067,17.925 15.394,18.211 15.040 C 19.172 13.851,19.790 12.361,19.958 10.832 C 19.983 10.596,20.000 9.371,20.000 7.722 L 20.000 5.000 20.610 5.000 C 20.946 5.000,21.285 4.981,21.365 4.959 C 21.586 4.898,21.770 4.755,21.880 4.558 C 21.967 4.402,21.980 4.332,21.979 4.000 C 21.978 3.567,21.898 3.355,21.678 3.199 C 21.407 3.005,21.333 3.000,19.000 3.000 C 16.667 3.000,16.593 3.005,16.322 3.199 C 16.100 3.357,16.020 3.568,16.020 4.000 C 16.020 4.331,16.033 4.403,16.120 4.558 C 16.230 4.755,16.414 4.898,16.635 4.959 C 16.715 4.981,17.055 5.000,17.390 5.000 L 18.000 5.000 17.999 7.590 C 17.998 9.014,17.981 10.353,17.961 10.564 C 17.793 12.286,16.951 13.776,15.556 14.820 C 15.146 15.126,14.474 15.488,14.029 15.642 L 13.759 15.735 13.486 15.648 C 12.100 15.201,10.824 14.055,10.104 12.611 C 9.899 12.199,9.755 11.797,9.630 11.284 C 9.549 10.954,9.545 10.823,9.531 7.970 L 9.516 5.000 10.111 5.000 C 10.806 5.000,11.038 4.948,11.229 4.751 C 11.418 4.556,11.486 4.355,11.486 3.997 C 11.486 3.491,11.303 3.196,10.909 3.064 C 10.738 3.007,10.283 3.000,6.749 3.003 C 3.609 3.005,2.745 3.016,2.614 3.057 M7.493 7.870 C 7.509 10.157,7.525 10.813,7.573 11.100 C 7.743 12.121,7.979 12.857,8.404 13.684 C 8.704 14.268,8.980 14.669,9.558 15.357 L 9.740 15.573 9.284 15.340 C 7.685 14.523,6.491 12.974,6.141 11.264 C 6.021 10.674,6.002 10.183,6.001 7.590 L 6.000 5.000 6.736 5.000 L 7.472 5.000 7.493 7.870 M3.614 20.057 C 3.377 20.131,3.212 20.261,3.109 20.453 C 3.035 20.592,3.020 20.684,3.020 21.000 C 3.020 21.331,3.033 21.403,3.120 21.558 C 3.230 21.755,3.414 21.898,3.635 21.959 C 3.835 22.015,20.165 22.015,20.365 21.959 C 20.586 21.898,20.770 21.755,20.880 21.558 C 20.967 21.402,20.980 21.332,20.979 21.000 C 20.978 20.567,20.898 20.355,20.678 20.199 C 20.386 19.990,20.799 20.000,11.984 20.003 C 5.367 20.005,3.748 20.015,3.614 20.057 " stroke="none" fill-rule="evenodd" fill="black"></path></svg>