<svg width="24" height="24" viewBox="0 0 24 24" fill="none" xmlns="http://www.w3.org/2000/svg"><path d="M5.614 3.057 C 5.377 3.131,5.212 3.261,5.109 3.453 L 5.020 3.620 5.020 7.640 C 5.020 10.770,5.032 11.735,5.073 12.000 C 5.552 15.090,7.881 17.425,10.980 17.926 C 11.392 17.992,12.607 17.992,13.020 17.926 C 16.116 17.426,18.449 15.086,18.927 12.000 C 18.968 11.736,18.980 10.767,18.980 7.640 L 18.980 3.620 18.889 3.450 C 18.724 3.140,18.329 2.970,17.874 3.011 C 17.439 3.051,17.141 3.274,17.041 3.635 C 17.015 3.727,17.000 5.122,17.000 7.472 C 17.000 9.807,16.984 11.306,16.957 11.552 C 16.884 12.226,16.718 12.760,16.398 13.353 C 15.683 14.681,14.466 15.585,12.960 15.907 C 12.489 16.008,11.511 16.008,11.040 15.907 C 9.771 15.636,8.677 14.933,7.963 13.932 C 7.503 13.286,7.242 12.682,7.071 11.860 C 7.044 11.733,7.020 10.183,7.004 7.640 L 6.980 3.620 6.891 3.453 C 6.842 3.362,6.746 3.247,6.678 3.199 C 6.414 3.010,5.957 2.950,5.614 3.057 M3.614 20.057 C 3.377 20.131,3.212 20.261,3.109 20.453 C 3.035 20.592,3.020 20.684,3.020 21.000 C 3.020 21.331,3.033 21.403,3.120 21.558 C 3.230 21.755,3.414 21.898,3.635 21.959 C 3.835 22.015,20.165 22.015,20.365 21.959 C 20.586 21.898,20.770 21.755,20.880 21.558 C 20.967 21.402,20.980 21.332,20.979 21.000 C 20.978 20.567,20.898 20.355,20.678 20.199 C 20.386 19.990,20.799 20.000,11.984 20.003 C 5.367 20.005,3.748 20.015,3.614 20.057 " stroke="none" fill-rule="evenodd" fill="black"></path></svg>