<svg width="24" height="24" viewBox="0 0 24 24" fill="none" xmlns="http://www.w3.org/2000/svg"><path d="M11.530 2.085 C 11.392 2.152,11.248 2.254,11.210 2.312 C 11.171 2.370,10.012 3.552,8.634 4.939 C 6.897 6.687,6.101 7.514,6.040 7.637 C 5.863 7.990,5.952 8.354,6.299 8.701 C 6.646 9.048,7.011 9.137,7.363 8.960 C 7.483 8.900,8.092 8.321,9.270 7.147 L 11.000 5.422 11.000 10.321 C 11.000 13.480,11.015 15.271,11.041 15.365 C 11.148 15.750,11.437 15.962,11.896 15.991 C 12.381 16.022,12.699 15.882,12.880 15.558 L 12.980 15.380 12.991 10.402 L 13.002 5.424 14.731 7.147 C 15.908 8.321,16.517 8.900,16.637 8.960 C 16.989 9.137,17.354 9.048,17.701 8.701 C 18.048 8.354,18.137 7.990,17.960 7.637 C 17.899 7.514,17.103 6.687,15.366 4.939 C 13.988 3.552,12.829 2.370,12.790 2.312 C 12.752 2.254,12.604 2.151,12.460 2.083 C 12.113 1.919,11.873 1.920,11.530 2.085 M2.614 14.057 C 2.377 14.131,2.212 14.261,2.109 14.453 C 2.022 14.616,2.020 14.658,2.007 16.120 C 1.988 18.388,2.074 19.088,2.465 19.859 C 2.915 20.749,3.772 21.482,4.680 21.755 C 5.474 21.994,5.642 22.000,12.000 22.000 C 18.358 22.000,18.526 21.994,19.320 21.755 C 20.228 21.482,21.085 20.749,21.535 19.859 C 21.927 19.087,22.012 18.386,21.993 16.120 C 21.980 14.658,21.978 14.616,21.891 14.453 C 21.785 14.256,21.622 14.131,21.371 14.055 C 20.861 13.902,20.310 14.076,20.110 14.453 C 20.024 14.616,20.021 14.667,19.993 16.420 C 19.958 18.731,19.930 18.870,19.400 19.401 C 19.101 19.701,18.820 19.851,18.418 19.928 C 18.010 20.005,5.990 20.005,5.582 19.927 C 5.170 19.850,4.898 19.704,4.600 19.403 C 4.070 18.868,4.043 18.732,4.006 16.420 C 3.979 14.670,3.975 14.615,3.890 14.453 C 3.841 14.362,3.746 14.247,3.678 14.199 C 3.414 14.010,2.957 13.950,2.614 14.057 " stroke="none" fill-rule="evenodd" fill="black"></path></svg>