<svg width="24" height="24" viewBox="0 0 24 24" fill="none" xmlns="http://www.w3.org/2000/svg"><path d="M8.840 2.028 C 6.112 2.233,3.569 3.821,2.173 6.190 C 0.270 9.418,0.721 13.527,3.282 16.292 C 3.894 16.953,4.332 17.016,4.857 16.519 C 5.224 16.172,5.329 15.808,5.161 15.462 C 5.117 15.372,4.953 15.155,4.796 14.979 C 4.058 14.155,3.596 13.372,3.308 12.459 C 2.916 11.216,2.916 9.784,3.308 8.541 C 3.857 6.801,5.163 5.333,6.828 4.585 C 7.574 4.250,8.146 4.107,9.029 4.034 C 10.488 3.912,11.874 4.282,13.160 5.135 C 13.777 5.544,14.477 6.260,14.939 6.953 C 15.522 7.828,15.722 7.938,16.903 8.038 C 18.206 8.148,19.324 8.778,20.128 9.857 C 21.087 11.142,21.259 12.955,20.561 14.418 C 20.317 14.929,20.030 15.320,19.553 15.788 C 19.312 16.026,19.077 16.291,19.032 16.378 C 18.868 16.695,18.966 17.078,19.307 17.445 C 19.645 17.808,19.971 17.886,20.352 17.697 C 20.468 17.639,20.737 17.424,20.964 17.209 C 21.977 16.245,22.610 15.092,22.890 13.700 C 23.004 13.131,23.014 11.981,22.910 11.420 C 22.458 8.986,20.820 7.094,18.500 6.325 C 18.044 6.174,17.650 6.094,17.120 6.044 C 16.890 6.022,16.696 5.987,16.688 5.965 C 16.681 5.943,16.574 5.784,16.452 5.612 C 15.527 4.319,14.379 3.379,12.922 2.723 C 11.713 2.179,10.216 1.924,8.840 2.028 M11.530 11.085 C 11.392 11.152,11.248 11.254,11.210 11.312 C 11.171 11.370,10.237 12.327,9.134 13.439 C 7.766 14.818,7.101 15.516,7.040 15.637 C 6.863 15.989,6.952 16.354,7.299 16.701 C 7.646 17.048,8.011 17.137,8.363 16.960 C 8.479 16.901,8.961 16.452,9.770 15.647 L 11.000 14.423 11.000 17.821 C 11.000 19.975,11.015 21.273,11.041 21.365 C 11.148 21.750,11.437 21.962,11.896 21.991 C 12.381 22.022,12.699 21.882,12.880 21.558 L 12.980 21.380 12.991 17.903 L 13.002 14.425 14.231 15.648 C 15.039 16.452,15.521 16.901,15.637 16.960 C 15.989 17.137,16.354 17.048,16.701 16.701 C 17.048 16.354,17.137 15.989,16.960 15.637 C 16.899 15.516,16.234 14.818,14.866 13.439 C 13.763 12.327,12.829 11.370,12.790 11.312 C 12.752 11.254,12.604 11.151,12.460 11.083 C 12.113 10.919,11.873 10.920,11.530 11.085 " stroke="none" fill-rule="evenodd" fill="black"></path></svg>