<svg width="24" height="24" viewBox="0 0 24 24" fill="none" xmlns="http://www.w3.org/2000/svg"><path d="M11.300 2.045 C 9.210 2.241,7.256 3.442,6.099 5.241 C 5.842 5.640,5.510 6.338,5.367 6.777 L 5.251 7.134 4.856 7.260 C 2.808 7.913,1.377 9.607,1.054 11.760 C 0.979 12.258,0.999 13.042,1.098 13.550 C 1.343 14.798,2.064 15.989,3.052 16.781 C 3.811 17.388,4.264 17.437,4.697 16.958 C 4.934 16.696,5.053 16.400,5.033 16.124 C 5.011 15.827,4.926 15.710,4.462 15.341 C 3.728 14.756,3.329 14.172,3.112 13.364 C 2.993 12.920,2.992 12.064,3.110 11.614 C 3.399 10.510,4.276 9.566,5.359 9.194 C 5.480 9.152,5.784 9.082,6.035 9.037 C 6.530 8.950,6.603 8.923,6.774 8.765 C 6.940 8.611,6.988 8.498,7.119 7.942 C 7.261 7.347,7.420 6.921,7.641 6.542 C 8.383 5.275,9.639 4.363,11.001 4.102 C 12.739 3.770,14.426 4.309,15.642 5.585 C 16.288 6.262,16.639 6.932,16.882 7.952 C 17.013 8.498,17.061 8.612,17.226 8.765 C 17.397 8.923,17.470 8.950,17.965 9.037 C 18.216 9.082,18.520 9.152,18.641 9.194 C 19.724 9.566,20.601 10.510,20.890 11.614 C 21.008 12.064,21.007 12.920,20.888 13.364 C 20.671 14.172,20.272 14.756,19.538 15.341 C 19.074 15.710,18.989 15.827,18.967 16.124 C 18.947 16.408,19.070 16.704,19.324 16.980 C 19.746 17.438,20.196 17.383,20.948 16.781 C 22.892 15.223,23.528 12.568,22.513 10.249 C 22.026 9.138,21.046 8.123,19.930 7.576 C 19.715 7.471,19.362 7.328,19.144 7.259 L 18.749 7.134 18.633 6.777 C 18.490 6.338,18.158 5.640,17.901 5.241 C 16.470 3.014,13.954 1.796,11.300 2.045 M11.530 11.085 C 11.392 11.152,11.248 11.254,11.210 11.312 C 11.171 11.370,10.237 12.327,9.134 13.439 C 7.766 14.818,7.101 15.516,7.040 15.637 C 6.863 15.989,6.952 16.354,7.299 16.701 C 7.646 17.048,8.011 17.137,8.363 16.960 C 8.479 16.901,8.961 16.452,9.770 15.647 L 11.000 14.423 11.000 17.821 C 11.000 19.975,11.015 21.273,11.041 21.365 C 11.148 21.750,11.437 21.962,11.896 21.991 C 12.381 22.022,12.699 21.882,12.880 21.558 L 12.980 21.380 12.991 17.903 L 13.002 14.425 14.231 15.648 C 15.039 16.452,15.521 16.901,15.637 16.960 C 15.989 17.137,16.354 17.048,16.701 16.701 C 17.048 16.354,17.137 15.989,16.960 15.637 C 16.899 15.516,16.234 14.818,14.866 13.439 C 13.763 12.327,12.829 11.370,12.790 11.312 C 12.752 11.254,12.604 11.151,12.460 11.083 C 12.113 10.919,11.873 10.920,11.530 11.085 " stroke="none" fill-rule="evenodd" fill="black"></path></svg>