<svg width="24" height="24" viewBox="0 0 24 24" fill="none" xmlns="http://www.w3.org/2000/svg"><path d="M11.280 1.023 C 11.203 1.032,10.951 1.059,10.720 1.083 C 8.832 1.283,6.991 2.023,5.360 3.235 C 4.751 3.688,3.684 4.755,3.226 5.367 C 1.361 7.866,0.630 10.937,1.176 13.980 C 1.692 16.858,3.441 19.513,5.900 21.151 C 6.532 21.572,6.807 21.700,7.074 21.696 C 7.198 21.694,7.356 21.664,7.424 21.628 C 7.724 21.473,8.040 20.934,8.040 20.578 C 8.040 20.260,7.882 20.048,7.437 19.768 C 6.924 19.445,6.296 18.977,5.915 18.634 C 4.677 17.518,3.625 15.730,3.247 14.100 C 3.080 13.376,3.025 12.857,3.024 12.000 C 3.022 10.510,3.279 9.380,3.920 8.060 C 4.799 6.247,6.247 4.799,8.060 3.920 C 9.379 3.280,10.507 3.023,12.000 3.023 C 13.493 3.023,14.621 3.280,15.940 3.920 C 17.753 4.799,19.201 6.247,20.080 8.060 C 20.721 9.380,20.978 10.510,20.976 12.000 C 20.975 13.488,20.714 14.650,20.102 15.900 C 19.193 17.755,17.820 19.146,15.999 20.058 C 15.422 20.346,15.207 20.393,14.799 20.321 C 14.265 20.226,13.525 19.754,13.293 19.360 C 13.012 18.882,13.025 19.114,13.010 14.540 L 12.996 10.420 14.228 11.645 C 15.038 12.451,15.521 12.901,15.637 12.960 C 15.989 13.137,16.354 13.048,16.701 12.701 C 17.048 12.354,17.137 11.989,16.960 11.637 C 16.899 11.516,16.234 10.818,14.866 9.439 C 13.763 8.327,12.829 7.370,12.790 7.312 C 12.688 7.157,12.246 6.960,12.000 6.960 C 11.754 6.960,11.312 7.157,11.210 7.312 C 11.171 7.370,10.237 8.327,9.134 9.439 C 7.766 10.818,7.101 11.516,7.040 11.637 C 6.863 11.989,6.952 12.354,7.299 12.701 C 7.646 13.048,8.011 13.137,8.363 12.960 C 8.479 12.901,8.961 12.452,9.768 11.649 L 10.996 10.427 11.010 14.623 C 11.025 18.706,11.027 18.830,11.108 19.185 C 11.289 19.975,11.620 20.581,12.143 21.077 C 13.085 21.972,14.336 22.442,15.453 22.320 C 15.953 22.266,16.281 22.155,16.940 21.821 C 18.000 21.282,18.802 20.713,19.615 19.921 C 20.270 19.284,20.672 18.804,21.142 18.100 C 22.746 15.695,23.331 12.881,22.820 10.038 C 22.518 8.358,21.824 6.775,20.770 5.363 C 20.316 4.755,19.247 3.686,18.640 3.235 C 17.045 2.049,15.365 1.360,13.423 1.096 C 13.000 1.038,11.574 0.990,11.280 1.023 " stroke="none" fill-rule="evenodd" fill="black"></path></svg>