<svg width="24" height="24" viewBox="0 0 24 24" fill="none" xmlns="http://www.w3.org/2000/svg"><path d="M8.860 2.047 C 7.632 2.185,6.479 2.751,5.579 3.659 C 3.483 5.771,3.480 9.201,5.573 11.333 C 7.170 12.960,9.501 13.436,11.624 12.570 C 12.899 12.049,14.049 10.899,14.570 9.624 C 15.316 7.797,15.073 5.798,13.915 4.237 C 12.740 2.652,10.830 1.825,8.860 2.047 M15.580 2.503 C 15.514 2.537,15.409 2.613,15.348 2.672 C 15.191 2.822,14.992 3.245,14.969 3.476 C 14.931 3.874,15.097 4.100,15.674 4.436 C 16.117 4.694,16.361 4.891,16.630 5.207 C 17.204 5.880,17.480 6.625,17.480 7.500 C 17.480 8.375,17.204 9.120,16.630 9.793 C 16.361 10.109,16.121 10.303,15.658 10.578 C 15.245 10.824,15.062 10.994,14.996 11.191 C 14.846 11.648,15.275 12.463,15.709 12.544 C 15.953 12.590,16.215 12.538,16.520 12.383 C 18.027 11.615,19.129 10.118,19.422 8.440 C 19.509 7.940,19.509 7.060,19.422 6.560 C 19.128 4.881,17.991 3.343,16.503 2.615 C 16.211 2.472,16.105 2.440,15.923 2.440 C 15.800 2.440,15.646 2.468,15.580 2.503 M10.405 4.115 C 11.375 4.366,12.232 5.094,12.678 6.046 C 12.906 6.532,12.978 6.881,12.978 7.500 C 12.978 8.119,12.906 8.468,12.678 8.954 C 12.223 9.925,11.401 10.617,10.360 10.905 C 9.993 11.007,9.007 11.007,8.640 10.905 C 7.622 10.623,6.820 9.960,6.342 9.005 C 6.095 8.513,6.028 8.191,6.028 7.500 C 6.028 7.017,6.044 6.840,6.111 6.595 C 6.467 5.286,7.615 4.251,8.942 4.042 C 9.297 3.986,10.050 4.024,10.405 4.115 M8.680 15.043 C 6.557 15.241,4.658 16.086,2.874 17.627 C 2.179 18.229,1.212 19.303,1.043 19.663 C 0.919 19.926,0.931 20.218,1.074 20.445 C 1.402 20.962,2.007 21.184,2.423 20.940 C 2.522 20.882,2.768 20.635,3.011 20.350 C 4.872 18.166,7.131 17.000,9.500 17.000 C 11.869 17.000,14.128 18.166,15.989 20.350 C 16.232 20.635,16.478 20.882,16.577 20.940 C 16.993 21.184,17.598 20.962,17.926 20.445 C 18.069 20.218,18.081 19.926,17.957 19.663 C 17.833 19.399,17.296 18.767,16.663 18.140 C 14.378 15.878,11.539 14.776,8.680 15.043 M17.648 15.763 C 17.352 15.854,17.022 16.343,16.972 16.767 C 16.942 17.017,17.040 17.276,17.225 17.439 C 17.302 17.506,17.546 17.653,17.768 17.764 C 18.988 18.376,20.039 19.221,21.007 20.369 C 21.469 20.916,21.644 21.040,21.961 21.040 C 22.312 21.040,22.700 20.800,22.926 20.445 C 23.068 20.220,23.081 19.926,22.959 19.668 C 22.790 19.308,21.777 18.181,21.101 17.602 C 20.297 16.912,19.338 16.283,18.556 15.932 C 18.142 15.747,17.869 15.696,17.648 15.763 " stroke="none" fill-rule="evenodd" fill="black"></path></svg>