<svg width="24" height="24" viewBox="0 0 24 24" fill="none" xmlns="http://www.w3.org/2000/svg"><path d="M9.365 2.046 C 7.606 2.230,5.999 3.335,5.125 4.963 C 4.422 6.272,4.316 7.957,4.845 9.407 C 5.403 10.937,6.697 12.188,8.265 12.713 C 10.184 13.356,12.321 12.878,13.775 11.481 C 14.793 10.503,15.366 9.309,15.475 7.934 C 15.607 6.273,15.009 4.708,13.795 3.539 C 12.611 2.398,11.044 1.870,9.365 2.046 M10.900 4.117 C 11.835 4.358,12.672 5.045,13.120 5.940 C 13.413 6.525,13.460 6.737,13.460 7.500 C 13.460 8.263,13.413 8.476,13.120 9.060 C 12.679 9.940,11.923 10.577,10.980 10.864 C 10.654 10.964,10.562 10.974,10.000 10.974 C 9.439 10.974,9.346 10.964,9.020 10.865 C 7.848 10.509,6.935 9.574,6.611 8.397 C 6.557 8.201,6.540 7.989,6.540 7.500 C 6.540 6.808,6.582 6.571,6.789 6.103 C 7.174 5.229,8.001 4.467,8.874 4.181 C 9.476 3.984,10.283 3.958,10.900 4.117 M5.540 14.546 C 4.726 14.643,4.324 14.756,3.732 15.055 C 3.242 15.302,2.841 15.595,2.442 15.999 C 1.741 16.706,1.261 17.625,1.095 18.575 C 1.013 19.043,0.969 21.099,1.035 21.344 C 1.145 21.748,1.428 21.961,1.896 21.991 C 2.381 22.022,2.700 21.882,2.879 21.558 C 2.975 21.384,2.978 21.353,3.005 20.240 C 3.037 18.937,3.076 18.679,3.316 18.185 C 3.604 17.594,4.067 17.128,4.670 16.825 C 5.255 16.531,5.037 16.546,8.860 16.522 C 12.681 16.498,12.456 16.515,12.751 16.229 C 12.983 16.004,13.065 15.513,12.940 15.092 C 12.868 14.852,12.645 14.627,12.413 14.563 C 12.271 14.524,5.861 14.508,5.540 14.546 M16.171 15.019 C 15.968 15.108,15.637 15.440,15.535 15.660 C 15.305 16.150,15.392 16.301,16.596 17.500 C 17.126 18.028,17.560 18.478,17.560 18.500 C 17.560 18.522,17.126 18.972,16.596 19.500 C 15.587 20.504,15.441 20.694,15.441 21.000 C 15.441 21.213,15.605 21.519,15.835 21.732 C 16.075 21.956,16.267 22.047,16.500 22.047 C 16.823 22.047,16.933 21.963,17.990 20.909 L 19.000 19.902 20.010 20.909 C 21.067 21.963,21.177 22.047,21.500 22.047 C 21.733 22.047,21.925 21.956,22.165 21.732 C 22.395 21.519,22.559 21.213,22.559 21.000 C 22.559 20.694,22.413 20.504,21.404 19.500 C 20.874 18.972,20.440 18.522,20.440 18.500 C 20.440 18.478,20.874 18.028,21.404 17.500 C 22.413 16.496,22.559 16.306,22.559 16.000 C 22.559 15.683,22.169 15.163,21.820 15.018 C 21.640 14.942,21.355 14.944,21.169 15.022 C 21.072 15.062,20.668 15.435,20.010 16.091 L 19.000 17.098 17.990 16.091 C 17.332 15.435,16.928 15.062,16.831 15.022 C 16.648 14.946,16.343 14.944,16.171 15.019 " stroke="none" fill-rule="evenodd" fill="black"></path></svg>