<svg width="24" height="24" viewBox="0 0 24 24" fill="none" xmlns="http://www.w3.org/2000/svg"><path d="M18.620 2.046 C 18.528 2.094,17.826 2.758,16.960 3.618 C 16.135 4.438,15.399 5.150,15.324 5.201 C 15.149 5.321,14.951 5.745,14.951 6.000 C 14.951 6.238,15.150 6.682,15.303 6.784 C 15.366 6.826,16.101 7.537,16.938 8.365 C 17.949 9.365,18.520 9.901,18.637 9.960 C 18.989 10.137,19.354 10.048,19.701 9.701 C 20.048 9.354,20.137 8.988,19.959 8.637 C 19.905 8.531,19.580 8.168,19.147 7.730 L 18.425 7.000 20.322 7.000 C 21.470 7.000,22.277 6.984,22.365 6.959 C 22.586 6.898,22.770 6.755,22.880 6.558 C 22.967 6.402,22.980 6.332,22.979 6.000 C 22.978 5.567,22.898 5.355,22.678 5.199 C 22.411 5.008,22.311 5.000,20.306 5.000 L 18.425 5.000 19.147 4.270 C 19.580 3.832,19.905 3.469,19.959 3.363 C 20.137 3.012,20.048 2.646,19.701 2.299 C 19.361 1.959,18.967 1.867,18.620 2.046 M8.560 3.024 C 7.294 3.181,6.235 3.760,5.475 4.711 C 4.017 6.537,4.233 9.244,5.963 10.814 C 7.494 12.203,9.757 12.387,11.460 11.259 C 14.341 9.351,14.117 5.078,11.054 3.511 C 10.637 3.298,10.338 3.191,9.903 3.102 C 9.584 3.036,8.822 2.992,8.560 3.024 M9.720 5.102 C 10.103 5.216,10.404 5.404,10.742 5.740 C 11.264 6.259,11.479 6.771,11.479 7.500 C 11.479 8.226,11.265 8.737,10.742 9.264 C 10.501 9.506,10.345 9.624,10.120 9.734 C 9.600 9.989,9.029 10.059,8.460 9.940 C 7.577 9.755,6.786 8.984,6.580 8.110 C 6.505 7.790,6.505 7.210,6.580 6.890 C 6.793 5.989,7.620 5.206,8.534 5.041 C 8.816 4.990,9.453 5.023,9.720 5.102 M4.920 14.040 C 4.667 14.057,4.343 14.092,4.200 14.118 C 3.027 14.326,1.999 15.086,1.465 16.141 C 1.225 16.613,1.109 17.072,1.041 17.820 C 0.988 18.395,0.988 21.174,1.041 21.365 C 1.148 21.750,1.437 21.962,1.896 21.991 C 2.381 22.022,2.699 21.882,2.880 21.558 L 2.980 21.380 3.007 19.580 C 3.036 17.664,3.058 17.439,3.248 17.048 C 3.366 16.806,3.806 16.366,4.048 16.248 C 4.524 16.016,4.443 16.020,9.000 16.020 C 13.557 16.020,13.476 16.016,13.952 16.248 C 14.194 16.366,14.634 16.806,14.752 17.048 C 14.943 17.440,14.964 17.663,14.993 19.580 L 15.020 21.380 15.120 21.558 C 15.287 21.856,15.572 22.000,16.000 22.000 C 16.428 22.000,16.713 21.856,16.880 21.558 L 16.980 21.380 16.993 19.880 C 17.012 17.614,16.927 16.913,16.535 16.141 C 16.088 15.259,15.267 14.557,14.320 14.246 C 13.667 14.032,13.571 14.027,9.320 14.018 C 7.153 14.013,5.173 14.023,4.920 14.040 " stroke="none" fill-rule="evenodd" fill="black"></path></svg>