<svg width="24" height="24" viewBox="0 0 24 24" fill="none" xmlns="http://www.w3.org/2000/svg"><path d="M8.860 2.047 C 7.632 2.185,6.479 2.751,5.579 3.659 C 3.483 5.771,3.480 9.201,5.573 11.333 C 7.170 12.960,9.501 13.436,11.624 12.570 C 12.899 12.049,14.049 10.899,14.570 9.624 C 15.316 7.797,15.073 5.798,13.915 4.237 C 12.740 2.652,10.830 1.825,8.860 2.047 M15.580 2.503 C 15.514 2.537,15.409 2.613,15.348 2.672 C 15.191 2.822,14.992 3.245,14.969 3.476 C 14.931 3.874,15.097 4.100,15.674 4.436 C 16.117 4.694,16.361 4.891,16.630 5.207 C 17.204 5.880,17.480 6.625,17.480 7.500 C 17.480 8.375,17.204 9.120,16.630 9.793 C 16.361 10.109,16.121 10.303,15.658 10.578 C 15.245 10.824,15.062 10.994,14.996 11.191 C 14.846 11.648,15.275 12.463,15.709 12.544 C 15.953 12.590,16.215 12.538,16.520 12.383 C 18.027 11.615,19.129 10.118,19.422 8.440 C 19.509 7.940,19.509 7.060,19.422 6.560 C 19.128 4.881,17.991 3.343,16.503 2.615 C 16.211 2.472,16.105 2.440,15.923 2.440 C 15.800 2.440,15.646 2.468,15.580 2.503 M10.405 4.115 C 11.375 4.366,12.232 5.094,12.678 6.046 C 12.906 6.532,12.978 6.881,12.978 7.500 C 12.978 8.119,12.906 8.468,12.678 8.954 C 12.223 9.925,11.401 10.617,10.360 10.905 C 9.993 11.007,9.007 11.007,8.640 10.905 C 7.622 10.623,6.820 9.960,6.342 9.005 C 6.095 8.513,6.028 8.191,6.028 7.500 C 6.028 7.017,6.044 6.840,6.111 6.595 C 6.467 5.286,7.615 4.251,8.942 4.042 C 9.297 3.986,10.050 4.024,10.405 4.115 M8.840 14.025 C 5.978 14.287,3.512 15.783,1.791 18.300 C 1.119 19.283,0.966 19.735,1.095 20.351 C 1.275 21.207,1.866 21.792,2.703 21.941 C 3.175 22.025,15.825 22.025,16.297 21.941 C 17.134 21.792,17.725 21.207,17.905 20.351 C 18.034 19.735,17.881 19.283,17.209 18.300 C 15.628 15.988,13.333 14.484,10.800 14.102 C 10.387 14.039,9.193 13.992,8.840 14.025 M17.578 14.873 C 17.176 15.061,16.862 15.762,16.997 16.172 C 17.066 16.379,17.300 16.592,17.705 16.817 C 18.507 17.261,18.965 17.611,19.602 18.267 C 20.069 18.747,20.279 19.010,20.661 19.589 L 20.919 19.980 20.530 20.006 C 20.099 20.035,19.914 20.097,19.752 20.267 C 19.584 20.443,19.513 20.658,19.512 20.997 C 19.510 21.348,19.582 21.556,19.771 21.752 C 19.969 21.956,20.232 22.014,20.838 21.989 C 21.541 21.960,21.847 21.849,22.250 21.474 C 22.790 20.971,23.038 20.188,22.864 19.534 C 22.782 19.224,22.641 18.945,22.333 18.480 C 21.323 16.957,20.075 15.802,18.611 15.038 C 18.130 14.787,17.856 14.743,17.578 14.873 M10.192 16.043 C 11.297 16.164,12.314 16.530,13.253 17.145 C 13.793 17.499,14.137 17.785,14.623 18.285 C 15.115 18.793,15.880 19.810,15.880 19.958 C 15.880 19.987,13.922 20.000,9.500 20.000 C 4.201 20.000,3.120 19.991,3.120 19.947 C 3.120 19.878,3.627 19.142,3.924 18.780 C 4.177 18.471,4.829 17.823,5.140 17.572 C 5.485 17.293,6.137 16.886,6.567 16.681 C 7.728 16.127,8.969 15.909,10.192 16.043 " stroke="none" fill-rule="evenodd" fill="black"></path></svg>