<svg width="24" height="24" viewBox="0 0 24 24" fill="none" xmlns="http://www.w3.org/2000/svg"><path d="M21.620 3.046 C 21.525 3.095,20.753 3.834,19.731 4.853 L 18.001 6.577 17.271 5.854 C 16.856 5.444,16.467 5.094,16.372 5.045 C 16.021 4.868,15.640 4.958,15.299 5.299 C 14.952 5.646,14.863 6.010,15.040 6.363 C 15.162 6.607,17.393 8.838,17.637 8.960 C 17.868 9.076,18.132 9.076,18.363 8.961 C 18.612 8.836,22.836 4.612,22.961 4.363 C 23.137 4.010,23.048 3.645,22.701 3.299 C 22.361 2.959,21.967 2.867,21.620 3.046 M8.560 3.024 C 7.294 3.181,6.235 3.760,5.475 4.711 C 4.017 6.537,4.233 9.244,5.963 10.814 C 7.494 12.203,9.757 12.387,11.460 11.259 C 14.341 9.351,14.117 5.078,11.054 3.511 C 10.637 3.298,10.338 3.191,9.903 3.102 C 9.584 3.036,8.822 2.992,8.560 3.024 M9.720 5.102 C 10.103 5.216,10.404 5.404,10.742 5.740 C 11.264 6.259,11.479 6.771,11.479 7.500 C 11.479 8.226,11.265 8.737,10.742 9.264 C 10.501 9.506,10.345 9.624,10.120 9.734 C 9.600 9.989,9.029 10.059,8.460 9.940 C 7.577 9.755,6.786 8.984,6.580 8.110 C 6.505 7.790,6.505 7.210,6.580 6.890 C 6.793 5.989,7.620 5.206,8.534 5.041 C 8.816 4.990,9.453 5.023,9.720 5.102 M4.920 14.040 C 4.667 14.057,4.343 14.092,4.200 14.118 C 3.027 14.326,1.999 15.086,1.465 16.141 C 1.225 16.613,1.109 17.072,1.041 17.820 C 0.988 18.395,0.988 21.174,1.041 21.365 C 1.148 21.750,1.437 21.962,1.896 21.991 C 2.381 22.022,2.699 21.882,2.880 21.558 L 2.980 21.380 3.007 19.580 C 3.036 17.664,3.058 17.439,3.248 17.048 C 3.366 16.806,3.806 16.366,4.048 16.248 C 4.524 16.016,4.443 16.020,9.000 16.020 C 13.557 16.020,13.476 16.016,13.952 16.248 C 14.194 16.366,14.634 16.806,14.752 17.048 C 14.943 17.440,14.964 17.663,14.993 19.580 L 15.020 21.380 15.120 21.558 C 15.287 21.856,15.572 22.000,16.000 22.000 C 16.428 22.000,16.713 21.856,16.880 21.558 L 16.980 21.380 16.993 19.880 C 17.012 17.614,16.927 16.913,16.535 16.141 C 16.088 15.259,15.267 14.557,14.320 14.246 C 13.667 14.032,13.571 14.027,9.320 14.018 C 7.153 14.013,5.173 14.023,4.920 14.040 " stroke="none" fill-rule="evenodd" fill="black"></path></svg>