<svg width="24" height="24" viewBox="0 0 24 24" fill="none" xmlns="http://www.w3.org/2000/svg"><path d="M8.891 2.044 C 7.010 2.263,5.391 3.587,4.759 5.422 C 4.421 6.405,4.431 7.666,4.786 8.649 C 5.326 10.146,6.459 11.256,7.944 11.742 C 11.179 12.802,14.486 10.404,14.486 7.000 C 14.486 3.996,11.888 1.695,8.891 2.044 M15.017 2.353 C 14.582 2.626,14.348 3.345,14.560 3.759 C 14.660 3.955,14.796 4.057,15.308 4.317 C 15.928 4.633,16.384 5.082,16.673 5.660 C 16.845 6.006,16.911 6.228,16.964 6.638 C 17.085 7.584,16.750 8.512,16.044 9.180 C 15.784 9.427,15.616 9.539,15.222 9.731 C 14.640 10.014,14.480 10.205,14.480 10.617 C 14.480 11.088,14.820 11.619,15.184 11.716 C 15.711 11.857,16.819 11.275,17.611 10.442 C 18.294 9.724,18.734 8.874,18.925 7.900 C 18.997 7.533,18.997 6.467,18.925 6.100 C 18.736 5.135,18.298 4.284,17.626 3.571 C 17.204 3.124,16.782 2.813,16.210 2.529 C 15.789 2.319,15.724 2.299,15.445 2.288 C 15.198 2.278,15.116 2.291,15.017 2.353 M10.271 4.095 C 11.331 4.387,12.204 5.292,12.421 6.323 C 12.499 6.695,12.496 7.332,12.415 7.692 C 12.163 8.812,11.250 9.701,10.111 9.936 C 8.936 10.179,7.755 9.715,7.054 8.734 C 6.684 8.216,6.520 7.683,6.520 7.000 C 6.520 6.186,6.766 5.543,7.299 4.965 C 7.670 4.562,8.322 4.179,8.800 4.084 C 8.921 4.060,9.056 4.032,9.100 4.022 C 9.252 3.987,10.061 4.037,10.271 4.095 M18.626 14.045 C 18.257 14.239,17.951 14.673,17.951 15.000 C 17.951 15.307,18.079 15.487,18.853 16.270 L 19.575 17.000 17.694 17.000 C 15.689 17.000,15.589 17.008,15.322 17.199 C 15.100 17.357,15.020 17.568,15.020 18.000 C 15.020 18.331,15.033 18.403,15.120 18.558 C 15.230 18.755,15.414 18.898,15.635 18.959 C 15.723 18.984,16.530 19.000,17.678 19.000 L 19.575 19.000 18.853 19.730 C 18.420 20.168,18.095 20.531,18.041 20.637 C 17.863 20.988,17.952 21.354,18.299 21.701 C 18.646 22.048,19.011 22.137,19.363 21.960 C 19.480 21.901,20.051 21.365,21.062 20.365 C 21.899 19.537,22.634 18.826,22.697 18.784 C 22.850 18.682,23.049 18.238,23.049 18.000 C 23.049 17.745,22.851 17.321,22.676 17.201 C 22.601 17.150,21.865 16.438,21.040 15.618 C 20.085 14.670,19.479 14.098,19.372 14.044 C 19.152 13.934,18.835 13.934,18.626 14.045 M5.860 14.042 C 4.946 14.094,4.339 14.242,3.725 14.563 C 2.328 15.294,1.386 16.547,1.124 18.026 C 1.008 18.679,0.949 21.036,1.041 21.365 C 1.148 21.750,1.437 21.962,1.896 21.991 C 2.381 22.022,2.700 21.882,2.879 21.558 C 2.977 21.382,2.978 21.363,3.006 20.073 C 3.037 18.678,3.088 18.203,3.249 17.826 C 3.542 17.142,3.985 16.666,4.631 16.342 C 5.249 16.031,5.660 16.002,9.400 16.001 C 11.163 16.000,12.274 15.984,12.365 15.959 C 12.586 15.898,12.770 15.755,12.880 15.558 C 12.967 15.402,12.980 15.332,12.979 15.000 C 12.978 14.567,12.898 14.355,12.678 14.199 C 12.399 14.000,12.390 14.000,9.284 14.006 C 7.687 14.009,6.146 14.025,5.860 14.042 " stroke="none" fill-rule="evenodd" fill="black"></path></svg>