<svg width="24" height="24" viewBox="0 0 24 24" fill="none" xmlns="http://www.w3.org/2000/svg"><path d="M9.365 2.046 C 7.606 2.230,5.999 3.335,5.125 4.963 C 4.422 6.272,4.316 7.957,4.845 9.407 C 5.403 10.937,6.697 12.188,8.265 12.713 C 10.184 13.356,12.321 12.878,13.775 11.481 C 14.793 10.503,15.366 9.309,15.475 7.934 C 15.607 6.273,15.009 4.708,13.795 3.539 C 12.611 2.398,11.044 1.870,9.365 2.046 M10.900 4.117 C 11.835 4.358,12.672 5.045,13.120 5.940 C 13.413 6.525,13.460 6.737,13.460 7.500 C 13.460 8.263,13.413 8.476,13.120 9.060 C 12.679 9.940,11.923 10.577,10.980 10.864 C 10.654 10.964,10.562 10.974,10.000 10.974 C 9.439 10.974,9.346 10.964,9.020 10.865 C 7.848 10.509,6.935 9.574,6.611 8.397 C 6.557 8.201,6.540 7.989,6.540 7.500 C 6.540 6.808,6.582 6.571,6.789 6.103 C 7.174 5.229,8.001 4.467,8.874 4.181 C 9.476 3.984,10.283 3.958,10.900 4.117 M18.620 14.046 C 18.528 14.094,17.826 14.758,16.960 15.618 C 16.135 16.438,15.399 17.150,15.324 17.201 C 15.149 17.321,14.951 17.745,14.951 18.000 C 14.951 18.238,15.150 18.682,15.303 18.784 C 15.366 18.826,16.101 19.537,16.938 20.365 C 17.949 21.365,18.520 21.901,18.637 21.960 C 18.989 22.137,19.354 22.048,19.701 21.701 C 20.048 21.354,20.137 20.988,19.959 20.637 C 19.905 20.531,19.580 20.168,19.147 19.730 L 18.425 19.000 20.322 19.000 C 21.470 19.000,22.277 18.984,22.365 18.959 C 22.586 18.898,22.770 18.755,22.880 18.558 C 22.967 18.402,22.980 18.332,22.979 18.000 C 22.978 17.567,22.898 17.355,22.678 17.199 C 22.411 17.008,22.311 17.000,20.306 17.000 L 18.425 17.000 19.147 16.270 C 19.580 15.832,19.905 15.469,19.959 15.363 C 20.137 15.012,20.048 14.646,19.701 14.299 C 19.361 13.959,18.967 13.867,18.620 14.046 M5.540 14.546 C 4.726 14.643,4.324 14.756,3.732 15.055 C 3.242 15.302,2.841 15.595,2.442 15.999 C 1.741 16.706,1.261 17.625,1.095 18.575 C 1.013 19.043,0.969 21.099,1.035 21.344 C 1.145 21.748,1.428 21.961,1.896 21.991 C 2.381 22.022,2.700 21.882,2.879 21.558 C 2.975 21.384,2.978 21.353,3.005 20.240 C 3.037 18.937,3.076 18.679,3.316 18.185 C 3.604 17.594,4.067 17.128,4.670 16.825 C 5.255 16.531,5.037 16.546,8.860 16.522 C 12.681 16.498,12.456 16.515,12.751 16.229 C 12.983 16.004,13.065 15.513,12.940 15.092 C 12.868 14.852,12.645 14.627,12.413 14.563 C 12.271 14.524,5.861 14.508,5.540 14.546 " stroke="none" fill-rule="evenodd" fill="black"></path></svg>