<svg width="24" height="24" viewBox="0 0 24 24" fill="none" xmlns="http://www.w3.org/2000/svg"><path d="M8.891 2.044 C 7.010 2.263,5.391 3.587,4.759 5.422 C 4.421 6.405,4.431 7.666,4.786 8.649 C 5.326 10.146,6.459 11.256,7.944 11.742 C 11.179 12.802,14.486 10.404,14.486 7.000 C 14.486 3.996,11.888 1.695,8.891 2.044 M15.017 2.353 C 14.582 2.626,14.348 3.345,14.560 3.759 C 14.660 3.955,14.796 4.057,15.308 4.317 C 16.017 4.678,16.489 5.188,16.795 5.924 C 16.898 6.170,16.953 6.455,16.996 6.969 C 17.024 7.295,17.055 7.438,17.126 7.567 C 17.286 7.856,17.576 8.000,18.000 8.000 C 18.428 8.000,18.713 7.856,18.880 7.558 C 18.972 7.395,18.980 7.339,18.980 6.880 C 18.980 6.330,18.928 6.003,18.756 5.460 C 18.539 4.775,18.152 4.129,17.626 3.571 C 17.204 3.124,16.782 2.813,16.210 2.529 C 15.789 2.319,15.724 2.299,15.445 2.288 C 15.198 2.278,15.116 2.291,15.017 2.353 M10.271 4.095 C 11.331 4.387,12.204 5.292,12.421 6.323 C 12.499 6.695,12.496 7.332,12.415 7.692 C 12.163 8.812,11.250 9.701,10.111 9.936 C 8.936 10.179,7.755 9.715,7.054 8.734 C 6.684 8.216,6.520 7.683,6.520 7.000 C 6.520 6.186,6.766 5.543,7.299 4.965 C 7.670 4.562,8.322 4.179,8.800 4.084 C 8.921 4.060,9.056 4.032,9.100 4.022 C 9.252 3.987,10.061 4.037,10.271 4.095 M19.980 10.638 C 19.730 10.692,19.407 10.831,19.184 10.980 C 19.072 11.055,17.357 12.742,15.374 14.728 C 11.499 18.609,11.616 18.480,11.483 19.020 C 11.331 19.637,11.000 21.410,11.000 21.610 C 11.000 22.086,11.251 22.353,11.820 22.480 C 11.987 22.517,12.146 22.494,13.307 22.261 C 14.313 22.060,14.667 21.973,14.873 21.876 C 15.123 21.759,15.374 21.517,18.786 18.110 C 21.593 15.307,22.465 14.413,22.577 14.225 C 23.338 12.942,22.742 11.272,21.331 10.734 C 21.109 10.649,20.977 10.628,20.600 10.617 C 20.347 10.610,20.068 10.619,19.980 10.638 M20.696 12.646 C 20.832 12.708,20.933 12.929,20.899 13.092 C 20.878 13.194,20.172 13.921,17.446 16.649 L 14.020 20.079 13.650 20.154 C 13.447 20.196,13.281 20.218,13.282 20.205 C 13.282 20.191,13.317 20.020,13.358 19.824 L 13.432 19.468 16.786 16.110 C 18.631 14.263,20.194 12.718,20.260 12.676 C 20.396 12.590,20.550 12.579,20.696 12.646 M5.860 14.042 C 4.946 14.094,4.339 14.242,3.725 14.563 C 2.328 15.294,1.386 16.547,1.124 18.026 C 1.008 18.679,0.949 21.036,1.041 21.365 C 1.148 21.750,1.437 21.962,1.896 21.991 C 2.381 22.022,2.700 21.882,2.879 21.558 C 2.977 21.382,2.978 21.363,3.006 20.073 C 3.037 18.678,3.088 18.203,3.249 17.826 C 3.542 17.142,3.985 16.666,4.631 16.342 C 5.234 16.039,5.699 16.002,8.900 16.001 C 10.328 16.000,11.276 15.984,11.365 15.959 C 11.586 15.898,11.770 15.755,11.880 15.558 C 11.967 15.402,11.980 15.332,11.979 15.000 C 11.978 14.567,11.898 14.355,11.678 14.199 C 11.403 14.003,11.352 14.000,8.784 14.006 C 7.462 14.009,6.146 14.025,5.860 14.042 " stroke="none" fill-rule="evenodd" fill="black"></path></svg>