<svg width="24" height="24" viewBox="0 0 24 24" fill="none" xmlns="http://www.w3.org/2000/svg"><path d="M9.365 2.046 C 7.606 2.230,5.999 3.335,5.125 4.963 C 4.422 6.272,4.316 7.957,4.845 9.407 C 5.403 10.937,6.697 12.188,8.265 12.713 C 10.184 13.356,12.321 12.878,13.775 11.481 C 14.793 10.503,15.366 9.309,15.475 7.934 C 15.607 6.273,15.009 4.708,13.795 3.539 C 12.611 2.398,11.044 1.870,9.365 2.046 M10.900 4.117 C 11.835 4.358,12.672 5.045,13.120 5.940 C 13.413 6.525,13.460 6.737,13.460 7.500 C 13.460 8.263,13.413 8.476,13.120 9.060 C 12.679 9.940,11.923 10.577,10.980 10.864 C 10.654 10.964,10.562 10.974,10.000 10.974 C 9.439 10.974,9.346 10.964,9.020 10.865 C 7.848 10.509,6.935 9.574,6.611 8.397 C 6.557 8.201,6.540 7.989,6.540 7.500 C 6.540 6.808,6.582 6.571,6.789 6.103 C 7.174 5.229,8.001 4.467,8.874 4.181 C 9.476 3.984,10.283 3.958,10.900 4.117 M18.626 14.045 C 18.257 14.239,17.951 14.673,17.951 15.000 C 17.951 15.307,18.079 15.487,18.853 16.270 L 19.575 17.000 17.694 17.000 C 15.689 17.000,15.589 17.008,15.322 17.199 C 15.100 17.357,15.020 17.568,15.020 18.000 C 15.020 18.331,15.033 18.403,15.120 18.558 C 15.230 18.755,15.414 18.898,15.635 18.959 C 15.723 18.984,16.530 19.000,17.678 19.000 L 19.575 19.000 18.853 19.730 C 18.420 20.168,18.095 20.531,18.041 20.637 C 17.863 20.988,17.952 21.354,18.299 21.701 C 18.646 22.048,19.011 22.137,19.363 21.960 C 19.480 21.901,20.051 21.365,21.062 20.365 C 21.899 19.537,22.634 18.826,22.697 18.784 C 22.850 18.682,23.049 18.238,23.049 18.000 C 23.049 17.745,22.851 17.321,22.676 17.201 C 22.601 17.150,21.865 16.438,21.040 15.618 C 20.085 14.670,19.479 14.098,19.372 14.044 C 19.152 13.934,18.835 13.934,18.626 14.045 M5.540 14.546 C 4.726 14.643,4.324 14.756,3.732 15.055 C 3.242 15.302,2.841 15.595,2.442 15.999 C 1.741 16.706,1.261 17.625,1.095 18.575 C 1.013 19.043,0.969 21.099,1.035 21.344 C 1.145 21.748,1.428 21.961,1.896 21.991 C 2.381 22.022,2.700 21.882,2.879 21.558 C 2.975 21.384,2.978 21.353,3.005 20.240 C 3.037 18.937,3.076 18.679,3.316 18.185 C 3.604 17.594,4.067 17.128,4.670 16.825 C 5.255 16.531,5.037 16.546,8.860 16.522 C 12.681 16.498,12.456 16.515,12.751 16.229 C 12.983 16.004,13.065 15.513,12.940 15.092 C 12.868 14.852,12.645 14.627,12.413 14.563 C 12.271 14.524,5.861 14.508,5.540 14.546 " stroke="none" fill-rule="evenodd" fill="black"></path></svg>