<svg width="24" height="24" viewBox="0 0 24 24" fill="none" xmlns="http://www.w3.org/2000/svg"><path d="M9.365 2.046 C 7.606 2.230,5.999 3.335,5.125 4.963 C 4.422 6.272,4.316 7.957,4.845 9.407 C 5.403 10.937,6.697 12.188,8.265 12.713 C 10.184 13.356,12.321 12.878,13.775 11.481 C 14.793 10.503,15.366 9.309,15.475 7.934 C 15.607 6.273,15.009 4.708,13.795 3.539 C 12.611 2.398,11.044 1.870,9.365 2.046 M10.900 4.117 C 11.835 4.358,12.672 5.045,13.120 5.940 C 13.413 6.525,13.460 6.737,13.460 7.500 C 13.460 8.263,13.413 8.476,13.120 9.060 C 12.679 9.940,11.923 10.577,10.980 10.864 C 10.654 10.964,10.562 10.974,10.000 10.974 C 9.439 10.974,9.346 10.964,9.020 10.865 C 7.848 10.509,6.935 9.574,6.611 8.397 C 6.557 8.201,6.540 7.989,6.540 7.500 C 6.540 6.808,6.582 6.571,6.789 6.103 C 7.174 5.229,8.001 4.467,8.874 4.181 C 9.476 3.984,10.283 3.958,10.900 4.117 M18.530 14.085 C 18.392 14.152,18.248 14.254,18.210 14.311 C 18.171 14.369,17.463 15.101,16.635 15.938 C 15.635 16.949,15.099 17.520,15.040 17.637 C 14.863 17.989,14.952 18.354,15.299 18.701 C 15.646 19.048,16.012 19.137,16.363 18.959 C 16.469 18.905,16.832 18.580,17.270 18.147 L 18.000 17.425 18.000 19.322 C 18.000 20.470,18.016 21.277,18.041 21.365 C 18.148 21.750,18.437 21.962,18.896 21.991 C 19.381 22.022,19.699 21.882,19.880 21.558 L 19.980 21.380 19.992 19.404 L 20.004 17.428 20.732 18.149 C 21.168 18.581,21.531 18.905,21.637 18.959 C 21.988 19.137,22.354 19.048,22.701 18.701 C 23.048 18.354,23.137 17.989,22.960 17.637 C 22.901 17.520,22.365 16.949,21.365 15.938 C 20.537 15.101,19.829 14.369,19.790 14.311 C 19.752 14.254,19.604 14.151,19.460 14.083 C 19.113 13.919,18.873 13.920,18.530 14.085 M5.540 14.546 C 4.726 14.643,4.324 14.756,3.732 15.055 C 3.242 15.302,2.841 15.595,2.442 15.999 C 1.741 16.706,1.261 17.625,1.095 18.575 C 1.013 19.043,0.969 21.099,1.035 21.344 C 1.145 21.748,1.428 21.961,1.896 21.991 C 2.381 22.022,2.700 21.882,2.879 21.558 C 2.975 21.384,2.978 21.353,3.005 20.240 C 3.037 18.937,3.076 18.679,3.316 18.185 C 3.604 17.594,4.067 17.128,4.670 16.825 C 5.255 16.531,5.037 16.546,8.860 16.522 C 12.681 16.498,12.456 16.515,12.751 16.229 C 12.983 16.004,13.065 15.513,12.940 15.092 C 12.868 14.852,12.645 14.627,12.413 14.563 C 12.271 14.524,5.861 14.508,5.540 14.546 " stroke="none" fill-rule="evenodd" fill="black"></path></svg>