<svg version="1.1" xmlns="http://www.w3.org/2000/svg" width="18" height="16" viewBox="0 0 18 16"><path d="M6.435 0.033 C 5.024 0.180,4.321 0.875,4.096 2.345 C 4.070 2.516,4.033 3.018,4.014 3.462 C 3.961 4.665,4.022 5.273,4.262 5.957 C 4.394 6.334,4.584 6.717,4.803 7.050 C 5.022 7.382,5.565 7.940,5.826 8.100 L 5.997 8.205 5.999 8.617 C 6.000 9.094,6.057 9.035,5.550 9.090 C 3.430 9.321,1.489 10.223,0.590 11.393 C 0.256 11.828,0.002 12.488,0.000 12.922 L 0.000 12.990 2.178 12.990 L 4.357 12.990 4.586 12.807 C 5.445 12.120,6.722 11.523,7.950 11.235 C 8.074 11.206,8.184 11.174,8.195 11.164 C 8.206 11.153,8.148 11.057,8.067 10.950 C 7.692 10.460,7.377 9.860,7.172 9.244 C 6.911 8.465,6.841 7.753,6.895 6.423 C 6.950 5.057,7.070 4.427,7.403 3.765 C 7.590 3.392,7.743 3.175,8.008 2.908 C 8.259 2.655,8.483 2.495,8.817 2.326 C 9.039 2.215,9.618 2.010,9.714 2.010 C 9.833 2.008,9.842 1.971,9.779 1.744 C 9.493 0.713,8.783 0.164,7.566 0.033 C 7.219 -0.004,6.792 -0.004,6.435 0.033 M10.394 3.031 C 9.191 3.168,8.491 3.734,8.206 4.800 C 8.053 5.373,8.027 5.677,8.026 6.915 C 8.025 8.193,8.032 8.261,8.249 8.913 C 8.558 9.843,9.176 10.689,9.862 11.124 L 9.990 11.205 9.990 11.616 L 9.990 12.027 9.893 12.042 C 9.839 12.050,9.660 12.072,9.495 12.090 C 9.330 12.109,8.966 12.169,8.685 12.225 C 7.027 12.555,5.720 13.192,4.859 14.089 C 4.337 14.633,4.083 15.152,4.006 15.832 L 3.988 15.990 10.998 15.990 L 18.008 15.990 17.987 15.803 C 17.953 15.483,17.881 15.237,17.730 14.925 C 17.356 14.151,16.647 13.509,15.581 12.978 C 14.678 12.528,13.406 12.170,12.375 12.076 C 12.259 12.065,12.128 12.049,12.082 12.041 L 12.000 12.025 12.001 11.615 L 12.001 11.205 12.175 11.094 C 12.271 11.033,12.448 10.892,12.569 10.780 C 13.358 10.049,13.877 8.960,13.982 7.811 C 14.020 7.395,14.002 6.301,13.947 5.715 C 13.858 4.760,13.628 4.146,13.201 3.720 C 12.709 3.230,12.143 3.037,11.130 3.015 C 10.858 3.009,10.526 3.016,10.394 3.031 " stroke="none" fill-rule="evenodd" fill="black"></path></svg>