<svg width="24" height="24" viewBox="0 0 24 24" fill="none" xmlns="http://www.w3.org/2000/svg"><path d="M8.891 2.044 C 7.010 2.263,5.391 3.587,4.759 5.422 C 4.421 6.405,4.431 7.666,4.786 8.649 C 5.326 10.146,6.459 11.256,7.944 11.742 C 11.179 12.802,14.486 10.404,14.486 7.000 C 14.486 3.996,11.888 1.695,8.891 2.044 M15.017 2.353 C 14.582 2.626,14.348 3.345,14.560 3.759 C 14.660 3.955,14.796 4.057,15.308 4.317 C 15.928 4.633,16.384 5.082,16.673 5.660 C 16.845 6.006,16.911 6.228,16.964 6.638 C 17.085 7.584,16.750 8.512,16.044 9.180 C 15.784 9.427,15.616 9.539,15.222 9.731 C 14.640 10.014,14.480 10.205,14.480 10.617 C 14.480 11.088,14.820 11.619,15.184 11.716 C 15.711 11.857,16.819 11.275,17.611 10.442 C 18.294 9.724,18.734 8.874,18.925 7.900 C 18.997 7.533,18.997 6.467,18.925 6.100 C 18.736 5.135,18.298 4.284,17.626 3.571 C 17.204 3.124,16.782 2.813,16.210 2.529 C 15.789 2.319,15.724 2.299,15.445 2.288 C 15.198 2.278,15.116 2.291,15.017 2.353 M10.271 4.095 C 11.331 4.387,12.204 5.292,12.421 6.323 C 12.499 6.695,12.496 7.332,12.415 7.692 C 12.163 8.812,11.250 9.701,10.111 9.936 C 8.936 10.179,7.755 9.715,7.054 8.734 C 6.684 8.216,6.520 7.683,6.520 7.000 C 6.520 6.186,6.766 5.543,7.299 4.965 C 7.670 4.562,8.322 4.179,8.800 4.084 C 8.921 4.060,9.056 4.032,9.100 4.022 C 9.252 3.987,10.061 4.037,10.271 4.095 M5.860 14.040 C 4.940 14.096,4.337 14.243,3.725 14.563 C 2.328 15.294,1.386 16.547,1.124 18.026 C 1.008 18.679,0.949 21.036,1.041 21.365 C 1.148 21.750,1.437 21.962,1.896 21.991 C 2.381 22.022,2.700 21.882,2.879 21.558 C 2.977 21.382,2.978 21.363,3.006 20.073 C 3.037 18.678,3.088 18.203,3.249 17.826 C 3.542 17.142,3.985 16.666,4.631 16.342 C 5.253 16.030,5.655 16.002,9.500 16.002 C 13.345 16.002,13.747 16.030,14.369 16.342 C 15.120 16.719,15.684 17.413,15.861 18.180 C 15.946 18.547,15.998 19.384,15.999 20.400 C 16.000 20.851,16.019 21.285,16.041 21.365 C 16.148 21.750,16.437 21.962,16.896 21.991 C 17.381 22.022,17.699 21.882,17.880 21.558 L 17.980 21.380 17.979 20.080 C 17.978 18.227,17.886 17.638,17.463 16.780 C 16.967 15.773,16.158 14.981,15.120 14.483 C 14.751 14.306,14.215 14.156,13.680 14.079 C 13.280 14.022,6.704 13.989,5.860 14.040 M18.537 14.177 C 18.107 14.364,17.842 15.209,18.081 15.634 C 18.207 15.857,18.395 15.978,18.843 16.123 C 19.050 16.190,19.319 16.300,19.440 16.368 C 20.259 16.826,20.812 17.616,20.961 18.540 C 20.982 18.672,21.000 19.329,21.000 20.000 C 21.000 20.693,21.018 21.283,21.041 21.365 C 21.148 21.750,21.437 21.962,21.896 21.991 C 22.381 22.022,22.699 21.882,22.880 21.558 L 22.980 21.380 22.980 19.860 C 22.980 18.524,22.971 18.299,22.905 18.000 C 22.819 17.607,22.636 17.069,22.490 16.780 C 22.143 16.093,21.389 15.243,20.760 14.830 C 19.945 14.295,18.943 14.000,18.537 14.177 " stroke="none" fill-rule="evenodd" fill="black"></path></svg>