<svg width="24" height="24" viewBox="0 0 24 24" fill="none" xmlns="http://www.w3.org/2000/svg"><path d="M8.891 2.044 C 7.010 2.263,5.391 3.587,4.759 5.422 C 4.421 6.405,4.431 7.666,4.786 8.649 C 5.326 10.146,6.459 11.256,7.944 11.742 C 11.179 12.802,14.486 10.404,14.486 7.000 C 14.486 3.996,11.888 1.695,8.891 2.044 M15.017 2.353 C 14.582 2.626,14.348 3.345,14.560 3.759 C 14.660 3.955,14.796 4.057,15.308 4.317 C 15.928 4.633,16.384 5.082,16.673 5.660 C 16.845 6.006,16.911 6.228,16.964 6.638 C 17.085 7.584,16.750 8.512,16.044 9.180 C 15.784 9.427,15.616 9.539,15.222 9.731 C 14.640 10.014,14.480 10.205,14.480 10.617 C 14.480 11.088,14.820 11.619,15.184 11.716 C 15.711 11.857,16.819 11.275,17.611 10.442 C 18.294 9.724,18.734 8.874,18.925 7.900 C 18.997 7.533,18.997 6.467,18.925 6.100 C 18.736 5.135,18.298 4.284,17.626 3.571 C 17.204 3.124,16.782 2.813,16.210 2.529 C 15.789 2.319,15.724 2.299,15.445 2.288 C 15.198 2.278,15.116 2.291,15.017 2.353 M10.271 4.095 C 11.331 4.387,12.204 5.292,12.421 6.323 C 12.499 6.695,12.496 7.332,12.415 7.692 C 12.163 8.812,11.250 9.701,10.111 9.936 C 8.936 10.179,7.755 9.715,7.054 8.734 C 6.684 8.216,6.520 7.683,6.520 7.000 C 6.520 6.186,6.766 5.543,7.299 4.965 C 7.670 4.562,8.322 4.179,8.800 4.084 C 8.921 4.060,9.056 4.032,9.100 4.022 C 9.252 3.987,10.061 4.037,10.271 4.095 M18.620 14.046 C 18.528 14.094,17.826 14.758,16.960 15.618 C 16.135 16.438,15.399 17.150,15.324 17.201 C 15.149 17.321,14.951 17.745,14.951 18.000 C 14.951 18.238,15.150 18.682,15.303 18.784 C 15.366 18.826,16.101 19.537,16.938 20.365 C 17.949 21.365,18.520 21.901,18.637 21.960 C 18.989 22.137,19.354 22.048,19.701 21.701 C 20.048 21.354,20.137 20.988,19.959 20.637 C 19.905 20.531,19.580 20.168,19.147 19.730 L 18.425 19.000 20.322 19.000 C 21.470 19.000,22.277 18.984,22.365 18.959 C 22.586 18.898,22.770 18.755,22.880 18.558 C 22.967 18.402,22.980 18.332,22.979 18.000 C 22.978 17.567,22.898 17.355,22.678 17.199 C 22.411 17.008,22.311 17.000,20.306 17.000 L 18.425 17.000 19.147 16.270 C 19.580 15.832,19.905 15.469,19.959 15.363 C 20.137 15.012,20.048 14.646,19.701 14.299 C 19.361 13.959,18.967 13.867,18.620 14.046 M5.860 14.042 C 4.946 14.094,4.339 14.242,3.725 14.563 C 2.328 15.294,1.386 16.547,1.124 18.026 C 1.008 18.679,0.949 21.036,1.041 21.365 C 1.148 21.750,1.437 21.962,1.896 21.991 C 2.381 22.022,2.700 21.882,2.879 21.558 C 2.977 21.382,2.978 21.363,3.006 20.073 C 3.037 18.678,3.088 18.203,3.249 17.826 C 3.542 17.142,3.985 16.666,4.631 16.342 C 5.249 16.031,5.660 16.002,9.400 16.001 C 11.163 16.000,12.274 15.984,12.365 15.959 C 12.586 15.898,12.770 15.755,12.880 15.558 C 12.967 15.402,12.980 15.332,12.979 15.000 C 12.978 14.567,12.898 14.355,12.678 14.199 C 12.399 14.000,12.390 14.000,9.284 14.006 C 7.687 14.009,6.146 14.025,5.860 14.042 " stroke="none" fill-rule="evenodd" fill="black"></path></svg>