<svg width="24" height="24" viewBox="0 0 24 24" fill="none" xmlns="http://www.w3.org/2000/svg"><path d="M3.773 1.986 C 3.725 1.996,3.600 2.080,3.496 2.172 C 3.338 2.311,3.258 2.439,3.031 2.916 C 1.974 5.136,1.305 7.620,1.072 10.180 C 1.007 10.904,1.007 13.096,1.072 13.820 C 1.305 16.382,1.977 18.875,3.032 21.084 C 3.416 21.888,3.650 22.092,4.120 22.029 C 4.500 21.978,4.994 21.641,5.082 21.373 C 5.175 21.093,5.115 20.825,4.810 20.160 C 3.820 18.000,3.301 16.055,3.075 13.660 C 3.013 13.004,3.013 10.980,3.075 10.320 C 3.297 7.962,3.826 5.989,4.810 3.840 C 5.209 2.969,5.222 2.654,4.873 2.338 C 4.579 2.073,4.089 1.916,3.773 1.986 M19.691 2.018 C 19.291 2.143,18.946 2.440,18.897 2.701 C 18.844 2.982,18.903 3.209,19.194 3.850 C 20.048 5.730,20.529 7.348,20.795 9.240 C 20.936 10.250,20.974 10.829,20.974 12.000 C 20.974 14.970,20.441 17.411,19.194 20.150 C 18.886 20.826,18.825 21.094,18.918 21.373 C 19.011 21.657,19.525 21.993,19.923 22.031 C 20.392 22.076,20.606 21.866,21.035 20.938 C 22.076 18.686,22.699 16.343,22.928 13.820 C 22.993 13.096,22.993 10.904,22.928 10.180 C 22.740 8.108,22.316 6.279,21.569 4.320 C 21.245 3.469,20.745 2.410,20.591 2.248 C 20.340 1.984,20.043 1.908,19.691 2.018 M8.265 7.699 C 8.031 7.782,7.847 7.983,7.774 8.236 C 7.686 8.536,7.716 8.971,7.839 9.190 C 8.049 9.564,8.315 9.640,9.407 9.640 L 10.197 9.640 10.276 9.910 C 10.320 10.059,10.493 10.661,10.661 11.249 L 10.965 12.319 9.724 13.775 C 9.041 14.576,8.422 15.266,8.348 15.310 C 8.144 15.430,7.977 15.474,7.554 15.516 C 7.141 15.557,6.983 15.616,6.820 15.790 C 6.531 16.101,6.534 16.902,6.825 17.215 C 7.015 17.418,7.251 17.494,7.682 17.492 C 8.337 17.487,8.913 17.315,9.448 16.964 C 9.799 16.733,10.078 16.448,10.881 15.500 C 11.216 15.104,11.521 14.748,11.557 14.709 C 11.620 14.642,11.636 14.678,11.819 15.329 C 11.926 15.709,12.056 16.118,12.108 16.238 C 12.363 16.826,12.906 17.276,13.561 17.444 C 13.864 17.521,15.583 17.523,15.839 17.446 C 16.619 17.211,16.634 15.780,15.859 15.565 C 15.767 15.539,15.354 15.520,14.878 15.520 C 14.282 15.520,14.037 15.506,13.990 15.470 C 13.932 15.426,13.200 12.978,13.200 12.831 C 13.200 12.786,14.800 10.880,15.459 10.140 C 15.788 9.770,15.977 9.677,16.488 9.634 C 17.067 9.585,17.296 9.466,17.443 9.140 C 17.600 8.791,17.575 8.276,17.388 7.992 C 17.338 7.918,17.204 7.810,17.080 7.746 C 16.864 7.635,16.851 7.633,16.340 7.653 C 15.760 7.675,15.406 7.767,14.919 8.024 C 14.486 8.251,14.182 8.542,13.340 9.532 C 12.900 10.050,12.534 10.467,12.527 10.460 C 12.519 10.453,12.415 10.109,12.295 9.696 C 12.034 8.797,11.916 8.562,11.559 8.225 C 11.274 7.955,10.986 7.792,10.635 7.698 C 10.334 7.618,8.490 7.619,8.265 7.699 " stroke="none" fill-rule="evenodd" fill="black"></path></svg>