<svg version="1.1" xmlns="http://www.w3.org/2000/svg" width="32" height="32" viewBox="0 0 32 32"><path d="M4.569 0.353 C 2.627 0.772,1.113 2.150,0.506 4.053 C 0.390 4.419,0.353 4.667,0.317 5.333 C 0.292 5.788,0.271 10.864,0.269 16.613 L 0.267 27.067 0.398 27.557 C 0.697 28.672,1.075 29.378,1.755 30.095 C 2.431 30.806,3.337 31.335,4.332 31.600 L 4.836 31.734 16.138 31.720 L 27.440 31.707 28.038 31.501 C 29.760 30.908,30.908 29.760,31.500 28.040 L 31.707 27.440 31.720 16.155 L 31.734 4.871 31.603 4.354 C 31.450 3.751,31.087 2.954,30.753 2.488 C 30.477 2.103,29.895 1.518,29.519 1.248 C 29.126 0.966,28.386 0.607,27.855 0.440 L 27.387 0.293 16.160 0.284 C 6.456 0.276,4.884 0.285,4.569 0.353 M16.895 5.871 C 18.960 6.100,20.821 6.924,22.296 8.263 C 24.215 10.003,25.200 12.134,25.444 15.073 C 25.530 16.101,25.502 16.350,25.281 16.548 C 25.123 16.689,25.077 16.703,24.836 16.680 C 24.630 16.660,24.538 16.620,24.446 16.513 C 24.304 16.349,24.292 16.282,24.216 15.227 C 24.086 13.436,23.606 11.926,22.764 10.658 C 22.299 9.958,21.314 8.984,20.571 8.490 C 19.265 7.622,18.102 7.235,16.371 7.093 C 15.498 7.022,15.330 6.973,15.196 6.755 C 15.021 6.467,15.099 6.088,15.372 5.897 C 15.515 5.796,16.127 5.786,16.895 5.871 M9.525 6.348 C 10.448 6.795,12.798 9.948,13.062 11.095 C 13.235 11.843,13.066 12.125,11.819 13.165 C 11.255 13.636,11.126 13.868,11.130 14.400 C 11.131 14.653,11.185 14.905,11.328 15.331 C 11.715 16.482,12.280 17.348,13.333 18.401 C 14.173 19.242,14.945 19.811,15.867 20.268 C 17.355 21.007,17.834 20.985,18.507 20.148 C 18.697 19.911,18.993 19.566,19.163 19.382 C 19.540 18.974,19.829 18.853,20.415 18.860 C 20.758 18.864,20.855 18.890,21.242 19.082 C 22.526 19.720,25.061 21.649,25.413 22.257 C 25.555 22.501,25.573 22.583,25.573 22.960 C 25.573 23.341,25.553 23.429,25.380 23.787 C 25.063 24.443,24.304 25.390,23.681 25.906 C 23.490 26.064,23.137 26.291,22.896 26.411 C 22.503 26.606,22.410 26.630,21.963 26.653 C 21.350 26.685,21.102 26.609,19.650 25.949 C 14.893 23.784,11.073 20.506,8.183 16.107 C 7.141 14.520,6.401 13.093,5.749 11.413 C 5.101 9.745,5.075 9.065,5.631 8.326 C 6.134 7.656,7.675 6.461,8.365 6.205 C 8.651 6.099,9.133 6.158,9.525 6.348 M17.551 8.376 C 20.088 8.832,21.912 10.366,22.688 12.695 C 22.998 13.629,23.137 14.972,22.964 15.385 C 22.835 15.695,22.452 15.818,22.132 15.652 C 21.905 15.535,21.813 15.317,21.813 14.896 C 21.812 13.939,21.501 12.775,21.051 12.044 C 20.738 11.534,20.112 10.859,19.645 10.526 C 18.945 10.025,17.951 9.671,16.888 9.542 C 16.160 9.453,15.931 9.287,15.937 8.854 C 15.945 8.280,16.350 8.160,17.551 8.376 M18.160 10.911 C 19.044 11.123,19.860 11.765,20.232 12.541 C 20.421 12.935,20.640 13.831,20.640 14.210 C 20.640 14.492,20.512 14.754,20.327 14.850 C 20.126 14.954,19.995 14.955,19.756 14.855 C 19.532 14.762,19.441 14.570,19.387 14.080 C 19.314 13.415,19.071 12.872,18.699 12.545 C 18.375 12.261,18.207 12.199,17.215 12.001 C 16.985 11.955,16.877 11.901,16.775 11.779 C 16.533 11.492,16.621 11.037,16.954 10.851 C 17.116 10.760,17.643 10.786,18.160 10.911 " stroke="none" fill-rule="evenodd" fill="black"></path></svg>