<svg width="24" height="24" viewBox="0 0 24 24" fill="none" xmlns="http://www.w3.org/2000/svg"><path d="M1.626 1.045 C 1.257 1.239,0.951 1.673,0.951 2.000 C 0.951 2.323,1.068 2.477,2.106 3.523 C 3.030 4.453,3.078 4.508,2.990 4.548 C 2.777 4.645,2.214 5.113,1.979 5.388 C 1.517 5.930,1.225 6.529,1.083 7.227 C 1.002 7.622,1.000 7.744,1.000 12.000 C 1.000 16.256,1.002 16.378,1.083 16.773 C 1.311 17.892,1.985 18.851,2.956 19.436 C 3.285 19.635,3.810 19.832,4.243 19.921 C 4.619 19.997,4.801 20.000,9.491 20.000 C 14.772 20.000,14.689 20.003,15.326 19.776 C 15.890 19.576,16.516 19.168,16.901 18.750 L 17.100 18.534 19.280 20.703 C 20.783 22.198,21.515 22.899,21.637 22.960 C 21.990 23.137,22.354 23.048,22.701 22.701 C 23.116 22.287,23.159 21.869,22.833 21.440 C 22.791 21.385,18.955 17.530,14.308 12.873 C 9.662 8.216,5.815 4.361,5.760 4.305 C 4.616 3.144,2.503 1.111,2.372 1.045 C 2.152 0.934,1.835 0.934,1.626 1.045 M9.180 4.037 C 8.709 4.166,8.514 4.447,8.512 5.000 C 8.509 5.532,8.741 5.869,9.167 5.956 C 9.301 5.984,10.283 6.005,11.800 6.015 C 14.401 6.031,14.526 6.041,14.952 6.248 C 15.194 6.366,15.634 6.806,15.752 7.048 C 15.957 7.470,15.973 7.664,15.976 9.800 C 15.977 10.889,15.972 11.870,15.964 11.981 C 15.947 12.235,16.131 12.669,16.304 12.784 C 16.367 12.826,17.310 13.744,18.399 14.825 C 19.489 15.906,20.474 16.863,20.590 16.952 C 21.003 17.271,21.499 17.362,21.974 17.205 C 22.528 17.023,22.854 16.624,22.959 16.000 C 22.990 15.819,23.000 14.550,22.991 11.840 C 22.980 8.251,22.974 7.924,22.909 7.734 C 22.653 6.979,21.849 6.553,21.106 6.776 C 20.754 6.882,20.499 7.096,19.250 8.336 L 18.000 9.576 18.000 8.918 C 18.000 7.582,17.869 6.798,17.535 6.141 C 17.088 5.259,16.267 4.557,15.320 4.246 C 14.721 4.049,14.431 4.031,11.780 4.017 C 10.416 4.010,9.246 4.019,9.180 4.037 M10.157 11.577 L 15.694 17.114 15.417 17.390 C 15.126 17.680,14.848 17.843,14.475 17.942 C 14.146 18.029,4.844 18.028,4.508 17.940 C 3.823 17.762,3.249 17.194,3.073 16.523 C 3.011 16.283,3.004 15.895,3.002 12.028 C 3.000 7.324,2.992 7.469,3.265 7.014 C 3.519 6.589,3.911 6.260,4.337 6.113 C 4.448 6.074,4.558 6.042,4.580 6.041 C 4.602 6.041,7.112 8.532,10.157 11.577 M21.000 12.010 L 21.000 14.580 19.710 13.290 L 18.420 12.000 19.700 10.720 C 20.404 10.016,20.984 9.440,20.990 9.440 C 20.995 9.440,21.000 10.596,21.000 12.010 " stroke="none" fill-rule="evenodd" fill="black"></path></svg>