<svg width="24" height="24" viewBox="0 0 24 24" fill="none" xmlns="http://www.w3.org/2000/svg"><path d="M11.260 1.024 C 10.305 1.118,9.583 1.246,9.360 1.361 C 9.187 1.450,9.019 1.624,8.963 1.773 C 8.898 1.943,8.912 2.346,8.990 2.596 C 9.110 2.980,9.439 3.241,9.800 3.239 C 9.855 3.239,10.097 3.203,10.337 3.159 C 10.577 3.116,10.825 3.080,10.887 3.080 L 11.001 3.080 10.990 4.587 L 10.980 6.093 10.700 6.149 C 10.105 6.269,9.275 6.617,8.734 6.974 L 8.529 7.110 7.461 6.041 L 6.392 4.972 6.566 4.832 C 6.662 4.755,6.830 4.633,6.940 4.561 C 7.509 4.185,7.699 3.824,7.554 3.396 C 7.472 3.156,7.231 2.833,7.045 2.715 C 6.680 2.483,6.410 2.518,5.880 2.868 C 4.822 3.565,3.795 4.561,3.038 5.625 C 2.559 6.299,2.471 6.591,2.640 6.941 C 2.747 7.161,3.092 7.449,3.356 7.539 C 3.848 7.707,4.125 7.560,4.600 6.880 C 4.716 6.715,4.847 6.539,4.893 6.489 L 4.977 6.397 6.043 7.463 L 7.109 8.528 6.970 8.734 C 6.593 9.293,6.300 10.021,6.103 10.890 L 6.078 11.000 4.579 11.000 L 3.080 11.000 3.080 10.910 C 3.079 10.861,3.118 10.577,3.165 10.280 C 3.237 9.829,3.243 9.712,3.204 9.569 C 3.106 9.214,2.741 8.968,2.254 8.929 C 1.915 8.902,1.743 8.943,1.577 9.088 C 1.381 9.260,1.296 9.446,1.205 9.905 C 1.056 10.651,1.022 11.046,1.022 12.000 C 1.022 12.954,1.056 13.349,1.205 14.095 C 1.317 14.656,1.480 14.927,1.773 15.037 C 2.115 15.167,2.740 15.027,3.006 14.762 C 3.242 14.528,3.267 14.363,3.165 13.720 C 3.118 13.423,3.079 13.139,3.080 13.090 L 3.080 13.000 4.579 13.000 L 6.078 13.000 6.103 13.110 C 6.300 13.979,6.593 14.707,6.970 15.266 L 7.109 15.472 6.040 16.540 L 4.972 17.608 4.833 17.434 C 4.757 17.338,4.611 17.141,4.510 16.996 C 4.183 16.530,3.902 16.361,3.547 16.417 C 3.197 16.473,2.787 16.772,2.650 17.072 C 2.479 17.445,2.553 17.692,3.038 18.375 C 3.718 19.330,4.632 20.248,5.595 20.940 C 6.235 21.399,6.533 21.508,6.857 21.401 C 7.045 21.339,7.353 21.030,7.477 20.778 C 7.666 20.398,7.629 20.071,7.365 19.786 C 7.283 19.696,6.831 19.354,6.422 19.071 C 6.397 19.054,6.824 18.597,7.454 17.967 L 8.528 16.891 8.734 17.030 C 9.293 17.407,10.021 17.700,10.890 17.897 L 11.000 17.922 11.000 19.434 L 11.000 20.946 10.870 20.930 C 10.798 20.921,10.537 20.878,10.288 20.835 C 9.797 20.749,9.566 20.760,9.369 20.881 C 9.099 21.045,8.912 21.447,8.913 21.860 C 8.915 22.416,9.160 22.647,9.905 22.795 C 10.651 22.944,11.046 22.978,12.000 22.978 C 12.954 22.978,13.349 22.944,14.095 22.795 C 14.690 22.677,14.927 22.521,15.042 22.175 C 15.162 21.810,14.988 21.157,14.714 20.948 C 14.479 20.769,14.262 20.746,13.685 20.840 C 13.407 20.885,13.139 20.928,13.090 20.936 L 13.000 20.949 13.000 19.435 L 13.000 17.922 13.110 17.897 C 13.984 17.699,14.664 17.425,15.245 17.040 L 15.471 16.890 16.545 17.966 C 17.175 18.597,17.603 19.054,17.578 19.071 C 16.806 19.605,16.517 19.858,16.437 20.067 C 16.241 20.585,16.820 21.440,17.368 21.440 C 17.582 21.440,17.817 21.342,18.155 21.114 C 19.195 20.411,20.203 19.429,20.940 18.405 C 21.404 17.758,21.494 17.516,21.398 17.171 C 21.303 16.834,20.836 16.471,20.425 16.414 C 20.079 16.367,19.817 16.530,19.490 16.996 C 19.389 17.141,19.243 17.338,19.167 17.434 L 19.028 17.608 17.959 16.539 L 16.890 15.471 17.040 15.245 C 17.425 14.664,17.699 13.984,17.897 13.110 L 17.922 13.000 19.421 13.000 L 20.920 13.000 20.920 13.104 C 20.920 13.161,20.882 13.425,20.837 13.691 C 20.743 14.231,20.756 14.443,20.893 14.646 C 21.071 14.911,21.458 15.080,21.885 15.080 C 22.421 15.080,22.648 14.834,22.795 14.095 C 22.944 13.349,22.978 12.954,22.978 12.000 C 22.978 11.045,22.944 10.651,22.795 9.904 C 22.712 9.489,22.647 9.322,22.505 9.166 C 22.141 8.766,21.217 8.873,20.893 9.354 C 20.756 9.557,20.743 9.769,20.837 10.309 C 20.882 10.575,20.920 10.839,20.920 10.896 L 20.920 11.000 19.421 11.000 L 17.922 11.000 17.897 10.890 C 17.699 10.016,17.425 9.336,17.040 8.755 L 16.890 8.529 17.957 7.463 L 19.023 6.397 19.107 6.489 C 19.153 6.539,19.284 6.715,19.400 6.880 C 19.777 7.419,20.006 7.600,20.311 7.600 C 20.832 7.600,21.440 7.079,21.440 6.632 C 21.440 6.332,21.244 5.978,20.647 5.200 C 20.312 4.764,19.240 3.693,18.800 3.354 C 17.980 2.724,17.578 2.518,17.276 2.574 C 16.846 2.655,16.400 3.219,16.400 3.683 C 16.400 3.767,16.417 3.880,16.438 3.935 C 16.497 4.091,16.752 4.352,17.019 4.530 C 17.151 4.619,17.338 4.755,17.434 4.832 L 17.608 4.972 16.539 6.041 L 15.471 7.110 15.266 6.974 C 14.725 6.617,13.895 6.269,13.300 6.149 L 13.020 6.093 13.010 4.587 L 12.999 3.080 13.113 3.080 C 13.175 3.080,13.423 3.116,13.663 3.159 C 14.170 3.252,14.245 3.255,14.459 3.195 C 14.809 3.098,15.080 2.639,15.080 2.141 C 15.080 1.841,15.035 1.702,14.887 1.546 C 14.676 1.322,14.359 1.225,13.420 1.096 C 12.997 1.038,11.591 0.991,11.260 1.024 M12.605 8.058 C 14.074 8.280,15.310 9.324,15.797 10.755 C 15.897 11.050,16.000 11.680,16.000 12.000 C 16.000 12.322,15.897 12.951,15.796 13.245 C 15.321 14.632,14.195 15.628,12.773 15.917 C 10.563 16.368,8.396 14.845,8.058 12.605 C 7.986 12.121,7.986 11.879,8.058 11.395 C 8.314 9.698,9.675 8.324,11.358 8.061 C 11.816 7.990,12.144 7.989,12.605 8.058 " stroke="none" fill-rule="evenodd" fill="black"></path></svg>