<svg version="1.1" xmlns="http://www.w3.org/2000/svg" width="32" height="32" viewBox="0 0 32 32"><path d="M12.696 6.938 C 11.875 7.037,11.373 7.221,11.011 7.552 L 10.800 7.746 11.156 7.866 C 11.788 8.079,12.161 8.395,12.399 8.915 C 12.617 9.393,12.690 9.858,12.757 11.198 C 12.853 13.133,12.721 14.627,12.388 15.375 C 11.988 16.272,11.226 16.264,10.372 15.353 C 9.341 14.254,7.795 11.631,6.693 9.115 C 6.447 8.554,6.206 8.051,6.158 7.998 C 5.921 7.736,5.891 7.733,3.123 7.733 C 0.670 7.733,0.518 7.739,0.328 7.836 C 0.125 7.940,0.000 8.127,0.000 8.329 C 0.000 8.493,0.611 9.840,1.502 11.637 C 4.067 16.815,6.520 20.451,8.720 22.337 C 10.549 23.903,12.752 24.888,14.946 25.119 C 15.665 25.195,17.513 25.188,17.779 25.108 C 18.066 25.022,18.370 24.705,18.443 24.414 C 18.475 24.289,18.515 23.923,18.533 23.600 C 18.608 22.226,18.968 21.323,19.597 20.935 C 19.808 20.804,19.916 20.774,20.156 20.775 C 20.757 20.780,21.223 21.156,22.673 22.807 C 23.950 24.261,24.487 24.700,25.350 24.997 L 25.787 25.147 28.347 25.147 C 30.733 25.147,30.925 25.140,31.173 25.045 C 31.711 24.841,32.000 24.547,32.000 24.204 C 32.000 23.965,31.686 23.320,31.343 22.856 C 30.728 22.022,29.624 20.815,27.974 19.173 C 26.888 18.094,26.697 17.801,26.701 17.227 C 26.705 16.598,26.901 16.270,28.751 13.803 C 30.909 10.925,31.746 9.547,31.957 8.525 C 32.034 8.150,31.970 7.974,31.705 7.840 C 31.463 7.717,25.359 7.690,25.126 7.810 C 24.898 7.928,24.793 8.103,24.481 8.880 C 23.242 11.964,21.057 15.369,19.981 15.889 C 19.493 16.126,19.047 15.943,18.762 15.388 C 18.461 14.805,18.440 14.462,18.513 11.262 C 18.580 8.254,18.563 7.912,18.327 7.562 C 18.150 7.299,17.911 7.166,17.371 7.033 C 16.912 6.920,16.756 6.911,14.987 6.901 C 13.945 6.894,12.915 6.911,12.696 6.938 " stroke="none" fill-rule="evenodd" fill="black"></path></svg>