<svg width="24" height="24" viewBox="0 0 24 24" fill="none" xmlns="http://www.w3.org/2000/svg"><path d="M12.594 2.774 C 12.218 2.913,12.014 3.096,10.079 5.025 L 8.099 7.000 6.759 7.001 C 5.807 7.002,5.331 7.019,5.113 7.058 C 4.354 7.193,3.749 7.776,3.555 8.560 C 3.474 8.883,3.474 15.117,3.555 15.440 C 3.750 16.230,4.395 16.840,5.160 16.959 C 5.303 16.981,6.023 17.000,6.759 17.000 L 8.098 17.000 10.099 18.996 C 12.426 21.317,12.351 21.258,13.000 21.259 C 13.336 21.260,13.409 21.246,13.632 21.144 C 13.948 20.997,14.241 20.688,14.358 20.377 C 14.404 20.254,14.459 19.988,14.480 19.787 C 14.532 19.294,14.532 4.706,14.480 4.213 C 14.407 3.522,14.160 3.123,13.648 2.871 C 13.425 2.761,13.331 2.738,13.061 2.730 C 12.865 2.724,12.683 2.741,12.594 2.774 M12.480 12.010 L 12.480 18.580 10.890 16.993 C 9.883 15.988,9.227 15.363,9.100 15.290 C 8.645 15.027,8.643 15.026,7.010 15.009 L 5.520 14.994 5.520 11.997 L 5.520 9.000 6.912 9.000 C 8.411 9.000,8.539 8.986,9.000 8.776 C 9.185 8.691,9.475 8.421,10.840 7.058 C 11.731 6.168,12.465 5.440,12.470 5.440 C 12.476 5.440,12.480 8.396,12.480 12.010 M17.900 7.056 C 17.628 7.184,17.364 7.422,17.275 7.618 C 17.128 7.942,17.193 8.238,17.515 8.712 C 17.745 9.052,18.052 9.682,18.194 10.106 C 18.413 10.764,18.459 11.093,18.459 12.000 C 18.459 12.907,18.413 13.236,18.194 13.894 C 18.052 14.318,17.745 14.948,17.515 15.288 C 17.193 15.762,17.128 16.058,17.275 16.382 C 17.424 16.709,17.934 17.039,18.292 17.040 C 18.640 17.040,18.864 16.869,19.231 16.318 C 20.421 14.531,20.794 12.157,20.234 9.940 C 20.004 9.030,19.370 7.745,18.905 7.246 C 18.628 6.950,18.267 6.881,17.900 7.056 " stroke="none" fill-rule="evenodd" fill="black"></path></svg>