<svg width="24" height="24" viewBox="0 0 24 24" fill="none" xmlns="http://www.w3.org/2000/svg"><path d="M10.060 2.792 C 9.950 2.830,9.770 2.922,9.660 2.997 C 9.550 3.071,8.587 4.001,7.520 5.063 L 5.580 6.995 4.100 7.009 C 2.683 7.023,2.609 7.027,2.365 7.114 C 1.862 7.292,1.434 7.659,1.222 8.093 C 1.005 8.536,1.001 8.595,1.001 12.000 C 1.001 15.417,1.004 15.460,1.227 15.919 C 1.366 16.205,1.795 16.634,2.081 16.773 C 2.492 16.973,2.735 16.999,4.220 16.999 L 5.580 17.000 7.400 18.824 C 8.401 19.827,9.350 20.753,9.508 20.881 C 9.991 21.270,10.462 21.374,10.974 21.205 C 11.528 21.023,11.854 20.623,11.959 20.000 C 11.990 19.816,12.000 17.427,11.991 11.840 C 11.981 4.423,11.976 3.927,11.910 3.734 C 11.646 2.961,10.805 2.533,10.060 2.792 M10.000 12.008 L 10.000 18.576 8.390 16.974 C 6.886 15.477,6.760 15.362,6.480 15.225 C 6.315 15.144,6.072 15.061,5.940 15.039 C 5.808 15.018,5.093 15.000,4.350 15.000 L 3.000 15.000 3.000 12.000 L 3.000 9.000 4.375 9.000 C 5.131 9.000,5.846 8.982,5.965 8.960 C 6.083 8.938,6.315 8.854,6.480 8.774 C 6.761 8.638,6.881 8.527,8.380 7.035 C 9.260 6.158,9.985 5.441,9.990 5.441 C 9.995 5.440,10.000 8.396,10.000 12.008 M18.042 7.570 C 17.858 7.631,17.617 7.878,17.556 8.067 C 17.522 8.171,17.502 8.662,17.490 9.608 L 17.474 10.995 16.044 11.008 L 14.614 11.020 14.417 11.142 C 14.291 11.219,14.184 11.328,14.120 11.442 C 14.032 11.598,14.020 11.667,14.021 12.000 C 14.023 12.514,14.125 12.716,14.480 12.905 C 14.608 12.974,14.744 12.981,16.047 12.992 L 17.474 13.005 17.490 14.392 C 17.509 15.931,17.519 15.999,17.762 16.242 C 18.099 16.579,18.901 16.579,19.238 16.242 C 19.481 15.999,19.491 15.931,19.510 14.392 L 19.526 13.005 20.953 12.992 C 22.323 12.980,22.386 12.977,22.540 12.894 C 22.874 12.715,22.978 12.504,22.979 12.000 C 22.980 11.668,22.967 11.598,22.880 11.442 C 22.816 11.328,22.709 11.219,22.583 11.142 L 22.386 11.020 20.953 11.008 L 19.520 10.995 19.520 9.768 C 19.519 8.391,19.490 8.095,19.329 7.864 C 19.162 7.623,18.967 7.541,18.540 7.532 C 18.342 7.528,18.118 7.545,18.042 7.570 " stroke="none" fill-rule="evenodd" fill="black"></path></svg>