<svg width="24" height="24" viewBox="0 0 24 24" fill="none" xmlns="http://www.w3.org/2000/svg"><path d="M10.060 2.792 C 9.950 2.830,9.770 2.922,9.660 2.997 C 9.550 3.071,8.587 4.001,7.520 5.063 L 5.580 6.995 4.100 7.009 C 2.683 7.023,2.609 7.027,2.365 7.114 C 1.862 7.292,1.434 7.659,1.222 8.093 C 1.005 8.536,1.001 8.595,1.001 12.000 C 1.001 15.417,1.004 15.460,1.227 15.919 C 1.366 16.205,1.795 16.634,2.081 16.773 C 2.492 16.973,2.735 16.999,4.220 16.999 L 5.580 17.000 7.400 18.824 C 8.401 19.827,9.350 20.753,9.508 20.881 C 9.991 21.270,10.462 21.374,10.974 21.205 C 11.528 21.023,11.854 20.623,11.959 20.000 C 11.990 19.816,12.000 17.427,11.991 11.840 C 11.981 4.423,11.976 3.927,11.910 3.734 C 11.646 2.961,10.805 2.533,10.060 2.792 M19.380 4.074 C 19.080 4.217,18.783 4.525,18.720 4.760 C 18.647 5.032,18.726 5.261,19.077 5.794 C 20.110 7.360,20.672 8.841,20.907 10.620 C 21.042 11.644,20.980 13.200,20.762 14.253 C 20.474 15.643,19.937 16.903,19.077 18.206 C 18.597 18.935,18.575 19.209,18.968 19.624 C 19.370 20.050,19.843 20.161,20.211 19.918 C 20.606 19.656,21.462 18.282,21.942 17.140 C 23.361 13.762,23.354 10.202,21.924 6.820 C 21.550 5.936,20.758 4.598,20.392 4.232 C 20.091 3.931,19.782 3.883,19.380 4.074 M10.000 12.008 L 10.000 18.576 8.390 16.974 C 6.886 15.477,6.760 15.362,6.480 15.225 C 6.315 15.144,6.072 15.061,5.940 15.039 C 5.808 15.018,5.093 15.000,4.350 15.000 L 3.000 15.000 3.000 12.000 L 3.000 9.000 4.375 9.000 C 5.131 9.000,5.846 8.982,5.965 8.960 C 6.083 8.938,6.315 8.854,6.480 8.774 C 6.761 8.638,6.881 8.527,8.380 7.035 C 9.260 6.158,9.985 5.441,9.990 5.441 C 9.995 5.440,10.000 8.396,10.000 12.008 M15.500 7.007 C 15.174 7.130,14.838 7.439,14.734 7.710 C 14.638 7.962,14.707 8.225,14.987 8.668 C 15.697 9.791,15.976 10.732,15.976 12.000 C 15.976 13.268,15.697 14.209,14.987 15.332 C 14.603 15.940,14.599 16.261,14.970 16.637 C 15.233 16.903,15.443 17.008,15.753 17.030 C 16.006 17.048,16.031 17.041,16.220 16.911 C 16.362 16.814,16.497 16.659,16.687 16.377 C 18.434 13.775,18.431 10.185,16.680 7.611 C 16.353 7.131,16.169 6.990,15.850 6.974 C 15.723 6.967,15.566 6.982,15.500 7.007 " stroke="none" fill-rule="evenodd" fill="black"></path></svg>