<svg width="24" height="24" viewBox="0 0 24 24" fill="none" xmlns="http://www.w3.org/2000/svg"><path d="M10.060 2.792 C 9.950 2.830,9.770 2.922,9.660 2.997 C 9.550 3.071,8.587 4.001,7.520 5.063 L 5.580 6.995 4.100 7.009 C 2.683 7.023,2.609 7.027,2.365 7.114 C 1.862 7.292,1.434 7.659,1.222 8.093 C 1.005 8.536,1.001 8.595,1.001 12.000 C 1.001 15.417,1.004 15.460,1.227 15.919 C 1.366 16.205,1.795 16.634,2.081 16.773 C 2.492 16.973,2.735 16.999,4.220 16.999 L 5.580 17.000 7.400 18.824 C 8.401 19.827,9.350 20.753,9.508 20.881 C 9.991 21.270,10.462 21.374,10.974 21.205 C 11.528 21.023,11.854 20.623,11.959 20.000 C 11.990 19.816,12.000 17.427,11.991 11.840 C 11.981 4.423,11.976 3.927,11.910 3.734 C 11.646 2.961,10.805 2.533,10.060 2.792 M10.000 12.008 L 10.000 18.576 8.390 16.974 C 6.886 15.477,6.760 15.362,6.480 15.225 C 6.315 15.144,6.072 15.061,5.940 15.039 C 5.808 15.018,5.093 15.000,4.350 15.000 L 3.000 15.000 3.000 12.000 L 3.000 9.000 4.375 9.000 C 5.131 9.000,5.846 8.982,5.965 8.960 C 6.083 8.938,6.315 8.854,6.480 8.774 C 6.761 8.638,6.881 8.527,8.380 7.035 C 9.260 6.158,9.985 5.441,9.990 5.441 C 9.995 5.440,10.000 8.396,10.000 12.008 M15.626 8.045 C 15.257 8.239,14.951 8.673,14.951 9.000 C 14.951 9.333,15.056 9.467,16.353 10.770 L 17.577 12.000 16.353 13.230 C 15.056 14.533,14.951 14.667,14.951 15.000 C 14.951 15.477,15.523 16.049,16.000 16.049 C 16.333 16.049,16.467 15.944,17.770 14.647 L 19.000 13.423 20.230 14.647 C 21.533 15.944,21.667 16.049,22.000 16.049 C 22.477 16.049,23.049 15.477,23.049 15.000 C 23.049 14.667,22.944 14.533,21.647 13.230 L 20.423 12.000 21.647 10.770 C 22.452 9.961,22.901 9.479,22.960 9.363 C 23.137 9.011,23.048 8.646,22.701 8.299 C 22.361 7.958,21.980 7.868,21.628 8.045 C 21.523 8.098,20.999 8.588,20.230 9.353 L 19.000 10.577 17.770 9.353 C 17.001 8.588,16.477 8.098,16.372 8.045 C 16.152 7.934,15.835 7.934,15.626 8.045 " stroke="none" fill-rule="evenodd" fill="black"></path></svg>