<svg version="1.1" xmlns="http://www.w3.org/2000/svg" width="37" height="32" viewBox="0 0 37 32"><path d="M0.058 0.139 C 0.088 0.215,2.417 5.508,5.232 11.901 C 8.222 18.691,10.398 23.556,10.464 23.600 C 10.526 23.641,10.612 23.653,10.656 23.626 C 10.699 23.599,11.513 21.748,12.465 19.512 C 13.928 16.074,14.186 15.424,14.138 15.293 C 14.107 15.209,12.546 11.733,10.669 7.570 L 7.257 0.000 3.630 0.000 L 0.003 0.000 0.058 0.139 M29.236 0.262 C 28.291 2.446,24.481 11.068,22.798 14.831 C 18.628 24.151,17.212 27.128,16.315 28.458 C 14.914 30.536,13.907 31.382,12.336 31.798 L 11.809 31.937 15.541 31.940 C 19.104 31.943,19.294 31.938,19.724 31.818 C 21.672 31.279,23.459 29.563,24.728 27.015 C 25.682 25.099,30.294 14.747,35.458 2.929 C 36.110 1.437,36.670 0.167,36.701 0.108 C 36.755 0.006,36.562 0.000,33.053 0.000 L 29.349 -0.000 29.236 0.262 " stroke="none" fill-rule="evenodd" fill="black"></path></svg>