<svg width="24" height="24" viewBox="0 0 24 24" fill="none" xmlns="http://www.w3.org/2000/svg"><path d="M9.152 1.043 C 8.457 1.117,7.874 1.400,7.374 1.908 C 6.923 2.365,6.741 2.762,6.342 4.160 L 6.153 4.820 5.910 4.960 C 5.777 5.037,5.540 5.228,5.384 5.385 C 4.930 5.840,4.698 6.291,4.571 6.963 C 4.506 7.311,4.500 7.700,4.500 12.000 C 4.500 16.300,4.506 16.689,4.571 17.037 C 4.698 17.709,4.930 18.160,5.384 18.615 C 5.540 18.772,5.777 18.963,5.910 19.040 L 6.153 19.180 6.342 19.840 C 6.740 21.236,6.923 21.635,7.371 22.089 C 7.669 22.392,7.914 22.566,8.263 22.724 C 8.839 22.985,8.759 22.980,12.000 22.980 C 15.241 22.980,15.161 22.985,15.737 22.724 C 16.086 22.566,16.331 22.392,16.629 22.089 C 17.077 21.635,17.260 21.236,17.658 19.840 L 17.847 19.180 18.090 19.040 C 18.223 18.963,18.460 18.772,18.616 18.615 C 19.070 18.160,19.302 17.709,19.429 17.037 C 19.494 16.689,19.500 16.300,19.500 12.000 C 19.500 7.700,19.494 7.311,19.429 6.963 C 19.302 6.291,19.070 5.840,18.616 5.385 C 18.460 5.228,18.223 5.037,18.090 4.960 L 17.847 4.820 17.658 4.160 C 17.259 2.762,17.077 2.365,16.626 1.908 C 16.109 1.383,15.556 1.121,14.796 1.041 C 14.349 0.994,9.600 0.996,9.152 1.043 M14.595 3.038 C 14.950 3.079,15.170 3.213,15.317 3.478 C 15.426 3.677,15.683 4.464,15.649 4.498 C 15.615 4.532,8.367 4.524,8.347 4.490 C 8.310 4.429,8.667 3.439,8.762 3.338 C 8.927 3.163,9.121 3.068,9.375 3.039 C 9.730 2.998,14.246 2.997,14.595 3.038 M17.022 6.661 C 17.143 6.736,17.264 6.857,17.339 6.978 L 17.460 7.174 17.472 11.777 C 17.479 14.309,17.473 16.493,17.459 16.630 C 17.427 16.943,17.257 17.217,17.009 17.353 C 16.742 17.500,16.216 17.517,12.000 17.517 C 7.784 17.517,7.258 17.500,6.991 17.353 C 6.743 17.217,6.573 16.943,6.541 16.630 C 6.527 16.493,6.521 14.310,6.528 11.780 L 6.540 7.180 6.652 6.989 C 6.778 6.774,7.011 6.601,7.232 6.558 C 7.313 6.541,9.505 6.531,12.103 6.534 L 16.826 6.540 17.022 6.661 M11.614 8.057 C 11.377 8.131,11.212 8.261,11.109 8.453 C 11.021 8.619,11.020 8.634,11.020 10.460 L 11.020 12.300 11.126 12.480 C 11.185 12.579,11.635 13.058,12.126 13.544 C 13.108 14.514,13.219 14.591,13.584 14.550 C 13.995 14.503,14.511 13.978,14.550 13.565 C 14.582 13.232,14.474 13.069,13.695 12.280 L 13.005 11.580 12.992 10.100 C 12.980 8.658,12.978 8.616,12.891 8.453 C 12.842 8.362,12.746 8.247,12.678 8.199 C 12.414 8.010,11.957 7.950,11.614 8.057 M15.543 19.930 C 15.343 20.565,15.237 20.734,14.940 20.894 C 14.781 20.980,14.770 20.980,12.000 20.980 L 9.220 20.980 9.055 20.892 C 8.877 20.796,8.697 20.606,8.631 20.442 C 8.608 20.386,8.530 20.155,8.458 19.930 L 8.327 19.520 12.000 19.520 L 15.673 19.520 15.543 19.930 " stroke="none" fill-rule="evenodd" fill="black"></path></svg>