<svg width="24" height="24" viewBox="0 0 24 24" fill="none" xmlns="http://www.w3.org/2000/svg"><path d="M9.301 1.043 C 8.486 1.132,7.753 1.543,7.270 2.180 C 6.873 2.704,6.792 2.961,6.380 5.003 L 6.051 6.634 5.799 6.947 C 4.641 8.382,4.000 10.183,4.000 12.000 C 4.000 13.817,4.641 15.618,5.799 17.053 L 6.051 17.366 6.380 18.997 C 6.561 19.893,6.750 20.752,6.800 20.904 C 7.178 22.051,8.062 22.791,9.255 22.957 C 9.676 23.015,14.324 23.015,14.745 22.957 C 15.938 22.791,16.822 22.051,17.200 20.904 C 17.250 20.752,17.439 19.893,17.620 18.997 L 17.949 17.366 18.201 17.053 C 19.359 15.618,20.000 13.817,20.000 12.000 C 20.000 10.183,19.359 8.382,18.201 6.947 L 17.949 6.634 17.620 5.003 C 17.439 4.107,17.250 3.248,17.200 3.096 C 16.933 2.286,16.436 1.703,15.700 1.337 C 15.070 1.024,15.117 1.028,12.200 1.017 C 10.781 1.012,9.476 1.024,9.301 1.043 M14.429 3.036 C 14.934 3.085,15.163 3.271,15.296 3.740 C 15.392 4.078,15.534 4.759,15.513 4.780 C 15.502 4.791,15.330 4.729,15.129 4.642 C 13.196 3.803,10.808 3.802,8.879 4.638 C 8.674 4.727,8.497 4.790,8.485 4.779 C 8.464 4.757,8.603 4.090,8.703 3.740 C 8.833 3.284,9.074 3.081,9.534 3.038 C 9.943 3.000,14.036 2.999,14.429 3.036 M12.564 6.039 C 14.921 6.269,16.913 7.837,17.671 10.060 C 18.168 11.517,18.068 13.251,17.410 14.580 C 16.550 16.316,15.056 17.478,13.160 17.885 C 12.554 18.015,11.446 18.015,10.840 17.885 C 8.941 17.478,7.451 16.319,6.590 14.580 C 5.932 13.251,5.832 11.517,6.329 10.060 C 6.618 9.212,7.080 8.470,7.731 7.805 C 9.008 6.503,10.757 5.864,12.564 6.039 M11.614 8.057 C 11.377 8.131,11.212 8.261,11.109 8.453 C 11.021 8.619,11.020 8.634,11.020 10.460 L 11.020 12.300 11.126 12.480 C 11.185 12.579,11.635 13.058,12.126 13.544 C 13.108 14.514,13.219 14.591,13.584 14.550 C 13.995 14.503,14.511 13.978,14.550 13.565 C 14.582 13.232,14.474 13.069,13.695 12.280 L 13.005 11.580 12.992 10.100 C 12.980 8.658,12.978 8.616,12.891 8.453 C 12.842 8.362,12.746 8.247,12.678 8.199 C 12.414 8.010,11.957 7.950,11.614 8.057 M8.912 19.376 C 10.854 20.209,13.176 20.202,15.135 19.358 C 15.333 19.272,15.505 19.211,15.516 19.222 C 15.553 19.260,15.273 20.379,15.186 20.538 C 15.060 20.769,14.828 20.916,14.518 20.961 C 14.376 20.982,13.243 20.998,12.000 20.998 C 10.757 20.998,9.624 20.982,9.482 20.961 C 9.172 20.916,8.939 20.769,8.814 20.538 C 8.732 20.387,8.555 19.732,8.496 19.361 C 8.473 19.220,8.478 19.191,8.524 19.211 C 8.555 19.224,8.729 19.298,8.912 19.376 " stroke="none" fill-rule="evenodd" fill="black"></path></svg>