<svg width="24" height="24" viewBox="0 0 24 24" fill="none" xmlns="http://www.w3.org/2000/svg"><path d="M8.915 4.043 C 8.351 4.103,7.803 4.282,7.307 4.569 C 7.157 4.656,6.761 4.933,6.427 5.185 C 6.093 5.436,5.712 5.696,5.580 5.761 C 4.965 6.066,4.045 6.076,3.433 5.784 C 3.316 5.727,3.103 5.590,2.960 5.479 C 2.464 5.093,2.276 4.986,2.055 4.968 C 1.764 4.944,1.589 5.016,1.337 5.261 C 0.941 5.647,0.846 6.084,1.078 6.450 C 1.271 6.754,2.211 7.453,2.682 7.643 C 3.901 8.132,5.242 8.117,6.385 7.600 C 6.680 7.467,6.961 7.281,7.690 6.734 C 8.543 6.095,8.736 6.021,9.540 6.024 C 10.324 6.027,10.500 6.100,11.400 6.801 C 11.675 7.015,12.028 7.272,12.185 7.373 C 13.508 8.227,15.572 8.203,16.885 7.318 C 17.025 7.223,17.387 6.961,17.690 6.734 C 18.543 6.095,18.736 6.021,19.540 6.024 C 20.286 6.026,20.519 6.115,21.230 6.668 C 21.411 6.809,21.625 6.951,21.706 6.985 C 22.048 7.128,22.433 7.015,22.725 6.687 C 23.068 6.301,23.139 5.892,22.922 5.550 C 22.729 5.245,21.954 4.664,21.385 4.398 C 20.254 3.869,18.659 3.886,17.555 4.438 C 17.197 4.617,16.955 4.779,16.300 5.278 C 16.036 5.479,15.712 5.697,15.580 5.762 C 14.964 6.066,14.044 6.076,13.433 5.784 C 13.316 5.727,13.103 5.591,12.960 5.480 C 12.046 4.772,11.822 4.616,11.460 4.439 C 10.708 4.071,9.874 3.941,8.915 4.043 M8.915 10.043 C 8.351 10.103,7.803 10.282,7.307 10.569 C 7.157 10.656,6.761 10.933,6.427 11.185 C 6.093 11.436,5.712 11.696,5.580 11.761 C 4.965 12.066,4.045 12.076,3.433 11.784 C 3.316 11.727,3.103 11.590,2.960 11.479 C 2.464 11.093,2.276 10.986,2.055 10.968 C 1.764 10.944,1.589 11.016,1.337 11.261 C 0.941 11.647,0.846 12.084,1.078 12.450 C 1.271 12.754,2.211 13.453,2.682 13.643 C 3.901 14.132,5.242 14.117,6.385 13.600 C 6.680 13.467,6.961 13.281,7.690 12.734 C 8.543 12.095,8.736 12.021,9.540 12.024 C 10.324 12.027,10.500 12.100,11.400 12.801 C 11.675 13.015,12.028 13.272,12.185 13.373 C 13.508 14.227,15.572 14.203,16.885 13.318 C 17.025 13.223,17.387 12.961,17.690 12.734 C 18.543 12.095,18.736 12.021,19.540 12.024 C 20.286 12.026,20.519 12.115,21.230 12.668 C 21.411 12.809,21.625 12.951,21.706 12.985 C 22.048 13.128,22.433 13.015,22.725 12.687 C 23.068 12.301,23.139 11.892,22.922 11.550 C 22.729 11.245,21.954 10.664,21.385 10.398 C 20.254 9.869,18.659 9.886,17.555 10.438 C 17.197 10.617,16.955 10.779,16.300 11.278 C 16.036 11.479,15.712 11.697,15.580 11.762 C 14.964 12.066,14.044 12.076,13.433 11.784 C 13.316 11.727,13.103 11.591,12.960 11.480 C 12.046 10.772,11.822 10.616,11.460 10.439 C 10.708 10.071,9.874 9.941,8.915 10.043 M8.915 16.043 C 8.351 16.103,7.803 16.282,7.307 16.569 C 7.157 16.656,6.761 16.933,6.427 17.185 C 6.093 17.436,5.712 17.696,5.580 17.761 C 4.965 18.066,4.045 18.076,3.433 17.784 C 3.316 17.727,3.103 17.590,2.960 17.479 C 2.464 17.093,2.276 16.986,2.055 16.968 C 1.764 16.944,1.589 17.016,1.337 17.261 C 0.941 17.647,0.846 18.084,1.078 18.450 C 1.271 18.754,2.211 19.453,2.682 19.643 C 3.901 20.132,5.242 20.117,6.385 19.600 C 6.680 19.467,6.961 19.281,7.690 18.734 C 8.543 18.095,8.736 18.021,9.540 18.024 C 10.324 18.027,10.500 18.100,11.400 18.801 C 11.675 19.015,12.028 19.272,12.185 19.373 C 13.508 20.227,15.572 20.203,16.885 19.318 C 17.025 19.223,17.387 18.961,17.690 18.734 C 18.543 18.095,18.736 18.021,19.540 18.024 C 20.286 18.026,20.519 18.115,21.230 18.668 C 21.411 18.809,21.625 18.951,21.706 18.985 C 22.048 19.128,22.433 19.015,22.725 18.687 C 23.068 18.301,23.139 17.892,22.922 17.550 C 22.729 17.245,21.954 16.664,21.385 16.398 C 20.254 15.869,18.659 15.886,17.555 16.438 C 17.197 16.617,16.955 16.779,16.300 17.278 C 16.036 17.479,15.712 17.697,15.580 17.762 C 14.964 18.066,14.044 18.076,13.433 17.784 C 13.316 17.727,13.103 17.591,12.960 17.480 C 12.046 16.772,11.822 16.616,11.460 16.439 C 10.708 16.071,9.874 15.941,8.915 16.043 " stroke="none" fill-rule="evenodd" fill="black"></path></svg>