<svg width="24" height="24" viewBox="0 0 24 24" fill="none" xmlns="http://www.w3.org/2000/svg"><path d="M11.120 1.041 C 9.894 1.168,8.888 1.457,7.780 2.001 C 6.150 2.800,4.779 4.070,3.824 5.666 C 3.180 6.743,2.726 8.082,2.559 9.400 C 2.497 9.887,2.497 11.064,2.558 11.580 C 2.714 12.883,3.174 14.248,3.824 15.334 C 4.787 16.943,6.168 18.218,7.820 19.021 C 8.759 19.477,9.627 19.750,10.640 19.907 C 11.283 20.006,12.717 20.006,13.360 19.907 C 17.666 19.239,20.930 15.876,21.442 11.580 C 21.503 11.066,21.503 9.934,21.442 9.420 C 21.190 7.307,20.235 5.320,18.760 3.838 C 17.960 3.033,17.189 2.476,16.220 2.001 C 15.261 1.530,14.367 1.249,13.360 1.101 C 12.824 1.023,11.610 0.990,11.120 1.041 M13.280 3.116 C 14.794 3.380,16.174 4.094,17.261 5.178 C 18.460 6.374,19.187 7.812,19.420 9.445 C 19.495 9.977,19.495 11.023,19.420 11.555 C 19.189 13.174,18.460 14.623,17.282 15.802 C 16.134 16.949,14.733 17.660,13.100 17.926 C 12.682 17.994,11.318 17.994,10.900 17.926 C 9.267 17.660,7.866 16.949,6.718 15.802 C 6.071 15.154,5.677 14.603,5.259 13.760 C 4.747 12.727,4.521 11.732,4.521 10.500 C 4.521 9.031,4.872 7.790,5.639 6.540 C 6.818 4.619,8.914 3.302,11.204 3.043 C 11.706 2.986,12.744 3.023,13.280 3.116 M11.266 6.381 C 9.563 6.703,8.260 7.971,7.897 9.660 C 7.804 10.090,7.804 10.910,7.897 11.340 C 8.235 12.913,9.376 14.113,10.949 14.550 C 11.302 14.648,11.405 14.659,12.000 14.659 C 12.598 14.659,12.698 14.648,13.060 14.548 C 14.608 14.120,15.772 12.892,16.102 11.340 C 16.194 10.911,16.194 10.089,16.102 9.660 C 15.763 8.068,14.566 6.831,12.980 6.435 C 12.548 6.327,11.695 6.300,11.266 6.381 M12.445 8.361 C 13.162 8.496,13.861 9.126,14.083 9.837 C 14.197 10.200,14.197 10.800,14.083 11.163 C 13.925 11.670,13.449 12.233,12.992 12.455 C 12.372 12.755,11.628 12.755,11.008 12.455 C 10.551 12.233,10.075 11.670,9.917 11.163 C 9.803 10.800,9.803 10.200,9.917 9.837 C 10.133 9.143,10.836 8.498,11.522 8.364 C 11.774 8.314,12.192 8.313,12.445 8.361 M7.614 21.057 C 7.377 21.131,7.212 21.261,7.109 21.453 C 7.035 21.592,7.020 21.684,7.020 22.000 C 7.020 22.331,7.033 22.403,7.120 22.558 C 7.230 22.755,7.414 22.898,7.635 22.959 C 7.833 23.014,16.167 23.014,16.365 22.959 C 16.586 22.898,16.770 22.755,16.880 22.558 C 16.967 22.402,16.980 22.332,16.979 22.000 C 16.978 21.567,16.898 21.355,16.678 21.199 C 16.393 20.996,16.487 21.000,11.984 21.003 C 8.651 21.005,7.746 21.016,7.614 21.057 " stroke="none" fill-rule="evenodd" fill="black"></path></svg>