<svg version="1.1" xmlns="http://www.w3.org/2000/svg" width="32" height="32" viewBox="0 0 32 32"><path d="M9.920 3.047 C 6.538 3.391,3.425 5.099,1.625 7.600 C 1.214 8.170,0.651 9.277,0.431 9.947 C 0.117 10.902,0.034 11.446,0.031 12.560 C 0.029 13.678,0.092 14.123,0.382 15.038 C 0.846 16.500,1.855 17.992,3.170 19.164 C 3.550 19.502,4.382 20.165,4.517 20.237 C 4.523 20.240,4.279 20.998,3.976 21.921 C 3.673 22.845,3.432 23.607,3.440 23.616 C 3.448 23.625,4.332 23.194,5.403 22.659 L 7.352 21.685 8.383 21.880 C 8.950 21.987,9.605 22.104,9.840 22.141 C 10.282 22.210,12.284 22.240,12.346 22.179 C 12.365 22.160,12.351 22.040,12.316 21.912 C 12.085 21.076,11.987 19.624,12.102 18.755 C 12.490 15.845,14.293 13.358,17.015 11.979 C 18.584 11.184,20.081 10.849,21.887 10.888 C 22.655 10.905,22.720 10.899,22.720 10.812 C 22.720 10.586,22.306 9.470,21.995 8.856 C 20.602 6.109,17.541 3.953,14.044 3.257 C 13.609 3.171,12.991 3.074,12.671 3.043 C 11.998 2.978,10.580 2.980,9.920 3.047 M8.137 7.865 C 8.727 8.041,9.033 8.495,9.036 9.200 C 9.037 9.574,9.018 9.662,8.880 9.913 C 8.693 10.254,8.499 10.411,8.117 10.536 C 7.381 10.775,6.408 10.395,6.069 9.736 C 5.929 9.465,5.921 8.950,6.053 8.690 C 6.402 7.999,7.340 7.627,8.137 7.865 M16.248 7.936 C 16.524 8.078,16.817 8.416,16.898 8.686 C 16.978 8.952,16.977 9.450,16.897 9.717 C 16.863 9.832,16.742 10.031,16.629 10.160 C 15.847 11.048,14.078 10.525,13.890 9.349 C 13.793 8.746,14.317 8.059,15.026 7.859 C 15.384 7.758,15.973 7.796,16.248 7.936 M21.547 11.501 C 20.013 11.645,18.749 11.982,17.566 12.563 C 14.678 13.981,12.900 16.508,12.765 19.387 C 12.679 21.220,13.300 22.986,14.561 24.495 C 16.329 26.612,19.239 27.893,22.276 27.893 C 23.114 27.893,23.762 27.807,24.878 27.546 C 25.317 27.444,25.713 27.360,25.758 27.361 C 25.803 27.361,26.512 27.730,27.333 28.181 C 28.155 28.633,28.834 28.983,28.842 28.961 C 28.851 28.939,28.677 28.325,28.455 27.598 C 28.234 26.871,28.053 26.259,28.053 26.237 C 28.053 26.216,28.227 26.059,28.440 25.888 C 30.636 24.121,31.890 22.011,31.986 19.920 C 32.177 15.765,28.286 11.992,23.326 11.522 C 22.785 11.470,21.976 11.461,21.547 11.501 M19.907 16.124 C 20.138 16.221,20.463 16.506,20.563 16.699 C 20.605 16.781,20.640 16.977,20.640 17.134 C 20.640 18.163,19.106 18.663,18.425 17.856 C 18.025 17.381,18.042 16.831,18.469 16.380 C 18.741 16.094,19.009 15.991,19.396 16.022 C 19.577 16.037,19.807 16.083,19.907 16.124 M26.252 16.198 C 26.668 16.424,26.844 16.678,26.868 17.082 C 26.885 17.369,26.869 17.442,26.747 17.627 C 26.383 18.178,25.570 18.424,25.033 18.146 C 24.139 17.681,24.173 16.536,25.093 16.097 C 25.392 15.955,25.883 15.997,26.252 16.198 " stroke="none" fill-rule="evenodd" fill="black"></path></svg>