<svg version="1.1" xmlns="http://www.w3.org/2000/svg" width="32" height="32" viewBox="0 0 32 32"><path d="M14.773 0.055 C 11.529 0.364,8.666 1.503,6.175 3.476 C 5.476 4.030,4.247 5.258,3.702 5.947 C 1.848 8.291,0.796 10.754,0.341 13.813 C 0.229 14.562,0.187 16.379,0.262 17.173 C 0.469 19.355,1.071 21.412,2.050 23.280 L 2.329 23.813 1.211 27.882 C 0.596 30.119,0.102 31.959,0.113 31.970 C 0.124 31.980,2.009 31.497,4.300 30.895 L 8.468 29.801 9.127 30.121 C 12.488 31.754,16.260 32.150,19.882 31.250 C 25.973 29.738,30.627 24.729,31.700 18.533 C 31.985 16.887,31.985 14.894,31.701 13.200 C 30.884 8.322,27.721 4.016,23.302 1.761 C 21.585 0.885,19.947 0.376,18.053 0.128 C 17.321 0.033,15.447 -0.009,14.773 0.055 M17.021 2.720 C 20.169 2.947,23.089 4.271,25.312 6.479 C 26.424 7.583,27.196 8.649,27.864 10.000 C 28.776 11.844,29.156 13.397,29.210 15.493 C 29.269 17.772,28.869 19.642,27.897 21.627 C 25.960 25.582,22.329 28.242,17.947 28.915 C 17.059 29.052,15.326 29.077,14.507 28.966 C 12.700 28.721,11.133 28.197,9.508 27.294 L 8.856 26.931 6.396 27.576 C 5.043 27.930,3.928 28.213,3.919 28.203 C 3.909 28.194,4.198 27.106,4.560 25.786 L 5.218 23.387 4.881 22.827 C 3.682 20.833,3.095 18.994,2.928 16.705 C 2.778 14.658,3.181 12.382,4.027 10.507 C 5.838 6.491,9.521 3.620,13.815 2.878 C 14.916 2.687,15.898 2.639,17.021 2.720 M10.133 8.583 C 9.823 8.678,9.546 8.867,9.253 9.183 C 7.874 10.672,7.640 12.565,8.577 14.658 C 9.189 16.027,10.635 17.947,12.221 19.496 C 14.148 21.379,16.021 22.466,18.753 23.285 C 19.373 23.471,20.600 23.524,21.222 23.393 C 21.988 23.230,23.075 22.584,23.513 22.030 C 23.852 21.600,24.107 20.754,24.107 20.056 C 24.107 19.568,24.056 19.530,22.267 18.675 C 20.561 17.860,20.447 17.813,20.157 17.813 C 19.927 17.813,19.911 17.828,19.263 18.640 C 18.365 19.765,18.265 19.861,18.002 19.861 C 17.813 19.861,16.774 19.402,16.159 19.047 C 15.460 18.643,14.791 18.141,14.201 17.579 C 13.547 16.954,13.106 16.419,12.529 15.553 C 12.004 14.765,11.985 14.634,12.337 14.251 C 12.993 13.537,13.440 12.857,13.440 12.572 C 13.440 12.444,12.025 9.020,11.903 8.853 C 11.718 8.600,11.496 8.533,10.853 8.538 C 10.531 8.540,10.207 8.561,10.133 8.583 " stroke="none" fill-rule="evenodd" fill="black"></path></svg>