<svg width="24" height="24" viewBox="0 0 24 24" fill="none" xmlns="http://www.w3.org/2000/svg"><path d="M2.626 2.045 C 2.257 2.239,1.951 2.673,1.951 3.000 C 1.951 3.322,2.069 3.478,3.088 4.505 L 4.046 5.469 3.573 5.738 C 2.254 6.487,0.465 7.874,0.242 8.318 C 0.058 8.687,0.122 8.988,0.462 9.356 C 0.946 9.878,1.339 9.891,1.900 9.404 C 3.036 8.420,4.058 7.712,5.105 7.187 L 5.547 6.966 6.681 8.101 C 7.306 8.726,7.808 9.244,7.798 9.253 C 7.788 9.261,7.690 9.301,7.580 9.340 C 7.181 9.484,6.089 10.040,5.628 10.336 C 4.687 10.938,3.889 11.604,3.755 11.899 C 3.603 12.234,3.718 12.646,4.056 12.974 C 4.284 13.195,4.481 13.289,4.718 13.289 C 4.968 13.289,5.133 13.199,5.663 12.771 C 6.702 11.932,7.865 11.306,9.058 10.942 L 9.413 10.833 10.727 12.147 C 11.449 12.869,12.040 13.470,12.040 13.484 C 12.040 13.497,11.820 13.519,11.550 13.532 C 10.335 13.592,9.220 13.963,8.158 14.661 C 7.462 15.120,7.199 15.428,7.201 15.783 C 7.203 16.095,7.498 16.555,7.812 16.736 C 8.197 16.957,8.405 16.913,9.047 16.477 C 10.070 15.781,10.888 15.520,12.038 15.520 C 12.836 15.520,13.517 15.678,14.203 16.022 C 14.961 16.402,15.059 16.489,17.840 19.261 C 19.670 21.084,20.514 21.899,20.637 21.960 C 20.990 22.137,21.354 22.048,21.701 21.701 C 22.048 21.355,22.137 20.990,21.961 20.637 C 21.897 20.510,20.254 18.836,16.171 14.740 C 13.036 11.594,10.450 8.999,10.425 8.974 C 9.558 8.098,3.630 2.221,3.560 2.168 C 3.264 1.942,2.910 1.895,2.626 2.045 M10.426 3.580 C 9.515 3.670,9.247 3.863,9.209 4.454 C 9.174 4.999,9.372 5.401,9.743 5.543 C 9.899 5.603,9.992 5.607,10.471 5.576 C 11.387 5.516,13.225 5.538,13.815 5.615 C 16.773 6.002,19.388 7.142,21.659 9.035 C 22.298 9.568,22.558 9.653,22.952 9.456 C 23.193 9.336,23.410 9.103,23.544 8.820 C 23.745 8.397,23.619 8.075,23.070 7.606 C 21.953 6.654,20.830 5.914,19.540 5.279 C 17.762 4.405,16.118 3.908,14.106 3.637 C 13.306 3.529,11.254 3.497,10.426 3.580 M15.037 9.001 C 14.699 9.058,14.472 9.309,14.338 9.777 C 14.216 10.204,14.320 10.561,14.630 10.771 C 14.712 10.827,14.996 10.949,15.260 11.041 C 16.321 11.412,17.253 11.910,18.110 12.567 C 18.698 13.017,18.843 13.095,19.100 13.095 C 19.354 13.095,19.570 12.984,19.795 12.740 C 20.103 12.407,20.201 12.032,20.067 11.710 C 19.984 11.512,19.759 11.298,19.181 10.868 C 18.194 10.135,17.119 9.569,15.920 9.152 C 15.529 9.016,15.241 8.967,15.037 9.001 M11.545 18.579 C 11.203 18.701,11.000 19.044,11.000 19.500 C 11.000 20.148,11.344 20.486,12.007 20.488 C 12.429 20.490,12.710 20.360,12.870 20.087 C 12.970 19.917,12.980 19.864,12.980 19.500 C 12.980 19.136,12.970 19.083,12.871 18.914 C 12.709 18.640,12.449 18.519,12.022 18.522 C 11.845 18.523,11.630 18.548,11.545 18.579 " stroke="none" fill-rule="evenodd" fill="black"></path></svg>