<svg width="24" height="24" viewBox="0 0 24 24" fill="none" xmlns="http://www.w3.org/2000/svg"><path d="M8.378 2.058 C 7.544 2.188,6.776 2.580,6.168 3.188 C 5.836 3.520,5.722 3.732,5.721 4.020 C 5.720 4.502,6.282 5.047,6.780 5.047 C 7.030 5.047,7.218 4.949,7.513 4.664 C 7.857 4.332,8.178 4.140,8.522 4.062 C 9.259 3.895,9.956 4.105,10.461 4.649 C 11.019 5.249,11.152 6.143,10.793 6.880 C 10.638 7.198,10.227 7.625,9.930 7.775 C 9.474 8.006,9.590 8.000,5.538 8.000 C 1.551 8.000,1.604 7.997,1.322 8.199 C 1.100 8.357,1.020 8.568,1.020 9.000 C 1.020 9.331,1.033 9.403,1.120 9.558 C 1.230 9.755,1.414 9.898,1.635 9.959 C 1.728 9.985,3.156 10.000,5.574 10.000 C 9.202 10.000,9.384 9.997,9.757 9.921 C 11.117 9.643,12.193 8.755,12.704 7.488 C 13.090 6.530,13.090 5.469,12.705 4.516 C 12.172 3.197,11.001 2.269,9.605 2.058 C 9.149 1.990,8.817 1.990,8.378 2.058 M18.160 4.596 C 17.367 4.772,16.687 5.152,16.129 5.733 C 15.703 6.177,15.607 6.566,15.833 6.922 C 16.062 7.281,16.467 7.557,16.765 7.559 C 16.990 7.560,17.177 7.461,17.491 7.172 C 18.032 6.674,18.390 6.520,19.000 6.520 C 19.795 6.520,20.436 6.917,20.786 7.624 C 21.324 8.712,20.768 10.017,19.600 10.410 C 19.343 10.497,19.304 10.498,15.960 10.519 C 12.285 10.542,12.510 10.526,12.249 10.774 C 11.919 11.086,11.919 11.909,12.249 12.229 C 12.543 12.513,12.360 12.499,15.760 12.512 C 18.970 12.525,19.507 12.506,20.040 12.358 C 21.789 11.872,22.997 10.296,22.997 8.500 C 22.997 6.729,21.819 5.171,20.092 4.656 C 19.606 4.511,18.673 4.482,18.160 4.596 M1.614 14.057 C 1.377 14.131,1.212 14.261,1.109 14.453 C 1.035 14.592,1.020 14.684,1.020 15.000 C 1.020 15.331,1.033 15.403,1.120 15.558 C 1.230 15.755,1.414 15.898,1.635 15.959 C 1.729 15.985,3.805 16.000,7.520 16.002 C 13.921 16.005,13.531 15.988,14.017 16.281 C 14.902 16.814,15.243 17.955,14.793 18.880 C 14.638 19.198,14.227 19.625,13.930 19.775 C 13.344 20.072,12.659 20.073,12.076 19.778 C 11.964 19.721,11.727 19.539,11.549 19.373 C 11.372 19.206,11.167 19.045,11.094 19.015 C 10.937 18.949,10.649 18.943,10.493 19.003 C 10.278 19.084,9.962 19.360,9.840 19.571 C 9.570 20.043,9.737 20.474,10.406 21.036 C 11.562 22.008,13.107 22.261,14.488 21.704 C 16.265 20.987,17.298 19.094,16.921 17.243 C 16.628 15.806,15.637 14.680,14.245 14.204 C 13.651 14.000,13.645 14.000,7.500 14.003 C 2.922 14.005,1.747 14.016,1.614 14.057 " stroke="none" fill-rule="evenodd" fill="black"></path></svg>