<svg width="24" height="24" viewBox="0 0 24 24" fill="none" xmlns="http://www.w3.org/2000/svg"><path d="M10.440 3.058 C 9.807 3.194,9.365 3.432,8.916 3.878 C 8.638 4.155,8.558 4.261,8.502 4.432 C 8.381 4.799,8.515 5.148,8.888 5.443 C 9.139 5.641,9.321 5.720,9.526 5.720 C 9.756 5.720,9.917 5.637,10.218 5.365 C 10.600 5.018,10.893 4.937,11.310 5.061 C 11.688 5.173,12.000 5.598,12.000 6.001 C 12.000 6.331,11.784 6.696,11.484 6.872 L 11.300 6.980 6.479 7.000 L 1.658 7.020 1.459 7.122 C 1.119 7.297,0.978 7.606,1.009 8.104 C 1.039 8.567,1.253 8.856,1.644 8.961 C 1.745 8.988,3.440 8.998,6.688 8.991 L 11.580 8.980 11.860 8.886 C 12.851 8.553,13.583 7.815,13.886 6.840 C 14.021 6.406,14.021 5.594,13.886 5.160 C 13.581 4.179,12.810 3.407,11.861 3.129 C 11.455 3.010,10.812 2.978,10.440 3.058 M18.378 5.058 C 17.544 5.188,16.776 5.580,16.168 6.188 C 15.836 6.520,15.722 6.732,15.721 7.020 C 15.720 7.502,16.282 8.047,16.780 8.047 C 17.030 8.047,17.218 7.949,17.513 7.664 C 17.857 7.332,18.178 7.140,18.522 7.062 C 19.259 6.895,19.956 7.105,20.461 7.649 C 21.019 8.249,21.152 9.143,20.793 9.880 C 20.638 10.198,20.227 10.625,19.930 10.775 C 19.457 11.014,20.061 11.000,10.538 11.000 C 1.162 11.000,1.615 10.990,1.322 11.199 C 1.100 11.357,1.020 11.568,1.020 12.000 C 1.020 12.331,1.033 12.403,1.120 12.558 C 1.230 12.755,1.414 12.898,1.635 12.959 C 1.730 12.986,4.806 13.000,10.574 13.000 C 19.190 13.000,19.375 12.998,19.757 12.921 C 21.117 12.643,22.193 11.755,22.704 10.488 C 23.090 9.530,23.090 8.469,22.705 7.516 C 22.172 6.197,21.001 5.269,19.605 5.058 C 19.149 4.990,18.817 4.990,18.378 5.058 M1.614 15.057 C 1.377 15.132,1.212 15.261,1.109 15.453 C 1.035 15.592,1.020 15.684,1.020 16.000 C 1.020 16.331,1.033 16.403,1.120 16.558 C 1.230 16.755,1.414 16.898,1.635 16.959 C 1.729 16.985,3.938 17.000,7.943 17.000 C 14.881 17.000,14.371 16.977,14.697 17.303 C 14.970 17.577,15.057 17.919,14.945 18.290 C 14.829 18.674,14.502 18.947,14.107 18.988 C 13.784 19.021,13.535 18.923,13.220 18.637 C 12.814 18.269,12.528 18.194,12.188 18.365 C 11.799 18.561,11.518 18.886,11.459 19.208 C 11.372 19.682,12.049 20.441,12.852 20.768 C 13.887 21.189,15.083 21.013,15.891 20.321 C 16.391 19.893,16.702 19.430,16.886 18.840 C 17.021 18.406,17.021 17.594,16.886 17.160 C 16.582 16.183,15.832 15.428,14.861 15.121 L 14.540 15.020 8.160 15.012 C 2.990 15.006,1.748 15.014,1.614 15.057 " stroke="none" fill-rule="evenodd" fill="black"></path></svg>