<svg width="24" height="24" viewBox="0 0 24 24" fill="none" xmlns="http://www.w3.org/2000/svg"><path d="M16.060 4.040 C 14.833 4.133,13.991 4.328,11.660 5.059 C 9.748 5.659,9.066 5.829,8.136 5.939 C 6.709 6.107,5.734 5.953,3.876 5.266 C 3.079 4.972,2.918 4.936,2.675 5.001 C 2.237 5.119,1.850 5.884,1.999 6.336 C 2.113 6.681,2.316 6.817,3.223 7.155 C 6.312 8.306,8.062 8.290,11.900 7.079 C 14.458 6.272,15.060 6.127,16.247 6.037 C 16.682 6.003,16.973 6.003,17.367 6.037 C 18.253 6.111,18.775 6.243,20.094 6.726 C 20.509 6.878,20.927 7.013,21.024 7.027 C 21.516 7.094,21.962 6.611,22.026 5.940 C 22.051 5.685,21.929 5.433,21.697 5.258 C 21.389 5.026,19.547 4.380,18.700 4.206 C 17.891 4.040,16.884 3.977,16.060 4.040 M16.060 10.040 C 14.833 10.133,13.991 10.328,11.660 11.059 C 9.748 11.659,9.066 11.829,8.136 11.939 C 6.709 12.107,5.731 11.952,3.864 11.262 C 3.079 10.972,2.917 10.936,2.675 11.001 C 2.237 11.119,1.850 11.884,1.999 12.336 C 2.113 12.681,2.316 12.817,3.223 13.155 C 6.312 14.306,8.062 14.290,11.900 13.079 C 14.458 12.272,15.060 12.127,16.247 12.037 C 16.682 12.003,16.973 12.003,17.367 12.037 C 18.253 12.111,18.775 12.243,20.094 12.726 C 20.509 12.878,20.927 13.013,21.024 13.027 C 21.516 13.094,21.962 12.611,22.026 11.940 C 22.051 11.685,21.929 11.433,21.697 11.258 C 21.389 11.026,19.547 10.380,18.700 10.206 C 17.891 10.040,16.884 9.977,16.060 10.040 M16.060 16.040 C 14.833 16.133,13.991 16.328,11.660 17.059 C 9.748 17.659,9.066 17.829,8.136 17.939 C 6.709 18.107,5.734 17.953,3.876 17.266 C 3.079 16.972,2.918 16.936,2.675 17.001 C 2.237 17.119,1.850 17.884,1.999 18.336 C 2.113 18.681,2.316 18.817,3.223 19.155 C 6.312 20.306,8.062 20.290,11.900 19.079 C 14.458 18.272,15.060 18.127,16.247 18.037 C 16.682 18.003,16.973 18.003,17.367 18.037 C 18.253 18.111,18.775 18.243,20.094 18.726 C 20.509 18.878,20.927 19.013,21.024 19.027 C 21.516 19.094,21.962 18.611,22.026 17.940 C 22.051 17.685,21.929 17.433,21.697 17.258 C 21.389 17.026,19.547 16.380,18.700 16.206 C 17.891 16.040,16.884 15.977,16.060 16.040 " stroke="none" fill-rule="evenodd" fill="black"></path></svg>