<svg version="1.1" xmlns="http://www.w3.org/2000/svg" width="32" height="32" viewBox="0 0 32 32"><path d="M12.590 2.353 C 12.056 2.415,11.572 2.642,11.394 2.915 C 11.321 3.028,11.217 3.264,11.164 3.440 C 11.072 3.743,11.067 4.162,11.067 11.387 L 11.067 19.013 14.453 19.078 C 16.316 19.113,19.916 19.191,22.453 19.251 C 24.991 19.311,27.175 19.360,27.307 19.360 L 27.547 19.360 27.564 13.240 C 27.582 6.785,27.534 4.340,27.380 3.910 C 27.231 3.494,26.756 3.112,26.231 2.988 C 26.104 2.958,24.908 2.885,23.573 2.828 C 20.750 2.705,19.660 2.647,17.467 2.506 C 14.019 2.282,13.374 2.262,12.590 2.353 M9.449 3.547 C 8.566 4.011,8.108 4.322,7.609 4.801 C 7.252 5.142,7.184 5.237,7.144 5.441 C 7.119 5.572,7.097 6.263,7.096 6.976 L 7.093 8.271 7.334 8.682 C 7.879 9.612,8.118 10.560,8.122 11.813 C 8.124 12.253,8.096 12.805,8.059 13.040 C 7.908 14.022,7.582 14.928,7.230 15.346 L 7.093 15.509 7.093 17.566 L 7.093 19.624 7.214 19.578 C 7.449 19.489,8.195 19.360,8.880 19.290 C 9.261 19.251,9.645 19.185,9.732 19.143 C 9.951 19.037,10.112 18.722,10.180 18.265 C 10.241 17.857,10.200 3.199,10.138 3.201 C 10.121 3.202,9.811 3.357,9.449 3.547 M24.410 8.409 C 24.767 8.576,25.169 9.014,25.300 9.380 C 25.378 9.598,25.394 9.760,25.376 10.123 C 25.338 10.882,25.060 11.326,24.411 11.666 C 24.172 11.792,24.071 11.812,23.680 11.812 C 23.294 11.812,23.182 11.790,22.927 11.665 C 22.555 11.484,22.170 11.080,21.988 10.681 C 21.881 10.449,21.849 10.292,21.848 10.003 C 21.845 9.448,21.971 9.128,22.319 8.810 C 22.953 8.231,23.716 8.085,24.410 8.409 M16.898 8.454 C 17.242 8.641,17.465 8.886,17.646 9.278 C 17.758 9.518,17.784 9.653,17.783 10.000 C 17.783 10.556,17.603 10.974,17.204 11.352 C 16.771 11.761,16.641 11.813,16.053 11.813 C 15.608 11.813,15.514 11.796,15.278 11.671 C 14.938 11.492,14.588 11.115,14.419 10.745 C 14.264 10.407,14.201 9.830,14.286 9.519 C 14.367 9.221,14.618 8.842,14.855 8.662 C 15.402 8.245,16.338 8.149,16.898 8.454 M6.306 9.464 C 5.902 9.804,5.640 10.847,5.635 12.133 C 5.628 13.787,5.999 14.668,6.674 14.604 C 6.829 14.589,6.873 14.549,6.999 14.315 C 7.453 13.467,7.646 11.606,7.386 10.587 C 7.216 9.920,6.822 9.333,6.546 9.333 C 6.499 9.333,6.391 9.392,6.306 9.464 M5.894 20.349 C 5.420 20.529,5.174 20.952,5.067 21.768 C 5.029 22.066,5.014 23.628,5.025 26.480 L 5.040 30.747 18.469 30.747 L 31.898 30.747 31.916 26.300 C 31.935 21.512,31.934 21.481,31.660 21.068 C 31.387 20.654,31.526 20.676,28.717 20.605 C 23.508 20.474,16.824 20.369,9.093 20.296 C 6.513 20.272,6.078 20.280,5.894 20.349 M2.827 20.884 C 1.450 21.080,0.598 21.619,0.261 22.507 C 0.007 23.176,0.002 23.274,0.001 27.120 L 0.000 30.747 2.082 30.746 L 4.163 30.745 4.161 26.133 L 4.158 21.520 4.039 21.280 C 3.911 21.023,3.628 20.796,3.445 20.806 C 3.384 20.809,3.105 20.844,2.827 20.884 " stroke="none" fill-rule="evenodd" fill="black"></path></svg>