<svg width="24" height="24" viewBox="0 0 24 24" fill="none" xmlns="http://www.w3.org/2000/svg"><path d="M5.626 5.045 C 5.420 5.154,5.146 5.433,5.038 5.644 C 4.924 5.867,4.924 6.132,5.039 6.363 C 5.102 6.487,5.942 7.356,7.853 9.270 L 10.579 12.000 7.853 14.730 C 5.942 16.644,5.102 17.513,5.039 17.637 C 4.863 17.990,4.952 18.354,5.299 18.701 C 5.646 19.048,6.010 19.137,6.363 18.961 C 6.487 18.898,7.356 18.058,9.270 16.147 L 12.000 13.421 14.730 16.147 C 16.644 18.058,17.513 18.898,17.637 18.961 C 17.990 19.137,18.354 19.048,18.701 18.701 C 19.048 18.354,19.137 17.990,18.961 17.637 C 18.898 17.513,18.058 16.644,16.147 14.730 L 13.421 12.000 16.147 9.270 C 18.058 7.356,18.898 6.487,18.961 6.363 C 19.137 6.010,19.048 5.646,18.701 5.299 C 18.361 4.959,17.980 4.868,17.628 5.044 C 17.516 5.100,16.558 6.029,14.730 7.853 L 12.000 10.579 9.270 7.853 C 7.442 6.029,6.484 5.100,6.372 5.044 C 6.152 4.934,5.835 4.935,5.626 5.045 " stroke="none" fill-rule="evenodd" fill="black"></path></svg>