<svg width="24" height="24" viewBox="0 0 24 24" fill="none" xmlns="http://www.w3.org/2000/svg"><path d="M6.626 6.045 C 6.420 6.154,6.146 6.433,6.038 6.644 C 5.924 6.868,5.924 7.132,6.040 7.363 C 6.101 7.486,6.811 8.224,8.353 9.770 L 10.578 12.000 8.353 14.230 C 6.811 15.776,6.101 16.514,6.040 16.637 C 5.863 16.990,5.952 17.354,6.299 17.701 C 6.646 18.048,7.010 18.137,7.363 17.960 C 7.486 17.899,8.224 17.189,9.770 15.647 L 12.000 13.422 14.230 15.647 C 15.776 17.189,16.514 17.899,16.637 17.960 C 16.990 18.137,17.354 18.048,17.701 17.701 C 18.048 17.354,18.137 16.990,17.960 16.637 C 17.899 16.514,17.189 15.776,15.647 14.230 L 13.422 12.000 15.647 9.770 C 17.189 8.224,17.899 7.486,17.960 7.363 C 18.137 7.010,18.048 6.646,17.701 6.299 C 17.361 5.959,16.980 5.868,16.628 6.044 C 16.517 6.100,15.705 6.881,14.230 8.353 L 12.000 10.578 9.770 8.353 C 8.295 6.881,7.483 6.100,7.372 6.044 C 7.152 5.934,6.835 5.935,6.626 6.045 " stroke="none" fill-rule="evenodd" fill="black"></path></svg>