<svg width="24" height="24" viewBox="0 0 24 24" fill="none" xmlns="http://www.w3.org/2000/svg"><path d="M11.280 1.023 C 11.203 1.032,10.951 1.059,10.720 1.083 C 9.527 1.210,8.337 1.558,7.180 2.120 C 6.045 2.671,5.193 3.285,4.238 4.239 C 3.277 5.198,2.643 6.080,2.097 7.220 C 0.301 10.968,0.728 15.286,3.226 18.633 C 3.701 19.269,4.753 20.316,5.400 20.797 C 9.364 23.745,14.666 23.734,18.637 20.770 C 19.246 20.316,20.316 19.246,20.770 18.637 C 23.744 14.652,23.744 9.348,20.770 5.363 C 20.316 4.755,19.247 3.686,18.640 3.235 C 17.045 2.049,15.365 1.360,13.423 1.096 C 13.000 1.038,11.574 0.990,11.280 1.023 M13.320 3.101 C 15.883 3.488,18.124 4.931,19.560 7.120 C 19.863 7.583,20.303 8.479,20.492 9.020 C 20.838 10.013,20.977 10.865,20.977 12.000 C 20.977 13.493,20.720 14.621,20.080 15.940 C 19.375 17.394,18.311 18.607,16.927 19.532 C 16.138 20.060,14.876 20.588,13.908 20.797 C 11.266 21.366,8.479 20.708,6.370 19.019 C 4.857 17.807,3.722 16.029,3.267 14.160 C 3.081 13.397,3.023 12.888,3.023 12.000 C 3.023 10.507,3.280 9.379,3.920 8.060 C 4.971 5.891,6.877 4.221,9.160 3.466 C 9.865 3.233,10.432 3.118,11.340 3.024 C 11.662 2.991,12.911 3.039,13.320 3.101 M11.580 4.596 C 11.492 4.637,11.363 4.731,11.293 4.805 C 11.072 5.041,6.225 12.129,6.100 12.400 C 5.993 12.631,5.980 12.702,5.980 13.040 C 5.980 13.374,5.993 13.447,6.090 13.645 C 6.224 13.918,6.529 14.212,6.812 14.341 C 7.131 14.488,7.584 14.519,9.370 14.520 L 11.000 14.520 11.000 16.613 C 11.000 18.936,11.005 18.993,11.249 19.229 C 11.433 19.407,11.644 19.484,11.958 19.487 C 12.278 19.490,12.518 19.396,12.706 19.195 C 12.928 18.957,17.757 11.894,17.891 11.612 C 18.008 11.365,18.020 11.305,18.020 10.960 C 18.020 10.655,18.003 10.543,17.934 10.393 C 17.825 10.158,17.558 9.865,17.328 9.731 C 16.992 9.534,16.844 9.521,14.850 9.521 L 13.000 9.520 13.000 7.407 C 13.000 5.013,12.998 4.996,12.723 4.747 C 12.636 4.669,12.497 4.586,12.413 4.563 C 12.170 4.495,11.762 4.512,11.580 4.596 M11.085 11.000 C 11.168 11.178,11.336 11.336,11.540 11.428 C 11.685 11.493,11.875 11.501,13.632 11.513 C 14.695 11.520,15.559 11.539,15.552 11.555 C 15.546 11.572,14.973 12.409,14.280 13.417 L 13.020 15.248 13.000 14.194 C 12.978 13.021,12.965 12.958,12.707 12.732 C 12.627 12.662,12.494 12.585,12.411 12.562 C 12.315 12.536,11.558 12.520,10.347 12.520 C 8.795 12.520,8.437 12.510,8.447 12.468 C 8.454 12.439,9.027 11.590,9.720 10.581 L 10.980 8.747 11.000 9.803 C 11.016 10.664,11.032 10.886,11.085 11.000 " stroke="none" fill-rule="evenodd" fill="black"></path></svg>