<svg width="24" height="24" viewBox="0 0 24 24" fill="none" xmlns="http://www.w3.org/2000/svg"><path d="M16.675 2.053 C 16.596 2.082,16.474 2.147,16.404 2.197 C 16.221 2.328,9.303 12.022,9.134 12.385 C 8.964 12.753,8.931 13.024,9.017 13.361 C 9.146 13.867,9.493 14.236,10.000 14.408 C 10.253 14.493,10.317 14.496,12.550 14.511 C 13.864 14.520,14.840 14.542,14.840 14.562 C 14.840 14.582,14.650 16.025,14.417 17.769 C 14.114 20.038,13.999 21.011,14.012 21.191 C 14.038 21.534,14.171 21.733,14.465 21.868 C 14.876 22.056,15.295 22.033,15.594 21.806 C 15.790 21.657,22.698 11.975,22.866 11.615 C 23.036 11.247,23.069 10.976,22.983 10.640 C 22.898 10.307,22.718 10.030,22.464 9.842 C 22.035 9.525,22.185 9.541,19.530 9.529 C 17.306 9.518,17.160 9.513,17.160 9.447 C 17.160 9.409,17.350 7.956,17.583 6.219 C 18.045 2.770,18.051 2.682,17.862 2.395 C 17.666 2.099,17.036 1.917,16.675 2.053 M3.545 5.579 C 3.095 5.739,2.884 6.316,3.060 6.908 C 3.130 7.143,3.341 7.359,3.585 7.445 C 3.814 7.526,9.186 7.526,9.415 7.445 C 9.786 7.314,10.000 6.968,10.000 6.500 C 10.000 6.029,9.770 5.662,9.413 5.563 C 9.312 5.535,8.322 5.521,6.480 5.522 C 4.219 5.523,3.671 5.534,3.545 5.579 M15.236 8.640 C 15.108 9.597,15.002 10.453,15.001 10.543 C 14.998 10.947,15.196 11.273,15.540 11.428 C 15.687 11.494,15.901 11.502,18.113 11.520 L 20.525 11.540 18.534 14.328 C 17.439 15.862,16.540 17.113,16.536 17.108 C 16.532 17.104,16.635 16.317,16.763 15.360 C 16.892 14.403,16.998 13.547,16.999 13.457 C 17.002 13.032,16.757 12.659,16.413 12.563 C 16.313 12.535,15.430 12.520,13.866 12.520 C 11.744 12.520,11.474 12.513,11.495 12.459 C 11.519 12.396,15.452 6.877,15.463 6.892 C 15.466 6.896,15.364 7.683,15.236 8.640 M1.614 11.057 C 1.377 11.131,1.212 11.261,1.109 11.453 C 1.035 11.592,1.020 11.684,1.020 12.000 C 1.020 12.331,1.033 12.403,1.120 12.558 C 1.230 12.755,1.414 12.898,1.635 12.959 C 1.725 12.984,2.716 13.000,4.243 13.000 C 6.972 13.000,6.990 12.999,7.229 12.751 C 7.418 12.556,7.486 12.355,7.486 11.997 C 7.486 11.491,7.303 11.196,6.909 11.064 C 6.741 11.008,6.408 11.000,4.249 11.003 C 2.340 11.005,1.742 11.017,1.614 11.057 M3.042 16.572 C 2.846 16.635,2.613 16.882,2.557 17.088 C 2.498 17.308,2.498 17.692,2.557 17.912 C 2.618 18.134,2.861 18.379,3.088 18.448 C 3.347 18.526,9.193 18.524,9.415 18.445 C 9.786 18.314,10.000 17.968,10.000 17.500 C 10.000 17.029,9.770 16.662,9.413 16.563 C 9.197 16.503,3.232 16.512,3.042 16.572 " stroke="none" fill-rule="evenodd" fill="black"></path></svg>