<svg width="24" height="24" viewBox="0 0 24 24" fill="none" xmlns="http://www.w3.org/2000/svg"><path d="M5.920 2.041 C 5.151 2.092,4.672 2.205,4.180 2.451 C 3.089 2.996,2.357 3.961,2.124 5.160 C 2.013 5.729,2.000 6.455,2.000 12.000 C 2.000 18.358,2.006 18.526,2.245 19.320 C 2.577 20.422,3.578 21.423,4.680 21.755 C 5.474 21.994,5.642 22.000,12.000 22.000 C 18.358 22.000,18.526 21.994,19.320 21.755 C 20.422 21.423,21.423 20.422,21.755 19.320 C 21.994 18.526,22.000 18.358,22.000 12.000 C 22.000 5.642,21.994 5.474,21.755 4.680 C 21.424 3.581,20.465 2.622,19.320 2.246 C 18.644 2.024,18.800 2.029,12.340 2.019 C 9.062 2.014,6.173 2.024,5.920 2.041 M18.492 4.091 C 18.894 4.188,19.109 4.309,19.400 4.600 C 19.696 4.895,19.814 5.109,19.912 5.528 C 19.975 5.797,19.980 6.313,19.980 12.000 C 19.980 17.687,19.975 18.203,19.912 18.472 C 19.814 18.891,19.696 19.104,19.400 19.401 C 19.101 19.701,18.820 19.851,18.418 19.928 C 18.010 20.005,5.990 20.005,5.582 19.927 C 5.170 19.850,4.898 19.704,4.600 19.403 C 4.303 19.104,4.186 18.890,4.088 18.472 C 4.025 18.203,4.020 17.687,4.020 12.000 C 4.020 6.313,4.025 5.797,4.088 5.528 C 4.175 5.155,4.294 4.918,4.520 4.667 C 4.883 4.262,5.282 4.091,5.980 4.039 C 6.200 4.023,9.044 4.013,12.300 4.018 C 17.643 4.024,18.247 4.032,18.492 4.091 M11.694 5.057 C 11.602 5.086,11.473 5.148,11.406 5.195 C 11.289 5.279,6.466 11.817,6.244 12.194 C 5.977 12.646,5.926 13.194,6.111 13.610 C 6.234 13.887,6.557 14.210,6.836 14.335 C 7.177 14.488,7.603 14.519,9.410 14.519 L 11.000 14.520 11.000 16.370 C 11.000 17.486,11.016 18.277,11.041 18.365 C 11.143 18.735,11.433 18.956,11.858 18.990 C 12.169 19.015,12.453 18.929,12.653 18.748 C 12.799 18.616,17.557 12.145,17.756 11.807 C 18.022 11.355,18.074 10.806,17.890 10.393 C 17.787 10.160,17.520 9.867,17.288 9.731 C 16.952 9.534,16.803 9.521,14.832 9.521 L 13.004 9.520 12.992 7.570 C 12.980 5.641,12.979 5.618,12.891 5.453 C 12.692 5.082,12.169 4.909,11.694 5.057 M11.086 11.000 C 11.168 11.178,11.335 11.336,11.540 11.428 C 11.685 11.493,11.875 11.501,13.592 11.513 C 14.633 11.520,15.479 11.540,15.472 11.558 C 15.466 11.576,14.911 12.339,14.240 13.254 L 13.020 14.918 12.999 14.029 C 12.976 13.084,12.958 12.987,12.767 12.786 C 12.527 12.533,12.608 12.542,10.448 12.520 L 8.475 12.500 9.728 10.791 L 10.980 9.082 11.001 9.971 C 11.017 10.672,11.035 10.890,11.086 11.000 " stroke="none" fill-rule="evenodd" fill="black"></path></svg>