<svg version="1.1" xmlns="http://www.w3.org/2000/svg" width="32" height="32" viewBox="0 0 32 32"><path d="M4.080 0.059 C 2.932 0.226,1.785 0.884,1.065 1.789 C 0.710 2.235,0.360 2.907,0.177 3.493 L 0.027 3.973 0.027 16.000 L 0.027 28.027 0.176 28.504 C 0.692 30.150,1.850 31.308,3.496 31.824 L 3.973 31.973 16.000 31.973 L 28.027 31.973 28.504 31.824 C 30.150 31.308,31.308 30.150,31.824 28.504 L 31.973 28.027 31.973 16.000 L 31.973 3.973 31.823 3.493 C 31.300 1.816,30.079 0.623,28.400 0.148 L 27.973 0.027 16.187 0.019 C 9.697 0.015,4.256 0.033,4.080 0.059 M27.200 24.000 L 27.200 27.200 16.000 27.200 L 4.800 27.200 4.800 24.000 L 4.800 20.800 16.000 20.800 L 27.200 20.800 27.200 24.000 " fill="#474747" stroke="none" fill-rule="evenodd"></path></svg>