<svg version="1.1" xmlns="http://www.w3.org/2000/svg" width="42" height="32" viewBox="0 0 42 32"><path d="M2.731 2.168 C 2.633 2.351,2.759 3.701,2.941 4.413 C 4.183 9.277,9.269 12.054,14.000 10.452 C 16.835 9.491,19.019 7.005,19.630 4.041 C 19.795 3.240,19.852 2.270,19.742 2.137 C 19.663 2.042,18.706 2.030,11.229 2.030 C 2.914 2.030,2.804 2.032,2.731 2.168 M21.980 2.099 C 21.888 2.157,21.873 3.365,21.857 12.160 C 21.843 19.337,21.860 22.208,21.915 22.342 C 21.999 22.544,22.133 22.627,22.283 22.570 C 22.431 22.513,38.953 2.523,38.978 2.370 C 39.037 2.013,39.463 2.030,30.459 2.031 C 25.304 2.032,22.045 2.058,21.980 2.099 M18.498 10.168 C 17.275 11.639,2.791 29.140,2.709 29.245 C 2.662 29.305,2.665 29.391,2.718 29.507 L 2.797 29.680 11.219 29.680 C 17.677 29.680,19.662 29.660,19.726 29.596 C 19.838 29.484,19.849 9.514,19.738 9.305 C 19.697 9.229,19.592 9.170,19.496 9.170 C 19.364 9.170,19.145 9.388,18.498 10.168 M28.878 20.973 C 25.482 21.586,22.747 24.285,22.054 27.705 C 21.911 28.412,21.846 29.450,21.936 29.596 C 21.976 29.661,23.928 29.680,30.411 29.680 C 37.890 29.680,38.843 29.668,38.922 29.573 C 39.130 29.322,38.834 27.373,38.427 26.320 C 37.526 23.987,35.650 22.178,33.215 21.294 C 32.072 20.878,30.179 20.738,28.878 20.973 " stroke="none" fill-rule="evenodd"></path></svg>