<svg width="24" height="24" viewBox="0 0 24 24" fill="none" xmlns="http://www.w3.org/2000/svg"><path d="M10.340 2.024 C 9.026 2.160,8.091 2.415,7.060 2.918 C 5.244 3.804,3.840 5.202,2.939 7.020 C 1.688 9.542,1.688 12.458,2.939 14.980 C 3.404 15.918,3.897 16.609,4.621 17.337 C 7.349 20.077,11.484 20.777,14.940 19.083 C 15.468 18.825,16.037 18.479,16.438 18.173 L 16.615 18.037 18.538 19.954 C 19.857 21.270,20.516 21.899,20.637 21.960 C 20.989 22.137,21.354 22.048,21.701 21.701 C 22.048 21.354,22.137 20.989,21.960 20.637 C 21.899 20.516,21.270 19.857,19.954 18.538 L 18.037 16.615 18.173 16.438 C 18.479 16.037,18.825 15.468,19.083 14.940 C 20.302 12.453,20.302 9.548,19.084 7.060 C 17.773 4.384,15.266 2.546,12.320 2.101 C 11.911 2.039,10.662 1.991,10.340 2.024 M12.102 4.098 C 15.099 4.551,17.491 6.985,17.924 10.020 C 17.990 10.483,17.990 11.517,17.924 11.980 C 17.487 15.047,15.126 17.424,12.020 17.926 C 11.607 17.992,10.393 17.992,9.980 17.926 C 6.873 17.424,4.513 15.047,4.076 11.980 C 3.967 11.217,4.022 10.093,4.205 9.340 C 4.815 6.828,6.824 4.818,9.340 4.205 C 9.624 4.135,10.064 4.069,10.540 4.023 C 10.813 3.997,11.726 4.041,12.102 4.098 M10.614 7.057 C 10.377 7.131,10.212 7.261,10.109 7.453 C 10.024 7.613,10.020 7.668,10.008 8.810 L 9.996 10.000 8.904 10.000 C 7.744 10.000,7.570 10.022,7.322 10.199 C 7.100 10.357,7.020 10.568,7.020 11.000 C 7.020 11.331,7.033 11.403,7.120 11.558 C 7.230 11.755,7.414 11.898,7.635 11.959 C 7.716 11.982,8.270 12.000,8.890 12.000 L 10.000 12.000 10.000 13.110 C 10.000 13.730,10.018 14.284,10.041 14.365 C 10.148 14.750,10.437 14.962,10.896 14.991 C 11.381 15.022,11.699 14.882,11.880 14.558 C 11.979 14.381,11.980 14.374,11.993 13.190 L 12.005 12.000 13.113 12.000 C 13.731 12.000,14.284 11.982,14.365 11.959 C 14.586 11.898,14.770 11.755,14.880 11.558 C 14.967 11.402,14.980 11.332,14.979 11.000 C 14.978 10.567,14.898 10.355,14.678 10.199 C 14.430 10.022,14.256 10.000,13.096 10.000 L 12.005 10.000 11.993 8.810 C 11.981 7.669,11.976 7.613,11.891 7.453 C 11.842 7.362,11.746 7.247,11.678 7.199 C 11.414 7.010,10.957 6.950,10.614 7.057 " stroke="none" fill-rule="evenodd" fill="black"></path></svg>