<svg width="24" height="24" viewBox="0 0 24 24" fill="none" xmlns="http://www.w3.org/2000/svg">
<path d="M6.17302 17V16.8C6.17302 15.1198 6.17302 14.2798 6.5 13.638C6.78762 13.0735 7.24656 12.6146 7.81104 12.327C8.45278 12 9.29286 12 10.973 12H13.027C14.7071 12 15.5472 12 16.189 12.327C16.7534 12.6146 17.2124 13.0735 17.5 13.638C17.827 14.2798 17.827 15.1198 17.827 16.8V17M6.17302 17C5.06845 17 4.17302 17.8954 4.17302 19C4.17302 20.1046 5.06845 21 6.17302 21C7.27759 21 8.17302 20.1046 8.17302 19C8.17302 17.8954 7.27759 17 6.17302 17ZM17.827 17C16.7224 17 15.827 17.8954 15.827 19C15.827 20.1046 16.7224 21 17.827 21C18.9315 21 19.827 20.1046 19.827 19C19.827 17.8954 18.9315 17 17.827 17ZM12 7V12M12 7C10.8954 7 10 6.10457 10 5C10 3.89543 10.8954 3 12 3C13.1046 3 14 3.89543 14 5C14 6.10457 13.1046 7 12 7Z" stroke="black" stroke-width="2" stroke-linecap="round" stroke-linejoin="round"/>
</svg>
