<svg version="1.1" xmlns="http://www.w3.org/2000/svg" width="32" height="32" viewBox="0 0 32 32"><title>fire</title><path stroke="none" fill="currentColor" d="M11.29 11.193l-.003.002-.003.003zM24.563 10.944c-.09-.087-.191-.164-.299-.229l-.008-.004c-.193-.116-.427-.184-.676-.184-.517 0-.965.294-1.186.725l-.003.008c-.478.93-1.103 1.717-1.854 2.361l-.01.009c.113-.605.177-1.301.178-2.013v0c0-.004 0-.009 0-.014 0-4.301-2.337-8.057-5.811-10.065l-.056-.03c-.189-.109-.416-.173-.658-.173-.706 0-1.284.549-1.33 1.244l0 .004c-.161 2.649-1.401 4.979-3.282 6.579l-.013.011-.307.25c-1.025.696-1.9 1.518-2.631 2.457l-.019.026c-1.618 2.024-2.596 4.621-2.596 7.447 0 4.99 3.052 9.268 7.391 11.068l.079.029c.149.063.322.099.504.099.736 0 1.333-.597 1.333-1.333 0 0 0-.001 0-.001v0c-.001-.149-.025-.292-.069-.427l.003.01c-.199-.717-.313-1.541-.313-2.392 0-.37.022-.735.064-1.093l-.004.044c1.279 2.379 3.265 4.238 5.674 5.325l.076.031c.16.073.346.116.543.116.147 0 .288-.024.42-.068l-.009.003c4.862-1.604 8.309-6.106 8.309-11.413 0-3.274-1.312-6.242-3.439-8.406l.002.002zM19.356 28.052c-2.329-1.199-4.058-3.287-4.753-5.805l-.015-.065c-.09-.345-.174-.781-.233-1.224l-.007-.061c-.081-.567-.508-1.015-1.057-1.125l-.009-.001c-.076-.016-.164-.025-.253-.025-.001 0-.001 0-.002 0h0c0 0 0 0 0 0-.491 0-.921.266-1.152.662l-.003.006c-1.013 1.718-1.611 3.785-1.611 5.991 0 .105.001.21.004.315l0-.015c-2.198-1.72-3.597-4.373-3.597-7.353 0-2.203.765-4.228 2.044-5.823l-.014.018c.587-.758 1.275-1.402 2.051-1.924l.031-.02c.037-.024.07-.048.1-.074l-.002.001s.396-.327.409-.335c1.857-1.578 3.217-3.688 3.847-6.094l.018-.083c1.776 1.646 2.885 3.991 2.885 6.595 0 1.532-.384 2.975-1.06 4.237l.024-.048c-.095.179-.151.392-.151.617 0 .737.597 1.334 1.334 1.334.141 0 .277-.022.405-.063l-.009.003c2.098-.671 3.854-1.92 5.132-3.56l.018-.023c1.005 1.467 1.605 3.28 1.605 5.233 0 3.948-2.451 7.323-5.914 8.688l-.063.022z"></path></svg>