<svg version="1.1" xmlns="http://www.w3.org/2000/svg" width="32" height="32" viewBox="0 0 32 32"><title>paint-bucket</title><path stroke="none" fill="currentColor" d="M29.7 18.85l-12.8-12.55v-1.9c0-2.1-1.9-3.75-4.2-3.75s-4.2 1.7-4.2 3.75l.05 7.65c0 .05 0 .05 0 .1l-6.1 6c-.3.25-.45.65-.5 1.05 0 .4.15.85.45 1.15l10.85 10.6c.3.3.7.45 1.1.45s.75-.15 1.1-.4l9.95-9.75 3.65-.3c.45-.05.85-.4 1-.8.1-.5 0-.95-.35-1.3zM10.25 4.4c0-1.1 1.1-2 2.45-2s2.45.95 2.45 2v1.3l-4.85 4.75-.05-6.05zM24.6 19.55l-10.25 10-10.55-10.3 11.9-11.65 4 3.9-3.2 3.15c-.35.35-.35.9 0 1.25.15.15.4.25.6.25s.45-.1.6-.25l3.2-3.15 2.15 2.15-2 2c-.35.35-.35.9 0 1.25.15.15.4.25.6.25s.45-.1.6-.25l2.05-2 3.25 3.2-2.95.2z"></path></svg>