<?xml version="1.0" encoding="UTF-8"?><!DOCTYPE svg PUBLIC "-//W3C//DTD SVG 1.1//EN" "http://www.w3.org/Graphics/SVG/1.1/DTD/svg11.dtd"><svg xmlns="http://www.w3.org/2000/svg" xmlns:xlink="http://www.w3.org/1999/xlink"><defs/><symbol id="send-03" viewBox="0 0 24 24"><path d="M2.13 2.591C1.938 2.684 1.676 2.975 1.549 3.238 1.251 3.854 1.39 4.458 2.794 8.635 3.369 10.349 3.84 11.899 3.84 12.079 3.84 12.26 3.3 14.024 2.64 16 1.98 17.976 1.44 19.85 1.44 20.166 1.44 20.809 1.87 21.381 2.466 21.531 2.693 21.588 3.245 21.464 3.861 21.217 6.589 20.124 21.261 13.408 21.718 13.043 22.142 12.705 22.24 12.513 22.24 12.021 22.24 11.336 21.91 10.952 20.88 10.436 19.269 9.629 4.002 2.81 3.375 2.617 2.563 2.367 2.591 2.368 2.13 2.591M11.637 8.435C15.885 10.347 19.36 11.953 19.36 12.005 19.36 12.098 4.015 19.043 3.812 19.041 3.753 19.04 4.155 17.69 4.706 16.04L5.707 13.04 8.334 12.999C10.783 12.961 10.979 12.936 11.24 12.622 11.579 12.213 11.596 11.845 11.293 11.431 11.089 11.151 10.802 11.112 8.387 11.04L5.707 10.96 4.706 7.96C4.155 6.31 3.752 4.96 3.809 4.96 3.866 4.96 7.389 6.524 11.637 8.435" stroke="none" fill-rule="evenodd" fill="currentColor"/></symbol></svg>