<!-- Generated by IcoMoon.io -->
<svg version="1.1" xmlns="http://www.w3.org/2000/svg" width="32" height="32" viewBox="0 0 32 32">
<title>slack</title>
<path d="M6.723 20.221c0 1.85-1.511 3.362-3.362 3.362s-3.362-1.511-3.362-3.362c0-1.85 1.511-3.362 3.362-3.362h3.362v3.362z"></path>
<path d="M8.417 20.221c0-1.85 1.511-3.362 3.362-3.362s3.362 1.511 3.362 3.362v8.417c0 1.85-1.511 3.362-3.362 3.362s-3.362-1.511-3.362-3.362c0 0 0-8.417 0-8.417z"></path>
<path d="M11.778 6.723c-1.85 0-3.362-1.511-3.362-3.362s1.511-3.362 3.362-3.362 3.362 1.511 3.362 3.362v3.362h-3.362z"></path>
<path d="M11.778 8.417c1.85 0 3.362 1.511 3.362 3.362s-1.511 3.362-3.362 3.362h-8.417c-1.85 0-3.362-1.511-3.362-3.362s1.511-3.362 3.362-3.362c0 0 8.417 0 8.417 0z"></path>
<path d="M25.277 11.778c0-1.85 1.511-3.362 3.362-3.362s3.362 1.511 3.362 3.362-1.511 3.362-3.362 3.362h-3.362v-3.362z"></path>
<path d="M23.583 11.778c0 1.85-1.511 3.362-3.362 3.362s-3.362-1.511-3.362-3.362v-8.417c0-1.85 1.511-3.362 3.362-3.362s3.362 1.511 3.362 3.362v8.417z"></path>
<path d="M20.221 25.277c1.85 0 3.362 1.511 3.362 3.362s-1.511 3.362-3.362 3.362c-1.85 0-3.362-1.511-3.362-3.362v-3.362h3.362z"></path>
<path d="M20.221 23.583c-1.85 0-3.362-1.511-3.362-3.362s1.511-3.362 3.362-3.362h8.417c1.85 0 3.362 1.511 3.362 3.362s-1.511 3.362-3.362 3.362h-8.417z"></path>
</svg>
