<!-- Generated by IcoMoon.io -->
<svg version="1.1" xmlns="http://www.w3.org/2000/svg" width="16" height="16" viewBox="0 0 16 16">
<title>credits</title>
<path d="M10.479 4.958c-0.364 0-0.72 0.036-1.064 0.103-0.027-0.021-0.055-0.041-0.084-0.061 0.425-0.294 0.669-0.636 0.669-1v-1c0-1.105-2.239-2-5-2s-5 0.895-5 2v1c0 0.364 0.244 0.706 0.669 1-0.425 0.294-0.669 0.636-0.669 1v1c0 0.364 0.244 0.706 0.669 1-0.425 0.294-0.669 0.636-0.669 1v1c0 0.364 0.244 0.706 0.669 1-0.425 0.294-0.669 0.636-0.669 1v1c0 1.105 2.239 2 5 2 0.738 0 1.438-0.064 2.069-0.179 0.939 0.739 2.123 1.179 3.41 1.179 3.049 0 5.521-2.472 5.521-5.521s-2.472-5.521-5.521-5.521zM0.5 3c0-0.298 0.451-0.671 1.15-0.95 0.887-0.355 2.076-0.55 3.35-0.55s2.463 0.195 3.35 0.55c0.699 0.279 1.15 0.652 1.15 0.95s-0.451 0.671-1.15 0.95c-0.288 0.115-0.609 0.214-0.954 0.294-0.716 0.167-1.536 0.256-2.396 0.256s-1.68-0.089-2.396-0.256c-0.345-0.080-0.666-0.179-0.954-0.294-0.699-0.279-1.15-0.652-1.15-0.95zM0.5 9c0-0.221 0.249-0.483 0.663-0.718 0.917 0.439 2.296 0.718 3.837 0.718 0.053 0 0.106-0.001 0.159-0.001-0.131 0.471-0.201 0.968-0.201 1.481 0 0.007 0 0.014 0 0.021-0.844-0.003-1.65-0.091-2.354-0.256-0.345-0.080-0.666-0.179-0.954-0.294-0.699-0.279-1.15-0.652-1.15-0.95zM5 13.5c-1.273 0-2.463-0.195-3.35-0.55-0.699-0.279-1.15-0.652-1.15-0.95 0-0.221 0.249-0.483 0.663-0.718 0.917 0.439 2.296 0.718 3.837 0.718 0.057 0 0.114-0.001 0.17-0.002 0.151 0.527 0.378 1.022 0.668 1.472-0.274 0.019-0.554 0.029-0.839 0.029zM5 7.5c-0.859 0-1.68-0.089-2.396-0.256-0.345-0.080-0.666-0.179-0.954-0.294-0.699-0.279-1.15-0.652-1.15-0.95 0-0.221 0.249-0.483 0.663-0.718 0.917 0.439 2.296 0.718 3.837 0.718 1.030 0 1.987-0.125 2.782-0.339-0.781 0.438-1.444 1.060-1.932 1.808-0.278 0.020-0.562 0.030-0.85 0.030zM10.479 14.996c-2.495 0-4.517-2.022-4.517-4.517s2.022-4.517 4.517-4.517c2.495 0 4.517 2.022 4.517 4.517s-2.022 4.517-4.517 4.517zM11 7h-1v1h-2v3h2v1h-2v1h2v1h1v-1h2v-3h-2v-1h2v-1h-2v-1zM10 10h-1v-1h1v1zM12 11v1h-1v-1h1z"></path>
</svg>
