<!-- Generated by IcoMoon.io -->
<svg version="1.1" xmlns="http://www.w3.org/2000/svg" width="32" height="32" viewBox="0 0 32 32">
<title>zapier</title>
<path fill="#ff4a00" d="M20 16.005c0 1.191-0.22 2.328-0.615 3.38-1.049 0.396-2.191 0.615-3.38 0.615h-0.012c-1.191 0-2.327-0.22-3.379-0.615-0.396-1.052-0.615-2.191-0.615-3.38v-0.012c0-1.191 0.219-2.327 0.615-3.379 1.052-0.396 2.189-0.615 3.379-0.615h0.012c1.191 0 2.331 0.219 3.38 0.616 0.396 1.051 0.615 2.188 0.615 3.38zM31.78 13.333h-9.34l6.597-6.603c-0.52-0.731-1.093-1.413-1.727-2.044-0.631-0.632-1.313-1.209-2.040-1.728l-6.605 6.599v-9.337c-0.865-0.139-1.751-0.22-2.66-0.22h-0.013c-0.907 0-1.795 0.081-2.66 0.22v9.34l-6.6-6.599c-0.732 0.515-1.413 1.095-2.045 1.725-0.632 0.632-1.211 1.316-1.728 2.044l6.599 6.603h-9.337c0 0-0.22 1.755-0.22 2.66v0.012c0 0.907 0.081 1.797 0.22 2.66h9.34l-6.599 6.603c1.036 1.461 2.311 2.735 3.769 3.773l6.603-6.6v9.339c0.864 0.14 1.751 0.22 2.655 0.22h0.023c0.905 0 1.792-0.080 2.655-0.22v-9.339l6.603 6.6c0.731-0.5 1.413-1.083 2.039-1.72h0.007c0.631-0.62 1.208-1.301 1.728-2.041l-6.6-6.599h9.339c0.14-0.86 0.22-1.739 0.22-2.64v-0.041c0-0.904-0.080-1.791-0.22-2.653z"></path>
</svg>
