<svg width="24" height="24" viewBox="0 0 24 24" fill="none" xmlns="http://www.w3.org/2000/svg">
<path d="M19 15V9C19.829 9 20.577 9.335 21.121 9.879C21.665 10.423 22 11.171 22 12C22 12.829 21.665 13.577 21.121 14.121C20.577 14.665 19.829 15 19 15ZM2 7C1.448 7 1 7.448 1 8V17C1 18.38 1.561 19.632 2.464 20.536C3.367 21.44 4.62 22 6 22H14C15.38 22 16.632 21.439 17.536 20.536C18.44 19.633 19 18.38 19 17C20.38 17 21.632 16.439 22.536 15.536C23.44 14.633 24 13.38 24 12C24 10.62 23.439 9.368 22.536 8.464C21.633 7.56 20.38 7 19 7H18H2ZM3 9H17V17C17 17.829 16.665 18.577 16.121 19.121C15.577 19.665 14.829 20 14 20H6C5.171 20 4.423 19.665 3.879 19.121C3.335 18.577 3 17.829 3 17V9Z" fill="black"/>
</svg>
