<svg width="24" height="24" viewBox="0 0 24 24" fill="none" xmlns="http://www.w3.org/2000/svg"><path d="M4.600 2.308 C 3.612 2.661,2.874 3.337,2.421 4.303 L 2.000 5.200 2.000 12.000 C 2.000 18.761,2.002 18.805,2.369 19.600 C 2.850 20.646,3.373 21.173,4.379 21.628 C 5.197 21.998,5.228 22.000,12.000 22.000 C 18.761 22.000,18.805 21.998,19.600 21.631 C 20.646 21.150,21.173 20.627,21.628 19.621 C 21.998 18.803,22.000 18.772,22.000 12.000 L 22.000 5.200 21.579 4.303 C 21.126 3.337,20.388 2.661,19.400 2.308 C 18.529 1.998,5.471 1.998,4.600 2.308 M19.000 4.286 C 19.198 4.399,19.486 4.684,19.640 4.919 C 19.895 5.308,19.920 5.932,19.920 12.000 C 19.920 19.432,19.940 19.294,18.793 19.773 C 17.996 20.106,6.004 20.106,5.207 19.773 C 4.080 19.302,4.086 19.337,4.029 12.727 C 4.000 9.467,4.024 6.420,4.081 5.955 C 4.204 4.945,4.655 4.351,5.443 4.160 C 6.387 3.930,18.577 4.044,19.000 4.286 M11.305 7.333 C 11.083 7.578,11.040 8.017,11.040 10.028 C 11.040 12.152,11.074 12.461,11.333 12.695 C 11.719 13.045,12.365 13.032,12.695 12.667 C 12.917 12.422,12.960 11.983,12.960 9.972 C 12.960 7.848,12.926 7.539,12.667 7.305 C 12.281 6.955,11.635 6.968,11.305 7.333 M11.305 15.333 C 10.731 15.967,11.172 16.960,12.028 16.960 C 12.847 16.960,13.275 15.854,12.667 15.305 C 12.281 14.955,11.635 14.968,11.305 15.333 " stroke="none" fill-rule="evenodd" fill="black"></path></svg>