<svg width="24" height="24" viewBox="0 0 24 24" fill="none" xmlns="http://www.w3.org/2000/svg"><path d="M10.466 1.131 C 8.130 1.410,6.075 2.444,4.259 4.256 C 2.916 5.596,2.071 6.957,1.489 8.720 C 1.124 9.828,1.067 10.268,1.067 12.000 C 1.067 13.732,1.124 14.172,1.489 15.280 C 2.070 17.040,2.915 18.403,4.256 19.744 C 5.597 21.085,6.960 21.930,8.720 22.511 C 9.828 22.876,10.268 22.933,12.000 22.933 C 13.732 22.933,14.172 22.876,15.280 22.511 C 17.040 21.930,18.403 21.085,19.744 19.744 C 21.085 18.403,21.930 17.040,22.511 15.280 C 22.876 14.172,22.933 13.732,22.933 12.000 C 22.933 10.271,22.876 9.826,22.512 8.720 C 20.810 3.543,15.945 0.478,10.466 1.131 M14.225 3.286 C 15.737 3.643,17.053 4.412,18.321 5.679 C 20.137 7.496,20.955 9.458,20.955 12.000 C 20.955 14.542,20.137 16.504,18.321 18.321 C 16.496 20.145,14.545 20.960,12.000 20.960 C 9.455 20.960,7.504 20.145,5.679 18.321 C 3.863 16.504,3.045 14.542,3.045 12.000 C 3.045 9.458,3.863 7.496,5.679 5.679 C 6.920 4.438,8.263 3.642,9.701 3.294 C 10.950 2.992,12.961 2.988,14.225 3.286 M11.305 7.333 C 11.083 7.578,11.040 8.017,11.040 10.028 C 11.040 12.152,11.074 12.461,11.333 12.695 C 11.719 13.045,12.365 13.032,12.695 12.667 C 12.917 12.422,12.960 11.983,12.960 9.972 C 12.960 7.848,12.926 7.539,12.667 7.305 C 12.281 6.955,11.635 6.968,11.305 7.333 M11.305 15.333 C 10.731 15.967,11.172 16.960,12.028 16.960 C 12.847 16.960,13.275 15.854,12.667 15.305 C 12.281 14.955,11.635 14.968,11.305 15.333 " stroke="none" fill-rule="evenodd" fill="black"></path></svg>