<svg width="24" height="24" viewBox="0 0 24 24" fill="none" xmlns="http://www.w3.org/2000/svg"><path d="M15.200 2.844 C 12.219 4.340,12.136 4.359,7.840 4.474 C 3.707 4.586,3.172 4.701,2.176 5.696 C 1.184 6.689,1.040 7.297,1.040 10.480 C 1.040 12.898,1.084 13.440,1.314 13.861 C 1.710 14.583,2.481 15.176,3.294 15.380 L 4.000 15.558 4.004 17.579 C 4.006 19.206,4.065 19.728,4.306 20.259 C 5.327 22.507,8.840 22.627,10.081 20.456 C 10.439 19.829,10.485 19.548,10.535 17.631 L 10.592 15.502 11.096 15.601 C 12.273 15.832,13.428 16.272,15.162 17.148 C 17.295 18.226,17.931 18.320,18.703 17.670 C 18.971 17.444,19.264 16.994,19.354 16.670 C 19.574 15.880,19.574 4.120,19.354 3.330 C 19.264 3.006,18.971 2.556,18.703 2.330 C 17.941 1.689,17.322 1.780,15.200 2.844 M17.440 10.000 C 17.440 13.300,17.409 16.000,17.371 16.000 C 17.333 16.000,16.598 15.638,15.737 15.196 C 13.628 14.113,11.970 13.606,10.374 13.558 C 8.501 13.502,8.480 13.538,8.480 16.889 C 8.480 19.408,8.467 19.511,8.124 19.751 C 7.730 20.027,6.772 20.079,6.400 19.844 C 6.207 19.722,6.144 19.145,6.080 16.892 C 5.986 13.613,5.975 13.588,4.528 13.475 C 3.064 13.360,3.040 13.313,3.040 10.519 C 3.040 6.583,3.034 6.587,8.080 6.514 C 11.569 6.464,11.613 6.459,13.121 5.945 C 13.957 5.659,15.217 5.111,15.921 4.727 C 16.624 4.342,17.254 4.021,17.320 4.014 C 17.386 4.006,17.440 6.700,17.440 10.000 M21.280 7.360 C 20.989 7.651,20.960 7.893,20.960 10.000 C 20.960 12.107,20.989 12.349,21.280 12.640 C 21.456 12.816,21.780 12.960,22.000 12.960 C 22.220 12.960,22.544 12.816,22.720 12.640 C 23.011 12.349,23.040 12.107,23.040 10.000 C 23.040 7.893,23.011 7.651,22.720 7.360 C 22.544 7.184,22.220 7.040,22.000 7.040 C 21.780 7.040,21.456 7.184,21.280 7.360 " stroke="none" fill-rule="evenodd" fill="black"></path></svg>