<svg width="24" height="24" viewBox="0 0 24 24" fill="none" xmlns="http://www.w3.org/2000/svg"><path d="M2.628 2.403 C 1.511 2.956,0.957 4.014,0.964 5.584 C 0.966 6.102,1.090 6.751,1.258 7.121 C 1.539 7.739,2.567 8.800,2.886 8.800 C 2.981 8.800,3.040 10.669,3.040 13.731 C 3.040 19.274,3.103 19.681,4.119 20.728 C 4.437 21.055,5.027 21.476,5.429 21.662 C 6.131 21.987,6.392 22.000,12.000 22.000 C 17.608 22.000,17.869 21.987,18.571 21.662 C 18.973 21.476,19.568 21.050,19.893 20.716 C 20.880 19.699,20.960 19.169,20.960 13.651 C 20.960 10.640,21.019 8.800,21.114 8.800 C 21.433 8.800,22.461 7.739,22.742 7.121 C 22.910 6.751,23.034 6.102,23.036 5.584 C 23.043 4.007,22.482 2.943,21.359 2.400 C 20.724 2.092,20.368 2.080,11.989 2.080 C 3.577 2.080,3.258 2.091,2.628 2.403 M20.604 4.249 C 20.904 4.459,20.960 4.648,20.960 5.449 C 20.960 7.162,21.649 7.040,12.000 7.040 C 2.351 7.040,3.040 7.162,3.040 5.449 C 3.040 3.903,2.439 4.000,12.000 4.000 C 19.207 4.000,20.294 4.031,20.604 4.249 M19.017 13.800 C 18.961 18.545,18.953 18.650,18.593 19.154 C 18.366 19.473,18.000 19.732,17.633 19.833 C 16.845 20.052,7.155 20.052,6.367 19.833 C 6.000 19.732,5.634 19.473,5.407 19.154 C 5.047 18.650,5.039 18.545,4.983 13.800 L 4.926 8.960 12.000 8.960 L 19.074 8.960 19.017 13.800 M9.292 12.422 C 8.881 12.943,8.877 13.142,9.266 13.622 C 9.563 13.989,9.641 14.000,12.000 14.000 C 14.359 14.000,14.437 13.989,14.734 13.622 C 15.123 13.142,15.119 12.943,14.708 12.422 L 14.377 12.000 12.000 12.000 L 9.623 12.000 9.292 12.422 " stroke="none" fill-rule="evenodd" fill="black"></path></svg>