<svg width="24" height="24" viewBox="0 0 24 24" fill="none" xmlns="http://www.w3.org/2000/svg"><path d="M10.480 1.111 C 9.163 1.324,8.304 1.602,7.068 2.212 C 4.013 3.722,1.917 6.482,1.172 9.979 C 0.869 11.397,0.974 13.372,1.437 15.014 C 3.433 22.081,11.822 25.251,17.920 21.243 C 18.492 20.868,18.984 20.428,19.014 20.267 C 19.112 19.737,18.894 19.258,18.467 19.063 C 18.100 18.896,17.951 18.927,17.303 19.303 C 15.034 20.621,13.956 20.955,11.968 20.958 C 8.540 20.963,5.579 19.117,4.020 16.002 C 0.685 9.339,6.421 1.816,13.778 3.202 C 14.252 3.292,15.176 3.619,15.830 3.929 C 19.097 5.477,20.961 8.515,20.959 12.288 C 20.959 13.761,20.625 14.449,19.731 14.823 C 18.967 15.142,18.217 14.992,17.628 14.404 C 17.020 13.796,16.960 13.420,16.960 10.245 C 16.960 7.856,16.929 7.541,16.667 7.305 C 16.506 7.159,16.194 7.040,15.972 7.040 C 15.566 7.040,15.040 7.472,15.040 7.805 C 15.040 7.906,14.673 7.794,14.207 7.552 C 13.492 7.181,13.179 7.120,12.007 7.120 C 10.899 7.120,10.497 7.191,9.883 7.493 C 6.765 9.029,6.069 13.063,8.503 15.497 C 10.309 17.303,13.199 17.465,15.137 15.867 L 15.731 15.378 16.446 16.007 C 18.653 17.950,22.192 16.788,22.887 13.892 C 23.126 12.897,23.007 10.578,22.646 9.200 C 21.657 5.418,18.417 2.224,14.704 1.371 C 13.368 1.065,11.484 0.948,10.480 1.111 M13.440 9.364 C 14.400 9.858,14.934 10.800,14.933 11.999 C 14.931 13.442,14.123 14.524,12.775 14.887 C 10.671 15.453,8.724 13.659,9.068 11.471 C 9.374 9.527,11.637 8.436,13.440 9.364 " stroke="none" fill-rule="evenodd" fill="black"></path></svg>