<svg width="24" height="24" viewBox="0 0 24 24" fill="none" xmlns="http://www.w3.org/2000/svg"><path d="M4.560 1.900 C 2.671 2.391,1.620 3.955,1.810 5.990 C 1.925 7.218,2.690 9.360,3.524 10.787 C 3.874 11.386,4.160 11.932,4.160 12.000 C 4.160 12.068,3.874 12.614,3.524 13.213 C 2.690 14.640,1.925 16.782,1.810 18.010 C 1.564 20.640,3.420 22.463,6.064 22.187 C 7.262 22.062,9.398 21.288,10.787 20.476 C 11.386 20.126,11.932 19.840,12.000 19.840 C 12.068 19.840,12.614 20.126,13.213 20.476 C 14.640 21.310,16.782 22.075,18.010 22.190 C 20.640 22.436,22.463 20.580,22.187 17.936 C 22.062 16.738,21.288 14.602,20.476 13.213 C 20.126 12.614,19.840 12.062,19.840 11.985 C 19.840 11.908,20.053 11.499,20.312 11.077 C 20.925 10.081,21.695 8.264,21.999 7.097 C 22.595 4.811,21.985 3.112,20.240 2.194 C 19.399 1.751,17.568 1.731,16.320 2.152 C 15.450 2.445,13.526 3.348,12.520 3.936 C 12.009 4.235,11.991 4.235,11.480 3.936 C 10.504 3.364,8.721 2.520,7.863 2.223 C 6.868 1.878,5.252 1.720,4.560 1.900 M8.321 4.557 C 10.430 5.504,10.383 5.355,8.980 6.641 C 8.309 7.257,7.257 8.309,6.641 8.980 C 5.355 10.383,5.504 10.430,4.557 8.321 C 4.095 7.291,3.930 6.691,3.875 5.841 C 3.807 4.776,3.826 4.697,4.262 4.262 C 4.697 3.826,4.776 3.807,5.841 3.875 C 6.691 3.930,7.291 4.095,8.321 4.557 M19.534 4.045 C 20.508 4.793,20.376 6.402,19.128 9.004 L 18.531 10.248 17.504 9.139 C 16.400 7.946,14.720 6.301,14.094 5.800 L 13.707 5.490 14.974 4.882 C 15.670 4.548,16.528 4.182,16.880 4.068 C 17.696 3.805,19.204 3.792,19.534 4.045 M13.499 7.970 C 14.778 9.070,17.200 11.708,17.200 12.000 C 17.200 12.496,12.496 17.200,12.000 17.200 C 11.506 17.200,6.800 12.497,6.800 12.004 C 6.800 11.519,11.669 6.638,12.029 6.762 C 12.089 6.783,12.750 7.327,13.499 7.970 M10.982 10.982 C 10.065 11.899,10.703 13.440,12.000 13.440 C 13.297 13.440,13.935 11.899,13.018 10.982 C 12.438 10.401,11.562 10.401,10.982 10.982 M8.521 16.931 C 9.071 17.459,9.697 18.032,9.912 18.205 L 10.305 18.519 8.925 19.187 C 8.167 19.554,7.090 19.948,6.533 20.061 C 4.677 20.440,3.849 19.954,3.844 18.480 C 3.841 17.441,4.051 16.717,4.827 15.082 L 5.462 13.745 6.492 14.858 C 7.059 15.470,7.972 16.403,8.521 16.931 M19.433 15.657 C 20.361 17.724,20.380 19.540,19.480 20.021 C 18.667 20.456,16.584 20.015,14.683 19.006 L 13.766 18.519 14.868 17.498 C 16.184 16.280,17.859 14.559,18.194 14.081 C 18.423 13.753,18.443 13.751,18.634 14.029 C 18.743 14.189,19.103 14.922,19.433 15.657 " stroke="none" fill-rule="evenodd" fill="black"></path></svg>