<svg fill="currentColor" fill-rule="evenodd" height="1em" style="flex:none;line-height:1" viewBox="0 0 24 24" width="1em" xmlns="http://www.w3.org/2000/svg"><path d="M5.478 0.607 C 5.352 0.632,5.170 0.739,5.073 0.846 C 4.910 1.026,0.325 14.393,0.322 14.698 C 0.321 14.774,0.438 14.954,0.582 15.098 C 0.841 15.357,0.864 15.360,2.810 15.360 C 4.575 15.360,4.802 15.339,5.024 15.160 C 5.191 15.024,5.414 14.530,5.711 13.640 C 5.953 12.914,6.200 12.320,6.259 12.320 C 6.319 12.320,7.103 13.004,8.001 13.840 L 9.635 15.360 12.604 15.360 C 15.484 15.360,15.580 15.353,15.799 15.135 C 15.967 14.966,16.010 14.825,15.967 14.575 C 15.935 14.391,14.890 11.222,13.644 7.534 L 11.379 0.828 11.026 0.681 C 10.757 0.568,10.088 0.537,8.190 0.548 C 6.824 0.556,5.604 0.583,5.478 0.607 M9.280 10.104 C 9.280 10.206,8.986 10.240,8.107 10.240 C 7.461 10.240,6.933 10.202,6.933 10.156 C 6.933 10.076,7.929 7.053,8.066 6.720 C 8.126 6.573,9.280 9.789,9.280 10.104 M5.547 11.573 C 5.746 11.779,5.885 11.947,5.855 11.947 C 5.826 11.947,5.639 11.779,5.440 11.573 C 5.241 11.368,5.102 11.200,5.131 11.200 C 5.161 11.200,5.348 11.368,5.547 11.573 " stroke="none" fill-rule="evenodd"></path></svg>