<svg width="24" height="24" viewBox="0 0 24 24" fill="none" xmlns="http://www.w3.org/2000/svg"><path d="M14.800 3.212 C 14.360 3.286,13.316 3.530,12.480 3.754 C 7.238 5.158,8.197 5.056,3.511 4.705 L 2.142 4.603 1.653 5.091 C 1.356 5.389,1.126 5.818,1.064 6.190 C 1.009 6.525,0.963 9.489,0.962 12.776 C 0.960 20.113,0.900 19.899,3.138 20.588 C 3.892 20.820,4.608 20.877,6.720 20.871 C 9.569 20.862,9.021 20.962,14.240 19.512 C 15.993 19.025,17.546 18.954,19.547 19.268 C 21.502 19.575,22.084 19.453,22.647 18.622 C 22.943 18.186,22.963 17.801,23.008 11.722 C 23.063 4.406,23.066 4.425,21.868 3.813 C 20.565 3.149,16.984 2.844,14.800 3.212 M20.240 5.351 L 20.880 5.534 20.922 11.508 L 20.964 17.482 20.282 17.369 C 17.214 16.864,15.899 16.959,12.424 17.941 C 9.025 18.902,7.349 19.139,5.461 18.925 C 4.614 18.829,3.722 18.673,3.480 18.579 L 3.040 18.408 3.040 12.484 C 3.040 9.226,3.077 6.560,3.122 6.560 C 3.167 6.560,3.905 6.675,4.762 6.815 C 6.874 7.162,7.934 7.047,11.485 6.091 C 13.132 5.647,14.984 5.220,15.600 5.141 C 16.894 4.976,19.309 5.085,20.240 5.351 M17.292 8.422 C 16.993 8.802,16.960 9.060,16.960 11.044 C 16.960 13.520,17.117 13.960,18.000 13.960 C 18.883 13.960,19.040 13.520,19.040 11.044 C 19.040 9.060,19.007 8.802,18.708 8.422 C 18.518 8.179,18.216 8.000,18.000 8.000 C 17.784 8.000,17.482 8.179,17.292 8.422 M11.120 8.621 C 9.665 8.995,8.482 10.510,8.482 12.000 C 8.482 13.791,10.209 15.518,12.000 15.518 C 13.791 15.518,15.518 13.791,15.518 12.000 C 15.518 10.854,14.632 9.414,13.597 8.878 C 13.053 8.597,11.742 8.461,11.120 8.621 M5.209 10.436 C 5.013 10.715,4.960 11.257,4.960 12.974 C 4.960 14.940,4.993 15.199,5.292 15.578 C 5.482 15.821,5.784 16.000,6.000 16.000 C 6.216 16.000,6.518 15.821,6.708 15.578 C 7.007 15.199,7.040 14.940,7.040 12.974 C 7.040 10.448,6.908 10.080,6.000 10.080 C 5.621 10.080,5.383 10.187,5.209 10.436 M13.018 10.982 C 13.599 11.562,13.599 12.438,13.018 13.018 C 12.101 13.935,10.560 13.297,10.560 12.000 C 10.560 10.703,12.101 10.065,13.018 10.982 " stroke="none" fill-rule="evenodd" fill="black"></path></svg>