<svg width="24" height="24" viewBox="0 0 24 24" fill="none" xmlns="http://www.w3.org/2000/svg"><path d="M11.305 3.333 C 11.065 3.597,11.040 4.434,11.040 12.028 C 11.040 19.965,11.056 20.445,11.333 20.695 C 11.719 21.045,12.365 21.032,12.695 20.667 C 12.935 20.403,12.960 19.566,12.960 11.972 C 12.960 4.035,12.944 3.555,12.667 3.305 C 12.281 2.955,11.635 2.968,11.305 3.333 M17.353 9.353 L 16.960 9.745 16.960 15.033 C 16.960 20.107,16.973 20.333,17.280 20.640 C 17.456 20.816,17.780 20.960,18.000 20.960 C 18.220 20.960,18.544 20.816,18.720 20.640 C 19.027 20.333,19.040 20.107,19.040 15.033 L 19.040 9.745 18.647 9.353 C 18.431 9.137,18.140 8.960,18.000 8.960 C 17.860 8.960,17.569 9.137,17.353 9.353 M5.353 13.353 C 4.961 13.744,4.960 13.756,4.960 17.033 C 4.960 20.107,4.981 20.341,5.280 20.640 C 5.456 20.816,5.780 20.960,6.000 20.960 C 6.220 20.960,6.544 20.816,6.720 20.640 C 7.019 20.341,7.040 20.107,7.040 17.033 C 7.040 13.756,7.039 13.744,6.647 13.353 C 6.431 13.137,6.140 12.960,6.000 12.960 C 5.860 12.960,5.569 13.137,5.353 13.353 " stroke="none" fill-rule="evenodd" fill="black"></path></svg>