<svg width="24" height="24" viewBox="0 0 24 24" fill="none" xmlns="http://www.w3.org/2000/svg"><path d="M7.644 1.074 C 7.403 1.111,7.061 1.326,6.884 1.552 C 6.597 1.916,6.560 2.198,6.560 4.000 C 6.560 5.789,6.599 6.086,6.877 6.440 C 7.052 6.662,7.376 6.890,7.597 6.945 L 8.000 7.046 8.000 9.110 C 8.000 10.245,7.954 11.294,7.897 11.441 C 7.841 11.588,6.671 12.646,5.297 13.791 C 2.108 16.451,2.000 16.620,2.001 18.960 C 2.002 20.470,2.053 20.815,2.357 21.387 C 2.745 22.113,3.299 22.569,4.144 22.856 C 4.924 23.120,18.998 23.113,19.884 22.848 C 21.449 22.379,22.198 20.839,22.029 18.441 C 21.963 17.512,21.832 16.930,21.595 16.515 C 21.400 16.172,20.271 15.105,18.935 14.000 C 17.659 12.944,16.477 11.908,16.308 11.698 C 16.039 11.365,16.000 11.049,16.000 9.194 L 16.000 7.071 16.468 6.908 C 17.330 6.608,17.520 6.079,17.520 3.979 C 17.520 2.322,17.481 2.051,17.183 1.652 C 16.998 1.403,16.638 1.155,16.383 1.099 C 15.877 0.988,8.349 0.967,7.644 1.074 M15.520 4.000 L 15.520 4.960 12.000 4.960 L 8.480 4.960 8.480 4.000 L 8.480 3.040 12.000 3.040 L 15.520 3.040 15.520 4.000 M13.949 9.400 C 14.030 12.434,14.077 12.530,16.372 14.443 L 18.144 15.920 15.072 15.963 C 13.382 15.987,10.618 15.987,8.928 15.963 L 5.856 15.920 7.628 14.443 C 9.923 12.530,9.970 12.434,10.051 9.400 L 10.115 7.040 12.000 7.040 L 13.885 7.040 13.949 9.400 M19.707 18.345 C 20.083 18.685,20.110 20.091,19.751 20.604 L 19.502 20.960 12.000 20.960 L 4.498 20.960 4.249 20.604 C 3.910 20.121,3.920 18.754,4.265 18.373 C 4.514 18.097,4.965 18.080,11.972 18.080 C 18.673 18.080,19.444 18.106,19.707 18.345 " stroke="none" fill-rule="evenodd" fill="black"></path></svg>