<svg width="24" height="24" viewBox="0 0 24 24" fill="none" xmlns="http://www.w3.org/2000/svg"><path d="M10.805 1.138 C 8.441 1.482,6.036 3.552,5.350 5.833 C 5.217 6.277,5.042 7.504,4.962 8.560 C 4.743 11.457,4.498 12.209,2.709 15.465 C 2.089 16.594,2.138 17.072,2.932 17.664 C 3.378 17.996,3.494 18.000,12.000 18.000 C 20.506 18.000,20.622 17.996,21.068 17.664 C 21.862 17.072,21.911 16.594,21.291 15.465 C 19.509 12.221,19.254 11.444,19.046 8.632 C 18.836 5.785,18.505 4.846,17.203 3.397 C 15.556 1.565,13.312 0.773,10.805 1.138 M13.598 3.279 C 15.051 3.792,16.429 5.236,16.766 6.598 C 16.859 6.973,17.010 8.184,17.103 9.289 C 17.297 11.599,17.687 13.032,18.574 14.692 C 18.918 15.337,19.200 15.895,19.200 15.932 C 19.200 15.970,15.929 16.000,11.932 16.000 L 4.663 16.000 5.212 15.090 C 6.286 13.305,6.788 11.475,6.974 8.656 C 7.035 7.723,7.183 6.682,7.302 6.342 C 7.754 5.050,9.029 3.771,10.346 3.288 C 11.164 2.988,12.759 2.983,13.598 3.279 M8.670 20.326 C 7.981 20.968,8.422 21.798,9.804 22.461 C 11.444 23.247,13.248 23.147,14.676 22.189 C 15.663 21.527,15.882 20.956,15.362 20.402 C 14.879 19.888,14.551 19.896,13.728 20.440 C 13.170 20.809,12.892 20.880,12.000 20.880 C 11.108 20.880,10.830 20.809,10.272 20.440 C 9.478 19.915,9.138 19.891,8.670 20.326 " stroke="none" fill-rule="evenodd" fill="black"></path></svg>