<svg width="24" height="24" viewBox="0 0 24 24" fill="none" xmlns="http://www.w3.org/2000/svg"><path d="M3.273 2.459 C 2.409 2.861,1.708 3.578,1.296 4.480 C 1.074 4.966,1.040 5.963,1.040 12.000 L 1.040 18.960 1.414 19.720 C 1.620 20.137,2.073 20.723,2.421 21.021 C 3.537 21.976,3.774 22.000,12.000 22.000 C 20.226 22.000,20.463 21.976,21.579 21.021 C 21.927 20.723,22.380 20.137,22.586 19.720 L 22.960 18.960 22.960 12.000 C 22.960 5.963,22.926 4.966,22.704 4.480 C 22.292 3.578,21.591 2.861,20.727 2.459 L 19.920 2.083 12.000 2.083 L 4.080 2.083 3.273 2.459 M20.347 4.593 C 20.835 5.081,20.864 5.180,20.930 6.553 L 20.999 8.000 12.000 8.000 L 3.001 8.000 3.070 6.561 C 3.133 5.246,3.177 5.081,3.591 4.649 C 3.840 4.390,4.232 4.146,4.462 4.109 C 4.692 4.071,8.245 4.050,12.357 4.060 L 19.834 4.080 20.347 4.593 M20.929 14.477 L 20.880 18.874 20.357 19.397 L 19.834 19.920 12.000 19.920 L 4.166 19.920 3.643 19.397 L 3.120 18.874 3.071 14.477 L 3.021 10.080 12.000 10.080 L 20.979 10.080 20.929 14.477 " stroke="none" fill-rule="evenodd" fill="black"></path></svg>