<svg width="24" height="24" viewBox="0 0 24 24" fill="none" xmlns="http://www.w3.org/2000/svg"><path d="M6.602 1.070 C 5.956 1.157,5.197 1.897,5.062 2.570 C 4.889 3.435,4.947 11.924,5.132 12.786 C 5.449 14.266,6.681 15.590,7.928 15.792 L 8.480 15.882 8.481 17.901 C 8.481 19.011,8.559 20.198,8.653 20.537 C 9.007 21.813,10.648 23.040,12.000 23.040 C 13.352 23.040,14.993 21.813,15.347 20.537 C 15.441 20.198,15.519 19.011,15.519 17.901 L 15.520 15.882 16.072 15.792 C 17.342 15.586,18.562 14.252,18.880 12.722 C 18.994 12.169,19.040 10.166,19.009 7.092 C 18.957 1.985,18.960 2.004,18.105 1.360 C 17.701 1.056,17.415 1.039,12.400 1.020 C 9.496 1.009,6.887 1.031,6.602 1.070 M16.960 6.000 L 16.960 8.960 12.000 8.960 L 7.040 8.960 7.040 6.000 L 7.040 3.040 12.000 3.040 L 16.960 3.040 16.960 6.000 M16.960 11.685 C 16.960 12.616,16.591 13.372,15.973 13.708 C 15.506 13.961,15.015 13.997,12.000 13.997 C 8.985 13.997,8.494 13.961,8.027 13.708 C 7.409 13.372,7.040 12.616,7.040 11.685 L 7.040 11.040 12.000 11.040 L 16.960 11.040 16.960 11.685 M13.440 18.058 C 13.440 20.069,13.430 20.126,13.018 20.538 C 12.713 20.843,12.431 20.960,12.000 20.960 C 11.569 20.960,11.287 20.843,10.982 20.538 C 10.570 20.126,10.560 20.069,10.560 18.058 L 10.560 16.000 12.000 16.000 L 13.440 16.000 13.440 18.058 " stroke="none" fill-rule="evenodd" fill="black"></path></svg>