<svg width="24" height="24" viewBox="0 0 24 24" fill="none" xmlns="http://www.w3.org/2000/svg"><path d="M7.680 1.073 C 7.256 1.222,7.040 1.645,7.040 2.329 L 7.040 2.997 5.954 3.075 C 4.183 3.201,3.017 3.962,2.334 5.438 C 2.012 6.134,2.000 6.404,2.000 12.800 C 2.000 20.154,2.036 20.477,2.979 21.579 C 3.277 21.927,3.863 22.380,4.280 22.586 L 5.040 22.960 12.000 22.960 L 18.960 22.960 19.720 22.586 C 20.137 22.380,20.723 21.927,21.021 21.579 C 21.964 20.477,22.000 20.154,22.000 12.800 C 22.000 6.404,21.988 6.134,21.666 5.438 C 20.983 3.962,19.817 3.201,18.046 3.075 L 16.960 2.997 16.960 2.329 C 16.960 1.454,16.665 1.067,16.000 1.067 C 15.330 1.067,15.040 1.455,15.040 2.351 L 15.040 3.040 12.000 3.040 L 8.960 3.040 8.960 2.351 C 8.960 1.378,8.401 0.820,7.680 1.073 M7.040 5.680 C 7.040 6.187,7.135 6.495,7.360 6.720 C 8.077 7.437,8.960 6.864,8.960 5.680 L 8.960 4.960 12.000 4.960 L 15.040 4.960 15.040 5.680 C 15.040 6.187,15.135 6.495,15.360 6.720 C 16.075 7.435,16.960 6.864,16.960 5.688 L 16.960 4.975 17.800 5.060 C 19.462 5.229,19.840 5.677,19.962 7.624 L 20.045 8.960 12.023 8.960 L 4.000 8.960 4.002 8.120 C 4.006 6.030,4.529 5.185,5.884 5.077 C 6.300 5.045,6.730 5.005,6.840 4.989 C 6.975 4.969,7.040 5.195,7.040 5.680 M19.973 15.437 L 19.920 19.834 19.397 20.357 L 18.874 20.880 12.000 20.880 L 5.126 20.880 4.603 20.357 L 4.080 19.834 4.029 15.437 L 3.977 11.040 12.002 11.040 L 20.027 11.040 19.973 15.437 " stroke="none" fill-rule="evenodd" fill="black"></path></svg>