<svg width="24" height="24" viewBox="0 0 24 24" fill="none" xmlns="http://www.w3.org/2000/svg"><path d="M8.800 1.066 C 8.045 1.203,7.143 1.977,6.696 2.872 C 6.459 3.346,6.170 3.784,6.053 3.846 C 5.936 3.908,5.399 3.996,4.860 4.042 C 3.260 4.179,2.135 4.914,1.387 6.312 C 1.049 6.944,1.040 7.109,1.040 12.960 C 1.040 18.926,1.042 18.964,1.414 19.720 C 1.620 20.137,2.073 20.723,2.421 21.021 C 3.537 21.976,3.774 22.000,12.000 22.000 C 20.226 22.000,20.463 21.976,21.579 21.021 C 21.927 20.723,22.380 20.137,22.586 19.720 C 22.958 18.964,22.960 18.926,22.960 12.960 C 22.960 7.109,22.951 6.944,22.613 6.312 C 21.865 4.914,20.740 4.179,19.140 4.042 C 18.601 3.996,18.064 3.908,17.947 3.846 C 17.830 3.784,17.540 3.345,17.303 2.870 C 17.008 2.280,16.645 1.854,16.156 1.523 L 15.440 1.040 12.320 1.017 C 10.604 1.004,9.020 1.027,8.800 1.066 M15.236 3.320 C 15.372 3.474,15.533 3.767,15.595 3.971 C 15.748 4.472,16.585 5.403,17.140 5.690 C 17.388 5.819,18.044 5.969,18.596 6.024 C 19.833 6.148,20.400 6.421,20.725 7.049 C 20.941 7.467,20.969 8.309,20.928 13.204 L 20.880 18.874 20.357 19.397 L 19.834 19.920 12.000 19.920 L 4.166 19.920 3.643 19.397 L 3.120 18.874 3.072 13.204 C 3.031 8.309,3.059 7.467,3.275 7.049 C 3.600 6.421,4.167 6.148,5.404 6.024 C 5.956 5.969,6.612 5.819,6.860 5.690 C 7.415 5.403,8.252 4.472,8.405 3.971 C 8.682 3.061,8.763 3.040,12.000 3.040 C 14.648 3.040,15.019 3.072,15.236 3.320 M10.582 7.694 C 9.236 8.105,7.837 9.403,7.357 10.684 C 6.466 13.066,7.508 15.775,9.782 16.987 C 10.372 17.301,10.716 17.359,12.000 17.359 C 13.777 17.359,14.462 17.083,15.608 15.903 C 18.537 12.890,16.468 7.762,12.251 7.579 C 11.629 7.552,10.878 7.604,10.582 7.694 M13.446 9.923 C 15.160 10.797,15.484 13.336,14.053 14.672 C 13.192 15.477,11.967 15.711,10.917 15.272 C 9.674 14.753,9.069 13.829,9.067 12.448 C 9.066 11.340,9.599 10.417,10.520 9.931 C 11.328 9.504,12.618 9.501,13.446 9.923 " stroke="none" fill-rule="evenodd" fill="black"></path></svg>