<svg version="1.1" xmlns="http://www.w3.org/2000/svg" width="32" height="32" viewBox="0 0 32 32"><path d="M12.053 0.404 C 11.062 1.027,1.987 10.284,1.817 10.845 C 1.423 12.146,1.723 12.549,6.950 17.738 C 9.711 20.478,12.132 22.785,12.331 22.865 C 14.434 23.707,16.575 21.367,15.551 19.346 C 15.421 19.090,13.670 17.224,11.659 15.200 L 8.005 11.520 11.659 7.840 C 13.670 5.816,15.421 3.950,15.551 3.694 C 16.151 2.509,15.616 0.911,14.430 0.349 C 13.474 -0.105,12.840 -0.091,12.053 0.404 M17.258 9.448 C 16.359 10.053,15.933 11.184,16.224 12.196 C 16.365 12.690,17.560 14.037,20.206 16.686 L 23.985 20.470 20.132 24.368 C 15.905 28.645,15.720 28.945,16.351 30.521 C 16.891 31.872,18.458 32.405,19.797 31.694 C 20.114 31.526,22.509 29.245,25.120 26.626 C 29.942 21.788,30.375 21.215,30.139 19.982 C 30.068 19.608,28.333 17.735,24.925 14.351 C 22.116 11.562,19.655 9.215,19.455 9.135 C 18.754 8.854,17.976 8.965,17.258 9.448 " stroke="none" fill-rule="evenodd" fill="black"></path></svg>