<svg version="1.1" xmlns="http://www.w3.org/2000/svg" width="34" height="32" viewBox="0 0 34 32"><path d="M9.180 2.245 C 8.681 2.476,7.895 3.061,7.433 3.543 C 5.939 5.102,5.893 5.430,5.896 14.478 C 5.898 22.487,5.902 22.563,6.433 23.703 C 7.533 26.066,9.399 26.973,13.159 26.973 C 16.173 26.973,16.339 26.848,15.615 25.120 C 15.337 24.456,15.022 23.797,14.914 23.655 C 14.807 23.513,14.012 23.357,13.147 23.308 C 11.353 23.207,10.552 22.763,9.917 21.517 C 9.567 20.831,9.521 19.984,9.520 14.314 C 9.520 7.168,9.591 6.760,10.988 5.897 C 11.675 5.472,12.108 5.440,17.179 5.440 L 22.632 5.440 23.337 6.034 C 24.684 7.167,24.707 7.302,24.707 14.295 L 24.707 20.679 24.130 21.739 L 23.552 22.799 24.224 24.376 C 24.678 25.445,25.033 25.975,25.324 26.020 C 25.929 26.114,26.867 25.309,27.597 24.067 L 28.220 23.007 28.287 14.686 C 28.352 6.580,28.342 6.336,27.863 5.225 C 27.326 3.976,25.993 2.629,24.802 2.131 C 24.204 1.881,22.547 1.814,17.064 1.818 C 10.746 1.823,10.001 1.863,9.180 2.245 M17.737 20.205 C 16.961 20.585,16.775 20.794,16.780 21.275 C 16.792 22.276,20.252 30.474,20.699 30.560 C 21.290 30.674,23.112 29.905,23.364 29.435 C 23.536 29.113,23.162 27.982,21.709 24.426 C 19.601 19.269,19.614 19.284,17.737 20.205 " stroke="none" fill-rule="evenodd" fill="black"></path></svg>