<svg version="1.1" xmlns="http://www.w3.org/2000/svg" width="37" height="32" viewBox="0 0 37 32"><path d="M0.234 0.555 C 1.320 3.279,10.381 23.564,10.533 23.614 C 10.814 23.708,14.102 15.820,14.011 15.272 C 13.970 15.024,12.438 11.487,10.607 7.412 L 7.277 0.001 3.644 0.001 L 0.012 0.000 0.234 0.555 M28.882 1.048 C 24.267 11.710,18.014 25.517,16.901 27.503 C 15.829 29.417,14.540 30.904,13.517 31.408 C 12.728 31.797,12.812 31.809,16.351 31.814 C 19.467 31.819,20.135 31.751,20.926 31.347 C 22.244 30.675,23.760 28.931,24.769 26.929 C 25.786 24.909,32.191 10.513,36.283 1.048 L 36.736 0.000 33.036 -0.000 L 29.336 -0.000 28.882 1.048 " stroke="none" fill-rule="evenodd" fill="black"></path></svg>