<svg version="1.1" xmlns="http://www.w3.org/2000/svg" width="32" height="32" viewBox="0 0 32 32"><path d="M8.960 0.128 C 6.057 0.446,4.012 1.343,2.496 2.963 C 0.339 5.269,0.015 6.972,0.015 16.000 C 0.015 20.740,0.101 23.201,0.306 24.353 C 1.034 28.436,3.569 30.966,7.662 31.696 C 9.927 32.101,22.084 32.099,24.353 31.694 C 28.436 30.966,30.966 28.431,31.696 24.338 C 32.101 22.073,32.099 9.916,31.694 7.647 C 31.028 3.912,28.909 1.543,25.280 0.475 C 24.453 0.232,22.584 0.148,16.960 0.104 C 12.971 0.072,9.371 0.083,8.960 0.128 M25.493 3.584 C 26.887 4.226,27.803 5.135,28.412 6.481 C 28.902 7.564,28.907 7.646,28.907 16.000 L 28.907 24.427 28.397 25.555 C 27.784 26.912,26.399 28.193,25.133 28.576 C 22.346 29.419,9.654 29.419,6.867 28.576 C 5.601 28.193,4.216 26.912,3.603 25.555 L 3.093 24.427 3.093 16.000 C 3.093 7.654,3.098 7.563,3.585 6.507 C 4.425 4.684,5.783 3.607,7.753 3.202 C 8.241 3.102,12.192 3.036,16.533 3.056 C 24.281 3.093,24.446 3.102,25.493 3.584 M23.237 6.170 C 22.811 6.596,22.613 7.007,22.613 7.467 C 22.613 8.384,23.616 9.387,24.533 9.387 C 25.451 9.387,26.453 8.384,26.453 7.467 C 26.453 6.549,25.451 5.547,24.533 5.547 C 24.074 5.547,23.663 5.745,23.237 6.170 M12.955 8.410 C 9.799 9.708,7.843 12.596,7.823 15.989 C 7.781 22.781,15.731 26.642,21.067 22.421 C 25.224 19.132,25.191 12.694,21.000 9.498 C 18.822 7.836,15.457 7.381,12.955 8.410 M18.480 11.330 C 20.572 12.407,21.667 14.814,21.138 17.178 C 20.233 21.221,15.199 22.677,12.266 19.744 C 10.172 17.650,10.172 14.350,12.265 12.257 C 13.907 10.615,16.375 10.247,18.480 11.330 " stroke="none" fill-rule="evenodd" fill="black"></path></svg>