<svg version="1.1" xmlns="http://www.w3.org/2000/svg" width="32" height="32" viewBox="0 0 32 32"><path d="M12.587 6.972 C 11.823 7.098,10.880 7.490,10.880 7.683 C 10.880 7.773,11.118 7.907,11.409 7.980 C 12.171 8.171,12.615 9.207,12.744 11.096 C 12.888 13.193,12.661 15.007,12.181 15.600 C 11.253 16.746,9.709 15.111,7.441 10.581 C 6.731 9.163,6.039 7.932,5.902 7.845 C 5.765 7.758,4.489 7.685,3.066 7.683 C -0.251 7.679,-0.315 7.736,0.627 9.869 C 1.628 12.132,3.932 16.268,5.352 18.347 C 8.494 22.950,11.497 24.895,15.809 25.120 C 17.776 25.223,17.872 25.207,18.209 24.726 C 18.402 24.451,18.560 23.970,18.560 23.659 C 18.560 21.951,19.427 20.546,20.322 20.803 C 20.585 20.879,21.602 21.758,22.583 22.757 C 23.563 23.756,24.688 24.709,25.082 24.874 C 26.137 25.314,30.884 25.291,31.526 24.841 C 31.787 24.659,32.000 24.331,32.000 24.114 C 32.000 23.615,30.774 22.059,28.440 19.596 C 26.259 17.295,26.254 17.221,28.107 14.696 C 31.218 10.459,32.373 8.409,31.910 7.945 C 31.823 7.858,30.250 7.787,28.413 7.787 L 25.075 7.787 23.791 10.352 C 22.376 13.177,21.851 14.007,20.723 15.200 C 19.858 16.115,19.366 16.203,18.892 15.526 C 18.624 15.143,18.560 14.371,18.560 11.513 C 18.560 7.538,18.499 7.342,17.168 7.033 C 16.329 6.839,13.619 6.803,12.587 6.972 " stroke="none" fill-rule="evenodd" fill="black"></path></svg>