<svg version="1.1" xmlns="http://www.w3.org/2000/svg" width="32" height="32" viewBox="0 0 32 32"><path d="M12.904 4.853 C 10.595 5.675,8.409 7.488,7.235 9.553 C 6.828 10.269,6.540 10.508,5.867 10.689 C 1.056 11.984,-1.351 17.209,0.826 21.630 C 1.669 23.343,3.374 24.955,5.067 25.638 C 6.290 26.132,6.321 26.133,16.431 26.133 L 26.569 26.133 27.996 25.431 C 33.776 22.585,33.110 14.464,26.950 12.674 C 25.960 12.386,25.811 12.264,25.587 11.562 C 24.734 8.892,22.611 6.452,20.115 5.276 C 18.802 4.658,18.447 4.588,16.320 4.533 C 14.490 4.485,13.738 4.555,12.904 4.853 M16.597 10.069 C 16.738 10.210,16.853 10.497,16.853 10.706 C 16.853 10.933,17.134 11.208,17.547 11.384 C 18.383 11.742,19.303 12.688,19.613 13.507 C 19.738 13.838,19.840 15.044,19.840 16.187 C 19.840 18.219,19.855 18.281,20.480 18.880 C 21.683 20.033,21.606 20.053,16.000 20.053 C 10.394 20.053,10.317 20.033,11.520 18.880 C 12.146 18.280,12.160 18.222,12.160 16.167 C 12.160 14.858,12.271 13.808,12.454 13.380 C 12.807 12.555,13.755 11.629,14.560 11.326 C 14.905 11.195,15.147 10.943,15.147 10.715 C 15.147 10.234,15.545 9.813,16.000 9.813 C 16.188 9.813,16.457 9.929,16.597 10.069 M17.493 20.916 C 17.493 21.309,16.462 22.187,16.000 22.187 C 15.538 22.187,14.507 21.309,14.507 20.916 C 14.507 20.782,15.103 20.693,16.000 20.693 C 16.897 20.693,17.493 20.782,17.493 20.916 " stroke="none" fill-rule="evenodd" fill="black"></path></svg>