<svg version="1.1" xmlns="http://www.w3.org/2000/svg" width="27" height="32" viewBox="0 0 27 32"><path d="M0.475 2.815 L 0.000 3.289 0.000 16.018 L 0.000 28.747 0.441 29.224 L 0.883 29.700 7.731 29.700 L 14.580 29.700 14.580 24.390 L 14.580 19.080 12.870 19.080 L 11.160 19.080 11.160 17.010 L 11.160 14.940 12.870 14.940 L 14.580 14.940 14.586 13.635 C 14.594 11.718,14.881 9.822,15.282 9.036 C 15.797 8.026,16.931 7.084,18.022 6.760 C 18.962 6.481,22.347 6.363,22.935 6.589 C 23.168 6.679,23.220 7.019,23.220 8.454 L 23.220 10.210 21.634 10.300 C 20.762 10.350,19.879 10.481,19.673 10.592 C 19.130 10.882,18.900 11.728,18.900 13.437 L 18.900 14.940 20.965 14.940 L 23.031 14.940 22.947 15.435 C 22.835 16.091,22.500 18.701,22.500 18.913 C 22.500 19.005,21.690 19.080,20.700 19.080 L 18.900 19.080 18.900 24.390 L 18.900 29.700 22.602 29.700 C 24.809 29.700,26.444 29.625,26.652 29.514 C 26.991 29.332,27.000 28.992,27.000 16.020 C 27.000 3.048,26.991 2.708,26.652 2.526 C 26.421 2.403,22.021 2.340,13.626 2.340 L 0.949 2.340 0.475 2.815 " stroke="none" fill-rule="evenodd" fill="black"></path></svg>