<svg version="1.1" xmlns="http://www.w3.org/2000/svg" width="32" height="32" viewBox="0 0 32 32"><path d="M13.755 0.197 C 11.935 0.488,10.206 1.068,8.427 1.984 C 6.041 3.213,3.212 6.042,1.985 8.427 C 0.515 11.283,0.113 12.909,0.113 16.000 C 0.113 19.091,0.515 20.717,1.985 23.573 C 3.212 25.959,6.041 28.788,8.427 30.015 C 11.283 31.485,12.909 31.887,16.000 31.887 C 19.091 31.887,20.717 31.485,23.573 30.015 C 25.959 28.788,28.788 25.959,30.015 23.573 C 31.514 20.660,31.893 19.100,31.878 15.893 C 31.867 13.334,31.812 12.960,31.161 11.045 C 29.445 5.993,25.315 2.053,20.269 0.655 C 18.481 0.159,15.361 -0.060,13.755 0.197 M19.670 6.798 C 22.220 7.690,24.221 9.364,25.314 11.520 C 25.834 12.547,25.908 12.933,25.906 14.613 C 25.904 16.970,25.475 18.041,23.844 19.766 C 21.796 21.932,16.415 25.813,15.461 25.813 C 15.171 25.813,14.934 25.789,14.936 25.760 C 14.937 25.731,15.081 25.236,15.255 24.661 C 15.632 23.418,15.469 23.112,14.325 22.921 C 11.730 22.488,9.684 21.424,8.038 19.653 C 6.496 17.992,6.082 16.928,6.081 14.613 C 6.080 12.933,6.156 12.539,6.688 11.456 C 7.847 9.095,10.442 7.143,13.283 6.495 C 15.043 6.094,18.067 6.237,19.670 6.798 M9.006 15.520 L 9.067 17.813 10.557 17.813 C 11.807 17.813,12.059 17.753,12.119 17.440 C 12.181 17.121,12.020 17.067,11.002 17.067 L 9.813 17.067 9.813 15.147 C 9.813 13.358,9.784 13.227,9.379 13.227 C 8.966 13.227,8.948 13.336,9.006 15.520 M12.950 13.362 C 12.766 13.545,12.749 17.113,12.929 17.583 C 13.120 18.079,13.627 17.993,13.766 17.440 C 13.832 17.176,13.858 16.145,13.823 15.149 C 13.773 13.717,13.691 13.325,13.430 13.275 C 13.248 13.240,13.032 13.279,12.950 13.362 M14.979 15.520 C 15.029 17.389,15.099 17.813,15.360 17.813 C 15.603 17.813,15.706 17.460,15.787 16.338 L 15.893 14.863 16.853 16.338 C 17.513 17.351,17.947 17.813,18.240 17.813 C 18.636 17.813,18.671 17.651,18.727 15.520 C 18.784 13.352,18.764 13.227,18.363 13.227 C 17.985 13.227,17.932 13.392,17.876 14.755 L 17.813 16.284 16.798 14.755 C 16.095 13.696,15.650 13.227,15.351 13.227 C 14.940 13.227,14.922 13.339,14.979 15.520 M19.848 13.639 C 19.726 13.866,19.627 14.737,19.627 15.573 C 19.627 17.792,19.738 17.920,21.661 17.920 C 23.111 17.920,23.253 17.882,23.253 17.493 C 23.253 17.114,23.111 17.067,21.973 17.067 L 20.693 17.067 20.693 16.427 C 20.693 15.793,20.705 15.787,21.867 15.787 C 22.767 15.787,23.040 15.712,23.040 15.467 C 23.040 15.221,22.767 15.147,21.867 15.147 C 20.757 15.147,20.693 15.118,20.693 14.613 C 20.693 14.120,20.769 14.080,21.707 14.077 C 22.264 14.075,22.852 13.990,23.014 13.887 C 23.615 13.507,22.991 13.227,21.542 13.227 C 20.303 13.227,20.033 13.292,19.848 13.639 " stroke="none" fill-rule="evenodd" fill="black"></path></svg>