<svg version="1.1" xmlns="http://www.w3.org/2000/svg" width="32" height="32" viewBox="0 0 32 32"><path d="M3.405 0.480 C 2.710 0.831,2.324 1.216,1.973 1.912 C 1.494 2.863,1.493 2.871,1.493 14.132 C 1.493 26.367,1.484 26.260,2.685 27.374 C 3.018 27.683,3.742 28.028,4.319 28.151 C 5.389 28.381,23.292 28.477,23.515 28.254 C 23.580 28.189,23.455 27.546,23.237 26.825 C 23.019 26.105,22.861 25.495,22.887 25.471 C 22.912 25.446,23.941 26.333,25.173 27.440 C 26.405 28.548,28.112 30.036,28.966 30.747 L 30.518 32.039 30.459 17.230 L 30.400 2.422 29.867 1.634 C 29.573 1.201,28.943 0.656,28.466 0.424 C 27.633 0.017,27.136 0.000,15.978 0.000 L 4.357 0.000 3.405 0.480 M12.235 8.190 C 11.062 8.626,8.876 9.855,9.920 9.491 C 10.155 9.410,10.875 9.153,11.520 8.921 C 13.932 8.055,18.352 8.185,20.960 9.200 C 22.549 9.818,22.148 9.446,20.213 8.507 L 18.453 7.652 19.582 7.764 C 20.202 7.825,21.258 8.148,21.928 8.480 C 23.032 9.029,23.213 9.220,23.853 10.519 C 24.757 12.354,25.600 15.673,25.600 17.397 C 25.600 18.700,25.575 18.762,24.746 19.471 C 23.304 20.705,20.865 21.278,20.226 20.533 C 19.562 19.761,19.591 19.646,20.557 19.192 C 21.079 18.946,21.678 18.555,21.890 18.321 C 22.205 17.972,22.035 18.010,20.929 18.533 C 17.731 20.045,14.511 19.953,10.347 18.230 C 9.528 17.891,10.458 18.768,11.455 19.274 L 12.378 19.743 11.783 20.456 L 11.188 21.169 9.820 20.818 C 8.550 20.493,7.318 19.783,6.658 18.995 C 6.017 18.231,6.845 13.554,8.130 10.680 C 8.703 9.398,8.911 9.152,9.850 8.641 C 11.153 7.932,11.826 7.719,12.800 7.709 C 13.482 7.703,13.434 7.744,12.235 8.190 M12.267 13.686 C 11.597 14.053,11.307 14.532,11.307 15.270 C 11.307 16.759,12.879 17.529,13.981 16.581 C 14.828 15.852,14.839 14.663,14.004 13.946 C 13.362 13.394,12.922 13.328,12.267 13.686 M17.879 14.089 C 17.336 14.631,17.252 14.849,17.361 15.422 C 17.551 16.411,18.454 17.140,19.288 16.979 C 20.680 16.711,21.186 14.980,20.170 13.964 C 19.457 13.251,18.674 13.294,17.879 14.089 " stroke="none" fill-rule="evenodd" fill="black"></path></svg>