<svg version="1.1" xmlns="http://www.w3.org/2000/svg" width="32" height="32" viewBox="0 0 32 32"><path d="M13.973 0.119 C 13.739 0.173,13.023 0.324,12.383 0.454 C 9.789 0.981,6.692 2.723,4.628 4.816 C 0.085 9.423,-1.216 16.088,1.246 22.139 C 2.779 25.906,6.094 29.221,9.861 30.754 C 15.912 33.216,22.598 31.910,27.178 27.372 C 35.088 19.534,32.922 6.474,22.914 1.663 C 21.964 1.206,20.668 0.690,20.034 0.516 C 18.882 0.201,14.781 -0.068,13.973 0.119 M23.750 10.060 C 24.068 10.565,21.278 23.677,20.774 24.045 C 20.331 24.369,20.109 24.256,17.637 22.442 L 15.753 21.061 14.643 22.157 C 12.963 23.816,12.807 23.734,11.873 20.715 L 11.088 18.177 8.904 17.462 C 5.454 16.332,5.291 16.461,14.827 12.763 C 19.285 11.035,23.067 9.639,23.230 9.663 C 23.394 9.687,23.628 9.866,23.750 10.060 " stroke="none" fill-rule="evenodd" fill="black"></path></svg>