<svg version="1.1" xmlns="http://www.w3.org/2000/svg" width="32" height="32" viewBox="0 0 32 32"><path d="M6.021 0.513 C 5.881 0.821,5.530 1.083,5.146 1.168 C 3.745 1.475,2.000 3.248,1.633 4.736 C 1.551 5.067,1.242 5.430,0.905 5.592 C 0.154 5.952,0.140 6.628,0.877 6.981 C 1.225 7.148,1.567 7.598,1.791 8.185 C 2.274 9.450,3.668 10.789,4.944 11.212 C 5.685 11.459,5.973 11.666,5.973 11.953 C 5.973 12.173,6.139 12.445,6.341 12.558 C 6.827 12.830,7.467 12.483,7.467 11.947 C 7.467 11.651,7.696 11.475,8.287 11.316 C 9.911 10.878,11.469 9.351,11.850 7.824 C 11.939 7.469,12.211 7.142,12.512 7.028 C 12.794 6.921,13.081 6.686,13.149 6.507 C 13.305 6.101,12.867 5.547,12.391 5.547 C 12.149 5.547,11.953 5.238,11.777 4.581 C 11.420 3.248,10.055 1.809,8.695 1.332 C 7.997 1.088,7.569 0.795,7.448 0.480 C 7.193 -0.184,6.330 -0.164,6.021 0.513 M12.161 2.387 C 12.161 2.541,12.352 2.979,12.584 3.360 L 13.007 4.053 17.437 4.055 C 22.478 4.056,23.302 4.200,23.905 5.186 C 24.303 5.837,24.319 6.267,24.267 14.933 L 24.213 24.000 16.000 24.000 L 7.787 24.000 7.730 18.952 L 7.672 13.905 6.770 13.939 L 5.867 13.973 5.867 21.333 C 5.867 28.536,5.877 28.712,6.342 29.582 C 6.603 30.071,7.083 30.660,7.409 30.891 C 8.603 31.741,9.405 31.816,16.569 31.746 L 23.431 31.680 24.336 31.040 C 24.834 30.688,25.443 30.016,25.688 29.547 C 26.124 28.711,26.133 28.446,26.133 16.960 C 26.133 5.474,26.124 5.209,25.688 4.373 C 25.443 3.904,24.835 3.232,24.337 2.880 L 23.431 2.240 17.796 2.174 C 13.256 2.120,12.160 2.162,12.161 2.387 M5.973 2.865 C 5.973 3.032,6.124 3.320,6.308 3.504 C 6.737 3.933,7.467 3.593,7.467 2.965 C 7.467 2.613,7.557 2.559,7.947 2.680 C 8.795 2.944,9.599 3.641,10.031 4.489 C 10.556 5.518,10.560 5.474,9.920 5.634 C 9.177 5.821,9.168 6.764,9.907 6.949 C 10.371 7.066,10.404 7.141,10.213 7.647 C 9.943 8.360,9.237 9.125,8.491 9.514 C 7.721 9.914,7.537 9.892,7.405 9.387 C 7.252 8.803,6.265 8.803,6.080 9.387 C 5.902 9.949,5.597 9.925,4.639 9.274 C 3.536 8.525,2.785 7.040,3.509 7.040 C 3.680 7.040,3.911 6.874,4.025 6.672 C 4.274 6.226,3.965 5.547,3.512 5.547 C 2.658 5.547,3.579 3.818,4.842 3.053 C 5.788 2.480,5.973 2.450,5.973 2.865 M11.840 11.281 C 10.949 11.511,10.433 11.815,9.813 12.477 C 9.286 13.040,9.279 13.098,9.214 17.313 C 9.144 21.827,9.211 22.187,10.117 22.187 C 11.004 22.187,11.093 21.845,11.095 18.464 C 11.095 16.698,11.191 14.909,11.309 14.487 C 11.655 13.238,13.274 12.806,14.371 13.669 L 14.933 14.111 14.933 17.602 C 14.933 21.628,15.062 22.187,15.987 22.187 C 16.399 22.187,16.703 22.041,16.846 21.774 C 16.972 21.539,17.067 19.894,17.067 17.951 C 17.067 16.076,17.126 14.386,17.199 14.196 C 17.381 13.722,18.402 13.227,19.199 13.227 C 19.616 13.227,20.053 13.420,20.383 13.750 C 20.899 14.266,20.907 14.330,20.907 17.974 C 20.907 20.568,20.983 21.751,21.163 21.931 C 21.591 22.359,22.365 22.225,22.736 21.659 C 23.030 21.211,23.071 20.561,23.007 17.339 C 22.923 13.029,22.742 12.439,21.273 11.676 C 20.296 11.169,18.250 11.085,16.825 11.492 C 16.126 11.692,15.716 11.711,15.428 11.556 C 14.862 11.253,12.615 11.081,11.840 11.281 M24.320 27.190 C 24.320 28.430,23.963 29.176,23.158 29.614 C 22.609 29.914,21.637 29.981,16.969 30.044 C 10.065 30.136,9.320 30.056,8.385 29.121 C 7.772 28.508,7.680 28.275,7.680 27.328 L 7.680 26.240 16.000 26.240 L 24.320 26.240 24.320 27.190 " stroke="none" fill-rule="evenodd" fill="black"></path></svg>