<svg version="1.1" xmlns="http://www.w3.org/2000/svg" width="32" height="32" viewBox="0 0 32 32"><path d="M13.760 1.414 C 10.794 1.875,7.920 3.375,5.624 5.661 C 4.187 7.091,3.720 7.735,2.915 9.401 C 0.079 15.271,1.083 21.691,5.547 26.231 C 10.822 31.596,19.020 32.149,24.977 27.540 C 30.581 23.204,32.232 15.915,29.085 9.401 C 27.380 5.872,23.946 2.991,20.053 1.823 C 18.893 1.475,14.998 1.222,13.760 1.414 M18.719 4.160 C 20.956 4.688,22.773 5.706,24.428 7.360 C 26.908 9.838,27.959 12.379,27.959 15.893 C 27.959 19.408,26.908 21.948,24.428 24.427 C 18.017 30.836,7.217 28.125,4.456 19.413 C 3.847 17.493,3.847 14.294,4.456 12.373 C 6.372 6.329,12.630 2.725,18.719 4.160 M11.413 10.113 C 10.428 10.547,9.974 11.196,9.870 12.318 C 9.746 13.653,10.409 14.695,11.662 15.132 C 12.424 15.397,12.644 15.396,13.359 15.124 C 14.558 14.668,15.210 13.610,15.090 12.318 C 14.984 11.176,14.525 10.538,13.500 10.104 C 12.657 9.747,12.238 9.749,11.413 10.113 M18.435 10.117 C 18.073 10.274,17.560 10.678,17.294 11.015 C 16.891 11.526,16.827 11.817,16.906 12.783 C 16.985 13.744,17.113 14.038,17.664 14.531 C 18.523 15.298,19.545 15.489,20.548 15.070 C 22.660 14.188,22.686 10.997,20.589 10.120 C 19.692 9.746,19.288 9.745,18.435 10.117 M11.172 17.049 C 10.236 17.620,9.813 18.307,9.813 19.258 C 9.813 20.861,10.930 22.016,12.480 22.016 C 15.321 22.016,16.183 18.268,13.645 16.956 C 12.818 16.528,11.974 16.560,11.172 17.049 M18.436 16.847 C 17.603 17.184,16.853 18.311,16.853 19.227 C 16.853 21.338,18.719 22.578,20.677 21.767 C 21.935 21.246,22.559 19.415,21.914 18.140 C 21.325 16.976,19.653 16.354,18.436 16.847 " stroke="none" fill-rule="evenodd" fill="black"></path></svg>