<svg version="1.1" xmlns="http://www.w3.org/2000/svg" width="32" height="32" viewBox="0 0 32 32"><path d="M4.373 0.407 C 2.729 0.815,1.249 2.154,0.639 3.786 C 0.234 4.868,0.213 5.457,0.213 16.000 C 0.213 26.543,0.234 27.132,0.639 28.214 C 1.093 29.428,2.175 30.625,3.413 31.283 C 4.111 31.654,4.927 31.684,15.752 31.740 L 27.344 31.801 28.445 31.292 C 29.840 30.648,30.648 29.840,31.292 28.445 L 31.801 27.344 31.740 15.752 C 31.684 4.923,31.654 4.111,31.283 3.413 C 30.728 2.371,29.699 1.325,28.693 0.781 C 27.851 0.326,27.686 0.320,16.427 0.284 C 10.149 0.264,4.725 0.320,4.373 0.407 M17.493 5.988 C 19.454 6.306,21.307 7.284,22.685 8.728 C 24.497 10.628,25.387 12.831,25.387 15.420 C 25.387 16.588,25.356 16.665,24.915 16.602 C 24.498 16.541,24.412 16.327,24.167 14.720 C 23.808 12.365,22.933 10.567,21.536 9.311 C 20.131 8.048,18.904 7.480,16.919 7.173 C 15.313 6.924,14.982 6.709,15.227 6.073 C 15.369 5.702,15.660 5.691,17.493 5.988 M10.124 6.847 C 10.538 7.211,11.358 8.227,11.945 9.105 C 13.353 11.210,13.365 11.775,12.027 12.992 C 11.132 13.807,11.052 13.957,11.161 14.629 C 11.573 17.167,15.261 20.747,17.464 20.747 C 17.833 20.747,18.246 20.458,18.787 19.824 C 19.853 18.574,20.575 18.590,22.553 19.910 C 24.580 21.263,25.600 22.249,25.599 22.855 C 25.598 23.801,24.139 25.769,22.997 26.366 C 22.024 26.874,21.245 26.712,18.806 25.491 C 12.895 22.532,7.984 17.273,5.859 11.627 C 5.091 9.586,5.148 8.794,6.133 7.865 C 8.156 5.957,8.896 5.769,10.124 6.847 M19.546 9.070 C 21.468 10.010,22.743 11.901,22.975 14.156 C 23.064 15.019,23.013 15.330,22.745 15.553 C 22.202 16.003,21.760 15.485,21.760 14.398 C 21.760 12.315,19.768 10.039,17.659 9.711 C 17.157 9.633,16.579 9.521,16.373 9.463 C 15.995 9.357,15.867 8.741,16.160 8.441 C 16.447 8.147,18.402 8.510,19.546 9.070 M18.898 11.223 C 20.442 11.955,21.345 15.172,19.930 14.900 C 19.669 14.850,19.480 14.544,19.364 13.983 C 19.146 12.933,18.725 12.459,17.734 12.142 C 16.765 11.833,16.549 11.637,16.712 11.214 C 16.880 10.776,17.965 10.780,18.898 11.223 " stroke="none" fill-rule="evenodd" fill="black"></path></svg>