<svg version="1.1" xmlns="http://www.w3.org/2000/svg" width="32" height="32" viewBox="0 0 32 32"><path d="M10.219 0.413 C 8.220 1.501,7.856 4.058,9.469 5.672 C 10.322 6.525,11.370 6.824,13.512 6.825 L 15.184 6.827 15.112 4.495 C 15.035 1.988,14.846 1.498,13.603 0.570 C 12.795 -0.033,11.176 -0.109,10.219 0.413 M18.869 0.300 C 18.014 0.673,17.115 1.761,16.956 2.620 C 16.885 2.997,16.858 5.484,16.894 8.145 C 16.955 12.642,16.991 13.025,17.400 13.572 C 18.476 15.012,19.859 15.442,21.454 14.833 C 22.136 14.572,22.593 14.206,22.998 13.594 L 23.573 12.725 23.573 7.589 C 23.573 2.569,23.562 2.435,23.072 1.647 C 22.191 0.229,20.371 -0.354,18.869 0.300 M1.467 9.054 C -0.503 10.392,-0.450 13.088,1.575 14.600 C 2.134 15.017,2.443 15.040,7.573 15.040 C 12.703 15.040,13.012 15.017,13.571 14.600 C 13.895 14.358,14.337 13.924,14.552 13.635 C 15.544 12.307,15.115 10.029,13.691 9.061 C 12.916 8.534,12.903 8.533,7.573 8.533 C 2.263 8.533,2.228 8.536,1.467 9.054 M26.870 9.014 C 25.657 9.831,25.302 10.699,25.207 13.081 L 25.122 15.186 27.480 15.113 C 29.456 15.052,29.932 14.969,30.425 14.600 C 32.450 13.087,32.502 10.392,30.533 9.054 C 29.501 8.352,27.878 8.334,26.870 9.014 M2.016 17.153 C -0.087 18.069,-0.640 20.893,0.969 22.501 C 2.358 23.891,4.301 23.902,5.675 22.528 C 6.523 21.680,6.824 20.628,6.825 18.507 L 6.827 16.853 4.747 16.862 C 3.504 16.867,2.405 16.984,2.016 17.153 M10.326 17.248 C 9.798 17.495,9.250 17.983,8.940 18.481 C 8.435 19.293,8.427 19.391,8.427 24.427 C 8.427 29.430,8.438 29.565,8.928 30.353 C 10.243 32.468,13.047 32.504,14.600 30.425 C 15.011 29.875,15.044 29.500,15.104 24.750 C 15.176 19.030,15.097 18.606,13.781 17.602 C 12.773 16.833,11.494 16.702,10.326 17.248 M18.880 17.149 C 17.691 17.688,16.848 18.971,16.858 20.227 C 16.866 21.229,17.602 22.514,18.481 23.060 C 19.293 23.565,19.391 23.573,24.427 23.573 C 29.430 23.573,29.565 23.562,30.353 23.072 C 32.468 21.757,32.504 18.953,30.425 17.400 C 29.873 16.988,29.512 16.957,24.678 16.909 C 20.699 16.870,19.374 16.925,18.880 17.149 M16.887 27.612 C 16.947 29.454,17.036 29.938,17.400 30.425 C 18.937 32.482,21.639 32.500,22.988 30.462 C 24.004 28.927,23.568 26.935,21.984 25.867 C 21.357 25.445,21.000 25.387,19.042 25.387 L 16.814 25.387 16.887 27.612 " stroke="none" fill-rule="evenodd" fill="black"></path></svg>