<svg version="1.1" xmlns="http://www.w3.org/2000/svg" width="32" height="32" viewBox="0 0 32 32"><path d="M7.627 6.204 C 7.300 6.394,7.253 6.787,7.253 9.380 L 7.253 12.339 6.516 12.794 C 5.354 13.512,3.985 15.184,3.526 16.445 C 2.134 20.266,4.288 24.553,8.181 25.709 C 9.847 26.204,22.972 26.171,24.529 25.668 C 26.729 24.957,28.536 22.709,28.909 20.216 C 29.225 18.114,27.908 15.449,25.928 14.182 C 24.969 13.569,24.786 13.344,24.674 12.641 C 24.467 11.349,23.311 9.257,22.332 8.404 C 21.841 7.977,20.816 7.327,20.053 6.960 C 18.784 6.350,18.485 6.293,16.529 6.293 C 14.542 6.293,14.289 6.343,12.966 6.995 C 11.972 7.484,11.183 8.092,10.357 9.005 L 9.173 10.313 9.173 8.364 C 9.173 6.655,9.122 6.388,8.761 6.194 C 8.257 5.924,8.104 5.926,7.627 6.204 M19.688 8.492 C 22.011 9.519,23.443 11.720,23.659 14.596 C 23.795 16.403,24.174 16.953,24.411 15.689 C 24.489 15.274,24.623 14.933,24.709 14.933 C 24.990 14.933,26.473 16.487,26.833 17.158 C 27.063 17.586,27.187 18.342,27.192 19.341 C 27.199 20.702,27.130 20.968,26.556 21.785 C 26.154 22.358,25.485 22.925,24.772 23.297 L 23.631 23.893 16.242 23.889 C 7.901 23.883,7.837 23.873,6.372 22.248 C 5.344 21.107,5.043 20.119,5.172 18.312 C 5.293 16.615,5.987 15.287,7.310 14.221 C 7.987 13.675,8.356 13.555,9.657 13.453 C 10.505 13.387,11.189 13.237,11.176 13.120 C 11.163 13.003,10.849 12.759,10.477 12.579 L 9.802 12.250 10.485 11.220 C 11.462 9.744,13.119 8.603,15.040 8.083 C 16.074 7.803,18.643 8.029,19.688 8.492 M12.203 13.269 C 12.062 13.410,11.947 13.823,11.947 14.187 C 11.947 15.001,12.280 15.360,13.039 15.360 C 14.089 15.360,14.293 15.169,14.293 14.187 C 14.293 13.550,14.191 13.233,13.956 13.143 C 13.400 12.929,12.476 12.996,12.203 13.269 M15.317 13.555 C 15.150 13.923,15.136 14.283,15.274 14.675 C 15.454 15.187,15.586 15.253,16.432 15.253 L 17.387 15.253 17.454 14.314 C 17.530 13.250,17.320 13.022,16.262 13.017 C 15.720 13.014,15.509 13.134,15.317 13.555 M18.536 13.514 C 18.376 13.866,18.364 14.237,18.500 14.646 C 18.682 15.191,18.798 15.253,19.644 15.253 L 20.587 15.253 20.587 14.187 L 20.587 13.120 19.681 13.054 C 18.894 12.998,18.744 13.058,18.536 13.514 M12.320 16.444 C 11.860 16.711,11.815 17.972,12.252 18.334 C 12.420 18.474,12.924 18.557,13.372 18.520 C 14.171 18.455,14.188 18.435,14.254 17.514 C 14.297 16.908,14.222 16.513,14.041 16.398 C 13.659 16.156,12.774 16.179,12.320 16.444 M15.482 16.549 C 15.075 16.955,15.048 17.704,15.422 18.215 C 15.623 18.490,15.925 18.573,16.542 18.522 C 17.376 18.454,17.388 18.441,17.454 17.514 C 17.497 16.908,17.422 16.513,17.241 16.398 C 16.783 16.108,15.842 16.188,15.482 16.549 M18.855 16.377 C 18.463 16.635,18.322 17.400,18.554 18.011 C 18.750 18.527,18.864 18.578,19.679 18.519 L 20.587 18.453 20.654 17.514 C 20.697 16.908,20.622 16.513,20.441 16.398 C 20.094 16.178,19.176 16.166,18.855 16.377 M12.037 20.149 C 11.962 20.448,11.962 20.938,12.037 21.238 C 12.163 21.739,12.255 21.778,13.180 21.718 L 14.187 21.653 14.187 20.693 L 14.187 19.733 13.180 19.669 C 12.255 19.609,12.163 19.648,12.037 20.149 M15.276 19.964 C 15.053 20.545,15.134 21.271,15.452 21.534 C 15.620 21.674,16.124 21.757,16.572 21.720 C 17.382 21.654,17.387 21.647,17.452 20.640 L 17.517 19.627 16.461 19.627 C 15.695 19.627,15.370 19.719,15.276 19.964 M18.430 20.176 C 18.355 20.478,18.401 20.963,18.534 21.255 C 18.744 21.716,18.892 21.776,19.681 21.719 L 20.587 21.653 20.652 20.640 L 20.717 19.627 19.642 19.627 C 18.666 19.627,18.556 19.677,18.430 20.176 " stroke="none" fill-rule="evenodd" fill="black"></path></svg>