<svg version="1.1" xmlns="http://www.w3.org/2000/svg" width="32" height="32" viewBox="0 0 32 32"><path d="M10.027 0.249 C 10.027 0.387,10.311 1.003,10.659 1.619 L 11.291 2.739 10.248 3.408 C 8.208 4.717,6.735 6.806,6.220 9.120 L 6.019 10.027 14.984 10.027 L 23.949 10.027 23.827 9.272 C 23.650 8.182,22.717 6.250,21.866 5.212 C 21.222 4.426,19.581 3.149,18.941 2.936 C 18.818 2.895,19.014 2.285,19.385 1.549 C 20.207 -0.079,19.887 -0.439,18.997 1.113 C 18.642 1.733,18.321 2.326,18.285 2.431 C 18.249 2.536,17.854 2.501,17.407 2.354 C 16.564 2.075,12.817 2.136,12.119 2.439 C 11.831 2.564,11.624 2.332,11.102 1.298 C 10.499 0.102,10.027 -0.358,10.027 0.249 M11.947 5.973 C 12.561 6.587,12.499 7.550,11.811 8.091 C 11.502 8.334,11.131 8.533,10.987 8.533 C 10.842 8.533,10.471 8.334,10.162 8.091 C 9.125 7.276,9.686 5.547,10.987 5.547 C 11.280 5.547,11.712 5.739,11.947 5.973 M19.956 6.070 C 20.581 6.695,20.620 7.246,20.087 7.905 C 19.633 8.466,18.499 8.567,18.031 8.089 C 17.427 7.472,17.413 6.674,17.997 6.091 C 18.681 5.407,19.286 5.400,19.956 6.070 M1.723 10.579 L 1.067 11.131 1.067 16.000 L 1.067 20.869 1.723 21.421 C 2.431 22.016,3.090 22.111,3.913 21.736 C 4.916 21.279,5.013 20.760,5.013 15.843 L 5.013 11.271 4.317 10.649 C 3.439 9.865,2.598 9.842,1.723 10.579 M25.665 10.542 L 25.067 11.056 25.067 16.000 L 25.067 20.944 25.665 21.458 C 26.457 22.139,27.517 22.139,28.308 21.458 L 28.907 20.944 28.907 16.000 L 28.907 11.056 28.308 10.542 C 27.517 9.861,26.457 9.861,25.665 10.542 M5.974 17.758 C 5.974 22.873,6.019 23.661,6.347 24.305 C 6.871 25.332,7.685 25.856,8.944 25.977 L 10.027 26.081 10.027 28.417 C 10.027 30.714,10.037 30.763,10.650 31.376 C 11.348 32.074,12.068 32.169,13.001 31.686 C 13.823 31.261,14.080 30.388,14.080 28.021 L 14.080 26.027 15.040 26.027 L 16.000 26.027 16.000 28.390 C 16.000 30.717,16.009 30.762,16.624 31.376 C 17.317 32.070,18.041 32.169,18.956 31.696 C 19.825 31.246,20.053 30.514,20.053 28.177 L 20.053 26.081 21.088 25.982 C 22.237 25.871,23.021 25.388,23.609 24.427 C 23.963 23.847,24.000 23.235,24.000 17.920 L 24.000 12.053 14.987 11.998 L 5.973 11.942 5.974 17.758 " stroke="none" fill-rule="evenodd" fill="black"></path></svg>