<svg version="1.1" xmlns="http://www.w3.org/2000/svg" width="32" height="32" viewBox="0 0 32 32"><path d="M12.373 0.399 C 6.891 1.638,2.577 5.631,0.704 11.200 C 0.187 12.736,0.129 13.216,0.124 16.000 C 0.118 18.922,0.155 19.200,0.787 21.024 C 1.728 23.737,2.794 25.439,4.795 27.423 C 6.126 28.741,6.969 29.364,8.437 30.111 C 11.378 31.609,12.599 31.892,16.107 31.884 C 18.887 31.878,19.226 31.832,21.016 31.213 C 23.679 30.293,25.418 29.198,27.413 27.185 C 28.701 25.886,29.362 24.997,30.106 23.559 C 31.840 20.209,31.893 19.827,31.893 10.651 L 31.893 2.636 31.325 1.777 C 30.967 1.236,30.394 0.747,29.780 0.459 C 28.838 0.016,28.553 0.001,21.389 0.019 C 15.238 0.034,13.700 0.099,12.373 0.399 M22.515 9.788 C 23.563 10.263,24.439 11.261,24.764 12.349 C 24.909 12.831,24.976 14.184,24.930 15.699 C 24.843 18.572,24.608 19.196,23.181 20.351 L 22.361 21.013 15.960 21.076 C 11.321 21.121,9.476 21.070,9.259 20.890 C 9.022 20.692,8.960 19.809,8.960 16.605 C 8.960 12.240,9.094 11.619,10.274 10.518 C 11.361 9.504,11.962 9.404,16.960 9.400 C 21.063 9.396,21.762 9.445,22.515 9.788 M11.520 13.326 C 11.520 14.235,12.029 14.318,17.208 14.250 C 21.373 14.195,22.064 14.139,22.251 13.842 C 22.370 13.653,22.408 13.341,22.334 13.149 C 22.215 12.839,21.607 12.800,16.860 12.800 L 11.520 12.800 11.520 13.326 M12.640 16.570 C 11.624 16.654,11.520 16.710,11.520 17.177 C 11.520 17.467,11.700 17.788,11.933 17.912 C 12.160 18.034,13.648 18.133,15.239 18.133 C 17.838 18.133,18.176 18.090,18.555 17.712 C 19.157 17.110,18.893 16.640,17.951 16.639 C 17.523 16.638,16.405 16.602,15.467 16.558 C 14.528 16.514,13.256 16.520,12.640 16.570 " stroke="none" fill-rule="evenodd" fill="black"></path></svg>