<svg version="1.1" xmlns="http://www.w3.org/2000/svg" width="32" height="32" viewBox="0 0 32 32"><path d="M8.747 3.228 C 7.047 3.505,4.365 4.864,2.935 6.172 C 2.066 6.968,1.478 7.763,0.909 8.915 C 0.149 10.451,0.107 10.646,0.110 12.576 C 0.114 14.431,0.175 14.737,0.795 16.000 C 1.471 17.377,2.441 18.565,3.804 19.684 L 4.514 20.268 4.039 21.707 C 3.778 22.499,3.517 23.274,3.459 23.430 C 3.402 23.586,4.255 23.262,5.355 22.709 L 7.355 21.705 8.662 21.946 C 9.381 22.078,10.486 22.187,11.118 22.187 L 12.267 22.187 12.192 20.258 C 12.069 17.098,13.198 14.672,15.620 12.889 C 17.234 11.701,18.862 11.106,20.939 10.946 C 22.303 10.841,22.613 10.751,22.613 10.464 C 22.613 9.681,21.393 7.712,20.141 6.475 C 17.322 3.689,13.173 2.507,8.747 3.228 M8.739 8.306 C 9.406 9.551,8.564 10.880,7.308 10.567 C 6.015 10.244,5.572 9.148,6.400 8.320 C 6.982 7.738,8.430 7.729,8.739 8.306 M16.597 8.149 C 16.738 8.290,16.853 8.768,16.853 9.211 C 16.853 10.223,16.152 10.781,15.156 10.562 C 13.973 10.302,13.512 9.102,14.293 8.320 C 14.776 7.837,16.181 7.733,16.597 8.149 M19.894 11.745 C 17.307 12.256,14.529 14.352,13.483 16.582 C 12.991 17.634,12.907 18.092,12.907 19.733 C 12.907 21.397,12.985 21.813,13.494 22.850 C 15.237 26.398,20.043 28.581,24.140 27.685 L 25.707 27.343 27.253 28.169 C 28.104 28.624,28.800 28.950,28.800 28.895 C 28.800 28.839,28.642 28.225,28.449 27.531 L 28.098 26.268 29.395 24.971 C 31.207 23.159,31.893 21.690,31.893 19.622 C 31.893 18.240,31.796 17.821,31.193 16.596 C 29.343 12.837,24.626 10.812,19.894 11.745 M20.267 16.427 C 20.776 16.936,20.808 17.348,20.372 17.784 C 19.586 18.570,18.464 18.356,18.217 17.372 C 17.931 16.233,19.397 15.557,20.267 16.427 M26.406 16.332 C 27.231 16.910,26.880 17.982,25.778 18.247 C 25.361 18.347,25.092 18.265,24.765 17.938 C 24.207 17.380,24.202 16.971,24.747 16.427 C 25.259 15.914,25.768 15.885,26.406 16.332 " stroke="none" fill-rule="evenodd" fill="black"></path></svg>