<svg version="1.1" xmlns="http://www.w3.org/2000/svg" width="36" height="32" viewBox="0 0 36 32"><path d="M2.927 0.237 C 2.491 0.340,1.651 0.609,1.062 0.834 L -0.011 1.244 1.283 2.641 C 2.906 4.394,3.840 6.219,3.840 7.635 C 3.840 8.483,3.688 8.870,3.085 9.557 C 2.669 10.030,1.994 11.124,1.585 11.989 C 0.906 13.420,0.840 13.773,0.840 15.960 C 0.840 18.147,0.906 18.500,1.585 19.931 C 1.994 20.796,2.669 21.890,3.085 22.363 C 3.688 23.050,3.840 23.437,3.840 24.285 C 3.840 25.701,2.906 27.526,1.281 29.281 L -0.015 30.680 1.349 31.190 C 3.258 31.904,5.955 32.066,7.985 31.587 C 9.900 31.136,11.184 30.526,12.874 29.265 L 14.107 28.344 16.220 28.562 C 24.504 29.417,32.900 25.652,35.502 19.916 C 35.905 19.027,35.990 18.335,35.995 15.938 C 36.000 13.185,35.963 12.962,35.276 11.587 C 34.295 9.624,32.960 8.169,30.842 6.752 C 27.094 4.245,23.331 3.282,17.754 3.401 L 14.028 3.480 12.834 2.610 C 11.170 1.398,9.863 0.776,8.108 0.363 C 6.501 -0.016,4.229 -0.071,2.927 0.237 M24.600 7.435 C 28.258 8.611,31.105 10.677,32.349 13.058 C 33.238 14.759,33.238 17.114,32.350 18.840 C 31.000 21.466,27.761 23.657,23.640 24.734 C 21.328 25.339,17.017 25.457,14.583 24.982 L 12.966 24.667 11.583 25.932 C 10.822 26.628,9.767 27.390,9.237 27.625 C 8.349 28.019,6.240 28.595,6.240 28.443 C 6.240 28.407,6.531 27.744,6.886 26.969 C 7.389 25.871,7.535 25.179,7.546 23.830 L 7.560 22.101 6.445 20.950 C 4.770 19.222,4.214 17.979,4.215 15.960 C 4.215 14.617,4.341 14.040,4.841 13.080 C 6.043 10.776,8.848 8.665,12.138 7.588 C 14.353 6.863,15.443 6.744,19.200 6.820 C 22.259 6.882,23.219 6.991,24.600 7.435 M10.189 14.509 C 8.895 15.803,9.808 18.000,11.640 18.000 C 13.549 18.000,14.458 15.723,13.053 14.460 C 12.227 13.717,10.960 13.738,10.189 14.509 M17.034 14.527 C 15.774 15.868,16.723 18.000,18.581 18.000 C 19.670 18.000,20.640 17.018,20.640 15.916 C 20.640 14.101,18.286 13.193,17.034 14.527 M23.869 14.509 C 23.092 15.286,23.104 16.314,23.901 17.262 C 24.748 18.268,25.914 18.283,26.898 17.298 C 27.860 16.337,27.762 15.073,26.661 14.228 C 25.985 13.708,24.522 13.856,23.869 14.509 " stroke="none" fill-rule="evenodd" fill="black"></path></svg>