<svg version="1.1" xmlns="http://www.w3.org/2000/svg" width="32" height="32" viewBox="0 0 32 32"><path d="M12.704 0.338 C 4.092 2.267,-1.409 10.638,0.337 19.156 C 2.595 30.170,15.285 35.535,24.649 29.434 C 26.305 28.355,28.699 25.882,29.703 24.213 C 35.073 15.286,30.537 3.765,20.434 0.670 C 18.436 0.059,14.674 -0.103,12.704 0.338 M22.144 8.839 C 23.651 9.529,25.065 10.934,25.818 12.490 C 26.539 13.979,26.504 16.587,25.744 18.072 C 24.637 20.232,23.020 21.494,20.727 21.986 L 19.627 22.222 19.623 23.538 C 19.622 24.261,19.532 24.993,19.424 25.163 C 19.165 25.572,18.735 25.339,16.510 23.588 L 14.799 22.241 12.786 22.147 C 11.162 22.070,10.540 21.940,9.566 21.473 C 6.656 20.077,5.068 16.722,5.853 13.629 C 6.550 10.880,8.676 8.760,11.200 8.296 C 11.669 8.210,14.021 8.158,16.427 8.182 C 20.752 8.224,20.815 8.231,22.144 8.839 M10.550 14.812 C 9.942 15.741,10.952 16.845,12.033 16.434 C 12.667 16.193,12.938 15.377,12.597 14.740 C 12.244 14.079,11.001 14.123,10.550 14.812 M14.928 14.841 C 14.552 15.829,15.554 16.894,16.422 16.429 C 17.065 16.085,17.314 15.477,17.072 14.841 C 16.896 14.377,16.731 14.293,16.000 14.293 C 15.269 14.293,15.104 14.377,14.928 14.841 M19.403 14.740 C 18.859 15.756,19.932 16.948,20.916 16.422 C 22.124 15.775,21.748 14.293,20.376 14.293 C 19.849 14.293,19.574 14.419,19.403 14.740 " stroke="none" fill-rule="evenodd" fill="black"></path></svg>