<svg version="1.1" xmlns="http://www.w3.org/2000/svg" width="32" height="32" viewBox="0 0 32 32"><path d="M14.400 0.449 C 4.943 1.345,-1.556 10.546,0.778 19.733 C 1.911 24.193,5.007 28.028,9.040 29.965 C 11.712 31.249,13.706 31.653,16.714 31.521 C 20.937 31.335,23.989 29.987,26.987 26.983 C 30.176 23.786,31.592 20.374,31.597 15.874 C 31.599 13.346,31.144 11.451,29.939 8.967 C 29.106 7.250,28.666 6.655,27.013 5.004 C 25.411 3.405,24.720 2.887,23.107 2.081 C 20.293 0.675,17.514 0.154,14.400 0.449 M19.296 3.313 C 23.572 4.427,27.179 8.019,28.501 12.480 C 28.963 14.039,29.019 17.309,28.613 18.987 C 27.587 23.227,24.108 26.964,19.957 28.281 C 16.585 29.352,13.371 29.138,10.347 27.639 C 4.960 24.971,2.128 19.282,3.218 13.319 C 4.063 8.693,8.168 4.432,12.881 3.288 C 14.438 2.910,17.800 2.923,19.296 3.313 M13.115 9.781 C 9.849 11.327,8.326 14.921,9.485 18.347 C 9.781 19.221,10.213 19.851,11.181 20.819 C 12.663 22.301,14.045 22.897,16.000 22.897 C 17.955 22.897,19.337 22.301,20.819 20.819 C 21.796 19.842,22.214 19.229,22.507 18.347 C 23.330 15.869,22.837 13.356,21.163 11.494 C 19.072 9.168,15.858 8.484,13.115 9.781 M18.639 11.273 C 20.381 12.205,21.376 13.924,21.376 16.000 C 21.376 18.117,20.388 19.784,18.532 20.795 C 17.599 21.304,17.130 21.420,16.000 21.420 C 12.904 21.420,10.629 19.125,10.629 16.000 C 10.629 13.922,11.486 12.360,13.165 11.375 C 14.954 10.327,16.808 10.292,18.639 11.273 M12.843 13.407 C 10.771 14.511,10.798 17.652,12.889 18.644 C 13.812 19.082,14.570 19.078,15.513 18.630 C 16.500 18.162,17.065 17.205,17.065 16.000 C 17.065 13.719,14.831 12.346,12.843 13.407 " stroke="none" fill-rule="evenodd" fill="black"></path></svg>