<svg version="1.1" xmlns="http://www.w3.org/2000/svg" width="32" height="32" viewBox="0 0 32 32"><path d="M12.907 0.338 C 9.657 1.062,7.276 2.362,4.923 4.697 C 0.202 9.380,-1.074 16.090,1.587 22.244 L 2.304 23.902 1.261 27.684 C 0.688 29.765,0.218 31.578,0.216 31.715 C 0.214 31.874,1.658 31.586,4.267 30.906 L 8.321 29.849 10.294 30.586 C 14.901 32.309,18.776 32.109,23.253 29.921 C 24.964 29.084,25.581 28.629,27.211 26.998 C 28.836 25.373,29.301 24.745,30.139 23.040 C 31.424 20.427,31.851 18.619,31.853 15.787 C 31.857 8.640,27.076 2.423,20.129 0.540 C 18.264 0.034,14.714 -0.065,12.907 0.338 M20.475 3.480 C 22.413 4.166,24.643 5.651,25.939 7.122 C 26.468 7.722,27.282 8.981,27.748 9.920 C 29.667 13.790,29.689 17.919,27.809 21.760 C 26.827 23.768,24.223 26.449,22.254 27.480 C 18.526 29.431,13.871 29.500,10.209 27.657 L 8.818 26.957 6.595 27.547 C 5.373 27.871,4.267 28.142,4.138 28.148 C 3.992 28.156,4.147 27.267,4.544 25.820 L 5.185 23.481 4.408 21.927 C 3.378 19.870,2.987 18.227,2.987 15.966 C 2.987 13.477,3.277 12.193,4.330 10.027 C 5.929 6.737,9.172 4.083,12.800 3.096 C 14.688 2.582,18.471 2.771,20.475 3.480 M9.516 8.980 C 8.655 9.657,8.073 10.977,8.061 12.276 C 8.035 15.174,11.962 20.179,15.756 22.084 C 18.636 23.531,20.582 23.804,22.182 22.987 C 23.339 22.395,23.889 21.670,24.042 20.530 L 24.159 19.658 22.431 18.789 C 21.480 18.311,20.515 17.920,20.286 17.920 C 20.050 17.920,19.526 18.338,19.082 18.880 C 18.649 19.408,18.152 19.840,17.977 19.840 C 17.186 19.840,15.039 18.400,13.742 16.999 C 12.007 15.125,11.914 14.788,12.821 13.660 C 13.612 12.675,13.613 12.683,12.349 9.867 C 11.763 8.561,11.734 8.533,10.918 8.533 C 10.395 8.533,9.873 8.700,9.516 8.980 " stroke="none" fill-rule="evenodd" fill="black"></path></svg>