<svg version="1.1" xmlns="http://www.w3.org/2000/svg" width="25" height="32" viewBox="0 0 25 32"><path d="M5.667 5.116 C 5.667 6.309,5.618 7.750,5.559 8.319 L 5.450 9.353 4.841 8.757 C 3.787 7.728,2.459 7.665,1.485 8.597 C 0.224 9.806,0.532 11.836,2.090 12.575 L 2.686 12.858 2.252 13.554 C 1.225 15.202,0.629 16.663,0.542 17.743 C 0.370 19.890,0.905 20.951,3.659 23.917 C 5.557 25.962,5.741 26.244,5.905 27.375 L 6.020 28.167 10.836 28.167 L 15.652 28.167 15.756 27.542 C 15.969 26.277,16.202 25.854,17.447 24.483 C 20.634 20.973,21.167 20.056,21.167 18.083 C 21.167 16.805,20.797 15.732,19.762 14.002 L 19.021 12.762 19.620 12.423 C 21.318 11.461,21.437 9.272,19.850 8.212 C 18.820 7.523,17.139 7.848,16.547 8.850 C 16.109 9.591,16.006 9.161,16.001 6.583 C 15.998 5.300,15.950 3.970,15.893 3.628 L 15.791 3.005 14.687 3.865 C 14.080 4.338,13.490 4.839,13.375 4.978 C 13.253 5.125,13.167 5.703,13.167 6.365 L 13.167 7.500 10.667 7.500 L 8.167 7.500 8.167 6.270 L 8.167 5.040 7.208 4.240 C 6.681 3.799,6.119 3.328,5.958 3.194 C 5.683 2.962,5.667 3.069,5.667 5.116 M7.559 7.841 C 7.579 9.952,7.636 10.513,7.876 10.952 C 8.145 11.444,8.148 11.540,7.912 12.129 C 7.726 12.595,7.505 12.825,7.106 12.969 C 5.624 13.505,5.165 15.195,5.770 17.884 C 6.241 19.975,7.447 22.167,8.127 22.167 C 8.498 22.167,9.000 21.673,9.000 21.308 C 9.000 21.028,9.160 21.000,10.750 21.000 C 12.382 21.000,12.500 21.022,12.500 21.329 C 12.500 21.723,13.182 22.214,13.539 22.077 C 13.865 21.952,14.772 20.687,15.102 19.898 C 15.457 19.048,15.992 16.559,15.996 15.738 C 16.004 14.238,15.156 12.833,14.243 12.833 C 13.944 12.833,13.811 12.677,13.610 12.086 C 13.378 11.405,13.380 11.292,13.636 10.795 C 13.867 10.346,13.909 9.829,13.876 7.855 L 13.835 5.460 14.450 4.897 C 14.788 4.587,15.125 4.333,15.199 4.333 C 15.273 4.333,15.334 5.327,15.336 6.542 C 15.339 9.300,15.511 10.040,16.979 13.600 C 18.257 16.699,18.423 17.320,18.262 18.395 C 18.098 19.488,17.411 20.387,15.837 21.566 C 14.075 22.886,13.625 23.364,13.625 23.913 C 13.625 24.385,14.088 25.000,14.442 25.000 C 14.566 25.000,14.667 25.150,14.667 25.333 C 14.667 25.628,14.556 25.667,13.719 25.667 C 12.988 25.667,12.687 25.587,12.402 25.319 C 11.594 24.561,9.878 24.614,9.236 25.417 C 8.922 25.811,8.796 25.847,7.903 25.801 C 7.025 25.756,6.911 25.709,6.863 25.375 C 6.823 25.093,6.893 25.000,7.146 25.000 C 7.545 25.000,8.000 24.408,8.000 23.889 C 8.000 23.523,7.824 23.352,5.167 21.134 C 2.744 19.113,2.699 17.849,4.872 12.917 C 5.852 10.693,6.174 9.260,6.285 6.629 L 6.383 4.340 6.959 4.803 L 7.535 5.265 7.559 7.841 M8.833 9.583 C 8.833 10.362,8.792 11.000,8.741 11.000 C 8.534 11.000,8.167 9.795,8.167 9.116 C 8.167 8.347,8.251 8.167,8.611 8.167 C 8.779 8.167,8.833 8.514,8.833 9.583 M10.500 14.250 L 10.500 20.333 10.000 20.333 L 9.500 20.333 9.500 14.250 L 9.500 8.167 10.000 8.167 L 10.500 8.167 10.500 14.250 M12.000 14.250 L 12.000 20.333 11.583 20.333 L 11.167 20.333 11.167 14.250 L 11.167 8.167 11.583 8.167 L 12.000 8.167 12.000 14.250 M13.332 8.875 C 13.331 9.688,13.063 10.775,12.827 10.920 C 12.729 10.981,12.667 10.465,12.667 9.593 C 12.667 8.278,12.693 8.167,13.000 8.167 C 13.281 8.167,13.333 8.277,13.332 8.875 M8.597 20.396 C 8.463 20.499,8.331 20.807,8.302 21.081 L 8.250 21.579 7.860 21.165 C 7.251 20.516,6.856 19.624,6.481 18.043 C 5.840 15.349,6.244 13.644,7.549 13.532 C 8.120 13.483,8.163 13.435,8.449 12.532 L 8.750 11.583 8.795 15.896 C 8.832 19.511,8.800 20.239,8.597 20.396 M13.235 12.875 C 13.444 13.402,13.561 13.500,13.980 13.500 C 14.525 13.500,14.945 13.834,15.181 14.453 C 15.624 15.620,15.086 18.624,14.116 20.392 C 13.474 21.561,13.167 21.761,13.167 21.009 C 13.167 20.701,13.065 20.450,12.917 20.394 C 12.703 20.312,12.668 19.667,12.678 15.941 C 12.685 13.236,12.746 11.710,12.838 11.917 C 12.920 12.100,13.099 12.531,13.235 12.875 " stroke="none" fill-rule="evenodd" fill="black"></path></svg>