<svg version="1.1" xmlns="http://www.w3.org/2000/svg" width="32" height="32" viewBox="0 0 32 32"><path d="M3.432 0.366 C 2.914 0.549,2.089 1.100,1.598 1.591 C -0.017 3.206,-0.000 3.049,0.000 16.000 C 0.000 28.947,-0.017 28.794,1.594 30.406 C 3.206 32.017,3.053 32.000,16.000 32.000 C 28.947 32.000,28.794 32.017,30.406 30.406 C 32.017 28.794,32.000 28.947,32.000 16.000 C 32.000 3.053,32.017 3.206,30.406 1.594 C 28.790 -0.021,28.961 -0.002,15.909 0.017 C 6.035 0.031,4.238 0.082,3.432 0.366 M22.961 5.890 C 23.445 6.062,24.012 6.391,24.220 6.621 C 24.706 7.158,25.003 7.144,26.549 6.508 C 27.247 6.221,27.855 6.023,27.899 6.068 C 28.055 6.224,27.466 7.150,26.705 7.947 C 25.850 8.840,25.903 8.877,27.395 8.424 C 27.972 8.249,28.491 8.153,28.549 8.211 C 28.607 8.269,28.124 8.848,27.474 9.497 C 26.313 10.659,26.292 10.702,26.149 12.219 C 25.817 15.756,24.579 18.900,22.560 21.333 C 19.709 24.770,15.908 26.525,11.307 26.529 C 8.790 26.531,7.144 26.169,4.919 25.122 L 3.520 24.464 5.013 24.283 C 6.908 24.052,8.806 23.425,9.996 22.635 L 10.925 22.018 10.060 21.872 C 8.864 21.670,7.347 20.608,6.715 19.531 C 6.425 19.035,6.187 18.571,6.187 18.500 C 6.187 18.428,6.643 18.338,7.200 18.300 C 8.202 18.230,8.207 18.227,7.612 17.968 C 5.918 17.231,4.628 15.615,4.351 13.885 C 4.213 13.016,4.233 12.955,4.607 13.103 C 4.831 13.191,5.335 13.317,5.728 13.383 L 6.443 13.503 5.907 12.967 C 4.912 11.971,4.394 10.682,4.383 9.173 C 4.378 8.411,4.501 7.484,4.657 7.115 L 4.940 6.443 6.285 7.755 C 7.025 8.476,8.241 9.429,8.988 9.872 C 10.473 10.752,13.178 11.693,14.773 11.885 L 15.787 12.006 15.787 10.722 C 15.787 9.294,16.137 8.270,16.961 7.291 C 18.431 5.544,20.573 5.043,22.961 5.890 " stroke="none" fill-rule="evenodd" fill="black"></path></svg>