<svg width="24" height="24" viewBox="0 0 24 24" fill="none" xmlns="http://www.w3.org/2000/svg"><path d="M10.466 1.131 C 8.130 1.410,6.075 2.444,4.259 4.256 C 2.916 5.596,2.071 6.957,1.489 8.720 C 1.124 9.828,1.067 10.268,1.067 12.000 C 1.067 13.732,1.124 14.172,1.489 15.280 C 2.070 17.040,2.915 18.403,4.256 19.744 C 5.597 21.085,6.960 21.930,8.720 22.511 C 9.828 22.876,10.268 22.933,12.000 22.933 C 13.732 22.933,14.172 22.876,15.280 22.511 C 17.040 21.930,18.403 21.085,19.744 19.744 C 21.085 18.403,21.930 17.040,22.511 15.280 C 22.876 14.172,22.933 13.732,22.933 12.000 C 22.933 10.271,22.876 9.826,22.512 8.720 C 20.810 3.543,15.945 0.478,10.466 1.131 M14.225 3.286 C 15.737 3.643,17.053 4.412,18.321 5.679 C 20.137 7.496,20.955 9.458,20.955 12.000 C 20.955 14.542,20.137 16.504,18.321 18.321 C 16.496 20.145,14.545 20.960,12.000 20.960 C 9.455 20.960,7.504 20.145,5.679 18.321 C 3.863 16.504,3.045 14.542,3.045 12.000 C 3.045 9.458,3.863 7.496,5.679 5.679 C 6.920 4.438,8.263 3.642,9.701 3.294 C 10.950 2.992,12.961 2.988,14.225 3.286 M13.285 10.799 L 10.471 13.598 9.199 12.319 C 7.844 10.956,7.351 10.751,6.825 11.333 C 6.272 11.943,6.474 12.320,8.363 14.203 C 9.679 15.516,10.271 16.000,10.558 16.000 C 10.856 16.000,11.737 15.214,14.196 12.756 C 17.049 9.903,17.440 9.450,17.440 9.005 C 17.440 8.455,16.975 8.000,16.414 8.000 C 16.221 8.000,15.015 9.079,13.285 10.799 " stroke="none" fill-rule="evenodd" fill="black"></path></svg>