<svg width="24" height="24" viewBox="0 0 24 24" fill="none" xmlns="http://www.w3.org/2000/svg"><path d="M7.962 1.112 C 6.829 1.472,6.376 1.932,5.682 3.427 C 5.310 4.227,4.906 4.958,4.783 5.051 C 4.660 5.144,4.067 5.425,3.463 5.675 C 2.201 6.199,1.412 6.928,1.146 7.816 C 0.871 8.734,0.906 8.988,1.521 10.563 L 2.083 12.000 1.521 13.437 C 0.913 14.995,0.864 15.349,1.144 16.176 C 1.493 17.204,1.900 17.582,3.459 18.325 L 4.974 19.047 5.665 20.537 C 6.382 22.081,6.770 22.498,7.824 22.856 C 8.651 23.136,9.005 23.087,10.563 22.479 L 12.000 21.917 13.437 22.479 C 14.995 23.087,15.349 23.136,16.176 22.856 C 17.203 22.507,17.582 22.100,18.321 20.548 L 19.040 19.040 20.554 18.319 C 21.878 17.688,22.121 17.506,22.489 16.878 C 23.157 15.739,23.158 15.175,22.495 13.478 L 21.917 12.000 22.479 10.563 C 23.097 8.980,23.130 8.736,22.846 7.790 C 22.577 6.893,21.838 6.215,20.542 5.678 C 19.936 5.426,19.340 5.144,19.217 5.051 C 19.094 4.958,18.688 4.223,18.314 3.418 C 17.706 2.109,17.553 1.906,16.870 1.506 C 15.826 0.894,14.983 0.913,13.307 1.589 L 11.990 2.120 10.808 1.624 C 9.476 1.065,8.605 0.908,7.962 1.112 M10.160 3.520 C 11.685 4.126,12.307 4.122,13.898 3.500 C 15.710 2.790,15.848 2.849,16.710 4.707 C 17.492 6.393,17.762 6.651,19.534 7.415 C 21.106 8.092,21.194 8.331,20.508 10.082 C 19.877 11.694,19.873 12.311,20.480 13.840 C 21.235 15.740,21.164 15.908,19.279 16.720 C 17.823 17.347,17.180 17.965,16.756 19.144 C 16.045 21.121,15.700 21.280,13.835 20.484 C 12.397 19.871,11.603 19.871,10.165 20.484 C 8.321 21.271,8.050 21.165,7.345 19.378 C 6.752 17.877,6.353 17.474,4.701 16.707 C 2.850 15.848,2.791 15.709,3.500 13.898 C 4.126 12.297,4.126 11.703,3.500 10.102 C 2.792 8.294,2.852 8.152,4.685 7.296 C 5.496 6.918,6.283 6.469,6.433 6.299 C 6.583 6.129,6.966 5.416,7.282 4.715 C 8.136 2.824,8.269 2.769,10.160 3.520 M13.103 10.503 L 11.058 12.526 10.232 11.783 C 9.287 10.933,8.659 10.810,8.249 11.396 C 8.112 11.591,8.000 11.887,8.000 12.054 C 8.000 12.391,10.286 14.822,10.737 14.965 C 11.241 15.125,11.867 14.640,14.200 12.281 C 16.636 9.817,16.831 9.471,16.160 8.800 C 15.564 8.204,15.248 8.381,13.103 10.503 " stroke="none" fill-rule="evenodd" fill="black"></path></svg>