<svg width="24" height="24" viewBox="0 0 24 24" fill="none" xmlns="http://www.w3.org/2000/svg"><path d="M4.600 2.308 C 3.612 2.661,2.874 3.337,2.421 4.303 L 2.000 5.200 2.000 12.000 C 2.000 18.761,2.002 18.805,2.369 19.600 C 2.850 20.646,3.373 21.173,4.379 21.628 C 5.197 21.998,5.228 22.000,12.000 22.000 C 18.761 22.000,18.805 21.998,19.600 21.631 C 20.646 21.150,21.173 20.627,21.628 19.621 C 21.998 18.803,22.000 18.772,22.000 12.000 L 22.000 5.200 21.579 4.303 C 21.126 3.337,20.388 2.661,19.400 2.308 C 18.529 1.998,5.471 1.998,4.600 2.308 M19.000 4.286 C 19.198 4.399,19.486 4.684,19.640 4.919 C 19.895 5.308,19.920 5.932,19.920 12.000 C 19.920 19.432,19.940 19.294,18.793 19.773 C 17.996 20.106,6.004 20.106,5.207 19.773 C 4.080 19.302,4.086 19.337,4.029 12.727 C 4.000 9.467,4.024 6.420,4.081 5.955 C 4.204 4.945,4.655 4.351,5.443 4.160 C 6.387 3.930,18.577 4.044,19.000 4.286 M13.285 10.799 L 10.471 13.598 9.199 12.319 C 7.844 10.956,7.351 10.751,6.825 11.333 C 6.272 11.943,6.474 12.320,8.363 14.203 C 9.679 15.516,10.271 16.000,10.558 16.000 C 10.856 16.000,11.737 15.214,14.196 12.756 C 17.049 9.903,17.440 9.450,17.440 9.005 C 17.440 8.455,16.975 8.000,16.414 8.000 C 16.221 8.000,15.015 9.079,13.285 10.799 " stroke="none" fill-rule="evenodd" fill="black"></path></svg>