<svg width="24" height="24" viewBox="0 0 24 24" fill="none" xmlns="http://www.w3.org/2000/svg"><path d="M7.725 8.845 C 5.674 10.896,4.960 11.710,4.960 11.996 C 4.960 12.282,5.680 13.105,7.736 15.171 C 10.682 18.130,10.976 18.317,11.685 17.675 C 12.342 17.081,12.132 16.718,9.727 14.292 L 7.454 12.000 9.727 9.708 C 12.115 7.299,12.340 6.917,11.707 6.345 C 11.546 6.199,11.207 6.080,10.952 6.080 C 10.567 6.080,10.029 6.541,7.725 8.845 M14.754 8.850 C 12.742 10.874,12.000 11.723,12.000 12.000 C 12.000 12.277,12.739 13.123,14.741 15.136 C 16.248 16.653,17.601 17.925,17.747 17.963 C 18.438 18.144,19.154 17.423,18.949 16.754 C 18.890 16.559,17.863 15.410,16.668 14.200 L 14.495 12.000 16.668 9.800 C 17.863 8.590,18.892 7.434,18.954 7.232 C 19.130 6.658,18.667 6.080,18.030 6.080 C 17.567 6.080,17.198 6.391,14.754 8.850 " stroke="none" fill-rule="evenodd" fill="black"></path></svg>