<svg width="24" height="24" viewBox="0 0 24 24" fill="none" xmlns="http://www.w3.org/2000/svg"><path d="M8.818 5.822 C 5.914 8.729,5.672 9.101,6.286 9.714 C 6.882 10.310,7.293 10.062,9.698 7.662 L 12.000 5.364 14.280 7.631 C 15.534 8.877,16.668 9.917,16.800 9.940 C 17.464 10.058,18.058 9.464,17.940 8.800 C 17.917 8.668,16.661 7.318,15.151 5.800 C 13.043 3.683,12.309 3.040,12.000 3.040 C 11.691 3.040,10.948 3.689,8.818 5.822 M6.331 14.292 C 6.170 14.410,6.040 14.705,6.040 14.951 C 6.040 15.315,6.551 15.908,8.818 18.178 C 10.948 20.311,11.691 20.960,12.000 20.960 C 12.309 20.960,13.052 20.311,15.182 18.178 C 17.449 15.908,17.960 15.315,17.960 14.951 C 17.960 14.435,17.557 14.080,16.971 14.080 C 16.661 14.080,16.022 14.621,14.282 16.358 L 12.000 18.636 9.718 16.358 C 7.348 13.992,7.017 13.791,6.331 14.292 " stroke="none" fill-rule="evenodd" fill="black"></path></svg>