<svg width="24" height="24" viewBox="0 0 24 24" fill="none" xmlns="http://www.w3.org/2000/svg"><path d="M8.560 5.152 C 8.135 5.392,8.005 5.603,8.002 6.061 C 8.001 6.342,8.726 7.176,10.752 9.223 L 13.504 12.004 10.740 14.785 C 8.335 17.204,7.982 17.623,8.028 18.007 C 8.091 18.543,8.796 19.114,9.226 18.977 C 9.393 18.924,10.985 17.419,12.765 15.632 C 15.167 13.219,16.000 12.284,16.000 11.999 C 16.000 11.714,15.171 10.789,12.760 8.382 C 10.978 6.603,9.376 5.109,9.200 5.060 C 9.024 5.012,8.736 5.053,8.560 5.152 " stroke="none" fill-rule="evenodd" fill="black"></path></svg>