<svg version="1.1" xmlns="http://www.w3.org/2000/svg" width="32" height="32" viewBox="0 0 32 32"><path d="M11.805 2.599 C 11.551 2.722,11.289 3.027,11.221 3.278 C 11.154 3.528,11.098 7.155,11.096 11.338 L 11.093 18.942 14.347 19.065 C 16.136 19.132,19.832 19.239,22.560 19.303 L 27.520 19.417 27.520 11.726 L 27.520 4.034 27.019 3.533 C 26.471 2.985,26.952 3.040,18.667 2.564 C 14.012 2.297,12.412 2.305,11.805 2.599 M9.280 3.671 C 8.811 3.907,8.115 4.397,7.733 4.759 C 7.093 5.367,7.040 5.521,7.040 6.770 C 7.040 7.765,7.167 8.361,7.520 9.022 C 7.921 9.772,8.000 10.253,8.000 11.947 C 8.000 13.666,7.927 14.097,7.520 14.786 C 7.113 15.475,7.040 15.905,7.040 17.627 C 7.040 19.456,7.077 19.645,7.413 19.552 C 7.619 19.496,8.242 19.387,8.799 19.312 C 9.478 19.219,9.884 19.041,10.029 18.769 C 10.167 18.511,10.225 15.622,10.189 10.804 L 10.133 3.243 9.280 3.671 M17.280 8.747 C 17.909 9.375,17.856 10.666,17.175 11.305 C 16.032 12.379,14.293 11.545,14.293 9.924 C 14.293 8.549,16.294 7.761,17.280 8.747 M24.945 8.882 C 26.336 10.651,24.037 12.827,22.451 11.242 C 21.710 10.500,21.701 9.277,22.433 8.714 C 23.205 8.120,24.409 8.201,24.945 8.882 M5.951 10.070 C 5.513 11.110,5.564 13.429,6.040 14.156 C 6.253 14.481,6.541 14.709,6.680 14.664 C 7.364 14.441,7.733 11.098,7.191 10.029 C 6.790 9.235,6.295 9.251,5.951 10.070 M5.392 20.844 C 5.059 21.352,5.013 21.981,5.012 26.071 L 5.010 30.720 18.505 30.720 L 32.000 30.720 32.000 26.157 C 32.000 22.128,31.956 21.540,31.627 21.135 C 31.259 20.683,31.113 20.673,21.227 20.478 C 15.712 20.368,9.978 20.276,8.485 20.273 L 5.770 20.267 5.392 20.844 M1.493 21.280 C 0.181 21.936,0.001 22.620,0.000 26.933 L 0.000 30.720 2.133 30.720 L 4.267 30.720 4.267 26.226 C 4.267 23.536,4.178 21.566,4.046 21.319 C 3.761 20.786,2.520 20.767,1.493 21.280 " stroke="none" fill-rule="evenodd" fill="black"></path></svg>