<svg width="24" height="24" viewBox="0 0 24 24" fill="none" xmlns="http://www.w3.org/2000/svg"><path d="M9.520 2.305 C 7.715 2.751,5.722 3.987,4.405 5.478 C 3.563 6.431,2.529 8.461,2.237 9.733 C 1.986 10.828,1.986 13.172,2.237 14.267 C 2.871 17.032,5.022 19.731,7.551 20.935 C 9.221 21.730,10.214 21.958,12.000 21.958 C 13.786 21.958,14.779 21.730,16.449 20.935 C 18.315 20.047,20.044 18.318,20.937 16.449 C 21.286 15.718,21.618 14.894,21.675 14.617 C 21.776 14.123,21.787 14.118,22.233 14.341 C 23.065 14.756,23.893 14.044,23.611 13.156 C 23.558 12.986,22.983 12.333,22.334 11.704 C 20.754 10.172,20.614 10.176,18.996 11.804 C 17.792 13.015,17.615 13.357,17.862 13.999 C 18.032 14.442,18.673 14.592,19.209 14.315 C 19.836 13.991,19.829 14.208,19.171 15.534 C 18.546 16.793,16.886 18.509,15.722 19.099 C 12.635 20.663,9.114 20.184,6.614 17.861 C 3.151 14.643,3.143 9.365,6.596 6.155 C 10.136 2.866,15.623 3.467,18.580 7.468 C 19.284 8.420,19.691 8.614,20.236 8.258 C 20.838 7.863,20.878 7.441,20.390 6.608 C 19.296 4.743,16.659 2.862,14.382 2.326 C 13.166 2.039,10.640 2.028,9.520 2.305 M11.291 6.331 C 11.081 6.542,11.040 7.062,11.040 9.504 C 11.040 12.328,11.052 12.435,11.400 12.755 C 11.939 13.250,14.725 15.040,14.956 15.040 C 15.327 15.040,16.000 14.380,16.000 14.016 C 16.000 13.579,15.635 13.234,14.120 12.237 L 12.960 11.473 12.960 9.041 C 12.960 6.889,12.926 6.579,12.667 6.345 C 12.298 6.010,11.619 6.004,11.291 6.331 " stroke="none" fill-rule="evenodd" fill="black"></path></svg>