<svg width="24" height="24" viewBox="0 0 24 24" fill="none" xmlns="http://www.w3.org/2000/svg"><path d="M9.622 2.802 C 6.327 3.725,3.656 6.421,2.807 9.679 C 2.454 11.034,2.487 11.439,2.982 11.828 C 3.496 12.233,3.705 12.242,4.143 11.880 C 4.366 11.695,4.540 11.273,4.654 10.640 C 5.194 7.622,7.665 5.175,10.724 4.628 C 12.846 4.249,15.370 4.953,16.966 6.370 L 17.661 6.987 17.126 6.987 C 16.761 6.987,16.496 7.103,16.295 7.351 C 15.617 8.188,16.115 8.698,18.163 9.266 C 19.890 9.744,20.224 9.738,20.559 9.219 C 20.813 8.825,21.440 6.448,21.440 5.878 C 21.440 5.409,20.984 4.960,20.507 4.960 C 20.155 4.960,19.617 5.388,19.490 5.770 C 19.444 5.907,19.188 5.748,18.755 5.315 C 17.787 4.347,16.526 3.560,15.181 3.086 C 13.693 2.560,10.980 2.422,9.622 2.802 M11.305 6.853 C 11.081 7.100,11.040 7.555,11.040 9.804 L 11.040 12.464 11.560 12.850 C 11.846 13.062,12.611 13.547,13.260 13.928 C 14.376 14.583,14.462 14.607,14.857 14.385 C 15.088 14.256,15.344 13.955,15.428 13.717 C 15.621 13.168,15.275 12.771,13.926 11.994 L 12.963 11.440 12.962 9.265 C 12.960 7.362,12.923 7.056,12.667 6.825 C 12.281 6.475,11.635 6.488,11.305 6.853 M20.000 12.046 C 19.726 12.185,19.557 12.448,19.462 12.884 C 18.942 15.276,18.077 16.765,16.524 17.944 C 14.687 19.338,12.608 19.794,10.363 19.295 C 9.082 19.010,7.615 18.239,6.800 17.422 L 6.320 16.941 6.752 17.046 C 7.087 17.127,7.275 17.060,7.592 16.743 C 8.414 15.920,7.957 15.331,6.080 14.796 C 4.334 14.298,3.759 14.290,3.455 14.760 C 3.190 15.170,2.560 17.536,2.560 18.122 C 2.560 18.618,3.024 19.040,3.569 19.040 C 3.951 19.040,4.089 18.913,4.571 18.114 C 4.586 18.089,5.015 18.468,5.525 18.958 C 7.858 21.200,11.656 22.057,14.813 21.054 C 17.914 20.069,20.371 17.475,21.193 14.321 C 21.546 12.966,21.513 12.561,21.018 12.172 C 20.526 11.784,20.521 11.784,20.000 12.046 " stroke="none" fill-rule="evenodd" fill="black"></path></svg>