<svg version="1.1" xmlns="http://www.w3.org/2000/svg" width="24" height="24" viewBox="0 0 24 24"><path d="M5.292 0.422 C 5.003 0.788,4.960 1.066,4.960 2.546 C 4.960 4.553,5.135 4.960,6.000 4.960 C 6.865 4.960,7.040 4.553,7.040 2.546 C 7.040 1.066,6.997 0.788,6.708 0.422 C 6.281 -0.122,5.719 -0.122,5.292 0.422 M9.292 0.422 C 9.003 0.788,8.960 1.066,8.960 2.546 C 8.960 4.553,9.135 4.960,10.000 4.960 C 10.865 4.960,11.040 4.553,11.040 2.546 C 11.040 1.066,10.997 0.788,10.708 0.422 C 10.281 -0.122,9.719 -0.122,9.292 0.422 M13.292 0.422 C 13.003 0.788,12.960 1.066,12.960 2.546 C 12.960 4.553,13.135 4.960,14.000 4.960 C 14.865 4.960,15.040 4.553,15.040 2.546 C 15.040 1.066,14.997 0.788,14.708 0.422 C 14.281 -0.122,13.719 -0.122,13.292 0.422 M1.275 7.365 C 0.947 7.693,0.941 7.803,0.990 12.930 C 1.039 18.025,1.050 18.181,1.416 18.992 C 1.925 20.116,3.204 21.305,4.324 21.695 C 5.110 21.969,5.693 22.000,10.000 22.000 C 15.590 22.000,15.906 21.941,17.341 20.630 C 18.240 19.808,18.760 18.847,18.957 17.640 C 19.056 17.033,19.115 16.960,19.506 16.960 C 20.865 16.960,22.699 15.678,23.487 14.177 C 23.854 13.477,23.916 13.165,23.916 12.000 C 23.916 10.837,23.854 10.524,23.492 9.840 C 22.984 8.882,22.102 8.011,21.120 7.497 L 20.400 7.120 11.005 7.075 C 1.656 7.030,1.608 7.032,1.275 7.365 M16.960 13.309 C 16.960 17.415,16.941 17.698,16.621 18.360 C 16.416 18.782,16.023 19.232,15.632 19.491 L 14.983 19.920 10.000 19.920 L 5.017 19.920 4.368 19.491 C 3.977 19.232,3.584 18.782,3.379 18.360 C 3.059 17.698,3.040 17.415,3.040 13.309 L 3.040 8.960 10.000 8.960 L 16.960 8.960 16.960 13.309 M20.676 9.573 C 21.952 10.362,22.321 12.264,21.462 13.620 C 21.017 14.321,20.410 14.733,19.480 14.965 L 19.040 15.075 19.040 12.034 L 19.040 8.994 19.590 9.118 C 19.893 9.186,20.382 9.391,20.676 9.573 " stroke="none" fill-rule="evenodd" fill="black"></path></svg>