<svg width="24" height="24" viewBox="0 0 24 24" fill="none" xmlns="http://www.w3.org/2000/svg"><path d="M9.840 1.068 C 8.878 1.188,8.620 1.299,7.999 1.860 C 7.202 2.580,7.042 3.155,7.041 5.304 L 7.040 7.008 4.988 7.064 C 3.115 7.115,2.886 7.155,2.357 7.517 C 2.038 7.736,1.611 8.204,1.409 8.557 C 1.048 9.187,1.039 9.310,0.988 14.439 C 0.931 20.302,1.017 21.130,1.781 22.000 C 2.595 22.927,2.848 22.960,9.120 22.960 C 14.757 22.960,14.805 22.957,15.443 22.591 C 15.796 22.389,16.264 21.962,16.483 21.643 C 16.845 21.115,16.885 20.885,16.936 19.028 L 16.991 16.991 19.028 16.936 C 20.885 16.885,21.115 16.845,21.643 16.483 C 21.962 16.264,22.389 15.796,22.591 15.443 C 22.957 14.804,22.960 14.760,22.960 9.040 C 22.960 4.037,22.925 3.204,22.697 2.701 C 22.299 1.826,21.479 1.284,20.291 1.113 C 19.338 0.975,10.876 0.939,9.840 1.068 M20.667 3.305 C 20.940 3.551,20.960 3.941,20.960 8.954 C 20.960 13.350,20.918 14.396,20.733 14.649 C 20.517 14.944,20.239 14.962,15.158 15.006 C 10.058 15.050,9.793 15.038,9.425 14.740 L 9.040 14.428 9.040 8.961 C 9.040 3.734,9.054 3.484,9.351 3.267 C 9.604 3.082,10.644 3.040,15.018 3.040 C 19.778 3.040,20.407 3.069,20.667 3.305 M7.044 11.800 C 7.046 14.212,7.091 14.736,7.341 15.280 C 8.009 16.736,8.666 16.960,12.255 16.960 L 15.081 16.960 15.008 18.742 C 14.946 20.243,14.887 20.559,14.637 20.742 C 14.400 20.916,13.247 20.960,8.982 20.960 C 4.222 20.960,3.593 20.931,3.333 20.695 C 3.060 20.449,3.040 20.059,3.040 15.046 C 3.040 10.983,3.089 9.598,3.240 9.402 C 3.490 9.078,3.882 9.009,5.640 8.982 L 7.040 8.960 7.044 11.800 " stroke="none" fill-rule="evenodd" fill="black"></path></svg>