<svg width="24" height="24" viewBox="0 0 24 24" fill="none" xmlns="http://www.w3.org/2000/svg"><path d="M3.310 4.151 C 2.026 4.407,1.199 5.419,1.039 6.926 C 0.981 7.473,0.957 10.152,0.987 12.880 C 1.033 17.197,1.076 17.905,1.314 18.341 C 1.686 19.021,2.446 19.633,3.165 19.833 C 4.008 20.067,20.029 20.057,20.876 19.822 C 21.226 19.724,21.776 19.382,22.097 19.061 C 22.994 18.164,23.072 17.509,23.012 11.399 C 22.956 5.746,22.944 5.665,22.055 4.860 C 21.174 4.061,21.419 4.082,12.400 4.055 C 7.736 4.040,3.645 4.084,3.310 4.151 M20.709 6.331 C 20.892 6.515,20.960 6.904,20.960 7.771 L 20.960 8.960 12.000 8.960 L 3.040 8.960 3.040 7.771 C 3.040 6.904,3.108 6.515,3.291 6.331 C 3.514 6.109,4.525 6.080,12.000 6.080 C 19.475 6.080,20.486 6.109,20.709 6.331 M20.958 14.200 C 20.956 15.938,20.895 17.455,20.821 17.572 C 20.549 18.000,19.281 18.072,12.000 18.072 C 4.719 18.072,3.451 18.000,3.179 17.572 C 3.105 17.455,3.044 15.938,3.042 14.200 L 3.040 11.040 12.000 11.040 L 20.960 11.040 20.958 14.200 M5.353 13.353 C 5.137 13.569,4.960 13.860,4.960 14.000 C 4.960 14.140,5.137 14.431,5.353 14.647 C 5.739 15.033,5.792 15.040,8.451 15.040 C 10.946 15.040,11.190 15.014,11.578 14.708 C 11.821 14.518,12.000 14.216,12.000 14.000 C 12.000 13.784,11.821 13.482,11.578 13.292 C 11.190 12.986,10.946 12.960,8.451 12.960 C 5.792 12.960,5.739 12.967,5.353 13.353 " stroke="none" fill-rule="evenodd" fill="black"></path></svg>