<svg width="24" height="24" viewBox="0 0 24 24" fill="none" xmlns="http://www.w3.org/2000/svg"><path d="M3.310 4.151 C 2.026 4.407,1.199 5.419,1.039 6.926 C 0.981 7.473,0.957 10.152,0.987 12.880 C 1.033 17.197,1.076 17.905,1.314 18.341 C 1.686 19.021,2.446 19.633,3.165 19.833 C 3.505 19.927,5.579 19.999,8.004 19.999 C 12.691 20.000,12.960 19.949,12.960 19.056 C 12.960 18.122,12.767 18.080,8.467 18.076 C 4.549 18.072,3.429 17.965,3.179 17.572 C 3.105 17.455,3.044 15.938,3.042 14.200 L 3.040 11.040 12.000 11.040 L 20.960 11.040 20.960 11.680 C 20.960 12.815,21.995 13.365,22.737 12.623 C 23.060 12.300,23.071 12.167,23.011 9.223 C 22.944 5.957,22.864 5.593,22.055 4.860 C 21.174 4.061,21.419 4.082,12.400 4.055 C 7.736 4.040,3.645 4.084,3.310 4.151 M20.709 6.331 C 20.892 6.515,20.960 6.904,20.960 7.771 L 20.960 8.960 12.000 8.960 L 3.040 8.960 3.040 7.771 C 3.040 6.904,3.108 6.515,3.291 6.331 C 3.514 6.109,4.525 6.080,12.000 6.080 C 19.475 6.080,20.486 6.109,20.709 6.331 M18.314 14.304 C 18.071 14.482,17.995 14.775,17.947 15.728 L 17.887 16.927 16.688 16.987 C 15.394 17.053,15.040 17.277,15.040 18.031 C 15.040 18.737,15.564 19.040,16.783 19.040 L 17.885 19.040 17.945 20.237 C 18.012 21.563,18.244 21.960,18.951 21.960 C 19.739 21.960,20.000 21.526,20.000 20.215 L 20.000 19.040 21.127 19.040 C 22.111 19.040,22.305 18.990,22.647 18.647 C 23.143 18.152,23.143 17.848,22.647 17.353 C 22.305 17.010,22.111 16.960,21.127 16.960 L 20.000 16.960 20.000 15.785 C 20.000 14.849,19.940 14.556,19.707 14.345 C 19.350 14.021,18.727 14.003,18.314 14.304 " stroke="none" fill-rule="evenodd" fill="black"></path></svg>