<svg viewBox="0 0 24 24" xmlns="http://www.w3.org/2000/svg"><path d="M16.292 3.480 C 16.193 3.722,16.079 4.357,16.039 4.891 C 15.947 6.120,16.404 7.270,17.310 8.088 C 17.860 8.585,17.928 8.720,17.836 9.140 C 17.610 10.165,16.862 9.836,14.720 7.770 C 13.884 6.963,12.930 6.105,12.600 5.863 C 11.860 5.321,11.785 4.664,12.397 4.096 C 12.616 3.894,12.748 3.681,12.691 3.624 C 12.475 3.409,10.995 3.532,10.074 3.842 C 9.359 4.083,8.605 4.175,7.079 4.210 C 5.407 4.247,4.874 4.321,4.121 4.619 C 2.305 5.337,0.670 7.385,0.158 9.582 C -0.295 11.527,0.299 14.432,1.527 16.282 C 2.699 18.048,4.579 19.516,6.530 20.190 C 7.436 20.503,7.907 20.558,9.600 20.549 C 11.834 20.536,12.826 20.278,14.158 19.362 C 14.872 18.870,14.892 18.866,15.846 19.054 C 16.908 19.263,18.454 19.168,18.811 18.871 C 19.249 18.508,19.036 18.221,17.960 17.726 C 17.366 17.452,16.852 17.206,16.818 17.178 C 16.783 17.151,17.021 16.834,17.345 16.475 C 18.775 14.892,19.909 12.304,20.109 10.166 C 20.202 9.171,20.222 9.132,20.702 9.028 C 22.451 8.651,23.684 7.262,23.942 5.378 C 24.073 4.422,23.719 4.229,23.035 4.885 C 22.678 5.227,22.332 5.364,21.564 5.468 C 21.003 5.544,20.369 5.744,20.126 5.922 C 19.888 6.097,19.663 6.240,19.626 6.240 C 19.589 6.240,19.467 6.018,19.355 5.747 C 19.219 5.419,18.858 5.090,18.271 4.759 C 17.598 4.379,17.335 4.119,17.151 3.651 C 16.869 2.931,16.543 2.867,16.292 3.480 M5.360 9.823 C 7.600 10.636,9.128 11.933,10.891 14.516 C 11.538 15.464,12.644 16.810,13.348 17.506 L 14.629 18.773 13.631 18.668 C 12.495 18.550,11.967 18.313,10.720 17.363 C 8.312 15.528,7.309 15.378,8.016 16.957 C 8.429 17.878,8.225 18.142,7.182 18.042 C 6.611 17.987,6.177 17.789,5.373 17.215 C 3.608 15.955,2.324 13.892,1.829 11.517 C 1.514 10.006,1.566 9.566,2.080 9.414 C 2.702 9.230,4.262 9.424,5.360 9.823 M14.173 10.408 C 14.653 10.705,16.000 12.478,16.000 12.813 C 16.000 12.887,15.861 13.023,15.691 13.114 C 14.775 13.604,13.760 12.948,13.760 11.867 C 13.760 11.185,13.596 10.980,12.920 10.819 C 12.505 10.720,12.349 10.424,12.587 10.187 C 12.803 9.970,13.658 10.090,14.173 10.408 M13.120 11.609 C 13.120 11.736,13.012 11.840,12.880 11.840 C 12.639 11.840,12.551 11.502,12.742 11.311 C 12.892 11.162,13.120 11.342,13.120 11.609 " stroke="none" fill-rule="evenodd" fill="black"></path></svg>