<svg width="24" height="24" viewBox="0 0 24 24" fill="none" xmlns="http://www.w3.org/2000/svg"><path d="M3.931 3.351 C 2.953 3.996,2.722 5.358,3.445 6.217 C 4.250 7.174,5.530 7.245,6.394 6.381 C 8.024 4.751,5.854 2.083,3.931 3.351 M10.864 3.406 C 9.804 4.119,9.742 5.543,10.729 6.489 C 11.136 6.879,11.356 6.960,12.000 6.960 C 12.644 6.960,12.864 6.879,13.271 6.489 C 15.082 4.753,12.940 2.009,10.864 3.406 M17.950 3.364 C 16.872 4.022,16.705 5.481,17.606 6.381 C 18.181 6.957,18.854 7.126,19.594 6.882 C 21.185 6.357,21.465 4.272,20.069 3.351 C 19.463 2.952,18.618 2.957,17.950 3.364 M3.815 10.441 C 2.951 11.171,2.791 12.223,3.406 13.136 C 4.119 14.196,5.543 14.258,6.489 13.271 C 6.882 12.860,6.960 12.647,6.960 11.977 C 6.960 11.256,6.900 11.121,6.362 10.628 C 5.856 10.164,5.648 10.080,5.002 10.081 C 4.446 10.081,4.125 10.179,3.815 10.441 M10.737 10.490 C 9.524 11.511,9.949 13.488,11.471 13.908 C 12.950 14.316,14.313 12.938,13.902 11.450 C 13.540 10.139,11.786 9.607,10.737 10.490 M17.638 10.628 C 17.100 11.121,17.040 11.256,17.040 11.977 C 17.040 12.647,17.118 12.860,17.511 13.271 C 17.770 13.541,18.226 13.830,18.525 13.912 C 20.136 14.357,21.512 12.572,20.728 11.056 C 20.394 10.409,19.799 10.080,18.963 10.080 C 18.357 10.080,18.135 10.172,17.638 10.628 M4.226 17.182 C 3.497 17.508,3.040 18.173,3.040 18.910 C 3.040 20.182,3.832 20.960,5.128 20.960 C 6.445 20.960,7.381 19.407,6.801 18.185 C 6.336 17.205,5.182 16.756,4.226 17.182 M11.280 17.178 C 9.804 17.849,9.575 19.727,10.864 20.594 C 11.534 21.045,12.385 21.066,13.070 20.648 C 13.707 20.259,13.964 19.791,13.964 19.015 C 13.964 17.636,12.491 16.628,11.280 17.178 M18.441 17.073 C 17.937 17.170,17.166 17.988,17.040 18.559 C 16.786 19.716,17.750 20.960,18.900 20.960 C 20.168 20.960,20.960 20.172,20.960 18.910 C 20.960 18.157,20.493 17.496,19.738 17.181 C 19.205 16.958,19.089 16.948,18.441 17.073 " stroke="none" fill-rule="evenodd" fill="black"></path></svg>