<svg width="24" height="24" viewBox="0 0 24 24" fill="none" xmlns="http://www.w3.org/2000/svg"><path d="M10.000 2.296 C 7.901 2.990,6.314 4.447,5.516 6.413 C 5.256 7.053,5.121 7.181,4.458 7.417 C 2.751 8.023,1.261 10.022,1.026 12.023 C 0.829 13.696,1.819 15.923,3.177 16.864 C 3.898 17.364,4.216 17.384,4.640 16.960 C 5.154 16.446,5.042 15.935,4.239 15.144 C 3.375 14.292,3.040 13.558,3.040 12.517 C 3.040 10.891,4.344 9.311,5.888 9.064 C 6.662 8.940,6.923 8.642,7.284 7.469 C 7.653 6.271,8.664 5.129,9.888 4.528 C 11.187 3.890,12.813 3.890,14.112 4.528 C 15.336 5.129,16.347 6.271,16.716 7.469 C 17.077 8.642,17.338 8.940,18.112 9.064 C 19.656 9.311,20.960 10.891,20.960 12.517 C 20.960 13.558,20.625 14.292,19.761 15.144 C 18.958 15.935,18.846 16.446,19.360 16.960 C 19.784 17.384,20.102 17.364,20.823 16.864 C 22.181 15.923,23.171 13.696,22.974 12.023 C 22.739 10.022,21.249 8.023,19.542 7.417 C 18.879 7.181,18.744 7.053,18.484 6.413 C 17.799 4.725,16.611 3.490,14.880 2.664 C 13.964 2.227,13.650 2.163,12.240 2.126 C 11.232 2.100,10.403 2.162,10.000 2.296 M11.305 11.333 C 11.075 11.586,11.040 12.093,11.040 15.121 L 11.040 18.617 9.700 17.308 C 8.962 16.589,8.222 16.000,8.055 16.000 C 7.505 16.000,7.040 16.459,7.040 17.003 C 7.040 17.438,7.344 17.811,9.246 19.714 C 11.222 21.689,11.510 21.920,12.000 21.920 C 12.490 21.920,12.778 21.689,14.754 19.714 C 16.656 17.811,16.960 17.438,16.960 17.003 C 16.960 16.459,16.495 16.000,15.945 16.000 C 15.778 16.000,15.038 16.589,14.300 17.308 L 12.960 18.617 12.960 15.093 C 12.960 11.883,12.934 11.546,12.667 11.305 C 12.281 10.955,11.635 10.968,11.305 11.333 " stroke="none" fill-rule="evenodd" fill="black"></path></svg>