<svg width="24" height="24" viewBox="0 0 24 24" fill="none" xmlns="http://www.w3.org/2000/svg"><path d="M11.291 2.331 C 11.074 2.549,11.040 3.249,11.040 7.569 L 11.040 12.554 9.400 10.935 C 8.498 10.044,7.603 9.235,7.410 9.137 C 6.712 8.783,5.838 9.493,6.037 10.253 C 6.075 10.399,7.347 11.752,8.864 13.259 C 10.877 15.261,11.723 16.000,12.000 16.000 C 12.277 16.000,13.123 15.261,15.136 13.259 C 16.653 11.752,17.925 10.399,17.963 10.253 C 18.162 9.493,17.288 8.783,16.590 9.137 C 16.397 9.235,15.502 10.044,14.600 10.935 L 12.960 12.554 12.960 7.582 C 12.960 2.968,12.939 2.591,12.667 2.345 C 12.298 2.010,11.619 2.004,11.291 2.331 M2.311 14.308 C 2.029 14.515,2.001 14.734,2.014 16.668 C 2.025 18.504,2.077 18.911,2.382 19.600 C 2.843 20.638,3.367 21.170,4.379 21.628 C 5.197 21.998,5.228 22.000,12.000 22.000 C 18.761 22.000,18.805 21.998,19.600 21.631 C 20.653 21.146,21.179 20.620,21.613 19.621 C 21.919 18.916,21.972 18.499,21.985 16.668 C 21.999 14.733,21.971 14.516,21.689 14.308 C 21.519 14.183,21.188 14.080,20.954 14.080 C 20.181 14.080,20.041 14.448,19.971 16.657 C 19.899 18.930,19.728 19.383,18.793 19.773 C 17.996 20.106,6.004 20.106,5.207 19.773 C 4.272 19.383,4.101 18.930,4.029 16.657 C 3.959 14.448,3.819 14.080,3.046 14.080 C 2.812 14.080,2.481 14.183,2.311 14.308 " stroke="none" fill-rule="evenodd" fill="black"></path></svg>