<svg version="1.1" xmlns="http://www.w3.org/2000/svg" width="32" height="32" viewBox="0 0 32 32"><path d="M0.000 15.492 L 0.000 23.090 4.213 23.005 C 9.066 22.908,9.772 22.706,11.284 20.988 C 12.777 19.292,13.112 18.342,13.116 15.787 C 13.120 13.802,13.055 13.408,12.552 12.336 C 11.801 10.734,10.526 9.385,8.984 8.563 L 7.727 7.893 3.863 7.893 L 0.000 7.893 0.000 15.492 M13.013 9.707 L 13.013 11.520 15.271 11.520 L 17.528 11.520 17.458 17.227 L 17.387 22.933 19.413 22.933 L 21.440 22.933 21.497 17.227 L 21.554 11.520 23.577 11.520 L 25.600 11.520 25.600 9.707 L 25.600 7.893 19.307 7.893 L 13.013 7.893 13.013 9.707 M27.879 9.600 L 26.912 11.307 27.639 11.307 L 28.366 11.307 28.423 17.120 L 28.480 22.933 30.240 22.995 L 32.000 23.057 32.000 15.475 L 32.000 7.893 30.423 7.893 L 28.845 7.893 27.879 9.600 M8.109 12.213 C 9.366 13.069,9.707 13.733,9.705 15.323 C 9.703 17.062,9.154 18.090,7.803 18.882 C 7.050 19.323,6.618 19.413,5.261 19.413 L 3.627 19.413 3.627 15.573 L 3.627 11.733 5.515 11.733 C 7.122 11.733,7.509 11.805,8.109 12.213 " stroke="none" fill-rule="evenodd" fill="black"></path></svg>