<svg width="24" height="24" viewBox="0 0 24 24" fill="none" xmlns="http://www.w3.org/2000/svg"><path d="M16.714 2.167 C 16.447 2.299,13.087 5.555,9.248 9.403 L 2.269 16.400 2.077 17.347 C 1.817 18.636,1.929 20.208,2.312 20.631 C 2.575 20.921,2.798 20.960,4.214 20.960 C 5.486 20.960,5.954 20.894,6.469 20.644 C 7.384 20.200,20.537 7.015,20.873 6.205 C 21.716 4.175,20.180 1.913,17.966 1.924 C 17.545 1.926,16.981 2.035,16.714 2.167 M18.451 4.024 C 18.920 4.271,19.035 4.470,19.038 5.043 C 19.040 5.466,18.215 6.349,12.276 12.283 L 5.511 19.040 4.756 19.040 L 4.000 19.040 4.000 18.205 L 4.000 17.369 10.440 10.908 C 16.271 5.057,17.565 3.842,17.971 3.841 C 18.042 3.840,18.258 3.923,18.451 4.024 M11.305 19.333 C 10.955 19.719,10.968 20.365,11.333 20.695 C 11.591 20.929,12.189 20.960,16.508 20.960 C 21.035 20.960,21.410 20.939,21.655 20.667 C 22.005 20.281,21.992 19.635,21.627 19.305 C 21.369 19.071,20.771 19.040,16.452 19.040 C 11.925 19.040,11.550 19.061,11.305 19.333 " stroke="none" fill-rule="evenodd" fill="black"></path></svg>