<svg width="24" height="24" viewBox="0 0 24 24" fill="none" xmlns="http://www.w3.org/2000/svg"><path d="M18.292 1.296 C 17.925 1.364,17.421 1.527,17.172 1.658 C 16.924 1.790,13.470 5.161,9.498 9.149 C 4.081 14.587,2.232 16.540,2.102 16.960 C 2.006 17.268,1.820 18.447,1.689 19.580 C 1.432 21.797,1.488 22.145,2.141 22.393 C 2.543 22.546,6.124 22.184,7.040 21.899 C 7.460 21.768,9.416 19.915,14.851 14.502 C 18.840 10.530,22.233 7.028,22.392 6.720 C 23.126 5.301,22.884 3.577,21.795 2.455 C 20.802 1.432,19.638 1.047,18.292 1.296 M20.256 3.744 C 20.688 4.176,20.800 4.416,20.800 4.908 C 20.800 5.250,20.682 5.707,20.537 5.924 C 20.153 6.502,18.196 8.480,18.008 8.480 C 17.793 8.480,15.520 6.214,15.520 6.000 C 15.520 5.798,17.706 3.633,18.160 3.385 C 18.336 3.288,18.757 3.208,19.096 3.205 C 19.587 3.201,19.823 3.311,20.256 3.744 M15.316 8.676 C 15.956 9.312,16.480 9.906,16.480 9.997 C 16.480 10.208,6.906 19.753,6.480 19.966 C 6.304 20.055,5.594 20.179,4.902 20.244 L 3.644 20.361 3.750 19.340 C 3.809 18.779,3.896 18.104,3.945 17.840 C 4.011 17.477,5.226 16.161,8.933 12.440 C 11.628 9.734,13.905 7.520,13.993 7.520 C 14.081 7.520,14.676 8.040,15.316 8.676 " stroke="none" fill-rule="evenodd" fill="black"></path></svg>