<svg width="24" height="24" viewBox="0 0 24 24" fill="none" xmlns="http://www.w3.org/2000/svg"><path d="M18.560 1.276 C 17.804 1.683,7.423 12.122,7.209 12.690 C 7.116 12.938,7.040 13.881,7.040 14.786 C 7.040 16.940,7.060 16.960,9.259 16.960 C 10.560 16.960,11.014 16.897,11.486 16.652 C 11.813 16.482,14.503 13.908,17.464 10.932 C 22.623 5.747,22.855 5.487,23.009 4.738 C 23.436 2.667,22.051 0.950,19.966 0.967 C 19.454 0.971,18.899 1.093,18.560 1.276 M20.727 3.273 C 20.943 3.489,21.120 3.830,21.120 4.030 C 21.120 4.296,19.673 5.841,15.797 9.717 L 10.475 15.040 9.717 15.040 L 8.960 15.040 8.960 14.283 L 8.960 13.525 14.283 8.203 C 18.159 4.327,19.704 2.880,19.970 2.880 C 20.170 2.880,20.511 3.057,20.727 3.273 M3.680 3.284 C 2.716 3.586,1.882 4.306,1.420 5.235 L 1.040 6.000 1.040 12.880 C 1.040 20.552,1.037 20.530,2.114 21.698 C 3.274 22.957,3.296 22.960,11.120 22.960 L 18.000 22.960 18.765 22.580 C 19.185 22.371,19.743 21.942,20.003 21.625 C 20.872 20.571,20.971 19.967,20.923 15.995 L 20.880 12.412 20.440 12.166 C 20.044 11.945,19.956 11.945,19.560 12.166 L 19.120 12.411 19.027 16.051 C 18.943 19.367,18.906 19.729,18.612 20.125 C 17.997 20.954,17.985 20.955,11.064 20.958 C 3.883 20.960,3.778 20.946,3.292 19.923 C 2.935 19.171,2.913 7.014,3.267 6.167 C 3.697 5.137,3.941 5.075,7.969 4.972 L 11.589 4.880 11.834 4.440 C 12.055 4.044,12.055 3.956,11.834 3.560 L 11.588 3.120 7.994 3.090 C 5.283 3.067,4.223 3.115,3.680 3.284 " stroke="none" fill-rule="evenodd" fill="black"></path></svg>