<svg width="24" height="24" viewBox="0 0 24 24" fill="none" xmlns="http://www.w3.org/2000/svg"><path d="M2.331 2.292 C 1.691 2.760,1.952 3.306,3.606 4.966 L 5.172 6.538 3.746 8.047 C 2.235 9.646,1.120 11.325,1.120 12.000 C 1.120 13.212,4.600 17.239,6.705 18.463 C 9.777 20.249,13.150 20.451,16.157 19.029 L 17.180 18.545 18.893 20.253 C 20.682 22.037,21.150 22.279,21.714 21.714 C 22.398 21.031,22.454 21.095,12.701 11.341 C 3.003 1.642,3.102 1.728,2.331 2.292 M10.640 4.115 C 9.839 4.310,9.528 5.061,9.987 5.689 C 10.180 5.954,10.484 6.014,12.027 6.097 C 14.114 6.208,15.107 6.522,16.678 7.569 C 17.883 8.372,19.371 9.848,20.227 11.090 L 20.853 12.000 20.227 12.885 C 19.094 14.484,19.087 14.501,19.365 15.000 C 19.550 15.332,19.751 15.452,20.185 15.488 C 20.724 15.534,20.808 15.473,21.515 14.533 C 22.421 13.327,22.880 12.463,22.880 11.963 C 22.880 10.936,20.147 7.572,18.162 6.156 C 16.846 5.216,15.345 4.528,13.986 4.240 C 12.919 4.014,11.303 3.954,10.640 4.115 M7.659 9.019 L 8.507 9.878 8.254 10.624 C 7.164 13.835,10.087 16.820,13.294 15.771 L 14.127 15.498 14.901 16.261 C 15.781 17.128,15.784 17.122,14.240 17.611 C 12.087 18.294,9.809 17.955,7.580 16.620 C 6.480 15.961,4.621 14.152,3.773 12.915 L 3.147 12.000 3.765 11.103 C 4.536 9.983,6.283 8.160,6.585 8.160 C 6.709 8.160,7.193 8.546,7.659 9.019 M12.263 13.948 C 11.899 14.152,10.920 13.774,10.490 13.263 C 10.194 12.911,10.080 12.591,10.080 12.112 L 10.080 11.448 11.278 12.638 C 12.138 13.493,12.417 13.863,12.263 13.948 " stroke="none" fill-rule="evenodd" fill="black"></path></svg>