<svg width="24" height="24" viewBox="0 0 24 24" fill="none" xmlns="http://www.w3.org/2000/svg"><path d="M9.941 4.247 C 8.657 4.525,7.122 5.240,5.838 6.156 C 3.816 7.598,1.120 10.938,1.120 12.000 C 1.120 12.755,2.277 14.432,4.000 16.171 C 5.838 18.026,6.994 18.802,8.945 19.484 C 9.989 19.850,10.420 19.910,12.000 19.910 C 13.580 19.910,14.011 19.850,15.055 19.484 C 17.006 18.802,18.162 18.026,20.000 16.171 C 21.723 14.432,22.880 12.755,22.880 12.000 C 22.880 10.938,20.184 7.598,18.162 6.156 C 15.551 4.292,12.739 3.639,9.941 4.247 M14.758 6.539 C 16.675 7.296,18.874 9.126,20.227 11.090 L 20.853 12.000 20.227 12.915 C 19.379 14.152,17.520 15.961,16.420 16.620 C 13.439 18.405,10.561 18.405,7.580 16.620 C 6.482 15.962,4.622 14.153,3.778 12.921 C 3.056 11.867,3.020 11.990,4.594 10.048 C 5.909 8.425,7.785 7.072,9.672 6.384 C 10.844 5.957,13.487 6.037,14.758 6.539 M10.779 8.228 C 9.863 8.515,9.023 9.195,8.512 10.065 C 8.145 10.689,8.080 10.983,8.080 12.013 C 8.080 13.082,8.137 13.318,8.565 14.013 C 10.173 16.625,13.827 16.625,15.435 14.013 C 15.863 13.318,15.920 13.082,15.920 12.013 C 15.920 10.983,15.855 10.689,15.488 10.065 C 14.511 8.403,12.601 7.658,10.779 8.228 M13.376 10.624 C 13.850 11.098,13.920 11.271,13.920 11.972 C 13.920 12.601,13.831 12.881,13.510 13.263 C 12.714 14.208,11.286 14.208,10.490 13.263 C 10.169 12.881,10.080 12.601,10.080 11.972 C 10.080 11.271,10.150 11.098,10.624 10.624 C 11.103 10.145,11.267 10.080,12.000 10.080 C 12.733 10.080,12.897 10.145,13.376 10.624 " stroke="none" fill-rule="evenodd" fill="black"></path></svg>