<svg width="24" height="24" viewBox="0 0 24 24" fill="none" xmlns="http://www.w3.org/2000/svg"><path d="M6.480 1.102 C 4.897 1.326,3.799 2.208,3.283 3.671 C 2.920 4.699,2.921 19.275,3.284 20.340 C 3.618 21.319,4.321 22.126,5.235 22.580 C 5.999 22.960,6.006 22.960,12.000 22.960 C 17.994 22.960,18.001 22.960,18.765 22.580 C 19.679 22.126,20.382 21.319,20.716 20.340 C 21.079 19.275,21.080 4.699,20.717 3.671 C 20.360 2.659,19.766 1.971,18.830 1.483 L 18.000 1.050 12.640 1.020 C 9.692 1.003,6.920 1.040,6.480 1.102 M17.833 3.267 C 18.965 3.740,18.954 3.667,19.015 10.633 C 19.046 14.069,19.021 17.553,18.959 18.375 C 18.860 19.708,18.799 19.926,18.397 20.375 L 17.946 20.880 12.000 20.880 L 6.054 20.880 5.603 20.375 C 5.201 19.926,5.140 19.708,5.041 18.375 C 4.979 17.553,4.954 14.069,4.985 10.633 C 5.046 3.695,5.038 3.749,6.132 3.273 C 6.883 2.947,17.053 2.941,17.833 3.267 M7.291 6.331 C 6.918 6.705,6.973 7.455,7.396 7.751 C 7.696 7.961,8.413 8.000,12.000 8.000 C 16.691 8.000,16.960 7.949,16.960 7.056 C 16.960 6.108,16.818 6.080,11.959 6.080 C 8.158 6.080,7.508 6.115,7.291 6.331 M7.294 10.328 C 6.907 10.716,6.971 11.467,7.417 11.760 C 7.732 11.966,8.339 12.000,11.120 11.963 L 14.446 11.920 14.780 11.473 C 15.088 11.059,15.095 10.992,14.871 10.593 L 14.628 10.160 11.088 10.117 C 8.028 10.080,7.514 10.108,7.294 10.328 M7.297 14.326 C 7.156 14.467,7.040 14.792,7.040 15.048 C 7.040 15.793,7.560 16.022,9.126 15.967 C 10.361 15.923,10.468 15.891,10.780 15.473 C 11.088 15.060,11.095 14.992,10.871 14.593 C 10.637 14.175,10.575 14.158,9.091 14.114 C 7.850 14.078,7.505 14.118,7.297 14.326 " stroke="none" fill-rule="evenodd" fill="black"></path></svg>