<svg width="24" height="24" viewBox="0 0 24 24" fill="none" xmlns="http://www.w3.org/2000/svg"><path d="M6.480 1.110 C 4.908 1.317,3.801 2.204,3.283 3.671 C 2.920 4.699,2.921 19.275,3.284 20.340 C 3.618 21.319,4.321 22.126,5.235 22.580 C 5.999 22.960,6.006 22.960,12.000 22.960 C 17.994 22.960,18.001 22.960,18.765 22.580 C 19.185 22.371,19.741 21.943,20.000 21.629 C 20.924 20.509,20.960 20.207,20.960 13.606 L 20.960 7.590 17.631 4.275 L 14.303 0.960 10.791 0.983 C 8.860 0.995,6.920 1.052,6.480 1.110 M12.960 5.125 C 12.960 7.348,13.107 7.982,13.754 8.560 C 14.074 8.845,14.381 8.886,16.592 8.931 L 19.072 8.983 19.016 14.320 C 18.962 19.442,18.947 19.675,18.625 20.108 C 17.990 20.963,17.973 20.965,11.787 20.921 L 6.053 20.880 5.603 20.375 C 5.201 19.926,5.140 19.708,5.041 18.375 C 4.979 17.553,4.954 14.069,4.985 10.633 C 5.035 4.909,5.064 4.348,5.332 3.940 C 5.849 3.152,6.341 3.053,9.800 3.046 L 12.960 3.040 12.960 5.125 M17.440 6.916 C 17.440 6.984,16.900 7.040,16.240 7.040 L 15.040 7.040 15.040 5.724 L 15.040 4.408 16.240 5.600 C 16.900 6.256,17.440 6.848,17.440 6.916 M7.396 8.249 C 6.937 8.570,6.928 9.289,7.377 9.695 C 7.652 9.945,7.961 10.000,9.071 10.000 C 10.304 10.000,10.456 9.966,10.734 9.622 C 11.123 9.142,11.119 8.943,10.708 8.422 C 10.398 8.027,10.292 8.000,9.064 8.000 C 8.135 8.000,7.647 8.073,7.396 8.249 M7.396 12.249 C 6.937 12.570,6.928 13.289,7.377 13.695 C 7.690 13.979,8.009 14.000,12.000 14.000 C 15.991 14.000,16.310 13.979,16.623 13.695 C 17.072 13.289,17.063 12.570,16.604 12.249 C 16.304 12.039,15.587 12.000,12.000 12.000 C 8.413 12.000,7.696 12.039,7.396 12.249 M7.396 16.249 C 6.937 16.570,6.928 17.289,7.377 17.695 C 7.690 17.979,8.009 18.000,12.000 18.000 C 15.991 18.000,16.310 17.979,16.623 17.695 C 17.072 17.289,17.063 16.570,16.604 16.249 C 16.304 16.039,15.587 16.000,12.000 16.000 C 8.413 16.000,7.696 16.039,7.396 16.249 " stroke="none" fill-rule="evenodd" fill="black"></path></svg>