<svg width="24" height="24" viewBox="0 0 24 24" fill="none" xmlns="http://www.w3.org/2000/svg"><path d="M1.842 2.427 C 1.600 2.618,1.302 3.011,1.181 3.302 C 0.899 3.976,0.896 5.618,1.176 6.287 C 1.320 6.632,2.568 7.817,4.920 9.842 L 8.448 12.880 8.504 16.904 C 8.555 20.577,8.586 20.956,8.862 21.260 C 9.458 21.918,10.018 21.860,12.501 20.885 C 13.765 20.389,14.944 19.841,15.120 19.667 C 15.415 19.377,15.444 19.098,15.497 16.116 L 15.554 12.880 19.081 9.842 C 21.432 7.818,22.680 6.632,22.824 6.287 C 23.104 5.618,23.101 3.976,22.819 3.302 C 22.698 3.011,22.400 2.618,22.158 2.427 L 21.717 2.080 12.000 2.080 L 2.283 2.080 1.842 2.427 M20.960 4.789 L 20.960 5.579 17.423 8.652 C 15.021 10.737,13.814 11.896,13.663 12.257 C 13.501 12.643,13.440 13.557,13.440 15.567 L 13.440 18.344 12.000 18.917 L 10.560 19.490 10.560 16.140 C 10.560 13.641,10.503 12.654,10.337 12.257 C 10.186 11.896,8.979 10.737,6.577 8.652 L 3.040 5.579 3.040 4.789 L 3.040 4.000 12.000 4.000 L 20.960 4.000 20.960 4.789 " stroke="none" fill-rule="evenodd" fill="black"></path></svg>