<svg width="24" height="24" viewBox="0 0 24 24" fill="none" xmlns="http://www.w3.org/2000/svg"><path d="M6.328 1.139 C 5.717 1.220,4.852 1.453,4.406 1.657 C 2.907 2.343,3.040 1.287,3.040 12.491 C 3.040 22.187,3.047 22.407,3.360 22.720 C 3.536 22.896,3.824 23.040,4.000 23.040 C 4.176 23.040,4.464 22.896,4.640 22.720 C 4.940 22.420,4.960 22.187,4.960 18.964 L 4.960 15.529 5.871 15.264 C 7.439 14.808,9.073 15.014,11.920 16.027 L 14.320 16.880 16.320 16.873 C 18.444 16.865,19.580 16.582,20.547 15.822 L 20.960 15.497 20.960 9.053 C 20.960 3.014,20.942 2.593,20.667 2.345 C 20.281 1.995,19.823 2.011,19.077 2.400 C 18.234 2.839,16.740 3.093,15.654 2.981 C 15.155 2.930,14.003 2.629,13.094 2.314 C 9.528 1.076,8.354 0.872,6.328 1.139 M11.920 4.022 C 14.262 4.855,14.363 4.875,16.080 4.878 C 17.048 4.879,18.110 4.823,18.440 4.753 L 19.040 4.625 19.040 9.521 L 19.040 14.416 18.440 14.677 C 18.027 14.856,17.367 14.938,16.320 14.939 C 14.965 14.941,14.618 14.876,13.120 14.340 C 9.992 13.221,9.458 13.095,7.840 13.090 C 7.004 13.088,6.014 13.158,5.640 13.246 L 4.960 13.406 4.960 8.468 L 4.960 3.530 5.720 3.286 C 6.257 3.114,6.926 3.061,8.000 3.106 C 9.341 3.162,9.802 3.269,11.920 4.022 " stroke="none" fill-rule="evenodd" fill="black"></path></svg>