<svg width="24" height="24" viewBox="0 0 24 24" fill="none" xmlns="http://www.w3.org/2000/svg"><path d="M4.338 6.302 C 2.503 8.140,2.040 8.692,2.040 9.041 C 2.040 9.390,2.493 9.932,4.281 11.719 C 6.658 14.096,7.002 14.294,7.685 13.675 C 8.265 13.150,8.086 12.692,6.772 11.342 L 5.545 10.080 11.452 10.084 C 16.853 10.087,17.416 10.112,18.011 10.383 C 19.193 10.920,19.997 12.225,19.999 13.611 C 20.000 14.484,19.237 15.837,18.427 16.399 L 17.734 16.880 14.614 16.960 C 11.762 17.033,11.474 17.067,11.267 17.351 C 10.947 17.788,10.985 18.345,11.360 18.720 C 11.654 19.014,11.893 19.040,14.286 19.040 C 17.849 19.040,19.007 18.717,20.381 17.342 C 21.466 16.256,21.958 15.005,21.950 13.359 C 21.939 11.331,20.673 9.408,18.761 8.512 L 17.840 8.080 11.636 8.000 L 5.432 7.920 6.716 6.644 C 8.087 5.281,8.250 4.890,7.680 4.320 C 7.059 3.699,6.757 3.879,4.338 6.302 " stroke="none" fill-rule="evenodd" fill="black"></path></svg>