<svg version="1.1" xmlns="http://www.w3.org/2000/svg" width="24" height="24" viewBox="0 0 24 24"><path d="M10.380 2.538 C 9.288 3.231,8.781 4.502,9.110 5.723 C 9.319 6.500,9.924 7.271,10.597 7.619 C 11.066 7.862,11.074 7.888,11.010 8.898 C 10.925 10.229,10.538 10.662,9.245 10.873 C 6.964 11.244,5.920 12.652,5.920 15.357 C 5.920 16.145,5.870 16.314,5.612 16.396 C 5.443 16.450,5.053 16.773,4.744 17.114 C 3.288 18.726,4.189 21.433,6.335 21.891 C 6.749 21.979,7.167 22.028,7.264 21.999 C 7.361 21.970,7.637 21.904,7.877 21.851 C 8.424 21.731,9.376 20.908,9.707 20.268 C 10.041 19.622,10.023 18.426,9.669 17.679 C 9.510 17.345,9.070 16.853,8.690 16.585 L 8.000 16.098 8.000 15.081 C 8.000 13.505,8.548 12.800,9.773 12.800 C 10.326 12.800,11.301 12.423,11.714 12.049 C 11.977 11.811,12.023 11.811,12.286 12.049 C 12.699 12.423,13.674 12.800,14.227 12.800 C 15.452 12.800,16.000 13.505,16.000 15.081 L 16.000 16.098 15.310 16.585 C 14.930 16.853,14.490 17.345,14.331 17.679 C 13.977 18.426,13.959 19.622,14.293 20.268 C 14.624 20.908,15.576 21.731,16.123 21.851 C 16.363 21.904,16.641 21.971,16.740 22.001 C 16.839 22.031,17.234 21.984,17.617 21.898 C 19.380 21.502,20.383 19.756,19.819 18.064 C 19.616 17.457,18.815 16.532,18.370 16.390 C 18.133 16.315,18.080 16.125,18.080 15.357 C 18.080 13.829,17.797 12.842,17.155 12.131 C 16.443 11.343,15.902 11.059,14.755 10.873 C 13.462 10.662,13.075 10.229,12.990 8.898 C 12.926 7.888,12.934 7.862,13.403 7.619 C 14.076 7.271,14.681 6.500,14.890 5.723 C 15.581 3.155,12.660 1.092,10.380 2.538 M12.604 4.249 C 12.959 4.497,13.081 5.172,12.838 5.536 C 12.576 5.928,12.015 6.099,11.640 5.902 C 11.169 5.654,11.045 5.452,11.042 4.929 C 11.040 4.482,11.536 4.000,12.000 4.000 C 12.137 4.000,12.409 4.112,12.604 4.249 M7.707 18.345 C 8.091 18.692,8.079 19.281,7.680 19.680 C 7.291 20.069,6.766 20.091,6.373 19.735 C 6.040 19.435,5.981 18.563,6.272 18.272 C 6.549 17.995,7.366 18.036,7.707 18.345 M17.728 18.272 C 17.834 18.378,17.920 18.678,17.920 18.939 C 17.920 19.892,16.971 20.331,16.320 19.680 C 15.931 19.291,15.909 18.766,16.265 18.373 C 16.565 18.040,17.437 17.981,17.728 18.272 " stroke="none" fill-rule="evenodd" fill="black"></path></svg>