<svg width="24" height="24" viewBox="0 0 24 24" fill="none" xmlns="http://www.w3.org/2000/svg"><path d="M2.624 2.385 C 1.780 2.768,1.314 3.435,1.107 4.557 C 1.004 5.115,0.960 8.006,0.991 12.207 C 1.040 18.914,1.043 18.965,1.414 19.720 C 1.620 20.137,2.073 20.723,2.421 21.021 C 3.537 21.976,3.774 22.000,12.000 22.000 C 20.226 22.000,20.463 21.976,21.579 21.021 C 21.927 20.723,22.380 20.137,22.586 19.720 C 22.954 18.973,22.960 18.876,22.960 14.000 C 22.960 9.796,22.921 8.955,22.704 8.480 C 22.292 7.578,21.591 6.861,20.727 6.459 C 19.968 6.105,19.734 6.083,16.800 6.080 L 13.680 6.076 12.880 4.529 C 12.219 3.250,11.957 2.905,11.369 2.531 L 10.657 2.080 6.969 2.084 C 3.718 2.087,3.202 2.122,2.624 2.385 M10.393 4.313 C 10.678 4.598,11.360 5.784,11.360 5.994 C 11.360 6.041,9.488 6.080,7.200 6.080 L 3.040 6.080 3.040 5.289 C 3.040 4.038,3.153 4.000,6.916 4.000 C 9.844 4.000,10.103 4.023,10.393 4.313 M20.357 8.603 L 20.880 9.126 20.880 14.000 L 20.880 18.874 20.357 19.397 L 19.834 19.920 12.000 19.920 L 4.166 19.920 3.643 19.397 L 3.120 18.874 3.072 13.430 L 3.024 7.987 11.429 8.033 L 19.834 8.080 20.357 8.603 " stroke="none" fill-rule="evenodd" fill="black"></path></svg>