<svg width="24" height="24" viewBox="0 0 24 24" fill="none" xmlns="http://www.w3.org/2000/svg"><path d="M2.311 2.307 C 2.012 2.526,2.000 2.784,2.000 8.987 C 2.000 16.138,2.039 16.481,2.979 17.579 C 3.277 17.927,3.863 18.380,4.280 18.586 C 5.014 18.947,5.196 18.962,9.640 19.013 C 13.584 19.058,14.240 19.100,14.240 19.304 C 14.240 19.716,15.148 20.883,15.807 21.319 C 17.614 22.515,20.285 21.929,21.356 20.101 C 23.398 16.618,19.780 12.706,16.178 14.501 C 15.305 14.936,14.252 16.126,14.244 16.687 C 14.240 16.957,13.975 16.971,9.683 16.927 L 5.126 16.880 4.603 16.357 L 4.080 15.834 4.026 12.397 L 3.973 8.960 9.024 8.960 L 14.076 8.960 14.326 9.560 C 15.161 11.563,17.659 12.537,19.600 11.618 C 21.122 10.897,21.952 9.621,21.952 8.000 C 21.952 6.459,21.167 5.181,19.760 4.431 C 18.866 3.954,17.134 3.954,16.240 4.431 C 15.415 4.871,14.642 5.682,14.326 6.440 L 14.076 7.040 9.038 7.040 L 4.000 7.040 4.000 4.825 C 4.000 2.882,3.964 2.577,3.707 2.345 C 3.348 2.020,2.726 2.003,2.311 2.307 M19.026 6.313 C 19.506 6.561,20.000 7.418,20.000 8.000 C 20.000 8.537,19.539 9.391,19.091 9.684 C 18.576 10.022,17.424 10.022,16.909 9.684 C 16.461 9.391,16.000 8.537,16.000 8.000 C 16.000 7.436,16.487 6.567,16.941 6.320 C 17.488 6.023,18.460 6.020,19.026 6.313 M18.895 16.248 C 19.489 16.555,19.999 17.364,19.999 18.000 C 19.999 18.991,18.990 20.000,18.000 20.000 C 17.025 20.000,16.002 18.993,16.001 18.032 C 15.999 17.027,16.992 16.002,17.968 16.001 C 18.214 16.000,18.631 16.111,18.895 16.248 " stroke="none" fill-rule="evenodd" fill="black"></path></svg>