<svg width="24" height="24" viewBox="0 0 24 24" fill="none" xmlns="http://www.w3.org/2000/svg"><path d="M4.461 7.251 C 2.278 8.068,1.056 9.772,1.056 12.000 C 1.056 13.947,2.021 15.542,3.750 16.451 C 4.453 16.821,4.750 16.877,6.000 16.877 C 7.250 16.877,7.547 16.821,8.250 16.451 C 9.610 15.736,10.550 14.511,10.884 13.020 C 11.083 12.135,11.225 12.005,12.000 12.005 C 12.775 12.005,12.917 12.135,13.116 13.020 C 13.450 14.511,14.390 15.736,15.750 16.451 C 16.453 16.821,16.750 16.877,18.000 16.877 C 19.250 16.877,19.547 16.821,20.250 16.451 C 21.223 15.939,22.155 14.948,22.610 13.940 C 23.128 12.794,23.086 11.065,22.513 9.893 C 22.027 8.899,21.186 8.052,20.127 7.488 C 19.133 6.959,16.867 6.959,15.873 7.488 C 14.962 7.973,14.050 8.812,13.673 9.512 L 13.367 10.080 12.000 10.080 L 10.633 10.080 10.327 9.512 C 9.945 8.803,9.026 7.963,8.127 7.500 C 7.272 7.060,5.325 6.928,4.461 7.251 M7.360 9.367 C 9.088 10.250,9.505 12.572,8.190 13.980 C 7.664 14.543,6.645 15.033,6.000 15.033 C 4.963 15.033,3.586 14.064,3.210 13.070 C 2.976 12.451,2.997 11.453,3.256 10.832 C 3.523 10.194,4.497 9.318,5.083 9.188 C 5.323 9.135,5.592 9.068,5.680 9.039 C 5.939 8.953,6.928 9.146,7.360 9.367 M19.360 9.367 C 21.088 10.250,21.505 12.572,20.190 13.980 C 19.664 14.543,18.645 15.033,18.000 15.033 C 16.963 15.033,15.586 14.064,15.210 13.070 C 14.976 12.451,14.997 11.453,15.256 10.832 C 15.523 10.194,16.497 9.318,17.083 9.188 C 17.323 9.135,17.592 9.068,17.680 9.039 C 17.939 8.953,18.928 9.146,19.360 9.367 " stroke="none" fill-rule="evenodd" fill="black"></path></svg>