<svg width="24" height="24" viewBox="0 0 24 24" fill="none" xmlns="http://www.w3.org/2000/svg"><path d="M6.500 3.275 C 5.171 3.749,4.835 4.192,2.880 8.052 L 1.040 11.684 1.042 14.842 C 1.043 17.837,1.063 18.039,1.422 18.765 C 1.873 19.679,2.680 20.382,3.660 20.716 C 4.728 21.079,19.272 21.079,20.340 20.716 C 21.320 20.382,22.127 19.679,22.578 18.765 C 22.937 18.039,22.957 17.837,22.958 14.842 L 22.960 11.684 21.120 8.045 C 19.519 4.878,19.191 4.339,18.596 3.889 C 18.220 3.605,17.644 3.298,17.316 3.207 C 16.368 2.944,7.269 3.001,6.500 3.275 M17.229 5.371 C 17.518 5.583,18.153 6.618,18.995 8.251 C 19.718 9.653,20.312 10.854,20.315 10.920 C 20.318 10.986,16.576 11.040,12.000 11.040 C 7.424 11.040,3.680 11.000,3.680 10.950 C 3.680 10.685,6.279 5.774,6.548 5.530 C 7.088 5.042,7.772 4.981,12.349 5.011 C 16.550 5.038,16.800 5.057,17.229 5.371 M20.960 15.125 C 20.960 17.536,20.795 18.186,20.060 18.668 C 19.644 18.940,19.105 18.960,12.000 18.960 C 4.895 18.960,4.356 18.940,3.940 18.668 C 3.205 18.186,3.040 17.536,3.040 15.125 L 3.040 12.960 12.000 12.960 L 20.960 12.960 20.960 15.125 M5.280 15.360 C 5.104 15.536,4.960 15.824,4.960 16.000 C 4.960 16.176,5.104 16.464,5.280 16.640 C 5.572 16.932,5.813 16.960,8.000 16.960 C 10.187 16.960,10.428 16.932,10.720 16.640 C 10.896 16.464,11.040 16.176,11.040 16.000 C 11.040 15.824,10.896 15.536,10.720 15.360 C 10.428 15.068,10.187 15.040,8.000 15.040 C 5.813 15.040,5.572 15.068,5.280 15.360 " stroke="none" fill-rule="evenodd" fill="black"></path></svg>