<svg width="24" height="24" viewBox="0 0 24 24" fill="none" xmlns="http://www.w3.org/2000/svg"><path d="M7.291 2.331 C 7.087 2.536,7.040 2.999,7.040 4.811 L 7.040 7.040 5.305 7.040 C 3.402 7.040,3.040 7.198,3.040 8.028 C 3.040 8.792,3.454 8.960,5.333 8.960 L 7.040 8.960 7.040 12.000 L 7.040 15.040 5.305 15.040 C 3.402 15.040,3.040 15.198,3.040 16.028 C 3.040 16.792,3.454 16.960,5.333 16.960 L 7.040 16.960 7.040 19.175 C 7.040 21.118,7.076 21.423,7.333 21.655 C 7.719 22.005,8.365 21.992,8.695 21.627 C 8.914 21.385,8.960 20.958,8.960 19.147 L 8.960 16.960 12.000 16.960 L 15.040 16.960 15.040 19.175 C 15.040 21.118,15.076 21.423,15.333 21.655 C 15.719 22.005,16.365 21.992,16.695 21.627 C 16.914 21.385,16.960 20.958,16.960 19.147 L 16.960 16.960 18.695 16.960 C 20.598 16.960,20.960 16.802,20.960 15.972 C 20.960 15.208,20.546 15.040,18.667 15.040 L 16.960 15.040 16.960 12.000 L 16.960 8.960 18.695 8.960 C 20.598 8.960,20.960 8.802,20.960 7.972 C 20.960 7.208,20.546 7.040,18.667 7.040 L 16.960 7.040 16.960 4.825 C 16.960 2.882,16.924 2.577,16.667 2.345 C 16.298 2.010,15.619 2.004,15.291 2.331 C 15.087 2.536,15.040 2.999,15.040 4.811 L 15.040 7.040 12.000 7.040 L 8.960 7.040 8.960 4.825 C 8.960 2.882,8.924 2.577,8.667 2.345 C 8.298 2.010,7.619 2.004,7.291 2.331 M15.040 12.000 L 15.040 15.040 12.000 15.040 L 8.960 15.040 8.960 12.000 L 8.960 8.960 12.000 8.960 L 15.040 8.960 15.040 12.000 " stroke="none" fill-rule="evenodd" fill="black"></path></svg>