<svg width="24" height="24" viewBox="0 0 24 24" fill="none" xmlns="http://www.w3.org/2000/svg"><path d="M10.466 1.131 C 8.130 1.410,6.075 2.444,4.259 4.256 C 2.916 5.596,2.071 6.957,1.489 8.720 C 1.124 9.828,1.067 10.268,1.067 12.000 C 1.067 13.732,1.124 14.172,1.489 15.280 C 2.070 17.040,2.915 18.403,4.256 19.744 C 5.597 21.085,6.960 21.930,8.720 22.511 C 9.828 22.876,10.268 22.933,12.000 22.933 C 13.732 22.933,14.172 22.876,15.280 22.511 C 17.040 21.930,18.403 21.085,19.744 19.744 C 21.085 18.403,21.930 17.040,22.511 15.280 C 22.876 14.172,22.933 13.732,22.933 12.000 C 22.933 10.271,22.876 9.826,22.512 8.720 C 20.810 3.543,15.945 0.478,10.466 1.131 M14.225 3.286 C 15.737 3.643,17.053 4.412,18.321 5.679 C 20.137 7.496,20.955 9.458,20.955 12.000 C 20.955 14.542,20.137 16.504,18.321 18.321 C 16.496 20.145,14.545 20.960,12.000 20.960 C 9.455 20.960,7.504 20.145,5.679 18.321 C 3.863 16.504,3.045 14.542,3.045 12.000 C 3.045 9.458,3.863 7.496,5.679 5.679 C 6.920 4.438,8.263 3.642,9.701 3.294 C 10.950 2.992,12.961 2.988,14.225 3.286 M10.080 6.495 C 9.057 7.078,8.802 7.338,8.390 8.220 C 7.974 9.111,8.077 9.598,8.747 9.903 C 9.265 10.139,9.653 9.924,10.161 9.118 C 10.852 8.024,11.930 7.715,12.930 8.324 C 13.455 8.644,13.920 9.461,13.920 10.063 C 13.920 10.561,13.179 11.307,12.220 11.777 C 11.128 12.311,10.757 12.803,11.016 13.371 C 11.116 13.590,11.360 13.830,11.559 13.903 C 12.474 14.242,14.910 12.695,15.618 11.325 C 16.146 10.305,15.859 8.604,14.960 7.425 C 13.964 6.120,11.545 5.659,10.080 6.495 M11.396 16.249 C 10.671 16.757,11.120 17.920,12.041 17.920 C 12.587 17.920,12.960 17.529,12.960 16.958 C 12.960 16.482,12.477 16.000,12.000 16.000 C 11.863 16.000,11.591 16.112,11.396 16.249 " stroke="none" fill-rule="evenodd" fill="black"></path></svg>