<svg width="24" height="24" viewBox="0 0 24 24" fill="none" xmlns="http://www.w3.org/2000/svg"><path d="M3.680 1.069 C 3.317 1.202,3.040 1.618,3.040 2.031 C 3.040 2.604,3.585 3.040,4.300 3.040 L 4.920 3.040 4.992 4.840 C 5.097 7.458,5.355 7.840,9.003 10.800 C 9.762 11.416,10.384 11.956,10.384 12.000 C 10.384 12.044,9.762 12.584,9.003 13.200 C 5.360 16.155,5.097 16.545,4.993 19.141 L 4.921 20.923 4.190 21.005 C 3.085 21.130,2.656 22.016,3.360 22.720 C 3.672 23.032,3.893 23.040,12.000 23.040 C 20.107 23.040,20.328 23.032,20.640 22.720 C 21.344 22.016,20.915 21.130,19.810 21.005 L 19.079 20.923 19.007 19.141 C 18.903 16.545,18.640 16.155,14.997 13.200 C 14.238 12.584,13.616 12.044,13.616 12.000 C 13.616 11.956,14.238 11.416,14.997 10.800 C 18.645 7.840,18.903 7.458,19.008 4.840 L 19.080 3.040 19.700 3.040 C 20.747 3.040,21.303 2.130,20.733 1.351 C 20.514 1.051,20.219 1.039,12.213 1.010 C 7.652 0.994,3.812 1.021,3.680 1.069 M16.960 4.552 C 16.960 5.384,16.878 6.245,16.778 6.465 C 16.588 6.881,12.296 10.560,12.000 10.560 C 11.704 10.560,7.412 6.881,7.222 6.465 C 7.122 6.245,7.040 5.384,7.040 4.552 L 7.040 3.040 12.000 3.040 L 16.960 3.040 16.960 4.552 M14.382 15.287 C 15.599 16.303,16.677 17.315,16.778 17.535 C 16.878 17.755,16.960 18.616,16.960 19.448 L 16.960 20.960 12.000 20.960 L 7.040 20.960 7.046 19.400 C 7.049 18.423,7.130 17.699,7.261 17.462 C 7.510 17.014,11.669 13.466,11.964 13.451 C 12.076 13.445,13.164 14.271,14.382 15.287 " stroke="none" fill-rule="evenodd" fill="black"></path></svg>