<svg width="24" height="24" viewBox="0 0 24 24" fill="none" xmlns="http://www.w3.org/2000/svg"><path d="M4.600 2.308 C 3.612 2.661,2.874 3.337,2.421 4.303 L 2.000 5.200 2.000 12.000 C 2.000 18.761,2.002 18.805,2.369 19.600 C 2.850 20.646,3.373 21.173,4.379 21.628 C 5.197 21.998,5.228 22.000,12.000 22.000 C 18.761 22.000,18.805 21.998,19.600 21.631 C 20.646 21.150,21.173 20.627,21.628 19.621 C 21.998 18.803,22.000 18.772,22.000 12.000 L 22.000 5.200 21.579 4.303 C 21.126 3.337,20.388 2.661,19.400 2.308 C 18.529 1.998,5.471 1.998,4.600 2.308 M19.000 4.286 C 19.855 4.774,19.916 5.070,19.970 8.953 L 20.021 12.560 18.690 11.263 C 17.959 10.549,17.182 9.847,16.964 9.703 C 16.346 9.292,15.503 9.370,14.784 9.903 C 14.441 10.157,12.074 12.461,9.525 15.024 C 5.011 19.561,4.883 19.674,4.594 19.385 C 4.431 19.222,4.232 18.807,4.152 18.464 C 3.964 17.651,3.964 6.349,4.152 5.536 C 4.330 4.772,4.749 4.330,5.461 4.156 C 5.757 4.084,8.844 4.037,12.320 4.052 C 17.133 4.073,18.726 4.129,19.000 4.286 M6.868 6.047 C 4.886 7.321,5.114 10.238,7.273 11.219 C 8.796 11.911,10.494 11.249,11.218 9.680 C 11.792 8.435,11.423 6.991,10.315 6.145 C 9.824 5.770,9.524 5.678,8.658 5.632 C 7.710 5.583,7.524 5.626,6.868 6.047 M9.147 7.785 C 9.773 8.351,9.361 9.440,8.521 9.440 C 7.623 9.440,7.210 8.470,7.840 7.840 C 8.229 7.451,8.754 7.429,9.147 7.785 M18.065 13.505 L 20.044 15.489 19.967 17.095 C 19.912 18.246,19.811 18.820,19.612 19.124 C 19.068 19.954,18.715 20.000,12.846 20.000 L 7.442 20.000 11.680 15.760 C 14.011 13.428,15.955 11.520,16.001 11.520 C 16.047 11.520,16.976 12.413,18.065 13.505 " stroke="none" fill-rule="evenodd" fill="black"></path></svg>