<svg width="24" height="24" viewBox="0 0 24 24" fill="none" xmlns="http://www.w3.org/2000/svg"><path d="M6.500 3.275 C 5.171 3.749,4.835 4.192,2.880 8.052 L 1.040 11.684 1.042 14.842 C 1.043 17.837,1.063 18.039,1.422 18.765 C 1.873 19.679,2.680 20.382,3.660 20.716 C 4.728 21.079,19.272 21.079,20.340 20.716 C 21.320 20.382,22.127 19.679,22.578 18.765 C 22.937 18.039,22.957 17.837,22.958 14.842 L 22.960 11.684 21.120 8.045 C 19.519 4.878,19.191 4.339,18.596 3.889 C 18.220 3.605,17.644 3.298,17.316 3.207 C 16.368 2.944,7.269 3.001,6.500 3.275 M17.229 5.371 C 17.518 5.583,18.153 6.618,18.995 8.251 C 19.718 9.653,20.312 10.854,20.315 10.920 C 20.318 10.986,19.669 11.040,18.874 11.040 C 17.142 11.040,16.382 11.351,15.739 12.323 L 15.317 12.960 12.000 12.960 L 8.683 12.960 8.261 12.323 C 7.618 11.351,6.858 11.040,5.126 11.040 C 4.331 11.040,3.680 11.000,3.680 10.950 C 3.680 10.685,6.279 5.774,6.548 5.530 C 7.088 5.042,7.772 4.981,12.349 5.011 C 16.550 5.038,16.800 5.057,17.229 5.371 M6.447 13.348 C 6.641 13.561,7.000 13.954,7.244 14.221 C 7.488 14.488,7.956 14.781,8.284 14.873 C 9.058 15.088,14.942 15.088,15.716 14.873 C 16.044 14.781,16.512 14.488,16.756 14.221 C 17.000 13.954,17.359 13.561,17.553 13.348 C 17.879 12.989,18.020 12.960,19.433 12.960 L 20.960 12.960 20.960 15.125 C 20.960 17.536,20.795 18.186,20.060 18.668 C 19.644 18.940,19.105 18.960,12.000 18.960 C 4.895 18.960,4.356 18.940,3.940 18.668 C 3.205 18.186,3.040 17.536,3.040 15.125 L 3.040 12.960 4.567 12.960 C 5.980 12.960,6.121 12.989,6.447 13.348 " stroke="none" fill-rule="evenodd" fill="black"></path></svg>