<svg width="24" height="24" viewBox="0 0 24 24" fill="none" xmlns="http://www.w3.org/2000/svg"><path d="M12.623 2.457 C 11.343 2.983,10.708 3.409,9.878 4.296 C 8.579 5.685,7.955 7.407,8.029 9.399 L 8.072 10.557 5.090 13.559 C 1.705 16.965,1.776 16.831,1.975 19.408 C 2.148 21.647,2.606 21.996,5.373 21.998 C 7.702 22.000,8.000 21.853,8.000 20.695 L 8.000 20.000 8.695 20.000 C 9.545 20.000,9.911 19.653,10.035 18.732 C 10.118 18.111,10.149 18.080,10.678 18.080 C 11.148 18.080,11.412 17.909,12.377 16.982 L 13.520 15.883 14.492 15.959 C 17.653 16.204,20.653 14.167,21.667 11.086 C 21.990 10.107,22.034 8.219,21.759 7.197 C 21.153 4.944,19.267 3.002,17.026 2.322 C 15.792 1.948,13.705 2.011,12.623 2.457 M17.218 4.562 C 18.198 5.041,19.103 5.986,19.571 7.020 C 20.073 8.127,20.048 10.052,19.518 11.099 C 19.054 12.016,18.088 13.028,17.283 13.438 C 16.483 13.847,15.152 14.051,13.884 13.960 L 12.807 13.883 11.711 14.942 L 10.614 16.000 9.627 16.000 C 8.369 16.000,8.000 16.308,8.000 17.360 L 8.000 18.080 7.311 18.080 C 6.370 18.080,6.065 18.345,5.963 19.250 L 5.878 20.000 4.939 20.000 L 4.000 20.000 4.000 18.682 L 4.000 17.363 7.000 14.360 L 10.000 11.358 10.090 9.399 C 10.162 7.832,10.248 7.312,10.518 6.800 C 11.173 5.562,12.496 4.472,13.721 4.164 C 14.684 3.921,16.279 4.103,17.218 4.562 M14.331 6.292 C 13.705 6.750,14.184 8.000,14.985 8.000 C 15.467 8.000,16.000 8.533,16.000 9.015 C 16.000 9.663,16.701 10.098,17.376 9.868 C 17.737 9.745,18.111 9.092,18.009 8.762 C 17.975 8.651,17.904 8.363,17.851 8.123 C 17.734 7.589,16.912 6.626,16.304 6.312 C 15.744 6.022,14.714 6.012,14.331 6.292 " stroke="none" fill-rule="evenodd" fill="black"></path></svg>