<svg width="24" height="24" viewBox="0 0 24 24" fill="none" xmlns="http://www.w3.org/2000/svg"><path d="M6.576 6.075 C 2.962 7.877,1.375 8.750,1.185 9.041 C 0.635 9.880,0.841 10.026,6.637 12.915 L 12.000 15.589 17.363 12.915 C 23.159 10.026,23.365 9.880,22.815 9.041 C 22.625 8.750,21.038 7.877,17.424 6.075 C 14.607 4.670,12.166 3.520,12.000 3.520 C 11.834 3.520,9.393 4.670,6.576 6.075 M15.881 7.541 L 19.760 9.481 15.880 11.419 L 12.000 13.357 8.120 11.419 L 4.240 9.481 8.080 7.549 C 10.192 6.487,11.939 5.613,11.961 5.609 C 11.984 5.604,13.748 6.473,15.881 7.541 M1.639 13.616 C 1.440 13.690,1.196 13.930,1.096 14.149 C 0.736 14.938,1.129 15.209,6.576 17.925 C 9.393 19.330,11.834 20.480,12.000 20.480 C 12.166 20.480,14.607 19.330,17.424 17.925 C 22.948 15.170,23.321 14.910,22.870 14.118 C 22.372 13.243,22.273 13.273,16.957 15.924 L 11.995 18.399 7.329 16.064 C 1.922 13.360,2.109 13.440,1.639 13.616 " stroke="none" fill-rule="evenodd" fill="black"></path></svg>