<svg width="24" height="24" viewBox="0 0 24 24" fill="none" xmlns="http://www.w3.org/2000/svg"><path d="M6.355 3.692 C 0.868 6.448,0.642 6.611,1.182 7.435 C 1.370 7.721,2.987 8.613,6.564 10.402 C 9.377 11.809,11.823 12.960,12.000 12.960 C 12.177 12.960,14.689 11.776,17.581 10.329 C 22.109 8.065,22.855 7.641,22.944 7.286 C 23.001 7.059,22.971 6.729,22.877 6.554 C 22.624 6.082,12.634 1.117,11.961 1.129 C 11.619 1.134,9.691 2.016,6.355 3.692 M15.999 5.109 L 19.757 7.000 15.879 8.941 L 12.000 10.881 8.121 8.941 L 4.243 7.000 8.001 5.109 C 10.069 4.068,11.868 3.217,12.000 3.217 C 12.132 3.217,13.931 4.068,15.999 5.109 M1.418 11.203 C 1.069 11.407,0.911 12.089,1.122 12.483 C 1.351 12.912,11.371 17.920,12.000 17.920 C 12.706 17.920,22.685 12.892,22.896 12.430 C 23.135 11.904,22.834 11.235,22.298 11.100 C 21.943 11.011,20.975 11.436,16.932 13.454 L 11.998 15.917 7.118 13.478 C 4.435 12.137,2.113 11.042,1.959 11.045 C 1.806 11.048,1.562 11.119,1.418 11.203 M1.292 16.422 C 0.913 16.902,0.895 17.019,1.127 17.454 C 1.358 17.885,11.367 22.880,12.000 22.880 C 12.303 22.880,14.389 21.926,17.606 20.317 C 23.213 17.512,23.408 17.369,22.771 16.515 C 22.592 16.276,22.311 16.053,22.145 16.021 C 21.980 15.989,19.629 17.068,16.921 18.419 L 11.998 20.877 7.118 18.438 C 4.435 17.097,2.100 16.000,1.931 16.000 C 1.762 16.000,1.474 16.190,1.292 16.422 " stroke="none" fill-rule="evenodd" fill="black"></path></svg>