<svg width="24" height="24" viewBox="0 0 24 24" fill="none" xmlns="http://www.w3.org/2000/svg"><path d="M4.775 6.460 C 0.756 8.113,-0.247 13.167,2.832 16.247 C 3.828 17.243,4.991 17.765,6.664 17.968 C 8.378 18.176,10.359 17.949,11.536 17.410 C 13.162 16.666,14.470 14.990,14.860 13.152 C 15.108 11.982,15.088 11.728,14.720 11.360 C 14.010 10.650,12.963 11.196,12.956 12.280 C 12.949 13.508,12.031 14.910,10.800 15.575 C 10.235 15.880,9.909 15.920,8.000 15.920 C 6.091 15.920,5.765 15.880,5.200 15.575 C 2.346 14.034,2.332 9.917,5.176 8.454 C 5.515 8.280,6.299 8.083,6.918 8.017 C 7.735 7.929,8.103 7.815,8.261 7.598 C 8.565 7.182,8.534 6.659,8.187 6.345 C 7.731 5.932,5.909 5.993,4.775 6.460 M12.775 6.454 C 10.872 7.249,9.569 8.824,9.140 10.848 C 8.892 12.018,8.912 12.272,9.280 12.640 C 9.990 13.350,11.037 12.804,11.044 11.720 C 11.051 10.492,11.969 9.090,13.200 8.425 C 13.765 8.120,14.091 8.080,16.000 8.080 C 17.909 8.080,18.235 8.120,18.800 8.425 C 21.654 9.966,21.668 14.083,18.824 15.546 C 18.485 15.720,17.701 15.917,17.082 15.983 C 16.265 16.071,15.897 16.185,15.739 16.402 C 15.297 17.005,15.572 17.691,16.368 17.974 C 16.838 18.141,18.654 17.814,19.559 17.399 C 21.901 16.327,23.375 13.493,22.886 11.005 C 22.500 9.045,21.233 7.377,19.520 6.573 C 18.709 6.193,18.445 6.157,16.160 6.118 C 13.863 6.079,13.613 6.104,12.775 6.454 " stroke="none" fill-rule="evenodd" fill="black"></path></svg>