<svg width="24" height="24" viewBox="0 0 24 24" fill="none" xmlns="http://www.w3.org/2000/svg"><path d="M14.331 2.292 C 13.960 2.564,13.957 3.279,14.325 3.685 C 14.579 3.966,14.824 4.000,16.623 4.000 L 18.637 4.000 15.319 7.321 C 11.841 10.802,11.678 11.038,12.320 11.680 C 12.962 12.322,13.198 12.159,16.679 8.681 L 20.000 5.363 20.000 7.377 C 20.000 9.092,20.041 9.427,20.280 9.641 C 20.629 9.952,20.941 10.016,21.383 9.866 C 22.007 9.654,22.103 9.054,22.050 5.690 C 22.004 2.782,21.976 2.516,21.689 2.307 C 21.253 1.988,14.765 1.975,14.331 2.292 M5.075 4.175 C 3.782 4.479,2.792 5.328,2.292 6.560 C 2.028 7.211,2.000 7.834,2.000 13.040 C 2.000 18.715,2.005 18.812,2.369 19.600 C 2.850 20.646,3.373 21.173,4.379 21.628 C 5.189 21.995,5.276 22.000,10.960 22.000 C 17.360 22.000,17.579 21.969,18.694 20.908 C 19.775 19.879,19.904 19.424,19.971 16.384 L 20.031 13.647 19.590 13.301 C 19.303 13.075,19.033 12.989,18.815 13.054 C 18.059 13.280,18.004 13.471,17.920 16.205 C 17.837 18.907,17.757 19.230,17.056 19.696 C 16.542 20.038,6.022 20.114,5.226 19.781 C 4.076 19.301,4.080 19.325,4.080 13.031 C 4.080 8.701,4.128 7.319,4.290 7.017 C 4.698 6.254,5.031 6.165,7.814 6.080 C 10.322 6.003,10.441 5.985,10.734 5.622 C 11.123 5.142,11.118 4.943,10.708 4.422 L 10.377 4.000 8.028 4.016 C 6.737 4.025,5.408 4.096,5.075 4.175 " stroke="none" fill-rule="evenodd" fill="black"></path></svg>