<svg width="24" height="24" viewBox="0 0 24 24" fill="none" xmlns="http://www.w3.org/2000/svg"><path d="M8.204 2.326 C 4.736 3.260,1.889 6.373,1.197 9.987 C 0.898 11.551,0.898 12.447,1.198 14.026 C 1.845 17.436,4.524 20.508,7.748 21.536 C 10.056 22.272,12.704 22.058,14.878 20.961 C 15.965 20.412,16.212 19.948,15.774 19.279 C 15.474 18.821,14.680 18.734,14.155 19.101 C 13.572 19.510,11.663 20.000,10.663 19.998 C 9.535 19.996,8.333 19.710,7.250 19.186 C 6.288 18.720,4.518 16.956,3.962 15.908 C 2.730 13.588,2.731 10.403,3.964 8.092 C 4.571 6.954,6.145 5.413,7.285 4.840 C 9.484 3.735,11.476 3.727,13.951 4.813 C 14.810 5.190,15.107 5.256,15.356 5.122 C 15.797 4.886,16.045 4.361,15.931 3.906 C 15.816 3.449,14.404 2.682,13.007 2.318 C 11.865 2.021,9.323 2.025,8.204 2.326 M17.280 7.360 C 16.728 7.912,16.884 8.281,18.266 9.697 L 19.573 11.036 13.992 11.078 L 8.412 11.120 8.166 11.560 C 7.945 11.956,7.945 12.044,8.166 12.440 L 8.412 12.880 13.992 12.922 L 19.573 12.964 18.266 14.303 C 16.884 15.719,16.728 16.088,17.280 16.640 C 17.958 17.318,18.307 17.120,20.754 14.674 C 22.438 12.990,23.040 12.286,23.040 12.000 C 23.040 11.714,22.438 11.010,20.754 9.326 C 18.307 6.880,17.958 6.682,17.280 7.360 " stroke="none" fill-rule="evenodd" fill="black"></path></svg>