<svg width="24" height="24" viewBox="0 0 24 24" fill="none" xmlns="http://www.w3.org/2000/svg"><path d="M14.570 1.162 C 14.100 1.400,13.858 2.204,13.965 3.166 C 14.059 4.000,14.457 4.480,15.056 4.480 C 15.724 4.480,16.000 3.964,15.998 2.724 C 15.995 1.585,15.933 1.419,15.411 1.144 C 14.989 0.922,15.047 0.921,14.570 1.162 M9.225 3.333 C 8.738 3.871,8.896 4.373,9.830 5.257 C 10.771 6.147,11.182 6.258,11.680 5.760 C 12.212 5.228,12.085 4.710,11.208 3.832 C 10.337 2.962,9.705 2.802,9.225 3.333 M18.743 3.910 C 17.829 4.877,17.744 5.219,18.290 5.732 C 18.850 6.258,19.211 6.161,20.125 5.235 C 21.030 4.319,21.184 3.772,20.667 3.305 C 20.129 2.818,19.627 2.976,18.743 3.910 M12.720 7.128 C 12.130 7.431,1.989 17.511,1.669 18.112 C 1.257 18.888,1.377 19.572,2.082 20.464 C 2.435 20.910,3.090 21.565,3.536 21.918 C 4.428 22.623,5.111 22.743,5.888 22.331 C 6.126 22.206,8.709 19.704,11.628 16.771 C 16.175 12.205,16.952 11.356,17.043 10.856 C 17.193 10.036,16.821 9.345,15.605 8.177 C 14.238 6.864,13.651 6.651,12.720 7.128 M19.840 8.320 C 19.055 9.105,19.668 9.949,21.086 10.037 C 22.160 10.103,22.729 9.859,22.947 9.239 C 23.074 8.878,23.036 8.737,22.722 8.402 C 22.390 8.049,22.212 8.000,21.252 8.000 C 20.373 8.000,20.097 8.063,19.840 8.320 M14.003 11.514 L 12.961 12.556 12.204 11.799 L 11.447 11.043 12.478 10.002 L 13.510 8.961 14.277 9.717 L 15.045 10.472 14.003 11.514 M18.268 12.370 C 17.755 12.916,17.832 13.206,18.743 14.170 C 19.639 15.117,20.208 15.286,20.695 14.747 C 21.190 14.201,21.030 13.609,20.161 12.771 C 19.261 11.904,18.798 11.806,18.268 12.370 M8.244 17.275 L 4.962 20.557 4.203 19.798 L 3.444 19.039 6.718 15.762 L 9.993 12.484 10.759 13.239 L 11.526 13.993 8.244 17.275 " stroke="none" fill-rule="evenodd" fill="black"></path></svg>