<svg width="24" height="24" viewBox="0 0 24 24" fill="none" xmlns="http://www.w3.org/2000/svg"><path d="M3.680 3.286 C 2.717 3.585,1.882 4.305,1.420 5.235 C 1.040 5.999,1.040 6.006,1.040 12.000 C 1.040 17.994,1.040 18.001,1.420 18.765 C 1.874 19.679,2.681 20.382,3.660 20.716 C 4.728 21.079,19.272 21.079,20.340 20.716 C 21.319 20.382,22.126 19.679,22.580 18.765 C 22.960 18.001,22.960 17.994,22.960 12.000 C 22.960 6.006,22.960 5.999,22.580 5.235 C 22.106 4.280,21.275 3.581,20.251 3.275 C 19.124 2.939,4.768 2.948,3.680 3.286 M19.103 5.104 C 19.849 5.197,20.125 5.314,20.423 5.660 C 20.630 5.901,20.799 6.220,20.798 6.369 C 20.796 6.541,19.328 7.665,16.786 9.440 C 14.581 10.980,12.602 12.332,12.389 12.445 C 11.878 12.714,12.021 12.797,7.214 9.440 C 4.672 7.665,3.204 6.541,3.202 6.369 C 3.201 6.220,3.371 5.899,3.581 5.655 C 3.876 5.312,4.155 5.189,4.821 5.109 C 6.016 4.964,17.950 4.961,19.103 5.104 M7.219 11.890 C 10.531 14.199,11.186 14.562,12.035 14.556 C 12.864 14.551,13.607 14.123,17.360 11.486 L 20.880 9.013 20.923 13.145 C 20.969 17.682,20.902 18.116,20.060 18.668 C 19.644 18.940,19.105 18.960,12.000 18.960 C 4.895 18.960,4.356 18.940,3.940 18.668 C 3.112 18.125,3.040 17.683,3.040 13.106 L 3.040 8.922 3.560 9.312 C 3.846 9.526,5.493 10.686,7.219 11.890 " stroke="none" fill-rule="evenodd" fill="black"></path></svg>