<svg width="24" height="24" viewBox="0 0 24 24" fill="none" xmlns="http://www.w3.org/2000/svg"><path d="M10.716 1.112 C 7.522 1.539,4.585 3.922,3.509 6.960 C 3.077 8.181,2.924 10.520,3.199 11.700 C 3.745 14.040,4.972 16.048,7.638 18.960 C 10.126 21.678,11.582 23.040,12.000 23.040 C 12.418 23.040,13.874 21.678,16.362 18.960 C 19.916 15.077,21.103 12.580,20.916 9.380 C 20.780 7.056,20.018 5.350,18.378 3.696 C 16.388 1.690,13.550 0.733,10.716 1.112 M13.821 3.282 C 17.129 4.143,19.343 7.470,18.878 10.880 C 18.737 11.918,18.082 13.542,17.396 14.556 C 16.640 15.674,14.883 17.700,13.371 19.196 L 12.000 20.553 10.629 19.196 C 8.006 16.600,6.413 14.540,5.678 12.796 C 4.536 10.083,5.048 7.127,6.999 5.176 C 8.872 3.303,11.307 2.627,13.821 3.282 M10.400 6.335 C 9.069 6.910,8.003 8.541,8.003 10.000 C 8.003 11.498,9.081 13.107,10.473 13.688 C 11.284 14.026,12.716 14.026,13.527 13.688 C 14.919 13.107,15.997 11.498,15.997 10.000 C 15.997 8.520,14.919 6.893,13.565 6.328 C 12.812 6.014,11.134 6.017,10.400 6.335 M12.903 8.262 C 14.273 8.912,14.273 11.088,12.903 11.738 C 12.208 12.068,11.792 12.068,11.097 11.738 C 9.741 11.095,9.725 8.931,11.072 8.268 C 11.745 7.936,12.213 7.934,12.903 8.262 " stroke="none" fill-rule="evenodd" fill="black"></path></svg>