<svg width="24" height="24" viewBox="0 0 24 24" fill="none" xmlns="http://www.w3.org/2000/svg"><path d="M4.600 2.308 C 3.617 2.659,2.873 3.336,2.445 4.271 C 2.118 4.985,2.045 5.409,2.025 6.709 C 1.997 8.486,2.215 8.960,3.061 8.960 C 3.729 8.960,3.953 8.464,4.041 6.790 C 4.161 4.490,4.487 4.161,6.763 4.042 C 8.465 3.953,8.960 3.732,8.960 3.061 C 8.960 2.256,8.565 2.079,6.787 2.087 C 5.885 2.091,4.941 2.187,4.600 2.308 M15.291 2.331 C 14.913 2.710,14.972 3.470,15.400 3.739 C 15.611 3.872,16.369 3.997,17.237 4.042 C 19.513 4.161,19.839 4.490,19.959 6.790 C 20.047 8.464,20.271 8.960,20.939 8.960 C 21.785 8.960,22.003 8.486,21.975 6.709 C 21.955 5.409,21.882 4.985,21.555 4.271 C 21.127 3.336,20.383 2.659,19.400 2.308 C 18.509 1.990,15.616 2.007,15.291 2.331 M2.345 15.278 C 1.981 15.642,1.875 16.395,1.997 17.739 C 2.270 20.733,3.603 21.927,6.728 21.976 C 8.481 22.003,8.960 21.782,8.960 20.944 C 8.960 20.243,8.455 20.000,6.999 20.000 C 4.676 20.000,4.162 19.520,4.042 17.237 C 3.997 16.369,3.872 15.611,3.739 15.400 C 3.474 14.978,2.712 14.911,2.345 15.278 M20.261 15.400 C 20.128 15.611,20.003 16.369,19.958 17.237 C 19.838 19.520,19.324 20.000,17.001 20.000 C 15.545 20.000,15.040 20.243,15.040 20.944 C 15.040 21.782,15.519 22.003,17.272 21.976 C 20.591 21.924,21.924 20.593,21.976 17.280 C 21.996 15.947,21.955 15.668,21.695 15.379 C 21.285 14.922,20.554 14.933,20.261 15.400 " stroke="none" fill-rule="evenodd" fill="black"></path></svg>