<svg width="24" height="24" viewBox="0 0 24 24" fill="none" xmlns="http://www.w3.org/2000/svg"><path d="M2.596 5.124 C 2.190 5.290,1.928 5.837,2.044 6.279 C 2.244 7.045,2.183 7.040,12.018 7.040 C 20.684 7.040,21.266 7.022,21.602 6.750 C 22.029 6.404,22.075 5.687,21.694 5.306 C 21.454 5.065,20.560 5.037,12.194 5.008 C 6.821 4.990,2.808 5.038,2.596 5.124 M2.331 11.291 C 1.992 11.631,2.014 12.370,2.373 12.695 C 2.638 12.935,3.540 12.960,12.028 12.960 C 20.895 12.960,21.404 12.945,21.655 12.667 C 22.005 12.281,21.992 11.635,21.627 11.305 C 21.362 11.065,20.459 11.040,11.959 11.040 C 3.649 11.040,2.554 11.069,2.331 11.291 M2.596 17.124 C 2.190 17.290,1.928 17.837,2.044 18.279 C 2.244 19.045,2.183 19.040,12.018 19.040 C 20.684 19.040,21.266 19.022,21.602 18.750 C 22.029 18.404,22.075 17.687,21.694 17.306 C 21.454 17.065,20.560 17.037,12.194 17.008 C 6.821 16.990,2.808 17.038,2.596 17.124 " stroke="none" fill-rule="evenodd" fill="black"></path></svg>