<svg width="24" height="24" viewBox="0 0 24 24" fill="none" xmlns="http://www.w3.org/2000/svg"><path d="M9.840 2.379 C 8.309 2.819,7.213 3.500,5.826 4.876 C 4.428 6.263,3.729 7.450,3.283 9.194 C 2.965 10.442,2.971 12.441,3.298 13.840 L 3.559 14.960 2.500 16.973 C 1.383 19.095,1.238 19.715,1.720 20.310 C 2.181 20.879,2.908 20.931,5.920 20.610 C 8.703 20.314,8.728 20.314,9.931 20.636 C 11.396 21.028,13.453 21.062,14.806 20.717 C 16.548 20.272,17.737 19.572,19.126 18.174 C 21.174 16.113,21.933 14.317,21.947 11.501 C 21.956 9.707,21.683 8.598,20.830 6.970 C 19.715 4.840,17.308 2.938,14.952 2.325 C 13.682 1.994,11.083 2.021,9.840 2.379 M13.937 4.163 C 15.338 4.429,16.716 5.171,17.773 6.227 C 20.699 9.153,20.700 13.869,17.776 16.780 C 15.671 18.875,13.154 19.462,10.063 18.578 C 9.048 18.288,8.921 18.287,6.425 18.548 C 5.003 18.697,3.840 18.794,3.840 18.764 C 3.840 18.733,4.236 17.967,4.720 17.061 C 5.613 15.388,5.748 14.810,5.437 13.991 C 5.347 13.755,5.206 13.084,5.123 12.501 C 4.791 10.156,5.539 7.901,7.200 6.240 C 9.010 4.430,11.423 3.686,13.937 4.163 M9.292 8.422 C 9.109 8.653,8.960 8.948,8.960 9.077 C 8.960 9.206,9.440 9.808,10.026 10.416 L 11.092 11.520 10.026 12.624 C 9.440 13.232,8.960 13.847,8.960 13.992 C 8.960 14.332,9.668 15.040,10.008 15.040 C 10.153 15.040,10.768 14.560,11.376 13.974 L 12.480 12.908 13.584 13.974 C 14.192 14.560,14.794 15.040,14.923 15.040 C 15.338 15.040,16.000 14.395,16.000 13.991 C 16.000 13.737,15.649 13.234,14.967 12.511 L 13.934 11.416 14.967 10.393 C 16.081 9.289,16.226 8.866,15.680 8.320 C 15.134 7.774,14.711 7.919,13.607 9.033 L 12.584 10.066 11.489 9.033 C 10.259 7.873,9.819 7.751,9.292 8.422 " stroke="none" fill-rule="evenodd" fill="black"></path></svg>