<svg width="24" height="24" viewBox="0 0 24 24" fill="none" xmlns="http://www.w3.org/2000/svg"><path d="M9.520 2.296 C 7.684 2.770,5.714 3.995,4.405 5.478 C 3.561 6.433,2.529 8.461,2.236 9.740 C 1.915 11.139,1.993 13.395,2.411 14.803 L 2.774 16.024 2.418 18.306 C 2.020 20.863,2.080 21.266,2.924 21.703 C 3.340 21.918,3.609 21.906,5.693 21.582 C 7.913 21.236,8.035 21.233,8.861 21.493 C 10.810 22.107,13.328 22.116,15.120 21.516 C 17.600 20.684,19.853 18.721,20.935 16.449 C 21.730 14.779,21.958 13.786,21.958 12.000 C 21.958 10.217,21.730 9.222,20.940 7.561 C 19.891 5.358,17.697 3.412,15.269 2.532 C 14.089 2.104,10.787 1.969,9.520 2.296 M14.093 4.293 C 17.050 5.065,19.398 7.695,19.867 10.760 C 20.268 13.373,19.492 15.730,17.612 17.618 C 15.878 19.358,13.943 20.110,11.600 19.955 C 10.896 19.908,9.840 19.707,9.254 19.508 L 8.189 19.147 6.254 19.466 C 4.519 19.753,4.320 19.760,4.318 19.533 C 4.318 19.394,4.439 18.508,4.589 17.564 C 4.859 15.858,4.859 15.841,4.504 14.759 C 3.487 11.656,4.150 8.621,6.331 6.393 C 7.804 4.888,9.881 4.018,12.000 4.018 C 12.572 4.018,13.514 4.142,14.093 4.293 M7.396 8.729 C 7.176 8.883,7.041 9.143,7.042 9.409 C 7.048 10.375,7.523 10.560,10.000 10.560 C 12.477 10.560,12.952 10.375,12.958 9.409 C 12.962 8.622,12.510 8.480,10.000 8.480 C 8.224 8.480,7.676 8.532,7.396 8.729 M7.396 12.249 C 6.937 12.570,6.928 13.289,7.377 13.695 C 7.688 13.977,8.001 14.000,11.520 14.000 C 15.039 14.000,15.352 13.977,15.663 13.695 C 16.088 13.311,16.095 12.735,15.680 12.320 C 15.378 12.018,15.147 12.000,11.556 12.000 C 8.371 12.000,7.693 12.041,7.396 12.249 " stroke="none" fill-rule="evenodd" fill="black"></path></svg>