<svg width="24" height="24" viewBox="0 0 24 24" fill="none" xmlns="http://www.w3.org/2000/svg"><path d="M4.394 1.112 C 3.397 1.266,2.791 1.575,2.128 2.266 C 1.112 3.326,1.050 3.648,0.990 8.179 C 0.957 10.710,1.001 12.517,1.104 12.901 C 1.462 14.231,2.567 15.404,3.858 15.823 L 4.436 16.010 4.520 17.366 C 4.613 18.847,4.870 19.433,5.539 19.687 C 6.189 19.934,6.694 19.698,7.848 18.610 L 8.934 17.585 9.119 18.474 C 9.333 19.506,9.895 20.257,10.713 20.605 C 11.081 20.761,12.092 20.880,13.600 20.944 L 15.920 21.042 17.095 21.891 C 18.764 23.098,18.953 23.167,19.485 22.772 C 19.823 22.520,19.938 22.277,20.000 21.681 C 20.080 20.916,20.083 20.913,20.845 20.720 C 21.670 20.512,22.276 20.040,22.695 19.280 C 22.917 18.877,22.960 18.272,22.960 15.520 C 22.960 12.506,22.933 12.188,22.626 11.600 C 22.229 10.839,21.452 10.271,20.627 10.139 L 20.029 10.044 19.972 6.982 C 19.924 4.381,19.871 3.828,19.614 3.309 C 19.207 2.483,18.472 1.777,17.602 1.375 C 16.916 1.059,16.586 1.041,11.040 1.014 C 7.828 0.999,4.837 1.043,4.394 1.112 M16.875 3.267 C 17.804 3.656,17.920 4.099,17.920 7.272 L 17.920 10.080 14.600 10.084 C 10.896 10.087,10.300 10.217,9.622 11.168 C 9.249 11.692,8.960 12.923,8.960 13.986 C 8.960 14.597,8.868 14.739,7.760 15.840 L 6.560 17.032 6.560 16.366 C 6.560 15.037,6.107 14.468,4.619 13.925 C 3.052 13.354,3.041 13.318,3.041 8.584 C 3.040 4.156,3.116 3.760,4.051 3.298 C 4.773 2.942,16.031 2.915,16.875 3.267 M20.640 12.320 C 20.936 12.616,20.960 12.853,20.960 15.467 C 20.960 18.735,20.908 18.880,19.746 18.880 C 18.815 18.880,18.264 19.116,18.082 19.594 L 17.930 19.993 17.102 19.478 C 16.283 18.969,16.246 18.963,13.937 18.905 C 12.111 18.860,11.539 18.793,11.320 18.599 C 11.073 18.379,11.040 18.010,11.040 15.424 C 11.040 12.582,11.050 12.491,11.396 12.249 C 11.696 12.039,12.417 12.000,16.036 12.000 C 20.107 12.000,20.336 12.016,20.640 12.320 " stroke="none" fill-rule="evenodd" fill="black"></path></svg>