<svg width="24" height="24" viewBox="0 0 24 24" fill="none" xmlns="http://www.w3.org/2000/svg"><path d="M10.021 2.334 C 8.509 2.700,7.243 3.467,5.826 4.874 C 4.428 6.263,3.728 7.452,3.283 9.194 C 2.965 10.442,2.971 12.441,3.298 13.840 L 3.559 14.960 2.500 16.973 C 1.383 19.095,1.238 19.715,1.720 20.310 C 2.181 20.879,2.908 20.931,5.920 20.610 C 8.703 20.314,8.728 20.314,9.931 20.636 C 11.396 21.028,13.453 21.062,14.806 20.717 C 16.538 20.274,17.737 19.571,19.139 18.174 C 20.546 16.772,21.240 15.616,21.669 13.964 C 22.131 12.179,21.900 11.360,20.932 11.360 C 20.361 11.360,20.062 11.777,19.842 12.880 C 19.308 15.553,17.225 17.911,14.735 18.661 C 13.499 19.034,11.414 19.005,10.065 18.596 C 9.033 18.284,8.957 18.283,6.425 18.548 C 5.003 18.697,3.840 18.794,3.840 18.764 C 3.840 18.733,4.236 17.967,4.720 17.061 C 5.613 15.388,5.748 14.810,5.437 13.991 C 5.347 13.755,5.209 13.108,5.131 12.554 C 4.577 8.642,7.219 4.938,11.120 4.158 C 12.238 3.935,12.640 3.639,12.640 3.040 C 12.640 2.113,11.834 1.895,10.021 2.334 M16.178 2.501 C 12.873 4.148,13.585 9.231,17.211 9.875 C 20.067 10.383,22.426 7.988,21.850 5.166 C 21.334 2.634,18.542 1.323,16.178 2.501 M18.895 4.248 C 19.489 4.555,19.999 5.364,19.999 6.000 C 19.999 6.991,18.990 8.000,18.000 8.000 C 17.025 8.000,16.002 6.993,16.001 6.032 C 15.999 5.027,16.992 4.002,17.968 4.001 C 18.214 4.000,18.631 4.111,18.895 4.248 " stroke="none" fill-rule="evenodd" fill="black"></path></svg>