<svg width="24" height="24" viewBox="0 0 24 24" fill="none" xmlns="http://www.w3.org/2000/svg"><path d="M4.600 2.308 C 3.612 2.661,2.874 3.337,2.421 4.303 L 2.000 5.200 2.000 10.560 C 2.000 15.855,2.005 15.929,2.374 16.680 C 2.976 17.902,3.943 18.608,5.480 18.949 C 5.884 19.038,5.920 19.109,5.924 19.803 C 5.933 21.528,6.424 22.400,7.388 22.400 C 8.039 22.400,8.298 22.243,10.391 20.577 L 12.223 19.120 15.591 19.037 C 19.423 18.942,19.983 18.791,21.021 17.579 C 21.934 16.512,22.000 16.022,22.000 10.320 L 22.000 5.200 21.579 4.303 C 21.126 3.337,20.388 2.661,19.400 2.308 C 18.529 1.998,5.471 1.998,4.600 2.308 M19.000 4.286 C 19.198 4.399,19.486 4.684,19.640 4.919 C 19.892 5.304,19.920 5.865,19.920 10.590 L 19.920 15.834 19.397 16.357 L 18.874 16.880 15.477 16.972 C 12.922 17.040,11.941 17.124,11.520 17.310 C 11.212 17.446,10.312 18.079,9.520 18.716 L 8.080 19.874 8.033 18.743 C 7.974 17.309,7.631 16.960,6.283 16.960 C 5.747 16.960,5.231 16.855,4.947 16.687 C 4.049 16.157,4.000 15.845,4.004 10.776 C 4.006 8.237,4.073 5.879,4.152 5.536 C 4.330 4.772,4.749 4.330,5.461 4.156 C 5.757 4.084,8.844 4.037,12.320 4.052 C 17.133 4.073,18.726 4.129,19.000 4.286 M8.800 7.360 C 8.273 7.887,8.410 8.283,9.510 9.415 L 10.539 10.476 9.510 11.542 C 8.425 12.666,8.298 13.019,8.770 13.602 C 9.286 14.240,9.834 14.076,10.976 12.945 L 12.000 11.929 13.024 12.945 C 14.166 14.076,14.714 14.240,15.230 13.602 C 15.702 13.019,15.575 12.666,14.490 11.542 L 13.461 10.476 14.490 9.415 C 15.590 8.283,15.727 7.887,15.200 7.360 C 14.639 6.799,14.146 6.950,13.026 8.025 L 12.000 9.011 10.974 8.025 C 9.854 6.950,9.361 6.799,8.800 7.360 " stroke="none" fill-rule="evenodd" fill="black"></path></svg>