<svg width="24" height="24" viewBox="0 0 24 24" fill="none" xmlns="http://www.w3.org/2000/svg"><path d="M4.600 2.308 C 3.612 2.661,2.874 3.337,2.421 4.303 L 2.000 5.200 2.000 10.560 C 2.000 15.855,2.005 15.929,2.374 16.680 C 2.976 17.902,3.943 18.608,5.480 18.949 C 5.884 19.038,5.920 19.109,5.924 19.803 C 5.933 21.528,6.424 22.400,7.388 22.400 C 8.039 22.400,8.298 22.243,10.391 20.577 L 12.223 19.120 15.591 19.037 C 19.423 18.942,19.983 18.791,21.021 17.579 C 21.934 16.512,22.000 16.022,22.000 10.320 L 22.000 5.200 21.579 4.303 C 21.126 3.337,20.388 2.661,19.400 2.308 C 18.529 1.998,5.471 1.998,4.600 2.308 M19.000 4.286 C 19.198 4.399,19.486 4.684,19.640 4.919 C 19.892 5.304,19.920 5.865,19.920 10.590 L 19.920 15.834 19.397 16.357 L 18.874 16.880 15.477 16.972 C 12.922 17.040,11.941 17.124,11.520 17.310 C 11.212 17.446,10.312 18.079,9.520 18.716 L 8.080 19.874 8.033 18.743 C 7.974 17.309,7.631 16.960,6.283 16.960 C 5.747 16.960,5.231 16.855,4.947 16.687 C 4.049 16.157,4.000 15.845,4.004 10.776 C 4.006 8.237,4.073 5.879,4.152 5.536 C 4.330 4.772,4.749 4.330,5.461 4.156 C 5.757 4.084,8.844 4.037,12.320 4.052 C 17.133 4.073,18.726 4.129,19.000 4.286 M11.488 5.606 C 9.660 5.917,8.245 8.248,9.529 8.833 C 10.070 9.080,10.680 8.862,10.959 8.322 C 11.405 7.460,12.336 7.256,12.932 7.890 C 13.629 8.632,13.280 9.362,11.901 10.055 C 11.538 10.237,11.204 10.527,11.159 10.699 C 11.062 11.070,11.332 11.661,11.705 11.894 C 12.367 12.307,14.452 11.073,15.041 9.918 C 15.459 9.099,15.445 8.234,15.000 7.363 C 14.328 6.047,12.949 5.357,11.488 5.606 M11.840 13.073 C 11.479 13.199,11.200 13.616,11.200 14.031 C 11.200 14.485,11.728 15.040,12.160 15.040 C 12.592 15.040,13.120 14.485,13.120 14.031 C 13.120 13.364,12.446 12.860,11.840 13.073 " stroke="none" fill-rule="evenodd" fill="black"></path></svg>