<svg width="24" height="24" viewBox="0 0 24 24" fill="none" xmlns="http://www.w3.org/2000/svg"><path d="M11.200 1.108 C 10.395 1.273,9.741 1.652,9.070 2.343 C 8.052 3.391,7.974 3.876,8.031 8.843 L 8.080 13.226 8.565 14.013 C 10.173 16.625,13.827 16.625,15.435 14.013 L 15.920 13.226 15.969 8.843 C 16.026 3.874,15.948 3.392,14.928 2.342 C 13.912 1.295,12.526 0.837,11.200 1.108 M12.944 3.272 C 13.894 3.763,13.920 3.903,13.920 8.542 L 13.920 12.775 13.510 13.263 C 12.714 14.208,11.286 14.208,10.490 13.263 L 10.080 12.775 10.080 8.542 C 10.080 4.885,10.116 4.254,10.343 3.907 C 10.876 3.093,12.046 2.807,12.944 3.272 M4.560 9.152 C 4.043 9.443,4.005 9.596,4.002 11.366 C 3.998 14.214,4.625 15.858,6.383 17.617 C 7.658 18.891,8.795 19.509,10.600 19.909 C 10.956 19.988,11.040 20.094,11.040 20.469 L 11.040 20.932 9.267 20.986 C 7.733 21.033,7.463 21.082,7.267 21.351 C 6.947 21.788,6.985 22.345,7.360 22.720 C 7.664 23.024,7.893 23.040,12.000 23.040 C 16.107 23.040,16.336 23.024,16.640 22.720 C 17.015 22.345,17.053 21.788,16.733 21.351 C 16.537 21.082,16.267 21.033,14.733 20.986 L 12.960 20.932 12.960 20.469 C 12.960 20.094,13.044 19.988,13.400 19.909 C 15.205 19.509,16.342 18.891,17.617 17.617 C 19.369 15.864,20.000 14.195,20.000 11.309 C 20.000 9.675,19.987 9.613,19.575 9.289 C 19.300 9.073,19.031 8.990,18.815 9.054 C 18.094 9.270,18.010 9.513,17.915 11.657 C 17.834 13.493,17.777 13.802,17.370 14.607 C 16.462 16.401,14.758 17.652,12.874 17.908 C 10.260 18.263,7.830 16.978,6.630 14.607 C 6.223 13.802,6.166 13.493,6.085 11.657 C 5.990 9.521,5.902 9.263,5.200 9.063 C 5.024 9.013,4.736 9.053,4.560 9.152 " stroke="none" fill-rule="evenodd" fill="black"></path></svg>