<svg viewBox="0 0 24 24" xmlns="http://www.w3.org/2000/svg"><path d="M8.945 0.294 C 7.312 0.834,5.976 1.995,5.277 3.482 C 5.098 3.862,4.828 4.211,4.676 4.257 C 4.524 4.303,4.030 4.511,3.577 4.720 C 0.302 6.231,-0.841 10.407,1.193 13.430 C 1.683 14.158,1.723 14.297,1.571 14.735 C 1.477 15.005,1.433 15.746,1.474 16.382 C 1.687 19.711,4.252 22.080,7.644 22.080 C 8.755 22.080,8.878 22.115,9.412 22.584 C 9.727 22.861,10.385 23.273,10.873 23.500 C 12.108 24.074,14.191 24.087,15.599 23.528 C 16.728 23.081,18.112 21.778,18.724 20.589 C 19.066 19.923,19.244 19.768,20.029 19.452 C 23.583 18.017,24.938 13.737,22.829 10.604 C 22.367 9.917,22.321 9.757,22.449 9.272 C 22.528 8.968,22.561 8.208,22.522 7.582 C 22.382 5.346,21.098 3.462,19.067 2.512 C 18.191 2.102,17.754 2.003,16.563 1.947 C 15.233 1.884,15.077 1.841,14.567 1.396 C 13.139 0.147,10.786 -0.314,8.945 0.294 M12.171 1.845 C 12.561 1.979,13.044 2.215,13.245 2.369 L 13.610 2.649 11.805 3.672 C 10.812 4.235,9.622 4.934,9.160 5.226 L 8.320 5.756 8.320 9.278 C 8.320 11.215,8.288 12.800,8.249 12.800 C 8.209 12.800,7.741 12.545,7.209 12.232 L 6.240 11.665 6.241 8.592 C 6.241 6.903,6.315 5.255,6.405 4.932 C 6.787 3.558,8.160 2.135,9.440 1.786 C 10.301 1.551,11.389 1.575,12.171 1.845 M18.029 3.732 C 19.702 4.349,20.960 6.089,20.960 7.786 C 20.960 8.256,20.918 8.640,20.866 8.640 C 20.814 8.640,19.664 7.992,18.311 7.200 C 16.958 6.408,15.758 5.760,15.643 5.760 C 15.529 5.760,14.176 6.488,12.638 7.378 C 11.099 8.268,9.750 9.031,9.640 9.075 C 9.491 9.134,9.441 8.856,9.444 7.977 L 9.448 6.800 11.550 5.600 C 14.932 3.669,15.288 3.519,16.480 3.533 C 17.052 3.539,17.749 3.629,18.029 3.732 M4.880 12.129 C 4.968 12.209,6.336 13.014,7.920 13.919 C 9.504 14.825,10.823 15.584,10.852 15.608 C 10.881 15.632,10.434 15.914,9.860 16.235 L 8.816 16.819 6.288 15.356 C 4.898 14.552,3.453 13.596,3.078 13.232 C 1.093 11.304,1.453 7.880,3.798 6.392 L 4.560 5.908 4.640 8.947 C 4.685 10.660,4.790 12.048,4.880 12.129 M17.711 8.659 C 21.261 10.708,22.023 11.522,22.198 13.450 C 22.357 15.201,21.415 17.038,19.983 17.769 L 19.360 18.087 19.358 15.163 C 19.356 13.555,19.302 12.158,19.238 12.057 C 19.173 11.956,17.788 11.099,16.160 10.153 C 14.532 9.207,13.179 8.416,13.152 8.395 C 13.115 8.366,15.026 7.228,15.151 7.206 C 15.168 7.203,16.320 7.857,17.711 8.659 M13.379 9.792 L 14.560 10.464 14.560 11.998 L 14.560 13.533 13.300 14.270 L 12.039 15.006 10.740 14.273 L 9.440 13.540 9.442 12.010 L 9.445 10.480 10.602 9.803 C 11.239 9.430,11.859 9.124,11.979 9.123 C 12.100 9.121,12.730 9.422,13.379 9.792 M16.803 11.774 L 17.782 12.348 17.731 15.734 C 17.681 19.060,17.672 19.135,17.246 19.942 C 15.994 22.317,12.987 23.128,10.785 21.685 L 10.366 21.411 12.743 20.044 C 14.050 19.293,15.246 18.568,15.400 18.434 C 15.651 18.216,15.680 17.824,15.680 14.695 C 15.680 12.773,15.712 11.200,15.751 11.200 C 15.791 11.200,16.264 11.458,16.803 11.774 M14.559 16.040 L 14.558 17.200 11.959 18.672 C 8.873 20.420,8.659 20.508,7.520 20.506 C 5.098 20.500,3.273 18.805,3.078 16.382 C 3.033 15.820,3.038 15.360,3.089 15.360 C 3.140 15.360,4.298 16.008,5.663 16.800 C 7.027 17.592,8.241 18.240,8.359 18.240 C 8.478 18.240,9.867 17.490,11.447 16.574 C 13.027 15.658,14.374 14.902,14.440 14.894 C 14.506 14.886,14.560 15.402,14.559 16.040 " stroke="none" fill-rule="evenodd" fill="black"></path></svg>