<svg width="24" height="24" viewBox="0 0 24 24" fill="none" xmlns="http://www.w3.org/2000/svg"><path d="M10.466 1.131 C 8.130 1.410,6.075 2.444,4.259 4.256 C 2.916 5.596,2.071 6.957,1.489 8.720 C 1.124 9.828,1.067 10.268,1.067 12.000 C 1.067 13.732,1.124 14.172,1.489 15.280 C 2.070 17.040,2.915 18.403,4.256 19.744 C 6.345 21.833,8.771 22.900,11.520 22.939 C 12.801 22.957,13.142 22.905,13.690 22.612 C 15.220 21.793,16.000 20.456,16.000 18.651 C 16.001 16.805,16.805 16.001,18.651 16.000 C 20.456 16.000,21.793 15.220,22.612 13.690 C 23.122 12.737,23.073 10.484,22.504 8.720 C 20.841 3.563,15.947 0.478,10.466 1.131 M14.225 3.286 C 15.737 3.643,17.053 4.412,18.321 5.679 C 20.054 7.412,20.952 9.461,20.958 11.696 C 20.962 13.358,20.130 14.053,18.115 14.071 C 16.439 14.086,15.255 14.764,14.508 16.136 C 14.158 16.781,14.045 17.244,13.968 18.355 C 13.862 19.880,13.654 20.361,12.944 20.728 C 11.946 21.245,9.533 20.881,7.760 19.947 C 6.519 19.294,4.704 17.476,4.043 16.225 C 2.710 13.702,2.710 10.298,4.043 7.775 C 4.709 6.515,6.518 4.707,7.781 4.040 C 9.605 3.076,12.097 2.785,14.225 3.286 M9.286 5.167 C 7.269 5.868,7.852 8.960,10.000 8.960 C 10.595 8.960,10.827 8.867,11.292 8.440 C 12.927 6.942,11.390 4.436,9.286 5.167 M14.737 6.490 C 13.524 7.511,13.949 9.488,15.471 9.908 C 16.950 10.316,18.313 8.938,17.902 7.450 C 17.540 6.139,15.786 5.607,14.737 6.490 M5.638 10.628 C 5.100 11.121,5.040 11.256,5.040 11.977 C 5.040 12.647,5.118 12.860,5.511 13.271 C 5.770 13.541,6.226 13.830,6.525 13.912 C 8.136 14.357,9.512 12.572,8.728 11.056 C 8.394 10.409,7.799 10.080,6.963 10.080 C 6.357 10.080,6.135 10.172,5.638 10.628 " stroke="none" fill-rule="evenodd" fill="black"></path></svg>