<svg width="24" height="24" viewBox="0 0 24 24" fill="none" xmlns="http://www.w3.org/2000/svg"><path d="M14.785 1.723 C 14.336 1.883,13.688 2.239,13.345 2.513 C 13.001 2.788,10.589 5.161,7.985 7.786 C 2.329 13.490,2.320 13.503,2.320 16.162 C 2.320 17.736,2.354 17.913,2.839 18.899 C 4.478 22.232,8.601 23.423,11.760 21.476 C 12.112 21.259,14.578 18.912,17.240 16.260 C 21.503 12.014,22.080 11.380,22.080 10.944 C 22.080 10.369,21.659 9.920,21.118 9.920 C 20.837 9.920,19.452 11.202,15.690 14.945 C 10.761 19.850,10.617 19.977,9.693 20.244 C 6.924 21.046,4.276 19.134,4.257 16.320 C 4.244 14.426,4.204 14.479,9.660 8.988 C 12.399 6.231,14.834 3.873,15.072 3.748 C 15.710 3.412,16.904 3.460,17.530 3.846 C 18.305 4.325,18.784 5.410,18.643 6.366 C 18.535 7.097,18.389 7.263,13.872 11.800 C 11.309 14.374,9.078 16.522,8.915 16.574 C 8.574 16.683,8.000 16.238,8.000 15.865 C 8.000 15.730,9.836 13.775,12.080 11.520 C 14.639 8.949,16.160 7.303,16.160 7.106 C 16.160 6.546,15.705 6.080,15.158 6.080 C 14.713 6.080,14.180 6.553,10.610 10.114 C 8.385 12.332,6.448 14.394,6.304 14.696 C 6.125 15.073,6.066 15.515,6.116 16.109 C 6.234 17.539,7.106 18.406,8.546 18.526 C 9.282 18.586,9.539 18.532,10.113 18.193 C 11.094 17.613,19.867 8.718,20.244 7.920 C 20.719 6.916,20.753 5.202,20.318 4.191 C 19.926 3.279,18.848 2.184,17.989 1.825 C 17.060 1.437,15.705 1.393,14.785 1.723 " stroke="none" fill-rule="evenodd" fill="black"></path></svg>