<svg width="24" height="24" viewBox="0 0 24 24" fill="none" xmlns="http://www.w3.org/2000/svg"><path d="M18.560 1.239 C 17.274 1.428,17.100 1.577,10.669 7.978 C 7.165 11.466,4.202 14.500,4.085 14.720 C 3.969 14.940,3.322 16.558,2.647 18.316 C 1.332 21.745,1.295 22.035,2.122 22.412 C 2.426 22.550,3.026 22.372,5.684 21.353 C 7.442 20.678,9.060 20.031,9.280 19.914 C 9.872 19.599,22.169 7.200,22.446 6.640 C 23.737 4.020,21.433 0.818,18.560 1.239 M20.256 3.744 C 20.978 4.466,21.004 5.277,20.336 6.176 C 20.081 6.519,17.434 9.231,14.454 12.201 L 9.036 17.603 7.719 16.279 L 6.403 14.956 12.121 9.257 C 15.267 6.122,17.984 3.479,18.160 3.384 C 18.336 3.288,18.757 3.208,19.096 3.205 C 19.587 3.201,19.823 3.311,20.256 3.744 M6.356 17.796 L 7.203 18.632 5.818 19.159 C 5.056 19.449,4.406 19.659,4.372 19.625 C 4.290 19.543,5.306 16.960,5.420 16.960 C 5.469 16.960,5.891 17.336,6.356 17.796 " stroke="none" fill-rule="evenodd" fill="black"></path></svg>