<svg width="24" height="24" viewBox="0 0 24 24" fill="none" xmlns="http://www.w3.org/2000/svg"><path d="M18.279 4.359 L 16.000 6.639 16.000 5.195 C 16.000 3.524,15.785 3.040,15.042 3.040 C 14.032 3.040,13.875 3.607,13.948 7.004 C 13.992 9.075,14.042 9.471,14.286 9.715 C 14.538 9.967,14.901 10.000,17.429 10.000 C 20.014 10.000,20.318 9.971,20.623 9.695 C 21.072 9.289,21.063 8.570,20.604 8.249 C 20.346 8.068,19.853 8.000,18.806 8.000 L 17.364 8.000 19.631 5.720 C 21.739 3.600,21.990 3.279,21.939 2.771 C 21.905 2.429,21.424 2.080,20.988 2.080 C 20.649 2.080,20.079 2.560,18.279 4.359 M4.320 2.814 C 3.503 3.165,1.785 4.912,1.344 5.840 C 0.871 6.833,0.859 7.692,1.294 9.270 C 1.702 10.752,2.928 13.377,3.836 14.714 C 6.359 18.430,9.859 21.111,14.080 22.564 C 16.811 23.504,17.998 23.291,19.815 21.536 C 21.439 19.967,21.783 19.195,21.435 17.903 C 21.217 17.090,19.432 15.141,18.580 14.786 C 17.447 14.312,16.136 14.576,15.178 15.471 C 14.763 15.859,14.745 15.861,14.218 15.593 C 12.487 14.713,10.304 12.693,9.142 10.895 C 8.247 9.510,8.209 9.333,8.696 8.825 C 8.920 8.591,9.215 8.132,9.352 7.805 C 9.881 6.537,9.556 5.500,8.193 4.107 C 6.725 2.608,5.640 2.245,4.320 2.814 M6.743 5.417 C 7.336 6.011,7.520 6.311,7.520 6.688 C 7.520 6.959,7.443 7.229,7.349 7.287 C 7.256 7.345,6.968 7.684,6.709 8.040 C 6.119 8.855,6.107 9.507,6.661 10.605 C 8.131 13.521,10.932 16.282,13.711 17.555 C 14.495 17.914,14.666 17.939,15.206 17.777 C 15.542 17.676,16.117 17.343,16.484 17.037 C 16.850 16.731,17.298 16.480,17.479 16.480 C 17.963 16.480,19.520 18.093,19.520 18.593 C 19.520 19.061,18.495 20.297,17.696 20.790 C 17.403 20.971,16.906 21.120,16.594 21.120 C 15.961 21.120,13.630 20.342,12.400 19.719 C 7.983 17.484,4.330 13.018,3.120 8.375 C 2.813 7.194,3.019 6.588,4.093 5.514 C 5.252 4.355,5.665 4.339,6.743 5.417 " stroke="none" fill-rule="evenodd" fill="black"></path></svg>