<svg width="24" height="24" viewBox="0 0 24 24" fill="none" xmlns="http://www.w3.org/2000/svg"><path d="M5.120 1.911 C 4.812 2.075,4.085 2.702,3.505 3.304 C 2.312 4.544,1.827 5.632,1.958 6.778 C 2.171 8.648,4.091 12.983,5.007 13.662 C 5.420 13.968,5.488 13.975,5.887 13.752 C 6.590 13.359,6.535 12.799,5.624 11.055 C 4.679 9.244,4.000 7.314,4.000 6.435 C 4.000 5.967,4.138 5.625,4.540 5.098 C 5.237 4.186,6.274 3.459,6.691 3.591 C 7.097 3.720,8.640 5.352,8.640 5.653 C 8.640 5.781,8.352 6.233,8.000 6.659 C 7.268 7.546,7.087 8.213,7.358 9.034 C 7.824 10.446,8.968 11.024,9.548 10.140 C 9.806 9.746,9.806 9.674,9.558 8.982 C 9.296 8.255,9.298 8.239,9.668 7.842 C 10.587 6.858,10.822 5.462,10.257 4.353 C 9.872 3.598,8.335 2.137,7.607 1.833 C 6.853 1.518,5.799 1.551,5.120 1.911 M11.299 11.341 C 1.546 21.095,1.602 21.031,2.286 21.714 C 2.881 22.310,3.294 22.062,5.685 19.675 L 7.975 17.389 8.747 18.028 C 10.665 19.614,12.764 20.775,15.200 21.595 C 17.920 22.511,19.158 22.251,20.993 20.376 C 23.014 18.312,23.076 17.034,21.249 15.102 C 20.217 14.011,19.388 13.563,18.400 13.563 C 17.604 13.563,16.595 13.990,16.101 14.537 L 15.802 14.867 15.141 14.536 C 14.628 14.278,13.231 13.333,12.647 12.848 C 12.607 12.815,14.672 10.684,17.236 8.114 C 19.800 5.543,21.912 3.332,21.928 3.200 C 21.981 2.775,21.925 2.588,21.669 2.331 C 20.984 1.646,21.052 1.587,11.299 11.341 M12.248 15.046 C 13.593 16.064,15.105 16.832,15.764 16.832 C 16.380 16.832,17.064 16.496,17.588 15.935 C 18.185 15.296,18.662 15.394,19.635 16.355 C 20.783 17.488,20.772 17.814,19.545 19.041 C 18.368 20.217,17.905 20.331,16.285 19.843 C 14.069 19.175,11.541 17.812,9.985 16.445 L 9.421 15.950 10.265 15.095 C 10.729 14.625,11.126 14.240,11.146 14.240 C 11.166 14.240,11.662 14.603,12.248 15.046 " stroke="none" fill-rule="evenodd" fill="black"></path></svg>