<svg width="24" height="24" viewBox="0 0 24 24" fill="none" xmlns="http://www.w3.org/2000/svg"><path d="M13.600 1.167 C 13.305 1.315,13.187 1.517,13.152 1.937 C 13.090 2.671,13.328 2.862,14.649 3.139 C 16.270 3.479,17.384 4.098,18.643 5.357 C 19.902 6.616,20.521 7.730,20.861 9.351 C 21.128 10.626,21.320 10.880,22.016 10.880 C 22.410 10.880,22.621 10.775,22.812 10.484 C 23.050 10.122,23.051 9.984,22.824 8.872 C 22.064 5.146,18.682 1.746,15.200 1.208 C 14.804 1.147,14.372 1.067,14.240 1.032 C 14.108 0.996,13.820 1.057,13.600 1.167 M4.320 2.814 C 3.503 3.165,1.785 4.912,1.344 5.840 C 0.871 6.833,0.859 7.692,1.294 9.270 C 1.702 10.752,2.928 13.377,3.836 14.714 C 6.359 18.430,9.859 21.111,14.080 22.564 C 16.811 23.504,17.998 23.291,19.815 21.536 C 21.439 19.967,21.783 19.195,21.435 17.903 C 21.217 17.090,19.432 15.141,18.580 14.786 C 17.447 14.312,16.136 14.576,15.178 15.471 C 14.763 15.859,14.745 15.861,14.218 15.593 C 12.487 14.713,10.304 12.693,9.142 10.895 C 8.247 9.510,8.209 9.333,8.696 8.825 C 8.920 8.591,9.215 8.132,9.352 7.805 C 9.881 6.537,9.556 5.500,8.193 4.107 C 6.725 2.608,5.640 2.245,4.320 2.814 M6.743 5.417 C 7.336 6.011,7.520 6.311,7.520 6.688 C 7.520 6.959,7.443 7.229,7.349 7.287 C 7.256 7.345,6.968 7.684,6.709 8.040 C 6.119 8.855,6.107 9.507,6.661 10.605 C 8.131 13.521,10.932 16.282,13.711 17.555 C 14.495 17.914,14.666 17.939,15.206 17.777 C 15.542 17.676,16.117 17.343,16.484 17.037 C 16.850 16.731,17.298 16.480,17.479 16.480 C 17.963 16.480,19.520 18.093,19.520 18.593 C 19.520 19.061,18.495 20.297,17.696 20.790 C 17.403 20.971,16.906 21.120,16.594 21.120 C 15.961 21.120,13.630 20.342,12.400 19.719 C 7.983 17.484,4.330 13.018,3.120 8.375 C 2.813 7.194,3.019 6.588,4.093 5.514 C 5.252 4.355,5.665 4.339,6.743 5.417 M13.471 5.212 C 13.181 5.415,13.113 5.594,13.151 6.050 C 13.202 6.657,13.348 6.779,14.559 7.225 C 15.594 7.606,16.960 9.172,16.960 9.976 C 16.960 10.102,17.090 10.366,17.250 10.562 C 17.897 11.362,19.176 10.718,18.971 9.696 C 18.641 8.044,17.314 6.346,15.780 5.611 C 14.470 4.983,13.930 4.890,13.471 5.212 " stroke="none" fill-rule="evenodd" fill="black"></path></svg>