<svg width="24" height="24" viewBox="0 0 24 24" fill="none" xmlns="http://www.w3.org/2000/svg"><path d="M14.331 2.292 C 13.730 2.732,13.963 3.315,15.260 4.620 C 15.931 5.295,16.480 5.916,16.480 6.000 C 16.480 6.084,15.931 6.705,15.260 7.380 C 13.980 8.668,13.762 9.190,14.286 9.714 C 14.810 10.238,15.332 10.020,16.620 8.740 C 17.295 8.069,17.919 7.520,18.008 7.520 C 18.096 7.520,18.671 8.030,19.284 8.654 C 20.516 9.907,20.883 10.123,21.360 9.877 C 21.784 9.658,21.915 9.443,21.918 8.956 C 21.919 8.664,21.587 8.221,20.720 7.360 C 20.060 6.704,19.520 6.092,19.520 6.000 C 19.520 5.907,20.030 5.329,20.654 4.716 C 21.907 3.484,22.123 3.117,21.877 2.640 C 21.658 2.216,21.443 2.085,20.956 2.082 C 20.664 2.081,20.221 2.413,19.360 3.280 C 18.704 3.940,18.092 4.480,18.000 4.480 C 17.908 4.480,17.296 3.940,16.640 3.280 C 15.398 2.030,14.951 1.839,14.331 2.292 M4.320 2.814 C 3.503 3.165,1.785 4.912,1.344 5.840 C 0.871 6.833,0.859 7.692,1.294 9.270 C 1.702 10.752,2.928 13.377,3.836 14.714 C 6.359 18.430,9.859 21.111,14.080 22.564 C 16.811 23.504,17.998 23.291,19.815 21.536 C 21.439 19.967,21.783 19.195,21.435 17.903 C 21.217 17.090,19.432 15.141,18.580 14.786 C 17.447 14.312,16.136 14.576,15.178 15.471 C 14.763 15.859,14.745 15.861,14.218 15.593 C 12.487 14.713,10.304 12.693,9.142 10.895 C 8.247 9.510,8.209 9.333,8.696 8.825 C 8.920 8.591,9.215 8.132,9.352 7.805 C 9.881 6.537,9.556 5.500,8.193 4.107 C 6.725 2.608,5.640 2.245,4.320 2.814 M6.743 5.417 C 7.336 6.011,7.520 6.311,7.520 6.688 C 7.520 6.959,7.443 7.229,7.349 7.287 C 7.256 7.345,6.968 7.684,6.709 8.040 C 6.119 8.855,6.107 9.507,6.661 10.605 C 8.131 13.521,10.932 16.282,13.711 17.555 C 14.495 17.914,14.666 17.939,15.206 17.777 C 15.542 17.676,16.117 17.343,16.484 17.037 C 16.850 16.731,17.298 16.480,17.479 16.480 C 17.963 16.480,19.520 18.093,19.520 18.593 C 19.520 19.061,18.495 20.297,17.696 20.790 C 17.403 20.971,16.906 21.120,16.594 21.120 C 15.961 21.120,13.630 20.342,12.400 19.719 C 7.983 17.484,4.330 13.018,3.120 8.375 C 2.813 7.194,3.019 6.588,4.093 5.514 C 5.252 4.355,5.665 4.339,6.743 5.417 " stroke="none" fill-rule="evenodd" fill="black"></path></svg>