<svg width="24" height="24" viewBox="0 0 24 24" fill="none" xmlns="http://www.w3.org/2000/svg"><path d="M5.120 1.911 C 4.812 2.075,4.085 2.702,3.505 3.304 C 1.791 5.085,1.592 6.169,2.481 8.880 C 4.415 14.778,9.219 19.581,15.200 21.595 C 17.920 22.511,19.158 22.251,20.993 20.376 C 23.014 18.312,23.076 17.034,21.249 15.102 C 20.217 14.011,19.388 13.563,18.400 13.563 C 17.602 13.563,16.595 13.991,16.098 14.540 L 15.795 14.875 14.898 14.391 C 12.878 13.301,10.819 11.243,9.759 9.255 L 9.247 8.292 9.645 7.866 C 10.587 6.858,10.828 5.473,10.257 4.353 C 9.872 3.598,8.335 2.137,7.607 1.833 C 6.853 1.518,5.799 1.551,5.120 1.911 M7.706 4.454 C 8.220 4.968,8.640 5.502,8.640 5.639 C 8.640 5.777,8.380 6.201,8.062 6.581 C 7.036 7.809,6.976 8.331,7.699 9.697 C 9.175 12.485,11.715 15.043,14.307 16.353 C 15.714 17.065,16.643 16.946,17.588 15.935 C 18.185 15.296,18.662 15.394,19.635 16.355 C 20.783 17.488,20.772 17.814,19.545 19.041 C 18.368 20.217,17.905 20.331,16.285 19.843 C 11.982 18.546,8.176 15.521,5.881 11.576 C 5.054 10.154,4.149 7.793,4.045 6.789 C 3.965 6.017,4.006 5.849,4.413 5.261 C 4.918 4.533,6.148 3.520,6.529 3.520 C 6.662 3.520,7.192 3.940,7.706 4.454 " stroke="none" fill-rule="evenodd" fill="black"></path></svg>