<svg width="24" height="24" viewBox="0 0 24 24" fill="none" xmlns="http://www.w3.org/2000/svg"><path d="M6.560 1.102 C 6.164 1.164,5.686 1.300,5.497 1.404 C 4.962 1.699,4.349 2.512,4.167 3.165 C 3.943 3.973,3.943 20.027,4.167 20.835 C 4.367 21.554,4.979 22.314,5.659 22.686 C 6.097 22.926,6.816 22.966,11.399 23.012 C 17.509 23.072,18.164 22.994,19.061 22.097 C 19.382 21.776,19.724 21.226,19.822 20.876 C 20.057 20.029,20.067 4.008,19.833 3.165 C 19.633 2.445,19.019 1.685,18.341 1.317 C 17.902 1.078,17.190 1.041,12.560 1.017 C 9.656 1.001,6.956 1.039,6.560 1.102 M8.000 3.696 C 8.000 4.573,8.413 5.394,9.022 5.727 C 9.431 5.951,9.964 6.000,12.000 6.000 C 14.178 6.000,14.543 5.962,14.997 5.687 C 15.630 5.305,16.000 4.569,16.000 3.696 L 16.000 3.040 16.709 3.040 C 17.996 3.040,17.920 2.479,17.920 12.000 C 17.920 19.475,17.891 20.486,17.669 20.709 C 17.450 20.927,16.711 20.960,12.000 20.960 C 7.289 20.960,6.550 20.927,6.331 20.709 C 6.109 20.486,6.080 19.475,6.080 12.000 C 6.080 2.479,6.004 3.040,7.291 3.040 L 8.000 3.040 8.000 3.696 M13.920 3.520 L 13.920 4.000 12.000 4.000 L 10.080 4.000 10.080 3.520 L 10.080 3.040 12.000 3.040 L 13.920 3.040 13.920 3.520 " stroke="none" fill-rule="evenodd" fill="black"></path></svg>