<svg width="24" height="24" viewBox="0 0 24 24" fill="none" xmlns="http://www.w3.org/2000/svg"><path d="M9.520 2.265 C 7.474 2.647,3.840 5.040,3.840 6.006 C 3.840 6.376,4.504 7.040,4.875 7.040 C 4.981 7.040,5.529 6.669,6.094 6.215 C 9.734 3.286,14.266 3.286,17.906 6.215 C 18.471 6.669,19.019 7.040,19.125 7.040 C 19.496 7.040,20.160 6.376,20.160 6.006 C 20.160 4.997,16.498 2.638,14.331 2.250 C 13.201 2.048,10.641 2.056,9.520 2.265 M9.760 6.366 C 8.034 7.024,6.560 8.217,6.560 8.956 C 6.560 10.003,7.667 10.220,8.619 9.360 C 9.605 8.469,10.604 8.096,12.000 8.096 C 13.396 8.096,14.395 8.469,15.381 9.360 C 16.348 10.233,17.440 10.004,17.440 8.928 C 17.440 8.364,16.251 7.302,14.909 6.666 C 13.945 6.210,13.676 6.157,12.160 6.126 C 10.893 6.100,10.303 6.159,9.760 6.366 M9.520 12.183 C 6.849 12.522,3.206 13.997,2.058 15.204 C 1.077 16.235,0.675 18.291,1.146 19.864 C 1.771 21.951,4.940 22.770,6.840 21.336 C 7.457 20.870,7.819 20.222,7.973 19.308 C 8.085 18.642,8.089 18.639,9.123 18.371 C 9.803 18.195,10.794 18.102,12.000 18.102 C 13.206 18.102,14.197 18.195,14.877 18.371 C 15.911 18.639,15.915 18.642,16.027 19.308 C 16.181 20.222,16.543 20.870,17.160 21.336 C 19.060 22.770,22.229 21.951,22.854 19.864 C 23.112 19.003,23.086 17.654,22.794 16.669 C 22.429 15.442,21.642 14.713,19.654 13.764 C 16.486 12.250,13.121 11.725,9.520 12.183 M16.080 14.539 C 17.631 14.958,20.014 16.064,20.514 16.596 C 20.815 16.917,20.889 17.201,20.935 18.232 C 20.988 19.388,20.965 19.498,20.620 19.740 C 20.220 20.021,18.798 20.095,18.419 19.855 C 18.297 19.778,18.138 19.339,18.066 18.880 C 17.832 17.400,17.351 16.958,15.405 16.436 C 13.643 15.962,10.357 15.962,8.595 16.436 C 6.649 16.958,6.168 17.400,5.934 18.880 C 5.862 19.339,5.703 19.778,5.581 19.855 C 5.202 20.095,3.780 20.021,3.380 19.740 C 3.035 19.499,3.012 19.388,3.064 18.236 C 3.133 16.725,3.283 16.523,4.960 15.685 C 7.496 14.417,9.101 14.081,12.320 14.145 C 14.245 14.182,15.086 14.271,16.080 14.539 " stroke="none" fill-rule="evenodd" fill="black"></path></svg>