<svg width="24" height="24" viewBox="0 0 24 24" fill="none" xmlns="http://www.w3.org/2000/svg"><path d="M11.433 1.513 L 11.040 1.905 11.040 6.965 L 11.040 12.025 11.508 12.492 L 11.975 12.960 16.992 12.960 C 22.536 12.960,22.537 12.960,22.871 11.948 C 23.225 10.874,22.337 7.723,21.194 6.002 C 19.276 3.112,15.834 1.120,12.759 1.120 C 11.981 1.120,11.760 1.185,11.433 1.513 M6.800 2.350 C 4.203 3.696,2.145 6.312,1.346 9.280 C 1.001 10.562,0.959 13.181,1.265 14.387 C 1.819 16.573,2.745 18.230,4.257 19.743 C 5.978 21.463,7.781 22.379,10.320 22.822 C 14.711 23.588,19.309 21.372,21.579 17.394 C 22.288 16.152,22.353 15.741,21.912 15.271 C 21.196 14.510,20.606 14.839,19.743 16.480 C 18.727 18.411,16.491 20.106,14.161 20.713 C 12.143 21.239,9.281 20.847,7.498 19.802 C 3.192 17.279,1.755 11.505,4.387 7.296 C 5.277 5.873,5.980 5.195,7.600 4.197 C 8.696 3.522,8.887 3.338,8.929 2.924 C 9.032 1.894,8.143 1.654,6.800 2.350 M15.140 3.607 C 16.937 4.273,18.419 5.432,19.440 6.971 C 20.059 7.904,20.701 9.485,20.848 10.440 L 20.940 11.040 16.950 11.040 L 12.960 11.040 12.960 7.050 L 12.960 3.060 13.560 3.152 C 13.890 3.203,14.601 3.408,15.140 3.607 " stroke="none" fill-rule="evenodd" fill="black"></path></svg>