<svg width="24" height="24" viewBox="0 0 24 24" fill="none" xmlns="http://www.w3.org/2000/svg"><path d="M4.698 2.449 L 4.080 3.015 4.031 11.548 C 3.998 17.307,4.037 20.271,4.154 20.668 C 4.248 20.992,4.555 21.449,4.836 21.685 C 5.274 22.054,5.454 22.104,6.114 22.041 C 6.801 21.975,7.530 21.535,13.006 17.885 C 16.374 15.639,19.362 13.538,19.645 13.216 C 20.321 12.446,20.351 11.612,19.730 10.873 C 19.493 10.592,16.487 8.486,13.050 6.193 C 7.544 2.521,6.713 2.017,6.059 1.954 C 5.385 1.889,5.259 1.935,4.698 2.449 M12.538 8.240 C 15.582 10.264,18.074 11.960,18.076 12.010 C 18.080 12.100,7.109 19.464,6.440 19.820 L 6.080 20.011 6.080 11.990 L 6.080 3.969 6.542 4.264 C 6.796 4.427,9.494 6.216,12.538 8.240 " stroke="none" fill-rule="evenodd" fill="black"></path></svg>