<svg width="24" height="24" viewBox="0 0 24 24" fill="none" xmlns="http://www.w3.org/2000/svg"><path d="M11.396 4.249 C 11.048 4.493,11.040 4.570,11.040 7.766 L 11.040 11.034 7.726 11.077 L 4.412 11.120 4.166 11.560 C 3.945 11.956,3.945 12.044,4.166 12.440 L 4.412 12.880 7.723 12.923 L 11.034 12.966 11.077 16.277 L 11.120 19.588 11.560 19.834 C 11.956 20.055,12.044 20.055,12.440 19.834 L 12.880 19.588 12.923 16.277 L 12.966 12.966 16.277 12.923 L 19.588 12.880 19.834 12.440 C 20.055 12.044,20.055 11.956,19.834 11.560 L 19.588 11.120 16.274 11.077 L 12.960 11.034 12.960 7.766 C 12.960 4.570,12.952 4.493,12.604 4.249 C 12.409 4.112,12.137 4.000,12.000 4.000 C 11.863 4.000,11.591 4.112,11.396 4.249 " stroke="none" fill-rule="evenodd" fill="black"></path></svg>