<svg version="1.1" xmlns="http://www.w3.org/2000/svg" width="32" height="32" viewBox="0 0 32 32"><path d="M13.973 0.119 C 13.739 0.173,13.023 0.324,12.383 0.454 C 7.866 1.371,3.309 5.126,1.358 9.538 C -2.757 18.842,2.851 29.596,12.899 31.672 C 21.438 33.435,29.878 27.783,31.672 19.101 C 33.354 10.957,28.203 2.759,19.987 0.504 C 18.872 0.198,14.767 -0.065,13.973 0.119 M15.859 2.621 C 15.779 3.119,15.964 3.890,16.500 5.275 C 17.297 7.339,17.707 9.124,17.707 10.528 C 17.707 11.846,17.901 11.340,18.146 9.383 C 18.397 7.381,19.017 5.421,19.574 4.865 C 19.929 4.512,19.947 4.564,19.947 5.928 C 19.947 7.187,20.057 7.582,20.852 9.174 C 22.330 12.134,22.509 14.442,21.427 16.581 C 21.149 17.130,20.961 17.619,21.010 17.668 C 21.059 17.717,22.128 17.553,23.385 17.305 C 24.642 17.056,25.713 16.896,25.766 16.948 C 25.926 17.109,24.984 18.894,24.192 19.931 L 23.447 20.907 15.992 20.907 L 8.536 20.907 7.875 20.000 C 7.114 18.957,6.114 17.068,6.250 16.932 C 6.301 16.881,7.219 17.035,8.289 17.273 C 10.986 17.874,10.913 17.903,10.207 16.503 C 9.300 14.705,9.359 13.153,10.467 9.664 C 11.084 7.720,11.297 6.735,11.205 6.243 C 11.100 5.687,11.137 5.577,11.394 5.676 C 11.893 5.867,12.603 7.540,12.737 8.838 C 12.804 9.486,12.939 9.966,13.037 9.905 C 13.361 9.705,14.046 7.122,14.199 5.522 C 14.348 3.967,14.673 3.022,15.312 2.293 C 15.804 1.732,15.986 1.841,15.859 2.621 M23.467 23.573 L 23.467 24.960 16.000 24.960 L 8.533 24.960 8.533 23.573 L 8.533 22.187 16.000 22.187 L 23.467 22.187 23.467 23.573 M20.480 26.741 C 20.480 27.514,19.343 28.906,18.298 29.412 C 16.216 30.420,13.384 29.816,12.141 28.100 C 11.799 27.628,11.520 27.017,11.520 26.741 L 11.520 26.240 16.000 26.240 L 20.480 26.240 20.480 26.741 " stroke="none" fill-rule="evenodd" fill="black"></path></svg>