<svg width="24" height="24" viewBox="0 0 24 24" fill="none" xmlns="http://www.w3.org/2000/svg"><path d="M10.326 0.954 C 10.049 1.260,10.042 1.805,10.306 2.418 C 10.395 2.625,10.282 2.698,9.729 2.786 C 8.350 3.007,6.735 3.951,5.354 5.343 C 3.335 7.380,2.560 9.211,2.560 11.949 C 2.560 14.640,3.385 16.656,5.281 18.600 C 6.285 19.630,6.575 19.840,6.996 19.840 C 7.533 19.840,8.000 19.377,8.000 18.846 C 8.000 18.690,7.514 18.075,6.920 17.479 C 4.459 15.012,3.842 11.663,5.297 8.674 C 6.133 6.955,7.928 5.399,9.683 4.871 C 10.373 4.663,10.397 4.667,10.242 4.957 C 9.993 5.422,10.049 6.003,10.373 6.295 C 10.946 6.814,11.379 6.628,12.704 5.296 C 14.347 3.643,14.347 3.557,12.704 1.904 C 11.353 0.545,10.870 0.352,10.326 0.954 M16.320 4.480 C 15.791 5.009,15.931 5.387,17.080 6.531 C 20.202 9.641,20.288 14.272,17.280 17.280 C 16.438 18.122,15.009 18.981,13.946 19.284 C 13.610 19.380,13.590 19.358,13.746 19.066 C 14.165 18.283,13.749 17.440,12.944 17.440 C 12.366 17.440,10.040 19.811,10.040 20.400 C 10.040 21.011,12.367 23.360,12.971 23.360 C 13.769 23.360,14.057 22.710,13.744 21.617 C 13.700 21.465,13.930 21.328,14.463 21.188 C 16.033 20.774,17.301 20.007,18.654 18.654 C 20.638 16.671,21.435 14.787,21.438 12.074 C 21.442 9.363,20.622 7.351,18.719 5.400 C 17.406 4.053,16.930 3.870,16.320 4.480 " stroke="none" fill-rule="evenodd" fill="black"></path></svg>