<svg width="24" height="24" viewBox="0 0 24 24" fill="none" xmlns="http://www.w3.org/2000/svg"><path d="M4.600 2.308 C 3.612 2.661,2.874 3.337,2.421 4.303 L 2.000 5.200 2.000 12.000 C 2.000 18.761,2.002 18.805,2.369 19.600 C 2.850 20.646,3.373 21.173,4.379 21.628 C 5.197 21.998,5.228 22.000,12.000 22.000 C 18.761 22.000,18.805 21.998,19.600 21.631 C 20.646 21.150,21.173 20.627,21.628 19.621 C 21.998 18.803,22.000 18.772,22.000 12.000 L 22.000 5.200 21.579 4.303 C 21.126 3.337,20.388 2.661,19.400 2.308 C 18.529 1.998,5.471 1.998,4.600 2.308 M19.000 4.286 C 19.646 4.654,19.871 5.207,19.960 6.639 L 20.045 8.000 12.023 8.000 L 4.000 8.000 4.004 7.080 C 4.012 5.220,4.414 4.411,5.461 4.156 C 5.757 4.084,8.844 4.037,12.320 4.052 C 17.133 4.073,18.726 4.129,19.000 4.286 M20.000 12.080 L 20.000 14.080 12.000 14.080 L 4.000 14.080 4.000 12.080 L 4.000 10.080 12.000 10.080 L 20.000 10.080 20.000 12.080 M19.960 17.361 C 19.863 18.916,19.614 19.430,18.793 19.773 C 17.996 20.106,6.004 20.106,5.207 19.773 C 4.386 19.430,4.137 18.916,4.040 17.361 L 3.955 16.000 12.000 16.000 L 20.045 16.000 19.960 17.361 " stroke="none" fill-rule="evenodd" fill="black"></path></svg>