<svg width="24" height="24" viewBox="0 0 24 24" fill="none" xmlns="http://www.w3.org/2000/svg"><path d="M8.640 2.311 C 6.421 2.936,4.664 4.259,3.332 6.308 C 2.440 7.681,2.056 9.042,2.044 10.880 C 2.022 14.023,3.411 16.704,5.975 18.470 C 8.947 20.517,13.221 20.470,16.216 18.357 L 16.671 18.036 18.616 19.967 C 19.685 21.028,20.668 21.916,20.800 21.940 C 21.464 22.058,22.058 21.464,21.940 20.800 C 21.916 20.668,21.028 19.685,19.967 18.616 L 18.036 16.671 18.357 16.216 C 20.473 13.218,20.517 8.948,18.465 5.967 C 17.277 4.244,15.295 2.831,13.353 2.325 C 12.224 2.031,9.663 2.023,8.640 2.311 M12.211 4.154 C 14.372 4.508,16.223 5.911,17.239 7.966 C 17.777 9.054,17.846 9.335,17.894 10.637 C 17.981 12.962,17.370 14.507,15.734 16.097 C 14.427 17.367,12.899 17.954,10.919 17.946 C 6.659 17.930,3.450 14.089,4.150 9.846 C 4.607 7.081,6.728 4.827,9.440 4.223 C 10.548 3.976,11.047 3.964,12.211 4.154 M10.596 5.137 C 9.965 5.372,9.820 6.305,10.348 6.743 C 10.476 6.849,10.973 6.990,11.453 7.055 C 13.306 7.306,14.575 8.569,14.927 10.512 C 15.091 11.419,15.191 11.628,15.561 11.834 C 15.955 12.055,16.045 12.055,16.440 11.835 C 16.807 11.630,16.888 11.466,16.928 10.842 C 17.078 8.533,15.214 6.038,12.800 5.316 C 11.955 5.063,11.003 4.986,10.596 5.137 " stroke="none" fill-rule="evenodd" fill="black"></path></svg>