<svg width="24" height="24" viewBox="0 0 24 24" fill="none" xmlns="http://www.w3.org/2000/svg"><path d="M20.480 1.551 C 18.991 2.082,2.803 8.436,2.348 8.667 C 1.117 9.294,1.094 10.617,2.302 11.298 C 2.633 11.484,4.438 12.229,6.315 12.954 L 9.727 14.273 11.046 17.685 C 11.771 19.562,12.516 21.367,12.702 21.698 C 13.385 22.910,14.705 22.883,15.337 21.644 C 15.652 21.027,21.686 5.657,22.259 4.015 C 22.666 2.846,22.643 2.309,22.167 1.833 C 21.786 1.451,21.087 1.334,20.480 1.551 M14.066 8.573 L 10.294 12.346 7.305 11.188 C 5.661 10.552,4.336 10.011,4.360 9.986 C 4.450 9.897,17.525 4.811,17.680 4.805 C 17.767 4.802,16.141 6.498,14.066 8.573 M16.637 12.978 C 15.219 16.617,14.039 19.614,14.015 19.638 C 13.992 19.662,13.453 18.335,12.818 16.690 L 11.664 13.699 15.385 9.975 C 17.431 7.928,19.130 6.277,19.160 6.307 C 19.190 6.337,18.055 9.339,16.637 12.978 " stroke="none" fill-rule="evenodd" fill="black"></path></svg>