<svg width="24" height="24" viewBox="0 0 24 24" fill="none" xmlns="http://www.w3.org/2000/svg"><path d="M2.130 2.591 C 1.938 2.684,1.676 2.975,1.549 3.238 C 1.251 3.854,1.390 4.458,2.794 8.635 C 3.369 10.349,3.840 11.899,3.840 12.079 C 3.840 12.260,3.300 14.024,2.640 16.000 C 1.980 17.976,1.440 19.850,1.440 20.166 C 1.440 20.809,1.870 21.381,2.466 21.531 C 2.693 21.588,3.245 21.464,3.861 21.217 C 6.589 20.124,21.261 13.408,21.718 13.043 C 22.142 12.705,22.240 12.513,22.240 12.021 C 22.240 11.336,21.910 10.952,20.880 10.436 C 19.269 9.629,4.002 2.810,3.375 2.617 C 2.563 2.367,2.591 2.368,2.130 2.591 M11.637 8.435 C 15.885 10.347,19.360 11.953,19.360 12.005 C 19.360 12.098,4.015 19.043,3.812 19.041 C 3.753 19.040,4.155 17.690,4.706 16.040 L 5.707 13.040 8.334 12.999 C 10.783 12.961,10.979 12.936,11.240 12.622 C 11.579 12.213,11.596 11.845,11.293 11.431 C 11.089 11.151,10.802 11.112,8.387 11.040 L 5.707 10.960 4.706 7.960 C 4.155 6.310,3.752 4.960,3.809 4.960 C 3.866 4.960,7.389 6.524,11.637 8.435 " stroke="none" fill-rule="evenodd" fill="black"></path></svg>