<svg width="24" height="24" viewBox="0 0 24 24" fill="none" xmlns="http://www.w3.org/2000/svg"><path d="M10.646 1.133 C 9.144 1.360,7.480 2.239,6.339 3.407 C 5.184 4.589,4.579 5.645,4.247 7.054 C 3.555 9.986,4.374 12.716,6.565 14.783 C 7.724 15.876,8.912 16.530,10.268 16.821 C 11.003 16.979,11.079 17.029,10.819 17.182 C 10.193 17.551,9.580 18.134,9.350 18.579 L 9.112 19.040 5.847 19.040 C 2.268 19.040,2.080 19.087,2.080 19.987 C 2.080 20.893,2.342 20.960,5.866 20.960 L 9.066 20.960 9.453 21.555 C 10.722 23.506,13.610 23.432,14.650 21.421 L 14.888 20.960 18.139 20.960 C 21.086 20.960,21.415 20.933,21.655 20.667 C 22.005 20.281,21.992 19.635,21.627 19.305 C 21.376 19.077,20.886 19.040,18.112 19.040 L 14.888 19.040 14.650 18.579 C 14.420 18.134,13.807 17.551,13.181 17.182 C 12.921 17.029,12.997 16.979,13.732 16.821 C 15.088 16.530,16.276 15.876,17.435 14.783 C 19.626 12.716,20.445 9.986,19.753 7.054 C 19.423 5.650,18.816 4.590,17.680 3.427 C 15.852 1.556,13.315 0.729,10.646 1.133 M9.309 4.264 C 8.885 5.098,8.320 6.968,8.320 7.537 L 8.320 8.000 7.197 8.000 L 6.074 8.000 6.176 7.560 C 6.343 6.837,6.911 5.781,7.507 5.085 C 8.039 4.464,9.425 3.452,9.560 3.586 C 9.594 3.621,9.481 3.926,9.309 4.264 M16.380 4.974 C 17.056 5.726,17.643 6.777,17.824 7.560 L 17.926 8.000 16.803 8.000 L 15.680 8.000 15.680 7.537 C 15.680 6.974,15.116 5.101,14.702 4.286 C 14.536 3.960,14.400 3.649,14.400 3.596 C 14.400 3.350,15.790 4.317,16.380 4.974 M12.787 5.000 C 13.141 5.726,13.494 6.698,13.573 7.160 L 13.716 8.000 12.000 8.000 L 10.284 8.000 10.427 7.160 C 10.577 6.278,11.752 3.680,12.000 3.680 C 12.079 3.680,12.434 4.274,12.787 5.000 M8.320 10.443 C 8.320 10.983,8.924 13.062,9.288 13.776 C 9.648 14.482,9.577 14.531,8.845 14.085 C 7.669 13.368,6.599 11.913,6.165 10.440 C 6.062 10.091,6.092 10.080,7.189 10.080 C 8.258 10.080,8.320 10.100,8.320 10.443 M13.505 11.080 C 13.227 12.306,12.322 14.160,12.000 14.160 C 11.678 14.160,10.773 12.306,10.495 11.080 L 10.268 10.080 12.000 10.080 L 13.732 10.080 13.505 11.080 M17.835 10.440 C 17.401 11.913,16.331 13.368,15.155 14.085 C 14.423 14.531,14.352 14.482,14.712 13.776 C 15.076 13.062,15.680 10.983,15.680 10.443 C 15.680 10.100,15.742 10.080,16.811 10.080 C 17.908 10.080,17.938 10.091,17.835 10.440 M12.667 19.305 C 13.032 19.635,13.045 20.281,12.695 20.667 C 12.146 21.275,11.040 20.847,11.040 20.028 C 11.040 19.172,12.033 18.731,12.667 19.305 " stroke="none" fill-rule="evenodd" fill="black"></path></svg>