<svg width="24" height="24" viewBox="0 0 24 24" fill="none" xmlns="http://www.w3.org/2000/svg"><path d="M11.360 1.117 C 10.215 1.329,9.416 2.101,8.707 3.680 C 8.128 4.970,7.843 5.109,5.993 5.002 C 4.750 4.931,4.458 4.965,3.913 5.244 C 2.627 5.904,2.013 6.960,2.112 8.340 C 2.169 9.127,2.293 9.433,2.930 10.356 C 3.923 11.796,3.922 12.204,2.927 13.648 C 2.261 14.614,2.168 14.854,2.120 15.730 C 2.077 16.536,2.135 16.836,2.434 17.345 C 3.234 18.710,4.442 19.233,6.308 19.023 C 7.760 18.860,8.087 19.042,8.736 20.376 C 9.658 22.270,10.503 22.932,12.000 22.932 C 13.488 22.932,14.468 22.158,15.284 20.340 C 15.834 19.115,16.283 18.878,17.760 19.033 C 19.107 19.174,19.962 18.983,20.697 18.378 C 21.593 17.639,21.969 16.781,21.887 15.659 C 21.831 14.873,21.706 14.566,21.070 13.644 C 20.077 12.204,20.078 11.796,21.073 10.352 C 21.739 9.386,21.832 9.146,21.880 8.270 C 21.943 7.101,21.580 6.336,20.584 5.535 C 19.984 5.053,19.925 5.040,18.264 5.032 C 17.327 5.028,16.394 4.967,16.191 4.898 C 15.945 4.815,15.638 4.393,15.267 3.630 C 14.245 1.532,13.101 0.796,11.360 1.117 M12.555 3.140 C 12.699 3.196,13.096 3.795,13.437 4.473 C 14.489 6.566,15.456 7.145,17.649 6.995 C 19.124 6.894,19.596 7.048,19.825 7.707 C 20.021 8.268,19.944 8.506,19.254 9.463 C 17.898 11.342,17.897 12.652,19.250 14.543 C 19.947 15.516,20.018 15.740,19.816 16.319 C 19.569 17.028,19.206 17.156,17.791 17.033 C 15.511 16.834,14.497 17.418,13.428 19.544 C 12.765 20.863,12.438 21.105,11.600 20.894 C 11.300 20.819,11.045 20.484,10.572 19.544 C 9.494 17.400,8.564 16.855,6.260 17.021 C 4.745 17.130,4.459 17.027,4.171 16.268 C 3.973 15.748,4.059 15.490,4.746 14.537 C 6.104 12.655,6.104 11.345,4.746 9.463 C 4.056 8.506,3.979 8.268,4.175 7.707 C 4.404 7.048,4.876 6.894,6.351 6.995 C 8.545 7.145,9.511 6.566,10.566 4.468 C 10.908 3.788,11.281 3.193,11.394 3.148 C 11.693 3.028,12.253 3.024,12.555 3.140 M10.779 8.228 C 9.863 8.515,9.023 9.195,8.512 10.065 C 8.145 10.689,8.080 10.983,8.080 12.013 C 8.080 13.082,8.137 13.318,8.565 14.013 C 10.173 16.625,13.827 16.625,15.435 14.013 C 15.863 13.318,15.920 13.082,15.920 12.013 C 15.920 10.983,15.855 10.689,15.488 10.065 C 14.511 8.403,12.601 7.658,10.779 8.228 M13.376 10.624 C 13.850 11.098,13.920 11.271,13.920 11.972 C 13.920 12.601,13.831 12.881,13.510 13.263 C 12.714 14.208,11.286 14.208,10.490 13.263 C 10.169 12.881,10.080 12.601,10.080 11.972 C 10.080 11.271,10.150 11.098,10.624 10.624 C 11.103 10.145,11.267 10.080,12.000 10.080 C 12.733 10.080,12.897 10.145,13.376 10.624 " stroke="none" fill-rule="evenodd" fill="black"></path></svg>