<svg width="24" height="24" viewBox="0 0 24 24" fill="none" xmlns="http://www.w3.org/2000/svg"><path d="M17.134 1.136 C 15.907 1.373,14.704 2.395,14.236 3.601 C 14.133 3.864,14.051 4.548,14.054 5.120 L 14.058 6.160 11.478 7.659 C 9.411 8.860,8.848 9.124,8.649 8.981 C 7.683 8.291,7.085 8.090,6.000 8.090 C 4.725 8.090,3.939 8.418,3.088 9.306 C 2.395 10.029,2.048 10.928,2.048 12.000 C 2.048 13.621,2.878 14.897,4.400 15.618 C 5.729 16.247,7.283 16.031,8.641 15.029 C 8.833 14.887,9.413 15.157,11.468 16.345 L 14.054 17.840 14.048 18.910 C 14.037 20.782,15.109 22.283,16.820 22.791 C 17.865 23.101,18.135 23.101,19.180 22.791 C 22.016 21.949,22.910 18.268,20.785 16.186 C 20.028 15.445,19.454 15.178,18.414 15.085 C 17.313 14.986,16.331 15.237,15.682 15.783 L 15.190 16.197 13.395 15.157 C 12.408 14.586,11.240 13.906,10.800 13.648 L 10.000 13.178 10.000 12.008 L 10.000 10.838 12.557 9.344 C 14.938 7.953,15.137 7.867,15.437 8.090 C 16.325 8.751,17.160 9.000,18.229 8.924 C 19.418 8.839,20.051 8.565,20.809 7.806 C 21.870 6.746,22.273 4.833,21.716 3.502 C 20.986 1.754,19.067 0.764,17.134 1.136 M19.298 3.565 C 20.429 4.602,20.096 6.316,18.659 6.863 C 18.123 7.067,17.958 7.068,17.387 6.869 C 15.909 6.354,15.550 4.621,16.702 3.565 C 17.517 2.819,18.483 2.819,19.298 3.565 M7.026 10.313 C 7.506 10.561,8.000 11.418,8.000 12.000 C 8.000 12.537,7.539 13.391,7.091 13.684 C 6.576 14.022,5.424 14.022,4.909 13.684 C 4.461 13.391,4.000 12.537,4.000 12.000 C 4.000 11.436,4.487 10.567,4.941 10.320 C 5.488 10.023,6.460 10.020,7.026 10.313 M19.157 17.377 C 20.718 18.365,19.880 20.960,18.000 20.960 C 17.404 20.960,17.174 20.867,16.702 20.435 C 14.884 18.769,17.065 16.053,19.157 17.377 " stroke="none" fill-rule="evenodd" fill="black"></path></svg>