<svg width="24" height="24" viewBox="0 0 24 24" fill="none" xmlns="http://www.w3.org/2000/svg"><path d="M10.480 2.089 C 8.993 3.093,8.434 3.341,6.549 3.836 C 4.441 4.389,3.810 4.751,3.371 5.657 C 3.067 6.285,3.040 6.628,3.040 9.822 C 3.040 13.125,3.061 13.366,3.446 14.513 C 4.183 16.708,5.857 18.875,8.228 20.703 C 11.840 23.487,12.160 23.487,15.772 20.703 C 17.986 18.996,19.673 16.885,20.491 14.800 C 20.840 13.910,20.872 13.569,20.927 10.117 C 20.982 6.613,20.966 6.355,20.655 5.717 C 20.197 4.778,19.519 4.378,17.469 3.841 C 15.566 3.341,15.009 3.094,13.520 2.089 C 12.852 1.638,12.390 1.441,12.000 1.441 C 11.610 1.441,11.148 1.638,10.480 2.089 M12.937 4.079 C 14.012 4.851,15.176 5.338,16.960 5.761 C 17.796 5.959,18.588 6.222,18.720 6.346 C 18.909 6.523,18.971 7.112,19.014 9.115 C 19.111 13.710,18.626 15.132,16.083 17.696 C 14.769 19.022,12.430 20.800,12.000 20.800 C 11.570 20.800,9.231 19.022,7.917 17.696 C 6.239 16.004,5.405 14.585,5.117 12.932 C 4.846 11.376,4.963 6.643,5.280 6.346 C 5.412 6.222,6.204 5.960,7.040 5.762 C 8.755 5.357,10.176 4.755,11.120 4.032 C 11.472 3.762,11.850 3.537,11.960 3.531 C 12.069 3.525,12.509 3.771,12.937 4.079 " stroke="none" fill-rule="evenodd" fill="black"></path></svg>