<svg width="24" height="24" viewBox="0 0 24 24" fill="none" xmlns="http://www.w3.org/2000/svg"><path d="M8.160 2.374 C 4.415 3.789,4.053 3.975,3.513 4.763 C 3.125 5.328,3.119 5.391,3.072 9.297 C 3.025 13.194,3.031 13.277,3.438 14.490 C 4.183 16.708,5.848 18.868,8.228 20.703 C 11.840 23.487,12.160 23.487,15.772 20.703 C 17.986 18.996,19.673 16.886,20.491 14.800 C 20.842 13.906,20.872 13.576,20.927 10.014 C 20.959 7.910,20.941 5.946,20.885 5.651 C 20.770 5.040,20.005 4.094,19.353 3.756 C 18.288 3.206,12.421 1.121,11.955 1.127 C 11.672 1.131,9.964 1.692,8.160 2.374 M15.392 4.350 C 17.038 4.968,18.514 5.568,18.672 5.683 C 18.928 5.870,18.966 6.221,19.010 8.800 C 19.038 10.403,18.982 12.215,18.885 12.841 C 18.618 14.558,17.816 15.949,16.083 17.696 C 14.769 19.022,12.430 20.800,12.000 20.800 C 11.570 20.800,9.231 19.022,7.917 17.696 C 6.247 16.012,5.405 14.583,5.121 12.954 C 4.886 11.605,4.966 6.009,5.223 5.752 C 5.528 5.449,11.901 3.050,12.160 3.141 C 12.292 3.188,13.746 3.732,15.392 4.350 " stroke="none" fill-rule="evenodd" fill="black"></path></svg>