<svg width="24" height="24" viewBox="0 0 24 24" fill="none" xmlns="http://www.w3.org/2000/svg"><path d="M3.778 4.727 C 2.808 5.797,1.966 7.265,1.489 8.717 C 1.124 9.827,1.067 10.270,1.067 12.000 C 1.067 13.730,1.124 14.173,1.489 15.283 C 2.248 17.592,3.996 20.000,4.913 20.000 C 5.450 20.000,5.920 19.577,5.920 19.094 C 5.920 18.917,5.557 18.320,5.113 17.767 C 3.645 15.938,3.045 14.263,3.045 12.000 C 3.045 9.737,3.645 8.062,5.113 6.233 C 5.974 5.161,6.097 4.690,5.627 4.265 C 5.094 3.782,4.499 3.931,3.778 4.727 M18.345 4.293 C 17.918 4.764,18.030 5.166,18.887 6.233 C 20.355 8.062,20.955 9.737,20.955 12.000 C 20.955 14.263,20.355 15.938,18.887 17.767 C 18.443 18.320,18.080 18.929,18.080 19.121 C 18.080 19.590,18.563 20.000,19.114 20.000 C 20.003 20.000,21.765 17.553,22.511 15.283 C 22.876 14.173,22.933 13.730,22.933 12.000 C 22.933 10.270,22.876 9.827,22.511 8.717 C 21.752 6.408,20.004 4.000,19.087 4.000 C 18.824 4.000,18.490 4.132,18.345 4.293 M6.753 7.463 C 4.959 9.336,4.513 12.431,5.670 14.977 C 6.092 15.905,7.328 17.280,7.740 17.280 C 8.069 17.280,8.800 16.586,8.800 16.273 C 8.800 16.152,8.510 15.646,8.155 15.151 C 7.340 14.013,7.040 13.165,7.040 12.000 C 7.040 10.835,7.340 9.987,8.155 8.849 C 8.510 8.354,8.800 7.848,8.800 7.727 C 8.800 7.414,8.069 6.720,7.740 6.720 C 7.589 6.720,7.145 7.054,6.753 7.463 M15.593 7.113 C 15.377 7.329,15.200 7.605,15.200 7.727 C 15.200 7.848,15.490 8.354,15.845 8.849 C 16.660 9.987,16.960 10.835,16.960 12.000 C 16.960 13.165,16.660 14.013,15.845 15.151 C 15.490 15.646,15.200 16.152,15.200 16.273 C 15.200 16.586,15.931 17.280,16.260 17.280 C 16.672 17.280,17.908 15.905,18.330 14.977 C 19.487 12.431,19.041 9.336,17.247 7.463 C 16.437 6.618,16.149 6.557,15.593 7.113 M11.220 9.117 C 9.027 9.649,8.279 12.476,9.901 14.099 C 12.050 16.247,15.676 14.157,14.887 11.225 C 14.463 9.653,12.845 8.723,11.220 9.117 M12.667 11.305 C 13.032 11.635,13.045 12.281,12.695 12.667 C 12.146 13.275,11.040 12.847,11.040 12.028 C 11.040 11.172,12.033 10.731,12.667 11.305 " stroke="none" fill-rule="evenodd" fill="black"></path></svg>