<svg width="24" height="24" viewBox="0 0 24 24" fill="none" xmlns="http://www.w3.org/2000/svg"><path d="M7.681 1.078 C 7.186 1.170,1.559 6.707,1.207 7.448 C 1.005 7.874,0.960 8.695,0.960 11.974 C 0.960 14.425,1.026 16.154,1.131 16.430 C 1.351 17.011,6.779 22.476,7.455 22.796 C 8.209 23.154,15.791 23.154,16.545 22.796 C 17.221 22.476,22.649 17.011,22.869 16.430 C 22.974 16.154,23.040 14.425,23.040 11.974 C 23.040 8.695,22.995 7.874,22.793 7.448 C 22.657 7.162,21.235 5.632,19.633 4.048 C 17.348 1.790,16.604 1.146,16.180 1.064 C 15.581 0.949,8.312 0.960,7.681 1.078 M18.358 5.638 L 20.960 8.236 20.960 12.003 L 20.960 15.770 19.998 16.722 L 19.035 17.675 12.680 11.320 L 6.325 4.965 7.278 4.002 L 8.230 3.040 11.993 3.040 L 15.756 3.040 18.358 5.638 M11.358 12.718 L 17.674 19.036 16.722 19.998 L 15.770 20.960 12.003 20.960 L 8.236 20.960 5.638 18.358 L 3.040 15.756 3.040 12.003 L 3.040 8.249 3.955 7.325 C 4.458 6.816,4.909 6.400,4.956 6.400 C 5.003 6.400,7.884 9.243,11.358 12.718 " stroke="none" fill-rule="evenodd" fill="black"></path></svg>