<svg width="24" height="24" viewBox="0 0 24 24" fill="none" xmlns="http://www.w3.org/2000/svg"><path d="M10.466 1.131 C 8.130 1.410,6.075 2.444,4.259 4.256 C 2.916 5.596,2.071 6.957,1.489 8.720 C 1.124 9.828,1.067 10.268,1.067 12.000 C 1.067 13.732,1.124 14.172,1.489 15.280 C 2.070 17.040,2.915 18.403,4.256 19.744 C 5.597 21.085,6.960 21.930,8.720 22.511 C 9.828 22.876,10.268 22.933,12.000 22.933 C 13.732 22.933,14.172 22.876,15.280 22.511 C 17.040 21.930,18.403 21.085,19.744 19.744 C 21.085 18.403,21.930 17.040,22.511 15.280 C 22.876 14.172,22.933 13.732,22.933 12.000 C 22.933 10.271,22.876 9.826,22.512 8.720 C 20.810 3.543,15.945 0.478,10.466 1.131 M14.225 3.286 C 14.789 3.419,15.689 3.760,16.225 4.043 C 17.482 4.707,19.293 6.518,19.957 7.775 C 21.483 10.663,21.246 14.637,19.400 17.098 L 18.997 17.635 12.704 11.344 C 5.620 4.262,6.079 4.952,7.830 4.018 C 9.595 3.077,12.115 2.789,14.225 3.286 M17.345 19.216 C 17.212 19.364,16.692 19.703,16.191 19.969 C 13.667 21.310,10.331 21.302,7.760 19.947 C 6.519 19.294,4.704 17.476,4.043 16.225 C 2.517 13.337,2.754 9.363,4.600 6.902 L 5.003 6.365 11.296 12.656 C 17.060 18.418,17.568 18.970,17.345 19.216 " stroke="none" fill-rule="evenodd" fill="black"></path></svg>