<svg width="24" height="24" viewBox="0 0 24 24" fill="none" xmlns="http://www.w3.org/2000/svg"><path d="M4.265 2.373 C 4.044 2.617,4.000 3.053,4.000 5.013 C 4.000 7.147,4.029 7.389,4.320 7.680 C 4.735 8.095,5.311 8.088,5.695 7.663 C 5.966 7.364,6.000 7.062,6.000 4.930 C 6.000 2.743,5.973 2.514,5.689 2.307 C 5.259 1.992,4.581 2.023,4.265 2.373 M11.291 2.331 C 11.093 2.530,11.040 2.959,11.040 4.375 L 11.040 6.167 10.458 6.481 C 9.162 7.179,8.627 8.925,9.309 10.231 C 9.513 10.622,9.957 11.162,10.295 11.431 C 10.845 11.868,11.025 11.920,12.000 11.920 C 12.975 11.920,13.155 11.868,13.705 11.431 C 14.043 11.162,14.487 10.622,14.691 10.231 C 15.373 8.925,14.838 7.179,13.542 6.481 L 12.960 6.167 12.960 4.388 C 12.960 2.868,12.917 2.571,12.667 2.345 C 12.298 2.010,11.619 2.004,11.291 2.331 M18.311 2.307 C 18.020 2.520,18.000 2.754,18.000 5.981 C 18.000 8.980,18.035 9.463,18.266 9.694 C 18.613 10.042,19.290 10.033,19.685 9.675 C 19.979 9.409,20.000 9.168,20.000 6.000 C 20.000 2.919,19.973 2.585,19.707 2.345 C 19.348 2.020,18.726 2.003,18.311 2.307 M12.604 8.249 C 13.296 8.733,12.887 9.920,12.028 9.920 C 11.118 9.920,10.677 8.753,11.396 8.249 C 11.591 8.112,11.863 8.000,12.000 8.000 C 12.137 8.000,12.409 8.112,12.604 8.249 M3.760 10.266 C 3.307 10.516,2.563 11.223,2.361 11.596 C 1.613 12.978,2.187 14.905,3.560 15.619 L 4.000 15.848 4.000 18.619 C 4.000 21.056,4.034 21.421,4.280 21.641 C 4.627 21.951,4.941 22.016,5.376 21.868 C 5.960 21.669,6.080 21.085,6.080 18.453 L 6.080 15.960 6.822 15.307 C 7.976 14.292,8.285 13.153,7.754 11.881 C 7.436 11.121,7.100 10.757,6.366 10.383 C 5.704 10.045,4.277 9.981,3.760 10.266 M5.627 12.265 C 6.149 12.737,5.878 13.874,5.229 13.939 C 4.189 14.044,3.616 13.024,4.320 12.320 C 4.709 11.931,5.234 11.909,5.627 12.265 M18.160 12.136 C 16.462 12.688,15.604 14.438,16.229 16.074 C 16.478 16.724,17.413 17.760,17.752 17.760 C 17.829 17.760,17.917 18.586,17.946 19.595 C 17.989 21.040,18.056 21.486,18.266 21.695 C 18.614 22.042,19.290 22.033,19.685 21.675 C 19.963 21.424,20.000 21.177,20.000 19.575 C 20.000 18.515,20.064 17.760,20.154 17.760 C 20.378 17.760,21.421 16.815,21.631 16.422 C 22.173 15.409,22.000 13.814,21.262 13.012 C 20.519 12.206,19.142 11.817,18.160 12.136 M11.291 14.331 C 11.079 14.544,11.040 15.106,11.040 17.987 C 11.040 21.081,11.067 21.414,11.333 21.655 C 11.719 22.005,12.365 21.992,12.695 21.627 C 12.924 21.375,12.960 20.877,12.960 17.972 C 12.960 14.918,12.933 14.585,12.667 14.345 C 12.298 14.010,11.619 14.004,11.291 14.331 M19.707 14.345 C 20.091 14.692,20.079 15.281,19.680 15.680 C 19.060 16.300,18.080 15.900,18.080 15.027 C 18.080 14.174,19.063 13.762,19.707 14.345 " stroke="none" fill-rule="evenodd" fill="black"></path></svg>