<svg width="24" height="24" viewBox="0 0 24 24" fill="none" xmlns="http://www.w3.org/2000/svg"><path d="M11.360 1.796 C 11.079 1.939,10.569 2.763,9.648 4.560 C 8.926 5.968,8.314 7.171,8.288 7.234 C 8.261 7.297,6.980 7.533,5.440 7.760 C 2.487 8.195,1.970 8.388,1.697 9.154 C 1.423 9.922,1.728 10.391,3.849 12.458 L 5.924 14.480 5.442 17.280 C 5.177 18.820,5.001 20.277,5.052 20.518 C 5.191 21.176,5.878 21.647,6.566 21.555 C 6.877 21.514,8.227 20.899,9.566 20.189 L 12.000 18.898 14.423 20.183 C 17.058 21.580,17.700 21.781,18.292 21.393 C 19.072 20.882,19.099 20.478,18.567 17.349 L 18.079 14.480 20.155 12.445 C 22.269 10.374,22.572 9.909,22.303 9.154 C 22.030 8.388,21.512 8.195,18.568 7.761 C 17.032 7.534,15.762 7.333,15.746 7.314 C 15.729 7.295,15.139 6.124,14.433 4.712 C 13.728 3.300,13.047 2.058,12.920 1.953 C 12.555 1.650,11.796 1.573,11.360 1.796 M13.159 6.634 C 13.767 7.853,14.390 8.889,14.596 9.022 C 14.796 9.151,16.068 9.421,17.423 9.621 L 19.886 9.986 18.041 11.753 C 17.027 12.725,16.150 13.675,16.093 13.864 C 16.035 14.053,16.174 15.305,16.401 16.644 C 16.627 17.984,16.792 19.096,16.766 19.115 C 16.741 19.135,15.784 18.646,14.640 18.030 C 13.196 17.252,12.389 16.910,12.000 16.910 C 11.611 16.910,10.804 17.252,9.360 18.030 C 8.216 18.646,7.256 19.132,7.226 19.108 C 7.197 19.085,7.362 17.976,7.594 16.644 C 7.826 15.311,7.968 14.064,7.909 13.871 C 7.851 13.678,6.973 12.725,5.959 11.753 L 4.114 9.986 6.577 9.621 C 7.932 9.421,9.204 9.151,9.404 9.022 C 9.610 8.889,10.233 7.853,10.841 6.634 C 11.431 5.449,11.953 4.480,12.000 4.480 C 12.047 4.480,12.569 5.449,13.159 6.634 " stroke="none" fill-rule="evenodd" fill="black"></path></svg>