<svg width="24" height="24" viewBox="0 0 24 24" fill="none" xmlns="http://www.w3.org/2000/svg"><path d="M4.080 1.152 C 3.593 1.427,3.525 1.603,3.522 2.600 L 3.520 3.520 2.560 3.520 C 1.526 3.520,0.960 3.853,0.960 4.462 C 0.960 5.102,1.470 5.459,2.523 5.554 L 3.520 5.644 3.520 6.502 C 3.520 7.809,4.281 8.392,5.110 7.720 C 5.361 7.516,5.480 7.195,5.548 6.540 L 5.641 5.641 6.540 5.548 C 7.195 5.480,7.516 5.361,7.720 5.110 C 8.392 4.281,7.809 3.520,6.502 3.520 L 5.644 3.520 5.555 2.539 C 5.507 1.999,5.371 1.467,5.253 1.356 C 4.920 1.040,4.430 0.955,4.080 1.152 M12.288 2.360 C 12.155 2.514,11.560 3.913,10.965 5.469 C 10.371 7.025,9.730 8.442,9.542 8.617 C 9.354 8.793,7.940 9.420,6.400 10.009 C 4.860 10.599,3.474 11.191,3.320 11.325 C 2.960 11.639,2.960 12.359,3.320 12.680 C 3.474 12.818,4.779 13.382,6.219 13.934 C 7.660 14.486,9.064 15.089,9.339 15.275 C 9.766 15.562,10.009 16.048,10.983 18.565 C 12.260 21.867,12.563 22.292,13.367 21.898 C 13.746 21.712,13.970 21.266,14.903 18.838 C 15.504 17.275,16.111 15.820,16.252 15.605 C 16.443 15.313,17.301 14.902,19.625 13.988 C 22.302 12.936,22.764 12.704,22.901 12.346 C 23.209 11.534,22.922 11.303,20.371 10.315 C 16.801 8.932,16.516 8.799,16.245 8.386 C 16.108 8.176,15.521 6.762,14.940 5.242 C 14.359 3.723,13.771 2.390,13.632 2.280 C 13.268 1.992,12.569 2.034,12.288 2.360 M13.749 7.706 C 14.609 9.916,15.139 10.434,17.417 11.302 C 18.309 11.642,19.040 11.956,19.040 12.000 C 19.040 12.044,18.309 12.358,17.417 12.698 C 15.124 13.571,14.604 14.085,13.732 16.338 C 13.360 17.296,13.009 18.027,12.950 17.960 C 12.891 17.894,12.645 17.300,12.402 16.640 C 11.485 14.144,10.921 13.582,8.370 12.619 C 7.638 12.343,7.040 12.069,7.040 12.010 C 7.040 11.952,7.771 11.619,8.665 11.272 C 11.167 10.299,11.371 10.054,12.823 6.258 C 12.903 6.048,12.995 5.904,13.027 5.938 C 13.058 5.972,13.383 6.768,13.749 7.706 M3.840 16.320 C 3.591 16.569,3.520 16.853,3.520 17.600 L 3.520 18.560 2.560 18.560 C 1.398 18.560,0.864 18.943,1.035 19.654 C 1.187 20.284,1.555 20.480,2.591 20.480 L 3.520 20.480 3.520 21.429 C 3.520 22.419,3.701 22.764,4.329 22.963 C 5.074 23.199,5.600 22.396,5.600 21.020 L 5.600 20.480 6.480 20.480 C 7.795 20.480,8.360 19.785,7.751 18.916 C 7.542 18.618,7.351 18.560,6.573 18.560 L 5.644 18.560 5.554 17.563 C 5.485 16.800,5.382 16.500,5.114 16.283 C 4.657 15.913,4.235 15.925,3.840 16.320 " stroke="none" fill-rule="evenodd" fill="black"></path></svg>