<svg width="24" height="24" viewBox="0 0 24 24" fill="none" xmlns="http://www.w3.org/2000/svg"><path d="M4.600 2.308 C 3.612 2.661,2.874 3.337,2.421 4.303 L 2.000 5.200 2.000 12.000 C 2.000 18.761,2.002 18.805,2.369 19.600 C 2.850 20.646,3.373 21.173,4.379 21.628 C 5.197 21.998,5.228 22.000,12.000 22.000 C 18.761 22.000,18.805 21.998,19.600 21.631 C 20.646 21.150,21.173 20.627,21.628 19.621 C 21.998 18.803,22.000 18.772,22.000 12.000 L 22.000 5.200 21.579 4.303 C 21.126 3.337,20.388 2.661,19.400 2.308 C 18.529 1.998,5.471 1.998,4.600 2.308 M19.000 4.286 C 19.198 4.399,19.486 4.684,19.640 4.919 C 19.895 5.308,19.920 5.932,19.920 12.000 C 19.920 19.432,19.940 19.294,18.793 19.773 C 17.996 20.106,6.004 20.106,5.207 19.773 C 4.080 19.302,4.086 19.337,4.029 12.727 C 4.000 9.467,4.024 6.420,4.081 5.955 C 4.204 4.945,4.655 4.351,5.443 4.160 C 6.387 3.930,18.577 4.044,19.000 4.286 M7.980 7.309 C 7.095 7.858,7.040 8.134,7.040 12.000 C 7.040 17.151,6.849 16.960,12.000 16.960 C 15.000 16.960,15.619 16.919,15.994 16.698 C 16.903 16.161,16.960 15.886,16.960 12.000 C 16.960 6.845,17.155 7.038,11.975 7.044 C 8.954 7.048,8.335 7.089,7.980 7.309 M15.040 12.000 L 15.040 15.040 12.000 15.040 L 8.960 15.040 8.960 12.000 L 8.960 8.960 12.000 8.960 L 15.040 8.960 15.040 12.000 " stroke="none" fill-rule="evenodd" fill="black"></path></svg>