<svg width="24" height="24" viewBox="0 0 24 24" fill="none" xmlns="http://www.w3.org/2000/svg"><path d="M5.600 1.102 C 4.693 1.244,4.329 1.446,3.713 2.147 C 3.400 2.504,3.186 2.955,3.122 3.393 C 3.067 3.771,3.044 7.901,3.071 12.572 L 3.120 21.064 3.517 21.643 C 3.736 21.962,4.204 22.389,4.557 22.591 L 5.200 22.960 12.000 22.960 L 18.800 22.960 19.443 22.591 C 19.796 22.389,20.264 21.962,20.483 21.643 L 20.880 21.064 20.929 12.572 C 20.956 7.901,20.933 3.771,20.878 3.393 C 20.767 2.628,20.103 1.754,19.296 1.312 C 18.856 1.071,18.100 1.037,12.560 1.015 C 9.128 1.001,5.996 1.041,5.600 1.102 M18.649 3.267 C 18.950 3.487,18.960 3.765,18.960 12.000 C 18.960 20.235,18.950 20.513,18.649 20.733 C 18.189 21.070,5.811 21.070,5.351 20.733 C 5.050 20.513,5.040 20.235,5.040 12.000 C 5.040 3.765,5.050 3.487,5.351 3.267 C 5.811 2.930,18.189 2.930,18.649 3.267 M11.520 16.107 C 10.945 16.331,10.560 16.863,10.560 17.432 C 10.560 18.531,11.543 19.268,12.486 18.877 C 13.898 18.293,13.719 16.328,12.232 16.089 C 11.973 16.047,11.652 16.056,11.520 16.107 " stroke="none" fill-rule="evenodd" fill="black"></path></svg>