<svg width="24" height="24" viewBox="0 0 24 24" fill="none" xmlns="http://www.w3.org/2000/svg"><path d="M3.558 1.116 C 2.544 1.272,1.672 1.886,1.307 2.701 C 0.903 3.604,0.824 10.149,1.205 11.181 C 1.432 11.795,2.332 12.772,6.539 16.969 C 9.685 20.107,11.842 22.136,12.240 22.329 C 13.120 22.757,14.884 22.756,15.760 22.327 C 16.601 21.915,21.915 16.601,22.327 15.760 C 22.756 14.884,22.757 13.120,22.329 12.240 C 21.951 11.462,12.342 1.770,11.520 1.338 C 11.035 1.083,10.520 1.039,7.680 1.015 C 5.876 0.999,4.021 1.045,3.558 1.116 M15.471 7.880 C 18.766 11.180,20.385 12.915,20.560 13.334 C 21.008 14.408,20.761 14.798,17.691 17.867 C 14.755 20.802,14.394 21.033,13.360 20.640 C 13.093 20.539,10.719 18.300,7.961 15.549 L 3.039 10.640 3.039 7.133 C 3.040 4.094,3.075 3.586,3.305 3.333 C 3.546 3.066,3.883 3.040,7.104 3.040 L 10.639 3.040 15.471 7.880 M6.982 6.982 C 6.677 7.287,6.560 7.569,6.560 8.000 C 6.560 9.297,8.101 9.935,9.018 9.018 C 9.935 8.101,9.297 6.560,8.000 6.560 C 7.569 6.560,7.287 6.677,6.982 6.982 " stroke="none" fill-rule="evenodd" fill="black"></path></svg>