<svg width="24" height="24" viewBox="0 0 24 24" fill="none" xmlns="http://www.w3.org/2000/svg"><path d="M7.291 2.331 C 7.139 2.484,7.040 2.860,7.040 3.288 L 7.040 3.992 4.297 4.036 L 1.554 4.080 1.229 4.515 C 0.956 4.882,0.934 5.015,1.090 5.359 C 1.192 5.583,1.462 5.837,1.688 5.923 C 1.919 6.011,3.901 6.080,6.173 6.080 L 10.246 6.080 10.141 6.520 C 9.860 7.695,8.698 10.332,8.125 11.094 C 7.916 11.371,7.869 11.350,7.315 10.737 C 6.991 10.379,6.498 9.682,6.220 9.189 C 5.640 8.161,5.164 7.856,4.564 8.129 C 3.599 8.569,4.014 9.895,5.775 11.992 L 6.714 13.111 5.899 13.926 C 4.788 15.036,3.690 15.887,2.370 16.657 C 1.087 17.407,0.783 17.865,1.173 18.461 C 1.605 19.120,1.983 19.123,3.164 18.475 C 4.637 17.669,6.123 16.540,7.344 15.301 L 8.369 14.262 9.137 14.664 C 10.001 15.116,10.430 15.068,10.818 14.476 C 11.159 13.955,10.978 13.506,10.239 13.039 L 9.623 12.650 10.473 11.005 C 11.226 9.549,12.043 7.396,12.192 6.480 C 12.236 6.207,12.406 6.146,13.348 6.065 C 14.234 5.989,14.511 5.898,14.746 5.607 C 15.122 5.143,15.116 4.940,14.708 4.422 L 14.377 4.000 11.668 4.000 L 8.960 4.000 8.960 3.305 C 8.960 2.834,8.865 2.524,8.667 2.345 C 8.298 2.010,7.619 2.004,7.291 2.331 M15.827 9.357 C 15.332 9.627,15.067 10.121,12.249 16.038 C 9.856 21.062,9.740 21.477,10.609 21.892 C 11.336 22.239,11.739 21.836,12.673 19.830 L 13.488 18.080 16.479 18.080 L 19.471 18.080 20.371 19.924 C 21.283 21.792,21.604 22.133,22.284 21.955 C 22.726 21.839,23.087 21.201,22.952 20.774 C 22.792 20.270,18.239 10.775,17.804 10.038 C 17.479 9.487,16.910 9.110,16.430 9.126 C 16.325 9.130,16.054 9.234,15.827 9.357 M17.496 13.911 C 17.993 14.962,18.400 15.862,18.400 15.911 C 18.400 15.960,17.530 16.000,16.467 16.000 C 15.403 16.000,14.557 15.939,14.587 15.864 C 14.871 15.140,16.422 12.002,16.496 12.001 C 16.549 12.000,16.999 12.860,17.496 13.911 " stroke="none" fill-rule="evenodd" fill="black"></path></svg>