<svg width="24" height="24" viewBox="0 0 24 24" fill="none" xmlns="http://www.w3.org/2000/svg"><path d="M8.265 2.373 C 7.909 2.766,7.931 3.291,8.320 3.680 C 8.620 3.980,8.853 4.000,12.000 4.000 C 15.147 4.000,15.380 3.980,15.680 3.680 C 16.079 3.281,16.091 2.692,15.707 2.345 C 15.454 2.116,14.951 2.080,11.972 2.080 C 8.840 2.080,8.506 2.106,8.265 2.373 M2.596 5.124 C 2.190 5.290,1.928 5.837,2.044 6.279 C 2.159 6.721,2.723 7.040,3.388 7.040 C 4.126 7.040,4.066 6.734,4.399 12.240 C 4.820 19.196,4.938 19.797,6.106 20.908 C 7.161 21.912,7.637 22.000,12.000 22.000 C 16.363 22.000,16.839 21.912,17.894 20.908 C 19.062 19.797,19.161 19.292,19.596 12.240 C 19.937 6.714,19.872 7.040,20.630 7.040 C 21.405 7.040,21.960 6.613,21.960 6.016 C 21.960 5.002,22.362 5.043,12.194 5.008 C 6.821 4.990,2.808 5.038,2.596 5.124 M17.849 8.200 C 17.795 8.838,17.646 10.980,17.518 12.960 C 17.138 18.825,17.057 19.243,16.209 19.697 C 15.605 20.020,8.395 20.020,7.791 19.697 C 6.943 19.243,6.862 18.825,6.482 12.960 C 6.354 10.980,6.205 8.838,6.151 8.200 L 6.053 7.040 12.000 7.040 L 17.947 7.040 17.849 8.200 M9.209 9.956 C 9.009 10.242,8.960 10.816,8.960 12.905 C 8.960 14.332,9.028 15.678,9.111 15.896 C 9.394 16.642,10.516 16.655,10.853 15.916 C 10.971 15.656,11.040 14.552,11.040 12.908 C 11.040 9.931,10.936 9.600,10.000 9.600 C 9.621 9.600,9.383 9.707,9.209 9.956 M13.209 9.956 C 13.009 10.242,12.960 10.816,12.960 12.905 C 12.960 14.332,13.028 15.678,13.111 15.896 C 13.394 16.642,14.516 16.655,14.853 15.916 C 14.971 15.656,15.040 14.552,15.040 12.908 C 15.040 9.931,14.936 9.600,14.000 9.600 C 13.621 9.600,13.383 9.707,13.209 9.956 " stroke="none" fill-rule="evenodd" fill="black"></path></svg>