<svg width="24" height="24" viewBox="0 0 24 24" fill="none" xmlns="http://www.w3.org/2000/svg"><path d="M10.000 2.296 C 7.901 2.990,6.314 4.447,5.516 6.413 C 5.256 7.053,5.121 7.181,4.458 7.417 C 2.751 8.023,1.261 10.022,1.026 12.023 C 0.829 13.696,1.819 15.923,3.177 16.864 C 3.898 17.364,4.216 17.384,4.640 16.960 C 5.154 16.446,5.042 15.935,4.239 15.144 C 3.375 14.292,3.040 13.558,3.040 12.517 C 3.040 10.891,4.344 9.311,5.888 9.064 C 6.662 8.940,6.923 8.642,7.284 7.469 C 7.653 6.271,8.664 5.129,9.888 4.528 C 11.187 3.890,12.813 3.890,14.112 4.528 C 15.336 5.129,16.347 6.271,16.716 7.469 C 17.077 8.642,17.338 8.940,18.112 9.064 C 19.656 9.311,20.960 10.891,20.960 12.517 C 20.960 13.558,20.625 14.292,19.761 15.144 C 18.958 15.935,18.846 16.446,19.360 16.960 C 19.784 17.384,20.102 17.364,20.823 16.864 C 22.181 15.923,23.171 13.696,22.974 12.023 C 22.739 10.022,21.249 8.023,19.542 7.417 C 18.879 7.181,18.744 7.053,18.484 6.413 C 17.799 4.725,16.611 3.490,14.880 2.664 C 13.964 2.227,13.650 2.163,12.240 2.126 C 11.232 2.100,10.403 2.162,10.000 2.296 M9.318 13.322 C 6.919 15.726,6.690 16.114,7.333 16.695 C 7.900 17.209,8.342 17.027,9.600 15.760 C 10.256 15.100,10.848 14.560,10.916 14.560 C 10.984 14.560,11.040 16.097,11.040 17.975 C 11.040 21.081,11.067 21.414,11.333 21.655 C 11.719 22.005,12.365 21.992,12.695 21.627 C 12.924 21.375,12.960 20.875,12.960 17.947 C 12.960 16.084,13.016 14.560,13.084 14.560 C 13.152 14.560,13.744 15.100,14.400 15.760 C 15.673 17.041,16.177 17.241,16.695 16.667 C 17.266 16.036,17.064 15.699,14.678 13.318 C 12.960 11.603,12.297 11.040,11.996 11.040 C 11.694 11.040,11.035 11.602,9.318 13.322 " stroke="none" fill-rule="evenodd" fill="black"></path></svg>