<svg width="24" height="24" viewBox="0 0 24 24" fill="none" xmlns="http://www.w3.org/2000/svg"><path d="M9.922 2.434 C 8.704 2.901,7.367 4.255,6.906 5.487 C 6.140 7.534,6.582 9.756,8.054 11.256 C 9.309 12.535,10.147 12.880,12.000 12.880 C 13.853 12.880,14.691 12.535,15.946 11.256 C 17.418 9.756,17.860 7.534,17.094 5.487 C 16.621 4.224,15.296 2.899,14.033 2.426 C 12.804 1.966,11.132 1.969,9.922 2.434 M12.945 4.156 C 15.424 4.867,16.273 7.856,14.551 9.812 C 13.906 10.544,12.877 11.040,12.000 11.040 C 10.500 11.040,8.967 9.777,8.635 8.267 C 8.064 5.666,10.409 3.428,12.945 4.156 M6.352 14.787 C 4.145 15.589,3.040 17.321,3.040 19.977 C 3.040 21.533,3.237 21.920,4.028 21.920 C 4.693 21.920,4.909 21.491,5.030 19.931 C 5.091 19.146,5.242 18.308,5.365 18.070 C 5.650 17.519,6.461 16.835,7.012 16.680 C 7.570 16.524,16.430 16.524,16.988 16.680 C 17.539 16.835,18.350 17.519,18.635 18.070 C 18.758 18.308,18.909 19.146,18.970 19.931 C 19.092 21.507,19.306 21.920,20.000 21.920 C 20.754 21.920,20.960 21.499,20.960 19.953 C 20.960 17.624,20.143 16.093,18.377 15.115 L 17.520 14.640 12.240 14.603 C 8.077 14.574,6.832 14.612,6.352 14.787 " stroke="none" fill-rule="evenodd" fill="black"></path></svg>