<svg width="24" height="24" viewBox="0 0 24 24" fill="none" xmlns="http://www.w3.org/2000/svg"><path d="M7.999 2.222 C 6.365 2.750,5.052 4.188,4.644 5.898 C 3.886 9.074,6.512 12.184,9.763 11.960 C 11.065 11.870,12.098 11.422,12.937 10.583 C 14.964 8.556,14.998 5.390,13.014 3.494 C 11.986 2.512,11.141 2.165,9.680 2.126 C 8.976 2.108,8.220 2.151,7.999 2.222 M15.040 2.447 C 14.740 2.597,14.628 2.795,14.590 3.241 C 14.544 3.794,14.593 3.868,15.294 4.313 C 16.377 4.999,16.847 5.733,16.920 6.847 C 16.994 7.981,16.658 8.664,15.664 9.402 C 14.571 10.213,14.560 10.226,14.560 10.702 C 14.560 11.242,14.999 11.680,15.541 11.680 C 16.122 11.680,17.352 10.838,17.927 10.048 C 18.720 8.956,18.926 8.347,18.941 7.040 C 18.958 5.618,18.563 4.589,17.632 3.630 C 16.570 2.536,15.677 2.128,15.040 2.447 M11.084 4.478 C 12.296 5.308,12.763 6.732,12.258 8.055 C 11.902 8.987,11.221 9.600,10.265 9.848 C 9.084 10.154,8.162 9.892,7.330 9.014 C 5.888 7.492,6.487 5.017,8.503 4.162 C 9.130 3.897,10.477 4.062,11.084 4.478 M4.601 14.248 C 3.424 14.536,2.179 15.541,1.584 16.683 C 1.256 17.314,0.973 19.020,0.965 20.422 C 0.959 21.412,1.322 21.960,1.984 21.960 C 2.783 21.960,2.951 21.604,3.050 19.702 C 3.152 17.729,3.431 17.081,4.448 16.448 C 5.028 16.087,5.127 16.080,9.440 16.080 C 13.775 16.080,13.850 16.086,14.501 16.459 C 15.525 17.045,15.855 17.788,15.957 19.730 C 16.004 20.626,16.120 21.458,16.215 21.578 C 16.698 22.184,17.608 22.034,17.913 21.298 C 18.189 20.630,17.878 17.661,17.439 16.786 C 16.961 15.831,16.240 15.097,15.280 14.586 L 14.480 14.160 9.840 14.131 C 7.288 14.115,4.931 14.167,4.601 14.248 M18.577 14.284 C 17.629 14.769,17.875 15.658,19.120 16.247 C 20.521 16.910,20.860 17.546,20.960 19.703 C 21.021 21.021,21.103 21.492,21.306 21.695 C 21.695 22.084,22.405 22.029,22.767 21.582 C 23.035 21.250,23.065 20.998,23.009 19.522 C 22.961 18.254,22.862 17.656,22.607 17.092 C 21.802 15.313,19.584 13.767,18.577 14.284 " stroke="none" fill-rule="evenodd" fill="black"></path></svg>