<svg width="24" height="24" viewBox="0 0 24 24" fill="none" xmlns="http://www.w3.org/2000/svg"><path d="M7.732 2.548 C 4.801 3.934,3.642 7.429,5.204 10.166 C 7.312 13.856,12.688 13.856,14.796 10.166 C 16.362 7.422,15.196 3.940,12.240 2.536 C 11.433 2.153,11.076 2.080,10.000 2.080 C 8.918 2.080,8.568 2.152,7.732 2.548 M11.796 4.532 C 13.034 5.314,13.520 6.311,13.409 7.844 C 13.359 8.535,13.223 8.945,12.882 9.437 C 11.020 12.124,6.824 11.061,6.591 7.844 C 6.460 6.026,7.303 4.746,9.040 4.127 C 9.683 3.898,11.127 4.110,11.796 4.532 M18.790 9.520 C 18.520 9.658,16.674 11.407,14.688 13.405 C 10.706 17.411,11.134 16.780,10.271 19.920 C 9.730 21.889,10.202 22.287,12.338 21.664 C 13.076 21.449,13.968 21.196,14.320 21.103 C 14.848 20.962,15.601 20.297,18.617 17.306 C 20.629 15.312,22.375 13.448,22.497 13.165 C 23.006 11.989,22.660 10.577,21.681 9.830 C 20.949 9.272,19.565 9.123,18.790 9.520 M20.480 11.520 C 20.656 11.696,20.800 11.926,20.800 12.032 C 20.800 12.137,19.242 13.787,17.339 15.698 C 14.411 18.636,13.777 19.197,13.224 19.338 C 12.864 19.429,12.554 19.487,12.533 19.467 C 12.513 19.446,12.571 19.136,12.662 18.776 C 12.803 18.223,13.364 17.589,16.302 14.661 C 18.213 12.758,19.863 11.200,19.968 11.200 C 20.074 11.200,20.304 11.344,20.480 11.520 M4.400 14.782 C 3.016 15.216,1.959 16.212,1.363 17.646 C 1.224 17.979,1.068 18.915,1.015 19.726 C 0.931 21.032,0.955 21.243,1.229 21.580 C 1.595 22.029,2.304 22.084,2.694 21.695 C 2.889 21.500,2.983 21.030,3.044 19.936 C 3.116 18.675,3.194 18.344,3.550 17.807 C 4.208 16.812,4.854 16.588,7.280 16.512 C 9.568 16.439,9.920 16.305,9.920 15.507 C 9.920 14.657,9.639 14.559,7.229 14.571 C 5.952 14.577,4.773 14.665,4.400 14.782 " stroke="none" fill-rule="evenodd" fill="black"></path></svg>