<svg width="24" height="24" viewBox="0 0 24 24" fill="none" xmlns="http://www.w3.org/2000/svg"><path d="M7.732 2.548 C 4.801 3.934,3.642 7.429,5.204 10.166 C 7.312 13.856,12.688 13.856,14.796 10.166 C 16.362 7.422,15.196 3.940,12.240 2.536 C 11.433 2.153,11.076 2.080,10.000 2.080 C 8.918 2.080,8.568 2.152,7.732 2.548 M11.796 4.532 C 13.034 5.314,13.520 6.311,13.409 7.844 C 13.359 8.535,13.223 8.945,12.882 9.437 C 11.020 12.124,6.824 11.061,6.591 7.844 C 6.460 6.026,7.303 4.746,9.040 4.127 C 9.683 3.898,11.127 4.110,11.796 4.532 M18.331 14.292 C 17.809 14.674,17.971 15.318,18.801 16.161 L 19.561 16.933 17.527 16.987 C 15.735 17.034,15.467 17.077,15.267 17.351 C 14.947 17.788,14.985 18.345,15.360 18.720 C 15.645 19.005,15.893 19.040,17.634 19.040 L 19.588 19.040 18.814 19.826 C 17.989 20.663,17.824 21.253,18.286 21.714 C 18.866 22.294,19.325 22.046,21.225 20.127 C 22.223 19.118,23.040 18.162,23.040 18.002 C 23.040 17.842,22.234 16.894,21.249 15.895 C 19.384 14.005,19.007 13.798,18.331 14.292 M4.400 14.782 C 3.016 15.216,1.959 16.212,1.363 17.646 C 1.224 17.979,1.068 18.915,1.015 19.726 C 0.931 21.032,0.955 21.243,1.229 21.580 C 1.595 22.029,2.304 22.084,2.694 21.695 C 2.889 21.500,2.983 21.030,3.044 19.936 C 3.116 18.675,3.194 18.344,3.550 17.807 C 4.305 16.666,4.703 16.567,8.800 16.507 C 12.732 16.449,12.960 16.395,12.960 15.520 C 12.960 14.609,12.735 14.559,8.707 14.571 C 6.242 14.578,4.830 14.647,4.400 14.782 " stroke="none" fill-rule="evenodd" fill="black"></path></svg>