<svg width="24" height="24" viewBox="0 0 24 24" fill="none" xmlns="http://www.w3.org/2000/svg"><path d="M4.394 1.113 C 3.346 1.274,2.746 1.595,2.047 2.369 C 1.034 3.491,1.040 3.431,1.040 12.000 C 1.040 20.810,1.027 20.711,2.302 21.886 C 3.481 22.974,3.359 22.960,12.000 22.960 C 20.641 22.960,20.519 22.974,21.698 21.886 C 22.973 20.711,22.960 20.810,22.960 12.000 C 22.960 5.836,22.915 4.112,22.741 3.619 C 22.442 2.774,21.511 1.779,20.640 1.374 C 19.945 1.052,19.661 1.039,12.560 1.014 C 8.512 1.000,4.837 1.045,4.394 1.113 M19.923 3.292 C 20.970 3.789,20.968 3.769,20.922 12.108 C 20.882 19.289,20.869 19.575,20.610 19.003 C 20.197 18.094,18.970 16.880,18.034 16.457 C 17.213 16.086,17.120 16.080,12.000 16.080 C 6.880 16.080,6.787 16.086,5.966 16.457 C 5.030 16.880,3.803 18.094,3.390 19.003 C 3.131 19.575,3.118 19.289,3.078 12.108 C 3.042 5.551,3.068 4.548,3.290 4.082 C 3.782 3.044,3.749 3.048,11.976 3.044 C 18.403 3.040,19.463 3.074,19.923 3.292 M10.935 4.640 C 9.497 4.939,8.231 5.940,7.494 7.360 C 7.183 7.958,7.120 8.323,7.120 9.520 C 7.120 10.817,7.167 11.045,7.595 11.817 C 9.551 15.348,14.449 15.348,16.405 11.817 C 16.833 11.045,16.880 10.817,16.880 9.520 C 16.880 7.855,16.585 7.106,15.482 5.969 C 14.397 4.850,12.538 4.307,10.935 4.640 M13.657 7.046 C 14.458 7.596,14.926 8.502,14.926 9.506 C 14.926 12.106,11.888 13.472,10.026 11.710 C 9.352 11.073,9.074 10.426,9.074 9.497 C 9.074 8.374,9.664 7.363,10.596 6.890 C 11.512 6.424,12.848 6.492,13.657 7.046 M17.359 18.400 C 18.154 18.784,18.663 19.431,18.860 20.309 L 19.006 20.960 12.000 20.960 L 4.994 20.960 5.140 20.309 C 5.336 19.437,5.838 18.794,6.628 18.403 C 7.237 18.101,7.589 18.080,11.989 18.080 C 16.370 18.080,16.745 18.102,17.359 18.400 " stroke="none" fill-rule="evenodd" fill="black"></path></svg>