<svg width="24" height="24" viewBox="0 0 24 24" fill="none" xmlns="http://www.w3.org/2000/svg"><path d="M7.999 2.222 C 6.365 2.750,5.052 4.188,4.644 5.898 C 3.886 9.074,6.512 12.184,9.763 11.960 C 11.065 11.870,12.098 11.422,12.937 10.583 C 14.964 8.556,14.998 5.390,13.014 3.494 C 11.986 2.512,11.141 2.165,9.680 2.126 C 8.976 2.108,8.220 2.151,7.999 2.222 M15.040 2.447 C 14.740 2.597,14.628 2.795,14.590 3.241 C 14.544 3.794,14.593 3.868,15.294 4.313 C 16.377 4.999,16.847 5.733,16.920 6.847 C 16.994 7.981,16.658 8.664,15.664 9.402 C 14.571 10.213,14.560 10.226,14.560 10.702 C 14.560 11.242,14.999 11.680,15.541 11.680 C 16.122 11.680,17.352 10.838,17.927 10.048 C 18.720 8.956,18.926 8.347,18.941 7.040 C 18.958 5.618,18.563 4.589,17.632 3.630 C 16.570 2.536,15.677 2.128,15.040 2.447 M11.084 4.478 C 12.296 5.308,12.763 6.732,12.258 8.055 C 11.902 8.987,11.221 9.600,10.265 9.848 C 9.084 10.154,8.162 9.892,7.330 9.014 C 5.888 7.492,6.487 5.017,8.503 4.162 C 9.130 3.897,10.477 4.062,11.084 4.478 M4.601 14.253 C 3.433 14.529,2.181 15.537,1.584 16.683 C 1.256 17.314,0.973 19.020,0.965 20.422 C 0.959 21.412,1.322 21.960,1.984 21.960 C 2.783 21.960,2.951 21.604,3.050 19.702 C 3.152 17.729,3.431 17.081,4.448 16.448 C 5.010 16.099,5.230 16.076,8.736 16.000 C 12.738 15.913,12.960 15.863,12.960 15.045 C 12.960 14.130,12.732 14.078,8.787 14.096 C 6.814 14.105,4.931 14.176,4.601 14.253 M19.770 16.797 L 17.990 18.554 17.246 17.810 C 16.415 16.979,15.662 16.810,15.257 17.364 C 14.803 17.985,14.990 18.408,16.291 19.709 C 18.050 21.468,17.932 21.496,20.754 18.674 C 23.155 16.273,23.333 15.973,22.720 15.360 C 22.079 14.719,21.679 14.913,19.770 16.797 " stroke="none" fill-rule="evenodd" fill="black"></path></svg>