<svg width="24" height="24" viewBox="0 0 24 24" fill="none" xmlns="http://www.w3.org/2000/svg"><path d="M4.160 4.145 C 2.928 4.404,1.932 5.211,1.376 6.400 C 1.058 7.082,1.040 7.375,1.040 12.000 C 1.040 16.612,1.058 16.920,1.374 17.602 C 1.777 18.471,2.482 19.206,3.309 19.616 C 3.874 19.897,4.342 19.920,9.520 19.920 C 14.956 19.920,15.139 19.910,15.760 19.574 C 16.571 19.135,17.344 18.322,17.644 17.593 C 17.772 17.281,17.929 16.465,17.993 15.779 L 18.110 14.532 19.424 15.815 C 20.147 16.521,20.933 17.147,21.169 17.207 C 21.801 17.365,22.358 17.173,22.678 16.684 C 22.929 16.301,22.960 15.794,22.960 12.000 C 22.960 8.206,22.929 7.699,22.678 7.316 C 22.358 6.827,21.801 6.635,21.169 6.793 C 20.933 6.853,20.147 7.479,19.424 8.185 L 18.110 9.468 17.992 8.215 C 17.853 6.727,17.509 5.864,16.778 5.168 C 15.663 4.107,15.511 4.083,9.840 4.053 C 7.024 4.039,4.468 4.080,4.160 4.145 M15.043 6.347 C 15.893 6.849,15.920 7.024,15.920 12.000 C 15.920 17.022,15.901 17.140,14.987 17.693 C 14.516 17.978,14.128 18.000,9.520 18.000 C 3.954 18.000,3.720 17.958,3.267 16.875 C 2.975 16.176,2.936 8.026,3.221 7.209 C 3.320 6.923,3.626 6.553,3.901 6.386 C 4.364 6.103,4.770 6.081,9.495 6.081 C 13.968 6.080,14.646 6.113,15.043 6.347 M20.960 12.039 L 20.960 14.477 19.723 13.240 L 18.485 12.003 19.679 10.801 C 20.335 10.141,20.892 9.600,20.916 9.600 C 20.940 9.600,20.960 10.697,20.960 12.039 " stroke="none" fill-rule="evenodd" fill="black"></path></svg>