<svg width="24" height="24" viewBox="0 0 24 24" fill="none" xmlns="http://www.w3.org/2000/svg"><path d="M12.240 3.024 C 11.976 3.190,10.933 4.162,9.923 5.183 L 8.085 7.040 6.587 7.040 C 4.817 7.040,4.147 7.287,3.772 8.077 C 3.410 8.841,3.402 15.143,3.763 15.903 C 4.163 16.748,4.712 16.960,6.493 16.960 L 8.057 16.960 10.252 19.120 C 12.225 21.063,12.502 21.280,13.005 21.280 C 13.741 21.280,14.222 20.868,14.404 20.080 C 14.596 19.250,14.598 4.756,14.406 3.928 C 14.148 2.815,13.199 2.419,12.240 3.024 M12.480 12.031 L 12.480 18.622 10.665 16.831 L 8.849 15.040 7.232 15.040 L 5.614 15.040 5.567 12.263 C 5.541 10.736,5.543 9.368,5.572 9.223 C 5.616 9.000,5.868 8.960,7.238 8.960 L 8.852 8.960 10.626 7.202 C 11.602 6.235,12.418 5.443,12.440 5.442 C 12.462 5.441,12.480 8.406,12.480 12.031 M17.552 7.325 C 17.162 7.755,17.211 8.142,17.800 9.283 C 18.291 10.236,18.320 10.386,18.320 12.000 C 18.320 13.614,18.291 13.764,17.800 14.717 C 17.203 15.875,17.155 16.317,17.586 16.707 C 18.111 17.183,18.735 16.978,19.289 16.148 C 20.068 14.982,20.400 13.743,20.400 12.000 C 20.400 10.223,20.092 9.054,19.321 7.900 C 18.724 7.006,18.041 6.784,17.552 7.325 " stroke="none" fill-rule="evenodd" fill="black"></path></svg>