<svg width="24" height="24" viewBox="0 0 24 24" fill="none" xmlns="http://www.w3.org/2000/svg"><path d="M5.353 5.353 C 5.137 5.569,4.960 5.870,4.960 6.023 C 4.960 6.175,6.235 7.582,7.794 9.150 L 10.628 12.000 7.794 14.850 C 6.235 16.418,4.960 17.825,4.960 17.977 C 4.960 18.336,5.664 19.040,6.023 19.040 C 6.175 19.040,7.582 17.765,9.150 16.206 L 12.000 13.372 14.850 16.206 C 16.418 17.765,17.825 19.040,17.977 19.040 C 18.336 19.040,19.040 18.336,19.040 17.977 C 19.040 17.825,17.765 16.418,16.206 14.850 L 13.372 12.000 16.206 9.150 C 17.765 7.582,19.040 6.175,19.040 6.023 C 19.040 5.664,18.336 4.960,17.977 4.960 C 17.825 4.960,16.418 6.235,14.850 7.794 L 12.000 10.628 9.150 7.794 C 7.582 6.235,6.175 4.960,6.023 4.960 C 5.870 4.960,5.569 5.137,5.353 5.353 " stroke="none" fill-rule="evenodd" fill="black"></path></svg>