<svg width="24" height="24" viewBox="0 0 24 24" fill="none" xmlns="http://www.w3.org/2000/svg"><path d="M6.331 6.292 C 6.170 6.410,6.040 6.705,6.040 6.950 C 6.040 7.310,6.482 7.839,8.338 9.698 L 10.636 12.000 8.338 14.302 C 5.938 16.707,5.690 17.118,6.286 17.714 C 6.882 18.310,7.293 18.062,9.698 15.662 L 12.000 13.364 14.280 15.631 C 15.534 16.877,16.668 17.917,16.800 17.940 C 17.464 18.058,18.058 17.464,17.940 16.800 C 17.917 16.668,16.877 15.534,15.631 14.280 L 13.364 12.000 15.662 9.698 C 17.518 7.839,17.960 7.310,17.960 6.950 C 17.960 6.435,17.556 6.080,16.971 6.080 C 16.661 6.080,16.022 6.621,14.282 8.358 L 12.000 10.636 9.718 8.358 C 7.348 5.992,7.017 5.791,6.331 6.292 " stroke="none" fill-rule="evenodd" fill="black"></path></svg>