<svg width="24" height="24" viewBox="0 0 24 24" fill="none" xmlns="http://www.w3.org/2000/svg"><path d="M16.212 2.440 C 15.636 3.081,9.418 11.876,9.163 12.409 C 8.732 13.313,9.241 14.256,10.271 14.462 C 10.540 14.516,11.682 14.560,12.810 14.560 L 14.860 14.560 14.778 15.080 C 14.395 17.517,14.007 20.972,14.082 21.290 C 14.132 21.504,14.372 21.776,14.615 21.893 C 14.990 22.073,15.112 22.069,15.422 21.866 C 15.816 21.609,22.435 12.433,22.839 11.585 C 23.130 10.977,23.018 10.381,22.528 9.924 C 22.210 9.628,21.970 9.600,19.739 9.600 C 18.397 9.600,17.268 9.546,17.231 9.480 C 17.193 9.414,17.332 8.136,17.540 6.640 C 17.988 3.411,18.027 2.642,17.761 2.321 C 17.455 1.953,16.590 2.019,16.212 2.440 M3.291 5.851 C 2.918 6.225,2.973 6.975,3.396 7.271 C 3.684 7.473,4.271 7.520,6.498 7.520 C 8.910 7.520,9.288 7.485,9.602 7.230 C 9.999 6.909,10.077 6.222,9.760 5.840 C 9.458 5.476,3.657 5.486,3.291 5.851 M15.212 8.792 C 14.972 10.343,14.995 10.963,15.304 11.220 C 15.492 11.377,16.276 11.463,18.024 11.520 L 20.481 11.600 18.601 14.233 C 17.406 15.908,16.703 16.767,16.669 16.592 C 16.640 16.440,16.693 15.818,16.788 15.208 C 17.028 13.657,17.005 13.037,16.696 12.780 C 16.508 12.623,15.724 12.537,13.976 12.480 L 11.519 12.400 13.399 9.767 C 14.594 8.092,15.297 7.233,15.331 7.408 C 15.360 7.560,15.307 8.182,15.212 8.792 M1.280 11.360 C 1.104 11.536,0.960 11.824,0.960 12.000 C 0.960 12.176,1.104 12.464,1.280 12.640 C 1.575 12.935,1.813 12.960,4.311 12.960 C 6.931 12.960,7.030 12.948,7.271 12.604 C 7.606 12.126,7.584 11.744,7.200 11.360 C 6.906 11.066,6.667 11.040,4.240 11.040 C 1.813 11.040,1.574 11.066,1.280 11.360 M2.916 16.729 C 2.504 17.017,2.443 17.699,2.787 18.169 C 2.999 18.459,3.231 18.480,6.221 18.480 C 8.997 18.480,9.464 18.444,9.694 18.214 C 10.075 17.833,10.029 17.116,9.602 16.770 C 9.286 16.513,8.902 16.480,6.258 16.480 C 3.814 16.480,3.207 16.525,2.916 16.729 " stroke="none" fill-rule="evenodd" fill="black"></path></svg>