<svg width="24" height="24" viewBox="0 0 24 24" fill="none" xmlns="http://www.w3.org/2000/svg"><path d="M12.560 1.145 C 12.230 1.314,3.148 12.161,2.778 12.827 C 2.504 13.321,2.510 13.679,2.800 14.240 C 3.155 14.926,3.820 15.038,7.550 15.039 L 10.860 15.040 10.782 15.560 C 10.365 18.326,9.986 22.062,10.094 22.350 C 10.292 22.881,10.818 23.107,11.335 22.881 C 11.788 22.684,20.881 11.852,21.261 11.056 C 21.670 10.200,21.218 9.343,20.236 9.115 C 19.886 9.034,18.139 8.966,16.353 8.964 L 13.105 8.960 13.193 8.440 C 13.412 7.142,13.919 2.733,13.920 2.129 C 13.920 1.617,13.836 1.399,13.564 1.209 C 13.159 0.925,13.009 0.916,12.560 1.145 M11.288 7.455 C 10.982 9.788,10.979 10.255,11.267 10.649 C 11.477 10.937,11.766 10.966,15.126 11.040 L 18.759 11.120 15.660 14.842 C 13.956 16.889,12.540 18.499,12.513 18.419 C 12.486 18.338,12.576 17.423,12.712 16.383 C 13.017 14.058,13.019 13.742,12.733 13.351 C 12.523 13.063,12.234 13.034,8.874 12.960 L 5.241 12.880 8.333 9.166 C 10.034 7.123,11.450 5.477,11.481 5.507 C 11.511 5.538,11.425 6.414,11.288 7.455 " stroke="none" fill-rule="evenodd" fill="black"></path></svg>