<svg version="1.1" xmlns="http://www.w3.org/2000/svg" width="32" height="32" viewBox="0 0 32 32"><path d="M3.244 0.241 C 2.221 0.536,0.519 2.271,0.236 3.307 C -0.090 4.497,-0.087 27.516,0.239 28.693 C 0.552 29.826,2.174 31.448,3.307 31.761 C 4.493 32.090,27.507 32.090,28.693 31.761 C 29.826 31.448,31.448 29.826,31.761 28.693 C 32.087 27.516,32.090 4.497,31.764 3.307 C 31.462 2.202,29.849 0.617,28.667 0.263 C 27.589 -0.060,4.358 -0.080,3.244 0.241 M27.259 24.053 L 27.200 27.200 16.000 27.200 L 4.800 27.200 4.741 24.053 L 4.682 20.907 16.000 20.907 L 27.318 20.907 27.259 24.053 " fill="#474747" stroke="none" fill-rule="evenodd"></path></svg>